<svg data-name="Layer 2" xmlns="http://www.w3.org/2000/svg" viewBox="0 0 571.618 255.131"><g data-name="Layer 1-2" stroke-width="0"><path d="M325.85 170.97c-8.65-9.12-22.19-23.7-40.61-43.74-12.93 7.94-22.5 12.87-28.73 14.8 2.05 2.18 4.28 4.73 6.7 7.67-3.12 1.3-6.72 2.81-10.8 4.54-9.02 13.04-16.79 24.23-23.33 33.59 5.55 8.78 18.73 26.34 39.53 52.7q28.383-12.31 56.81-24.52l.43-45.03z" fill="#fff"/><path d="m284.81 147.42 22.46 27 4 30.46c-19.3 8.21-31.72 13.54-37.26 15.98-3.46-5.54-10.91-16.34-22.36-32.4 4.82-8.21 8.32-14.26 10.48-18.14 9.5-1.08 16.24-1.98 20.2-2.7 5.18 6.55 9.04 11.2 11.56 13.93 1.01 4.82 1.84 9.14 2.48 12.96v.11c.29.86.47 1.73.54 2.59l-17.93 7.78c-4.18-6.34-7.31-10.8-9.4-13.39 1.3-2.59 3.13-6.48 5.51-11.66l8.21 3.67 2.59 8.42-5.08 2.05-4.32-10.8c-1.37 4.54-1.04 10.08.97 16.63 6.41-1.94 11.2-3.31 14.36-4.1l-4.32-16.2-14.69-5.62c-3.67 4.9-7.38 10.62-11.12 17.17 5.98 8.14 11.2 15.59 15.66 22.36 12.38-4.82 21.2-9 26.46-12.53-.86-3.67-2.2-11.74-4-24.19-7.2-7.49-12.53-13.18-15.98-17.06-12.17 1.44-20.2 2.23-24.08 2.38l-18.68 24.52c6.34 11.02 16.09 25.38 29.27 43.09l48.06-22.36c.07-1.37-.94-13.18-3.02-35.42a14949 14949 0 0 1-30.89-33.7c-6.14 2.32-11.62 4.37-16.42 6.16-9.42 3.53-16.19 6.02-20.3 7.45a7383 7383 0 0 1-24.19 35.21c9.79 13.39 23.76 33.26 41.9 59.61q39.75-16.41 66.09-27c-.5-9.72-.94-27.43-1.3-53.13q-27.54-25.17-45.03-43.74l-33.26 21.17 33.05-12.96c20.09 23.26 32.18 37.12 36.29 41.58l.32 42.55c-10.37 3.67-28.22 10.15-53.57 19.44-15.41-17.71-27.33-34.09-35.75-49.14-.04-.08-.07-.15-.11-.22a.6.6 0 0 0 .11-.22c7.82-9.62 15.41-18.98 22.79-28.08l29.7-9.5z" fill="#010101"/><path d="M287.42 87.58c4.43 10.46 15.72 18.84 33.85 25.15l44.3-17.74c-4.77-20.36-18.27-35.4-40.48-45.15-13.35 4.46-25.91 17.04-37.67 37.73m-12.8 9.41-42.25-15.9-34.4 19.07c-.19.11-.17.39.03.47 0 0 19.62 14.71 37.49 14.23 16.38-.44 29.16-8.93 39.13-17.87" fill="#e9e3c4"/><path d="M278.23 62.81c-.08-4.38-.65-13.89-1.7-28.51-2.51 2.62-4.68 14.08-6.52 34.36-26.58-7.15-48.35-13.14-65.33-17.96-11.37 10.44-17.84 21.89-19.42 34.34.15-.05.97-1.03 2.45-2.95.67-.75 3.93-4.18 9.76-10.3q8.115-8.475 9.12-9.6c6.54 2.06 19.41 6.19 38.61 12.38 20.94 6.73 31.98 10.32 33.1 10.75.11-1.31.17-2.51.19-3.61.11-1.6.03-7.91-.26-18.92m-57.36-26.22c-.05.09 0 .26.14.5q.21.435.42.57c.47.29 1.06.6 1.76.94.24.1 1.96.71 5.15 1.84 3.23 1.17 7.15 3.21 11.76 6.1 4.62 2.89 8.15 5.65 10.6 8.28 2.9 1.73 4.01 1.67 3.33-.17-5.01-6.2-9.85-10.49-14.51-12.86-6.25-3.19-12.47-4.92-18.64-5.19M296.94 58c-1.43 1.07-2.75 2.3-3.94 3.71q-3.45 4.065-5.01 9.51c-.25.89-.42 1.72-.53 2.47.02 2.03-.01 3.09-.11 3.19.57-.56 1.11-1.5 1.59-2.82a34 34 0 0 1 5.78-9.28c2.4-2.81 5.17-5.16 8.31-7.06.43-.28.93-.67 1.5-1.19.62-.61.91-.98.86-1.12s-.61-.22-1.7-.23-1.73.05-2.06.19a23.7 23.7 0 0 0-4.71 2.63M288 5.73c-.07 1.61-.01 4.91.16 9.92.17 5.44.36 9.22.57 11.35.16 2.69.59 7.59 1.31 14.69.3 2.65.67 5.06 1.12 7.24.95-.22 2.01-.47 3.2-.74 11.7-2.83 29.45-7.48 53.25-13.94 3.94 6.19 7.54 10.82 10.81 13.88 2.48 2.35 6.45 5.39 11.93 9.15-1.17-4.55-8.02-16.28-20.54-35.19-15.25 3.36-32.9 7.27-52.94 11.75-2.83-12.08-5.66-23.36-8.51-33.84-.17 2.55-.29 4.46-.35 5.74m104.81 80.81q-.285 0-.78.06c-4.88.88-9.79 2.38-14.72 4.5-1.38.6-2.47 1.27-3.28 2.01-.62.56-.91.93-.86 1.12.18.52.68.74 1.48.66 4.26-1.03 6.87-1.71 7.82-2.03.57-.13 2.3-.85 5.2-2.13 3.09-1.38 4.75-2.23 4.99-2.56.05-.09.29-.33.72-.7.29-.23.34-.44.15-.64-.19-.14-.42-.24-.71-.29m-18.86 12.38c.05.14 1.18.42 3.39.82 1.08.2 2.17.4 3.25.61 1.13.2 2.43.34 3.89.4.85.06 2.17.1 3.97.12 1.51.02 2.57 0 3.19-.03 1.23-.03 2.29-.11 3.19-.24.19-.04.45-.16.78-.34q.57-.345.36-.42c-.66-.29-2.87-.7-6.65-1.22-3.68-.47-6.35-.74-8-.81-1.37-.06-2.48-.08-3.33-.04-1.23.03-2.32.16-3.26.38h-.14c-.09 0-.24.09-.43.28-.19.23-.26.4-.22.49m-181 6.48c-.14-.14-.52-.22-1.13-.23-.61 0-1.04.06-1.28.2-7.94 3.78-11.95 5.73-12.05 5.88-.05.09.12.21.49.36q.495.15.78.15c.28 0 .95-.13 1.99-.4s1.8-.5 2.28-.68c1.8-.73 3.18-1.31 4.13-1.72 1.47-.74 2.74-1.5 3.78-2.29.29-.19.5-.37.64-.56.19-.23.31-.47.36-.7m-17.59-4.68c1.23.25 3.56.35 7.01.3 3.17 0 5.36-.12 6.59-.34.8-.13 1.4-.29 1.78-.47.1-.05.14-.19.15-.42s-.04-.38-.14-.43c-.99-.53-3.42-.68-7.29-.44a477 477 0 0 1-6.17.42c-2.6.2-3.95.38-4.05.52-.19.23.51.53 2.12.88m39.42-24.74c5.19-3.19 6.74-4.66 4.66-4.41-2.58.53-5.07 1.32-7.47 2.39-4.18 1.88-7.47 4.41-9.87 7.6-2.35 3.25-3.78 7.65-4.27 13.2.38-.18.72-.53 1.01-1.05 1.4-2.67 3.11-5.51 5.14-8.51 2.02-2.95 5.63-6.03 10.81-9.22m14.39 51.63c3.25.56 5.19.8 5.8.71.71-.09 4.72-1.69 12.04-4.81 7.36-3.17 11.5-5.06 12.4-5.66 10.48-6.86 16.1-11 16.88-12.41.29-.52.59-1.55.89-3.11-.53.65-4.34 3.18-11.43 7.58-3.67 2.27-7.76 4.77-12.28 7.5-1.62.92-7.98 3.59-19.09 7.99-21.52-5.42-32.78-7.96-33.78-7.64-.33.14-.62.35-.86.63s-.29.56-.15.85q.135.36 11.22 3.54c7.91 2.32 14.03 3.93 18.37 4.83m1.79 9.87c2.32-.11 4.68-.51 7.1-1.19 2.09-.54 4.34-1.36 6.76-2.47q2.565-1.17 6.42-3.18c2.24-1.2 3.97-2.22 5.21-3.05.71-.51 2.46-1.98 5.23-4.4 2.82-2.47 4.78-4.26 5.88-5.38.91-.89 1.6-1.63 2.08-2.24.72-.94 1.23-1.83 1.52-2.67-1.67 1.16-4.24 3.04-7.72 5.65-3.24 2.42-5.13 3.83-5.65 4.25-6.54 5.26-14.17 9.16-22.89 11.69-4.31 1.22-7.98 1.96-11.01 2.2 2.21.64 4.57.91 7.08.8m55.13-28.38c1.02 1.67 2.46 3.69 4.32 6.08 2.23 2.91 6.31 7.71 12.22 14.4 0 .09 1.19.96 3.58 2.6 2.62 1.78 4.52 2.91 5.7 3.4q3.39 1.455 7.62 2.43c2.74.36 7.06.63 12.96.8h.07c-.24-.1-5.77-1.53-16.6-4.31-1.27-.49-4.72-2.54-10.34-6.15-1.5-1.06-3.04-2.42-4.63-4.1-.98-1.05-2.35-2.63-4.12-4.73l-13.96-17.11c.68 2.13 1.74 4.37 3.18 6.7m68.27 9.49c-.71-.15-1.13-.18-1.27-.09-1.91 1.39-4.19 2.57-6.85 3.53-1.99.68-4.53 1.34-7.61 1.96-1.14.22-2.91.48-5.32.78-2.6.35-4.26.51-4.97.51-1.27-.2-3.82-.76-7.63-1.65q-6.78-1.575-7.98-2.22-.915-.435-2.04-1.23c-.47-.29-1.15-.75-2.04-1.37-1.4-1.01-3.98-3.14-7.72-6.4-3.97-3.5-6.8-6.11-8.48-7.83-3.21-3.42-5.42-5.95-6.64-7.59v.07c-.38.23 1.5 3.14 5.63 8.72 4.46 5.91 8.17 10.02 11.12 12.33q1.335 1.08 4.77 3.6c2.44 1.73 3.86 2.69 4.29 2.89 4.88 2.38 11.03 4.03 18.44 4.98q1.14.09 7.74-1.32c3.65-.85 6.97-2.16 9.97-3.92.33-.18 1.24-.79 2.72-1.81 1.57-1.11 2.62-1.88 3.15-2.3.24-.19.48-.73.73-1.62m-29.39-70.73c-9.9 3.65-18.23 9.15-25.01 16.49q-10.08 11.07-14.97 24.12c-.31.89-.6 1.71-.88 2.47 11.35 13.25 23.48 21.46 36.41 24.61 6.95 1.34 23.77-5.06 50.48-19.22l-1.1-2.99c-2.37-6.15-5.22-11.9-8.57-17.26C350.21 59.4 338.09 50 325.01 47.93m0 5.32c4.74 1.13 10.79 4.89 18.14 11.28 8.02 6.98 14.91 16.56 20.69 28.74-20.08 10.7-34.14 16.43-42.17 17.2-5.35-1.46-10.94-4.06-16.77-7.79q-8.67-5.535-14.22-13.29c5.49-15.15 16.93-27.2 34.32-36.14m-9.26 9.59c-.66.09-1.3.34-1.92.76-.86.6-1.7 1.61-2.52 3.02-1.69 2.91-2.87 6.32-3.53 10.23-.51 3.16-.7 6.82-.56 10.98.11 2.98.38 5.49.83 7.52.58 2.65 1.5 4.93 2.75 6.84q.84 1.29 1.68 1.65c.52.29 1.11.39 1.77.31.57-.09 1.14-.27 1.71-.55 1.52-.83 2.7-2.19 3.52-4.07.34-.75.63-1.62.88-2.61.15-.66.3-1.56.46-2.69 1.07-6.7 1.35-13.71.83-21.04q-.18-2.625-.51-4.26c-.31-1.52-.82-2.82-1.51-3.92-.6-.95-1.26-1.6-1.96-1.94-.56-.24-1.2-.32-1.91-.24m-37.78 34.76c-15.35-10.28-30.72-16.5-46.12-18.64-2.14.49-6.25 2.24-12.32 5.23-9.18 4.55-17.31 9.93-24.36 16.14 8.15 6.12 16.14 10.69 24 13.69 7.85 3 15.91 3.95 24.2 2.85 8.34-1.05 19.88-7.48 34.61-19.27m-15.2-2.88c4.64 2.12 7.08 3.33 7.33 3.63-12.09 8.24-23.06 12.59-32.9 13.06q-18.135-.495-35.37-11.28c10.02-7.25 20.31-12.4 30.88-15.42l3.32.82c1.63 13.52 4.17 20.04 7.62 19.58 3.45-.42 5.74-5.47 6.85-15.15 3.59 1.06 7.68 2.64 12.27 4.76" fill="#010101"/><path d="M571.555 144.903v-.037l-.065.006v-.037l-.065.006v-.037l-.064.005v-.037l-.065.006v-.037l-.065.006v-.037l-.064.005v-.037l-.065.006v-.037l-.065.006v-.037l-.064.005v-.037l-.065.006v-.037l-.065.006v-.037l-.064.006v-.038l-.065.006v-.036l-.065.006v-.037l-.064.006v-.038l-.065.006v-.037l-.065.006v-.037l-.064.006v-.037l-.065.005v-.037l-.065.006v-.038l-.064.006v-.037l-.065.005v-.037l-.065.006v-.037l-.064.006v-.037l-.065.005v-.037l-.065.006v-.037l-.064.006v-.038l-.065.006v-.038l-.065.006v-.037l-.064.006v-.037l-.065.006v-.038l-.065.006v-.037l-.064.006v-.037l-.065.006v-.038l-.065.006v-.036l-.064.006v-.036l-.065.006v-.038l-.065.006v-.037l-.065.006v-.037l-.064.006v-.037l-.065.006v-.038l-.065.006v-.037l-.064.006v-.038l-.065.006v-.038l-.065.006v-.037l-.064.006v-.037l-.065.006v-.038l-.065.006v-.037l-.065.006v-.037l-.065.006v-.038l-.065.006v-.036l-.064.006v-.037l-.065.006v-.038l-.065.006v-.037l-.064.006v-.037l-.065.006v-.038l-.065.007v-.04l-.064.006v-.036l-.065.006v-.038l-.065.007v-.038l-.064.006v-.037l-.065.006v-.038l-.065.007v-.038l-.064.006v-.037l-.065.006v-.037l-.065.006v-.038l-.064.006v-.037l-.065.006v-.037l-.065.006v-.038l-.064.006v-.037l-.065.006v-.037l-.065.006v-.039l-.064.007v-.037l-.065.006v-.036l-.065.006v-.038l-.064.007v-.038l-.065.006v-.037l-.065.006v-.038l-.064.007v-.038l-.065.006v-.037l-.065.006v-.038l-.064.007v-.038l-.065.006v-.037l-.065.006v-.038l-.064.007v-.038l-.065.007v-.038l-.065.006v-.037l-.064.006v-.039l-.065.007v-.038l-.065.006v-.037l-.064.006v-.038l-.065.007v-.038l-.065.006v-.037l-.064.006v-.038l-.065.007v-.039l-.065.006v-.036l-.064.006v-.038l-.065.007v-.038l-.065.006v-.037l-.064.006v-.038l-.065.007v-.038l-.065.007v-.038l-.065.006v-.038l-.064.007v-.038l-.065.007v-.038l-.064.006v-.038l-.065.007v-.038l-.065.007v-.038l-.065.006v-.037l-.064.006v-.038l-.065.007v-.038l-.065.006v-.036l-.064.006v-.038l-.065.007v-.038l-.065.006v-.037l-.064.006v-.038l-.065.007v-.038l-.065.007v-.04l-.064.006v-.036l-.065.007v-.038l-.065.007v-.038l-.064.006v-.038l-.065.007v-.038l-.065.007v-.038l-.064.006v-.038l-.065.007v-.039l-.065.007v-.038l-.064.006v-.038l-.065.007v-.038l-.065.007v-.038l-.064.007v-.039l-.065.007v-.038l-.065.007v-.038l-.064.007v-.038l-.065.006v-.038l-.065.007v-.038l-.064.007v-.038l-.065.006v-.038l-.065.007v-.038l-.064.007v-.038l-.065.006v-.038l-.065.007v-.037l-.064.007v-.038l-.065.006v-.038l-.065.007v-.038l-.064.007v-.038l-.065.007v-.039l-.065.007v-.038l-.065.007v-.039l-.065.007v-.039l-.065.007v-.038l-.064.007v-.038l-.065.007v-.039l-.065.007v-.038l-.064.007v-.038l-.065.007v-.039l-.065.006v-.036l-.064.007v-.038l-.065.007v-.038l-.065.006v-.038l-.064.007v-.038l-.065.007v-.038l-.065.007v-.041l-.064.007v-.037l-.065.007v-.038l-.065.007v-.039l-.064.007v-.038l-.065.007v-.038l-.065.007v-.039l-.064.007v-.038l-.065.007v-.038l-.065.007v-.039l-.064.008v-.039l-.065.007v-.038l-.065.007v-.039l-.064.008v-.039l-.065.007v-.038l-.065.007v-.038l-.064.007v-.039l-.065.007v-.037l-.065.007v-.038l-.065.007v-.039l-.064.007v-.038l-.065.007v-.038l-.064.007v-.039l-.065.007v-.038l-.065.007v-.039l-.065.007v-.039l-.064.007v-.038l-.065.007v-.038l-.065.007v-.039l-.064.008v-.039l-.065.007v-.038l-.065.007v-.039l-.064.008v-.039l-.065.007v-.038l-.065.007v-.039l-.064.008v-.039l-.065.007v-.038l-.065.007v-.039l-4.488.504-40.142 4.5-3.536.397-.013 2.47-.034.004v-.037l-.083.011v-.037l-.084.011v-.037l-.084.011v-.037l-.083.012v-.038l-.084.012v-.038l-.084.012v-.038l-.084.012v-.038l-.083.012v-.038l-.084.012v-.038l-.084.012v-.038l-.084.012v-.038l-.083.012v-.038l-.084.012v-.038l-.084.012v-.038l-.084.012v-.038l-.083.012v-.038l-.084.012v-.038l-.084.012v-.038l-.084.012v-.038l-.083.012v-.038l-.084.012v-.038l-.084.012v-.038l-.084.012v-.038l-.083.012v-.038l-.084.012v-.038l-.084.012v-.038l-.083.012v-.038l-.084.012v-.038l-.084.012v-.038l-.084.013v-.039l-.083.013v-.039l-.084.013v-.039l-.084.013v-.039l-.084.013v-.039l-.083.013v-.039l-.084.013v-.039l-.084.013v-.039l-.084.013v-.039l-.083.013v-.039l-.084.013v-.039l-.085.013v-.039l-.084.013v-.039l-.083.013v-.039l-.084.013v-.039l-.084.013v-.039l-.083.013v-.039l-.084.013v-.039l-.084.013v-.039l-.084.013v-.039l-.083.013v-.039l-.084.013v-.039l-.084.013v-.039l-.084.013v-.039l-.083.013v-.039l-.084.013v-.039l-.084.013v-.039l-.084.013v-.039l-.083.013v-.039l-.084.014v-.04l-.084.014v-.04l-.084.014v-.04l-.083.014v-.04l-.084.014v-.04l-.084.014v-.04l-.084.014v-.04l-.083.014v-.04l-.084.014v-.04l-.084.014v-.04l-.083.014v-.04l-.084.014v-.04l-.084.014v-.04l-.084.014v-.04l-.083.014v-.04l-.084.014v-.04l-.084.014v-.04l-.084.014v-.04l-.083.014v-.04l-.084.014v-.04l-.084.014v-.04l-.084.014v-.04l-.083.014v-.04l-.084.014v-.04l-.084.014v-.04l-.084.014v-.04l-.083.014v-.04l-.084.015v-.04l-.084.014v-.04l-4.68.796-12.04 2.05-3.328.567v2.012l-.072.006v-.026l-.093.008v-.026l-.094.008v-.027l-.093.008v-.026l-.093.008v-.026l-.094.008v-.027l-.093.008v-.026l-.094.008v-.026l-.093.008v-.027l-.094.008v-.026l-.093.008v-.026l-.093.008v-.027l-.094.009v-.027l-.093.008v-.026l-.094.008v-.026l-.093.008v-.027l-.093.008v-.026l-.094.008v-.026l-.093.008v-.027l-.094.008v-.026l-.093.008v-.026l-.093.008v-.027l-.094.008v-.026l-.093.008v-.026l-.094.008v-.027l-.093.008v-.026l-.093.008v-.026l-.094.008v-.027l-.093.009v-.027l-.094.008v-.026l-.093.008v-.027l-.094.009v-.027l-.093.008v-.026l-.093.008v-.026l-.094.008v-.027l-.093.008v-.026l-.094.008v-.026l-.093.008v-.027l-.093.008v-.026l-.094.008v-.026l-.093.008v-.027l-.094.008v-.026l-.093.008v-.026l-.093.008v-.027l-.094.009v-.027l-.093.008v-.026l-.094.008v-.026l-.093.008v-.027l-.094.008v-.026l-.093.008v-.026l-.093.008v-.027l-.094.008v-.026l-.093.008v-.026l-.094.008v-.027l-.093.008v-.026l-.093.008v-.026l-.094.008v-.027l-.093.009v-.027l-.094.008v-.026l-.093.008v-.027l-.092.009v-.027l-.094.008v-.026l-.093.008v-.026l-.094.008v-.027l-.093.008v-.026l-.093.008v-.026l-.094.008v-.027l-.093.008v-.026l-.094.008v-.026l-.093.008v-.027l-.094.008v-.026l-.093.008v-.026l-.093.008v-.027l-.094.008v-.026l-.093.008v-.026l-.094.008v-.027l-.093.009v-.027l-.093.008v-.026l-.094.008v-.026l-.093.008v-.027l-.094.008v-.026l-.093.008v-.026l-.093.008v-.027l-.094.008v-.026l-.093.008v-.026l-.094.008v-.027l-.093.008v-.026l-4.337.378-10.755.938-3.667.32.004 1.058-.027.003v-.027l-.101.009v-.027l-.101.01v-.027l-.102.009v-.027l-.1.009v-.026l-.102.008v-.026l-.101.009v-.027l-.101.01v-.027l-.102.008v-.026l-.1.009v-.027l-.102.01v-.027l-.101.009v-.027l-.102.009v-.027l-.1.01v-.027l-.102.009v-.027l-.101.009v-.026l-.101.008v-.026l-.102.009v-.027l-.1.01v-.027l-.102.008v-.026l-.101.009v-.027l-.101.01v-.027l-.102.009v-.027l-.1.009-.001-.026-.101.008v-.026l-.101.009v-.027l-.102.01v-.027l-.1.008v-.026l-.102.009v-.027l-.101.01v-.027l-.101.009v-.027l-.102.009v-.026l-.1.008-.001-.026-.101.009v-.027l-.101.009v-.026l-.102.008v-.026l-.1.009v-.027l-.102.01v-.027l-.101.009v-.027l-.101.009v-.027l-4.323.377-9.466.826-3.678.32.008 1.164-.086.008v-.027l-.11.01v-.027l-.108.01v-.027l-.11.01v-.026l-.107.009v-.026l-.11.009v-.026l-.108.009v-.026l-.11.01v-.027l-.108.01v-.027l-.11.01v-.027l-.108.01v-.027l-.108.01v-.027l-.11.01v-.027l-.108.01v-.027l-.11.01v-.027l-.108.01v-.027l-.11.01v-.027l-.108.01v-.027l-.108.01v-.027l-.11.01v-.027l-.108.01v-.027l-.11.01v-.027l-.108.01v-.027l-.11.01v-.027l-.109.01v-.027l-.108.01v-.027l-.11.01v-.027l-.107.01v-.028l-.11.01v-.027l-.109.01v-.027l-.109.01v-.027l-.109.01v-.027l-.108.01v-.026l-.11.009v-.025l-.108.009v-.026l-.109.009v-.026l-.109.01v-.027l-.109.01v-.027l-.108.01v-.027l-.11.01v-.027l-.108.01v-.027l-.109.01v-.027l-.109.01v-.027l-.109.01v-.027l-4.309.376-8.576.748-3.69.322-3.418.298-20.766 1.81-3.705.324-1.606.14-22.302 1.945-2.59.226-4.266.372-16.173 1.41-3.285.287-3.348.292-13.39 1.168-3.744.327.092 3.756.174 7.12.102 4.143.145-.008v.02l.145-.01v.02l.146-.008v.02l.145-.009.001.02.145-.008v.02l.146-.009v.02l.145-.009v.02l.146-.008v.02l.145-.009.001.02.145-.009v.02l.146-.008v.02l.145-.01v.021l.146-.009v.02l.146-.008v.02l.145-.01v.02l.146-.008v.02l.145-.008v.02l.146-.01v.02l.146-.008v.02l.145-.009v.02l.146-.008v.02l.145-.009v.02l.146-.009v.02l.146-.008v.02l.145-.009v.02l.146-.009v.02l.145-.008.001.02.145-.01v.02l.146-.008v.02l.145-.009v.02l.146-.008v.02l.146-.009v.02l.145-.009v.02l.146-.008v.02l.145-.009v.02l.146-.009v.02l.146-.008v.02l.145-.01v.021l.146-.009v.02l.145-.008v.02l.146-.01v.02l.146-.008v.02l.145-.009v.02l.146-.008v.02l.145-.009v.02l.146-.009v.02l.146-.008v.02l.145-.009v.02l.146-.009v.02l.146-.008v.02l.145-.01v.02l.054-.002-.953 6.126-.402.001-4.085.014.1 4.083.17 7.05.092 3.812.145.004.145.003.144.004.145.004.145.004.145.003.144.004.145.004.145.004.145.003.145.004.144.004.145.004.145.003.145.004.144.004.145.004.145.003.145.004.145.004.144.004.145.003.145.004.145.004.144.004.145.003.145.004.145.004.145.004.144.003.145.004.145.004.145.004.145.003.144.004.145.004.145.004.145.003.144.004.145.004.145.004.145.003.145.004.144.004.145.004.145.003.029.001.239 10.278-.105-.01v.017l-.146-.014v.016l-.145-.014v.017l-.146-.014v.017l-.146-.014v.017l-.146-.014v.016l-.145-.013v.016l-.146-.014v.017l-.146-.014v.017l-.145-.014v.017l-.146-.014v.016l-.146-.014v.017l-.146-.014v.017l-.145-.014v.017l-.146-.014v.016l-.146-.014v.017l-.145-.014v.017l-.146-.014v.017l-.146-.014v.016l-.146-.014v.017l-.145-.014v.017l-.146-.014v.017l-.146-.014v.016l-.146-.013v.016l-.145-.014v.017l-.146-.014v.017l-.146-.014v.017l-.145-.014v.016l-.146-.014v.017l-.146-.014v.017l-.146-.014v.017l-.145-.014v.016l-.146-.014v.017l-.146-.014v.017l-.145-.014v.017l-.146-.014v.016l-.146-.014v.017l-.146-.014v.017l-.145-.014v.017l-.146-.014v.016l-.146-.013v.016l-.146-.014v.017l-.145-.014v.017l-.146-.014v.017l-.146-.014v.016l-.145-.014v.017l-.146-.014v.017l-.146-.014v.017l-.146-.014v.016l-.145-.014v.017l-.146-.014v.017l-.146-.014v.017l-.145-.014v.016l-.146-.014v.017l-.146-.014v.017l-.146-.014v.017l-.145-.014v.016l-.146-.013v.016l-.146-.014v.017l-.146-.014v.017l-.145-.014v.017l-.146-.014v.016l-.146-.014v.017l-.145-.014v.017l-.146-.014v.017l-.146-.014v.016l-.146-.014v.017l-.145-.014.11 4.51.171 6.91.086 3.455 3.43.418 14.678 1.787 4.586.558v-.023l.14.017v-.023l.141.018v-.023l.141.017v-.011l4.63.562 4.417.537 3.094.375 5.556.675 4.57.555 2.25.273 6.09.74 4.56.554v-.023l.13.016-.002-.023.13.016v-.023l.127.015v-.022l.128.015v-.023l.13.016v-.023l.127.016v-.023l.13.016v-.023l.127.015v-.022l.128.015v-.023l.13.016v-.023l.127.016v-.023l.128.016v-.023l.13.015v-.023l.127.016v-.023l.13.016v-.023l.127.016v-.023l.128.016v-.023l.13.015v-.023l.127.016V231l.128.016v-.023l.13.016v-.023l.127.015v-.022l.13.015v-.023l.127.016v-.023l.128.016v-.023l.13.016v-.023l.127.015v-.022l.128.015v-.023l.129.016v-.023l.128.016v-.023l.129.016v-.023l.128.015v-.023l.128.016v-.023l.129.016v-.023l.128.016v-.023l.128.015v-.022l.129.015v-.023l.128.016v-.023l.129.016v-.023l.128.016v-.023l.128.015v-.022l.129.015v-.023l.128.016v-.023l.128.016v-.023l.129.016v-.023l.128.015v-.023l.129.016v-.022l.128.016v-.023l.128.016v-.023l.129.015v-.022l.128.015v-.023l.128.016v-.023l.129.016v-.023l.128.016v-.023l.129.015v-.022l.128.015v-.023l.128.016v-.023l.129.016v-.023l.128.016v-.023l.129.015v-.022l.128.015v-.023l.128.016v-.023l.129.016v-.023l.128.015v-.022l.128.015v-.023l.129.016v-.023l.128.016v-.023l.129.016v-.023l.128.015v-.022l.128.015v-.023l.129.016v-.023l.128.016v-.023l.128.016v-.023l.129.015v-.023l.128.016v-.023l.129.016v-.023l.128.016v-.023l.128.015v-.022l.129.015v-.023l.128.016v-.023l.128.016v-.023l.129.016v-.023l.128.015v-.022l.129.015v-.023l.128.016v-.023l.128.016v-.023l.129.016v-.023l.128.015v-.023l.128.016v-.023l.129.016v-.023l.128.016v-.023l.129.015v-.022l.128.015v-.023l.128.016v-.023l.129.016v-.023l.128.016v-.023l.128.015v-.022l.129.015v-.023l.128.016v-.023l.129.016v-.023l.128.016v-.023l.128.015v-.022l.129.015v-.023l.062.008.034 2.376 3.468.42 20.805 2.528 3.364.409 3.48.423 8.5 1.032 4.523.55v-.024l.109.014v-.023l.108.013v-.023l.109.013v-.022l.108.013v-.023l.109.013v-.023l.109.014v-.023l.108.013v-.023l.109.013v-.023l.108.014v-.023l.11.013-.001-.023.109.013v-.022l.108.013v-.023l.109.013v-.023l.109.014v-.023l.108.013v-.023l.109.013v-.022l.108.013v-.023l.109.013v-.023l.109.014v-.023l.108.013v-.023l.109.013v-.023l.108.014v-.023l.11.013-.001-.023.109.013v-.022l.108.013v-.023l.109.013v-.023l.109.014v-.023l.108.013v-.023l.109.013v-.022l.108.013v-.023l.109.013v-.023l.109.014v-.023l.108.013v-.023l.109.013v-.022l.108.013v-.023l.11.013-.001-.023.109.013v-.022l.108.013v-.023l.109.013v-.023l.109.014v-.023l.108.013v-.023l.109.013v-.022l.037.004.007.982 3.493.424 9.367 1.138 4.508.547v-.023l.1.013v-.023l.102.012v-.023l.1.013v-.023l.102.012v-.023l.102.013v-.023l.1.012v-.023l.102.013v-.023l.1.012v-.023l.102.012v-.022l.1.012v-.023l.102.012v-.022l.1.012v-.023l.102.012v-.022l.1.012v-.023l.102.012v-.023l.1.013v-.023l.102.012v-.023l.1.013v-.023l.102.012v-.023l.1.013v-.023l.102.012v-.023l.102.013v-.023l.1.012v-.023l.102.012v-.022l.1.012v-.023l.102.012v-.022l.1.012v-.023l.102.012v-.022l.1.012v-.023l.102.012v-.023l.1.013v-.023l.102.012v-.023l.1.013v-.023l.102.012v-.023l.1.013v-.023l.102.012v-.023l.1.013v-.023l.075.009.004.867 3.503.425 10.629 1.29 4.493.547v-.023l.094.012v-.023l.093.01v-.022l.093.012v-.023l.094.01v-.022l.093.012v-.023l.093.01v-.022l.094.012v-.023l.093.01v-.022l.093.012v-.023l.094.01v-.021l.093.01v-.022l.093.01v-.021l.094.01v-.022l.093.012v-.023l.093.01v-.022l.094.012v-.023l.093.01v-.022l.093.012v-.023l.094.01v-.022l.093.012v-.023l.093.01v-.022l.094.012v-.023l.093.01v-.022l.093.012v-.023l.094.01v-.021l.093.01v-.022l.093.01v-.021l.094.01v-.022l.093.01v-.021l.093.01v-.022l.094.012v-.023l.093.01v-.022l.093.012v-.023l.094.01v-.022l.093.012v-.023l.093.01v-.022l.094.012v-.023l.092.01v-.022l.093.012v-.023l.094.01v-.022l.093.012v-.023l.093.01v-.021l.094.01v-.022l.093.01v-.021l.094.01v-.022l.093.012v-.023l.093.01v-.022l.094.012v-.023l.093.01v-.022l.093.012v-.023l.094.01v-.022l.093.012v-.023l.093.01v-.022l.094.012v-.023l.093.01v-.022l.093.012v-.023l.094.01v-.021l.093.01v-.022l.093.01v-.021l.094.01v-.022l.093.01v-.021l.093.01v-.022l.094.01v-.021l.093.01v-.022l.093.012v-.023l.094.01v-.022l.093.012v-.023l.093.01v-.022l.094.012v-.023l.093.01v-.022l.093.012v-.023l.094.01v-.022l.093.012v-.023l.093.01v-.021l.094.01v-.022l.093.01v-.021l.093.01v-.022l.094.01v-.021l.093.01v-.022l.093.01v-.021l.094.01v-.022l.093.012v-.023l.093.01v-.022l.094.012v-.023l.042.005v1.939l3.517.427 11.88 1.443 4.475.543v-.023l.084.01v-.022l.083.01v-.023l.084.01v-.023l.084.01v-.022l.084.01v-.023l.084.01v-.022l.083.01v-.023l.084.01v-.023l.084.01v-.022l.084.01v-.024l.084.01v-.023l.083.01v-.022l.084.01v-.023l.084.01v-.022l.084.01v-.023l.083.01v-.023l.084.01v-.022l.084.01v-.023l.084.01v-.023l.084.01v-.022l.083.01v-.023l.084.01v-.022l.084.01v-.023l.084.01v-.023l.084.01v-.022l.083.01v-.023l.084.01v-.023l.084.01v-.022l.084.01v-.023l.084.01v-.022l.083.01v-.023l.084.01v-.023l.084.01v-.022l.084.01v-.023l.084.01v-.023l.083.01v-.022l.085.01v-.023l.084.01v-.023l.084.01v-.022l.083.01v-.023l.084.01v-.022l.084.01v-.023l.084.01v-.023l.084.01v-.022l.083.01v-.023l.084.01v-.023l.084.01v-.022l.084.01v-.023l.084.01v-.022l.083.01v-.023l.084.01v-.023l.084.01v-.022l.084.01v-.023l.084.01v-.023l.083.01v-.022l.084.01v-.023l.084.01v-.022l.084.01v-.023l.083.01v-.023l.084.01v-.022l.084.01v-.023l.084.01v-.023l.084.01v-.022l.083.01v-.023l.084.01v-.022l.084.01v-.023l.084.01v-.023l.084.01v-.022l.083.01v-.023l.084.01V246l.084.01v-.022l.084.01v-.023l.084.01v-.023l.083.01v-.022l.084.01v-.023l.084.01v-.022l.084.01v-.023l.084.01v-.023l.083.01v-.022l.084.01v-.023l.084.01v-.023l.084.01v-.022l.083.01v-.023h.006l-.01 1.98 3.43.51 40.882 6.086 4.83.719-.002-.031.062.009-.002-.031.062.009-.002-.031.062.009-.002-.032.061.01v-.032l.06.01v-.032l.06.01v-.032l.06.009-.002-.031.062.009-.002-.031.062.009-.002-.032.062.01-.002-.032.061.01-.001-.032.061.01-.001-.032.061.01-.001-.032.061.01-.001-.032.06.01v-.032l.06.01v-.032l.06.01v-.033l.06.01v-.032l.06.01v-.032l.06.01v-.032l.06.01-.001-.032.06.01v-.032l.06.01v-.032l.06.01v-.032l.06.008v-.03l.06.008v-.03l.06.008v-.03l.06.008v-.03l.06.008v-.03l.06.008v-.03l.059.008v-.03l.06.008v-.03l.06.007v-.03l.06.008v-.03l.06.008v-.03l.06.008v-.03l.06.008v-.03l.06.008v-.03l.06.007v-.03l.059.008v-.03l.06.008v-.03l.06.008v-.03l.06.008v-.03l.06.008v-.03l.06.008v-.03l.06.008v-.03l.06.007v-.03l.06.008-.002-.03.061.008v-.03l.06.008v-.03l.06.008v-.03l.06.008v-.03l.06.008v-.03l.06.007v-.03l.06.008-.002-.03.061.008v-.03l.06.008v-.03l.06.008v-.03l.06.008v-.03l.06.008v-.03l.06.007v-.03l.06.008-.002-.03.061.008v-.03l.06.008v-.03l.06.008v-.03l.06.008v-.03l.06.008v-.03l.06.007v-.03l.06.008v-.03l.06.008-.002-.03.06.008v-.03l.06.008v-.03l.06.008v-.03l.06.008v-.03l.06.007v-.03l.06.008v-.03l.06.008v-.03l.06.008v-.03l.06.008v-.03l.06.008v-.03l.06.008v-.03l.06.007v-.03l.06.008v-.03l.06.008v-.03l.06.008-.002-.03.06.008v-.03l.06.008v-.03l.06.008v-.03l.06.007v-.03l.06.008v-.03l.06.008v-.03l.06.008v-.03l.06.008v-.03l.06.008v-.03l.06.008v-.03l.06.007v-.03l.06.008v-.03l.06.008v-.03l.06.008-.002-.03.06.008v-.03l.06.008v-.03l.06.008v-.03l.06.007v-.03l.06.008v-.03l.06.008v-.03l.06.008v-.03l.06.008v-.03l.06.008v-.03l.06.008v-.03l.06.008v-.03l.06.008v-.03l.06.008v-.03l.06.008v-.03l.06.008v-.03l.06.008-.002-.03.06.008v-.03l.06.007v-.03l.06.008v-.03l.06.008v-.03l.06.008v-.03l.06.008v-.03l.06.008v-.03l.06.008v-.03l.06.008v-.03l.06.007v-.03l.06.008v-.03l.06.008v-.03l.06.008v-.03l.06.008-.002-.03.06.008v-.03l.06.008v-.03l.06.007v-.03l.06.008v-.03l.06.008v-.03l.06.008v-.03l.06.008v-.03l.06.008v-.03l.06.008v-.03l.06.007v-.03l.06.008V252l.06.008v-.03l.06.008v-.03l.06.008v-.03l.06.008v-.03l.06.008-.002-.03.06.007v-.03l.06.008v-.03l.06.008v-.03l.06.008v-.03l.06.008v-.03l.06.008v-.03l.06.008v-.03l.06.007v-.03l.06.008v-.03l.06.008v-.03l.06.008v-.03l.06.008v-.03l.06.008v-.03l.06.008v-.03l.06.007-.002-.03.06.008v-.03l.06.008v-.03l.06.008v-.03l.06.008v-.03l.06.008v-.03l.06.008v-.03l.06.007v-.03l.06.008v-.03l.06.008v-.03l.06.008v-.03l.06.008v-.03l.06.008v-.03l.06.008v-.03l.06.007-.002-.03.06.008v-.03l.06.008v-.03l.06.008v-.03l.06.008v-.03l.06.008v-.03l.06.008v-.03l.06.007v-.03l.06.008v-.03l.06.008v-.03l.06.008v-.03l.06.008v-.03l.06.008v-.03l.06.008v-.03l.06.007v-.03l.058.008v-.03l.06.008v-.03l.06.008v-.03l.06.008v-.03l.06.008v-.03l.06.008v-.03l.06.007v-.03l.06.008v-.03l.06.008v-.03l.06.008v-.03l.06.008v-.03l.06.008v-.03l.06.008.011-4.512.034-11.963.01-3.646-3.628-.347-20.716-1.985.14-23.538 18.815.464 4.06.1.038-4.06.116-12.273.04-4.045h-.067v-.007h-.065v-.006h-.065v-.006h-.066v-.006h-.065v-.006h-.065v-.007h-.065v-.006h-.066v-.006h-.065v-.006h-.065v-.006h-.066v-.006h-.065v-.007h-.065v-.006h-.065v-.006h-.066v-.006h-.065v-.006h-.065v-.007h-.065v-.006h-.066v-.006h-.065v-.006h-.065v-.006h-.066v-.007h-.065v-.006h-.065v-.006h-.065v-.006h-.066v-.006h-.065v-.007h-.065v-.006h-.065v-.006h-.066v-.006h-.065v-.006h-.065v-.006h-.066v-.007h-.065v-.006h-.065v-.006h-.065v-.006h-.066v-.006h-.065v-.007h-.065v-.006h-.065v-.006h-.066v-.006h-.065v-.006h-.065v-.007h-.066v-.006h-.065v-.006h-.065v-.006h-.065v-.006h-.066v-.007h-.065v-.006h-.065v-.006h-.066v-.006h-.065v-.006h-.065v-.006h-.065v-.007h-.066v-.006h-.065v-.006h-.065v-.006h-.065v-.006h-.066v-.007h-.065v-.006h-.065v-.006h-.065v-.006h-.066v-.006h-.065v-.007h-.065v-.006h-.066v-.006h-.065v-.006h-.065v-.006h-.065v-.007h-.065v-.006h-.065v-.006h-.065v-.006h-.065v-.006h-.066v-.006h-.065v-.007h-.065v-.006h-.066v-.006h-.065v-.006h-.065v-.006h-.065v-.007h-.066v-.006h-.065v-.006h-.065v-.006h-.065v-.006h-.066v-.007h-.065v-.006h-.065v-.006h-.066v-.006h-.065v-.006h-.065v-.007h-.065v-.006h-.066v-.006h-.065v-.005h-.065v-.006h-.066v-.007h-.065v-.006h-.065v-.006h-.065v-.006h-.066v-.006h-.065v-.006h-.065v-.007h-.065v-.006h-.066v-.006h-.065v-.006h-.065v-.006h-.066v-.007h-.065v-.006h-.065v-.006h-.065v-.007h-.066v-.006h-.065v-.007h-.065v-.006h-.065v-.006h-.066v-.006h-.065v-.006h-.065v-.007h-.066v-.006h-.065v-.006h-.065v-.006h-.065v-.006h-.066v-.006h-.065v-.007h-.065v-.006h-.065v-.006h-.066v-.006h-.065v-.006h-.065v-.007h-.066v-.006h-.065v-.006h-.065v-.006h-.065v-.006h-.066v-.007h-.065v-.006h-.065v-.006h-.065v-.006h-.066v-.006h-.065v-.007h-.065v-.006h-.066v-.006h-.065v-.006h-.065v-.006h-.065v-.006h-.066v-.007h-.065v-.006h-.065v-.006h-.065v-.006h-.066v-.006h-.065v-.007h-.065v-.006h-.066v-.006h-.065v-.006h-.065v-.006h-.065v-.007h-.066v-.006h-.065v-.006h-.065v-.006h-.066v-.006h-.065v-.007h-.065v-.006h-.065v-.006h-.066v-.006h-.065v-.006h-.065v-.006h-.065v-.007h-.066v-.006h-.065v-.006h-.065v-.006h-.065v-.006h-.066v-.007h-.065v-.006h-.065v-.006h-.066v-.006h-.065v-.006h-.065v-.007h-.065v-.006h-.066v-.006h-.065v-.006h-.065v-.006h-.065v-.007h-.066v-.006h-.065v-.006h-.065v-.006h-.066v-.006h-.065v-.006h-.065v-.007h-.065v-.006h-.066v-.006h-.065v-.006h-.065v-.006h-.066v-.007h-.065v-.006h-.065v-.006h-.065v-.006h-.066v-.006h-.065v-.007h-.065v-.006h-.065v-.006h-.066v-.006h-.065v-.006h-.065v-.007h-.066v-.006l-4.045.008-5.78.01.099-16.692 20.546-1.24 3.723-.226.036-3.729.12-12.457.043-4.406-.065.005z"/><path d="m333.633 222.389-14.678-1.787-.17-6.911 9.887.945-.458-19.737-6.693-.155-.17-7.049 3.817-.012 2.4-15.439-8.457.509-.174-7.12 13.39-1.168.157 6.911-2.543 16.526 2.915-.008zm9.917-18.627-.28 19.72-5.055-.615.746-58.98 16.173-1.411 1.203 62.592-5.556-.674-.406-20.272zm6.669-7.43-.513-25.588-5.688.345-.359 25.07zm34.073-36.399-2.26 49.283-13.103-.829.317 18.25-6.09-.74-1.166-64.019zm-6.825 9.126-9.21.56.53 30.586 7.28.271zm33.933 62.697-20.806-2.527-.992-69.76 20.766-1.81.107 9.5-13.398.809.263 19.963 12.694-.024.107 9.4-12.682-.313.32 24.34 13.518 1.296.102 9.126zm37.332 4.534-9.367-1.137-.263-37.133-12.68-.312.321 35.912-8.498-1.032-.769-75.55 8.577-.747.283 31.69 12.695-.02-.232-32.782 9.465-.826zm105.235 12.783-39.901-4.847.37-96.644 40.141-4.501-.13 13.381-26.084 2.576-.163 28.646 24.64-.046-.125 13.182-24.589-.606-.197 33.59 26.163 2.508-.125 12.76zm-66.893-98.105.003 30.426v2.785l-15.985 14.698v-.068l-.026-10.899-.016-6.25-.07-29.288-10.755.938.336 84.418 10.628 1.29-.063-26.092 15.954-14.096v8.43l.004 33.69 11.88 1.443.152-93.474-12.04 2.05z" fill="#a44952"/><path d="m233.766 161.288-7.83-.862-4.42-.486v.029l-.133-.015v.03l-.133-.015v.029l-.133-.015v.029l-.133-.015v.03l-.133-.015v.029l-.133-.015v.03l-.132-.015v.029l-.133-.015v.029l-.133-.015v.03l-.133-.015v.029l-.133-.015v.03l-.133-.015v.028l-.132-.014v.029l-.133-.015v.03l-.133-.015v.029l-.133-.015v.029l-.133-.015v.03l-.132-.015v.029l-.133-.015v.03l-.133-.015v.029l-.133-.015v.029l-.133-.015v.03l-.133-.015v.029l-.132-.015v.03l-.133-.016v.03l-.133-.015v.029l-.133-.015v.03l-.133-.015v.029l-.133-.015v.029l-.115-.013.002-.87-3.57-.392-9.14-1.006-4.43-.487v.029l-.125-.014v.03l-.124-.014v.029l-.123-.014v.029l-.124-.014v.03l-.124-.014v.029l-.124-.014v.03l-.123-.014v.029l-.124-.014v.029l-.124-.014v.03l-.124-.014v.029l-.123-.014v.029l-.124-.014v.03l-.124-.014v.029l-.124-.014v.03l-.064-.008v-.426l-3.554-.4-37.663-4.242-4.463-.502v.03l-.104-.013v.03l-.103-.012v.03l-.103-.012v.03l-.104-.013v.03l-.103-.012v.03l-.103-.012v.03l-.104-.013v.03l-.103-.012v.03l-.103-.012v.03l-.104-.013v.03l-.103-.012v.03l-.103-.012v.03l-.104-.013v.03l-.103-.012v.03l-.103-.012v.03l-.104-.012v.029l-.103-.012v.03l-.103-.012v.03l-.104-.013v.03l-.103-.012v.03l-.103-.012v.03l-.104-.012v.029l-.103-.012v.03l-.103-.012v.03l-.104-.012v.029l-.103-.012v.03l-.103-.012v.03l-.104-.012v.029l-.103-.012v.03l-.103-.012v.03l-.104-.012v.029l-.103-.012v.03l-.103-.012v.03l-.104-.012v.029l-.103-.012v.03l-.104-.012v.03l-.103-.012v.029l-.103-.012v.03l-.104-.012v.03l-.103-.012v.029l-.103-.012v.03l-.104-.012v.03l-.103-.012v.029l-.103-.012v.03l-.104-.012v.03l-.103-.012v.029l-.103-.012v.03l-.104-.012v.03l-.103-.012v.029l-.103-.012v.03l-.104-.012v.03l-.103-.012v.029l-.103-.012v.03l-.104-.012v.03l-.103-.012v.029l-.103-.012v.03l-.104-.012v.03l-.103-.012v.029l-.103-.012v.03l-.104-.012v.03l-.103-.012v.029l-.103-.012v.03l-.104-.012v.03l-.103-.012v.029l-.103-.012v.03l-.104-.012v.03l-.103-.012v.029l-.103-.012v.03l-.104-.012v.03l-.103-.012v.029l-.103-.012v.03l-.104-.012v.03l-.103-.012v.029l-.103-.012v.03l-.104-.012v.03l-.103-.012v.029l-.103-.012v.03l-.104-.012v.03l-.103-.012v.029l-.104-.012v.03l-.103-.012v.03l-.033-.004-.012-2.273-3.544-.39-13.936-1.533-4.468-.492v.03l-.09-.01v.028l-.09-.01v.03l-.09-.01v.028l-.09-.01v.03l-.09-.01v.029l-.09-.01v.029l-.09-.01v.029l-.092-.01v.029l-.09-.01v.029l-.09-.01v.029l-.09-.01v.029l-.09-.01v.029l-.09-.01v.03l-.09-.01v.028l-.092-.01v.03l-.09-.01v.028l-.09-.01v.03l-.09-.01v.028l-.09-.01v.03l-.09-.01v.028l-.09-.01v.03l-.092-.01v.029l-.09-.01v.029l-.09-.01v.029l-.09-.01v.029l-.09-.01v.029l-.09-.01v.029l-.09-.01v.029l-.092-.01v.029l-.09-.01v.03l-.09-.01v.028l-.09-.01v.03l-.09-.01v.028l-.09-.01v.03l-.09-.01v.028l-.092-.01v.03l-.09-.01v.029l-.09-.01v.029l-.09-.01v.029l-.09-.01v.029l-.09-.01v.029l-.09-.01v.029l-.092-.01v.029l-.09-.01v.029l-.09-.01v.029l-.09-.01v.03l-.09-.01v.028l-.09-.01V150l-.092-.01v.028l-.09-.01v.03l-.09-.01v.028l-.09-.01v.03l-.09-.01v.029l-.09-.01v.029l-.09-.01v.029l-.092-.01v.029l-.09-.01v.029l-.09-.01v.029l-.09-.01v.029l-.09-.01v.029l-.09-.01v.03l-.09-.01v.028l-.092-.01v.03l-.09-.01v.028l-.09-.01v.03l-.09-.01v.028l-.09-.01v.03l-.09-.01v.029l-.09-.01v.029l-.092-.01v.029l-.09-.01v.029l-.09-.01v.029l-.09-.01v.029l-.09-.01v.029l-.09-.01v.029l-.09-.01v.029l-.092-.01v.03l-.09-.01v.028l-.09-.01v.03l-.09-.01v.028l-.09-.01v.03l-.09-.01v.028l-.09-.01v.03l-.092-.01v.029l-.09-.01v.029l-.09-.01v.029l-.09-.01v.029l-.09-.01v.029l-.09-.01v.029l-.09-.01v.029l-.092-.01v.029l-.09-.01v.029l-.09-.01v.03l-.09-.01v.028l-.09-.01v.03l-.09-.01v.028l-.09-.01v.03l-.092-.01v.028l-.09-.01v.03l-.09-.01v.029l-.09-.01v.029l-.09-.01v.029l-.09-.01v.029l-.09-.01v.029l-.092-.01v.029l-.09-.01v.029l-.09-.01v.029l-.09-.01v.029l-.09-.01v.03l-.09-.01v.028l-.09-.01v.03l-.092-.01v.028l-.09-.01v.03l-.09-.01v.028l-.09-.01v.03l-.09-.01v.029l-.09-.01v.029l-.09-.01v.029l-.092-.01v.029l-.09-.01v.029l-.09-.01v.029l-.09-.01v.029l-.09-.01v.029l-.09-.01v.03l-.09-.01v.028l-.092-.01v.03l-.09-.01v.028l-.09-.01v.03l-.09-.01v.028l-.09-.01v.03l-.09-.01v.029l-.09-.01v.029l-.092-.01v.029l-.09-.01v.029l-.09-.01v.029l-.09-.01v.029l-.09-.01v.029l-.09-.01v.029l-.09-.01v.029l-.092-.01v.03l-.09-.01v.028l-.09-.01v.03l-.09-.01v.028l-.09-.01v.03l-.09-.01v.028l-.092-.01v.03l-.09-.01v.028l-.09-.01v.03l-.09-.01v.029l-.09-.01v.029l-.09-.01v.029l-.09-.01v.029l-.024-.003-.008-.889-.032-3.551-3.53-.389-17.072-1.879-4.486-.493v.029l-.073-.009v.03l-.074-.009v.03l-.074-.009v.03l-.073-.009v.03l-.074-.009v.03l-.073-.009v.029l-.074-.008v.029l-.074-.008v.029l-.073-.008v.029l-.074-.008v.029l-.073-.009v.03l-.074-.009v.03l-.073-.009v.03l-.074-.009v.03l-.074-.009v.03l-.073-.009v.029l-.074-.008v.029l-.073-.008v.029l-.074-.008v.029l-.073-.008v.029l-.074-.009v.03l-.074-.009v.03l-.073-.009v.03l-.074-.009v.03l-.073-.009v.03l-.074-.009v.029l-.074-.008v.029l-.073-.008v.029l-.074-.008v.029l-.073-.008v.029l-.074-.009v.03l-.073-.009v.03l-.074-.009v.03l-.074-.009v.03l-.073-.009v.03l-.074-.009v.029l-.073-.008v.029l-.074-.008v.028l-.073-.008v.029l-.074-.008v.029l-.074-.008v.029l-.073-.009v.03l-.074-.009v.03l-.073-.009v.03l-.074-.009v.03l-.074-.009v.03l-.073-.01v.03l-.074-.008v.029l-.073-.008v.029l-.074-.008v.029l-.073-.008v.029l-.074-.009v.03l-.074-.009v.03l-.073-.009v.03l-.074-.009v.03l-.073-.009v.03l-.074-.01v.03l-.074-.008v.029l-.02-1.713-3.52-.387-58.367-6.421-4.52-.497.001.03-.043-.006v.03l-.043-.005v.029l-.044-.005v.029l-.043-.005v.029l-.043-.005v.03l-.043-.005v.029l-.043-.005v.029l-.044-.005.001.029-.044-.005v.03l-.043-.006v.03l-.043-.005v.029l-.043-.006v.03l-.044-.005.001.03-.044-.006v.03l-.043-.005v.029l-.042-.005v.029l-.043-.005v.03l-.043-.006v.03l-.044-.006v.03l-.043-.005v.029l-.043-.005v.03l-.044-.007v.03l-.043-.005v.029l-.044-.005.001.029-.044-.005v.03l-.042-.005v.03l-.043-.005v.029l-.043-.005v.029l-.044-.005.001.03-.044-.006v.03l-.043-.005v.028l-.043-.005v.029l-.044-.004v.03l-.044-.006.001.03-.044-.005v.029l-.043-.005v.029l-.043-.005v.03l-.042-.007v.03l-.043-.005v.029l-.045-.004v.029l-.042-.005v.03l-.043-.006v.03l-.043-.005v.029l-.043-.005v.029l-.044-.005.001.03-.044-.006v.03l-.043-.005v.029l-.043-.005v.029l-.043-.005v.03l-.043-.006v.03l-.044-.005v.029l-.043-.005v.029l-.043-.005v.03l-.043-.006v.03l-.043-.006v.03l-.044-.005v.029l-.043-.005v.029l-.043-.005v.03l-.043-.006v.03l-.043-.005v.029l-.044-.005.001.029-.044-.005v.03l-.043-.006v.03l-.043-.005v.029l-.043-.005v.029l-.044-.005.001.03-.044-.006v.03l-.043-.005v.029l-.043-.005v.029l-.043-.005v.03l-.043-.006v.03l-.044-.005v.029l-.043-.005v.029l-.043-.005v.03l-.043-.006v.03l-.043-.005v.029l-.044-.005v.029l-.043-.005v.03l-.043-.006v.03l-.043-.005v.029l-.043-.005v.029l-.044-.005.001.03-.044-.006v.03l-.043-.005v.029l-.043-.006v.029l-.043-.005v.03l-.044-.006.001.03-.044-.005v.029l-.043-.005v.029l-.043-.005v.03l-.043-.006v.03l-.043-.005v.029l-.044-.005v.029l-.043-.005v.03l-.043-.006v.03l-.043-.005v.029l-.043-.005v.029l-.044-.005v.03l-.043-.005v.03l-.043-.006v.03l-.043-.005v.029l-.043-.005v.03l-.044-.006.001.03-.044-.006v.03l-.043-.005v.029l-.043-.005v.03l-.043-.006v.03l-.043-.006v.03l-.044-.005v.029l-.043-.005v.029l-.043-.005v.03l-.043-.006v.03l-.044-.005v.029l-.044-.005v.029l-.043-.005v.03l-.043-.006v.03l-.043-.005v.029l-.043-.005v.029l-.044-.005.001.03-.044-.006v.03l-.043-.005v.029l-.043-.005v.029l-.043-.005v.03l-.044-.006.001.03-.044-.005v.029l-.043-.005v.029l-.043-.005v.03l-.043-.006v.03l-.043-.005v.029l-.044-.005v.029l-.043-.005v.03L7.3 140.2v.03l-.043-.005v.029l-.043-.005v.029l-.044-.005v.03l-.043-.006v.03l-.043-.005v.029l-.043-.005v.029l-.043-.005v.03l-.044-.006.001.03-.044-.005v.029l-.043-.005v.029l-.043-.005v.03l-.043-.006v.03l-.044-.005.001.029-.044-.005v.029l-.043-.005v.03l-.043-.006v.03l-.043-.006v.03l-.043-.005v.029l-.044-.005v.03l-.043-.006v.03l-.043-.006v.03l-.043-.005v.029l-.043-.005v.029l-.044-.005.001.03-.044-.006v.03l-.043-.005v.029l-.043-.005v.029l-.043-.005v.03l-.044-.006.001.03-.044-.005v.029l-.043-.005v.029l-.043-.005v.03L5.874 141v.03l-.043-.005v.029l-.044-.005v.029l-.043-.005v.03l-.043-.006v.03l-.043-.005v.029l-.043-.005v.029l-.044-.005.001.03-.044-.006v.03l-.043-.005v.029l-.043-.005v.029l-.042-.005v.03l-.044-.006.001.03-.044-.005v.029l-.043-.005v.029l-.043-.005v.03l-.043-.006v.03l-.043-.005v.029l-.044-.005v.029l-.043-.005v.03l-.043-.006v.03l-.043-.005v.029l-.043-.005v.029l-.044-.005v.03l-.043-.006v.03l-.043-.005v.029l-.043-.005v.029l-.043-.005v.03l-.044-.006.001.03-.044-.006v.03l-.043-.005v.029l-.043-.005v.03l-.043-.006v.03l-.045-.006.001.03-.044-.005v.029l-.043-.005v.03l-.043-.006v.03l-.043-.006v.03l-.043-.005v.029l-.044-.005v.029l-.043-.005v.03l-.043-.006v.03l-.043-.005v.029l-.043-.005v.029l-.044-.005v.03l-.043-.007v.03l-.043-.005v.029l-.043-.005v.029l-.043-.005v.03l-.044-.006.001.03-.044-.005v.029l-.043-.005v.029l-.043-.005v.03l-.043-.006v.03l-.043-.005v.029l-.044-.005v.029l-.043-.005v.03l-.043-.006v.03l-.043-.005v.029l-.043-.005v.029l-.044-.005v.03l-.043-.006v.03l-.043-.005v.029l-.043-.005v.029l-.043-.005v.03l-.044-.006.001.03-.044-.005v.029l-.043-.005v.029l-.043-.005v.03l-.043-.006v.03l-.044-.005.001.029-.044-.005v.029l-.043-.005v.03l-.043-.006v.03l-.043-.005v.029l-.043-.005v.029l-.044-.005v.03l-.043-.006v.03l-.043-.005v.029l-.043-.005v.029l-.042-.004v.03l-.044-.006v.03l-.043-.005v.029l-.043-.005v.029l-.043-.005v.029l-.043-.005v.03l-.044-.006.001.03-.044-.005v.029l-.043-.005v.029l-.043-.005v.03l-.043-.006v.03l-.044-.005.001.029-.045-.006v.029l-.043-.005v.03l-.043-.006v.03l-.043-.005v.029l-.043-.005v.029l-.044-.005v.03l-.043-.006v.03l-.042-.005v.029l-.043-.005v.029l-.043-.005v.03l-.044-.006v.03l-.043-.005v.029l-.043-.005v.029l-.043-.005v.03l-.043-.006v.03l-.044-.005.001.029-.044-.005v.029l-.043-.005v.03l-.043-.006v.03l-.043-.005v.029l-.044-.005.001.029-.044-.005v.03l-.044-.006v.03l-.043-.005v.029l-.043-.005v.029l-.043-.005v.03l-.044-.006.001.03-.044-.005v.029l-.042-.004v.029l-.043-.005v.03l-.043-.006v.03l-.044-.005.001.029-.044-.005v.029l-.043-.006v.03l-.043-.006v.03l-.043-.004v.029l-.044-.005.001.029-.044-.005v.03l-.043-.007v.03l-.043-.005v.029l-.044-.005v.029l-.043-.004v.029l-.044-.005v.03l-.043-.006v.03L0 144.298l.082 4.545 1.56 86.117.078 4.29.043-.004v.022l.044-.003v.022l.044-.004v.022l.044-.004v.022l.044-.003v.022l.044-.004v.022l.044-.004v.022l.044-.004v.023l.044-.004v.022l.044-.004v.022l.044-.004v.022l.044-.003v.022l.044-.004v.022l.044-.004v.022l.044-.003v.022l.044-.004v.022l.044-.004v.022l.044-.004v.023l.044-.004v.022l.044-.004v.022l.043-.004v.022l.044-.003v.022l.044-.004v.022l.044-.004v.022l.044-.003v.022l.044-.004v.022l.044-.004v.022l.044-.004v.023l.044-.004v.022l.044-.004v.022l.044-.004v.022l.044-.003v.022l.044-.004v.022l.044-.004v.022l.044-.003v.022l.044-.004v.022l.044-.004v.022l.044-.004v.023l.044-.004v.022l.044-.004v.022l.044-.004V240l.044-.003v.022l.044-.004v.022l.044-.004v.022l.044-.003v.022l.043-.004v.022l.044-.004v.022l.044-.004v.023l.044-.004v.022l.044-.004v.022l.044-.004v.022l.044-.003v.022l.044-.004v.022l.044-.004v.022l.044-.004v.023l.044-.004v.022l.044-.004v.022l.044-.004v.023l.044-.004v.022l.044-.004v.022l.044-.004v.022l.044-.003v.022l.044-.004v.022l.044-.004v.022l.044-.004v.023l.044-.004v.022l.044-.004v.022l.044-.004v.023l.044-.004v.022l.044-.004v.022l.043-.004v.022l.044-.003v.022l.044-.004v.022l.044-.004v.022l.044-.004v.023l.044-.004v.022l.044-.004v.022l.044-.004v.022l.044-.003v.022l.044-.004v.022l.044-.004v.022l.044-.003v.022l.044-.004v.022l.044-.004v.022l.044-.004v.023l.044-.004v.022l.044-.004v.022l.044-.004v.022l.044-.003v.022l.044-.004v.022l.044-.004v.022l.044-.004v.023l.044-.004v.022l.044-.004v.022l.044-.004v.023l.043-.004v.022l.044-.004v.022l.044-.004v.022l.044-.003v.022l.044-.004v.022l.044-.004v.022l.044-.004v.023l.044-.004v.022l.044-.004v.022l.044-.004v.023l.044-.004v.022l.044-.004v.022l.044-.004v.022l.044-.003v.022l.044-.004v.022l.044-.004v.022l.044-.004v.023l.044-.004v.022l.044-.004v.022l.044-.004v.022l.044-.003v.022l.044-.004v.022l.044-.004v.022l.044-.003v.022l.044-.004v.022l.043-.004v.022l.044-.004v.023l.044-.004v.022l.044-.004v.022l.044-.004v.022l.044-.003v.022l.044-.004v.022l.044-.004v.022l.044-.003v.022l.044-.004v.022l.044-.004v.022l.044-.004v.023l.044-.004v.022l.044-.004v.022l.044-.004v.022l.044-.003v.022l.044-.004v.022l.044-.003v.022l.044-.004v.023l.044-.004v.022l.044-.004v.022l.044-.004v.023l.044-.004v.022l.044-.004v.022l.044-.004v.022l.043-.003v.022l.044-.004v.022l.044-.004v.022l.044-.004v.023l.044-.004v.022l.044-.004v.022l.044-.004v.023l.044-.004v.022l.044-.004v.022l.044-.004v.022l.044-.003v.022l.044-.004v.022l.044-.004v.022l.044-.004v.023l.044-.004v.022l.044-.004v.022l.044-.004v.023l.044-.004v.022l.044-.004v.022l.044-.004v.022l.044-.003v.022l.044-.004v.022l.044-.004v.022l.044-.004v.023l.044-.004v.022l.043-.004v.022l.044-.004v.023l.044-.004v.022l.044-.004v.022l.044-.004v.022l.044-.003v.022l.044-.004v.022l.044-.004v.022l.044-.004v.023l.044-.004v.022l.044-.004v.022l.044-.004v.023l.044-.004v.022l.044-.004v.022l.044-.004v.022l.044-.003v.022l.044-.004v.022l.044-.004v.022l.044-.004v.023l.044-.004v.022l.044-.004v.022l.044-.004v.022l.044-.003v.022l.044-.004v.022l.044-.004v.022l.043-.003v.022l.044-.004v.022l.044-.004v.022l.044-.004v.023l.044-.004v.022l.044-.004v.022l.044-.004v.022l.044-.003v.022l.044-.004v.022l.044-.004v.022l.044-.004v.023l.044-.004v.022l.044-.004v.022l.044-.004v.023l.044-.004v.022l.044-.004v.022l.044-.004v.022l.044-.003v.022l.044-.004v.022l.044-.004v.022l.044-.004v.023l.044-.004v.022l.044-.004v.022l.044-.004v.023l.044-.004v.022l.043-.004v.022l.044-.004v.022l.044-.003v.022l.044-.004v.022l.044-.004v.022l.044-.004v.023l.044-.004v.022l.044-.004v.022l.044-.004v.022l.044-.003v.022l.044-.004v.022l.044-.004v.022l.044-.003v.022l.044-.004v.022l.044-.004v.022l.044-.004v.023l.044-.004v.022l.044-.004v.022l.044-.004v.022l.044-.003v.022l.044-.004v.022l.044-.004v.022l.044-.004v.023l.044-.004v.022l.044-.004v.022l.043-.004v.023l.044-.004v.022l.044-.004v.022l.044-.004v.022l.044-.003v.022l.044-.004v.022l.044-.004v.022l.044-.004v.023l.044-.004v.022l.044-.004v.022l.044-.004v.023l.044-.004v.022l.044-.004v.022l.044-.004v.022l.044-.003v.022l.044-.004v.022l.044-.004v.022l.044-.004v.023l.044-.004v.022l.044-.004v.022l.044-.004v.022l.044-.003v.022l.044-.004v.022l.044-.004v.022l.044-.003v.022l.043-.004v.022l.044-.004v.022l.044-.004v.023l.044-.004v.022l.044-.004v.022l.044-.004v.022l.044-.003v.022l.044-.004v.022l.044-.004v.022l.044-.003v.022l.044-.004v.022l.044-.004v.022l.044-.004v.023l.044-.004v.022l.044-.004v.022l.044-.004v.022l.044-.003v.022l.044-.004v.022l.044-.004v.022l.044-.003v.022l.044-.004v.022l.044-.004v.022l.044-.004v.023l.044-.004v.022l.043-.004v.022l.044-.004v.022l.044-.003v.022l.044-.004v.022l.044-.004v.022l.044-.003v.022l.044-.004v.022l4.275-.378 23.071-2.042 3.705-.328-.058-3.72-1.117-71.247 9.842.838 4.392.374v-.022l.069.006v-.023l.068.006v-.023l.068.006v-.023l.069.006v-.022l.068.006v-.023l.068.006v-.023l.069.006v-.023l.068.006v-.022l.068.005v-.022l.069.006v-.023l.068.006v-.023l.068.006v-.023l.069.006v-.022l.068.006v-.023l.068.006v-.023l.069.006v-.023l.068.006v-.022l.068.005v-.022l.069.006v-.023l.068.006v-.023l.068.006v-.023l.069.006v-.022l.068.006v-.023l.068.006v-.023l.069.006v-.023l.068.006v-.022l.069.005v-.022l.068.006v-.023l.068.006v-.023l.069.006v-.023l.068.006v-.022l.068.006v-.023l.069.006v-.023l.068.006v-.023l.068.006v-.022l.069.005v-.022l.068.006v-.023l.068.006v-.023l.068.006.666 61.953.046 4.322.074-.006v.022l.074-.007v.022l.074-.006v.022l.074-.006v.022l.074-.007v.022l.074-.006v.022l.074-.006v.022l.074-.007v.022l.074-.006v.022l.074-.007v.023l.074-.007v.022l.074-.006v.022l.074-.007v.023l.074-.007v.022l.074-.006v.022l.074-.007v.022l.074-.006v.022l.074-.006v.022l.074-.007v.022l.074-.006v.022l.074-.007v.023l.074-.007v.022l.074-.006v.022l.074-.007v.023l.073-.007v.022l.074-.006v.022l.074-.007v.023l.074-.007v.022l.074-.006v.022l.074-.007v.022l.074-.006v.022l.074-.006v.022l.074-.007v.022l.074-.006v.022l.074-.007v.023l.074-.007v.022l.074-.006v.022l.074-.007v.023l.074-.007v.022l.074-.006v.022l.074-.007v.023l.074-.007v.022l.074-.006v.022l.074-.007v.022l.074-.006v.022l.074-.006v.022l.074-.007v.022l.074-.006v.022l.074-.007v.023l.074-.007v.022l.074-.006v.022l.074-.007v.023l.074-.007v.022l.074-.006v.022l.074-.007v.023l.074-.007v.022l.074-.006v.022l.074-.007v.022l.073-.006v.022l.074-.006v.022l.074-.007v.022l.074-.006v.022l.074-.007v.023l.074-.007v.022l.074-.006v.022l.074-.007v.023l.074-.007v.022l.074-.006v.022l.074-.007v.022l.074-.006v.022l.074-.006v.022l.074-.007v.022l.074-.006v.022l.074-.006v.022l.074-.007v.022l.074-.006v.022l.074-.007v.023l.074-.007v.022l.074-.006v.022l.074-.007v.023l.074-.007v.022l.074-.006v.022l.074-.007v.022l.074-.006v.022l.074-.006v.022l.074-.007v.022l.074-.006v.022l.074-.007v.023l.074-.007v.022l.074-.006v.022l.074-.007v.023l.074-.007v.022l.074-.006v.022l.073-.007v.022l.074-.006v.022l.074-.006v.022l.074-.007v.022l.074-.006v.022l.074-.006v.022l.074-.007v.022l.074-.006v.022l.074-.007v.023l.074-.007v.022l.074-.006v.022l.074-.007v.023l.074-.007v.022l.074-.006v.022l.074-.007v.022l.074-.006v.022l.074-.006v.022l.074-.007v.022l.074-.006v.022l.074-.006v.022l.074-.007v.022l.074-.006v.022l.074-.007v.023l.074-.007v.022l.074-.006v.022l.074-.007v.023l.074-.007v.022l.074-.006v.022l.074-.007v.022l.074-.006v.022l.074-.006v.022l.074-.007v.022l.074-.006v.022l.074-.006v.022l.073-.007v.022l.074-.006v.022l.074-.007v.023l.074-.007v.022l.074-.006v.022l.074-.007v.023l.074-.007v.022l.074-.006v.022l.074-.007v.022l.074-.006v.022l.074-.006v.022l.074-.007v.022l.074-.006v.022l.074-.006v.022l.074-.007v.022l.074-.006v.022l.074-.007v.023l.074-.007v.022l.074-.006v.022l.074-.007v.023l.074-.007v.022l.074-.006v.022l.074-.007v.022l.074-.006v.022l.074-.006v.022l.074-.007v.022l.074-.006v.022l.074-.006v.022l.074-.007v.022l.074-.006v.022l.074-.007v.023l.074-.007v.022l.074-.006v.022l.074-.007v.023l.074-.007v.022l.074-.006v.022l.074-.007v.022l.073-.006v.022l.074-.006v.022l.074-.007v.022l.074-.006v.022l.074-.007v.023l.074-.007v.022l.074-.006v.022l.074-.007v.023l.074-.007v.022l.074-.006v.022l.074-.007v.023l.074-.007v.022l.074-.006v.022l.074-.007v.022l.074-.006v.022l.074-.006v.022l.074-.007v.022l.074-.006v.022l.074-.007v.023l.074-.007v.022l.074-.006v.022l.074-.007v.023l.074-.007v.022l.074-.006v.022l.074-.007v.022l.074-.006v.023l.074-.006v.022l.074-.007v.022l.074-.006v.022l.074-.006v.022l.074-.007v.022l.074-.006v.022l.074-.007v.023l.074-.007v.022l.074-.006v.022l.073-.007v.023l.074-.007v.022l.074-.006v.022l.074-.007v.022l.074-.006v.022l.074-.006v.022l.074-.007v.022l.074-.006v.022l.074-.007v.023l.074-.007v.022l.074-.006v.022l.074-.007v.023l.074-.007v.022l.074-.006v.022l.074-.007v.023l.074-.007v.022l.074-.006v.022l.074-.007v.022l.074-.006v.022l.074-.006v.022l.074-.007v.022l.074-.006v.022l.074-.007v.023l.074-.007v.022l.074-.006v.022l.074-.007v.023l.074-.007v.022l.073-.006v.022l.074-.007v.023l.074-.007v.022l.074-.006v.022l.074-.007v.022l.074-.006v.022l.074-.006v.022l.073-.007v.022l.074-.006v.022l.074-.007v.023l.074-.007v.022l.074-.006v.022l.074-.007v.023l.074-.007v.022l.074-.006v.022l.074-.007v.022l.074-.006v.022l.074-.006v.022l.074-.007v.022l.074-.006v.022l.074-.006v.022l.074-.007v.022l.074-.006v.022l.074-.007v.023l.074-.007v.022l.074-.006v.022l.074-.007v.023l.074-.007v.022l.074-.006v.022l.074-.007v.022l.074-.006v.022l.074-.006v.022l.074-.007v.022l.074-.006v.022l.074-.006v.022l.074-.007v.022l.074-.006v.022l.074-.007v.023l.074-.007v.022l.074-.006v.022l.074-.007v.023l.074-.007v.022l.073-.006v.022l.074-.007v.022l.074-.006v.022l.074-.006v.022l.074-.007v.022l.074-.006v.022l.074-.006v.022l.074-.007v.022l.074-.006v.022l.074-.007v.023l.074-.007v.022l.074-.006v.022l.074-.007v.023l.074-.007v.022l.074-.006v.022l.074-.007v.022l.074-.006v.022l.074-.006v.022l.074-.007v.022l.074-.006v.022l.074-.006v.022l.074-.007v.022l.074-.006v.022l.074-.007v.023l.074-.007v.022l.074-.006v.022l.074-.007v.023l.074-.007v.022l.074-.006v.022l.074-.007v.022l.074-.006v.022l.074-.006v.022l.074-.007v.022l4.306-.38 16.89-1.496 3.68-.325-.03-3.348.02-.002v.022l.09-.008v.022l.09-.008v.023l.09-.008v.022l.09-.008v.022l.091-.008v.022l.09-.008v.022l.091-.008v.023l.09-.008v.022l.091-.008v.022l.09-.008v.022l.091-.008v.022l.09-.008v.022l.091-.008v.023l.09-.008v.022l.091-.008v.022l.09-.008v.022l.091-.008v.022l.09-.008v.022l.091-.008v.023l.09-.008.001.022.09-.008v.022l.09-.008.001.022.09-.008v.022l.09-.008.001.023.09-.008v.022l.09-.008.001.022.09-.008v.022l.09-.008.001.022.09-.008v.022l.09-.008.001.023.09-.008v.022l.091-.008v.022l.09-.008v.022l.091-.008v.022l.09-.008v.023l.091-.008v.022l.09-.008v.022l.091-.008v.022l.09-.008v.022l.091-.008v.022l.09-.008v.023l.091-.008v.022l.09-.008v.022l.091-.008v.022l.09-.008v.022l.091-.008v.022l.09-.008v.023l.091-.008v.022l.09-.008v.022l.091-.008v.022l.09-.008v.022l.091-.008v.023l.09-.008v.022l.091-.008v.022l.09-.008v.022l.091-.008v.022l.09-.008v.022l.091-.008v.023l.09-.008v.022l.091-.008v.022l.09-.008v.022l.091-.008v.022l.09-.008v.022l.091-.008v.023l.09-.008.001.022.09-.008v.022l.09-.008.001.022.09-.008v.022l.09-.008.001.023.09-.008v.022l.09-.008.001.022.09-.008v.022l.091-.008v.022l.09-.008v.022l.091-.008v.023l.09-.008v.022l.091-.008v.022l.09-.008v.022l.091-.008v.022l.09-.008v.023l.091-.008v.022l.09-.008v.022l.091-.008v.022l.09-.008v.022l.091-.008v.022l.09-.008v.023l.091-.008v.022l.09-.008v.022l.091-.008v.022l.09-.008v.022l.091-.008v.022l.09-.008v.023l.091-.008v.022l.09-.008v.022l.091-.008v.022l.09-.008v.022l.091-.008v.023l.09-.008v.022l.091-.008v.022l.09-.008v.022l.091-.008v.022l.09-.008v.022l.091-.008v.023l.09-.008v.022l.091-.008v.022l.09-.008.001.022.09-.008v.022l.09-.008.001.022.09-.008v.023l.09-.008.001.022.09-.008v.022l.09-.008.001.022.09-.008v.022l.09-.008.001.023.09-.008v.022l.09-.008.001.022.09-.008v.022l.091-.008v.022l.09-.008v.022l.091-.008v.023l.09-.008v.022l.091-.008v.022l.09-.008v.022l.091-.008v.022l.09-.008v.023l.091-.008v.022l.09-.008v.022l.091-.008v.022l.09-.008v.022l.091-.008v.022l.09-.008v.023l.091-.008v.022l.09-.008v.022l.091-.008v.022l.09-.008v.022l.091-.008v.022l.09-.008V235l.091-.008v.022l.09-.008v.022l.091-.008v.022l.09-.008v.022l.091-.008v.023l.09-.008v.022l.091-.008v.022l.09-.008v.022l.091-.008v.022l.09-.008v.022l.091-.008v.023l.09-.008v.022l.091-.008v.022l4.324-.383 13.81-1.222 3.666-.324-.01-1.797h.004v.022l.104-.01v.023l.103-.01v.023l.104-.01v.023l.103-.01v.023l.104-.01v.023l.103-.01v.023l.104-.01v.023l.103-.01v.023l.103-.01v.023l.104-.01v.023l.103-.01v.023l.104-.01v.023l.103-.01v.023l.104-.01v.023l.103-.01v.023l.104-.01v.023l.103-.01v.024l.104-.01v.023l.103-.01v.023l.103-.01v.023l.104-.01v.023l.103-.01v.023l.104-.01v.023l.103-.01v.023l.104-.01v.023l.103-.01v.023l.104-.01v.023l.103-.01v.023l.103-.01v.023l.104-.01v.023l.103-.01v.023l.104-.01v.023l.103-.01v.023l.104-.01v.023l.103-.01v.023l.104-.01v.023l.103-.01v.023l.103-.01v.023l.104-.01v.023l.103-.01V232l.104-.009v.022l.103-.009v.022l.104-.009v.022l.103-.009v.022l.104-.009v.022l.103-.009v.022l.104-.009v.023l.103-.01v.023l.103-.01v.023l.104-.01v.023l.103-.01v.023l.104-.01v.023l.103-.01v.023l.104-.01v.023l.103-.01v.023l.104-.01v.023l.103-.01v.023l.104-.01v.023l.103-.01v.023l.103-.01v.023l.104-.01v.023l.103-.01v.023l.104-.01v.023l.103-.01v.023l.104-.01v.023l.103-.01v.023l.104-.009v.022l.103-.009v.022l.103-.009v.022l.104-.009v.022l.103-.009v.022l.104-.009v.022l.103-.009v.022l.104-.009v.022l.103-.009v.022l.104-.009v.022l.103-.009v.022l.103-.009v.023l.104-.01v.023l.103-.01v.023l4.338-.384 12.217-1.082 3.69-.326-.016-1.397.061-.005v.022l.116-.01v.022l.115-.01v.022l.115-.01v.022l.115-.01v.022l.116-.01v.022l.115-.01v.022l.115-.01v.022l.115-.01v.022l.116-.01v.022l.115-.01v.022l.115-.01v.022l.115-.01v.022l.116-.01v.022l.115-.01v.022l.115-.01v.022l.115-.01v.022l.116-.01v.022l.115-.01v.022l.115-.01v.022l.115-.01v.022l.116-.01v.022l.115-.01v.022l.115-.01v.022l.115-.01v.022l.116-.01v.022l.115-.01v.022l.115-.01v.022l.115-.01v.022l.116-.01v.022l.115-.01v.022l.115-.01v.022l.115-.01v.022l.116-.01v.022l.115-.01v.022l.115-.01v.022l.116-.01v.022l.115-.01v.022l.115-.01v.022l.115-.01v.022l.116-.01v.022l.115-.01v.022l.115-.01v.022l.115-.01v.022l.116-.01v.022l.115-.01v.021l.115-.01v.023l.115-.01v.021l.116-.01v.022l.115-.01v.022l.115-.01v.022l.115-.01v.022l.116-.01v.022l.115-.01v.022l.115-.01v.022l.115-.01v.022l.116-.01v.022l.115-.01v.022l.115-.01v.022l.115-.01v.022l.116-.01v.022l.115-.01v.022l.115-.01v.022l4.35-.385 9.937-.88 3.645-.322v-.31l.117-.01v.021l.124-.01v.022l.124-.01v.021l.123-.01v.021l.124-.01v.021l.124-.01v.022l.123-.01v.021l.124-.01v.021l.124-.01v.021l.124-.01v.022l.123-.01v.021l.124-.01v.021l.124-.01v.021l.123-.01v.021l4.36-.385 9.084-.804 3.638-.322.002-.666.033-.003v.022l.133-.012v.023l.132-.012v.022l.133-.012v.022l.133-.01v.021l.133-.012v.022l.132-.012v.023l.133-.012v.022l.133-.012v.023l.132-.012v.022l.133-.012v.023l.133-.012v.022l.133-.012v.022l.132-.01v.021l.133-.012v.022l.133-.012v.023l.133-.012v.022l.132-.012v.023l.133-.012v.022l.133-.012v.022l.133-.01v.021l.132-.012v.022l.133-.01v.021l.133-.012v.022l.132-.012v.023l.133-.012v.022l.133-.012v.023l.133-.012v.022l.132-.012v.022l.133-.01v.021l4.37-.387 7.788-.69 3.63-.32.017-3.646.25-56.173.016-3.6-3.579-.393z"/><path d="m41.944 238.353-1.293-82.482 34.93 2.976-.132-10.952-58.367-6.422 1.791 98.922zM157.2 228.152l12.218-1.081-.707-60.196 15.9 1.441.037 57.407 9.937-.88.025-63.839-37.662-4.242zm75.88-6.716-7.79.69.097-26.882-11.922-.047-.066 27.981-9.084.804.088-61.9 9.139 1.005-.059 24.555 11.93.344.086-23.584 7.83.862zm-106.482-67.914.175 26.049.016 2.388-21.582 12.879-.001-.064-.092-10.261-.053-5.88-.247-27.508-17.07-1.878.913 84.972 16.89-1.495-.222-24.643 21.548-13.542.002.32.047 6.926.194 29.03 13.81-1.222-.391-74.538z" fill="#a44952"/></g></svg>