<svg xmlns="http://www.w3.org/2000/svg" viewBox="0 0 606.20001 112.8"><defs><style>.a{fill:#fff;}</style></defs><path class="a" d="M33.8,90.2c0,14-6.4,22.6-20.6,22.6A47.05912,47.05912,0,0,1,0,111.1L1.7,99.2a35.41155,35.41155,0,0,0,8.4,1.2c3.8,0,6.5-3,6.5-10.8V28.8H33.9l-.1,61.4ZM16.6,4.7H34V19.5H16.6Z"/><path class="a" d="M41.2,50.4a31.25455,31.25455,0,0,1-.4-4.3c0-11.3,8.5-18.5,27.1-18.5,20.9,0,26.5,10.3,26.5,21.4V72.9c0,2.4,1,3.4,2.6,3.4a7.88662,7.88662,0,0,0,3-.5l.7,11.5a35.86838,35.86838,0,0,1-9.8,1.6c-8.8,0-10.7-4.9-10.9-9.4h-.7c-2,2.4-9.2,9.4-22,9.4-11.5,0-19.1-5.2-19.1-15.8,0-12.4,9.8-19.6,39.2-20.2V48.2c0-5.2-3.2-8.8-10.4-8.8s-10.7,2.3-10.7,7.3c0,.7.1,1.8.2,2.8ZM63,76.9a19.70638,19.70638,0,0,0,14.5-6.5V61.8c-17.6.4-22.6,4-22.6,9C55,75.1,57.8,76.9,63,76.9Z"/><path class="a" d="M131.3,27.6c24.6,0,27.1,14.2,27.1,20.5a17.77547,17.77547,0,0,1-.2,3.1l-17.2.4a7.14417,7.14417,0,0,0,.2-2c0-3.5-1.9-9.6-10.4-9.6-8,0-12.8,4.6-12.8,18.4,0,11.8,4.3,18.1,12.8,18.1s10.4-6,10.4-9.6A6.8192,6.8192,0,0,0,141,65l17.2.2a18.35359,18.35359,0,0,1,.2,3.1c0,5.9-2.5,20.5-27.1,20.5-20.6,0-31-11.2-31-30.5C100.3,41.6,109.7,27.6,131.3,27.6Z"/><path class="a" d="M163.2,1.2h17.3V52.9c8.3-5.6,18.1-14.9,23.9-24.1h18.8v2c-6.1,9.2-14.9,18-20.6,22.9,3.1,3.7,18.6,29.2,21.8,31.8v2H205.8c-2.5-2.2-13.4-21.6-16.1-24.5-2.3,1.8-7.1,5-9.2,6.4V87.5H163.2L163.2,1.2Z"/><path class="a" d="M227.7,1.2H245V34.3h.7c2.9-3.4,8.4-6.7,16.6-6.7,12.8,0,25.1,8.2,25.1,30.5,0,22.1-11.9,30.7-25.1,30.7-10.4,0-15.6-4.7-18.4-7.7h-.7l-2.5,6.5h-13ZM245,71.4a13.6713,13.6713,0,0,0,10.9,5c8,0,13.8-4.3,13.8-18.4,0-14.2-6.1-18.1-13.8-18.1A15.12576,15.12576,0,0,0,245,45.1V71.4Z"/><path class="a" d="M320.8,27.6c20.6,0,31,12.1,31,30.7,0,18.5-10.3,30.5-31,30.5-20.9,0-31-12-31-30.5C289.9,39.7,300,27.6,320.8,27.6Zm13.4,30.7c0-13.7-5.3-18.4-13.3-18.4-8.3,0-13.4,4.7-13.4,18.4,0,13.4,5.2,18.1,13.4,18.1C328.9,76.4,334.2,71.8,334.2,58.3Z"/><path class="a" d="M349.1,85.9l21-28L349.6,30.5V28.7H368l7.2,10.6a78.36277,78.36277,0,0,1,5.6,9.6h.8a83.06845,83.06845,0,0,1,5.8-9.5l7.3-10.7H413v1.8L392.2,57.4l21.1,28.4v1.7H395l-8.2-12.1a87.47985,87.47985,0,0,1-5.3-9h-.8a76.44072,76.44072,0,0,1-5.4,9.2l-7.9,11.9H349l.1-1.6Z"/><path class="a" d="M419.9,69.1h19.9V87.6H419.9Z"/><path class="a" d="M449.2,39.5H438.5V28.8h10.7V21.2C449.2,8,455.9,0,471,0a47.57337,47.57337,0,0,1,15,2.4l-2.2,12.1a23.16432,23.16432,0,0,0-9.6-2.2c-4.3,0-7.8,2.2-7.8,8.9v7.6H484V39.5H466.4V87.6H449.1l.1-48.1Z"/><path class="a" d="M544.8,87.6H532.1L529.8,79h-.7a21.42022,21.42022,0,0,1-18.6,9.8c-12.8,0-21.8-6.6-21.8-23.6V28.8H506V63.7c0,9.8,3.7,12.7,9.8,12.7a13.89839,13.89839,0,0,0,11.6-6.5V28.8h17.4Z"/><path class="a" d="M550.2,28.8h12.7l2.2,8.6h.8a21.366,21.366,0,0,1,18.5-9.8c13,0,21.8,6.6,21.8,23.6V87.6H588.9V52.7c0-9.8-3.6-12.7-9.8-12.7-5.2,0-9.1,2.9-11.6,6.5V87.7h-17.3L550.2,28.8Z"/></svg>