<svg xmlns="http://www.w3.org/2000/svg" viewBox="0 0 66.46 92.69">
  <path d="M32.95 3.3c-.81-.03-1.6.22-2.34.76a6.34 6.34 0 0 0-1.78 1.83c-.58.99-1.07 2.62-1.48 4.88l-2.8 15.37a46.17 46.17 0 0 0-4.27-14.2c-1.09-2.24-2.29-3.53-3.61-3.87a3.57 3.57 0 0 0-3.05.51 5.23 5.23 0 0 0-2.19 2.49c-.61 1.39-.81 3.54-.61 6.46.38 6.69.79 12.01 1.27 15.98.68 5.83 1.65 11.06 2.9 15.67-3.63 1.12-6.16 2.29-7.58 3.51a8.8 8.8 0 0 0-2.44 3.46 5.72 5.72 0 0 0-.15 4.02c.74 2.17 3.05 3.89 6.92 5.14a53.71 53.71 0 0 0 11.5 2.44l-3.56 18.06c-.2 1.19-.18 2.04.05 2.54.58 1.15 2 1.61 4.27 1.37 5.09-.48 7.84-.71 8.24-.71 3.15-.1 5.83.27 8.04 1.12l2.59.92c1.02.23 1.86.17 2.54-.2 1.42-.81 1.86-2.68 1.32-5.6a177.5 177.5 0 0 0-3.1-14.09 4.57 4.57 0 0 1-.15-2.14c.17-.58.76-1.2 1.78-1.88 4.48-3.08 7.3-6.44 8.45-10.07.31-.99.58-2.32.81-4.02.27-2.04.49-3.39.66-4.07.51-2.17 1.76-5.04 3.77-8.6 2.17-3.87 3.54-6.69 4.12-8.45.74-2.24.9-4.15.46-5.75A6 6 0 0 0 62 23.64a3.85 3.85 0 0 0-2.54-1.17c-1.73-.13-3.38.78-4.94 2.75l-1.73 2.39c-.71.95-1.35 1.68-1.93 2.19a111.4 111.4 0 0 0 1.53-7.89c.41-3.05.1-5.55-.92-7.48a6.82 6.82 0 0 0-2.34-2.59 4.6 4.6 0 0 0-3.31-.61c-1.73.41-3.05 1.81-3.97 4.22-.1.27-.43 1.25-.97 2.95a13.95 13.95 0 0 1-1.17 2.75c.2-4.14-.33-8.24-1.58-12.31a10.84 10.84 0 0 0-1.88-3.71c-.99-1.19-2.09-1.8-3.31-1.83Z" style="stroke-width:0;fill:#fff"/>
  <path d="M17.99 3.76a10.53 10.53 0 0 0-4.68.36c-.64.23-1.25.59-1.83 1.07A6.52 6.52 0 0 0 9.04 8.6a22.18 22.18 0 0 0-1.53 7.94c-.03.68-.05 1.3-.05 1.88 0 1.6.07 2.8.2 3.61.2 1.05.66 4.29 1.37 9.72.61 4.65 1.35 9.46 2.24 14.45-.54.13-1.09.28-1.63.46-4.65 1.42-7.58 3.63-8.8 6.61-1.22 2.95-1.12 6.24.31 9.87.2.58.48 1.12.81 1.63.51.64 1.1 1.22 1.78 1.73a25 25 0 0 0 7.07 3.51 34.3 34.3 0 0 0 8.34 1.48c-1.8 8.21-3.21 14.88-4.22 20 7.12.41 18.93.81 35.41 1.22l-4.12-21.22c7.26-3.02 10.97-9.67 11.14-19.94l-.1-.05.2-.36c0-.1.02-.2.05-.31v.25c5.73-8.99 8.7-16.13 8.9-21.42a23.8 23.8 0 0 0-.15-4.12 8.18 8.18 0 0 0-.46-2.04 6.54 6.54 0 0 0-3.46-3.66 12.91 12.91 0 0 0-4.07-1.12c-1.02.1-1.96.34-2.85.71l.1-1.63c.1-1.9-.18-3.77-.87-5.6a7.04 7.04 0 0 0-3.1-3.77c-.81-.41-1.63-.73-2.44-.97a5.64 5.64 0 0 0-5.5.66c-1.09.78-2 1.75-2.75 2.9l-.1-.97a19.01 19.01 0 0 0-.66-3.31c-.23-.92-.54-1.78-.92-2.59a8 8 0 0 0-1.22-1.88C36.46.54 34.72-.2 32.72.03c-.89.07-1.76.22-2.65.46-.84.34-1.63.83-2.34 1.48a5.53 5.53 0 0 0-1.32 1.73c-.41.68-.73 1.39-.97 2.14a24.1 24.1 0 0 0-1.22 4.83 12.88 12.88 0 0 0-2.14-4.17 6.78 6.78 0 0 0-4.12-2.75Zm28.65 8.5c.38-.2.79-.31 1.27-.31.92 0 1.58.39 1.98 1.17.27.44.46.94.56 1.48.38 1.46.44 2.98.2 4.58a167.68 167.68 0 0 1-4.28 21.98c-.27 1.25-.56 2.52-.87 3.82-.84-.48-1.86-.95-3.05-1.42a37.64 37.64 0 0 0-3.46-1.07l2.85-18.88c.51-2.37 1.12-4.7 1.83-6.97.27-.84.56-1.63.86-2.34a3.73 3.73 0 0 1 2.09-2.04ZM35.8 8.7c.1 1.15.18 2.39.25 3.71.13 4.45.12 8.87-.05 13.28a441 441 0 0 1-.56 11.7l-.36 4.38a39.7 39.7 0 0 0-6.77-.25l-.1-5.85a298.34 298.34 0 0 1 .51-20.7c.17-2.21.41-4.43.71-6.67l.41-1.07.51-.97c.2-.27.39-.49.56-.66.27-.17.53-.28.76-.36l.81-.1c.38 0 .76.02 1.17.05.64.07 1.14.39 1.48.97.34.54.56 1.39.66 2.54Zm-16.54 2.54c.27.74.48 1.51.61 2.29.31 1.22.58 2.51.81 3.87.13 1.29.31 2.62.51 3.97.31 2.34.54 4.7.71 7.07.23 2.98.44 6.02.61 9.11l.2 4.63c-1.66.38-2.88.95-3.66 1.73-.07.07-.17.15-.31.25 12.55.78 22.66 2.56 30.32 5.34.17-.71 0-1.42-.51-2.14 1.12-4.96 2.49-9.94 4.12-14.96.13-.34.28-.66.46-.97a52.3 52.3 0 0 1 2.09-5.09 8.99 8.99 0 0 1 1.83-2.59 2.13 2.13 0 0 1 1.98-.51 2.8 2.8 0 0 1 2.49 2.14c.2.54.33 1.14.36 1.78.03 1.63-1.42 6-4.38 13.13-1.66 3.94-2.93 6.94-3.82 9.01l-.15-.1c-.03.17-.05.34-.05.51l-.1.25c-.03.03-.03.07 0 .1l.1.05c-.71 9.57-5.26 15.28-13.64 17.15.27 4.1 1.07 10.76 2.39 19.94l-19.64-1.02 2.8-20.56h-4.27c-1.76-.1-3.68-.43-5.75-.97a34.45 34.45 0 0 1-3.66-1.12 7.37 7.37 0 0 1-5.14-5.55l-.1-.56c-.44-4.17 2.32-6.41 8.29-6.72 5.93-.34 9.84 1 11.7 4.02.07.23.1.48.1.71a2 2 0 0 1-.36 1.32c-.27.44-.63.74-1.07.92-.23.2-.51.38-.81.51l-1.68.31a43.1 43.1 0 0 1-5.6-.76c-1.02-.1-1.71.17-2.09.81a2.2 2.2 0 0 0 1.32 1.73c1.32.54 2.78.94 4.38 1.17.68.07 1.35.15 2.04.25 1.66.1 3.23-.22 4.68-.97.2-.1.39-.22.56-.36.51.34 1.19.73 2.04 1.17.89.64 1.71 1.58 2.49 2.8a7.74 7.74 0 0 1 .92 4.63c-.17 1.83-.27 3.08-.31 3.77.31 0 .64-.08 1.02-.25.2-.13.54-.56 1.02-1.27a11.5 11.5 0 0 0 1.42-3.61l-.05-1.22a8.37 8.37 0 0 0-3.15-6.26 37.46 37.46 0 0 0-3.36-2.44 7.43 7.43 0 0 0 .87-4.58c-.31-2.68-2.75-4.78-7.33-6.31a21.4 21.4 0 0 0-7.28-1.22l-3.15-23.71c0-.2-.1-1.68-.31-4.43-.27-2.78-.2-4.71.2-5.8a6.99 6.99 0 0 1 1.02-2.19 3.6 3.6 0 0 1 1.53-.97 1.92 1.92 0 0 1 1.73.15 5.15 5.15 0 0 1 1.98 2.59Z" style="fill:#010101;stroke-width:0"/>
</svg>