<svg xmlns="http://www.w3.org/2000/svg" viewBox="0 0 64.83 89.04">
  <path d="M40.07 25.19c-1.42.2-2.47.23-3.15.1a7.11 7.11 0 0 1-1.83-.71c-.74-.41-1.32-.71-1.73-.92a11.01 11.01 0 0 0-9.31-.05l-1.78-12.06c-.41-2.92-1.09-5.02-2.04-6.31a5.3 5.3 0 0 0-2.8-1.88 3.5 3.5 0 0 0-3.1.41c-.81.61-1.5 1.73-2.04 3.36a40.3 40.3 0 0 0-1.78 16.69 93.38 93.38 0 0 0 2.54 12.21l2.14 8.19c-3.87.99-6.69 2.19-8.45 3.61a9.42 9.42 0 0 0-2.75 3.77 6.26 6.26 0 0 0-.2 4.43 7.41 7.41 0 0 0 2.65 3.46c.89.71 2.19 1.5 3.92 2.34a46.56 46.56 0 0 0 6.72 2.9c2.57.78 4.91.92 7.02.41l-3.92 14.14c-.54 1.86-.56 3.26-.05 4.17.61 1.02 2 1.66 4.17 1.93 2.65.27 5.6.33 8.85.15 2.11-.1 5.06-.38 8.85-.81 1.5-.13 2.52-.49 3.1-1.07.71-.71 1-2.04.87-3.97a128.83 128.83 0 0 0-2.14-15.47 16.9 16.9 0 0 0 6-3.21 11.8 11.8 0 0 0 3.87-5.44c.34-1.39.68-2.41 1.02-3.05.34-.68 1.22-1.73 2.65-3.15 3.87-3.87 5.52-7.66 4.94-11.4-.38-2.51-1.75-4.51-4.12-6-2.37-1.5-4.76-1.86-7.17-1.12a4.88 4.88 0 0 0-1.27-3.1 6.63 6.63 0 0 0-2.85-2.04c-1.73-.64-4-.81-6.82-.51Z" style="stroke-width:0;fill:#fff"/>
  <path d="M17.99.1a10.53 10.53 0 0 0-4.68.36c-.64.23-1.25.59-1.83 1.07a6.52 6.52 0 0 0-2.44 3.41 22.18 22.18 0 0 0-1.53 7.94c-.03.68-.05 1.3-.05 1.88 0 1.6.07 2.8.2 3.61.2 1.05.66 4.29 1.37 9.72.61 4.65 1.35 9.46 2.24 14.45-.54.13-1.09.28-1.63.46-4.65 1.42-7.58 3.63-8.8 6.61-1.22 2.95-1.12 6.24.31 9.87.2.58.48 1.12.81 1.63.51.64 1.1 1.22 1.78 1.73a25 25 0 0 0 7.07 3.51 34.3 34.3 0 0 0 8.34 1.48c-1.8 8.21-3.21 14.88-4.22 20 7.12.41 18.93.81 35.41 1.22l-4.12-21.22c5.67-2.37 9.18-6.94 10.53-13.69.68-.34 1.34-.76 1.98-1.27a14.12 14.12 0 0 0 3.41-4.53 22.2 22.2 0 0 0 1.98-5.29c.34-1.6.56-2.93.66-4.02.1-1.12-.08-2.44-.56-3.97a8.58 8.58 0 0 0-2.39-3.71 11.2 11.2 0 0 0-4.02-2.29 9.94 9.94 0 0 0-4.63-.41c-.07 0-.12.02-.15.05a10.5 10.5 0 0 0-1.07-2.7 9.32 9.32 0 0 0-3.1-3.26 8.86 8.86 0 0 0-4.43-1.68 8.36 8.36 0 0 0-4.58.66c-.64.31-1.25.66-1.83 1.07a7.7 7.7 0 0 0-5.24-4.08 7.54 7.54 0 0 0-6.67 1.53l-.2-2.54a80.3 80.3 0 0 0-1.48-9.77 12.2 12.2 0 0 0-2.34-5.09A6.78 6.78 0 0 0 17.97.09Zm14.86 23.91c.34.23.64.53.92.86.61.89.97 1.85 1.07 2.9.17 1.76.25 3.48.25 5.14a30 30 0 0 1-.76 7.02 23.09 23.09 0 0 1-1.22 3.15 2.6 2.6 0 0 1-1.48 1.42c-.64.23-1.22.28-1.73.15a7.62 7.62 0 0 1-1.07-.46 2.26 2.26 0 0 1-.71-.56 6.86 6.86 0 0 1-1.78-3.71c-.2-1.15-.28-2.54-.25-4.17.03-2.98.33-5.83.87-8.55.27-1.35.9-2.42 1.88-3.21 1.32-.99 2.67-.99 4.02 0ZM14.02 5.8a3.6 3.6 0 0 1 1.53-.97 1.92 1.92 0 0 1 1.73.15 5.1 5.1 0 0 1 1.98 2.59c.27.74.48 1.51.61 2.29.31 1.22.58 2.51.81 3.87.13 1.29.31 2.62.51 3.97.31 2.34.54 4.7.71 7.07.1 1.42.22 2.87.36 4.32a32.22 32.22 0 0 0-.1 9.67c.2 1.42.53 2.85.97 4.27a21.94 21.94 0 0 0-6.82-1.12L13.1 18.2c0-.2-.1-1.68-.31-4.43-.27-2.78-.2-4.71.2-5.8a6.99 6.99 0 0 1 1.02-2.19Zm31.34 20.1a5.1 5.1 0 0 1 2.9 3.31c.38 1.15.48 2.59.31 4.32a75.57 75.57 0 0 1-1.22 7.99c-.2.92-.56 1.86-1.07 2.85a5.87 5.87 0 0 1-1.88 2.39c-1.05.74-2.07.94-3.05.56-1.02-.38-1.75-1.29-2.19-2.75-.31-.95-.48-2-.51-3.15.2-1.63.39-3.26.56-4.88.41-3.26.79-6.51 1.17-9.77a4.08 4.08 0 0 1 2.19-1.17 4.85 4.85 0 0 1 2.8.31Zm-14.5 23.66a4.16 4.16 0 0 0 1.53-.41 9.32 9.32 0 0 0 2.95-2.09 9.37 9.37 0 0 0 2.14 2.75 6.98 6.98 0 0 0 3.92 1.93 7.75 7.75 0 0 0 4.07-.61 8.65 8.65 0 0 0 3.87 2.85c.81.27 1.58.48 2.29.61-2.17 4.75-6.09 7.75-11.75 9.01.27 4.1 1.07 10.76 2.39 19.94l-19.64-1.02 2.8-20.56h-4.27c-1.76-.1-3.68-.43-5.75-.97a34.45 34.45 0 0 1-3.66-1.12 7.37 7.37 0 0 1-5.14-5.55l-.1-.56c-.44-4.17 2.32-6.41 8.29-6.72 5.93-.34 9.84 1 11.7 4.02.07.23.1.48.1.71a2 2 0 0 1-.36 1.32c-.27.44-.63.74-1.07.92-.23.2-.51.38-.81.51l-1.68.31a43.1 43.1 0 0 1-5.6-.76c-1.02-.1-1.71.17-2.09.81a2.2 2.2 0 0 0 1.32 1.73c1.32.54 2.78.94 4.38 1.17.68.07 1.35.15 2.04.25 1.66.1 3.23-.22 4.68-.97.2-.1.39-.22.56-.36.51.34 1.19.73 2.04 1.17.89.64 1.71 1.58 2.49 2.8a7.74 7.74 0 0 1 .92 4.63c-.17 1.83-.27 3.08-.31 3.77.31 0 .64-.08 1.02-.25.2-.13.54-.56 1.02-1.27a11.5 11.5 0 0 0 1.42-3.61l-.05-1.22a8.37 8.37 0 0 0-3.15-6.26 37.46 37.46 0 0 0-3.36-2.44 7.07 7.07 0 0 0 .86-4.48Zm19.23.71a2.94 2.94 0 0 1-1.32-1.48c.78-.89 1.5-1.98 2.14-3.31a26.02 26.02 0 0 0 1.73-5.7c.2-1.42.41-3.43.61-6l.1-1.02a5 5 0 0 1 1.83-.31c.99.07 1.86.34 2.65.81 1.25.78 2 1.9 2.24 3.36a8.98 8.98 0 0 1-.05 3.15 23.4 23.4 0 0 1-1.37 3.82 19.58 19.58 0 0 1-1.63 3.26 18.3 18.3 0 0 1-1.63 2.04 5.87 5.87 0 0 1-2.24 1.58c-1.19.38-2.21.31-3.05-.2Z" style="fill:#010101;stroke-width:0"/>
</svg>