<svg xmlns="http://www.w3.org/2000/svg" viewBox="0 0 64.83 92.69">
  <path d="M20.54 9.1a4.36 4.36 0 0 0-1.93-1.98 3.63 3.63 0 0 0-2.19-.36 4.6 4.6 0 0 0-2.09.81c-2.31 1.6-3.33 4.81-3.05 9.67.2 4.78.76 10.15 1.68 16.08.54 3.59 1.5 8.9 2.85 15.93-1.8 0-3.17.08-4.12.25-1.5.27-2.68.81-3.56 1.63-.54.48-1.2 1.39-1.98 2.75-.95 1.63-1.4 2.95-1.37 3.97.03 1.19.73 2.49 2.09 3.92 2.21 2.24 4.9 3.8 8.09 4.68 3.15.92 6.28 1 9.36.25a126.02 126.02 0 0 0-2.59 17.15c-.61 0-1.1.31-1.48.92a1.94 1.94 0 0 0-.15 1.78c.41 1.15 1.37 1.85 2.9 2.09.51.07 1.12.08 1.83.05l1.88-.15c1.32-.1 3.49 0 6.51.31 2.82.31 5.01.36 6.56.15 1.76-.2 2.95-.76 3.56-1.68.61-.84.81-2.19.61-4.02a170.9 170.9 0 0 0-1.73-12.92c3.26-1.8 5.46-3.23 6.61-4.27 2.27-2.04 3.54-4.24 3.82-6.61.17-1.02.31-1.61.41-1.78.13-.34.68-.87 1.63-1.58a12.03 12.03 0 0 0 2.95-3.56 36.21 36.21 0 0 0 1.98-4.32c.81-1.96 1.3-3.63 1.48-4.99.27-1.9-.02-3.46-.86-4.68-1.02-1.5-2.62-2.39-4.78-2.7a12.7 12.7 0 0 0-2.8-.1c-.64.03-1.6.13-2.85.31a6.26 6.26 0 0 0-.36-3.77 5.8 5.8 0 0 0-2.49-2.9 6.23 6.23 0 0 0-7.17.77l-1.48-20c-.1-1.22-.25-2.17-.46-2.85a4.45 4.45 0 0 0-1.37-2.34 4.18 4.18 0 0 0-2.49-.97 4.82 4.82 0 0 0-2.65.66c-1.42.81-2.56 2.22-3.41 4.22a32.31 32.31 0 0 0-1.53 6.46l-1.48 9.41a207.1 207.1 0 0 0-3.31-12.92 15.47 15.47 0 0 0-1.07-2.75Z" style="stroke-width:0;fill:#fff"/>
  <path d="M27.76 1.98a5.53 5.53 0 0 0-1.32 1.73c-.41.68-.73 1.39-.97 2.14-.58 1.56-1 3.15-1.27 4.78a12.07 12.07 0 0 0-2.09-4.12 6.78 6.78 0 0 0-4.12-2.75 10.53 10.53 0 0 0-4.68.36c-.64.23-1.25.59-1.83 1.07A6.52 6.52 0 0 0 9.04 8.6a22.18 22.18 0 0 0-1.53 7.94c-.03.68-.05 1.3-.05 1.88 0 1.6.07 2.8.2 3.61.2 1.05.66 4.29 1.37 9.72.61 4.65 1.35 9.46 2.24 14.45-.54.13-1.09.28-1.63.46-4.65 1.42-7.58 3.63-8.8 6.61-1.22 2.95-1.12 6.24.31 9.87.2.58.48 1.12.81 1.63.51.64 1.1 1.22 1.78 1.73a25 25 0 0 0 7.07 3.51 34.3 34.3 0 0 0 8.34 1.48c-1.8 8.21-3.21 14.88-4.22 20 7.12.41 18.93.81 35.41 1.22l-4.12-21.22c5.67-2.37 9.18-6.94 10.53-13.69.68-.34 1.34-.76 1.98-1.27A14.12 14.12 0 0 0 62.14 52a22.2 22.2 0 0 0 1.98-5.29c.34-1.6.56-2.93.66-4.02.1-1.12-.08-2.44-.56-3.97a8.58 8.58 0 0 0-2.39-3.71 11.2 11.2 0 0 0-4.02-2.29 9.94 9.94 0 0 0-4.63-.41c-.07 0-.12.02-.15.05a10.5 10.5 0 0 0-1.07-2.7 9.32 9.32 0 0 0-3.1-3.26 8.86 8.86 0 0 0-4.43-1.68 7.63 7.63 0 0 0-3.56.31c.23-3.39.31-6.82.2-10.28a92.67 92.67 0 0 0-.31-4.68 19.01 19.01 0 0 0-.66-3.31c-.23-.92-.54-1.78-.92-2.59a8 8 0 0 0-1.22-1.88C36.46.56 34.72-.18 32.72.05c-.92.07-1.8.22-2.65.46-.84.34-1.63.83-2.34 1.48Zm7.38 4.17c.34.54.56 1.39.66 2.54a172.96 172.96 0 0 1 .2 16.99c-.13 4.24-.36 8.47-.66 12.67l-.2 3.41a40.6 40.6 0 0 0-6.87-.25l-.1-5.85c0-3.15.03-6.31.1-9.46.07-3.73.22-7.48.46-11.24.13-2.21.38-4.43.71-6.67l.41-1.07c.13-.31.31-.63.51-.97.2-.27.39-.49.56-.66.23-.17.49-.28.76-.36l.81-.1c.38 0 .76.02 1.17.05.64.07 1.14.39 1.48.97Zm-15.87 5.09c.27.74.48 1.51.61 2.29.31 1.22.58 2.51.81 3.87.13 1.29.31 2.62.51 3.97.31 2.34.54 4.7.71 7.07a413.4 413.4 0 0 1 .86 13.74c-1.66.38-2.9.94-3.71 1.68-.07.1-.17.2-.31.31 5.7.34 10.91.9 15.62 1.68.03 1.63.23 2.98.61 4.07a9.06 9.06 0 0 0 2.49 3.56 6.98 6.98 0 0 0 3.92 1.93 7.75 7.75 0 0 0 4.07-.61 8.65 8.65 0 0 0 3.87 2.85c.81.27 1.58.48 2.29.61-2.17 4.75-6.09 7.75-11.75 9.01.27 4.1 1.07 10.76 2.39 19.94l-19.64-1.02 2.8-20.56h-4.27c-1.76-.1-3.68-.43-5.75-.97a34.45 34.45 0 0 1-3.66-1.12 7.37 7.37 0 0 1-5.14-5.55l-.1-.56c-.44-4.17 2.32-6.41 8.29-6.72 5.93-.34 9.84 1 11.7 4.02.07.23.1.48.1.71a2 2 0 0 1-.36 1.32c-.27.44-.63.74-1.07.92-.23.2-.51.38-.81.51l-1.68.31a43.1 43.1 0 0 1-5.6-.76c-1.02-.1-1.71.17-2.09.81a2.2 2.2 0 0 0 1.32 1.73c1.32.54 2.78.94 4.38 1.17.68.07 1.35.15 2.04.25 1.66.1 3.23-.22 4.68-.97.2-.1.39-.22.56-.36.51.34 1.19.73 2.04 1.17.89.64 1.71 1.58 2.49 2.8a7.74 7.74 0 0 1 .92 4.63c-.17 1.83-.27 3.08-.31 3.77.31 0 .64-.08 1.02-.25.2-.13.54-.56 1.02-1.27a11.5 11.5 0 0 0 1.42-3.61l-.05-1.22a8.37 8.37 0 0 0-3.15-6.26A37.46 37.46 0 0 0 30 57.69a7.36 7.36 0 0 0 .86-4.58c-.31-2.68-2.75-4.78-7.33-6.31a22.52 22.52 0 0 0-7.22-1.22L13.1 21.87c0-.2-.1-1.68-.31-4.43-.27-2.78-.2-4.71.2-5.8a6.99 6.99 0 0 1 1.02-2.19 3.6 3.6 0 0 1 1.53-.97 1.92 1.92 0 0 1 1.73.15 5.1 5.1 0 0 1 1.98 2.59Zm33.99 26.2.1-1.02a5 5 0 0 1 1.83-.31c.99.07 1.86.34 2.65.81 1.25.78 2 1.9 2.24 3.36a8.98 8.98 0 0 1-.05 3.15 23.4 23.4 0 0 1-1.37 3.82 19.58 19.58 0 0 1-1.63 3.26 18.3 18.3 0 0 1-1.63 2.04 5.87 5.87 0 0 1-2.24 1.58c-1.19.38-2.21.31-3.05-.2a2.94 2.94 0 0 1-1.32-1.48c.78-.89 1.5-1.98 2.14-3.31a26.02 26.02 0 0 0 1.73-5.7c.2-1.42.41-3.43.61-6Zm-14.04 2.75c.41-3.26.79-6.51 1.17-9.77a4.08 4.08 0 0 1 2.19-1.17 4.85 4.85 0 0 1 2.8.31 5.1 5.1 0 0 1 2.9 3.31c.38 1.15.48 2.59.31 4.32a75.57 75.57 0 0 1-1.22 7.99c-.2.92-.56 1.86-1.07 2.85a5.87 5.87 0 0 1-1.88 2.39c-1.05.74-2.07.94-3.05.56-1.02-.38-1.75-1.29-2.19-2.75-.31-.95-.48-2-.51-3.15.2-1.63.39-3.26.56-4.88Z" style="fill:#010101;stroke-width:0"/>
</svg>