<svg xmlns="http://www.w3.org/2000/svg" viewBox="0 0 92.71 96.95">
  <path d="M53.05 9.08a12.57 12.57 0 0 0-8.42-1.57c-3.28.6-5.59 2.21-6.93 4.84-3.23-2.79-6.26-4.74-9.09-5.89-3.83-1.54-7.33-1.61-10.51-.22a11.77 11.77 0 0 0-4.92 4.1 15.29 15.29 0 0 0-2.61 6.11c-.7 3.38-.49 7.72.6 13.04.3 1.39.33 2.43.07 3.13-.25.49-1.01 1.24-2.31 2.24a11.99 11.99 0 0 0-3.5 4.55A10.15 10.15 0 0 0 4.39 45c.25 2.83 1.54 5.4 3.88 7.68a20.1 20.1 0 0 0 7.75 4.62c1.94.64 4.84 1.34 8.72 2.09a81 81 0 0 1 8.65 2.01l-5.52 23.18c-.75 2.73-.52 4.65.67 5.74.7.6 1.98.89 3.88.89l27.35-.3c2.04 0 3.47-.33 4.32-.97 1.54-1.3 1.76-3.76.67-7.38-2.43-8-4.44-15.95-6.04-23.85 1.45-.19 3.92-.12 7.45.22 3.18.3 5.63.19 7.38-.3 3.28-1 6.23-3.55 8.87-7.68a37.6 37.6 0 0 0 4.1-8.65l2.83-10.43c.94-3.53 1.01-6.16.22-7.9-.7-1.59-2.01-2.8-3.95-3.65a15.43 15.43 0 0 0-5.74-1.12c-2.13 0-3.58-.15-4.32-.45a7.19 7.19 0 0 1-2.46-1.71c-.94-1-1.67-1.74-2.16-2.24a13.13 13.13 0 0 0-9.91-3.88c-2.19.1-3.55.1-4.1 0a5.8 5.8 0 0 1-2.01-.82l-1.86-1.04Z" style="fill:#fff;stroke-width:0"/>
  <path d="M61.77 6.69c-.89.25-1.68.55-2.39.89-.45-.49-.89-.97-1.34-1.42a14.28 14.28 0 0 0-13.12-3.95 14.05 14.05 0 0 0-6.41 2.91c-.3.19-.57.42-.82.67-.34-.4-.72-.79-1.12-1.19A17.15 17.15 0 0 0 27.33.2 21.39 21.39 0 0 0 16.9 1.32a18.5 18.5 0 0 0-8.27 6.04c-2.09 2.79-3.43 6.48-4.02 11.11-.3 2.09-.42 4.02-.37 5.81a31.2 31.2 0 0 0 2.01 9.09c-.79.49-1.54 1.07-2.24 1.71-.89.89-1.61 1.89-2.16 2.98a19.09 19.09 0 0 0-.37 15.58c.3.85.7 1.64 1.19 2.38.75.94 1.61 1.79 2.61 2.53a36.62 36.62 0 0 0 10.36 5.14 48.94 48.94 0 0 0 12.22 2.16c-2.64 12.03-4.7 21.79-6.19 29.29 10.43.6 27.73 1.19 51.87 1.79L67.5 65.85c2.68-.19 5.34-.97 7.97-2.31A26.4 26.4 0 0 0 83 57.35a29.06 29.06 0 0 0 6.56-14.24c.4-2.58.52-5.11.37-7.6a18.26 18.26 0 0 0 1.49-3.35 16.1 16.1 0 0 0 1.27-6.41 9.79 9.79 0 0 0-2.09-6.11 11.02 11.02 0 0 0-4.55-3.13c-1.54-.6-3.13-.92-4.77-.97a6.87 6.87 0 0 0-3.28.52c-.19-.94-.55-1.91-1.04-2.91a13.55 13.55 0 0 0-5.22-5.89 9.56 9.56 0 0 0-5.22-1.34 16.8 16.8 0 0 0-4.77.75Zm-42.93 3.35c2.28-1.19 4.62-1.59 7.01-1.19 1.64.3 3.1.97 4.4 2.01a7.83 7.83 0 0 1 2.68 3.88c.45 1.39.48 3.16.07 5.29a27.2 27.2 0 0 1-3.35 9.32c-.1.15-.19.33-.3.52-.75-.15-1.52-.22-2.31-.22l-1.57-.15v-.15l-.52-8.2a8.87 8.87 0 0 0-.45-2.31c-.34-.85-.92-1.31-1.71-1.42-.89-.15-1.61.3-2.16 1.34a8.75 8.75 0 0 0-.52 2.68l-.52 7.97c-1.15 0-2.28.07-3.43.22-.79.15-1.6.34-2.39.6a26.47 26.47 0 0 1-.89-10.81c.15-1.34.49-2.73 1.04-4.17a10.38 10.38 0 0 1 4.92-5.22ZM9.45 46.11a5.74 5.74 0 0 1 1.49-5.74c.3-.34.63-.64.97-.89 1-.55 2.04-1.01 3.13-1.42a24.43 24.43 0 0 1 9.17-.82c2.24.15 4.47.45 6.71.89l.67.15c.49.1 1 .22 1.49.37a7 7 0 0 1 5.14 4.55c-.85 2.43-2.58 3.65-5.22 3.65a61.51 61.51 0 0 1-8.2-1.12c-1.49-.15-2.5.25-3.06 1.19a3.19 3.19 0 0 0 1.94 2.53c1.94.79 4.07 1.37 6.41 1.71 1 .1 1.98.22 2.98.37 2.43.15 4.73-.33 6.86-1.42.3-.15.57-.33.82-.52a34.2 34.2 0 0 0 2.98 1.71c1.3.94 2.58 2.39 3.88 4.32a10.06 10.06 0 0 1 1.57 6.41c-.19 2.34-.4 4.22-.6 5.66.34-.04.75-.18 1.19-.37.3-.19.79-.82 1.49-1.86 1.24-2.28 1.94-4.05 2.09-5.29l-.07-1.79c-.25-3.83-1.49-6.96-3.73-9.39a11.3 11.3 0 0 0-4.1-3.06c-.55-.25-1.09-.45-1.64-.6.1-.25.18-.52.22-.82.1-.4.15-.82.15-1.27 0-.75-.07-1.46-.22-2.16.34-.04.7-.07 1.04-.07a15.2 15.2 0 0 0 9.69-4.25l.82-.82.52.75.15.15c.04 0 .1.03.15.07.04 0 .1.03.15.07.1.04.19.12.3.22.04.04.15.1.3.15 0 .04.04.1.15.15.1.04.22.12.37.22.04 0 .12.03.22.07l.07.07a11.1 11.1 0 0 0 8.5 1.04h.07c0 .4.07.82.22 1.27.49 1.54 1.68 2.68 3.58 3.43 1.19.6 2.86.85 4.99.75a23.2 23.2 0 0 0 4.77-.75 20.65 20.65 0 0 1-3.58 7.38 16.34 16.34 0 0 1-8.05 5.66c-1.45.4-3.31.64-5.59.75-.45 0-.85.03-1.19.07l-4.55-.07c1.15 7.5 2.68 17.99 4.62 31.45l-28.77-1.49 4.1-30.11h-6.26c-2.58-.15-5.4-.63-8.42-1.42-1.83-.45-3.62-1-5.37-1.64-3.98-1.3-6.48-3.99-7.53-8.12Zm43.46-33.68c1.34 1.64 1.89 3.73 1.64 6.26a18.26 18.26 0 0 1-2.01 6.19c-1.34 2.98-2.91 5.11-4.7 6.41a7.2 7.2 0 0 1-3.73 1.49 5.53 5.53 0 0 1-3.8-.89c-.19-.15-.6-.52-1.19-1.12a30.1 30.1 0 0 0 2.98-11.55c.1-2.24-.15-4.37-.75-6.41a8.3 8.3 0 0 1 5.52-2.91c2.53-.15 4.55.7 6.04 2.53Zm7.6 18.48a6.53 6.53 0 0 1-1.12-1.12 29.07 29.07 0 0 0 2.98-8.57c.4-2.13.48-4.17.22-6.11l.82-.3c1.94-.75 3.4-.89 4.4-.45a4.08 4.08 0 0 1 2.16 2.76 8.93 8.93 0 0 1 0 3.65c-.1.89-.37 2.04-.82 3.43-.7 2.73-1.61 4.65-2.76 5.74a5.21 5.21 0 0 1-2.83 1.49 3.79 3.79 0 0 1-3.06-.52Zm23.92-7.53a4.9 4.9 0 0 1 1.12 1.79 6.8 6.8 0 0 1-.37 4.25c-.3.79-.64 1.59-1.04 2.39-.94 1.64-2.65 3.28-5.14 4.92-2.53 1.59-4.58 2.01-6.11 1.27a2.94 2.94 0 0 1-1.49-1.86 17.02 17.02 0 0 0 3.28-4.25c1.04-1.89 1.97-4.58 2.76-8.05 1.98-1.15 3.5-1.61 4.55-1.42 1.09.15 1.91.48 2.46.97Z" style="stroke-width:0"/>
</svg>