<svg xmlns="http://www.w3.org/2000/svg" viewBox="0 0 63.29 66.19">
  <path d="M36.22 6.2a8.62 8.62 0 0 0-5.75-1.07c-2.24.41-3.82 1.51-4.73 3.31a22.98 22.98 0 0 0-6.21-4.02c-2.62-1.05-5.01-1.1-7.17-.15A8.1 8.1 0 0 0 9 7.07a10.32 10.32 0 0 0-1.78 4.17c-.48 2.31-.34 5.27.41 8.9.2.95.22 1.66.05 2.14-.17.34-.69.84-1.58 1.53a8.15 8.15 0 0 0-2.39 3.1A6.97 6.97 0 0 0 3 30.73a8.22 8.22 0 0 0 2.65 5.24 13.72 13.72 0 0 0 5.29 3.15c1.32.44 3.31.92 5.95 1.42 2.68.51 4.65.97 5.9 1.37l-3.77 15.82c-.51 1.86-.36 3.17.46 3.92.48.41 1.35.61 2.65.61l18.67-.2c1.39 0 2.37-.22 2.95-.66 1.05-.89 1.2-2.56.46-5.04a175.66 175.66 0 0 1-4.12-16.28c.99-.13 2.68-.08 5.09.15 2.17.2 3.85.13 5.04-.2 2.24-.68 4.25-2.42 6.05-5.24a25.75 25.75 0 0 0 2.8-5.9L61 21.77c.64-2.41.69-4.2.15-5.39a4.9 4.9 0 0 0-2.7-2.49 10.4 10.4 0 0 0-3.92-.76c-1.46 0-2.44-.1-2.95-.31-.54-.2-1.1-.59-1.68-1.17a70.9 70.9 0 0 0-1.48-1.53 8.95 8.95 0 0 0-6.77-2.65c-1.5.07-2.42.07-2.8 0a3.96 3.96 0 0 1-1.37-.56l-1.27-.71Z" style="stroke-width:0;fill:#fff"/>
  <path d="M42.17 4.57c-.61.17-1.15.38-1.63.61-.31-.34-.61-.66-.92-.97a9.65 9.65 0 0 0-8.95-2.69 9.74 9.74 0 0 0-4.94 2.44 14.1 14.1 0 0 0-.76-.81 11.7 11.7 0 0 0-6.31-3 14.62 14.62 0 0 0-7.12.76 12.71 12.71 0 0 0-5.65 4.12c-1.42 1.9-2.34 4.43-2.75 7.58-.2 1.42-.28 2.75-.25 3.97.1 1.93.56 4 1.37 6.21A7.94 7.94 0 0 0 1.25 26 13 13 0 0 0 1 36.63c.2.58.48 1.12.81 1.63.51.64 1.1 1.22 1.78 1.73a25 25 0 0 0 7.07 3.51A34.3 34.3 0 0 0 19 44.98c-1.8 8.21-3.21 14.88-4.22 20 7.12.41 18.93.81 35.41 1.22l-4.12-21.22c1.83-.13 3.64-.66 5.44-1.58a18.1 18.1 0 0 0 5.14-4.22 19.86 19.86 0 0 0 4.48-9.72c.27-1.76.36-3.49.25-5.19.44-.78.78-1.55 1.02-2.29.61-1.5.9-2.95.86-4.38a6.73 6.73 0 0 0-1.42-4.17 7.54 7.54 0 0 0-3.1-2.14 9.62 9.62 0 0 0-3.26-.66c-.74-.07-1.5.05-2.24.36a8.46 8.46 0 0 0-.71-1.98 9.32 9.32 0 0 0-3.56-4.02 6.58 6.58 0 0 0-3.56-.92c-.78-.03-1.86.13-3.26.51ZM12.86 6.86c1.56-.81 3.15-1.09 4.78-.81 1.12.2 2.12.66 3 1.37a5.29 5.29 0 0 1 1.83 2.65c.31.95.33 2.16.05 3.61a18.52 18.52 0 0 1-2.49 6.72 8.22 8.22 0 0 0-1.58-.15l-1.07-.1v-.1l-.36-5.6a6.04 6.04 0 0 0-.31-1.58c-.23-.58-.63-.9-1.17-.97-.61-.1-1.1.2-1.48.92-.17.38-.28.99-.36 1.83l-.36 5.44c-.78 0-1.56.05-2.34.15-.54.1-1.09.23-1.63.41a18.01 18.01 0 0 1-.61-7.38c.1-.92.34-1.86.71-2.85a7.03 7.03 0 0 1 3.36-3.56ZM6.45 31.49a3.9 3.9 0 0 1 1.02-3.92c.2-.23.43-.44.66-.61.68-.38 1.39-.69 2.14-.97 2-.58 4.09-.76 6.26-.56 1.53.1 3.05.31 4.58.61l.46.1c.34.07.68.15 1.02.25a4.8 4.8 0 0 1 3.51 3.1c-.58 1.66-1.76 2.49-3.56 2.49a43.1 43.1 0 0 1-5.6-.76c-1.02-.1-1.71.17-2.09.81a2.2 2.2 0 0 0 1.32 1.73c1.32.54 2.78.94 4.38 1.17.68.07 1.35.15 2.04.25 1.66.1 3.23-.22 4.68-.97.2-.1.39-.22.56-.36.51.34 1.19.73 2.04 1.17.89.64 1.76 1.63 2.65 2.95a6.9 6.9 0 0 1 1.07 4.38c-.13 1.6-.27 2.88-.41 3.87.23-.03.51-.12.81-.25.2-.13.54-.56 1.02-1.27a11.5 11.5 0 0 0 1.42-3.61l-.05-1.22a10.13 10.13 0 0 0-2.54-6.41 7.66 7.66 0 0 0-3.92-2.5c.07-.17.12-.36.15-.56.07-.27.1-.56.1-.86 0-.51-.05-1-.15-1.48.23-.03.48-.05.71-.05a10.37 10.37 0 0 0 6.61-2.9l.56-.56.36.51.1.1c.03 0 .07.02.1.05.03 0 .07.02.1.05.07.03.13.08.2.15.03.03.1.07.2.1 0 .03.03.07.1.1s.15.08.25.15a.5.5 0 0 1 .15.05l.05.05a7.56 7.56 0 0 0 5.8.71h.05c0 .27.05.56.15.86.34 1.05 1.15 1.83 2.44 2.34.81.41 1.95.58 3.41.51 1.15-.07 2.24-.23 3.26-.51a14.26 14.26 0 0 1-2.44 5.04 11.24 11.24 0 0 1-5.5 3.87c-.99.27-2.26.44-3.82.51-.31 0-.58.02-.81.05l-3.1-.05c.78 5.12 1.83 12.28 3.15 21.47l-19.64-1.02 2.8-20.56h-4.27c-1.76-.1-3.68-.43-5.75-.97a34.45 34.45 0 0 1-3.66-1.12 7.37 7.37 0 0 1-5.14-5.55Zm29.66-23a5.59 5.59 0 0 1 1.12 4.27 12.5 12.5 0 0 1-1.37 4.22c-.92 2.04-1.98 3.49-3.21 4.38a4.9 4.9 0 0 1-2.54 1.02c-.99.1-1.85-.1-2.59-.61-.13-.1-.41-.36-.81-.76a20.7 20.7 0 0 0 2.04-7.89c.07-1.53-.1-2.98-.51-4.38a5.61 5.61 0 0 1 3.77-1.98c1.73-.1 3.1.48 4.12 1.73Zm5.19 12.62a4.51 4.51 0 0 1-.76-.76 20.08 20.08 0 0 0 2.04-5.85c.27-1.46.33-2.85.15-4.17l.56-.2c1.32-.51 2.32-.61 3-.31.74.38 1.24 1 1.48 1.88.17.71.17 1.55 0 2.49-.07.61-.25 1.39-.56 2.34-.48 1.86-1.1 3.17-1.88 3.92-.54.54-1.19.89-1.93 1.02-.81.17-1.51.05-2.09-.36Zm16.33-5.14c.34.34.59.74.76 1.22.23.92.15 1.88-.25 2.9-.2.54-.44 1.09-.71 1.63-.64 1.12-1.81 2.24-3.51 3.36-1.73 1.09-3.12 1.37-4.17.86a2.04 2.04 0 0 1-1.02-1.27 11.7 11.7 0 0 0 2.24-2.9 21.73 21.73 0 0 0 1.88-5.49c1.35-.78 2.39-1.1 3.1-.97.74.1 1.3.33 1.68.66Z" style="fill:#010101;stroke-width:0"/>
</svg>