<svg xmlns="http://www.w3.org/2000/svg" viewBox="0 0 75.37 92.69">
  <path d="M5.69 46.09a4.07 4.07 0 0 0-1.58 1.78c-.81 1.9-.02 4.2 2.39 6.92a99.5 99.5 0 0 0 7.99 7.63c2.72 2.27 4.81 3.71 6.31 4.32 1.8.74 3.94 1.1 6.41 1.07 1.5-.03 3.69-.27 6.61-.71L29.6 84.7c-.54-.44-1.15-.43-1.83.05-.64.48-.95 1.07-.92 1.78.03.64.34 1.22.92 1.73.51.48 1.14.78 1.88.92.61.1 1.3.1 2.09 0 .34-.03 1.02-.17 2.04-.41a48.17 48.17 0 0 1 16.18-.71c.89.1 1.55.13 1.98.1.74-.1 1.3-.38 1.68-.81.44-.58.56-1.56.36-2.95l-2.19-15.06a14.99 14.99 0 0 0 5.14-2.65 15.15 15.15 0 0 0 3.71-4.43 21 21 0 0 0 1.73-4.43c.54-2.04.97-3.56 1.27-4.58.64-2.21 2.01-5.68 4.12-10.43 1.96-4.41 3.28-7.89 3.92-10.43.58-2.34.68-4.27.31-5.8A5.97 5.97 0 0 0 70.67 24a4.7 4.7 0 0 0-2.44-1.48c-2.24-.48-4.68.99-7.33 4.38.99-3.56 1.27-7.15.87-10.79a8.73 8.73 0 0 0-1.27-3.82c-.78-1.25-1.78-1.88-3-1.88-1.25-.03-2.52.73-3.82 2.29a28.71 28.71 0 0 0-3.46 5.65 69.54 69.54 0 0 0-2.49 6.26c.1-5.7-.41-11.35-1.53-16.94-.58-2.82-1.56-4.56-2.95-5.24a3.48 3.48 0 0 0-2.59-.15c-.92.2-1.71.64-2.39 1.32-.99.92-1.85 2.47-2.59 4.68a41.28 41.28 0 0 0-1.93 11.75 79.73 79.73 0 0 0-2.24-6 31.2 31.2 0 0 0-3-5.55c-1.09-1.53-2.17-2.36-3.26-2.49a3.33 3.33 0 0 0-1.98.56c-.61.38-1.1.9-1.48 1.58-.48.92-.78 2.31-.92 4.17-.13 2.85-.15 5.92-.05 9.21.23 9.49 1.09 19.05 2.54 28.65.31 2.14-.07 3.43-1.12 3.87a20.3 20.3 0 0 0-9.62-7.89c-1.7-.71-3.26-1-4.68-.87a5.4 5.4 0 0 0-2.24.81Z" style="stroke-width:0;fill:#fff"/>
  <path d="M.34 46.8c-.61 2-.41 4.07.61 6.21.54 1.22 1.5 2.63 2.85 4.22 1.76 2.17 4.86 5.55 9.31 10.13a15.16 15.16 0 0 0 2.8 2.34c.95.54 2.52.95 4.73 1.22.62.09 1.18.14 1.68.15 1.79.36 3.7.5 5.75.41-1.8 8.21-3.21 14.88-4.22 20 7.12.41 18.93.81 35.41 1.22l-4.12-21.22c7.26-3.02 10.97-9.67 11.14-19.94l-.1-.05.2-.36c0-.1.02-.2.05-.31v.25c5.73-8.99 8.7-16.13 8.9-21.42a23.8 23.8 0 0 0-.15-4.12 8.18 8.18 0 0 0-.46-2.04 6.54 6.54 0 0 0-3.46-3.66 12.91 12.91 0 0 0-4.07-1.12c-1.05.1-2 .34-2.85.71l.1-1.63c.1-1.9-.18-3.77-.86-5.6a7.04 7.04 0 0 0-3.1-3.77c-.81-.41-1.63-.73-2.44-.97a5.61 5.61 0 0 0-5.49.66c-1.09.78-2 1.75-2.75 2.9l-.1-.97a19.01 19.01 0 0 0-.66-3.31c-.23-.92-.54-1.78-.92-2.59a8 8 0 0 0-1.22-1.88C45.4.53 43.66-.21 41.66.02c-.92.07-1.8.22-2.65.46-.84.34-1.63.83-2.34 1.48a5.53 5.53 0 0 0-1.32 1.73c-.41.68-.73 1.39-.97 2.14-.58 1.56-1 3.15-1.27 4.78a12.07 12.07 0 0 0-2.09-4.12 6.78 6.78 0 0 0-4.12-2.75 10.53 10.53 0 0 0-4.68.36c-.64.23-1.25.59-1.83 1.07a6.52 6.52 0 0 0-2.44 3.41 22.18 22.18 0 0 0-1.53 7.94c-.03.68-.05 1.3-.05 1.88 0 1.6.07 2.8.2 3.61.2 1.05.66 4.29 1.37 9.72l2.14 16.08a29.35 29.35 0 0 0-2.19-2.44 14.3 14.3 0 0 0-4.58-3.26 10.72 10.72 0 0 0-4.27-.86 10.9 10.9 0 0 0-4.32.97c-.66.26-1.21.61-1.63 1.02A6.4 6.4 0 0 0 .34 46.8Zm10.18.41c.19.09.4.19.61.31a18.05 18.05 0 0 1 6.56 4.43l.15.2c1.46.95 2.74 2.2 3.87 3.77.31-.27.63-.55.97-.81.09-.04.17-.09.25-.15l.05-.05c.47-.33.97-.63 1.48-.92 1.91-.77 4.17-.93 6.77-.46 1.73.31 3.29.97 4.68 1.98.74.54 1.42 1.14 2.04 1.78a9.65 9.65 0 0 0 1.93 1.68l.71-.25c.03-.1.05-.2.05-.31v-.86a7.2 7.2 0 0 0-1.58-4.27 10.27 10.27 0 0 0-6.51-3.92 14.07 14.07 0 0 0-4.78-.2c-.74.1-1.48.23-2.19.41l-3.56-27.68c0-.2-.1-1.68-.31-4.43-.27-2.78-.2-4.71.2-5.8a6.99 6.99 0 0 1 1.02-2.19 3.6 3.6 0 0 1 1.53-.97 1.92 1.92 0 0 1 1.73.15 5.1 5.1 0 0 1 1.98 2.59c.27.74.48 1.51.61 2.29.31 1.22.58 2.51.81 3.87.13 1.29.31 2.62.51 3.97.31 2.34.54 4.7.71 7.07.23 2.98.44 6.02.61 9.11.03 1.53.1 3.07.2 4.63a8.1 8.1 0 0 0-3.66 1.68c-.07.1-.17.2-.31.31 12.55.78 22.66 2.56 30.32 5.34.17-.74 0-1.48-.51-2.19 1.12-4.96 2.49-9.92 4.12-14.91.13-.34.28-.66.46-.97a52.3 52.3 0 0 1 2.09-5.09 8.99 8.99 0 0 1 1.83-2.59 2.13 2.13 0 0 1 1.98-.51 2.8 2.8 0 0 1 2.49 2.14c.2.54.33 1.14.36 1.78.03 1.63-1.42 6-4.38 13.13-1.66 3.94-2.93 6.94-3.82 9.01l-.15-.1v.46l-.05.05-.1.25c-.03.03-.03.07 0 .1l.1.05c-.71 9.6-5.26 15.31-13.64 17.15.27 4.1 1.07 10.76 2.39 19.94L31.5 86.19l2.75-20.2c-3.63-.13-6.31-.28-8.04-.46a28.53 28.53 0 0 1-6.16-1.27A15.1 15.1 0 0 1 17 62.89v.2l-.05-.05a186.88 186.88 0 0 1-3-2.9A64.04 64.04 0 0 1 11.91 58a47.77 47.77 0 0 1-4.58-5.19c-.51-.61-.99-1.25-1.42-1.93a3.88 3.88 0 0 1-.51-2.75c.01-.18.05-.37.1-.56.19-.07.41-.14.66-.2.07-.1.15-.18.25-.25.17-.11.43-.18.76-.2a4.57 4.57 0 0 1 2.19.05c.43.05.79.14 1.12.25ZM44.71 8.69a172.96 172.96 0 0 1 .2 16.99c-.13 4.24-.36 8.47-.66 12.67l-.2 3.41a40.6 40.6 0 0 0-6.87-.25l-.1-5.85c0-3.15.03-6.31.1-9.46.07-3.73.22-7.48.46-11.24.13-2.21.38-4.43.71-6.67l.41-1.07c.13-.31.31-.63.51-.97.2-.27.39-.49.56-.66.23-.17.49-.28.76-.36l.81-.1c.38 0 .76.02 1.17.05.64.07 1.14.39 1.48.97.34.54.56 1.39.66 2.54Zm6 14.91c.51-2.37 1.14-4.7 1.88-6.97.27-.84.56-1.63.86-2.34a3.73 3.73 0 0 1 2.09-2.04c.34-.2.76-.31 1.27-.31.92 0 1.58.39 1.98 1.17.23.44.43.94.56 1.48.38 1.46.44 2.98.2 4.58l-.41 2.75c-.51 3.56-1.14 7.1-1.88 10.63a249.2 249.2 0 0 1-1.98 8.6c-.27 1.25-.56 2.52-.86 3.82-.84-.48-1.86-.95-3.05-1.42a35.98 35.98 0 0 0-3.51-1.07l2.85-18.88Z" style="fill:#010101;stroke-width:0"/>
</svg>