<svg xmlns="http://www.w3.org/2000/svg" viewBox="0 0 64.04 92.69">
  <path d="M52.79 18.26c.07-1.86-.13-3.26-.61-4.17-.74-1.42-2.07-2.19-3.97-2.29-1.8-.1-3.38.39-4.73 1.48a10.97 10.97 0 0 0-2.9 3.97 34.3 34.3 0 0 0-1.73 4.78c.1-4.04-.22-7.96-.97-11.75-.71-3.46-2.04-5.47-3.97-6.05-1.32-.38-2.67-.05-4.02.97a10.04 10.04 0 0 0-2.8 3.66 26.51 26.51 0 0 0-2.04 6.92 87.7 87.7 0 0 0-.76 7.22l-3.36-12.67c-.41-1.5-.94-2.49-1.58-3-1.09-.84-2.41-.9-3.97-.15-2 .95-3.39 2.78-4.17 5.5-.41 1.56-.58 3.94-.51 7.12.17 5.97.46 10.71.86 14.2a61.67 61.67 0 0 0 3.1 13.79c-3.49 1.15-5.95 2.34-7.38 3.56a8.7 8.7 0 0 0-2.44 3.26 6.32 6.32 0 0 0-.31 3.97 7.35 7.35 0 0 0 2.54 3.61c.92.71 2.26 1.5 4.02 2.34a39.28 39.28 0 0 0 6.46 2.7c2.51.74 4.76.89 6.77.41a71.41 71.41 0 0 0-3.66 16.64c-.81-.03-1.35.44-1.63 1.42-.27.92-.13 1.7.41 2.34.92 1.05 2.47 1.51 4.68 1.37.95-.03 3.29-.27 7.02-.71 2.88-.38 5.21-.46 6.97-.25 1.32.17 2.21.23 2.65.2.95-.03 1.7-.33 2.24-.86.61-.61.95-1.68 1.02-3.21.27-4.99-.34-9.82-1.83-14.5a12.54 12.54 0 0 0 9.11-5.95 23.8 23.8 0 0 0 1.63-3.82 60.1 60.1 0 0 1 1.48-3.87c.44-.95 1.09-2.09 1.93-3.41l2.14-3.31c1.66-2.82 2.49-5.27 2.49-7.38a7.3 7.3 0 0 0-1.02-3.77 5.4 5.4 0 0 0-2.85-2.49 6.53 6.53 0 0 0-3.51-.2c-.84.13-2.04.48-3.56 1.02a89.88 89.88 0 0 0 2.75-18.62Z" style="stroke-width:0;fill:#fff"/>
  <path d="M27.76 1.98a5.53 5.53 0 0 0-1.32 1.73c-.41.68-.73 1.39-.97 2.14-.58 1.56-1 3.15-1.27 4.78a12.07 12.07 0 0 0-2.09-4.12 6.78 6.78 0 0 0-4.12-2.75 10.53 10.53 0 0 0-4.68.36c-.64.23-1.25.59-1.83 1.07A6.52 6.52 0 0 0 9.04 8.6a22.18 22.18 0 0 0-1.53 7.94c-.03.68-.05 1.3-.05 1.88 0 1.6.07 2.8.2 3.61.2 1.05.66 4.29 1.37 9.72.61 4.65 1.35 9.46 2.24 14.45-.54.13-1.09.28-1.63.46-4.65 1.42-7.58 3.63-8.8 6.61-1.22 2.95-1.12 6.24.31 9.87.2.58.48 1.12.81 1.63.51.64 1.1 1.22 1.78 1.73a25 25 0 0 0 7.07 3.51 34.3 34.3 0 0 0 8.34 1.48c-1.8 8.21-3.21 14.88-4.22 20 7.12.41 18.93.81 35.41 1.22l-4.12-21.22c6.03-2.51 9.64-7.53 10.79-15.06.34-.2.66-.43.97-.66a17.93 17.93 0 0 0 3.1-3.71 17.86 17.86 0 0 0 2.29-5.24c.44-1.9.66-3.46.66-4.68a9.54 9.54 0 0 0-3.2-7.12 11.2 11.2 0 0 0-7.53-2.8l.51-2.9c.27-1.25.53-2.51.76-3.77.51-2.57.83-5.16.97-7.73.1-1.9-.18-3.77-.86-5.6a7.04 7.04 0 0 0-3.1-3.77c-.81-.41-1.63-.73-2.44-.97a5.61 5.61 0 0 0-5.49.66c-1.09.78-2 1.75-2.75 2.9l-.1-.97a19.01 19.01 0 0 0-.66-3.31c-.23-.92-.54-1.78-.92-2.59A8 8 0 0 0 38 2.29C36.5.56 34.76-.18 32.76.05c-.92.07-1.8.22-2.65.46-.84.34-1.63.83-2.34 1.48Zm18.88 10.28c.34-.2.76-.31 1.27-.31.92 0 1.58.39 1.98 1.17.23.44.43.94.56 1.48.38 1.46.44 2.98.2 4.58l-.41 2.75c-.51 3.56-1.14 7.1-1.88 10.63a249.2 249.2 0 0 1-1.98 8.6c-.27 1.25-.56 2.52-.86 3.82a31.7 31.7 0 0 0-3.05-1.42 35.98 35.98 0 0 0-3.51-1.07c0-.1.02-.18.05-.25l2.8-18.62c.51-2.37 1.14-4.7 1.88-6.97.27-.84.56-1.63.87-2.34a3.73 3.73 0 0 1 2.09-2.04ZM35.8 8.7a172.96 172.96 0 0 1 .2 16.99c-.13 4.24-.36 8.47-.66 12.67-.07.78-.12 1.56-.15 2.34l-.1 1.07a40.16 40.16 0 0 0-6.82-.25l-.1-5.85c0-3.15.03-6.31.1-9.46.07-3.73.22-7.48.46-11.24.13-2.21.38-4.43.71-6.67l.41-1.07c.13-.31.31-.63.51-.97.2-.27.39-.49.56-.66.23-.17.49-.28.76-.36l.81-.1c.38 0 .76.02 1.17.05.64.07 1.14.39 1.48.97.34.54.56 1.39.66 2.54Zm-20.25-.2a1.92 1.92 0 0 1 1.73.15 5.15 5.15 0 0 1 1.98 2.59c.27.74.48 1.51.61 2.29.31 1.22.58 2.51.81 3.87.13 1.29.31 2.62.51 3.97.31 2.34.54 4.7.71 7.07a413.4 413.4 0 0 1 .86 13.74c-1.66.38-2.9.94-3.71 1.68-.07.1-.17.2-.31.31 10.04.64 18.52 1.91 25.44 3.82-.1.58-.15 1.32-.15 2.24-.1 2.85.48 4.83 1.73 5.95.74.64 1.6 1.14 2.54 1.48 1.15.38 2.27.54 3.36.51-2.17 4.81-6.11 7.86-11.8 9.11.27 4.1 1.07 10.76 2.39 19.94L22.61 86.2l2.8-20.56h-4.27c-1.76-.1-3.68-.43-5.75-.97a34.45 34.45 0 0 1-3.66-1.12A7.37 7.37 0 0 1 6.59 58l-.1-.56c-.44-4.17 2.32-6.41 8.29-6.72 5.93-.34 9.84 1 11.7 4.02.07.23.1.48.1.71a2 2 0 0 1-.36 1.32c-.27.44-.63.74-1.07.92-.23.2-.51.38-.81.51l-1.68.31a43.1 43.1 0 0 1-5.6-.76c-1.02-.1-1.71.17-2.09.81a2.2 2.2 0 0 0 1.32 1.73c1.32.54 2.78.94 4.38 1.17.68.07 1.35.15 2.04.25 1.66.1 3.23-.22 4.68-.97.2-.1.39-.22.56-.36.51.34 1.19.73 2.04 1.17.89.64 1.71 1.58 2.49 2.8a7.74 7.74 0 0 1 .92 4.63c-.17 1.83-.27 3.08-.31 3.77.31 0 .64-.08 1.02-.25.2-.13.54-.56 1.02-1.27a11.5 11.5 0 0 0 1.42-3.61l-.05-1.22a8.37 8.37 0 0 0-3.15-6.26 37.46 37.46 0 0 0-3.36-2.44 7.36 7.36 0 0 0 .86-4.58c-.31-2.68-2.75-4.78-7.33-6.31a22.52 22.52 0 0 0-7.22-1.22l-3.21-23.71c0-.2-.1-1.68-.31-4.43-.27-2.78-.2-4.71.2-5.8A6.99 6.99 0 0 1 14 9.46a3.6 3.6 0 0 1 1.53-.97Zm38.16 27.98c.38-.07.66-.17.87-.31.81.1 1.56.36 2.24.76 1.25.78 2 1.9 2.24 3.36.17 1.09.05 2.46-.36 4.12a19.22 19.22 0 0 1-2.95 6.61l-1.37 1.53a5.87 5.87 0 0 1-2.24 1.58c-1.19.38-2.22.05-3.1-.97a4.97 4.97 0 0 1-.71-1.17 12.67 12.67 0 0 1-.15-3 98.86 98.86 0 0 1 2.59-9.16l.1-.25c.78-1.73 1.73-2.77 2.85-3.1Z" style="fill:#010101;stroke-width:0"/>
</svg>