<?xml version="1.0" encoding="UTF-8"?>
<svg xmlns="http://www.w3.org/2000/svg" version="1.1" viewBox="0 0 365.8 184.8">
  <defs>
    <style>
      .cls-1 {
        fill: #feca35;
      }
    </style>
  </defs>
  <!-- Generator: Adobe Illustrator 28.6.0, SVG Export Plug-In . SVG Version: 1.2.0 Build 709)  -->
  <g>
    <g id="Layer_1">
      <path class="cls-1" d="M4,176c-.8-.6-.8-1.3-.3-2l5.6-8.2c.5-.8,1.2-.9,2-.4,3.3,2.2,6.8,2.8,10.2,2.1,3.3-.7,3.9-2.1,3.7-3.2s-.5-2.5-7.9-3c-5.5-.4-14.6-2.3-16.8-12.2-1.5-7,.9-15.1,13-17.8,6.8-1.5,13.3,0,18.4,2.7.8.5,1,1.1.5,2l-4.8,8.6c-.4.8-1.1,1-1.9.6-2.3-1.1-5.6-2.2-8.8-1.5s-2.6,1.5-2.3,2.8,2.2,1.4,7.2,2.1c9.7,1.3,15.7,4.3,17.4,12.2,2,9.1-3.4,16.9-14.5,19.3s-14.5.2-20.6-4.2Z"/>
      <path class="cls-1" d="M40.3,146.8c0-13.9,10.9-25,25.2-25s11,1.8,15.2,4.9c.8.6.8,1.3.3,2l-6.6,8.6c-.6.7-1.2.8-2,.3-1.9-1.2-4.3-2.2-6.8-2.2-5.7,0-10.8,5-10.8,11.4s5.2,11.5,10.8,11.5,4.4-.4,6.9-2.2c.8-.6,1.5-.4,2.1.3l6.4,8.7c.6.8.6,1.4-.1,1.9-4.2,3.2-9.5,5-15.3,5-14.3,0-25.2-11.3-25.2-25.2Z"/>
      <path class="cls-1" d="M85.6,178.3c-1,0-1.4-.6-1.3-1.6l4.2-45.3c0-.9.6-1.4,1.6-1.3l19.9,1.8c10.1.9,16.5,8.5,15.6,18.2s-3.7,10.1-7.9,12.4l7,17.6c.4,1,0,1.7-1.2,1.6l-12.9-1.2c-.8,0-1.3-.5-1.6-1.2l-5.2-14.4h-1c0,0-3.1-.4-3.1-.4l-1.2,13.4c0,.9-.6,1.4-1.6,1.3l-11.3-1ZM100.8,152.6l5.9.5c2.3.2,4.3-1.7,4.5-4.2s-1.7-4.4-3.6-4.6l-6-.6-.8,8.8Z"/>
      <path class="cls-1" d="M176.8,173.1c.5.9,0,1.7-1,1.7l-11.6.9c-.8,0-1.4-.3-1.7-1.1l-2.1-5.2-15.6,1.2-1.3,5.5c-.2.8-.7,1.3-1.5,1.3l-11.6.9c-1.1,0-1.6-.6-1.3-1.6l13.8-46.9c.2-.8.7-1.2,1.6-1.3l9.9-.8c.9,0,1.4.3,1.7,1l20.7,44.2ZM147.8,158.7l7.8-.6-4.1-10.3-.9-2.5-.4,2.6-2.4,10.8Z"/>
      <path class="cls-1" d="M193.3,168.6c-.2.8-.7,1.3-1.6,1.2l-11.4-1.1c-1,0-1.4-.7-1.2-1.6l10.5-44.7c.2-.9.8-1.3,1.7-1.2l13.2,1.3c.8,0,1.3.5,1.5,1.4l3.8,28,9.2-26.7c.3-.8.8-1.2,1.7-1.1l13.3,1.3c.9,0,1.4.6,1.4,1.5l1.5,45.9c0,1-.5,1.5-1.5,1.4l-11.4-1.1c-.9,0-1.4-.6-1.4-1.5l-.2-24.3-7.9,23.6c-.3.8-.8,1.2-1.7,1.1l-9.9-1c-.8,0-1.3-.5-1.5-1.4l-3.1-24.7-5.1,23.7Z"/>
      <path class="cls-1" d="M250,184.8c-1,.1-1.5-.3-1.6-1.2l-6.7-45c-.1-.9.3-1.5,1.2-1.6l18.6-2.8c10.1-1.5,17.6,2.7,18.8,10.8.6,3.8-1.1,8-3.7,9.6,4.5,1,8.1,5.4,8.8,10.4,1.3,8.6-4.4,15.2-14.8,16.8l-20.6,3.1ZM258.3,153.1l4.7-.7c2.6-.4,3.7-2,3.4-3.7s-1.9-2.5-3.9-2.2l-5,.7.9,5.9ZM261,171.2l6.6-1c2.5-.4,3.8-2.2,3.4-4.8s-2.3-3.6-5-3.2l-6.3.9,1.2,8Z"/>
      <path class="cls-1" d="M321.5,183.5c-.1.9-.7,1.3-1.7,1.2l-29.6-4.6c-1-.1-1.3-.7-1.2-1.7l7-44.9c.1-.9.7-1.4,1.7-1.2l11.2,1.8c1,.1,1.3.7,1.2,1.7l-5.1,32.9,17,2.7c.9.1,1.3.7,1.2,1.7l-1.7,10.6Z"/>
      <path class="cls-1" d="M364.7,170.3c.2.9-.2,1.5-1.1,1.7l-32.6,6.2c-.9.2-1.5-.2-1.7-1.1l-8.6-44.7c-.2-.9.2-1.5,1.1-1.7l32-6.2c.9-.2,1.5.2,1.7,1.1l1.9,9.7c.2.9-.2,1.5-1.2,1.7l-19.5,3.7,1,5.2,14.7-2.8c.9-.2,1.5.2,1.7,1.1l1.7,8.9c.2.9-.2,1.5-1.1,1.7l-14.7,2.8,1,5.4,20-3.8c.9-.2,1.5.2,1.7,1.1l1.9,9.7Z"/>
      <g>
        <path class="cls-1" d="M2.9,105.2c-.9-1-.7-2,.1-2.9l10.2-9.7c1-.9,2-.9,2.9,0,4,4,8.6,6,13.5,6s6.1-1.7,6.1-3.4,0-3.6-10-6.6c-7.5-2.3-19.5-7.7-19.5-22s5.9-20.7,23.5-20.7,18.4,4,24.7,9.4c1,.9,1,1.9.1,2.9l-9.3,10.5c-.9,1-1.9,1.1-2.9.2-2.8-2.3-7.1-4.7-11.7-4.7s-4.1,1.3-4.1,3.1,2.7,2.6,9.3,5.1c13.1,4.8,20.5,10.7,20.5,22.4s-9.9,22.4-26,22.4-20.2-4.2-27.3-12.1Z"/>
        <path class="cls-1" d="M59.6,89.5v-40.2c0-1.3.7-2.1,2-2.1h16.1c1.4,0,2.1.7,2.1,2.1v37.2c0,7.6,3.9,12.2,9.7,12.2s9.9-4.6,9.9-12.2v-37.2c0-1.3.7-2.1,2.1-2.1h16.1c1.3,0,2.1.7,2.1,2.1v40.2c0,16-11,28-30.1,28s-29.9-12-29.9-28Z"/>
        <path class="cls-1" d="M128.2,116.1c-1.4,0-2.1-.7-2.1-2.1V49.4c0-1.3.7-2.1,2.1-2.1h28.4c14.5,0,24.5,9.8,24.5,23.7s-3.9,14.7-9.6,18.6l12.2,24c.7,1.4,0,2.4-1.5,2.4h-18.4c-1.1,0-2-.5-2.4-1.5l-9.3-19.7h-5.8v19.2c0,1.3-.7,2.1-2.1,2.1h-16.1ZM146.3,77.7h8.4c3.3,0,5.9-2.9,5.9-6.6s-3-6-5.7-6h-8.6v12.6Z"/>
        <path class="cls-1" d="M221,114.4c-.4,1.1-1.2,1.7-2.3,1.7h-13.3c-1.2,0-2-.6-2.3-1.7l-24.5-64.7c-.5-1.4,0-2.3,1.6-2.3h17.4c1.2,0,2,.6,2.3,1.7l12,38.4h.2l12-38.4c.3-1.1,1.1-1.7,2.3-1.7h17.5c1.5,0,2.1.9,1.6,2.3l-24.4,64.7Z"/>
        <path class="cls-1" d="M299,114c0,1.3-.7,2.1-2.1,2.1h-47.1c-1.4,0-2.1-.7-2.1-2.1V49.4c0-1.3.7-2.1,2.1-2.1h46.4c1.3,0,2.1.7,2.1,2.1v14.1c0,1.3-.7,2-2.1,2h-28.2v7.6h21.3c1.3,0,2.1.7,2.1,2.1v12.9c0,1.4-.7,2.1-2.1,2.1h-21.3v7.9h29c1.3,0,2.1.7,2.1,2v14.1Z"/>
        <path class="cls-1" d="M342.8,114c0,1.3-.7,2.1-2,2.1h-16.1c-1.3,0-2.1-.7-2.1-2.1v-23.4l-22.7-40.9c-.7-1.4-.1-2.4,1.5-2.4h18.8c1.1,0,1.9.4,2.4,1.6l10.2,22.9,9.8-22.9c.4-1,1.3-1.6,2.4-1.6h19c1.6,0,2.2,1.1,1.4,2.4l-22.7,40.8v23.5Z"/>
      </g>
      <g>
        <path class="cls-1" d="M24.5,38.9c0,.7-.4,1.1-1.1,1.1h-2.8c-.7,0-1.1-.4-1.1-1.1V5.3h-11.4c-.7,0-1.1-.4-1.1-1.1V1.8c0-.7.4-1.1,1.1-1.1h27.9c.7,0,1.1.4,1.1,1.1v2.4c0,.7-.4,1.1-1.1,1.1h-11.4v33.6Z"/>
        <path class="cls-1" d="M46.4,38.9c0,.7-.4,1.1-1.1,1.1h-2.8c-.7,0-1.1-.4-1.1-1.1V1.8c0-.7.4-1.1,1.1-1.1h2.8c.7,0,1.1.4,1.1,1.1v15.2h22.6V1.8c0-.7.4-1.1,1.1-1.1h2.8c.7,0,1.1.4,1.1,1.1v37.1c0,.7-.4,1.1-1.1,1.1h-2.8c-.7,0-1.1-.4-1.1-1.1v-17.2h-22.6v17.2Z"/>
        <path class="cls-1" d="M110.4,38.9c0,.7-.4,1.1-1.1,1.1h-25.7c-.7,0-1.1-.4-1.1-1.1V1.8c0-.7.4-1.1,1.1-1.1h25.3c.7,0,1.1.4,1.1,1.1v2.5c0,.7-.4,1.1-1.1,1.1h-21.4v11.6h17.2c.7,0,1.1.4,1.1,1.1v2.5c0,.7-.4,1.1-1.1,1.1h-17.2v13.5h21.8c.7,0,1.1.4,1.1,1.1v2.5Z"/>
        <path class="cls-1" d="M126.1,37.6c-.5-.5-.6-1-.1-1.6l1.5-1.9c.4-.6,1-.6,1.6-.1,1.6,1.2,3.3,1.8,4.8,1.8,3.5,0,5.7-2.2,5.7-6.2V1.8c0-.7.4-1.1,1.1-1.1h2.8c.7,0,1.1.4,1.1,1.1v28.1c0,6.7-4.1,10.8-10.7,10.8s-5.3-1.2-7.7-3.1Z"/>
        <path class="cls-1" d="M182.1,38.7c.3.8,0,1.3-.9,1.3h-2.9c-.6,0-1.1-.3-1.3-.9l-3.1-8h-18.8l-3.1,8c-.2.6-.6.9-1.3.9h-2.9c-.8,0-1.2-.5-.9-1.3L162,1.5c.2-.6.7-.9,1.3-.9h2.7c.6,0,1.1.3,1.3.9l14.9,37.2ZM156.9,26.5h15.3l-7.4-19.1-.3-.8-.3.8-7.4,19.1Z"/>
        <path class="cls-1" d="M182.5,20.3c0-11.4,8.9-20.3,20.2-20.3s9.1,1.6,12.5,4.2c.6.4.6,1,.2,1.6l-1.6,2.1c-.4.6-1,.6-1.6.2-2.7-1.9-5.9-3.2-9.5-3.2-8.3,0-15.1,6.7-15.1,15.5s6.8,15.4,15.1,15.4,6.7-1.2,9.5-3.3c.6-.4,1.1-.3,1.6.2l1.6,2.1c.4.6.4,1.1,0,1.5-3.4,2.6-7.6,4.4-12.6,4.4-11.3,0-20.2-9-20.2-20.3Z"/>
        <path class="cls-1" d="M252.4,38.6c.6.7.2,1.4-.7,1.4h-3.5c-.6,0-1-.2-1.3-.7l-14.8-18.1-6.7,7.5v10.2c0,.7-.4,1.1-1.1,1.1h-2.8c-.7,0-1.1-.4-1.1-1.1V1.8c0-.7.4-1.1,1.1-1.1h2.8c.7,0,1.1.4,1.1,1.1v20L243.7,1.3c.4-.4.8-.6,1.4-.6h3.6c1,0,1.3.6.6,1.4l-14,15.6,17.1,20.9Z"/>
        <path class="cls-1" d="M258,40c-.7,0-1.1-.4-1.1-1.1V1.8c0-.7.4-1.1,1.1-1.1h13.9c6.9,0,11.3,4.1,11.3,10.2s-2.3,7.1-5.3,8.3c4.1,1,7.4,5,7.4,9.9,0,6.9-5.3,11-11.6,11h-15.6ZM261.8,17.2h9.8c3.6,0,6.6-2.5,6.6-6s-2.5-5.9-6.5-5.9h-9.9v11.9ZM261.8,35.4h11.4c4,0,6.9-2.9,6.9-6.8s-2.9-6.7-7.4-6.7h-10.9v13.5Z"/>
        <path class="cls-1" d="M288.7,20.3c0-11.4,8.9-20.3,20.2-20.3s20.3,8.9,20.3,20.3-8.9,20.3-20.3,20.3-20.2-9-20.2-20.3ZM324,20.3c0-8.8-6.8-15.5-15.1-15.5s-15.1,6.7-15.1,15.5,6.8,15.4,15.1,15.4,15.1-6.7,15.1-15.4Z"/>
        <path class="cls-1" d="M335,39.3c-.3.5-.8.7-1.4.7h-3.4c-.9,0-1.2-.6-.7-1.4l13.4-18.9-12.4-17.7c-.5-.8-.2-1.4.7-1.4h3.5c.6,0,1,.2,1.4.7l9.9,14.5,9.9-14.5c.3-.5.8-.7,1.4-.7h3.6c.9,0,1.2.6.7,1.4l-12.3,17.7,13.3,18.9c.5.8.2,1.4-.7,1.4h-3.5c-.6,0-1-.2-1.4-.7l-11-15.9-11,15.9Z"/>
      </g>
    </g>
  </g>
</svg>