<svg height="163" width="201" viewBox="0 0 201 163" xmlns="http://www.w3.org/2000/svg">
  <path d="M200.849 18.527q-.756 6.579-1.286 13.082-.605 6.579-.907 13.082-.378 6.579-.605 13.082-.151 6.579-.151 13.082 0 6.579.151 13.082.227 6.503.529 13.082.378 6.503.983 13.007.529 6.503 1.286 13.082 0 .907-.076 1.815t-.302 1.815q-.151.832-.378 1.664t-.605 1.664q-.302.756-.756 1.512-.378.756-.907 1.512-.454.756-1.059 1.437l-1.21 1.361q-.681.681-1.361 1.21-.681.605-1.437 1.134l-1.512.907q-.756.378-1.588.681-.756.378-1.588.605t-1.739.378q-.832.227-1.739.302t-1.815.076h-9.528q-.454 0-.907.076-.454 0-.907.076t-.832.227q-.454.151-.832.302l-.756.454q-.378.227-.681.454-.378.302-.681.605t-.605.681l-13.082 16.032q-.227.302-.529.529-.227.302-.529.454-.302.227-.605.378t-.605.227-.605.076q-.378.076-.681.076-.378-.076-.756-.076-.302-.076-.681-.227l-.756-.302-.605-.302q-.302-.227-.529-.454l-.454-.454q-.151-.227-.302-.529l-.302-.605q-.076-.378-.151-.681-.076-.378-.076-.756l-.454-8.772q0-.378-.076-.756l-.151-.756q-.151-.378-.227-.681-.151-.378-.302-.681t-.378-.681q-.151-.302-.378-.605l-.454-.605-.529-.529q-.302-.302-.605-.529l-.605-.454q-.378-.227-.681-.378t-.681-.302-.681-.227l-.756-.151-.756-.151h-.756l-53.313-1.815q-25.787.151-65.109 1.815-.907 0-1.815-.076t-1.815-.227l-1.664-.454q-.832-.227-1.664-.605-.756-.302-1.588-.756-.756-.378-1.437-.907-.756-.454-1.437-1.059-.681-.529-1.361-1.21t-1.21-1.361q-.605-.681-1.134-1.437l-.907-1.512-.756-1.512q-.302-.832-.529-1.664-.302-.832-.454-1.739-.151-.832-.227-1.739t-.076-1.815q.605-5.823 1.134-11.797.454-5.974.756-12.175.378-6.201.529-12.553t.151-12.856q0-6.579-.151-13.309-.151-6.655-.529-13.612-.302-6.881-.756-13.99-.529-7.033-1.134-14.292 0-.907.076-1.815t.227-1.815q.151-.832.454-1.664.227-.832.529-1.664l.756-1.512.907-1.512q.529-.756 1.059-1.437.605-.681 1.286-1.286.681-.681 1.361-1.286.681-.529 1.437-1.059.681-.454 1.437-.907.832-.378 1.588-.756l1.661-.604q.832-.227 1.664-.378.907-.151 1.815-.227.832-.076 1.815-.076 10.209.529 20.493.907 10.209.454 20.418.681 10.284.302 20.493.378 10.284.151 20.493.151t20.493-.151q10.209-.076 20.493-.378 10.209-.302 20.493-.681 10.209-.378 20.493-.907.907 0 1.815.076t1.739.227q.907.151 1.739.454.832.227 1.588.529.832.302 1.588.756.756.378 1.512.907.681.529 1.437 1.059.681.605 1.361 1.286t1.21 1.361q.605.681 1.059 1.361.529.756.907 1.512.454.756.756 1.512.378.832.605 1.664t.378 1.664q.151.907.302 1.739.076.907.076 1.891Z"/>
  <path d="M52.103 68.21h1.21q.832-.076 1.21-.076h2.798q.076-.076.227-.076h2.949q.076 0 .151.076h.151q.076 0 .151.076.076 0 .151.076l.076.076.151.151q0 .076.076.151t.076.151q.076.076.076.151.076.076.076.151t.076.151v.151q0 .076.076.151v.832q-.076.151-.076.227t-.076.151q0 .076-.076.227 0 .076-.076.151l-.076.076-.151.151q-.076.076-.151.076 0 .076-.151.076-.076.076-.151.076t-.151.076h-.227q-.076.076-.227.076h-.605q0-.076-.076-.076h-.53l-.076.076q-.076 0-.076.076-.076 0-.076.076-.076 0-.076.076-.076.076-.076.151-.076.076-.076.151v.151q0 .076-.076.151v.378q-.076.076-.076.227v.302q0 .076-.076.227v.151q-.076 1.966-.076 3.252v15.502q0 .151.076 1.588v1.664q.076.907.227 1.437v.151q.076.076.076.151t.076.151q0 .076.076.076 0 .076.076.076 0 .076.076.076t.076.076h.378q.227 0 .378-.076h.454q.151 0 .227.076h.227q.076.076.151.076.151 0 .227.076.076 0 .151.076l.076.076.151.151.076.076q.076.076.076.151.076.076.076.227.076.076.076.151v.227q.076.076.076.227v.605q-.076.076-.076.151v.151q-.076.076-.076.151t-.076.151q0 .076-.076.151 0 .076-.076.151t-.076.151q-.076.076-.151.076 0 .076-.076.151-.076 0-.151.076-.076 0-.151.076h-.151q-.076.076-.151.076h-2.949q-.151 0-.227-.076h-2.798q-.983-.076-2.42-.076h-2.495q-1.664.076-2.495.076H44.39q-.302 0-.529.076h-1.059q-.076 0-.151-.076H42.5q-.076-.076-.151-.076-.076-.076-.151-.076-.076-.076-.151-.076 0-.076-.076-.151l-.151-.151q-.076-.076-.076-.151-.076-.076-.076-.151-.076-.076-.076-.151-.076-.076-.076-.151v-.151q-.076-.076-.076-.151v-.681q0-.076.076-.151v-.151q.076-.076.076-.151t.076-.151q0-.076.076-.151t.076-.151l.151-.151q0-.076.076-.151.076 0 .151-.076t.151-.076q.076-.076.151-.076t.151-.076h.983q.076.076.151.076h.227q.151 0 .302-.076h.151q.151 0 .227-.076.076 0 .151-.076.151 0 .151-.076.076 0 .151-.076t.151-.076q.076-.076.076-.151.076-.076.076-.151.076-.076.076-.151t.076-.227v-.227q.076-.076.076-.227v-.832q0-.076.076-.151V75.093q0-.756-.076-1.286v-.529q0-.076-.076-.227v-.227q-.076-.076-.076-.151t-.076-.151q0-.151-.076-.227-.076 0-.076-.076-.076-.076-.076-.151-.076 0-.151-.076l-.076-.076q-.076-.076-.151-.076-.076-.076-.151-.076h-.076q-.076-.076-.151-.076h-6.881q-.076 0-.151.076h-.076q-.076 0-.151.076-.076 0-.151.076l-.076.076q-.076 0-.076.076l-.151.151q-.076.076-.076.151-.076.076-.076.151-.076.076-.076.151-.076.076-.076.151v.227q-.076.151-.076.227v.831q-.076.076-.076.151V95.66q.076.076.076.151v.681q0 .151.076.227v.227q.076.151.076.227t.076.151q0 .076.076.151 0 .076.076.151t.151.076q0 .076.076.076.076.076.151.076.151.076.227.076.076.076.151.076h.227q.151.076.302.076h.227q.076 0 .151-.076h.983q.076.076.151.076t.151.076q.076 0 .151.076 0 .076.076.076l.151.151q.076.076.076.151.076.076.076.151l.151.151q0 .076.076.151 0 .076.076.151v.151q.076.076.076.151v.681q0 .076-.076.151v.151q-.076.076-.076.151-.076.076-.076.151-.076.076-.076.151l-.151.151q-.076.076-.076.151-.076.076-.151.076l-.151.151-.076.076q-.076 0-.151.076h-.151q-.151.076-.227.076h-.151q-1.512-.076-4.084-.076-2.042-.076-4.991-.076h-1.208q-.832.076-1.21.076h-2.798q-.076 0-.227.076h-2.949q-.076 0-.151-.076h-.151q-.076-.076-.151-.076-.076-.076-.151-.076l-.076-.076-.151-.151q-.076-.076-.076-.151-.076-.076-.076-.151-.076-.076-.076-.151-.076-.076-.076-.151t-.076-.151v-.151q-.076-.076-.076-.151v-.832q.076-.151.076-.227t.076-.151q0-.151.076-.227 0-.076.076-.151 0-.076.076-.076.076-.076.076-.151.076-.076.151-.076.076-.076.151-.076.076-.076.151-.076t.227-.076h.151q.151-.076.227-.076h.605l.076.076h.529l.076-.076q.076 0 .076-.076.076 0 .151-.076l.076-.076v-.151q.076-.076.076-.151.076-.076.076-.151.151-.832.227-1.437V77.133q.076-1.361 0-3.252-.151-.907-.227-1.437 0-.076-.076-.151v-.151q-.076-.076-.076-.151l-.076-.076q-.076-.076-.151-.076 0-.076-.076-.076 0-.076-.076-.076h-.529q-.076 0-.076.076h-.605q-.151 0-.227-.076h-.151q-.151-.076-.227-.076t-.151-.076q-.076 0-.151-.076t-.151-.076q-.076-.076-.076-.151-.076 0-.151-.076 0-.076-.076-.151v-.227q-.076-.076-.076-.151 0-.151-.076-.227v-.829q0-.076.076-.151v-.151q0-.076.076-.151 0-.076.076-.151 0-.076.076-.151 0-.076.076-.151t.076-.151l.151-.151.076-.076q.076-.076.151-.076t.151-.076h.076q.076-.076.227-.076h3.176q.151.076.302.076h2.495q.983.076 2.42.076z" fill="#fcbb51"/>
  <path d="M69.949 68.21h2.647q.227-.076.378-.076 1.815-.076 3.1-.076h.454q.151 0 .302.076h.227q.076 0 .151.076.076 0 .227.076.076.076.151.076.076.076.076.151l.151.151q.076.076.076.151.076.076.076.151.076.076.076.151.076.151.076.227.076.076.076.227v.151q.076.151.076.227v1.135q-.076.227-.076.378v.454q0 .227-.076.378v.454q0 .227-.076.454 0 .227-.076.454 0 .227-.076.454v.378q0 .227-.076.454v.983q-.076.227-.076.529v1.286l.076.076v.227q.076 0 .076.076t.076.076v.076l.076.076.076.076h.076l.076.076h.076q.076 0 .076.076h.378l.076-.076h.076q.076 0 .076-.076h.076l.076-.076.076-.076q0-.076.076-.076 0-.076.076-.076v-.151l.076-.076q0-.076.076-.151v-.302q.076 0 .076-.151.076-.756.227-1.437.076-.681.227-1.286t.302-1.134q.151-.605.378-1.059.151-.529.378-.983t.454-.832q.302-.378.529-.681l.605-.605.605-.454q.378-.227.681-.454.378-.151.832-.378.378-.151.832-.227.378-.151.907-.302.454-.076.983-.151.454-.076 1.059-.076h1.059q.681 0 1.361.076.681 0 1.286.151.605.076 1.21.302.529.151 1.059.378t.983.529q.529.302.907.681.454.378.832.756.378.454.681.907t.605 1.059q.302.529.529 1.21t.454 1.437.378 1.588.302 1.815q.151.907.227 1.966t.076 2.193q.076 1.134.076 2.344 0 1.059-.076 2.042 0 .983-.151 1.891-.076.907-.227 1.815-.151.832-.378 1.664-.151.832-.454 1.512-.227.756-.529 1.437t-.681 1.286q-.302.681-.756 1.21-.378.529-.832 1.059l-1.059.907q-.529.378-1.134.756t-1.286.605q-.681.302-1.437.529t-1.588.302q-.832.151-1.664.227-.907.076-1.891.076h-1.361q-.227-.076-.454-.076h-.378q-.151-.076-.302-.076t-.302-.076h-.302q-.151-.076-.227-.076-.151 0-.302-.076-.076 0-.227-.076h-.227q-.076 0-.227-.076h-1.059q-.076 0-.151.076h-.151q-.076.076-.151.076l-.151.151q-.076 0-.151.076t-.151.076q-.076.076-.076.151l-.151.151q0 .076-.076.151v.227q-.076.076-.076.227t-.076.227v.907q0 .227.076.378v.378l.151.302q0 .151.076.302l.151.302.151.302q.076.151.151.227.076.151.227.227.076.151.227.227l.302.151.302.151.302.151q.227 0 .454.076.151 0 .378.076h.529q1.134 0 2.042-.076 1.059-.151 1.664-.151h.302l.076.076h.151l.076.076q.076.076.151.076 0 .076.076.076 0 .076.076.076 0 .076.076.076 0 .076.076.151v.076q.076.076.076.151v.076q.076.076.076.151v.605q0 .076-.076.151v.151l-.076.076q0 .076-.076.151 0 .076-.076.076 0 .076-.076.076l-.076.076-.076.076q-.076 0-.151.076h-.076l-.076.076h-.302q-2.344 0-7.033-.151-4.915-.076-7.26-.076-2.042 0-2.722.076-1.286 0-3.1.076h-1.361q-1.059.076-1.286.076h-1.966l-.076-.076q-.076 0-.151-.076h-.081q0-.076-.076-.076-.076-.076-.076-.151l-.076-.076-.076-.076q-.076-.076-.076-.151-.076 0-.076-.076v-.151q-.076-.076-.076-.151v-.605l.076-.076v-.151q0-.076.076-.076 0-.076.076-.151l.076-.076.076-.076q.076 0 .076-.076.076 0 .076-.076h.151q0-.076.076-.076h.076q.076-.076.151-.076h.454l.983.151h.681q.151 0 .302-.076.151 0 .227-.076.151 0 .302-.076.076 0 .151-.076.151-.076.227-.151.076 0 .151-.076t.151-.227q.076-.076.076-.151.076-.151.076-.227.076-.076.151-.227v-.227q.076-.151.076-.227.076-.151.076-.302v-.302q0-.151.076-.302 0-1.512.076-6.125.076-3.252.076-7.26v-8.923q0-4.537-.151-8.545v-.907q-.076-.151-.076-.378v-.302q0-.151-.076-.302v-.227q-.076-.151-.076-.227t-.076-.151q0-.076-.076-.151 0-.076-.076-.076l-.076-.076q-.076-.076-.151-.076-.076-.076-.151-.076-.076-.076-.151-.076h-1.361q0 .076-.076.076h-.151q-.151 0-.227-.076h-.151q-.076 0-.076-.076-.076 0-.151-.076h-.076q-.076-.076-.076-.151-.076 0-.076-.076t-.076-.076v-.151l-.076-.076v-.227q-.076 0-.076-.076v-.454q0-.076.076-.151v-.227q.076 0 .076-.076v-.076q.076-.076.076-.151t.076-.076q0-.076.076-.076 0-.076.076-.076t.151-.076h.076q.076 0 .151-.076h1.664q.227 0 .378.076h1.059q1.286.076 3.025.076m10.058 21.174v2.495q.076.605.076 1.059.076.529.076.983.076.454.151.832.076.454.151.756.076.378.151.605.076.302.227.529.076.227.227.454.076.151.227.302.151.227.302.302.151.151.378.302.151.076.378.151.151.076.378.151t.454.076q.227.076.454.076t.454-.076q.151 0 .378-.076t.378-.227q.151-.076.378-.227l.302-.302q.151-.151.302-.378l.302-.454q.076-.302.227-.605t.227-.605q.076-.378.227-.756.076-.378.151-.907.076-.454.076-.983l.151-1.059q0-.605.076-1.286V89.15q.076-.681.076-1.437-.076-4.008-.227-6.201 0-.302-.076-.605v-.605q-.076-.227-.076-.529-.076-.227-.076-.454-.076-.227-.076-.454-.076-.227-.076-.454-.076-.227-.076-.454l-.151-.302q-.076-.151-.076-.378l-.151-.302q0-.151-.076-.302t-.151-.227q0-.151-.076-.227-.076-.151-.151-.227l-.151-.151-.151-.151-.151-.151q-.076 0-.151-.076t-.227-.076q-.076-.076-.151-.076-.076-.076-.227-.076-.076 0-.151-.076h-.681q-.076 0-.227.076h-.227q-.076.076-.151.076-.151.076-.227.076-.151.076-.227.151l-.151.151q-.151.076-.227.151t-.227.151q-.076.151-.151.227-.076.151-.151.227l-.151.302q-.151.151-.227.302l-.151.302q0 .227-.076.378-.076.227-.151.378l-.151.454q-.076.227-.076.454-.076.227-.151.529-.076.227-.076.529-.076.227-.151.529 0 .302-.076.605 0 .302-.076.681 0 .302-.076.605-.227 2.874-.227 6.881m41.667-21.93h1.134q.529 0 .983.076h.983q.529.076.983.151.454 0 .907.076.378.076.832.151l.756.151.756.151q.378.076.681.227.302.076.605.227l.605.302q.302.076.605.227l.454.302q.302.151.529.302.227.227.454.378t.378.378q.227.151.378.378.151.151.302.378.227.227.302.454.151.151.302.378t.227.454q.151.227.227.529l.151.454q.151.302.151.529.076.227.151.529t.076.529l.151.605q0 .227.076.529v.605q.076.302.076.605v4.84q-.076 1.891-.076 3.403-.076 1.286-.151 2.798v2.571q.076.151.076.302v.302q.076.151.076.227 0 .151.076.227 0 .151.076.227 0 .151.076.227t.076.151l.151.151.151.151q.076.076.151.076.076.076.151.076.076.076.151.076.151 0 .227.076h.454q.076 0 .227-.076.076 0 .151-.076.076 0 .227-.076.076 0 .151-.076l.151-.151.076-.076q.076-.076.151-.227.076-.076.076-.151.076-.151.076-.227.076-.076.076-.227 0-.076.076-.151v-.227q0-.151.076-.302v-1.059q-.076-.151-.076-.302v-.227q-.076-.227-.076-.378-.076-.151-.076-.302-.076-.151-.076-.378l-.151-.302q-.076-.227-.076-.378-.076-.151-.076-.378-.076-.151-.076-.302-.076-.151-.076-.302t-.076-.302v-1.134q0-.076.076-.151v-.076q0-.076.076-.151 0-.076.076-.151l.076-.076q0-.076.076-.076 0-.076.076-.076l.076-.076q.076-.076.151-.076h.076q.076-.076.151-.076h.529q.151 0 .227.076.076 0 .151.076.151.076.227.151l.151.151q.076.076.076.227.076.076.151.227 0 .076.076.227.302 1.21.302 4.537v1.664q-.076.756-.076 1.437-.076.756-.151 1.437-.076.605-.227 1.21-.076.605-.227 1.134-.076.529-.302.983-.151.454-.302.832-.227.378-.378.681l-.454.605q-.302.302-.605.529-.302.302-.681.454-.378.227-.756.378-.378.227-.832.302-.529.151-.983.227l-1.059.151h-2.269q-.227-.076-.454-.076-.302-.076-.529-.076-.227-.076-.454-.076-.151-.076-.378-.151t-.378-.076q-.227-.076-.378-.151l-.302-.151q-.227-.151-.378-.227t-.302-.227q-.151-.076-.227-.151-.151-.151-.302-.227-.076-.151-.227-.227-.076-.151-.227-.302l-.227-.227-.151-.302q-.076-.076-.151-.227l-.151-.302-.151-.302-.151-.302q0-.151-.076-.378-.076-.151-.076-.302-.076-.151-.076-.378-.076-.151-.076-.378-.076-.151-.076-.302 0-.227-.076-.378 0-.151-.076-.378v-.378q-.076-.151-.076-.378-.076-.151-.076-.378 0-.151-.076-.378v-.302q0-.076-.076-.076v-.151q0-.076-.076-.076v-.143l-.076-.076q0-.076-.076-.076l-.076-.076-.151-.151h-.076q-.076-.076-.151-.076h-.454q0 .076-.076.076h-.076q0 .076-.076.076 0 .076-.076.076v.076q0 .076-.076.076v.075q-.076.076-.076.151l-.076.076v.227q-.076.076-.076.151v.529q-.076.151-.076.378 0 .151-.076.302 0 .227-.076.378 0 .151-.076.378l-.151.302q0 .227-.076.378t-.151.378q-.076.151-.151.378-.151.151-.227.302t-.227.302q-.076.151-.227.378-.151.151-.227.302l-.302.302-.302.302q-.151.076-.302.227l-.302.302q-.151.076-.378.227-.151.151-.378.227-.151.151-.378.227-.151.151-.378.227-.227.151-.454.227t-.454.227l-.454.151q-.227.076-.529.151-.227.076-.529.151t-.529.076l-.605.151q-.302 0-.605.076h-.605q-.302.076-.681.076h-.605q-.605 0-1.21-.076-.605 0-1.134-.076t-1.059-.227q-.454-.076-.907-.227t-.832-.378q-.454-.151-.756-.378-.378-.227-.681-.454-.378-.302-.605-.605-.302-.302-.529-.605t-.454-.681q-.151-.378-.302-.681-.227-.378-.302-.756-.151-.378-.302-.832-.076-.378-.151-.832-.076-.378-.076-.832-.076-.454-.076-.983v-.605q.076-.302.076-.605t.076-.529q.076-.302.076-.529.076-.302.151-.529l.151-.454q.076-.227.227-.454.076-.227.227-.454.076-.227.227-.378.151-.227.227-.454l.302-.302q.151-.227.302-.378l.302-.302q.227-.151.378-.302t.378-.302q.151-.151.378-.302t.378-.227q.227-.151.454-.227.227-.151.454-.227l.454-.151q.227-.151.454-.227t.529-.151l.454-.151q.302-.076.529-.151t.529-.151q.227 0 .529-.076t.529-.151q.302 0 .605-.076.227-.076.529-.076.302-.076.529-.076.302-.076.605-.076.302-.076.605-.076.378-.076.681-.076.378-.076.681-.076l.605-.151q.302 0 .605-.076l.605-.151q.227 0 .529-.076l.454-.151.454-.151.454-.151q.151-.076.378-.151t.378-.151.378-.151q.151-.076.302-.227l.302-.151.227-.227.227-.227.227-.227q.076-.151.227-.302.076-.076.151-.227l.151-.302.151-.302.151-.302q0-.151.076-.302 0-.227.076-.378 0-.151.076-.378 0-.151.076-.378v-.378q0-.151.076-.378v-1.361q.076-.227.076-.454 0-.454-.076-.907 0-.454-.076-.832l-.151-.756q-.076-.302-.227-.605-.151-.378-.302-.605-.151-.302-.302-.529-.227-.302-.378-.454-.227-.227-.529-.378-.227-.151-.529-.302-.227-.151-.529-.302t-.605-.227q-.378-.151-.681-.227l-.756-.151q-.378-.076-.756-.076-.378-.076-.832-.076h-1.512q-.076 0-.227.076h-.227q-.076 0-.151.076-.151 0-.227.076-.076 0-.076.076-.076 0-.151.076l-.076.076-.076.076q0 .076-.076.151v.076l-.076.076v.151q-.076.076-.076.151v.227l.076.076v.076l.076.076q0 .076.076.076v.151q.076 0 .076.076l.076.076q.076 0 .151.076l.076.076h.076q.076.076.151.076h.151q.076.076.151.076h.151q.227.076.454.076l.454.151q.227.076.378.151.227.076.378.151.227.151.378.227.151.151.302.227l.302.302q.151.151.227.302.151.151.227.302.151.151.227.378.076.151.151.378.076.151.151.378t.076.378q.076.227.076.454.076.227.076.454v1.286l-.151.605q-.076.378-.151.681t-.227.529q-.151.302-.302.529-.151.302-.378.454-.151.227-.454.454-.227.227-.454.378-.302.151-.529.302l-.605.302q-.302.151-.605.227-.378.151-.681.227-.378.076-.681.151-.378.076-.756.076-.378.076-.756.076h-1.664q-.378 0-.756-.076-.302-.076-.681-.076-.378-.076-.681-.227l-.605-.151-.605-.302q-.302-.076-.605-.302l-.454-.302q-.227-.151-.454-.378t-.378-.529q-.227-.227-.378-.529-.151-.227-.227-.529-.151-.302-.227-.681-.151-.302-.151-.681l-.151-.756v-.832q0-.454.076-.983l.151-.907q.151-.454.302-.832.227-.454.454-.832.227-.454.529-.832.378-.378.681-.756.378-.378.832-.756.454-.302.907-.681l1.059-.605q.605-.302 1.21-.529.681-.302 1.437-.454.681-.227 1.512-.378.756-.151 1.664-.302t1.815-.227q.983-.076 2.042-.151zm1.134 17.62h-.605q-.302.076-.605.076l-.605.151-.605.151q-.227.076-.529.227-.302.076-.605.227-.227.151-.529.302-.227.151-.529.302-.227.151-.454.378-.227.151-.454.378t-.378.454l-.302.454q-.076.227-.227.454-.076.227-.151.529-.076.227-.076.529v.983q0 .151.076.378v.302l.151.302q0 .151.076.302t.227.227q.076.151.151.227.151.076.227.227.151.076.227.151.151.076.302.076.076.076.227.151.151 0 .302.076t.227.076q.151 0 .302.076h1.134q.227-.076.454-.076.302-.076.529-.151l.454-.151.454-.302q.227-.076.378-.227.227-.151.454-.378l.378-.378q.151-.227.378-.454l.302-.454q.076-.227.227-.454.151-.302.227-.529l.151-.605q.076-.227.151-.529 0-.302.076-.681v-1.134q-.076-.076-.076-.227v-.151q-.076-.151-.076-.227t-.076-.151q0-.076-.076-.151 0-.076-.076-.151 0-.076-.076-.151l-.076-.076-.151-.151q-.076 0-.151-.076-.076 0-.151-.076h-.151q-.151 0-.227-.076zm35.92 16.485v.076h-1.286q-.076-.076-.151-.076h-6.125q-.832.076-1.21.076h-2.796q-.076 0-.227.076h-2.949q-.076 0-.151-.076h-.152q-.076-.076-.151-.076-.076-.076-.151-.076l-.076-.076-.151-.151q0-.076-.076-.151t-.076-.151q-.076-.076-.076-.151-.076-.076-.076-.151t-.076-.151v-.151q0-.076-.076-.151v-.832q.076-.151.076-.227t.076-.151q0-.151.076-.227 0-.076.076-.151 0-.076.076-.076l.151-.151q.076-.076.151-.076 0-.076.076-.076.076-.076.151-.076.151 0 .227-.076h.151q.151-.076.227-.076h.605l.076.076h.529l.076-.076q.076 0 .151-.076l.076-.076.076-.076q0-.076.076-.151v-.151q.076-.076.076-.151v-.151q.076-.151.076-.227v-.14q0-.076.076-.227v-.302q0-.076.076-.227v-.151q.076-2.193.076-3.252V77.133q0-.378-.076-1.588V73.73q0-.151-.076-.227v-.302q-.076-.151-.076-.227v-.151q0-.076-.076-.227v-.151q0-.076-.076-.151v-.151q-.076-.076-.076-.151l-.076-.076-.076-.076q-.076-.076-.151-.076 0-.076-.076-.076h-.529l-.076.076h-.605q-.076 0-.227-.076h-.151q-.076-.076-.227-.076-.076 0-.151-.076-.076 0-.151-.076l-.076-.076-.151-.151-.076-.076q-.076-.076-.076-.151-.076-.076-.076-.227-.076-.076-.076-.151 0-.151-.076-.227v-.83q0-.076.076-.151v-.151q.076-.076.076-.151t.076-.151q0-.076.076-.151 0-.076.076-.151t.076-.151l.151-.151.076-.076q.076-.076.151-.076t.151-.076h.151q.076-.076.151-.076h3.176q.151.076.302.076h2.495q.983.076 2.42.076h2.495q1.891-.076 2.42-.076h1.512q0-.076.076-.076h4.991q.151 0 .302-.076h.227q1.286-.076 1.891-.076h2.495q.302.076.529.076h.529q.227 0 .529.076h.529q.227.076.529.076.227 0 .529.076.302 0 .529.076.227 0 .529.076.227.076.454.076.302.076.529.151l.454.151q.302.076.529.151l.454.151q.227.076.454.227.227.076.454.227.227.076.378.227.227.076.454.227.151.151.378.302.151.076.302.302.227.151.378.302l.302.302q.151.227.302.378.151.227.302.378.076.227.227.454l.151.454q.151.227.227.529.076.227.076.454l.151.605v.529q.076.302.076.681v.605q-.076.302-.076.605 0 .227-.076.529-.076.227-.151.529 0 .227-.076.454t-.227.454q-.076.227-.151.378-.151.227-.227.378-.151.151-.227.378l-.302.302-.302.302-.302.302-.302.302q-.151.076-.302.227-.151.076-.378.227-.151.076-.378.151-.151.076-.378.151-.227.151-.378.227l-.454.151q-.151.076-.378.076l-.454.151q-.227.076-.454.076-.227.076-.454.076-.302.076-.529.076t-.454.076q-.302 0-.529.076h-.529q-.227.076-.454.076h-.529q-.227.076-.454.076h-1.286q-.076 0-.151.076h-.227q0 .076-.076.076h-.076l-.076.076-.076.076-.076.076q-.076.076-.076.151v.076l-.076.076q0 .076.076.076v.151q.076 0 .151.076h.151l.076.076h.076q0 .076.076.076h.076q.076 0 .151.076h.832q.302 0 .605.076h1.059q.302.076.605.076.227 0 .529.076h.529q.302.076.529.076.302 0 .529.076.302 0 .529.076.302.076.529.076.302.076.529.151l.454.151.454.151q.302.076.454.151.227.151.454.227t.454.227q.151.076.378.227t.378.227q.227.151.378.302l.302.302q.227.151.378.378.151.151.302.378.151.151.227.378.151.227.227.378.151.227.227.454.151.302.227.529t.151.529q.076.227.151.529 0 .302.076.605v.681q.076.302.076.681v.756q-.076.378-.076.756l-.151.756-.151.605q-.076.378-.227.681-.076.302-.227.529-.151.302-.302.529-.151.302-.378.529-.151.227-.378.454t-.378.454q-.227.151-.454.378-.227.151-.454.378l-.454.302q-.302.151-.529.302t-.529.302q-.302.076-.529.227-.302.151-.605.227-.227.076-.529.227l-.605.151q-.302.076-.681.151l-.605.151q-.302 0-.605.076-.378.076-.681.076-.302.076-.681.076-.302 0-.681.076h-.681q-.302.076-.681.076h-.605q-.378 0-.681.076h-5.067l-3.479-.151zm0-20.569q0 .076.076.076 0 .076.076.151 0 .076.076.076 0 .076.076.076 0 .076.076.151v.076q.076 0 .076.076h.076q.076.076.151.076.151.076.227.151.151 0 .302.076.076 0 .227.076h.378q.151.076.302.076h1.588q.302 0 .605-.076t.605-.076q.302-.076.529-.151.302-.076.529-.227.227-.076.454-.227.151-.076.378-.227l.302-.302q.151-.151.302-.378.076-.151.227-.378.076-.227.151-.529.151-.227.227-.454.076-.302.076-.605.076-.302.076-.605.076-.302.076-.681V75.84q0-.302-.076-.605 0-.302-.076-.605 0-.227-.076-.529l-.151-.454-.151-.454q-.076-.151-.227-.378-.076-.151-.227-.302l-.302-.302q-.151-.151-.302-.227-.151-.151-.378-.227l-.454-.151q-.227-.076-.529-.151-.227-.076-.529-.076-.302-.076-.681-.076-.302-.076-.681-.076h-.454q-.151 0-.378.076-.151 0-.378.076h-.302l-.302.151q-.151 0-.227.076-.151.076-.227.151-.151.076-.227.151l-.151.151q-.076.076-.151.227-.076.076-.076.151l-.151.151q0 .076-.076.227 0 .076-.076.151v.302q-.151 1.21-.227 1.664zm0 10.436q.076.983.076 2.117 0 .302.076.983 0 .529.076.832 0 .227.076.378v.454q.076.151.076.302.076.227.151.378 0 .151.076.302t.076.227q.076.151.151.227.076.151.151.227v-.076l.151.151q.076.076.227.151.076.076.227.151t.302.076q.151.076.378.076.151.076.378.076h1.664q.378 0 .681-.076.302 0 .605-.076l.605-.151q.227-.076.454-.227.227-.076.454-.227.151-.151.378-.302l.302-.302q.151-.151.227-.378.151-.151.227-.378t.151-.529l.151-.454.151-.605q0-.302.076-.605 0-.302.076-.681v-1.512q0-.227-.076-.378v-.756q0-.227-.076-.378v-.378q0-.151-.076-.302 0-.151-.076-.378v-.302q-.076-.151-.076-.302l-.151-.302q0-.151-.076-.302t-.151-.227q0-.151-.076-.302-.076-.076-.151-.227t-.151-.227q-.076-.151-.227-.227-.076-.076-.151-.227-.151-.076-.227-.151l-.227-.227q-.151-.076-.227-.151l-.302-.151-.302-.151-.302-.151q-.151-.076-.302-.076l-.302-.151q-.227 0-.378-.076h-.378q-.227-.076-.378-.076h-1.815q-.151 0-.378.076h-.302q-.151 0-.302.076-.151 0-.227.076-.151 0-.227.076-.151.076-.227.076l-.151.151-.151.151q0 .076-.076.076 0 .076-.076.151l-.076.076zM46.431 46.356q-.076-.529-.151-1.664-.076-.907-.076-1.588 0-1.664.076-2.798t.076-2.647v-.681q0-.076-.076-.151v-.151q0-.076-.076-.076v-.151q0-.076-.076-.151-.076 0-.076-.076-.076-.076-.151-.076l-.076-.076q-.076 0-.227-.076h-.378q-.076-.076-.151-.076-3.705.151-5.974.227h-.756q-.378.076-.681.076h-1.512q-.302.076-.681.076h-4.46q-.302 0-.681-.076h-1.512q-.378 0-.756-.076h-1.512q-.378-.076-.756-.076h-.756q-.378 0-.756-.076h-2.195q-.378-.076-.756-.076h-.227q-.076 0-.151.076h-.227q-.076.076-.151.076t-.076.076q-.076 0-.151.076l-.076.076q-.076.076-.076.151t-.076.151v.076q-.076.076-.076.151v.151q0 .076-.076.151v.529q0 1.286.151 2.647.076 1.815.076 2.798t-.076 1.588q-.076.907-.151 1.664-.076.605-.151 1.437-.076.605-.076.907v.227q0 .076.076.151v.151q.076.076.076.151l.076.076v.076q0 .076.076.076l.076.076.076.076h.076q.076 0 .076.076h.907q.151-.076.302-.076.151-.076.227-.076l.302-.151q.076 0 .227-.076.076-.076.227-.151l.227-.227q.076-.076.227-.151.076-.151.151-.227t.151-.227l.227-.227q.076-.076.151-.227l.151-.302q.076-.076.151-.227 0-.151.076-.302l.151-.302q.076-.151.076-.302l.151-.302q.076-.227.076-.378l.151-.302q0-.227.076-.378t.076-.378q.076-.151.076-.378.302-1.21.605-3.025.076-.227.076-.454.076-.151.076-.378.076-.227.151-.378 0-.151.076-.302.076-.227.076-.378l.151-.302q0-.076.076-.227 0-.151.076-.227.076-.151.076-.227l.151-.151q.076-.151.151-.227t.151-.076l.151-.151q.076 0 .151-.076h.681l.076.076h.151l.076.076q.076 0 .076.076.076.076.151.076 0 .076.076.151 0 .076.076.076v.151q.076.076.076.151v.151q.076.076.076.151v.529q0 7.486-.076 12.099-.151 4.462-.454 6.352-.076.227-.076.529-.076.227-.076.378l-.151.454q0 .151-.076.302l-.151.302q0 .151-.076.227l-.151.151-.151.151q-.076.076-.151.076-.076.076-.076.151-.076 0-.151.076-.076 0-.151.076h-.227q-.076.076-.151.076h-.907q-.076 0-.151-.076h-.227q-.076 0-.151-.076h-.227l-.076-.076h-.832l-.076.076q-.076 0-.151.076-.076 0-.076.076l-.076.076-.076.076v.076l-.076.076v.151q0 .076-.076.151v.302l.076.076v.151q0 .076.076.151v.076l.076.076.076.076.076.076q.076 0 .076.076h.302q.076.076.151.076.302 0 1.588-.076h4.991q1.134-.076 2.571-.076.529 0 2.571.076h5.067q.907.076 1.664.076h.151l.076-.076h.227q0-.076.076-.076l.076-.076h.076v-.076q0-.076.076-.076v-.076q0-.076.076-.076v-.302q0-.076.076-.151v-.302q-.076 0-.076-.076v-.076q0-.076-.076-.076v-.076l-.076-.076-.076-.076-.076-.076q-.076-.076-.151-.076t-.076-.076h-.832q-.076.076-.151.076h-.227q-.076 0-.076.076h-.302l-.076.076h-.983q-.076 0-.151-.076h-.151q-.076-.076-.151-.076-.076-.076-.151-.076-.076-.076-.151-.076l-.151-.151-.151-.151q-.076-.076-.076-.151-.076-.151-.151-.227-.076-.151-.076-.302l-.151-.302q0-.227-.076-.454-.076-.151-.076-.378-.076-.227-.076-.529-.302-1.966-.454-6.352-.151-4.235-.151-12.099v-.378q0-.076.076-.151v-.151q0-.076.076-.151v-.151q.076-.076.076-.151t.076-.076q0-.076.076-.151l.076-.076q.076 0 .076-.076.076 0 .151-.076l.076-.076h.605q.151 0 .227.076h.151l.151.151q.076 0 .151.076t.076.151q.076.151.151.227t.151.227q.076.076.076.227.076.151.076.302.076.076.151.227 0 .151.076.378 0 .151.076.302 0 .151.076.378.076.151.076.378.076.227.076.454l.605 3.025q.076.227.076.378.076.227.076.378.076.151.151.378 0 .151.076.302t.151.378q0 .151.076.302l.151.302q.076.151.076.302l.151.302q.076.151.151.227l.151.302q.076.151.151.227.076.151.227.227.076.151.151.227.076.151.151.227.151.076.227.151t.227.151q.076.151.227.227.076.076.227.076.076.076.227.151.151 0 .302.076.076 0 .227.076h.907l.076-.076h.076l.076-.076.076-.076q.076 0 .076-.076t.076-.076v-.076q.076-.076.076-.151v-.076l.076-.076v-.378q0-.227-.076-.907 0-.378-.076-1.437m23.669 5.672h-.227q-.076.076-.151.076 0 .076-.076.076l-.076.076v.076q-.076 0-.076.076v.151q-.076 0-.076.076v.681q-.076.151-.076.227 0 .151-.076.227 0 .151-.076.227 0 .151-.076.227 0 .076-.076.227l-.151.151-.151.151q-.076.151-.151.227l-.151.151-.151.151-.151.151q-.151.076-.227.151t-.227.076l-.151.151q-.151.076-.227.076-.151.076-.227.151-.151 0-.227.076-.151.076-.302.076-.151.076-.227.076-.151.076-.302.076-.151.076-.302.076t-.302.076q-.151 0-.302.076h-.605q-.151.076-.302.076h-2.42q-.302-.076-.605-.076-.227 0-.454-.076t-.454-.076l-.454-.151q-.151-.076-.378-.151l-.302-.151q-.151-.076-.302-.227-.151-.076-.227-.227-.151-.076-.227-.227-.151-.076-.227-.227t-.076-.302q-.076-.076-.151-.227 0-.151-.076-.302v-.605q.076-.151.076-.227 0-.151.076-.227t.151-.227q0-.076.076-.151.151-.076.227-.151t.227-.076q.076-.076.227-.151t.227-.076q.151-.076.302-.076t.378-.076h.302q.227-.076.378-.076h.454q.227 0 .454-.076h2.344q.302-.076.529-.076.302 0 .605-.076h.454q.227-.076.529-.076.227-.076.378-.151.227-.076.454-.076.151-.076.378-.151.151 0 .378-.076l.302-.151q.227-.076.378-.151.151 0 .302-.076t.227-.151q.151-.151.302-.227t.227-.151l.227-.227.151-.151q.076-.076.151-.227l.151-.151q.076-.151.151-.227.076-.151.151-.227 0-.151.076-.302t.076-.227q0-.151.076-.227 0-.151.076-.302v-.227q0-.151.076-.302v-1.664q0-.151-.076-.378v-.378q-.076-.151-.076-.378-.076-.151-.076-.378-.076-.151-.151-.378 0-.151-.076-.302t-.151-.378l-.151-.302q-.076-.227-.151-.378t-.227-.302q-.076-.151-.227-.302-.076-.151-.227-.302t-.227-.302l-.302-.302q-.151-.151-.302-.227-.151-.151-.302-.227-.227-.151-.378-.227-.151-.151-.378-.227-.227-.151-.378-.227l-.454-.151q-.227-.151-.454-.227l-.454-.151q-.227-.076-.529-.151-.227-.076-.529-.151-.227 0-.529-.076t-.605-.076q-.302-.076-.605-.076-.378-.076-.681-.076h-2.722q-.302.076-.605.076t-.605.076q-.302 0-.529.076l-.605.151-.605.151q-.302 0-.529.151-.302.076-.529.151-.302.151-.529.227-.302.076-.529.227t-.454.227q-.302.151-.529.302l-.454.302q-.151.151-.378.302-.227.227-.454.378t-.378.378-.378.454l-.302.454-.302.454q-.151.227-.302.529-.151.227-.302.529t-.227.529l-.302.605q-.076.302-.227.605-.076.378-.151.681l-.151.756q-.076.302-.151.681 0 .378-.076.756t-.076.832v.832q-.076.378-.076.832v.832q.076.378.076.756t.076.756l.151.756q0 .378.076.681t.227.681l.151.605q.151.302.227.529.151.302.227.529.151.302.302.529.151.302.302.529l.302.454q.151.227.378.454.151.227.302.378l.378.378q.227.151.378.378l.454.302q.151.151.378.302l.454.302q.227.076.454.227.227.076.529.227l.454.151q.302.151.529.227t.529.151.529.151q.302 0 .529.076.302.076.605.076.227.076.529.076.302.076.529.076h.605q.302.076.529.076h.605q.756 0 1.361-.076.681 0 1.361-.076.605-.076 1.134-.227.605-.076 1.059-.227.529-.151.983-.378.454-.151.907-.378.378-.227.756-.529l.605-.605q.302-.302.605-.681.227-.302.454-.756.227-.378.454-.832l.302-.907.302-1.059q.076-.529.151-1.134t.151-1.286v-1.664q-.076 0-.076-.076t-.076-.151v-.076q-.076-.076-.151-.076l-.076-.076zm-12.477-2.269q-.076-.227-.076-.832-.076-.454-.076-1.21v-.907q0-.378.076-.832v-.756q.076-.378.076-.681l.151-.605q0-.302.076-.605t.151-.529l.151-.454q.076-.227.151-.378.151-.151.227-.302.151-.227.302-.302.076-.151.227-.227.151-.151.302-.227t.378-.076q.151-.076.378-.076.151-.076.378-.076h.302q.151 0 .227.076.151 0 .227.076.151 0 .227.076.151.076.227.151l.151.151q.151.076.227.151t.076.227q.076.076.151.227 0 .151.076.302.076.076.076.227.076.151.076.378.076.151.076.302 0 .227.076.378v1.815q-.076.227-.076.454v.454q-.076.227-.076.378-.076.227-.076.378-.076.227-.076.378l-.151.302q-.076.151-.076.302l-.151.302-.151.302q0 .076-.076.227-.076.076-.151.227-.076.076-.151.227l-.151.151q-.076.151-.151.227l-.151.151-.151.151-.151.151q-.076.076-.151.076l-.151.151q-.076 0-.151.076-.076 0-.151.076-.076 0-.151.076-.756.151-1.134.151h-.378q-.076 0-.076-.076h-.227q0-.076-.076-.076t-.076-.076h-.076l-.076-.076q0-.076-.076-.076v-.076q-.076-.076-.076-.151l-.086-.068zm40.986 1.966h-.151l-.076.076h-.151q-.076 0-.076.076h-.151q0 .076-.076.076t-.076.076q-.076 0-.151.076l-.076.076-.076.076q-.076.076-.076.151l-.076.076v.076q0 .076-.076.151v.529q.076.151.076.227v.151q.076.076.076.227.076.076.076.151 0 .151.076.227t.076.227q.076.076.076.151.076.151.076.227.076.076.076.227.076.076.076.227 0 .076.076.227v1.21q-.076.076-.076.151t-.076.151v.151l-.076.076-.076.076q-.076.076-.151.076 0 .076-.076.076-.076.076-.151.076 0 .076-.076.076l-.076.076h-.463q-.076-.076-.151-.076h-.076q0-.076-.076-.076t-.076-.076q-.076 0-.076-.076l-.076-.076q0-.076-.076-.151 0-.076-.076-.151v-.151q-.076-.076-.076-.227v-.454q-.076-.151-.076-.302v-1.059q.076-.529.076-.681v-1.815q0-.151-.076-.378 0-.151-.076-.378 0-.151-.076-.302-.076-.227-.151-.378l-.151-.302-.227-.227q-.076-.151-.227-.227l-.224-.227q-.151-.076-.302-.227l-.302-.151-.302-.151q-.227 0-.378-.076t-.378-.076-.378-.076h-.983q-.151.076-.302.076h-.302q-.076.076-.227.076t-.302.076q-.151 0-.302.076-.151 0-.302.076-.076 0-.227.076h-.227q-.076.076-.227.076h-.227q-.076.076-.151.076H87.95q-.076-.076-.151-.076l-.079-.078-.076-.076-.076-.076q0-.076-.076-.076v-.302q.076-.076.076-.151.076-.076.076-.151h.076v-.076h.076q0-.076.076-.076l.076-.076h.076l.076-.076h.076q.076-.076.151-.076.151-.076.227-.151.076 0 .227-.076.076 0 .151-.076t.227-.076q.076-.076.151-.076.151-.076.227-.076.151-.076.227-.076.681-.302 1.815-.681.983-.227 2.42-.756l.302-.151q.227 0 .378-.076l.302-.151.302-.151.302-.151.302-.151.302-.151.302-.151.302-.151q.076-.151.227-.227t.227-.227q.151-.076.227-.151l.227-.227.227-.227q.151-.151.227-.302.076-.076.151-.227t.151-.227q.151-.151.151-.302l.151-.302.151-.302q0-.151.076-.302 0-.151.076-.302v-1.059q0-.151-.076-.227v-.151q0-.076-.076-.151 0-.076-.076-.076 0-.076-.076-.076 0-.076-.076-.076l-.076-.076q-.076-.076-.151-.076-.076-.076-.151-.076l-.076-.076h-.151q-.076-.076-.151-.076h-1.361q-.378 0-1.512.076-.605.076-1.437.076h-2.571q-.529 0-1.361-.076h-.681q-.454-.076-.605-.076h-1.437q-.076.076-.151.076h-.076l-.076.076-.076.076-.076.076q-.076.076-.076.151l-.076.076-.076.076v.076l-.076.076v.227q-.076.076-.076.151v.454q.076.076.076.151v.076q.076.076.076.151t.076.076v.151q.076 0 .076.076l.076.076q.076 0 .076.076.076 0 .151.076h.076q.076 0 .076.076h.756q.076-.076.151-.076h.605q.076 0 .151.076h.151q.076 0 .151.076h.151q0 .076.076.076t.151.076q.076 0 .151.076.076 0 .076.076l.151.151.076.076v.151q.076.076.076.151v.681q0 .076-.076.151v.151q-.076.076-.076.151l-.151.151q0 .076-.076.151t-.151.227l-.151.151q-.076.076-.151.227l-.151.151-.151.151q-.151.076-.227.227l-.151.151q-.151.076-.227.151-.076.151-.227.227-.076.076-.227.151l-.151.151q-.151.076-.227.151t-.227.151l-.151.151q-.151.076-.227.151-.151.076-.227.151-.151.076-.227.151t-.227.076l-.151.151q-.151 0-.227.076-.076 0-.227.076h-.151q-.076.076-.151.076h-.681q-.076 0-.151-.076h-.076l-.076-.076h-.076q0-.076-.076-.076v-.076l-.076-.076v-.454q-.076-.151-.076-.227v-1.664q.076-.302.076-.454 0-.454.076-1.134v-.605q.076-.076.076-.151v-.227q.076-.076.076-.151v.076-.074l.076-.076.076-.076h.076q0-.076.076-.076h1.059q.076 0 .151-.076h.076q0-.076.076-.076t.076-.076q.076 0 .076-.076l.076-.076q0-.076.076-.151v-.076l.076-.076v-.151l.076-.076v-.681q0-.076-.076-.151v-.076q0-.076-.076-.076v-.076l-.076-.076q-.076-.076-.076-.151-.076 0-.076-.076-.076 0-.076-.076-.076 0-.151-.076l-.076-.076h-2.571q-.076.076-.151.076H76.45q-.454-.076-1.134-.076h-1.588q-.076 0-.151.076h-.076l-.076.076-.076.076-.076.076-.151.151-.076.076v.076l-.076.076v.076q0 .076-.076.151v.681q.076 0 .076.076v.076q.076.076.076.151t.076.076v.151q0 .076.076.076l.076.076.076.076q.076.076.151.076h.076l.076.076h1.134l.076.076q.076 0 .076.076.076 0 .076.076l.076.076v.076q.076.378.151 1.059v1.739q.076.983.076 1.134v.227l-.076 6.957-.076 5.218q0 .076-.076.605v.378l-.076.076v.151h-.076q0 .076-.076.076l-.076.076h-1.134q0 .076-.076.076H73.5q-.076.076-.151.076 0 .076-.076.076 0 .076-.076.151-.076 0-.076.076t-.076.076q0 .076-.076.076v.076q0 .076-.076.151v.302q-.076.076-.076.151v.227l.076.076v.151l.076.076v-.004q.076.076.076.151t.076.076q0 .076.076.076 0 .076.076.076 0 .076.076.076 0 .076.076.076l.076.076h.227q.076.076.151.076h1.361q.227 0 .605-.076h.529q.454-.076 1.134-.076h3.403l2.117.076h1.815q.076 0 .151.076h1.361q.076 0 .151-.076h.151q0-.076.076-.076t.076-.076q.076 0 .151-.076 0-.076.076-.076 0-.076.076-.151 0-.076.076-.076v-.076q.076-.076.076-.151v-.076q0-.076.076-.151v-.681q-.076-.076-.076-.151v-.076q0-.076-.076-.151v-.075q0-.076-.076-.076 0-.076-.076-.076l-.076-.076-.076-.076q-.076-.076-.151-.076t-.076-.076h-.681q-.076 0-.302.076h-.302q-.076 0-.151.076h-.454l-.076.076h-.151q-.076 0-.151-.076h-.076q-.076 0-.076-.076h-.076l-.076-.076q0-.076-.076-.076v-.151q-.076 0-.076-.302-.076-.302-.076-.832-.076-.454-.076-1.361v-2.495q0-.076-.076-.227v-2.722l.076-.076v-.227q.076 0 .076-.076t.076-.076q0-.076.076-.151l.076-.076q0-.076.076-.076l.076-.076q.076 0 .151-.076h.076q.076 0 .151-.076h1.134q.076 0 .227.076h.232q.151.076.227.076.151 0 .227.076.151.076.227.076.151.076.227.151t.227.076l.151.151q.076.076.151.227l.151.151q0 .076.076.227 0 .151.076.227v3.403q-.076.076-.076.151v2.344q.076.378.151.681 0 .302.076.605t.227.605q.076.227.227.529.076.227.227.454l.378.378q.151.151.378.302l.454.302q.227.151.454.227.227.151.454.227l.605.151q.227.076.529.151.378.076.681.076.302.076.681.076h1.134q.227 0 .378-.076h.454q.151 0 .302-.076.227 0 .378-.076.151 0 .378-.076.151-.076.302-.076l.302-.151.302-.151q.076-.076.227-.151.151 0 .227-.151.151-.076.227-.151.151-.076.227-.151l.227-.227.151-.151q.076-.151.151-.227.076-.151.151-.227l.151-.302q.076-.076.151-.227l.151-.302q.076-.076.076-.227l.151-.302q0-.151.076-.302 0-.151.076-.378 0-.151.076-.302v-.378q0-.151.076-.302v-.756q.076-.151.076-.378v-2.117q-.076-.227-.076-.454v-.378q0-.151-.076-.302v-.378q-.076-.151-.076-.302t-.076-.227q0-.151-.076-.227-.076-.151-.151-.227 0-.076-.076-.151t-.151-.076q-.076-.076-.227-.151h-.151q-.151-.076-.227-.076m18.981-8.621q-.151.076-.227.151l-.302.151-.227.227q-.151.076-.227.151l-.227.227q-.151.151-.302.227-.076.151-.151.227-.151.151-.227.302t-.227.302q-.076.076-.151.227t-.151.378l-.151.302q0 .227-.076.378 0 .227-.076.454v.454q-.076.227-.076.454v.454q.076.151.076.378.076.227.076.378.076.227.151.378.076.227.151.378t.227.378q.076.151.227.302.076.151.227.302l.302.302q.151.076.378.227.151.076.378.151.227.151.454.227t.454.076q.227.076.529.151h.529q.302.076.605.076h.302q.151 0 .302-.076h.302q.151-.076.302-.076t.302-.076q.151 0 .227-.076.151-.076.302-.076.076-.076.227-.151t.227-.151q.076 0 .227-.076l.151-.151q.151-.076.227-.151.076-.151.151-.227.151-.076.227-.151t.151-.227l.151-.151q.076-.076.151-.227.076-.076.076-.227.076-.076.151-.227.076-.076.076-.227.076-.076.151-.227 0-.151.076-.227 0-.151.076-.227.076-.151.076-.302t.076-.227q0-.151.076-.302v-.227q0-.151.076-.302v-.529q0-.076.076-.227v-.681q0-.151-.076-.302v-.378q-.076-.151-.076-.378 0-.151-.076-.302 0-.227-.076-.378t-.076-.302q-.076-.151-.151-.378l-.151-.302-.151-.302-.151-.302q-.076-.151-.227-.302-.076-.151-.151-.227l-.302-.302q-.076-.151-.227-.227l-.302-.302q-.151-.151-.302-.227t-.302-.227q-.151-.076-.378-.151-.151-.151-.378-.227-.151-.076-.378-.151-.227-.151-.378-.227l-.454-.151q-.227-.076-.529-.151l-.454-.151q-.302 0-.529-.076-.302-.076-.605-.076-.227-.076-.529-.076-.302-.076-.605-.076-.378-.076-.681-.076h-2.874l-1.361.151q-.681.076-1.286.227l-1.21.302q-.605.151-1.134.378t-.983.454l-.907.605q-.454.302-.832.681l-.756.756q-.302.378-.605.832t-.529.983q-.302.529-.454 1.134-.227.529-.378 1.21-.151.605-.227 1.286t-.151 1.437-.076 1.512v.907q.076.454.076.907t.076.832q.076.454.076.832l.151.756.151.756q.076.302.227.605.076.378.227.681.076.302.227.605.151.227.302.529.076.227.227.529l.302.454q.151.227.378.454l.302.454q.227.151.378.378.227.151.454.378.227.151.378.302l.454.302.454.302q.227.076.454.227.227.076.529.227l.454.151q.302.076.529.151l.605.151q.302.076.529.151.302 0 .605.076t.605.076q.302.076.529.076.302.076.605.076t.681.076h1.891q.378 0 .756-.076h.605q.378-.076.681-.076.302-.076.529-.151.302 0 .605-.076t.529-.151q.302-.076.529-.151l.454-.151q.227-.151.454-.227t.454-.227q.227-.076.378-.227.227-.076.378-.227.227-.151.378-.302.151-.076.302-.227l.302-.302.302-.302q.151-.151.227-.378.151-.151.227-.302.151-.227.227-.378.151-.227.227-.378.076-.227.151-.378l.151-.454q.076-.151.151-.378l.151-.454q0-.227.076-.454 0-.227.076-.454 0-.227.076-.454 0-.227.076-.454v-2.117q-.076-.076-.076-.151v-.076q-.076-.076-.076-.151l-.076-.076q0-.076-.076-.076l-.076-.076-.076-.076h-.076l-.076-.076h-.756l-.076.076h-.076l-.076.076q-.076 0-.076.076l-.076.076q0 .076-.076.076v.151q-.076.076-.076.151v.681q0 .076.076.151v.302q.076.076.076.151v.529q.076.076.076.151v.227q-.076.076-.076.151-.076.151-.076.227-.076.076-.151.227l-.151.151q-.076.151-.151.227t-.227.151q-.076.151-.227.227t-.227.151q-.151.151-.378.227-.151.076-.302.076l-.454.151q-.227 0-.454.076-.227 0-.529.076h-2.038q-.378-.076-.756-.076l-.756-.151q-.378-.151-.756-.227l-.605-.302-.605-.302q-.302-.227-.529-.454l-.454-.454q-.227-.227-.454-.529-.151-.302-.378-.605-.151-.302-.302-.681-.151-.302-.227-.681-.151-.378-.227-.832-.076-.378-.151-.832 0-.454-.076-.907v-2.343q.076-.378.076-.681v-.605q.076-.302.076-.605.076-.227.076-.529l.151-.454q0-.227.076-.454l.151-.454q0-.227.076-.378.076-.227.151-.378.076-.227.151-.378l.151-.302.151-.302.151-.302.227-.227q.076-.151.151-.227.151-.076.227-.227l.151-.151q.151-.076.227-.151t.227-.151q.076-.076.227-.151.076-.076.227-.076.076-.076.227-.076.151-.076.227-.076.151-.076.227-.076.151 0 .227-.076h.227q.151-.076.302-.076h1.664q.076 0 .227.076h.227q.151.076.227.076.151 0 .227.076.076 0 .151.076.076 0 .151.076t.151.076q0 .076.076.076.076.076.076.151.076 0 .076.076t.076.076v.454l-.076.076v.076q0 .076-.076.076v.076q-.076.076-.076.151-.076 0-.076.076l-.076.076-.076.076q-.076.076-.151.076 0 .076-.076.076-.076.076-.151.076 0 .076-.076.076-.076.076-.151.076-.076.076-.151.076m38.264 2.193v-1.361q0-.454.076-1.134.076-1.134.076-1.588v-.454q-.076-.076-.076-.151v-.151q-.076-.076-.076-.151-.076-.076-.076-.151-.076-.076-.076-.151-.076-.076-.151-.076 0-.076-.076-.151-.076 0-.151-.076h-.151q-.076-.076-.227-.076-.076 0-.151-.076h-2.722q-.378 0-2.269.076-.681 0-1.966.076-1.739.076-2.344.076h-7.033q-.151 0-.302-.076h-.681q-.076-.076-.151-.076h-1.286q-.076-.076-.151-.076h-.907q-1.891-.076-3.479-.151h-3.932q-.076 0-.151.076h-.151q-.076.076-.151.076-.076.076-.151.076l-.151.151-.076.076q-.076.076-.076.151-.076.076-.076.151-.076.076-.076.151-.076 0-.076.151v.151q-.076.076-.076.151v.378q0 .454.076 1.512 0 .151.076.302v.529q.076.151.076.302v2.798q-.151.907-.151 1.134-.151 1.059-.151 1.664v.227q.076.151.076.227 0 .151.076.227l.151.151.076.076q.151.076.227.076.076.076.227.076h.529q.076-.076.227-.076l.302-.151q.076 0 .227-.151l.302-.151q.076-.151.227-.302.151-.076.302-.227.151-.227.227-.378.378-.529.983-1.437t.983-1.512q.227-.302.756-1.059.076-.076.076-.151l.151-.151q0-.076.076-.151t.076-.151l.151-.151q.076-.076.076-.151l.151-.151.151-.151q.076-.076.076-.151.076-.076.151-.076l.151-.151q0-.076.076-.151t.151-.076l.151-.151q.076-.076.076-.151.076 0 .151-.076t.151-.076l.151-.151q.076 0 .151-.076t.151-.076q.076-.076.151-.076.076-.076.151-.076 0-.076.076-.076t.151-.076q.076 0 .302-.076h.454q.076-.076.151-.076h.302l.151.076h.076q.151 1.437.227 3.327v7.713q-.076.076-.076.227v.454q0 .907-.076 2.571 0 .907-.076 2.269-.076.681-.151 1.134v.151q0 .076-.076.151l-.076.076h-.681q0-.076-.076-.076h-.378q-.076.076-.151.076h-.076l-.076.076q-.076 0-.151.076l-.076.076-.076.076h.076l-.072.068-.076.076q-.076.076-.076.151l-.076.076v.151q0 .076-.076.076v.605q0 .076.076.151v.151q0 .076.076.151l.076.076q0 .076.076.076 0 .076.076.076h-.076l.076.076.076.076q.076 0 .151.076h.076l.076.076h.227q.076.076.151.076.227 0 1.21-.076.454 0 1.21-.076h1.21q.454-.076 1.361-.076h1.361q.227.076.454.076h2.269q.227.076.454.076h.454q.151 0 .378.076h1.437l.076-.076h.151l.076-.076q.076 0 .076-.076.076 0 .151-.076l.076-.076.076-.076q0-.076.076-.076v-.076q.076-.076.076-.151v-.076q.076-.076.076-.151v-.756l-.076-.076v-.076q0-.076-.076-.076v-.076q-.076-.076-.076-.151l-.076-.076-.076-.076q-.076-.076-.151-.076 0-.076-.076-.076-.076-.076-.151-.076h-.076q-.076 0-.151-.076h-.076q-.378.076-.454.076h-.756q-.076 0-.076-.076h-.076q0-.076-.076-.076v-.076l-.076-.076v-.151q0-.076-.076-.076v-.151q0-.076-.076-.151v-.378q0-.454-.076-1.286v-9.15q.076-.681.076-1.664.076-1.21.076-1.664.076-.832.076-1.437V42.04h.832q.076.076.227.076.076 0 .151.076h.227q.076.076.227.076l.151.151q.076.076.227.076.076.076.151.076l.151.151q.151.076.227.076l.151.151.151.151q.151.076.227.151l.151.151.151.151.151.151.151.151.151.151q.076.151.151.227l.151.151q.076.076.151.227l.151.151.907 1.512q.302.378 1.059 1.512.378.605.983 1.361.151.151.227.378.151.151.227.302.151.076.302.227l.227.227.302.151q.151.076.227.076.151.076.302.076h.529q.076 0 .227-.076.076 0 .151-.076.076 0 .151-.076t.076-.151q.076-.076.076-.227.076-.076.076-.151v-.302q0-.605-.151-1.664-.076-1.059-.076-2.571m25.106.907q-.076-.302-.227-.605t-.227-.605q-.151-.227-.302-.529t-.302-.529-.302-.529q-.151-.227-.378-.454l-.302-.454q-.227-.151-.378-.378-.227-.227-.454-.378-.151-.227-.378-.378l-.454-.302-.454-.302q-.302-.151-.529-.302t-.529-.227q-.227-.151-.454-.227-.302-.151-.605-.227t-.529-.151l-.605-.151q-.227-.076-.529-.151t-.605-.076q-.302-.076-.605-.076-.302-.076-.605-.076-.378 0-.681-.076h-1.286q-.302 0-.605.076-.378 0-.681.076-.302 0-.605.076-.302 0-.605.076t-.529.151l-.605.151q-.302.076-.529.151-.302.076-.529.227-.302.076-.529.151-.302.151-.529.302-.227.076-.454.227l-.454.302-.454.302q-.227.227-.454.378t-.378.378l-.378.378q-.227.227-.378.454l-.302.454q-.227.227-.378.529l-.302.454q-.076.302-.227.605l-.302.605q-.076.227-.227.605-.076.302-.227.605-.076.378-.151.681l-.151.756-.151.756q0 .378-.076.756 0 .378-.076.832v2.949q.076.605.151 1.134t.227 1.059q.076.529.302 1.059.151.454.378.907.151.454.454.907.227.454.529.832l.605.756q.378.378.756.681t.832.605.983.529 1.134.378q.529.227 1.21.378.605.076 1.361.227.681.076 1.437.151h2.344q.454 0 .756-.076h.756q.378-.076.681-.076.378-.076.681-.151.378-.076.681-.151l.605-.151.605-.151q.302-.076.529-.227.302-.076.529-.227.302-.076.529-.227l.454-.302.454-.302.454-.302q.227-.151.378-.302.227-.151.378-.378.151-.151.302-.378.227-.151.378-.378.151-.151.302-.378.076-.227.227-.454.151-.151.227-.378.151-.227.227-.454.151-.227.227-.529l.151-.454q.076-.227.151-.529.076-.227.151-.529.076-.227.076-.529.076-.227.076-.529.076-.227.076-.529.076-.302.076-.605V50.51q-.076-.378-.076-.756-.076-.378-.076-.756l-.151-.756-.151-.756-.151-.605q-.151-.378-.227-.681m-8.696 9.528v.378q-.076.227-.076.454 0 .151-.076.378v.302q-.076.151-.076.302t-.076.302q0 .151-.076.302 0 .151-.076.227 0 .151-.076.227 0 .151-.076.227 0 .151-.076.227t-.076.151l-.151.151q0 .076-.076.151t-.076.151q-.076.076-.151.076-.076.076-.151.076 0 .076-.076.076-.076.076-.151.076-.076.076-.151.076l-.076.076h-.756q-.151-.076-.302-.076l-.302-.151q-.151-.076-.227-.227-.151-.076-.302-.227l-.151-.302q-.151-.227-.227-.378l-.151-.454q-.076-.227-.151-.529l-.151-.605q-.076-.378-.076-.756-.076-.378-.076-.832-.076-.378-.076-.907-.076-.454-.076-.983v-1.134q-.076-.605-.076-1.286.076-3.705.227-5.445 0-.302.076-.529v-.454q0-.227.076-.454 0-.227.076-.454v-.378q.076-.151.076-.378.076-.151.076-.302.076-.151.076-.302.076-.151.076-.302.076-.076.151-.227 0-.076.076-.227.076-.076.076-.151.076-.151.151-.227 0-.076.076-.151t.151-.076q0-.076.076-.151t.151-.076q0-.076.076-.076.076-.076.151-.076t.151-.076h.302q.076-.076.151-.076h.454l.076.076h.151q.076.076.151.076t.076.076q.076 0 .151.076.076 0 .151.076l.076.076.151.151q0 .076.076.151t.076.151q.076.076.076.227.076.076.151.227 0 .076.076.227 0 .076.076.227l.151.605q.076.378.076.756l.151.907q0 .454.076.983.151 2.117.151 5.52 0 2.647-.151 4.462" fill="#fcbb51"/>
</svg>
