<svg id="Layer_2" data-name="Layer 2" xmlns="http://www.w3.org/2000/svg" viewBox="0 0 538.04 178.84"><defs><style>.cls-1{fill:#866d9e;}.cls-1,.cls-2,.cls-3,.cls-4,.cls-5{fill-rule:evenodd;}.cls-2{fill:#424c17;}.cls-3{fill:#818e46;}.cls-5{fill:#6f7b37;}</style></defs><title>d288368c</title><path class="cls-1" d="M87.58,11.4q2.49-4.53,3.48-6.64l11.5.27a32.13,32.13,0,0,0,4.28,6.11A50.14,50.14,0,0,0,113,16.92a54,54,0,0,0,8.35,5.19,48.84,48.84,0,0,0,7.42,3.16l.07,130.33a56.89,56.89,0,0,0-7.49,3.09A46.73,46.73,0,0,0,113,164a43.15,43.15,0,0,0-6.18,5.65l-4.4,5.79-71.25-.07-4.34-5.72a47.62,47.62,0,0,0-6.24-5.72,57.07,57.07,0,0,0-8.35-5.25,76.16,76.16,0,0,0-7.49-3.16V25.33a69.22,69.22,0,0,0,7.49-3.22,44.74,44.74,0,0,0,8.35-5.19,45.36,45.36,0,0,0,6.18-5.72,48.78,48.78,0,0,0,4.4-5.71L73.05,5l3.82,6.44H34.93l-.39.86L32.7,15.41a37.21,37.21,0,0,1-6.51,6.9h-.06a37,37,0,0,1-8.94,5.52l-4.47,1.78-1,.39V150.74l5.46,2.1a43.63,43.63,0,0,1,9,5.59,36.32,36.32,0,0,1,6.51,7v-.06l1.84,3.15.39.92H98.42l.46-.85,2-3.22v.06a34.44,34.44,0,0,1,6.44-7,43.37,43.37,0,0,1,9-5.59,35.61,35.61,0,0,1,4.34-1.77l1-.27V30l-1-.39a37.57,37.57,0,0,1-4.34-1.78,38,38,0,0,1-9-5.52,35.23,35.23,0,0,1-6.44-6.9l-2.5-4H87.58" transform="translate(-0.03 -1.08)"/><path class="cls-2" d="M76.87,11.4l1.64,3H36.84l-1.71,2.76a39.15,39.15,0,0,1-7,7.49,41.68,41.68,0,0,1-9.73,5.92h.13l-3.81,1.64V148.7l3.61,1.51h.2a42.42,42.42,0,0,1,9.6,5.92,36,36,0,0,1,7,7.56l1.71,2.76H96.65l1.77-2.76a34.47,34.47,0,0,1,7-7.56,42.2,42.2,0,0,1,9.6-5.92l3.74-1.57V32.17L115,30.53a43.87,43.87,0,0,1-9.67-5.92h.07a37.32,37.32,0,0,1-7-7.49v-.07h-.06l-1.65-2.69H85.87l1.71-3H98.36l2.5,4a35.23,35.23,0,0,0,6.44,6.9,38,38,0,0,0,9,5.52,37.57,37.57,0,0,0,4.34,1.78l1,.39V150.8l-1,.27a35.61,35.61,0,0,0-4.34,1.77,43.37,43.37,0,0,0-9,5.59,34.44,34.44,0,0,0-6.44,7v-.06l-2,3.22-.46.85H34.93l-.39-.92-1.84-3.15v.06a36.32,36.32,0,0,0-6.51-7,43.63,43.63,0,0,0-9-5.59l-5.46-2.1V30l1-.39,4.47-1.78a37,37,0,0,0,8.94-5.52h.06a37.21,37.21,0,0,0,6.51-6.9l1.84-3.15.39-.86H76.87" transform="translate(-0.03 -1.08)"/><path class="cls-3" d="M78.51,14.36l3.55,6.57,3.81-6.57H96.71l1.65,2.69h.06v.07a37.32,37.32,0,0,0,7,7.49h-.07A43.87,43.87,0,0,0,115,30.53l3.74,1.64V148.64L115,150.21a42.2,42.2,0,0,0-9.6,5.92,34.47,34.47,0,0,0-7,7.56l-1.77,2.76H36.84l-1.71-2.76a36,36,0,0,0-7-7.56,42.42,42.42,0,0,0-9.6-5.92h-.2l-3.61-1.51V32.17l3.81-1.64h-.13a41.68,41.68,0,0,0,9.73-5.92,39.15,39.15,0,0,0,7-7.49l1.71-2.76H78.51M28.36,80.74l.72-27.93L28,40.85a.41.41,0,0,0-.46-.46l-.33.46L26.13,56l1.31,24.71.46.46a.4.4,0,0,0,.46-.46M83.57,12.85l-1,2.23-1-2.23h2m28.66,30.3-1.12,10.78.06,9,1.06,8.54.46.46c.26,0,.39-.15.39-.46l1.18-14.19-1.18-14.13c0-.31-.13-.46-.39-.46l-.46.46m.85,98.32,1.12-6.24-.13-5.26-1-4.93a.34.34,0,0,0-.39-.39l-.46.39L111.17,130l-.06,5.26.13,1.31,1,4.93.46.46c.26,0,.39-.15.39-.46m-77.23-75L34.74,80.74l.19,5.65.4,4.21.52,4.27.46.46a.4.4,0,0,0,.46-.46l.53-4.27.46-4.21.13-5.65L36.77,66.48c0-.22-.15-.33-.46-.33s-.46.11-.46.33M22,139.63l1.11-5.32.33-5.66-.06-1.38-.79-5.39a.51.51,0,0,0-.4-.52.52.52,0,0,0-.52.46l-1.32,6.7-.13,4.28.85,6.83.47.4.46-.4" transform="translate(-0.03 -1.08)"/><path class="cls-4" d="M76.87,11.4,73.05,5l-41.93.53a48.78,48.78,0,0,1-4.4,5.71,45.36,45.36,0,0,1-6.18,5.72,44.74,44.74,0,0,1-8.35,5.19A69.22,69.22,0,0,1,4.7,25.33V155.47a76.16,76.16,0,0,1,7.49,3.16,57.07,57.07,0,0,1,8.35,5.25,47.62,47.62,0,0,1,6.24,5.72l4.34,5.72,71.25.07,4.4-5.79A43.15,43.15,0,0,1,113,164a46.73,46.73,0,0,1,8.35-5.26,56.89,56.89,0,0,1,7.49-3.09l-.07-130.33a48.84,48.84,0,0,1-7.42-3.16A54,54,0,0,1,113,16.92a50.14,50.14,0,0,1-6.11-5.78A32.13,32.13,0,0,1,102.56,5l-11.5-.27q-1,2.12-3.48,6.64l-1.71,3-3.81,6.57-3.55-6.57-1.64-3m6.7,1.45L89.09,1.28l16.56.07q7.36,15.51,27.41,20.7l.2,135.06.13,1.45Q118,162.18,104.8,179.92H27.31Q20.94,164,0,158.43l.13-1.32V21.39Q18.7,16.79,27.9,1.08l48.24.4,4.73,9.92.66,1.45,1,2.23,1-2.23" transform="translate(-0.03 -1.08)"/><path class="cls-5" d="M28.36,80.74a.4.4,0,0,1-.46.46l-.46-.46L26.13,56l1.05-15.18.33-.46a.41.41,0,0,1,.46.46l1.11,12-.72,27.93M22,139.63l-.46.4-.47-.4-.85-6.83.13-4.28,1.32-6.7a.52.52,0,0,1,.52-.46.51.51,0,0,1,.4.52l.79,5.39.06,1.38-.33,5.66L22,139.63M35.85,66.48c0-.22.16-.33.46-.33s.46.11.46.33l1.12,14.26-.13,5.65L37.3,90.6l-.53,4.27a.4.4,0,0,1-.46.46l-.46-.46-.52-4.27-.4-4.21-.19-5.65,1.11-14.26m77.23,75c0,.31-.13.46-.39.46l-.46-.46-1-4.93-.13-1.31.06-5.26,1.06-4.93.46-.39a.34.34,0,0,1,.39.39l1,4.93.13,5.26-1.12,6.24m-.85-98.32.46-.46c.26,0,.39.15.39.46l1.18,14.13-1.18,14.19c0,.31-.13.46-.39.46l-.46-.46-1.06-8.54-.06-9,1.12-10.78" transform="translate(-0.03 -1.08)"/><path class="cls-4" d="M42.62,100.07a11.6,11.6,0,0,0-8.23-2.45q-6.21.3-10.3,8.14a34.54,34.54,0,0,0-3.56,17.08q.28,10.29,5.34,16.91,5.85,7.67,16.48,7.67c7.6,0,11.14-2.87,14.4-6.4a29.27,29.27,0,0,0,5.69-9.13c3.32-8.5,3.71-12,4.59-13.89,0,0,2.37,17.46,7.85,23.64,4.8,5.41,8.1,4.89,13.11,4.76a12.78,12.78,0,0,0,2.54-.31q16-3.89,16-24.1,0-7.56-4.4-11.6c-2.53-2.35-4.25-3.11-8.81-3a5.07,5.07,0,0,0-1.66.42,6.89,6.89,0,0,0-4,7.78,6.51,6.51,0,0,0,4.75,5.23c4,.92,7.58-2.41,7.58-6.63a7,7,0,0,0-.26-1.91h0c2.45,2.08,3.68,5.33,3.68,9.72q0,8.08-5.25,10.81a7.93,7.93,0,0,1-8.57-.34c-2.15-1.36-3.6-4.81-5.43-11.73-2.15-8.37-3.79-15.25-3.53-27.86,0-16.69,3.2-27.8,4.22-33.68,1.64-9.52,6.27-14.43,11.63-14.4A10.9,10.9,0,0,1,106,50a20.54,20.54,0,0,1,3,11.37,27.86,27.86,0,0,1-1,7.87,10.1,10.1,0,0,0-9.69-7.84C93,61.5,88.58,66.25,88.44,72c-.16,6.14,4.36,11.17,10,11.17a9.54,9.54,0,0,0,2.08-.24c3.5-.55,6.43-3.15,8.8-7.84a34.74,34.74,0,0,0,3.36-16.73q-.25-10.06-5-16.55Q102,34.27,92,34.27c-9.37,0-16.4,5.37-19,11.32-2.15,5-3.46,11.43-4.26,13.14,0,0-.27-12.71-4.73-20S49.2,32.18,45.1,33Q27,36.44,27,57.83q0,7.72,4.65,11.85a10.4,10.4,0,0,0,7.8,3.14h.38c4-.09,7.15-4.12,6.26-8.7a6.84,6.84,0,0,0-5-5.42c-4.24-1-8,2.53-8,7a7.88,7.88,0,0,0,.1,1.2q-3-3.18-3-9.06,0-8.25,5.54-11a8.63,8.63,0,0,1,9,.34c2.26,1.4,3.79,4.92,5.73,12,2.27,8.54,4,15.57,3.72,28.45,0,17-3.38,28.39-4.46,34.4-1.72,9.72-6.61,14.74-12.26,14.7a11.57,11.57,0,0,1-10-5.35,20.46,20.46,0,0,1-3.16-11.62,25.73,25.73,0,0,1,2.71-12.14l.8-1.25a10.62,10.62,0,0,0,.43,6.27c1.49,3.89,4.92,6.65,8.79,6.7,5.37.08,9.75-4.65,9.75-10.49a10.78,10.78,0,0,0-3.82-8.35Zm13.19,28.17a9.12,9.12,0,0,1-2.3,2.69,8.44,8.44,0,0,1-1.81,1.16l-1.51.74c2.18-3.83,7.32-18.92,7.32-45.26,0-12.7-.71-15.25-3.59-28.16-1.9-6.87-2.54-8.95-3.73-12.28l2.39.18a4.06,4.06,0,0,1,3.23,2.32c1,2.44,5.62,15.49,5.62,39.16S57.18,125.79,55.81,128.24ZM76.54,92.87c0,12.44,1.3,15.45,4,28.09,1.8,6.73,2.84,8.24,4,11.5l-2.26-.17A3.86,3.86,0,0,1,79.21,130c-.91-2.2-5.21-13.54-5.82-33.26,0,0,0-9.36.47-15.67.23-8.78,4.92-25.35,5.75-27.5l.22-.55a8.46,8.46,0,0,1,4-4.12l.73-.37C82.47,52.3,76.54,67.08,76.54,92.87Z" transform="translate(-0.03 -1.08)"/><path d="M340,121.62c0-7.14-.09-19.5-.12-26.61a2.66,2.66,0,0,1,.77-1.8l2.17-2.09c0-.06,0-5,.07-5.13H323.18c.09-.23.13-.38.2-.51,2.39-3.78,4.76-5.08,7.18-8.84,1.21-1.9,3-2,4.42-.34a2.11,2.11,0,0,0,1.78.79H372c-.2.32-.33.54-.48.75-2.92,3.25-3.55,4.06-6.94,7.47a1.53,1.53,0,0,1-1.21.63H351.49c0,8.25.39,27.48.39,35.68Z" transform="translate(-0.03 -1.08)"/><path d="M437.12,87.13h-8.31a1.17,1.17,0,0,0-.74.41c-1,1-1.89,2-2.86,3a1.92,1.92,0,0,0-.58,1.47v27.4H412.47v-1.08q0-15.47.1-30.94a1.34,1.34,0,0,0-.71-1.33c-1.24-.75-2.45-1.57-3.77-2.44l9.09-8.35,2.76,2c1.35,1,2.69,1.94,4.07,2.87a1.32,1.32,0,0,1,.65,1.29v3.47c.34-.38.55-.58.74-.8q3.15-3.69,6.32-7.36a6.59,6.59,0,0,1,1.09-1,1.69,1.69,0,0,1,2.38.14l.12.15a2.15,2.15,0,0,0,1.74.75h13.78c-.15.29-.23.5-.35.69-1,1.68-1.93,3.36-2.91,5a15.82,15.82,0,0,0-2.12,8.25v19.82a1.56,1.56,0,0,0,.52,1c1.33,1,2.71,2,4.11,3l-8.43,8.74L439.83,122c-2-1.46-4-2.9-5.93-4.39a1.41,1.41,0,0,1-.5-.93V91.42a1.62,1.62,0,0,1,.45-1C434.88,89.35,435.92,88.33,437.12,87.13Z" transform="translate(-0.03 -1.08)"/><path d="M224.32,114l-8.19,9.25-2.32-1.58c-1.85-1.26-3.69-2.55-5.56-3.77a1.32,1.32,0,0,1-.72-1.35c.06-.86,0-1.74,0-2.86L198.84,123c-4.11-2.26-8.31-4.34-11.26-8.1a18.51,18.51,0,0,1-2.18-20.46A34.7,34.7,0,0,1,191.83,86a88.29,88.29,0,0,0,8.94-9.8,2.31,2.31,0,0,1,3.21-.62,2.19,2.19,0,0,1,.5.46,1.9,1.9,0,0,0,1.49.67h19.44c-.22.32-.35.56-.52.78A26.48,26.48,0,0,0,220,88.28a20.23,20.23,0,0,0-.28,3.3v18.5a1.27,1.27,0,0,0,.59,1.24C221.64,112.15,223,113.08,224.32,114ZM210.81,87.9H197.66a1,1,0,0,0-.69.45,37.09,37.09,0,0,0-2.05,4,12.09,12.09,0,0,0,6.39,15.86,11.94,11.94,0,0,0,1.62.56c1.54.44,2.83.51,3.75-1.06a.88.88,0,0,1,.22-.25,1.77,1.77,0,0,0,.63-1.6V93a2.48,2.48,0,0,1,.59-1.73C209,90.21,209.82,89.13,210.81,87.9Z" transform="translate(-0.03 -1.08)"/><path d="M453.56,82.41l8.35-8.1c2.57,2,5.08,4,7.57,6a1.11,1.11,0,0,1,.35.76v24.65a1.43,1.43,0,0,1-.35.86c-.79,1-1.63,2-2.53,3,.33,0,.52.07.73.07h6.8a1.33,1.33,0,0,0,1.09-.57,9.37,9.37,0,0,0,2.21-6.94c-.15-8.09-.06-16.26-.06-24.39V76.62h12.17v32.47a1.52,1.52,0,0,0,.71,1.42c1.16.85,2.32,1.74,3.37,2.56l-8.27,8.49-2.64-1.92c-1.54-1.16-3.06-2.32-4.62-3.36a1.44,1.44,0,0,1-.72-1.43,8.53,8.53,0,0,0-.13-2.31l-.38.57c-1.09,2-2.09,4-3.25,5.81a1.16,1.16,0,0,1-.81.51H453.82a1.17,1.17,0,0,1-.25-.07,1,1,0,0,1,.14-.22,12.28,12.28,0,0,0,4-9.59c.1-7.61,0-15.21,0-22.82a1.41,1.41,0,0,0-.42-.9C456.06,84.72,454.82,83.56,453.56,82.41Z" transform="translate(-0.03 -1.08)"/><path d="M288,98.6a23.32,23.32,0,0,1,3.33-11.9c1.15-2,2.47-3.92,3.7-5.9,1-1.62,2-3.25,2.91-4.9.81-1.46,2-1.75,3.26-.74a.35.35,0,0,1,.13.11c1,1.33,2.31,1.41,3.82,1.37,2.76-.07,5.53,0,8.29,0a1.49,1.49,0,0,1,1,.29c4.84,4.44,8.38,9.69,9.68,16.19A21.93,21.93,0,0,1,318.69,113c-2.31,2.56-4.86,4.86-7.08,7.46a2.89,2.89,0,0,1-3.56,1,30.72,30.72,0,0,1-13.25-7.2A21.58,21.58,0,0,1,288,98.6Zm13.87-11.31h-4.73c-.41,0-.65.09-.74.55a13.9,13.9,0,0,0,1.76,10.76c3.47,5.22,8.29,8.67,14.7,9.45,2.19.26,2.2.7,2.32-2,.25-7.32-2.68-13.36-7.82-18.41a1.38,1.38,0,0,0-.89-.29c-1.55-.06-3.08,0-4.6,0Z" transform="translate(-0.03 -1.08)"/><path d="M371,98.46a22.79,22.79,0,0,1,3.36-11.75c1.56-2.67,3.32-5.23,4.95-7.85.63-1,1.16-2,1.7-3a1.88,1.88,0,0,1,3-.74,1.54,1.54,0,0,1,.32.25c.92,1.27,2.22,1.38,3.66,1.34,2.82-.07,5.65,0,8.46,0a1.77,1.77,0,0,1,1,.37c4.82,4.47,8.33,9.73,9.61,16.28A21.92,21.92,0,0,1,401.85,113c-2.31,2.6-4.81,5-7.23,7.54a2.8,2.8,0,0,0-.28.31c-.62,1.16-1.54,1.24-2.74.91A30.48,30.48,0,0,1,377.43,114,21.7,21.7,0,0,1,371,98.46Zm26.85,9.72a15,15,0,0,0,.29-1.74c.32-7.46-2.56-13.59-7.77-18.75a1.25,1.25,0,0,0-.8-.33h-9.45c-.44,0-.65.14-.73.58a14.68,14.68,0,0,0,1.38,10,21.21,21.21,0,0,0,9.55,8.54,17.3,17.3,0,0,0,7.49,1.65Z" transform="translate(-0.03 -1.08)"/><path d="M520.22,102.61v12.32a1.33,1.33,0,0,0,.73,1.34c1.86,1.23,3.7,2.51,5.55,3.77l2.32,1.59,8.18-9.26c-1.36-.94-2.67-1.87-4-2.75a1.45,1.45,0,0,1-.63-1.16V89.88a19.23,19.23,0,0,1,.31-3.38,26.55,26.55,0,0,1,4.86-10.63c.16-.22.3-.45.53-.77H510.79c-7.81,0-12.92,11.66-13,14.25a13.47,13.47,0,0,0,1.6,7.17c2,3.27,2.94,3.92,6.15,5.24a5.84,5.84,0,0,0,.83.18c-1.24,1.79-3,3.1-4.22,4.88a6.42,6.42,0,0,1-3.81,2.86c-.8.18-1.62.23-2.48.36a1.23,1.23,0,0,0,.17.46q2.2,5,4.52,10.07a.71.71,0,0,0,.83.52,11.28,11.28,0,0,0,10.41-7.57c.93-2.31,1.3-3.47,2.51-7.13.33-.92,2.14-3.7,3.29-3.72Zm.59-16.81a1.69,1.69,0,0,0-.6,1.4v5.55c0,1.43-1.91,3.24-4.57,3.24-4.09,0-8-1.88-8-7.8a5,5,0,0,1,2.06-4c.23-.21.45-.45.68-.45h12.15c-1,1.21-.79.94-1.68,2Z" transform="translate(-0.03 -1.08)"/><path d="M154.07,85.47l15.27.06c-1,1.23-2.47,3.16-3.36,4.19a2.39,2.39,0,0,0-.6,1.73v23.6a1.34,1.34,0,0,0,.73,1.34c1.86,1.22,3.7,2.5,5.55,3.76l2.31,1.58,8.19-9.25c-1.37-.94-2.67-1.88-4-2.75a1.3,1.3,0,0,1-.64-1.22V90a18.11,18.11,0,0,1,.36-3.29,25.63,25.63,0,0,1,4.86-10.56c.16-.21.3-.44.53-.77h-36a41.62,41.62,0,0,1-1.33,4.51l2.5,5.56c.22.52.39.91.42,1,1.49,4.62.7,9.25-1.16,13.61-1.72,4-6.46,12.31-10.3,15.09,1.84,2,3.67,4.08,5.53,6.09.18.21.61.41.81.32,3.78-1.73,5.14-3.88,7.77-7.46,2.94-4,6.14-15.95,6.18-21.61S154.07,85.47,154.07,85.47Z" transform="translate(-0.03 -1.08)"/><path d="M235.56,106.7s-2.37,5-4.74,5h-3.16l-.08,9.25h11l.16-.14a1.18,1.18,0,0,0,.13-.18l8.9-17.77c.43-.82,2.74-.79,2.74.13,0,4.42.09,8.92.09,13.34l6.08,6,3.72-.7,8.63-19.43c.51-.88,3-.52,3,.51v13.88a1.34,1.34,0,0,0,.47.93c2,1.56,3,3.08,5,4.63l1.3,1,8.1-8.43c-1.35-1-3.47-3.06-4.71-4.06l.12-21.1c.15-5.46,5.93-13.06,5.93-13.06h-16l-13,25.53h-1V86.89c0-5.29,3.78-10.27,3.78-10.27h-3.56a11.26,11.26,0,0,1-3.78-1.31c-1.41-1-2.45-.72-3.26.72Z" transform="translate(-0.03 -1.08)"/><path class="cls-4" d="M260.06,75.38a37.52,37.52,0,0,1,4-1.31L250.3,44.3q-3.17,2.93-15.21,12l-.83-2.57c-.35.21-.37.16,0-.16l-2.94-8.64Q225.85,49.76,220.67,55l-5.57,4.8q11-4.55,15.33-6.57l.53,10,1-.42,13.76-4.91-1.9,23.59q8.46-3.26,16.22-6.14m9.72,1L239.32,88.26l2.44-25.53-13.82,4.34.14-4.43L228,58.4q-5.07,2.41-25.87,9.42a354.69,354.69,0,0,0,30.52-28.58q1.45,4.45,4.43,11.67l14.38-12.33,18.34,37.75m-35.87-19.9.26.5-.1.08-.11-.48,0,0,0-.13" transform="translate(-0.03 -1.08)"/><path class="cls-1" d="M260.06,75.38q-7.77,2.9-16.22,6.14l1.9-23.59L232,62.84l-1,.42-.53-10q-4.37,2-15.33,6.57l5.57-4.8q5.19-5.25,10.61-10.13l2.94,8.64c-.33.32-.31.37,0,.16l.83,2.57q12-9,15.21-12l13.79,29.77a37.52,37.52,0,0,0-4,1.31M233.91,56.43l0,.13,0,0,.11.48.1-.08-.26-.5" transform="translate(-0.03 -1.08)"/></svg>