<?xml version="1.0" standalone="no"?>
<!DOCTYPE svg PUBLIC "-//W3C//DTD SVG 1.1//EN" "http://www.w3.org/Graphics/SVG/1.1/DTD/svg11.dtd" >
<svg xmlns="http://www.w3.org/2000/svg" xmlns:xlink="http://www.w3.org/1999/xlink" version="1.1">
<metadata>
Created by FontForge 20161003 at Wed Aug 30 06:36:59 2017
 By www-data
Copyright (c) 2014 by S-Core Co., Ltd.. All rights reserved.
</metadata>
<defs>
<font id="CoreSansD57CnBold" horiz-adv-x="278" >
  <font-face 
    font-family="Core Sans D 57 Cn Bold"
    font-weight="400"
    font-stretch="normal"
    units-per-em="1000"
    panose-1="2 11 8 6 3 3 2 2 2 4"
    ascent="800"
    descent="-200"
    x-height="500"
    cap-height="700"
    bbox="-339 -238 826 958"
    underline-thickness="24"
    underline-position="-183"
    stemh="104"
    stemv="106"
    unicode-range="U+0008-FB04"
  />
<missing-glyph horiz-adv-x="500" 
d="M430 0h-360v750h360v-750zM145 65h210v620h-210v-620z" />
    <glyph glyph-name="f_f" unicode="ff" horiz-adv-x="478" 
d="M64 500v54c0 116 35 158 132 158c20 0 43 -2 64 -6l-7 -93c-12 2 -27 3 -39 3c-34 0 -44 -14 -44 -65v-51h118v54c0 116 36 158 130 158h50v-95h-31c-33 0 -43 -14 -43 -65v-52h74v-95h-74v-405h-106v405h-118v-405h-106v405h-49v95h49z" />
    <glyph glyph-name="f_i" unicode="fi" horiz-adv-x="441" 
d="M289 0v405h-119v-405h-106v405h-49v95h49v54c0 116 36 158 130 158h50v-95h-31c-33 0 -43 -14 -43 -65v-52h225v-500h-106zM289 590v122h106v-122h-106z" />
    <glyph glyph-name="f_l" unicode="fl" horiz-adv-x="473" 
d="M288 157v445c-17 9 -42 14 -65 14c-40 0 -53 -16 -53 -67v-49h74v-95h-74v-405h-106v405h-49v95h49v40c0 125 38 172 131 172c33 0 70 -10 93 -22v22h105v-552c0 -51 10 -65 43 -65h24v-95h-48c-88 0 -124 41 -124 157z" />
    <glyph glyph-name="f_f_i" unicode="ffi" horiz-adv-x="665" 
d="M513 0v405h-119v-405h-106v405h-118v-405h-106v405h-49v95h49v54c0 116 35 158 132 158c20 0 43 -2 64 -6l-7 -93c-12 2 -27 3 -39 3c-34 0 -44 -14 -44 -65v-51h118v54c0 116 36 158 130 158h50v-95h-31c-33 0 -43 -14 -43 -65v-52h225v-500h-106zM513 590v122h106v-122
h-106z" />
    <glyph glyph-name="f_f_l" unicode="ffl" horiz-adv-x="697" 
d="M170 551v-51h118v40c0 125 38 172 131 172c33 0 70 -10 93 -22v22h105v-552c0 -51 10 -65 43 -65h24v-95h-48c-88 0 -124 41 -124 157v445c-17 9 -42 14 -65 14c-40 0 -53 -16 -53 -67v-49h74v-95h-74v-405h-106v405h-118v-405h-106v405h-49v95h49v54
c0 116 35 158 132 158c20 0 43 -2 64 -6l-7 -93c-12 2 -27 3 -39 3c-34 0 -44 -14 -44 -65z" />
    <glyph glyph-name=".notdef" horiz-adv-x="500" 
d="M430 0h-360v750h360v-750zM145 65h210v620h-210v-620z" />
    <glyph glyph-name=".null" horiz-adv-x="0" 
 />
    <glyph glyph-name=".null" horiz-adv-x="0" 
 />
    <glyph glyph-name=".null" horiz-adv-x="0" 
 />
    <glyph glyph-name="CR" unicode="&#x9;" horiz-adv-x="156" 
 />
    <glyph glyph-name="CR" unicode="&#xd;" horiz-adv-x="156" 
 />
    <glyph glyph-name="space" unicode=" " horiz-adv-x="182" 
 />
    <glyph glyph-name="exclam" unicode="!" horiz-adv-x="220" 
d="M69 218l-15 378v104h112v-104l-15 -378h-82zM164 118v-118h-108v118h108z" />
    <glyph glyph-name="quotedbl" unicode="&#x22;" horiz-adv-x="345" 
d="M62 487l-13 213h101l-13 -213h-75zM208 487l-13 213h101l-13 -213h-75z" />
    <glyph glyph-name="numbersign" unicode="#" horiz-adv-x="497" 
d="M229 0l26 172h-69l-26 -172h-104l26 172h-60v101h76l24 154h-75v101h90l27 172h104l-27 -172h69l27 172h104l-27 -172h61v-101h-76l-24 -154h75v-101h-91l-26 -172h-104zM226 427l-24 -154h69l24 154h-69z" />
    <glyph glyph-name="dollar" unicode="$" horiz-adv-x="419" 
d="M148 705v82h104v-80c84 -17 125 -83 125 -187v-18l-116 -5v25c0 58 -18 86 -57 86s-57 -28 -57 -86v-13c0 -55 17 -81 70 -97l36 -11c104 -32 139 -89 139 -200v-18c0 -104 -45 -172 -130 -190v-80h-104v81c-83 19 -126 87 -126 189v12l116 6v-19c0 -63 24 -90 64 -90
s64 27 64 90v19c0 55 -16 80 -70 97l-38 12c-102 32 -137 87 -137 199v14c0 94 35 162 117 182z" />
    <glyph glyph-name="percent" unicode="%" horiz-adv-x="616" 
d="M145 335c-72 0 -107 52 -107 123v131c0 71 35 123 107 123s107 -52 107 -123v-131c0 -71 -35 -123 -107 -123zM145 632c-15 0 -22 -11 -22 -33v-151c0 -22 7 -33 22 -33s22 11 22 33v151c0 22 -7 33 -22 33zM452 700l-208 -700h-80l208 700h80zM471 -12
c-72 0 -107 52 -107 123v131c0 71 35 123 107 123s107 -52 107 -123v-131c0 -71 -35 -123 -107 -123zM471 285c-15 0 -22 -11 -22 -33v-151c0 -22 7 -33 22 -33s22 11 22 33v151c0 22 -7 33 -22 33z" />
    <glyph glyph-name="ampersand" unicode="&#x26;" horiz-adv-x="471" 
d="M393 129l80 -129h-108l-25 40c-32 -33 -76 -52 -133 -52c-111 0 -176 71 -176 191v10c0 76 24 134 77 187l15 15l-9 14c-34 55 -50 94 -50 145v20c0 87 51 141 131 141c82 0 128 -58 128 -144v-15c0 -85 -18 -126 -73 -181l-4 -4l75 -122c6 39 8 81 9 120l97 -6
c-2 -84 -10 -166 -34 -230zM137 185v-7c0 -58 26 -92 74 -92c32 0 56 17 73 44l-106 172l-8 -9c-20 -23 -33 -55 -33 -108zM194 452l8 9c18 20 24 40 24 79v26c0 36 -14 51 -32 51c-22 0 -33 -15 -33 -51v-23c0 -24 5 -46 20 -70z" />
    <glyph glyph-name="quotesingle" unicode="'" horiz-adv-x="199" 
d="M62 488l-13 212h101l-13 -212h-75z" />
    <glyph glyph-name="parenleft" unicode="(" horiz-adv-x="269" 
d="M155 519v-347c0 -96 34 -153 88 -175l-33 -105c-109 40 -165 137 -165 269v369c0 132 56 229 165 269l33 -105c-54 -22 -88 -79 -88 -175z" />
    <glyph glyph-name="parenright" unicode=")" horiz-adv-x="269" 
d="M114 172v347c0 96 -34 153 -88 175l33 105c109 -40 165 -137 165 -269v-369c0 -132 -56 -229 -165 -269l-33 105c54 22 88 79 88 175z" />
    <glyph glyph-name="asterisk" unicode="*" horiz-adv-x="405" 
d="M155 143l10 115l-94 -67l-49 86l106 47l-106 50l48 82l94 -66l-11 116h99l-11 -116l94 66l48 -82l-106 -50l106 -47l-49 -86l-94 67l10 -115h-95z" />
    <glyph glyph-name="plus" unicode="+" horiz-adv-x="413" 
d="M33 280v90h123v136h101v-136h123v-90h-123v-136h-101v136h-123z" />
    <glyph glyph-name="comma" unicode="," horiz-adv-x="194" 
d="M94 0h-53v122h112v-130c0 -75 -32 -111 -112 -117v51c37 6 53 21 53 64v10z" />
    <glyph glyph-name="hyphen" unicode="-" horiz-adv-x="302" 
d="M33 278v94h236v-94h-236z" />
    <glyph glyph-name="period" unicode="." horiz-adv-x="194" 
d="M153 122v-122h-112v122h112z" />
    <glyph glyph-name="slash" unicode="/" horiz-adv-x="333" 
d="M336 783l-229 -876h-110l229 876h110z" />
    <glyph glyph-name="zero" unicode="0" horiz-adv-x="388" 
d="M142 518v-336c0 -74 20 -95 52 -95s52 21 52 95v336c0 74 -20 95 -52 95s-52 -21 -52 -95zM357 512v-324c0 -129 -58 -200 -163 -200s-163 71 -163 200v324c0 129 58 200 163 200s163 -71 163 -200z" />
    <glyph glyph-name="one" unicode="1" horiz-adv-x="388" 
d="M354 0h-290v99h90v475l-90 -41v108l112 59h89v-601h89v-99z" />
    <glyph glyph-name="two" unicode="2" horiz-adv-x="388" 
d="M194 613c-28 0 -47 -20 -47 -91v-47l-111 5v44c0 126 57 188 158 188c102 0 159 -62 159 -188v-27c0 -60 -13 -100 -48 -162l-133 -236h181v-99h-318v81l179 318c19 34 28 63 28 98v25c0 71 -19 91 -48 91z" />
    <glyph glyph-name="three" unicode="3" horiz-adv-x="388" 
d="M357 252v-65c0 -129 -57 -199 -163 -199s-163 70 -163 200v34l111 5v-36c0 -82 18 -105 52 -105s52 23 52 105v49c0 84 -18 112 -50 112c-17 0 -28 -7 -38 -15l-57 56l113 208h-167v99h292v-91l-99 -178c77 -2 117 -68 117 -179z" />
    <glyph glyph-name="four" unicode="4" horiz-adv-x="388" 
d="M115 235h95v262zM370 235v-98h-51v-137h-109v137h-193v86l179 477h123v-465h51z" />
    <glyph glyph-name="five" unicode="5" horiz-adv-x="388" 
d="M359 249v-63c0 -128 -57 -198 -163 -198s-163 70 -163 200v36l111 5v-38c0 -82 18 -104 52 -104s52 22 52 104v56c0 103 -14 126 -47 126c-23 0 -34 -20 -38 -45h-109v372h279v-99h-168v-163c13 21 36 33 69 33c81 0 125 -67 125 -222z" />
    <glyph glyph-name="six" unicode="6" horiz-adv-x="388" 
d="M359 219v-22c0 -134 -56 -209 -165 -209s-165 75 -165 209v30c0 69 9 120 27 169l110 304h118l-99 -268c5 2 14 4 21 4c101 0 153 -80 153 -217zM140 227v-30c0 -82 14 -111 54 -111s54 29 54 111v30c0 82 -14 111 -54 111s-54 -29 -54 -111z" />
    <glyph glyph-name="seven" unicode="7" horiz-adv-x="388" 
d="M35 601v99h317v-86l-161 -614h-114l157 601h-199z" />
    <glyph glyph-name="eight" unicode="8" horiz-adv-x="388" 
d="M194 -12c-114 0 -166 78 -166 211v22c0 87 24 141 69 165c-34 22 -52 65 -52 127v22c0 114 55 177 149 177s149 -63 149 -177v-22c0 -62 -18 -105 -52 -127c45 -24 69 -78 69 -165v-22c0 -133 -52 -211 -166 -211zM194 615c-31 0 -44 -26 -44 -81v-23
c0 -55 13 -81 44 -81s44 26 44 81v23c0 55 -13 81 -44 81zM194 334c-40 0 -58 -29 -58 -114v-19c0 -85 18 -114 58 -114s58 29 58 114v19c0 85 -18 114 -58 114z" />
    <glyph glyph-name="nine" unicode="9" horiz-adv-x="388" 
d="M29 481v22c0 134 56 209 165 209s165 -75 165 -209v-30c0 -69 -9 -120 -27 -169l-110 -304h-118l99 268c-5 -2 -14 -4 -21 -4c-101 0 -153 80 -153 217zM248 473v30c0 82 -14 111 -54 111s-54 -29 -54 -111v-30c0 -82 14 -111 54 -111s54 29 54 111z" />
    <glyph glyph-name="colon" unicode=":" horiz-adv-x="194" 
d="M153 122v-122h-112v122h112zM153 549v-122h-112v122h112z" />
    <glyph glyph-name="semicolon" unicode=";" horiz-adv-x="194" 
d="M153 549v-122h-112v122h112zM94 0h-53v122h112v-130c0 -75 -32 -111 -112 -117v51c37 6 53 21 53 64v10z" />
    <glyph glyph-name="less" unicode="&#x3c;" horiz-adv-x="413" 
d="M371 132l-329 143v96l329 143v-99l-226 -92l226 -92v-99z" />
    <glyph glyph-name="equal" unicode="=" horiz-adv-x="413" 
d="M33 367v90h347v-90h-347zM33 195v90h347v-90h-347z" />
    <glyph glyph-name="greater" unicode="&#x3e;" horiz-adv-x="413" 
d="M371 275l-329 -143v99l226 92l-226 92v99l329 -143v-96z" />
    <glyph glyph-name="question" unicode="?" horiz-adv-x="380" 
d="M242 118v-118h-108v118h108zM341 536v-30c0 -74 -16 -120 -56 -168c-33 -40 -43 -70 -43 -124v-26h-108v35c0 84 10 122 58 174c28 31 42 64 42 106v24c-1 58 -20 79 -48 79s-47 -21 -47 -79v-25l-108 5v29c0 117 59 176 155 176s155 -59 155 -176z" />
    <glyph glyph-name="at" unicode="@" horiz-adv-x="538" 
d="M399 204v142c-11 19 -31 31 -53 31c-37 0 -54 -23 -54 -103v-70c0 -78 17 -102 53 -102s54 24 54 102zM269 -189c-145 0 -224 93 -224 249v403c0 156 79 249 224 249s224 -93 224 -249v-266c0 -122 -46 -189 -151 -189c-99 0 -150 66 -150 191v82c0 119 45 190 137 190
c27 0 53 -12 70 -33v15c0 129 -53 167 -130 167s-130 -38 -130 -167v-383c0 -129 53 -167 130 -167c27 0 53 7 78 22l35 -78c-33 -24 -73 -36 -113 -36z" />
    <glyph glyph-name="A" unicode="A" horiz-adv-x="444" 
d="M321 0l-29 142h-140l-29 -142h-119l160 700h116l160 -700h-119zM222 486l-48 -240h96z" />
    <glyph glyph-name="B" unicode="B" horiz-adv-x="429" 
d="M217 0h-171v700h162c110 0 181 -57 181 -195c0 -67 -28 -119 -71 -140c51 -23 85 -78 85 -160c0 -139 -70 -205 -186 -205zM208 307h-46v-203h44c54 0 81 29 81 103c0 71 -27 100 -79 100zM162 411h32c54 0 79 26 79 91c0 66 -25 94 -79 94h-32v-185z" />
    <glyph glyph-name="C" unicode="C" horiz-adv-x="438" 
d="M223 92c50 0 73 40 73 132v12l116 -5v-22c0 -149 -75 -221 -189 -221s-189 72 -189 221v282c0 149 75 221 189 221s189 -72 189 -221v-22l-116 -5v12c0 92 -23 132 -73 132s-73 -40 -73 -132v-252c0 -92 23 -132 73 -132z" />
    <glyph glyph-name="D" unicode="D" horiz-adv-x="437" 
d="M214 0h-168v700h168c126 0 189 -69 189 -218v-264c0 -149 -63 -218 -189 -218zM162 104h52c50 0 73 28 73 119v254c0 91 -23 119 -73 119h-52v-492z" />
    <glyph glyph-name="E" unicode="E" horiz-adv-x="399" 
d="M46 0v700h323v-104h-207v-185h178v-104h-178v-203h207v-104h-323z" />
    <glyph glyph-name="F" unicode="F" horiz-adv-x="385" 
d="M46 0v700h323v-104h-207v-194h185v-104h-185v-298h-116z" />
    <glyph glyph-name="G" unicode="G" horiz-adv-x="441" 
d="M223 272v100h189v-163c0 -149 -75 -221 -189 -221s-189 72 -189 221v282c0 149 75 221 189 221s189 -72 189 -221v-22l-116 -5v12c0 92 -23 132 -73 132s-73 -40 -73 -132v-252c0 -92 23 -132 73 -132s73 40 73 132v48h-73z" />
    <glyph glyph-name="H" unicode="H" horiz-adv-x="454" 
d="M292 0v307h-130v-307h-116v700h116v-289h130v289h116v-700h-116z" />
    <glyph glyph-name="I" unicode="I" horiz-adv-x="208" 
d="M162 700v-700h-116v700h116z" />
    <glyph glyph-name="J" unicode="J" horiz-adv-x="395" 
d="M11 186v11l116 5v-6c0 -81 22 -104 55 -104s55 23 55 104v504h116v-514c0 -129 -63 -198 -171 -198s-171 69 -171 198z" />
    <glyph glyph-name="K" unicode="K" horiz-adv-x="438" 
d="M392 700v-52c0 -124 -17 -191 -84 -264l130 -384h-121l-97 302l-58 -53v-249h-116v700h116v-302l35 33c62 60 79 109 79 218v51h116z" />
    <glyph glyph-name="L" unicode="L" horiz-adv-x="380" 
d="M46 0v700h116v-596h210v-104h-326z" />
    <glyph glyph-name="M" unicode="M" horiz-adv-x="554" 
d="M240 177l-80 220v-397h-114v700h103l128 -365l128 365h103v-700h-114v397l-80 -220h-74z" />
    <glyph glyph-name="N" unicode="N" horiz-adv-x="470" 
d="M321 0l-161 429v-429h-114v700h103l161 -429v429h114v-700h-103z" />
    <glyph glyph-name="O" unicode="O" horiz-adv-x="446" 
d="M296 224v252c0 92 -23 132 -73 132s-73 -40 -73 -132v-252c0 -92 23 -132 73 -132s73 40 73 132zM412 491v-282c0 -149 -75 -221 -189 -221s-189 72 -189 221v282c0 149 75 221 189 221s189 -72 189 -221z" />
    <glyph glyph-name="P" unicode="P" horiz-adv-x="430" 
d="M211 256h-49v-256h-116v700h165c110 0 192 -69 192 -222s-82 -222 -192 -222zM287 478c0 73 -27 117 -92 117h-33v-234h33c65 0 92 44 92 117z" />
    <glyph glyph-name="Q" unicode="Q" horiz-adv-x="446" 
d="M412 491v-282c0 -56 -10 -102 -30 -136l57 -52l-56 -59l-57 52c-28 -17 -64 -26 -103 -26c-114 0 -189 72 -189 221v282c0 149 75 221 189 221s189 -72 189 -221zM250 195l40 -37c4 18 6 40 6 66v252c0 92 -23 132 -73 132s-73 -40 -73 -132v-252c0 -92 23 -132 73 -132
c6 0 11 0 17 1l-46 43z" />
    <glyph glyph-name="R" unicode="R" horiz-adv-x="436" 
d="M162 268v-268h-116v700h165c110 0 192 -63 192 -216c0 -96 -32 -156 -83 -188l104 -296h-121l-87 268h-54zM287 484c0 73 -27 111 -92 111h-33v-222h33c65 0 92 38 92 111z" />
    <glyph glyph-name="S" unicode="S" horiz-adv-x="419" 
d="M32 183v12l116 6v-19c0 -63 24 -90 64 -90s64 27 64 90v19c0 55 -16 80 -70 97l-38 12c-102 32 -137 87 -137 199v14c0 113 51 189 173 189c118 0 169 -69 173 -192v-18l-116 -5v25c0 58 -18 86 -57 86s-57 -28 -57 -86v-13c0 -55 17 -81 70 -97l36 -11
c104 -32 139 -89 139 -200v-18c0 -122 -63 -195 -180 -195s-180 73 -180 195z" />
    <glyph glyph-name="T" unicode="T" horiz-adv-x="386" 
d="M9 596v104h368v-104h-126v-596h-116v596h-126z" />
    <glyph glyph-name="U" unicode="U" horiz-adv-x="458" 
d="M229 -12c-114 0 -188 72 -188 217v495h116v-480c0 -88 21 -128 72 -128s72 40 72 128v480h116v-495c0 -145 -74 -217 -188 -217z" />
    <glyph glyph-name="V" unicode="V" horiz-adv-x="434" 
d="M275 0h-116l-154 700h118l94 -480l94 480h118z" />
    <glyph glyph-name="W" unicode="W" horiz-adv-x="670" 
d="M391 700l77 -458l76 458h118l-136 -700h-111l-80 474l-80 -474h-111l-136 700h118l76 -458l78 458h111z" />
    <glyph glyph-name="X" unicode="X" horiz-adv-x="444" 
d="M313 0l-91 251l-91 -251h-120l135 362l-125 338h120l81 -228l81 228h120l-125 -338l135 -362h-120z" />
    <glyph glyph-name="Y" unicode="Y" horiz-adv-x="426" 
d="M155 0v317l-147 383h119l86 -248l86 248h119l-147 -383v-317h-116z" />
    <glyph glyph-name="Z" unicode="Z" horiz-adv-x="383" 
d="M26 85l196 511h-189v104h324v-85l-196 -511h196v-104h-331v85z" />
    <glyph glyph-name="bracketleft" unicode="[" horiz-adv-x="262" 
d="M52 -93v876h188v-101h-79v-674h79v-101h-188z" />
    <glyph glyph-name="backslash" unicode="\" horiz-adv-x="333" 
d="M226 -93l-229 876h110l229 -876h-110z" />
    <glyph glyph-name="bracketright" unicode="]" horiz-adv-x="262" 
d="M210 783v-876h-188v101h79v674h-79v101h188z" />
    <glyph glyph-name="asciicircum" unicode="^" horiz-adv-x="358" 
d="M225 700l118 -218h-98l-66 123l-66 -123h-98l118 218h92z" />
    <glyph glyph-name="underscore" unicode="_" horiz-adv-x="350" 
d="M0 -172v72h350v-72h-350z" />
    <glyph glyph-name="grave" unicode="`" 
d="M153 569l-83 161h101l58 -161h-76z" />
    <glyph glyph-name="a" unicode="a" horiz-adv-x="379" 
d="M178 83c24 0 46 17 58 46v79h-51c-38 0 -55 -21 -55 -63v-9c0 -34 15 -53 48 -53zM43 356v5c0 92 52 151 149 151s149 -59 149 -151v-361h-105v40c-16 -36 -47 -52 -89 -52c-66 0 -122 46 -122 143v13c0 96 59 154 159 154h52v55c0 45 -16 64 -44 64s-44 -19 -44 -64v-3z
" />
    <glyph glyph-name="b" unicode="b" horiz-adv-x="391" 
d="M146 375v-251c9 -26 28 -41 54 -41c35 0 55 27 55 86v161c0 59 -20 86 -55 86c-26 0 -45 -15 -54 -41zM361 339v-179c0 -122 -59 -172 -129 -172c-40 0 -72 18 -86 48v-36h-106v712h106v-249c14 30 46 48 86 48c70 0 129 -50 129 -172z" />
    <glyph glyph-name="c" unicode="c" horiz-adv-x="375" 
d="M190 83c34 0 54 26 54 90v3l106 -5v-3c0 -114 -63 -180 -160 -180s-160 66 -160 180v164c0 114 63 180 160 180s160 -66 160 -180v-3l-106 -5v3c0 64 -20 90 -54 90s-54 -26 -54 -90v-154c0 -64 20 -90 54 -90z" />
    <glyph glyph-name="d" unicode="d" horiz-adv-x="391" 
d="M245 124v251c-9 26 -28 41 -54 41c-35 0 -55 -27 -55 -86v-161c0 -59 20 -86 55 -86c26 0 45 15 54 41zM30 160v179c0 122 59 172 129 172c40 0 72 -18 86 -48v249h106v-712h-106v36c-14 -30 -46 -48 -86 -48c-70 0 -129 50 -129 172z" />
    <glyph glyph-name="e" unicode="e" horiz-adv-x="380" 
d="M242 146l106 -7c-9 -97 -69 -151 -158 -151c-97 0 -160 66 -160 180v164c0 114 63 180 160 180s160 -66 160 -180v-123h-214v-36c0 -64 20 -90 54 -90c30 0 48 21 52 63zM136 327v-28h108v28c0 64 -20 90 -54 90s-54 -26 -54 -90z" />
    <glyph glyph-name="f" unicode="f" horiz-adv-x="254" 
d="M15 405v95h49v54c0 116 36 158 130 158h50v-95h-31c-33 0 -43 -14 -43 -65v-52h74v-95h-74v-405h-106v405h-49z" />
    <glyph glyph-name="g" unicode="g" horiz-adv-x="391" 
d="M30 160v179c0 122 59 172 129 172c40 0 72 -18 86 -48v37h106v-562c0 -110 -60 -170 -156 -170c-92 0 -150 54 -157 153l106 7c5 -46 24 -64 50 -64c30 0 51 20 51 87v85c-14 -30 -46 -48 -86 -48c-70 0 -129 50 -129 172zM245 124v251c-9 26 -28 41 -54 41
c-35 0 -55 -27 -55 -86v-161c0 -59 20 -86 55 -86c26 0 45 15 54 41z" />
    <glyph glyph-name="h" unicode="h" horiz-adv-x="399" 
d="M146 366v-366h-106v712h106v-254c15 31 47 54 90 54c81 0 125 -62 125 -169v-343h-106v337c0 59 -19 80 -51 80c-29 0 -51 -20 -58 -51z" />
    <glyph glyph-name="i" unicode="i" horiz-adv-x="198" 
d="M46 0v500h106v-500h-106zM46 590v122h106v-122h-106z" />
    <glyph glyph-name="j" unicode="j" horiz-adv-x="198" 
d="M46 590v122h106v-122h-106zM152 500v-549c0 -122 -42 -163 -139 -163h-34v96h23c36 0 44 16 44 68v548h106z" />
    <glyph glyph-name="k" unicode="k" horiz-adv-x="373" 
d="M340 500v-21c0 -103 -16 -152 -68 -202l100 -277h-111l-68 204l-48 -44v-160h-105v712h105v-417l30 28c51 47 60 78 60 152v25h105z" />
    <glyph glyph-name="l" unicode="l" horiz-adv-x="229" 
d="M44 157v555h105v-552c0 -51 10 -65 43 -65h24v-95h-48c-88 0 -124 41 -124 157z" />
    <glyph glyph-name="m" unicode="m" horiz-adv-x="613" 
d="M146 366v-366h-106v500h106v-42c15 31 47 54 90 54c47 0 82 -22 102 -60c22 36 58 60 107 60c88 0 130 -59 130 -169v-343h-105v337c0 58 -20 80 -52 80c-25 0 -46 -17 -57 -44v-373h-106v337c0 59 -19 80 -51 80c-29 0 -51 -20 -58 -51z" />
    <glyph glyph-name="n" unicode="n" horiz-adv-x="399" 
d="M146 366v-366h-106v500h106v-42c15 31 47 54 90 54c81 0 125 -62 125 -169v-343h-106v337c0 59 -19 80 -51 80c-29 0 -51 -20 -58 -51z" />
    <glyph glyph-name="o" unicode="o" horiz-adv-x="380" 
d="M136 327v-154c0 -64 20 -90 54 -90s54 26 54 90v154c0 64 -20 90 -54 90s-54 -26 -54 -90zM350 332v-164c0 -114 -63 -180 -160 -180s-160 66 -160 180v164c0 114 63 180 160 180s160 -66 160 -180z" />
    <glyph glyph-name="p" unicode="p" horiz-adv-x="391" 
d="M146 376v-251c9 -26 28 -41 54 -41c35 0 55 27 55 86v161c0 59 -20 86 -55 86c-26 0 -45 -15 -54 -41zM361 340v-179c0 -122 -59 -172 -129 -172c-40 0 -72 18 -86 48v-255h-106v718h106v-36c14 30 46 48 86 48c70 0 129 -50 129 -172z" />
    <glyph glyph-name="q" unicode="q" horiz-adv-x="391" 
d="M245 125v251c-9 26 -28 41 -54 41c-35 0 -55 -27 -55 -86v-161c0 -59 20 -86 55 -86c26 0 45 15 54 41zM30 161v179c0 122 59 172 129 172c40 0 72 -18 86 -48v36h106v-718h-106v255c-14 -30 -46 -48 -86 -48c-70 0 -129 50 -129 172z" />
    <glyph glyph-name="r" unicode="r" horiz-adv-x="284" 
d="M40 0v500h106v-60c18 43 52 67 94 67c14 0 28 -2 37 -7v-105c-11 4 -28 7 -42 7c-40 0 -72 -22 -89 -65v-337h-106z" />
    <glyph glyph-name="s" unicode="s" horiz-adv-x="351" 
d="M138 146v-15c0 -31 14 -48 40 -48s40 17 40 48v10c0 38 -11 50 -50 63l-27 9c-81 27 -111 64 -111 155v9c0 77 46 135 140 135c96 0 142 -58 142 -135v-17l-106 -4v18c0 25 -10 43 -35 43s-35 -18 -35 -43v-6c0 -39 10 -50 49 -64l38 -14c72 -26 101 -60 101 -146v-15
c0 -86 -53 -141 -146 -141s-146 55 -146 141v13z" />
    <glyph glyph-name="t" unicode="t" horiz-adv-x="272" 
d="M11 405v95h48v142h106v-142h85v-95h-85v-245c0 -51 11 -65 43 -65h44v-95h-68c-88 0 -125 41 -125 157v248h-48z" />
    <glyph glyph-name="u" unicode="u" horiz-adv-x="399" 
d="M253 134v366h106v-500h-106v42c-15 -31 -47 -54 -90 -54c-81 0 -125 62 -125 169v343h106v-337c0 -59 19 -80 51 -80c29 0 51 20 58 51z" />
    <glyph glyph-name="v" unicode="v" horiz-adv-x="364" 
d="M235 0h-106l-126 500h108l71 -323l71 323h108z" />
    <glyph glyph-name="w" unicode="w" horiz-adv-x="576" 
d="M240 500h96l65 -310l60 310h109l-114 -500h-100l-68 326l-68 -326h-100l-114 500h109l60 -310z" />
    <glyph glyph-name="x" unicode="x" horiz-adv-x="354" 
d="M124 500l53 -152l53 152h112l-97 -244l103 -256h-113l-58 164l-58 -164h-113l103 256l-97 244h112z" />
    <glyph glyph-name="y" unicode="y" horiz-adv-x="367" 
d="M113 500l67 -293l74 293h108l-138 -543c-35 -138 -60 -168 -144 -168h-42v95h30c22 0 33 10 43 48l20 82l-126 486h108z" />
    <glyph glyph-name="z" unicode="z" horiz-adv-x="345" 
d="M316 500v-79l-161 -325h168v-96h-301v79l161 325h-153v96h286z" />
    <glyph glyph-name="braceleft" unicode="{" 
d="M23 296v98h7c31 0 51 16 51 54v183c0 109 50 152 161 152h17v-100h-17c-36 0 -51 -21 -51 -60v-156c0 -66 -17 -107 -69 -122c52 -15 69 -56 69 -122v-156c0 -39 15 -60 51 -60h17v-100h-17c-111 0 -161 43 -161 152v183c0 38 -20 54 -51 54h-7z" />
    <glyph glyph-name="bar" unicode="|" horiz-adv-x="242" 
d="M65 -93v876h112v-876h-112z" />
    <glyph glyph-name="braceright" unicode="}" 
d="M255 394v-98h-7c-31 0 -51 -16 -51 -54v-183c0 -109 -50 -152 -161 -152h-17v100h17c36 0 51 21 51 60v156c0 66 17 107 69 122c-52 15 -69 56 -69 122v156c0 39 -15 60 -51 60h-17v100h17c111 0 161 -43 161 -152v-183c0 -38 20 -54 51 -54h7z" />
    <glyph glyph-name="asciitilde" unicode="~" horiz-adv-x="413" 
d="M265 342c19 0 28 11 30 45l92 -4c-1 -86 -40 -129 -109 -129c-66 0 -92 49 -130 49c-19 0 -28 -11 -30 -45l-92 4c1 86 40 129 109 129c66 0 92 -49 130 -49z" />
    <glyph glyph-name="uni00A0" unicode="&#xa0;" horiz-adv-x="182" 
 />
    <glyph glyph-name="exclamdown" unicode="&#xa1;" horiz-adv-x="220" 
d="M54 -96c5 125 10 251 16 377h81c5 -126 10 -252 15 -377v-104h-112v104zM164 500v-119h-108v119h108z" />
    <glyph glyph-name="cent" unicode="&#xa2;" horiz-adv-x="375" 
d="M141 505v84h97v-83c69 -19 112 -80 112 -174v-3l-106 -5v3c0 64 -20 90 -54 90s-54 -26 -54 -90v-154c0 -64 20 -90 54 -90s54 26 54 90v3l106 -5v-3c0 -94 -43 -156 -112 -174v-82h-97v83c-69 18 -111 79 -111 173v164c0 93 42 154 111 173z" />
    <glyph glyph-name="sterling" unicode="&#xa3;" horiz-adv-x="430" 
d="M24 289v81h48v149c0 116 46 193 165 193s165 -77 165 -193v-16l-116 -5v23c0 58 -13 87 -49 87s-49 -29 -49 -87v-151h111v-81h-111v-57c0 -63 -10 -101 -28 -128h241v-104h-369v88c27 35 40 80 40 133v68h-48z" />
    <glyph glyph-name="currency" unicode="&#xa4;" horiz-adv-x="508" 
d="M413 97l-74 76c-25 -14 -54 -22 -85 -22s-60 8 -85 22l-74 -76l-62 62l73 74c-17 27 -26 58 -26 92c0 33 9 65 26 91l-73 75l62 62l74 -76c25 14 54 22 85 22s60 -8 85 -22l74 76l62 -62l-73 -75c16 -26 26 -58 26 -91c0 -34 -10 -65 -26 -92l73 -74zM340 325
c0 50 -36 90 -86 90s-86 -40 -86 -90s36 -90 86 -90s86 40 86 90z" />
    <glyph glyph-name="yen" unicode="&#xa5;" horiz-adv-x="424" 
d="M154 0v207h-95v63h95v49h-95v64h70l-121 317h119l85 -249l85 249h119l-121 -317h70v-64h-95v-49h95v-63h-95v-207h-116z" />
    <glyph glyph-name="brokenbar" unicode="&#xa6;" horiz-adv-x="243" 
d="M65 395v388h113v-388h-113zM65 -93v388h113v-388h-113z" />
    <glyph glyph-name="section" unicode="&#xa7;" horiz-adv-x="370" 
d="M82 415c-32 28 -43 69 -43 117v45c0 77 46 135 140 135s140 -58 140 -135v-20l-105 -4v21c0 25 -10 42 -35 42s-35 -17 -35 -42v-38c0 -41 16 -54 61 -68c85 -26 135 -61 135 -159v-68c0 -41 -17 -75 -53 -95c32 -28 43 -69 43 -117v-45c0 -77 -46 -135 -140 -135
s-140 58 -140 135v20l105 4v-21c0 -25 10 -42 35 -42s35 17 35 42v38c0 41 -16 54 -61 68c-85 26 -135 61 -135 159v68c0 41 17 75 53 95zM199 186c23 10 35 30 35 57v62c0 43 -17 57 -64 70c-23 -10 -35 -30 -35 -57v-62c0 -43 17 -57 64 -70z" />
    <glyph glyph-name="dieresis" unicode="&#xa8;" 
d="M111 699v-101h-94v101h94zM261 699v-101h-94v101h94z" />
    <glyph glyph-name="copyright" unicode="&#xa9;" horiz-adv-x="542" 
d="M238 437v-174c0 -41 9 -62 35 -62s34 21 34 62v13l75 -2v-12c0 -87 -44 -129 -109 -129s-110 42 -110 129v176c0 87 45 129 110 129s109 -42 109 -129v-12l-75 -2v13c0 41 -8 62 -34 62s-35 -21 -35 -62zM30 283v133c0 204 91 296 241 296s241 -92 241 -296v-133
c0 -203 -91 -295 -241 -295s-241 92 -241 295zM453 291v117c0 182 -69 250 -182 250s-182 -68 -182 -250v-117c0 -181 69 -249 182 -249s182 68 182 249z" />
    <glyph glyph-name="ordfeminine" unicode="&#xaa;" horiz-adv-x="296" 
d="M139 397c13 0 28 8 37 25v63h-21c-29 0 -45 -14 -45 -44v-11c0 -20 11 -33 29 -33zM122 589l-86 4v5c0 68 41 110 112 110c73 0 114 -42 114 -110v-265h-86v26c-12 -22 -37 -35 -65 -35c-53 0 -87 38 -87 103v13c0 69 43 110 125 110h27v43c0 29 -10 41 -27 41
s-27 -12 -27 -41v-4z" />
    <glyph glyph-name="guillemotleft" unicode="&#xab;" horiz-adv-x="370" 
d="M25 341l158 129v-95l-81 -63l81 -63v-95l-158 129v58zM187 341l158 129v-95l-81 -63l81 -63v-95l-158 129v58z" />
    <glyph glyph-name="logicalnot" unicode="&#xac;" horiz-adv-x="413" 
d="M31 280v90h341v-217h-101v127h-240z" />
    <glyph glyph-name="uni00AD" unicode="&#xad;" horiz-adv-x="302" 
d="M33 278v94h236v-94h-236z" />
    <glyph glyph-name="registered" unicode="&#xae;" horiz-adv-x="542" 
d="M30 283v133c0 204 91 296 241 296s241 -92 241 -296v-133c0 -203 -91 -295 -241 -295s-241 92 -241 295zM453 291v117c0 182 -69 250 -182 250s-182 -68 -182 -250v-117c0 -181 69 -249 182 -249s182 68 182 249zM394 424c0 -57 -19 -97 -52 -118l57 -166h-75l-50 150
h-25v-151h-75v419h101c75 0 119 -46 119 -134zM249 358h22c32 0 48 21 48 66v8c-2 43 -18 58 -48 58h-22v-132z" />
    <glyph glyph-name="macron" unicode="&#xaf;" 
d="M28 610v76h222v-76h-222z" />
    <glyph glyph-name="degree" unicode="&#xb0;" horiz-adv-x="272" 
d="M174 600c0 27 -16 43 -38 43s-38 -16 -38 -43s16 -43 38 -43s38 16 38 43zM246 600c0 -65 -44 -111 -110 -111s-110 46 -110 111s44 111 110 111s110 -46 110 -111z" />
    <glyph glyph-name="plusminus" unicode="&#xb1;" horiz-adv-x="413" 
d="M33 280v90h123v136h101v-136h123v-90h-123v-136h-101v136h-123zM33 0v90h347v-90h-347z" />
    <glyph glyph-name="twosuperior" unicode="&#xb2;" 
d="M46 558v17c0 88 42 133 116 133s116 -45 116 -133v-11c0 -41 -7 -72 -31 -109l-88 -137h119v-81h-230v69l122 193c14 22 18 44 18 65v13c0 34 -10 45 -26 45s-26 -11 -26 -45v-22z" />
    <glyph glyph-name="threesuperior" unicode="&#xb3;" 
d="M187 362v35c0 45 -8 58 -28 58c-8 0 -16 -4 -24 -10l-46 46l78 126h-112v83h210v-77l-65 -101c50 -3 77 -44 77 -118v-36c0 -90 -35 -139 -116 -139s-117 49 -117 139v18l90 3v-27c0 -36 7 -52 27 -52c21 0 26 17 26 52z" />
    <glyph glyph-name="acute" unicode="&#xb4;" 
d="M208 730l-83 -161h-76l58 161h101z" />
    <glyph glyph-name="mu" unicode="&#xb5;" horiz-adv-x="402" 
d="M146 500v-334c0 -62 18 -83 51 -83c29 0 52 20 59 51v366h106v-500h-106v38c-11 -34 -36 -50 -67 -50c-18 0 -34 7 -43 15v-221h-106v718h106z" />
    <glyph glyph-name="paragraph" unicode="&#xb6;" horiz-adv-x="392" 
d="M173 700h173v-831h-66v756h-29v-756h-66v398c-91 0 -156 64 -156 200v33c0 136 50 200 144 200z" />
    <glyph glyph-name="periodcentered" unicode="&#xb7;" horiz-adv-x="194" 
d="M153 386v-122h-112v122h112z" />
    <glyph glyph-name="cedilla" unicode="&#xb8;" 
d="M43 -204l42 59c9 -8 21 -14 34 -14c14 0 23 9 23 26c0 20 -14 33 -44 40l-6 8l25 85h79l-17 -58c37 -18 56 -48 56 -82v-6c0 -55 -37 -92 -101 -92c-35 0 -68 12 -91 34z" />
    <glyph glyph-name="onesuperior" unicode="&#xb9;" 
d="M254 237h-208v81h60v289l-60 -26v83l76 36h73v-382h59v-81z" />
    <glyph glyph-name="ordmasculine" unicode="&#xba;" horiz-adv-x="296" 
d="M268 583v-134c0 -78 -47 -125 -120 -125s-120 47 -120 125v134c0 78 47 125 120 125s120 -47 120 -125zM182 464v104c0 43 -8 66 -34 66s-34 -23 -34 -66v-104c0 -43 8 -66 34 -66s34 23 34 66z" />
    <glyph glyph-name="guillemotright" unicode="&#xbb;" horiz-adv-x="370" 
d="M187 470l158 -129v-58l-158 -129v95l81 63l-81 63v95zM25 470l158 -129v-58l-158 -129v95l81 63l-81 63v95z" />
    <glyph glyph-name="onequarter" unicode="&#xbc;" horiz-adv-x="696" 
d="M504 700l-230 -700h-83l230 700h83zM254 237h-208v81h60v289l-60 -26v83l76 36h73v-382h59v-81zM518 167h55v128zM692 167v-81h-34v-86h-85v86h-132v72l132 305h85v-296h34z" />
    <glyph glyph-name="onehalf" unicode="&#xbd;" horiz-adv-x="696" 
d="M254 237h-208v81h60v289l-60 -26v83l76 36h73v-382h59v-81zM504 700l-230 -700h-83l230 700h83zM464 321v17c0 88 42 133 116 133s116 -45 116 -133v-11c0 -41 -7 -72 -31 -109l-88 -137h119v-81h-230v69l122 193c14 22 18 44 18 65v13c0 34 -10 45 -26 45
s-26 -11 -26 -45v-22z" />
    <glyph glyph-name="threequarters" unicode="&#xbe;" horiz-adv-x="696" 
d="M187 362v35c0 45 -8 58 -28 58c-8 0 -16 -4 -24 -10l-46 46l78 126h-112v83h210v-77l-65 -101c50 -3 77 -44 77 -118v-36c0 -90 -35 -139 -116 -139s-117 49 -117 139v18l90 3v-27c0 -36 7 -52 27 -52c21 0 26 17 26 52zM504 700l-230 -700h-83l230 700h83zM518 167h55
v128zM692 167v-81h-34v-86h-85v86h-132v72l132 305h85v-296h34z" />
    <glyph glyph-name="questiondown" unicode="&#xbf;" horiz-adv-x="380" 
d="M138 382v118h108v-118h-108zM39 -6v-30c0 -117 59 -176 155 -176s155 59 155 176v29l-108 5v-25c0 -58 -19 -79 -47 -79s-47 21 -48 79v24c0 42 14 75 42 106c48 52 58 90 58 174v35h-108v-26c0 -54 -10 -84 -43 -124c-40 -48 -56 -94 -56 -168z" />
    <glyph glyph-name="Agrave" unicode="&#xc0;" horiz-adv-x="444" 
d="M321 0l-29 142h-140l-29 -142h-119l160 700h116l160 -700h-119zM222 486l-48 -240h96zM196 763l-83 161h101l58 -161h-76z" />
    <glyph glyph-name="Aacute" unicode="&#xc1;" horiz-adv-x="444" 
d="M321 0l-29 142h-140l-29 -142h-119l160 700h116l160 -700h-119zM222 486l-48 -240h96zM332 924l-83 -161h-76l58 161h101z" />
    <glyph glyph-name="Acircumflex" unicode="&#xc2;" horiz-adv-x="444" 
d="M321 0l-29 142h-140l-29 -142h-119l160 700h116l160 -700h-119zM222 486l-48 -240h96zM99 763l82 161h82l82 -161h-74l-49 76l-49 -76h-74z" />
    <glyph glyph-name="Atilde" unicode="&#xc3;" horiz-adv-x="444" 
d="M321 0l-29 142h-140l-29 -142h-119l160 700h116l160 -700h-119zM222 486l-48 -240h96zM219 800c-17 15 -24 18 -32 18c-11 0 -18 -10 -20 -39l-71 7c3 87 32 119 75 119c20 0 38 -9 55 -23c16 -15 24 -18 32 -18c11 0 18 10 20 38l71 -6c-3 -88 -33 -120 -75 -120
c-20 0 -39 9 -55 24z" />
    <glyph glyph-name="Adieresis" unicode="&#xc4;" horiz-adv-x="444" 
d="M321 0l-29 142h-140l-29 -142h-119l160 700h116l160 -700h-119zM222 486l-48 -240h96zM194 893v-101h-94v101h94zM344 893v-101h-94v101h94z" />
    <glyph glyph-name="Aring" unicode="&#xc5;" horiz-adv-x="444" 
d="M321 0l-29 142h-140l-29 -142h-119l160 700h116l160 -700h-119zM222 486l-48 -240h96zM311 841c0 -55 -40 -87 -89 -87s-89 32 -89 87s40 87 89 87s89 -32 89 -87zM192 841c0 -20 11 -34 30 -34s30 14 30 34s-11 34 -30 34s-30 -14 -30 -34z" />
    <glyph glyph-name="AE" unicode="&#xc6;" horiz-adv-x="645" 
d="M283 142h-130l-41 -142h-124l216 700h402v-104h-207v-185h178v-104h-178v-203h207v-104h-323v142zM283 582l-99 -336h99v336z" />
    <glyph glyph-name="Ccedilla" unicode="&#xc7;" horiz-adv-x="438" 
d="M123 -204l42 59c9 -8 21 -14 34 -14c14 0 23 9 23 26c0 20 -14 33 -44 40l-6 8l22 75c-98 11 -160 83 -160 219v282c0 149 75 221 189 221s189 -72 189 -221v-22l-116 -5v12c0 92 -23 132 -73 132s-73 -40 -73 -132v-252c0 -92 23 -132 73 -132s73 40 73 132v12l116 -5
v-22c0 -126 -53 -196 -138 -215l-15 -52c37 -18 56 -48 56 -82v-6c0 -55 -37 -92 -101 -92c-35 0 -68 12 -91 34z" />
    <glyph glyph-name="Egrave" unicode="&#xc8;" horiz-adv-x="399" 
d="M46 0v700h323v-104h-207v-185h178v-104h-178v-203h207v-104h-323zM193 763l-83 161h101l58 -161h-76z" />
    <glyph glyph-name="Eacute" unicode="&#xc9;" horiz-adv-x="399" 
d="M46 0v700h323v-104h-207v-185h178v-104h-178v-203h207v-104h-323zM299 924l-83 -161h-76l58 161h101z" />
    <glyph glyph-name="Ecircumflex" unicode="&#xca;" horiz-adv-x="399" 
d="M46 0v700h323v-104h-207v-185h178v-104h-178v-203h207v-104h-323zM83 763l82 161h82l82 -161h-74l-49 76l-49 -76h-74z" />
    <glyph glyph-name="Edieresis" unicode="&#xcb;" horiz-adv-x="399" 
d="M46 0v700h323v-104h-207v-185h178v-104h-178v-203h207v-104h-323zM181 893v-101h-94v101h94zM331 893v-101h-94v101h94z" />
    <glyph glyph-name="Igrave" unicode="&#xcc;" horiz-adv-x="208" 
d="M162 700v-700h-116v700h116zM80 763l-83 161h101l58 -161h-76z" />
    <glyph glyph-name="Iacute" unicode="&#xcd;" horiz-adv-x="208" 
d="M162 700v-700h-116v700h116zM211 924l-83 -161h-76l58 161h101z" />
    <glyph glyph-name="Icircumflex" unicode="&#xce;" horiz-adv-x="208" 
d="M162 700v-700h-116v700h116zM-19 763l82 161h82l82 -161h-74l-49 76l-49 -76h-74z" />
    <glyph glyph-name="Idieresis" unicode="&#xcf;" horiz-adv-x="208" 
d="M162 700v-700h-116v700h116zM76 893v-101h-94v101h94zM226 893v-101h-94v101h94z" />
    <glyph glyph-name="Eth" unicode="&#xd0;" horiz-adv-x="442" 
d="M219 0h-168v309h-50v81h50v310h168c126 0 189 -69 189 -218v-264c0 -149 -63 -218 -189 -218zM167 104h52c50 0 73 28 73 119v254c0 91 -23 119 -73 119h-52v-206h60v-81h-60v-205z" />
    <glyph glyph-name="Ntilde" unicode="&#xd1;" horiz-adv-x="470" 
d="M321 0l-161 429v-429h-114v700h103l161 -429v429h114v-700h-103zM232 800c-17 15 -24 18 -32 18c-11 0 -18 -10 -20 -39l-71 7c3 87 32 119 75 119c20 0 38 -9 55 -23c16 -15 24 -18 32 -18c11 0 18 10 20 38l71 -6c-3 -88 -33 -120 -75 -120c-20 0 -39 9 -55 24z" />
    <glyph glyph-name="Ograve" unicode="&#xd2;" horiz-adv-x="446" 
d="M296 224v252c0 92 -23 132 -73 132s-73 -40 -73 -132v-252c0 -92 23 -132 73 -132s73 40 73 132zM412 491v-282c0 -149 -75 -221 -189 -221s-189 72 -189 221v282c0 149 75 221 189 221s189 -72 189 -221zM205 763l-83 161h101l58 -161h-76z" />
    <glyph glyph-name="Oacute" unicode="&#xd3;" horiz-adv-x="446" 
d="M296 224v252c0 92 -23 132 -73 132s-73 -40 -73 -132v-252c0 -92 23 -132 73 -132s73 40 73 132zM412 491v-282c0 -149 -75 -221 -189 -221s-189 72 -189 221v282c0 149 75 221 189 221s189 -72 189 -221zM324 924l-83 -161h-76l58 161h101z" />
    <glyph glyph-name="Ocircumflex" unicode="&#xd4;" horiz-adv-x="446" 
d="M296 224v252c0 92 -23 132 -73 132s-73 -40 -73 -132v-252c0 -92 23 -132 73 -132s73 40 73 132zM412 491v-282c0 -149 -75 -221 -189 -221s-189 72 -189 221v282c0 149 75 221 189 221s189 -72 189 -221zM100 763l82 161h82l82 -161h-74l-49 76l-49 -76h-74z" />
    <glyph glyph-name="Otilde" unicode="&#xd5;" horiz-adv-x="446" 
d="M296 224v252c0 92 -23 132 -73 132s-73 -40 -73 -132v-252c0 -92 23 -132 73 -132s73 40 73 132zM412 491v-282c0 -149 -75 -221 -189 -221s-189 72 -189 221v282c0 149 75 221 189 221s189 -72 189 -221zM220 800c-17 15 -24 18 -32 18c-11 0 -18 -10 -20 -39l-71 7
c3 87 32 119 75 119c20 0 38 -9 55 -23c16 -15 24 -18 32 -18c11 0 18 10 20 38l71 -6c-3 -88 -33 -120 -75 -120c-20 0 -39 9 -55 24z" />
    <glyph glyph-name="Odieresis" unicode="&#xd6;" horiz-adv-x="446" 
d="M296 224v252c0 92 -23 132 -73 132s-73 -40 -73 -132v-252c0 -92 23 -132 73 -132s73 40 73 132zM412 491v-282c0 -149 -75 -221 -189 -221s-189 72 -189 221v282c0 149 75 221 189 221s189 -72 189 -221zM195 893v-101h-94v101h94zM345 893v-101h-94v101h94z" />
    <glyph glyph-name="multiply" unicode="&#xd7;" horiz-adv-x="413" 
d="M139 325l-104 104l67 68l104 -105l104 105l67 -68l-104 -104l104 -104l-67 -68l-104 105l-104 -105l-67 68z" />
    <glyph glyph-name="Oslash" unicode="&#xd8;" horiz-adv-x="446" 
d="M52 -32l29 80c-30 36 -47 90 -47 161v282c0 149 75 221 189 221c35 0 67 -7 94 -21l15 41h62l-30 -80c30 -37 48 -90 48 -161v-282c0 -149 -75 -221 -189 -221c-36 0 -67 7 -94 21l-15 -41h-62zM296 224v241l-127 -345c12 -19 30 -28 54 -28c50 0 73 40 73 132zM150 476
v-241l126 345c-12 19 -30 28 -53 28c-50 0 -73 -40 -73 -132z" />
    <glyph glyph-name="Ugrave" unicode="&#xd9;" horiz-adv-x="458" 
d="M229 -12c-114 0 -188 72 -188 217v495h116v-480c0 -88 21 -128 72 -128s72 40 72 128v480h116v-495c0 -145 -74 -217 -188 -217zM205 763l-83 161h101l58 -161h-76z" />
    <glyph glyph-name="Uacute" unicode="&#xda;" horiz-adv-x="458" 
d="M229 -12c-114 0 -188 72 -188 217v495h116v-480c0 -88 21 -128 72 -128s72 40 72 128v480h116v-495c0 -145 -74 -217 -188 -217zM336 924l-83 -161h-76l58 161h101z" />
    <glyph glyph-name="Ucircumflex" unicode="&#xdb;" horiz-adv-x="458" 
d="M229 -12c-114 0 -188 72 -188 217v495h116v-480c0 -88 21 -128 72 -128s72 40 72 128v480h116v-495c0 -145 -74 -217 -188 -217zM106 763l82 161h82l82 -161h-74l-49 76l-49 -76h-74z" />
    <glyph glyph-name="Udieresis" unicode="&#xdc;" horiz-adv-x="458" 
d="M229 -12c-114 0 -188 72 -188 217v495h116v-480c0 -88 21 -128 72 -128s72 40 72 128v480h116v-495c0 -145 -74 -217 -188 -217zM201 893v-101h-94v101h94zM351 893v-101h-94v101h94z" />
    <glyph glyph-name="Yacute" unicode="&#xdd;" horiz-adv-x="426" 
d="M155 0v317l-147 383h119l86 -248l86 248h119l-147 -383v-317h-116zM321 924l-83 -161h-76l58 161h101z" />
    <glyph glyph-name="Thorn" unicode="&#xde;" horiz-adv-x="430" 
d="M211 127h-49v-127h-116v700h116v-129h49c110 0 192 -69 192 -222s-82 -222 -192 -222zM287 349c0 73 -27 117 -92 117h-33v-234h33c65 0 92 44 92 117z" />
    <glyph glyph-name="germandbls" unicode="&#xdf;" horiz-adv-x="428" 
d="M374 533v-28c0 -65 -28 -108 -74 -131c72 -27 112 -78 112 -165v-48c0 -114 -59 -173 -151 -173c-33 0 -64 8 -88 23l30 93c12 -8 29 -13 46 -13c28 0 47 16 47 77v28c0 63 -29 94 -91 107l-15 94c43 17 68 52 68 104v24c0 60 -17 84 -49 84c-35 0 -50 -24 -50 -84v-525
h-116v533c0 114 59 179 166 179c106 0 165 -65 165 -179z" />
    <glyph glyph-name="agrave" unicode="&#xe0;" horiz-adv-x="379" 
d="M178 83c24 0 46 17 58 46v79h-51c-38 0 -55 -21 -55 -63v-9c0 -34 15 -53 48 -53zM43 356v5c0 92 52 151 149 151s149 -59 149 -151v-361h-105v40c-16 -36 -47 -52 -89 -52c-66 0 -122 46 -122 143v13c0 96 59 154 159 154h52v55c0 45 -16 64 -44 64s-44 -19 -44 -64v-3z
M178 564l-83 161h101l58 -161h-76z" />
    <glyph glyph-name="aacute" unicode="&#xe1;" horiz-adv-x="379" 
d="M178 83c24 0 46 17 58 46v79h-51c-38 0 -55 -21 -55 -63v-9c0 -34 15 -53 48 -53zM43 356v5c0 92 52 151 149 151s149 -59 149 -151v-361h-105v40c-16 -36 -47 -52 -89 -52c-66 0 -122 46 -122 143v13c0 96 59 154 159 154h52v55c0 45 -16 64 -44 64s-44 -19 -44 -64v-3z
M295 725l-83 -161h-76l58 161h101z" />
    <glyph glyph-name="acircumflex" unicode="&#xe2;" horiz-adv-x="379" 
d="M178 83c24 0 46 17 58 46v79h-51c-38 0 -55 -21 -55 -63v-9c0 -34 15 -53 48 -53zM43 356v5c0 92 52 151 149 151s149 -59 149 -151v-361h-105v40c-16 -36 -47 -52 -89 -52c-66 0 -122 46 -122 143v13c0 96 59 154 159 154h52v55c0 45 -16 64 -44 64s-44 -19 -44 -64v-3z
M68 564l82 161h82l82 -161h-74l-49 76l-49 -76h-74z" />
    <glyph glyph-name="atilde" unicode="&#xe3;" horiz-adv-x="379" 
d="M178 83c24 0 46 17 58 46v79h-51c-38 0 -55 -21 -55 -63v-9c0 -34 15 -53 48 -53zM43 356v5c0 92 52 151 149 151s149 -59 149 -151v-361h-105v40c-16 -36 -47 -52 -89 -52c-66 0 -122 46 -122 143v13c0 96 59 154 159 154h52v55c0 45 -16 64 -44 64s-44 -19 -44 -64v-3z
M187 601c-17 15 -24 18 -32 18c-11 0 -18 -10 -20 -39l-71 7c3 87 32 119 75 119c20 0 38 -9 55 -23c16 -15 24 -18 32 -18c11 0 18 10 20 38l71 -6c-3 -88 -33 -120 -75 -120c-20 0 -39 9 -55 24z" />
    <glyph glyph-name="adieresis" unicode="&#xe4;" horiz-adv-x="379" 
d="M178 83c24 0 46 17 58 46v79h-51c-38 0 -55 -21 -55 -63v-9c0 -34 15 -53 48 -53zM43 356v5c0 92 52 151 149 151s149 -59 149 -151v-361h-105v40c-16 -36 -47 -52 -89 -52c-66 0 -122 46 -122 143v13c0 96 59 154 159 154h52v55c0 45 -16 64 -44 64s-44 -19 -44 -64v-3z
M163 694v-101h-94v101h94zM313 694v-101h-94v101h94z" />
    <glyph glyph-name="aring" unicode="&#xe5;" horiz-adv-x="379" 
d="M178 83c24 0 46 17 58 46v79h-51c-38 0 -55 -21 -55 -63v-9c0 -34 15 -53 48 -53zM43 356v5c0 92 52 151 149 151s149 -59 149 -151v-361h-105v40c-16 -36 -47 -52 -89 -52c-66 0 -122 46 -122 143v13c0 96 59 154 159 154h52v55c0 45 -16 64 -44 64s-44 -19 -44 -64v-3z
M279 644c0 -55 -40 -87 -89 -87s-89 32 -89 87s40 87 89 87s89 -32 89 -87zM160 644c0 -20 11 -34 30 -34s30 14 30 34s-11 34 -30 34s-30 -14 -30 -34z" />
    <glyph glyph-name="ae" unicode="&#xe6;" horiz-adv-x="586" 
d="M192 512c40 0 80 -17 101 -48c24 31 60 48 104 48c94 0 159 -66 159 -180v-123h-214v-36c0 -64 20 -90 54 -90c30 0 48 21 52 63l106 -7c-9 -97 -69 -151 -158 -151c-53 0 -96 20 -124 56c-28 -39 -68 -56 -125 -56c-66 0 -122 46 -122 143v13c0 96 59 154 159 154h52v53
c0 45 -19 66 -44 66s-44 -20 -44 -67l-105 6v5c0 92 50 151 149 151zM178 83c24 0 46 17 58 46v79h-51c-38 0 -55 -21 -55 -63v-9c0 -34 15 -53 48 -53zM342 327v-28h108v28c0 64 -20 90 -54 90s-54 -26 -54 -90z" />
    <glyph glyph-name="ccedilla" unicode="&#xe7;" horiz-adv-x="375" 
d="M89 -204l42 59c9 -8 21 -14 34 -14c14 0 23 9 23 26c0 20 -14 33 -44 40l-6 8l22 76c-80 12 -130 75 -130 177v164c0 114 63 180 160 180s160 -66 160 -180v-3l-106 -5v3c0 64 -20 90 -54 90s-54 -26 -54 -90v-154c0 -64 20 -90 54 -90s54 26 54 90v3l106 -5v-3
c0 -93 -42 -154 -110 -173l-15 -53c37 -18 56 -48 56 -82v-6c0 -55 -37 -92 -101 -92c-35 0 -68 12 -91 34z" />
    <glyph glyph-name="egrave" unicode="&#xe8;" horiz-adv-x="380" 
d="M242 146l106 -7c-9 -97 -69 -151 -158 -151c-97 0 -160 66 -160 180v164c0 114 63 180 160 180s160 -66 160 -180v-123h-214v-36c0 -64 20 -90 54 -90c30 0 48 21 52 63zM136 327v-28h108v28c0 64 -20 90 -54 90s-54 -26 -54 -90zM172 564l-83 161h101l58 -161h-76z" />
    <glyph glyph-name="eacute" unicode="&#xe9;" horiz-adv-x="380" 
d="M242 146l106 -7c-9 -97 -69 -151 -158 -151c-97 0 -160 66 -160 180v164c0 114 63 180 160 180s160 -66 160 -180v-123h-214v-36c0 -64 20 -90 54 -90c30 0 48 21 52 63zM136 327v-28h108v28c0 64 -20 90 -54 90s-54 -26 -54 -90zM291 725l-83 -161h-76l58 161h101z" />
    <glyph glyph-name="ecircumflex" unicode="&#xea;" horiz-adv-x="380" 
d="M242 146l106 -7c-9 -97 -69 -151 -158 -151c-97 0 -160 66 -160 180v164c0 114 63 180 160 180s160 -66 160 -180v-123h-214v-36c0 -64 20 -90 54 -90c30 0 48 21 52 63zM136 327v-28h108v28c0 64 -20 90 -54 90s-54 -26 -54 -90zM67 564l82 161h82l82 -161h-74l-49 76
l-49 -76h-74z" />
    <glyph glyph-name="edieresis" unicode="&#xeb;" horiz-adv-x="380" 
d="M242 146l106 -7c-9 -97 -69 -151 -158 -151c-97 0 -160 66 -160 180v164c0 114 63 180 160 180s160 -66 160 -180v-123h-214v-36c0 -64 20 -90 54 -90c30 0 48 21 52 63zM136 327v-28h108v28c0 64 -20 90 -54 90s-54 -26 -54 -90zM162 694v-101h-94v101h94zM312 694v-101
h-94v101h94z" />
    <glyph glyph-name="igrave" unicode="&#xec;" horiz-adv-x="198" 
d="M46 0v500h106v-500h-106zM66 564l-83 161h101l58 -161h-76z" />
    <glyph glyph-name="iacute" unicode="&#xed;" horiz-adv-x="198" 
d="M46 0v500h106v-500h-106zM215 725l-83 -161h-76l58 161h101z" />
    <glyph glyph-name="icircumflex" unicode="&#xee;" horiz-adv-x="198" 
d="M46 0v500h106v-500h-106zM-24 564l82 161h82l82 -161h-74l-49 76l-49 -76h-74z" />
    <glyph glyph-name="idieresis" unicode="&#xef;" horiz-adv-x="198" 
d="M46 0v500h106v-500h-106zM71 694v-101h-94v101h94zM221 694v-101h-94v101h94z" />
    <glyph glyph-name="eth" unicode="&#xf0;" horiz-adv-x="382" 
d="M29 168v163c0 120 65 179 167 179l-22 61l-78 -23l-12 64l69 20l-27 80h108l17 -51l69 21l12 -64l-60 -18l61 -169c11 -30 18 -63 18 -97v-166c0 -114 -63 -180 -161 -180s-161 66 -161 180zM135 326v-153c0 -64 20 -90 55 -90s55 26 55 90v153c0 64 -20 90 -55 90
s-55 -26 -55 -90z" />
    <glyph glyph-name="ntilde" unicode="&#xf1;" horiz-adv-x="399" 
d="M146 366v-366h-106v500h106v-42c15 31 47 54 90 54c81 0 125 -62 125 -169v-343h-106v337c0 59 -19 80 -51 80c-29 0 -51 -20 -58 -51zM194 601c-17 15 -24 18 -32 18c-11 0 -18 -10 -20 -39l-71 7c3 87 32 119 75 119c20 0 38 -9 55 -23c16 -15 24 -18 32 -18
c11 0 18 10 20 38l71 -6c-3 -88 -33 -120 -75 -120c-20 0 -39 9 -55 24z" />
    <glyph glyph-name="ograve" unicode="&#xf2;" horiz-adv-x="380" 
d="M136 327v-154c0 -64 20 -90 54 -90s54 26 54 90v154c0 64 -20 90 -54 90s-54 -26 -54 -90zM350 332v-164c0 -114 -63 -180 -160 -180s-160 66 -160 180v164c0 114 63 180 160 180s160 -66 160 -180zM172 564l-83 161h101l58 -161h-76z" />
    <glyph glyph-name="oacute" unicode="&#xf3;" horiz-adv-x="380" 
d="M136 327v-154c0 -64 20 -90 54 -90s54 26 54 90v154c0 64 -20 90 -54 90s-54 -26 -54 -90zM350 332v-164c0 -114 -63 -180 -160 -180s-160 66 -160 180v164c0 114 63 180 160 180s160 -66 160 -180zM291 725l-83 -161h-76l58 161h101z" />
    <glyph glyph-name="ocircumflex" unicode="&#xf4;" horiz-adv-x="380" 
d="M136 327v-154c0 -64 20 -90 54 -90s54 26 54 90v154c0 64 -20 90 -54 90s-54 -26 -54 -90zM350 332v-164c0 -114 -63 -180 -160 -180s-160 66 -160 180v164c0 114 63 180 160 180s160 -66 160 -180zM67 564l82 161h82l82 -161h-74l-49 76l-49 -76h-74z" />
    <glyph glyph-name="otilde" unicode="&#xf5;" horiz-adv-x="380" 
d="M136 327v-154c0 -64 20 -90 54 -90s54 26 54 90v154c0 64 -20 90 -54 90s-54 -26 -54 -90zM350 332v-164c0 -114 -63 -180 -160 -180s-160 66 -160 180v164c0 114 63 180 160 180s160 -66 160 -180zM187 601c-17 15 -24 18 -32 18c-11 0 -18 -10 -20 -39l-71 7
c3 87 32 119 75 119c20 0 38 -9 55 -23c16 -15 24 -18 32 -18c11 0 18 10 20 38l71 -6c-3 -88 -33 -120 -75 -120c-20 0 -39 9 -55 24z" />
    <glyph glyph-name="odieresis" unicode="&#xf6;" horiz-adv-x="380" 
d="M136 327v-154c0 -64 20 -90 54 -90s54 26 54 90v154c0 64 -20 90 -54 90s-54 -26 -54 -90zM350 332v-164c0 -114 -63 -180 -160 -180s-160 66 -160 180v164c0 114 63 180 160 180s160 -66 160 -180zM162 694v-101h-94v101h94zM312 694v-101h-94v101h94z" />
    <glyph glyph-name="divide" unicode="&#xf7;" horiz-adv-x="413" 
d="M33 280v90h347v-90h-347zM258 522v-110h-102v110h102zM258 238v-110h-102v110h102z" />
    <glyph glyph-name="oslash" unicode="&#xf8;" horiz-adv-x="380" 
d="M54 -35l24 65c-31 31 -48 78 -48 138v164c0 114 63 180 160 180c23 0 45 -4 64 -12l14 38h59l-26 -68c31 -31 49 -78 49 -138v-164c0 -114 -63 -180 -160 -180c-24 0 -45 4 -64 12l-13 -35h-59zM136 327v-143l83 224c-8 6 -18 9 -29 9c-34 0 -54 -26 -54 -90zM190 83
c34 0 54 26 54 90v142l-84 -223c8 -7 18 -9 30 -9z" />
    <glyph glyph-name="ugrave" unicode="&#xf9;" horiz-adv-x="399" 
d="M253 134v366h106v-500h-106v42c-15 -31 -47 -54 -90 -54c-81 0 -125 62 -125 169v343h106v-337c0 -59 19 -80 51 -80c29 0 51 20 58 51zM175 564l-83 161h101l58 -161h-76z" />
    <glyph glyph-name="uacute" unicode="&#xfa;" horiz-adv-x="399" 
d="M253 134v366h106v-500h-106v42c-15 -31 -47 -54 -90 -54c-81 0 -125 62 -125 169v343h106v-337c0 -59 19 -80 51 -80c29 0 51 20 58 51zM297 725l-83 -161h-76l58 161h101z" />
    <glyph glyph-name="ucircumflex" unicode="&#xfb;" horiz-adv-x="399" 
d="M253 134v366h106v-500h-106v42c-15 -31 -47 -54 -90 -54c-81 0 -125 62 -125 169v343h106v-337c0 -59 19 -80 51 -80c29 0 51 20 58 51zM72 564l82 161h82l82 -161h-74l-49 76l-49 -76h-74z" />
    <glyph glyph-name="udieresis" unicode="&#xfc;" horiz-adv-x="400" 
d="M253 134v366h106v-500h-106v42c-15 -31 -47 -54 -90 -54c-81 0 -125 62 -125 169v343h106v-337c0 -59 19 -80 51 -80c29 0 51 20 58 51zM168 694v-101h-94v101h94zM318 694v-101h-94v101h94z" />
    <glyph glyph-name="yacute" unicode="&#xfd;" horiz-adv-x="367" 
d="M113 500l67 -293l74 293h108l-138 -543c-35 -138 -60 -168 -144 -168h-42v95h30c22 0 33 10 43 48l20 82l-126 486h108zM285 725l-83 -161h-76l58 161h101z" />
    <glyph glyph-name="thorn" unicode="&#xfe;" horiz-adv-x="391" 
d="M146 376v-251c9 -26 28 -41 54 -41c35 0 55 27 55 86v161c0 59 -20 86 -55 86c-26 0 -45 -15 -54 -41zM361 340v-179c0 -122 -59 -172 -129 -172c-40 0 -72 18 -86 48v-255h-106v930h106v-248c14 30 46 48 86 48c70 0 129 -50 129 -172z" />
    <glyph glyph-name="ydieresis" unicode="&#xff;" horiz-adv-x="367" 
d="M113 500l67 -293l74 293h108l-138 -543c-35 -138 -60 -168 -144 -168h-42v95h30c22 0 33 10 43 48l20 82l-126 486h108zM155 694v-101h-94v101h94zM305 694v-101h-94v101h94z" />
    <glyph glyph-name="Amacron" unicode="&#x100;" horiz-adv-x="444" 
d="M321 0l-29 142h-140l-29 -142h-119l160 700h116l160 -700h-119zM222 486l-48 -240h96zM111 805v76h222v-76h-222z" />
    <glyph glyph-name="amacron" unicode="&#x101;" horiz-adv-x="379" 
d="M178 83c24 0 46 17 58 46v79h-51c-38 0 -55 -21 -55 -63v-9c0 -34 15 -53 48 -53zM43 356v5c0 92 52 151 149 151s149 -59 149 -151v-361h-105v40c-16 -36 -47 -52 -89 -52c-66 0 -122 46 -122 143v13c0 96 59 154 159 154h52v55c0 45 -16 64 -44 64s-44 -19 -44 -64v-3z
M82 606v76h222v-76h-222z" />
    <glyph glyph-name="Abreve" unicode="&#x102;" horiz-adv-x="444" 
d="M321 0l-29 142h-140l-29 -142h-119l160 700h116l160 -700h-119zM222 486l-48 -240h96zM222 837c31 0 42 22 44 72l77 -7c-5 -98 -50 -138 -121 -138s-116 40 -121 138l77 7c2 -50 13 -72 44 -72z" />
    <glyph glyph-name="abreve" unicode="&#x103;" horiz-adv-x="379" 
d="M178 83c24 0 46 17 58 46v79h-51c-38 0 -55 -21 -55 -63v-9c0 -34 15 -53 48 -53zM43 356v5c0 92 52 151 149 151s149 -59 149 -151v-361h-105v40c-16 -36 -47 -52 -89 -52c-66 0 -122 46 -122 143v13c0 96 59 154 159 154h52v55c0 45 -16 64 -44 64s-44 -19 -44 -64v-3z
M193 640c31 0 42 22 44 72l77 -7c-5 -98 -50 -138 -121 -138s-116 40 -121 138l77 7c2 -50 13 -72 44 -72z" />
    <glyph glyph-name="Aogonek" unicode="&#x104;" horiz-adv-x="444" 
d="M321 0l-29 142h-140l-29 -142h-119l160 700h116l160 -700h-41c-35 -31 -52 -67 -52 -98v-5c0 -21 8 -33 25 -33c10 0 19 5 27 15l53 -55c-25 -30 -58 -43 -95 -43c-63 0 -99 36 -99 96v5c0 41 23 89 63 118zM222 486l-48 -240h96z" />
    <glyph glyph-name="aogonek" unicode="&#x105;" horiz-adv-x="379" 
d="M43 356v5c0 92 50 151 149 151s149 -59 149 -151v-361h-27c-35 -31 -52 -67 -52 -98v-5c0 -21 8 -33 25 -33c10 0 19 5 27 15l53 -55c-25 -30 -58 -43 -95 -43c-63 0 -99 36 -99 96v5c0 41 23 89 63 118v40c-16 -36 -47 -52 -89 -52c-66 0 -122 46 -122 143v13
c0 96 59 154 159 154h52v53c0 45 -19 66 -44 66s-44 -20 -44 -67zM178 83c24 0 46 17 58 46v79h-51c-38 0 -55 -21 -55 -63v-9c0 -34 15 -53 48 -53z" />
    <glyph glyph-name="Cacute" unicode="&#x106;" horiz-adv-x="438" 
d="M223 92c50 0 73 40 73 132v12l116 -5v-22c0 -149 -75 -221 -189 -221s-189 72 -189 221v282c0 149 75 221 189 221s189 -72 189 -221v-22l-116 -5v12c0 92 -23 132 -73 132s-73 -40 -73 -132v-252c0 -92 23 -132 73 -132zM318 924l-83 -161h-76l58 161h101z" />
    <glyph glyph-name="cacute" unicode="&#x107;" horiz-adv-x="375" 
d="M190 83c34 0 54 26 54 90v3l106 -5v-3c0 -114 -63 -180 -160 -180s-160 66 -160 180v164c0 114 63 180 160 180s160 -66 160 -180v-3l-106 -5v3c0 64 -20 90 -54 90s-54 -26 -54 -90v-154c0 -64 20 -90 54 -90zM283 725l-83 -161h-76l58 161h101z" />
    <glyph glyph-name="Ccircumflex" unicode="&#x108;" horiz-adv-x="438" 
d="M223 92c50 0 73 40 73 132v12l116 -5v-22c0 -149 -75 -221 -189 -221s-189 72 -189 221v282c0 149 75 221 189 221s189 -72 189 -221v-22l-116 -5v12c0 92 -23 132 -73 132s-73 -40 -73 -132v-252c0 -92 23 -132 73 -132zM100 763l82 161h82l82 -161h-74l-49 76l-49 -76
h-74z" />
    <glyph glyph-name="ccircumflex" unicode="&#x109;" horiz-adv-x="375" 
d="M190 83c34 0 54 26 54 90v3l106 -5v-3c0 -114 -63 -180 -160 -180s-160 66 -160 180v164c0 114 63 180 160 180s160 -66 160 -180v-3l-106 -5v3c0 64 -20 90 -54 90s-54 -26 -54 -90v-154c0 -64 20 -90 54 -90zM63 564l82 161h82l82 -161h-74l-49 76l-49 -76h-74z" />
    <glyph glyph-name="Cdotaccent" unicode="&#x10a;" horiz-adv-x="438" 
d="M223 92c-50 0 -73 40 -73 132v252c0 92 23 132 73 132s73 -40 73 -132v-12l116 5v22c0 149 -75 221 -189 221s-189 -72 -189 -221v-282c0 -149 75 -221 189 -221s189 72 189 221v22l-116 5v-12c0 -92 -23 -132 -73 -132zM274 896v-108h-102v108h102z" />
    <glyph glyph-name="cdotaccent" unicode="&#x10b;" horiz-adv-x="375" 
d="M190 83c-34 0 -54 26 -54 90v154c0 64 20 90 54 90s54 -26 54 -90v-3l106 5v3c0 114 -63 180 -160 180s-160 -66 -160 -180v-164c0 -114 63 -180 160 -180s160 66 160 180v3l-106 5v-3c0 -64 -20 -90 -54 -90zM237 697v-108h-102v108h102z" />
    <glyph glyph-name="Ccaron" unicode="&#x10c;" horiz-adv-x="438" 
d="M223 92c50 0 73 40 73 132v12l116 -5v-22c0 -149 -75 -221 -189 -221s-189 72 -189 221v282c0 149 75 221 189 221s189 -72 189 -221v-22l-116 -5v12c0 92 -23 132 -73 132s-73 -40 -73 -132v-252c0 -92 23 -132 73 -132zM182 763l-82 161h74l49 -76l49 76h74l-82 -161
h-82z" />
    <glyph glyph-name="ccaron" unicode="&#x10d;" horiz-adv-x="375" 
d="M190 83c34 0 54 26 54 90v3l106 -5v-3c0 -114 -63 -180 -160 -180s-160 66 -160 180v164c0 114 63 180 160 180s160 -66 160 -180v-3l-106 -5v3c0 64 -20 90 -54 90s-54 -26 -54 -90v-154c0 -64 20 -90 54 -90zM146 564l-82 161h74l49 -76l49 76h74l-82 -161h-82z" />
    <glyph glyph-name="Dcaron" unicode="&#x10e;" horiz-adv-x="437" 
d="M214 0h-168v700h168c126 0 189 -69 189 -218v-264c0 -149 -63 -218 -189 -218zM162 104h52c50 0 73 28 73 119v254c0 91 -23 119 -73 119h-52v-492zM161 763l-82 161h74l49 -76l49 76h74l-82 -161h-82z" />
    <glyph glyph-name="dcaron" unicode="&#x10f;" horiz-adv-x="498" 
d="M245 124v251c-9 26 -28 41 -54 41c-35 0 -55 -27 -55 -86v-161c0 -59 20 -86 55 -86c26 0 45 15 54 41zM30 160v179c0 122 59 172 129 172c40 0 72 -18 86 -48v249h106v-712h-106v36c-14 -30 -46 -48 -86 -48c-70 0 -129 50 -129 172zM439 596h-51v116h108v-118
c0 -74 -32 -112 -108 -116v48c37 5 51 21 51 70z" />
    <glyph glyph-name="Dcroat" unicode="&#x110;" horiz-adv-x="442" 
d="M219 0h-168v309h-50v81h50v310h168c126 0 189 -69 189 -218v-264c0 -149 -63 -218 -189 -218zM167 104h52c50 0 73 28 73 119v254c0 91 -23 119 -73 119h-52v-206h60v-81h-60v-205z" />
    <glyph glyph-name="dcroat" unicode="&#x111;" horiz-adv-x="391" 
d="M30 160v179c0 122 59 172 129 172c40 0 72 -18 86 -48v112h-90v78h90v59h106v-59h42v-78h-42v-575h-106v36c-14 -30 -46 -48 -86 -48c-70 0 -129 50 -129 172zM245 124v251c-9 26 -28 41 -54 41c-35 0 -55 -27 -55 -86v-161c0 -59 20 -86 55 -86c26 0 45 15 54 41z" />
    <glyph glyph-name="Emacron" unicode="&#x112;" horiz-adv-x="399" 
d="M46 0v700h323v-104h-207v-185h178v-104h-178v-203h207v-104h-323zM96 805v76h222v-76h-222z" />
    <glyph glyph-name="emacron" unicode="&#x113;" horiz-adv-x="380" 
d="M242 146l106 -7c-9 -97 -69 -151 -158 -151c-97 0 -160 66 -160 180v164c0 114 63 180 160 180s160 -66 160 -180v-123h-214v-36c0 -64 20 -90 54 -90c30 0 48 21 52 63zM136 327v-28h108v28c0 64 -20 90 -54 90s-54 -26 -54 -90zM79 606v76h222v-76h-222z" />
    <glyph glyph-name="Ebreve" unicode="&#x114;" horiz-adv-x="399" 
d="M46 0v700h323v-104h-207v-185h178v-104h-178v-203h207v-104h-323zM207 837c31 0 42 22 44 72l77 -7c-5 -98 -50 -138 -121 -138s-116 40 -121 138l77 7c2 -50 13 -72 44 -72z" />
    <glyph glyph-name="ebreve" unicode="&#x115;" horiz-adv-x="380" 
d="M242 146l106 -7c-9 -97 -69 -151 -158 -151c-97 0 -160 66 -160 180v164c0 114 63 180 160 180s160 -66 160 -180v-123h-214v-36c0 -64 20 -90 54 -90c30 0 48 21 52 63zM136 327v-28h108v28c0 64 -20 90 -54 90s-54 -26 -54 -90zM190 640c31 0 42 22 44 72l77 -7
c-5 -98 -50 -138 -121 -138s-116 40 -121 138l77 7c2 -50 13 -72 44 -72z" />
    <glyph glyph-name="Edotaccent" unicode="&#x116;" horiz-adv-x="399" 
d="M46 0v700h323v-104h-207v-185h178v-104h-178v-203h207v-104h-323zM259 896v-108h-102v108h102z" />
    <glyph glyph-name="edotaccent" unicode="&#x117;" horiz-adv-x="380" 
d="M242 146l106 -7c-9 -97 -69 -151 -158 -151c-97 0 -160 66 -160 180v164c0 114 63 180 160 180s160 -66 160 -180v-123h-214v-36c0 -64 20 -90 54 -90c30 0 48 21 52 63zM136 327v-28h108v28c0 64 -20 90 -54 90s-54 -26 -54 -90zM241 697v-108h-102v108h102z" />
    <glyph glyph-name="Eogonek" unicode="&#x118;" horiz-adv-x="399" 
d="M46 0v700h323v-104h-207v-185h178v-104h-178v-203h207v-104h-32c-35 -31 -52 -67 -52 -98v-5c0 -21 8 -33 25 -33c10 0 19 5 27 15l53 -55c-25 -30 -58 -43 -95 -43c-63 0 -99 36 -99 96v5c0 41 23 89 63 118h-213z" />
    <glyph glyph-name="eogonek" unicode="&#x119;" horiz-adv-x="380" 
d="M242 146l106 -7c-7 -69 -38 -115 -88 -137c-34 -31 -53 -69 -53 -100v-5c0 -21 8 -33 25 -33c10 0 19 5 27 15l53 -55c-25 -30 -58 -43 -95 -43c-63 0 -99 36 -99 96v5c0 36 18 78 49 107c-84 10 -137 74 -137 179v164c0 114 63 180 160 180s160 -66 160 -180v-123h-214
v-36c0 -64 20 -90 54 -90c30 0 48 21 52 63zM136 327v-28h108v28c0 64 -20 90 -54 90s-54 -26 -54 -90z" />
    <glyph glyph-name="Ecaron" unicode="&#x11a;" horiz-adv-x="399" 
d="M46 0v700h323v-104h-207v-185h178v-104h-178v-203h207v-104h-323zM166 763l-82 161h74l49 -76l49 76h74l-82 -161h-82z" />
    <glyph glyph-name="ecaron" unicode="&#x11b;" horiz-adv-x="380" 
d="M242 146l106 -7c-9 -97 -69 -151 -158 -151c-97 0 -160 66 -160 180v164c0 114 63 180 160 180s160 -66 160 -180v-123h-214v-36c0 -64 20 -90 54 -90c30 0 48 21 52 63zM136 327v-28h108v28c0 64 -20 90 -54 90s-54 -26 -54 -90zM149 564l-82 161h74l49 -76l49 76h74
l-82 -161h-82z" />
    <glyph glyph-name="Gcircumflex" unicode="&#x11c;" horiz-adv-x="441" 
d="M223 272v100h189v-163c0 -149 -75 -221 -189 -221s-189 72 -189 221v282c0 149 75 221 189 221s189 -72 189 -221v-22l-116 -5v12c0 92 -23 132 -73 132s-73 -40 -73 -132v-252c0 -92 23 -132 73 -132s73 40 73 132v48h-73zM100 763l82 161h82l82 -161h-74l-49 76
l-49 -76h-74z" />
    <glyph glyph-name="gcircumflex" unicode="&#x11d;" horiz-adv-x="391" 
d="M30 339v-179c0 -122 59 -172 129 -172c40 0 72 18 86 48v-85c0 -67 -21 -87 -51 -87c-26 0 -45 18 -50 64l-106 -7c7 -99 65 -153 157 -153c96 0 156 60 156 170v562h-106v-37c-14 30 -46 48 -86 48c-70 0 -129 -50 -129 -172zM245 375v-251c-9 -26 -28 -41 -54 -41
c-35 0 -55 27 -55 86v161c0 59 20 86 55 86c26 0 45 -15 54 -41zM76 564l82 161h82l82 -161h-74l-49 76l-49 -76h-74z" />
    <glyph glyph-name="Gbreve" unicode="&#x11e;" horiz-adv-x="441" 
d="M223 272v100h189v-163c0 -149 -75 -221 -189 -221s-189 72 -189 221v282c0 149 75 221 189 221s189 -72 189 -221v-22l-116 -5v12c0 92 -23 132 -73 132s-73 -40 -73 -132v-252c0 -92 23 -132 73 -132s73 40 73 132v48h-73zM223 837c31 0 42 22 44 72l77 -7
c-5 -98 -50 -138 -121 -138s-116 40 -121 138l77 7c2 -50 13 -72 44 -72z" />
    <glyph glyph-name="gbreve" unicode="&#x11f;" horiz-adv-x="391" 
d="M30 160v179c0 122 59 172 129 172c40 0 72 -18 86 -48v37h106v-562c0 -110 -60 -170 -156 -170c-92 0 -150 54 -157 153l106 7c5 -46 24 -64 50 -64c30 0 51 20 51 87v85c-14 -30 -46 -48 -86 -48c-70 0 -129 50 -129 172zM245 124v251c-9 26 -28 41 -54 41
c-35 0 -55 -27 -55 -86v-161c0 -59 20 -86 55 -86c26 0 45 15 54 41zM200 640c31 0 42 22 44 72l77 -7c-5 -98 -50 -138 -121 -138s-116 40 -121 138l77 7c2 -50 13 -72 44 -72z" />
    <glyph glyph-name="Gdotaccent" unicode="&#x120;" horiz-adv-x="441" 
d="M223 272v100h189v-163c0 -149 -75 -221 -189 -221s-189 72 -189 221v282c0 149 75 221 189 221s189 -72 189 -221v-22l-116 -5v12c0 92 -23 132 -73 132s-73 -40 -73 -132v-252c0 -92 23 -132 73 -132s73 40 73 132v48h-73zM274 896v-108h-102v108h102z" />
    <glyph glyph-name="gdotaccent" unicode="&#x121;" horiz-adv-x="391" 
d="M30 160v179c0 122 59 172 129 172c40 0 72 -18 86 -48v37h106v-562c0 -110 -60 -170 -156 -170c-92 0 -150 54 -157 153l106 7c5 -46 24 -64 50 -64c30 0 51 20 51 87v85c-14 -30 -46 -48 -86 -48c-70 0 -129 50 -129 172zM245 124v251c-9 26 -28 41 -54 41
c-35 0 -55 -27 -55 -86v-161c0 -59 20 -86 55 -86c26 0 45 15 54 41zM251 697v-108h-102v108h102z" />
    <glyph glyph-name="Gcommaaccent" unicode="&#x122;" horiz-adv-x="441" 
d="M223 272v100h189v-163c0 -149 -75 -221 -189 -221s-189 72 -189 221v282c0 149 75 221 189 221s189 -72 189 -221v-22l-116 -5v12c0 92 -23 132 -73 132s-73 -40 -73 -132v-252c0 -92 23 -132 73 -132s73 40 73 132v48h-73zM294 -49l-54 -161h-74l30 161h98z" />
    <glyph glyph-name="gcommaaccent" unicode="&#x123;" horiz-adv-x="391" 
d="M30 339v-179c0 -122 59 -172 129 -172c40 0 72 18 86 48v-85c0 -67 -21 -87 -51 -87c-26 0 -45 18 -50 64l-106 -7c7 -99 65 -153 157 -153c96 0 156 60 156 170v562h-106v-37c-14 30 -46 48 -86 48c-70 0 -129 -50 -129 -172zM245 375v-251c-9 -26 -28 -41 -54 -41
c-35 0 -55 27 -55 86v161c0 59 20 86 55 86c26 0 45 -15 54 -41zM152 551l54 161h74l-30 -161h-98z" />
    <glyph glyph-name="Hcircumflex" unicode="&#x124;" horiz-adv-x="454" 
d="M292 0v307h-130v-307h-116v700h116v-289h130v289h116v-700h-116zM104 763l82 161h82l82 -161h-74l-49 76l-49 -76h-74z" />
    <glyph glyph-name="hcircumflex" unicode="&#x125;" horiz-adv-x="399" 
d="M146 366v-366h-106v712h106v-254c15 31 47 54 90 54c81 0 125 -62 125 -169v-343h-106v337c0 59 -19 80 -51 80c-29 0 -51 -20 -58 -51zM-30 763l82 161h82l82 -161h-74l-49 76l-49 -76h-74z" />
    <glyph glyph-name="Hbar" unicode="&#x126;" horiz-adv-x="462" 
d="M4 599h46v101h116v-101h130v101h116v-101h46v-81h-46v-518h-116v307h-130v-307h-116v518h-46v81zM166 411h130v107h-130v-107z" />
    <glyph glyph-name="hbar" unicode="&#x127;" horiz-adv-x="399" 
d="M-2 653h42v59h106v-59h90v-78h-90v-117c15 31 47 54 90 54c81 0 125 -62 125 -169v-343h-106v337c0 59 -19 80 -51 80c-29 0 -51 -20 -58 -51v-366h-106v575h-42v78z" />
    <glyph glyph-name="Itilde" unicode="&#x128;" horiz-adv-x="208" 
d="M162 700v-700h-116v700h116zM101 800c-17 15 -24 18 -32 18c-11 0 -18 -10 -20 -39l-71 7c3 87 32 119 75 119c20 0 38 -9 55 -23c16 -15 24 -18 32 -18c11 0 18 10 20 38l71 -6c-3 -88 -33 -120 -75 -120c-20 0 -39 9 -55 24z" />
    <glyph glyph-name="itilde" unicode="&#x129;" horiz-adv-x="198" 
d="M46 0v500h106v-500h-106zM96 601c-17 15 -24 18 -32 18c-11 0 -18 -10 -20 -39l-71 7c3 87 32 119 75 119c20 0 38 -9 55 -23c16 -15 24 -18 32 -18c11 0 18 10 20 38l71 -6c-3 -88 -33 -120 -75 -120c-20 0 -39 9 -55 24z" />
    <glyph glyph-name="Imacron" unicode="&#x12a;" horiz-adv-x="208" 
d="M162 700v-700h-116v700h116zM-7 805v76h222v-76h-222z" />
    <glyph glyph-name="imacron" unicode="&#x12b;" horiz-adv-x="198" 
d="M46 0v500h106v-500h-106zM-12 606v76h222v-76h-222z" />
    <glyph glyph-name="Ibreve" unicode="&#x12c;" horiz-adv-x="208" 
d="M162 700v-700h-116v700h116zM104 837c31 0 42 22 44 72l77 -7c-5 -98 -50 -138 -121 -138s-116 40 -121 138l77 7c2 -50 13 -72 44 -72z" />
    <glyph glyph-name="ibreve" unicode="&#x12d;" horiz-adv-x="198" 
d="M46 0v500h106v-500h-106zM99 640c31 0 42 22 44 72l77 -7c-5 -98 -50 -138 -121 -138s-116 40 -121 138l77 7c2 -50 13 -72 44 -72z" />
    <glyph glyph-name="Iogonek" unicode="&#x12e;" horiz-adv-x="208" 
d="M84 0h-38v700h116v-700c-35 -31 -52 -67 -52 -98v-5c0 -21 8 -33 25 -33c10 0 19 5 27 15l53 -55c-25 -30 -58 -43 -95 -43c-63 0 -99 36 -99 96v5c0 41 23 89 63 118z" />
    <glyph glyph-name="iogonek" unicode="&#x12f;" horiz-adv-x="198" 
d="M46 0v500h106v-500c-35 -31 -53 -67 -53 -98v-5c0 -21 8 -33 25 -33c10 0 20 5 28 15l52 -55c-25 -30 -58 -43 -95 -43c-62 0 -99 36 -99 96v5c0 41 24 89 63 118h-27zM46 590v122h106v-122h-106z" />
    <glyph glyph-name="Idotaccent" unicode="&#x130;" horiz-adv-x="208" 
d="M162 700v-700h-116v700h116zM155 896v-108h-102v108h102z" />
    <glyph glyph-name="dotlessi" unicode="&#x131;" horiz-adv-x="198" 
d="M46 0v500h106v-500h-106z" />
    <glyph glyph-name="IJ" unicode="&#x132;" horiz-adv-x="605" 
d="M162 700v-700h-116v700h116zM221 186v11l116 5v-6c0 -81 22 -104 55 -104s55 23 55 104v504h116v-514c0 -129 -63 -198 -171 -198s-171 69 -171 198z" />
    <glyph glyph-name="ij" unicode="&#x133;" horiz-adv-x="396" 
d="M46 0v500h106v-500h-106zM46 590v122h106v-122h-106zM244 590v122h106v-122h-106zM350 500v-549c0 -122 -42 -163 -139 -163h-34v96h23c36 0 44 16 44 68v548h106z" />
    <glyph glyph-name="Jcircumflex" unicode="&#x134;" horiz-adv-x="395" 
d="M11 186v11l116 5v-6c0 -81 22 -104 55 -104s55 23 55 104v504h116v-514c0 -129 -63 -198 -171 -198s-171 69 -171 198zM170 763l82 161h82l82 -161h-74l-49 76l-49 -76h-74z" />
    <glyph glyph-name="jcircumflex" unicode="&#x135;" horiz-adv-x="198" 
d="M152 500v-549c0 -122 -42 -163 -139 -163h-34v96h23c36 0 44 16 44 68v548h106zM-24 564l82 161h82l82 -161h-74l-49 76l-49 -76h-74z" />
    <glyph glyph-name="Kcommaaccent" unicode="&#x136;" horiz-adv-x="438" 
d="M392 700v-52c0 -124 -17 -191 -84 -264l130 -384h-121l-97 302l-58 -53v-249h-116v700h116v-302l35 33c62 60 79 109 79 218v51h116zM290 -49l-54 -161h-74l30 161h98z" />
    <glyph glyph-name="kcommaaccent" unicode="&#x137;" horiz-adv-x="373" 
d="M340 500v-21c0 -103 -16 -152 -68 -202l100 -277h-111l-68 204l-48 -44v-160h-105v712h105v-417l30 28c51 47 60 78 60 152v25h105zM258 -49l-54 -161h-74l30 161h98z" />
    <glyph glyph-name="kgreenlandic" unicode="&#x138;" horiz-adv-x="373" 
d="M340 500v-21c0 -103 -16 -152 -68 -202l100 -277h-111l-68 204l-48 -44v-160h-105v500h105v-205l30 28c51 47 60 78 60 152v25h105z" />
    <glyph glyph-name="Lacute" unicode="&#x139;" horiz-adv-x="380" 
d="M46 0v700h116v-596h210v-104h-326zM221 924l-83 -161h-76l58 161h101z" />
    <glyph glyph-name="lacute" unicode="&#x13a;" horiz-adv-x="229" 
d="M44 157v555h105v-552c0 -51 10 -65 43 -65h24v-95h-48c-88 0 -124 41 -124 157zM215 924l-83 -161h-76l58 161h101z" />
    <glyph glyph-name="Lcommaaccent" unicode="&#x13b;" horiz-adv-x="380" 
d="M46 0v700h116v-596h210v-104h-326zM273 -49l-54 -161h-74l30 161h98z" />
    <glyph glyph-name="lcommaaccent" unicode="&#x13c;" horiz-adv-x="229" 
d="M44 157v555h105v-552c0 -51 10 -65 43 -65h24v-95h-48c-88 0 -124 41 -124 157zM196 -49l-54 -161h-74l30 161h98z" />
    <glyph glyph-name="Lcaron" unicode="&#x13d;" horiz-adv-x="380" 
d="M46 0v700h116v-596h210v-104h-326zM273 596h-51v116h108v-118c0 -74 -32 -112 -108 -116v48c37 5 51 21 51 70z" />
    <glyph glyph-name="lcaron" unicode="&#x13e;" horiz-adv-x="296" 
d="M44 157v555h105v-552c0 -51 10 -65 43 -65h24v-95h-48c-88 0 -124 41 -124 157zM239 596h-51v116h108v-118c0 -74 -32 -112 -108 -116v48c37 5 51 21 51 70z" />
    <glyph glyph-name="Ldot" unicode="&#x13f;" horiz-adv-x="380" 
d="M46 0v700h116v-596h210v-104h-326zM337 432v-108h-102v108h102z" />
    <glyph glyph-name="ldot" unicode="&#x140;" horiz-adv-x="318" 
d="M44 157v555h105v-552c0 -51 10 -65 43 -65h24v-95h-48c-88 0 -124 41 -124 157zM304 432v-108h-102v108h102z" />
    <glyph glyph-name="Lslash" unicode="&#x141;" horiz-adv-x="380" 
d="M278 359l-116 -56v-199h210v-104h-326v248l-50 -24v87l50 24v365h116v-310l116 56v-87z" />
    <glyph glyph-name="lslash" unicode="&#x142;" horiz-adv-x="240" 
d="M57 157v113l-50 -24v88l50 24v354h105v-303l54 27v-88l-54 -27v-161c0 -51 10 -65 43 -65h24v-95h-48c-88 0 -124 41 -124 157z" />
    <glyph glyph-name="Nacute" unicode="&#x143;" horiz-adv-x="470" 
d="M321 0l-161 429v-429h-114v700h103l161 -429v429h114v-700h-103zM337 924l-83 -161h-76l58 161h101z" />
    <glyph glyph-name="nacute" unicode="&#x144;" horiz-adv-x="399" 
d="M146 366v-366h-106v500h106v-42c15 31 47 54 90 54c81 0 125 -62 125 -169v-343h-106v337c0 59 -19 80 -51 80c-29 0 -51 -20 -58 -51zM301 725l-83 -161h-76l58 161h101z" />
    <glyph glyph-name="Ncommaaccent" unicode="&#x145;" horiz-adv-x="470" 
d="M321 0l-161 429v-429h-114v700h103l161 -429v429h114v-700h-103zM308 -49l-54 -161h-74l30 161h98z" />
    <glyph glyph-name="ncommaaccent" unicode="&#x146;" horiz-adv-x="399" 
d="M146 366v-366h-106v500h106v-42c15 31 47 54 90 54c81 0 125 -62 125 -169v-343h-106v337c0 59 -19 80 -51 80c-29 0 -51 -20 -58 -51zM261 -49l-54 -161h-74l30 161h98z" />
    <glyph glyph-name="Ncaron" unicode="&#x147;" horiz-adv-x="470" 
d="M321 0l-161 429v-429h-114v700h103l161 -429v429h114v-700h-103zM194 763l-82 161h74l49 -76l49 76h74l-82 -161h-82z" />
    <glyph glyph-name="ncaron" unicode="&#x148;" horiz-adv-x="399" 
d="M146 366v-366h-106v500h106v-42c15 31 47 54 90 54c81 0 125 -62 125 -169v-343h-106v337c0 59 -19 80 -51 80c-29 0 -51 -20 -58 -51zM157 564l-82 161h74l49 -76l49 76h74l-82 -161h-82z" />
    <glyph glyph-name="napostrophe" unicode="&#x149;" horiz-adv-x="450" 
d="M197 366v-366h-106v500h106v-42c15 31 47 54 90 54c81 0 125 -62 125 -169v-343h-106v337c0 59 -19 80 -51 80c-29 0 -51 -20 -58 -51zM49 596h-51v116h108v-118c0 -74 -32 -112 -108 -116v48c37 5 51 21 51 70z" />
    <glyph glyph-name="Eng" unicode="&#x14a;" horiz-adv-x="471" 
d="M424 700v-754c0 -116 -36 -158 -130 -158h-50v104h23c33 0 43 14 43 65v72l-150 400v-429h-114v700h103l161 -429v429h114z" />
    <glyph glyph-name="eng" unicode="&#x14b;" horiz-adv-x="399" 
d="M361 343v-397c0 -116 -36 -158 -130 -158h-50v95h31c33 0 43 14 43 65v389c0 59 -19 80 -51 80c-29 0 -51 -20 -58 -51v-366h-106v500h106v-42c15 31 47 54 90 54c81 0 125 -62 125 -169z" />
    <glyph glyph-name="Omacron" unicode="&#x14c;" horiz-adv-x="446" 
d="M296 224v252c0 92 -23 132 -73 132s-73 -40 -73 -132v-252c0 -92 23 -132 73 -132s73 40 73 132zM412 491v-282c0 -149 -75 -221 -189 -221s-189 72 -189 221v282c0 149 75 221 189 221s189 -72 189 -221zM112 805v76h222v-76h-222z" />
    <glyph glyph-name="omacron" unicode="&#x14d;" horiz-adv-x="380" 
d="M136 327v-154c0 -64 20 -90 54 -90s54 26 54 90v154c0 64 -20 90 -54 90s-54 -26 -54 -90zM350 332v-164c0 -114 -63 -180 -160 -180s-160 66 -160 180v164c0 114 63 180 160 180s160 -66 160 -180zM79 606v76h222v-76h-222z" />
    <glyph glyph-name="Obreve" unicode="&#x14e;" horiz-adv-x="446" 
d="M296 224v252c0 92 -23 132 -73 132s-73 -40 -73 -132v-252c0 -92 23 -132 73 -132s73 40 73 132zM412 491v-282c0 -149 -75 -221 -189 -221s-189 72 -189 221v282c0 149 75 221 189 221s189 -72 189 -221zM223 837c31 0 42 22 44 72l77 -7c-5 -98 -50 -138 -121 -138
s-116 40 -121 138l77 7c2 -50 13 -72 44 -72z" />
    <glyph glyph-name="obreve" unicode="&#x14f;" horiz-adv-x="380" 
d="M136 327v-154c0 -64 20 -90 54 -90s54 26 54 90v154c0 64 -20 90 -54 90s-54 -26 -54 -90zM350 332v-164c0 -114 -63 -180 -160 -180s-160 66 -160 180v164c0 114 63 180 160 180s160 -66 160 -180zM190 640c31 0 42 22 44 72l77 -7c-5 -98 -50 -138 -121 -138
s-116 40 -121 138l77 7c2 -50 13 -72 44 -72z" />
    <glyph glyph-name="Ohungarumlaut" unicode="&#x150;" horiz-adv-x="446" 
d="M296 224v252c0 92 -23 132 -73 132s-73 -40 -73 -132v-252c0 -92 23 -132 73 -132s73 40 73 132zM412 491v-282c0 -149 -75 -221 -189 -221s-189 72 -189 221v282c0 149 75 221 189 221s189 -72 189 -221zM257 924l-72 -161h-74l47 161h99zM397 924l-85 -161h-75l62 161
h98z" />
    <glyph glyph-name="ohungarumlaut" unicode="&#x151;" horiz-adv-x="380" 
d="M136 327v-154c0 -64 20 -90 54 -90s54 26 54 90v154c0 64 -20 90 -54 90s-54 -26 -54 -90zM350 332v-164c0 -114 -63 -180 -160 -180s-160 66 -160 180v164c0 114 63 180 160 180s160 -66 160 -180zM221 725l-72 -161h-74l47 161h99zM361 725l-85 -161h-75l62 161h98z
" />
    <glyph glyph-name="OE" unicode="&#x152;" horiz-adv-x="635" 
d="M223 700h382v-104h-207v-185h178v-104h-178v-203h207v-104h-382c-124 0 -189 69 -189 218v264c0 149 65 218 189 218zM223 104h59v492h-59c-50 0 -73 -37 -73 -129v-234c0 -92 23 -129 73 -129z" />
    <glyph glyph-name="oe" unicode="&#x153;" horiz-adv-x="595" 
d="M405 -12c-43 0 -81 15 -107 49c-26 -32 -63 -49 -108 -49c-97 0 -160 66 -160 180v164c0 114 63 180 160 180c45 0 82 -19 108 -50c26 31 62 50 107 50c97 0 160 -66 160 -180v-123h-214v-36c0 -64 20 -90 54 -90c30 0 48 21 52 63l106 -7c-9 -97 -69 -151 -158 -151z
M136 327v-154c0 -64 20 -90 54 -90s54 26 54 90v154c0 64 -20 90 -54 90s-54 -26 -54 -90zM351 327v-28h108v28c0 64 -20 90 -54 90s-54 -26 -54 -90z" />
    <glyph glyph-name="Racute" unicode="&#x154;" horiz-adv-x="436" 
d="M162 268v-268h-116v700h165c110 0 192 -63 192 -216c0 -96 -32 -156 -83 -188l104 -296h-121l-87 268h-54zM287 484c0 73 -27 111 -92 111h-33v-222h33c65 0 92 38 92 111zM294 924l-83 -161h-76l58 161h101z" />
    <glyph glyph-name="racute" unicode="&#x155;" horiz-adv-x="284" 
d="M40 0v500h106v-60c18 43 52 67 94 67c14 0 28 -2 37 -7v-105c-11 4 -28 7 -42 7c-40 0 -72 -22 -89 -65v-337h-106zM247 725l-83 -161h-76l58 161h101z" />
    <glyph glyph-name="Rcommaaccent" unicode="&#x156;" horiz-adv-x="436" 
d="M162 268v-268h-116v700h165c110 0 192 -63 192 -216c0 -96 -32 -156 -83 -188l104 -296h-121l-87 268h-54zM287 484c0 73 -27 111 -92 111h-33v-222h33c65 0 92 38 92 111zM286 -49l-54 -161h-74l30 161h98z" />
    <glyph glyph-name="rcommaaccent" unicode="&#x157;" horiz-adv-x="284" 
d="M40 0v500h106v-60c18 43 52 67 94 67c14 0 28 -2 37 -7v-105c-11 4 -28 7 -42 7c-40 0 -72 -22 -89 -65v-337h-106zM153 -49l-54 -161h-74l30 161h98z" />
    <glyph glyph-name="Rcaron" unicode="&#x158;" horiz-adv-x="436" 
d="M162 268v-268h-116v700h165c110 0 192 -63 192 -216c0 -96 -32 -156 -83 -188l104 -296h-121l-87 268h-54zM287 484c0 73 -27 111 -92 111h-33v-222h33c65 0 92 38 92 111zM156 763l-82 161h74l49 -76l49 76h74l-82 -161h-82z" />
    <glyph glyph-name="rcaron" unicode="&#x159;" horiz-adv-x="284" 
d="M39 0v500h106v-60c18 43 52 67 94 67c14 0 28 -2 37 -7v-105c-11 4 -28 7 -42 7c-40 0 -72 -22 -89 -65v-337h-106zM113 564l-82 161h74l49 -76l49 76h74l-82 -161h-82z" />
    <glyph glyph-name="Sacute" unicode="&#x15a;" horiz-adv-x="419" 
d="M32 183v12l116 6v-19c0 -63 24 -90 64 -90s64 27 64 90v19c0 55 -16 80 -70 97l-38 12c-102 32 -137 87 -137 199v14c0 113 51 189 173 189c118 0 169 -69 173 -192v-18l-116 -5v25c0 58 -18 86 -57 86s-57 -28 -57 -86v-13c0 -55 17 -81 70 -97l36 -11
c104 -32 139 -89 139 -200v-18c0 -122 -63 -195 -180 -195s-180 73 -180 195zM294 924l-83 -161h-76l58 161h101z" />
    <glyph glyph-name="sacute" unicode="&#x15b;" horiz-adv-x="351" 
d="M138 146v-15c0 -31 14 -48 40 -48s40 17 40 48v10c0 38 -11 50 -50 63l-27 9c-81 27 -111 64 -111 155v9c0 77 46 135 140 135c96 0 142 -58 142 -135v-17l-106 -4v18c0 25 -10 43 -35 43s-35 -18 -35 -43v-6c0 -39 10 -50 49 -64l38 -14c72 -26 101 -60 101 -146v-15
c0 -86 -53 -141 -146 -141s-146 55 -146 141v13zM267 725l-83 -161h-76l58 161h101z" />
    <glyph glyph-name="Scircumflex" unicode="&#x15c;" horiz-adv-x="419" 
d="M32 183v12l116 6v-19c0 -63 24 -90 64 -90s64 27 64 90v19c0 55 -16 80 -70 97l-38 12c-102 32 -137 87 -137 199v14c0 113 51 189 173 189c118 0 169 -69 173 -192v-18l-116 -5v25c0 58 -18 86 -57 86s-57 -28 -57 -86v-13c0 -55 17 -81 70 -97l36 -11
c104 -32 139 -89 139 -200v-18c0 -122 -63 -195 -180 -195s-180 73 -180 195zM77 763l82 161h82l82 -161h-74l-49 76l-49 -76h-74z" />
    <glyph glyph-name="scircumflex" unicode="&#x15d;" horiz-adv-x="351" 
d="M138 146v-15c0 -31 14 -48 40 -48s40 17 40 48v10c0 38 -11 50 -50 63l-27 9c-81 27 -111 64 -111 155v9c0 77 46 135 140 135c96 0 142 -58 142 -135v-17l-106 -4v18c0 25 -10 43 -35 43s-35 -18 -35 -43v-6c0 -39 10 -50 49 -64l38 -14c72 -26 101 -60 101 -146v-15
c0 -86 -53 -141 -146 -141s-146 55 -146 141v13zM45 564l82 161h82l82 -161h-74l-49 76l-49 -76h-74z" />
    <glyph glyph-name="Scedilla" unicode="&#x15e;" horiz-adv-x="419" 
d="M121 -204l42 59c9 -8 21 -14 34 -14c14 0 23 9 23 26c0 20 -14 33 -44 40l-6 8l21 74c-104 8 -159 79 -159 194v12l116 6v-19c0 -63 24 -90 64 -90s64 27 64 90v19c0 55 -16 80 -70 97l-38 12c-102 32 -137 87 -137 199v14c0 113 51 189 173 189c118 0 169 -69 173 -192
v-18l-116 -5v25c0 58 -18 86 -57 86s-57 -28 -57 -86v-13c0 -55 17 -81 70 -97l36 -11c104 -32 139 -89 139 -200v-18c0 -99 -42 -166 -120 -187l-15 -54c37 -18 56 -48 56 -82v-6c0 -55 -37 -92 -101 -92c-35 0 -68 12 -91 34z" />
    <glyph glyph-name="scedilla" unicode="&#x15f;" horiz-adv-x="351" 
d="M79 -204l42 59c9 -8 21 -14 34 -14c14 0 23 9 23 26c0 20 -14 33 -44 40l-6 8l22 75c-76 10 -118 62 -118 139v13l106 4v-15c0 -31 14 -48 40 -48s40 17 40 48v10c0 38 -11 50 -50 63l-27 9c-81 27 -111 64 -111 155v9c0 77 46 135 140 135c96 0 142 -58 142 -135v-17
l-106 -4v18c0 25 -10 43 -35 43s-35 -18 -35 -43v-6c0 -39 10 -50 49 -64l38 -14c72 -26 101 -60 101 -146v-15c0 -68 -34 -117 -94 -134l-15 -53c37 -18 56 -48 56 -82v-6c0 -55 -37 -92 -101 -92c-35 0 -68 12 -91 34z" />
    <glyph glyph-name="Scaron" unicode="&#x160;" horiz-adv-x="419" 
d="M32 183v12l116 6v-19c0 -63 24 -90 64 -90s64 27 64 90v19c0 55 -16 80 -70 97l-38 12c-102 32 -137 87 -137 199v14c0 113 51 189 173 189c118 0 169 -69 173 -192v-18l-116 -5v25c0 58 -18 86 -57 86s-57 -28 -57 -86v-13c0 -55 17 -81 70 -97l36 -11
c104 -32 139 -89 139 -200v-18c0 -122 -63 -195 -180 -195s-180 73 -180 195zM159 763l-82 161h74l49 -76l49 76h74l-82 -161h-82z" />
    <glyph glyph-name="scaron" unicode="&#x161;" horiz-adv-x="351" 
d="M138 146v-15c0 -31 14 -48 40 -48s40 17 40 48v10c0 38 -11 50 -50 63l-27 9c-81 27 -111 64 -111 155v9c0 77 46 135 140 135c96 0 142 -58 142 -135v-17l-106 -4v18c0 25 -10 43 -35 43s-35 -18 -35 -43v-6c0 -39 10 -50 49 -64l38 -14c72 -26 101 -60 101 -146v-15
c0 -86 -53 -141 -146 -141s-146 55 -146 141v13zM128 564l-82 161h74l49 -76l49 76h74l-82 -161h-82z" />
    <glyph glyph-name="Tcommaaccent" unicode="&#x162;" horiz-adv-x="386" 
d="M80 -204l42 59c9 -8 21 -14 34 -14c14 0 23 9 23 26c0 20 -14 33 -44 40l-6 8l25 85h-19v596h-126v104h368v-104h-126v-596h-18l-17 -58c37 -18 56 -48 56 -82v-6c0 -55 -37 -92 -101 -92c-35 0 -68 12 -91 34z" />
    <glyph glyph-name="tcommaaccent" unicode="&#x163;" horiz-adv-x="272" 
d="M50 -204l42 59c9 -8 21 -14 34 -14c14 0 23 9 23 26c0 20 -14 33 -44 40l-6 8l28 93c-47 17 -68 62 -68 149v248h-48v95h48v142h106v-142h85v-95h-85v-245c0 -51 11 -65 43 -65h44v-95h-50l-16 -58c37 -18 56 -48 56 -82v-6c0 -55 -37 -92 -101 -92c-35 0 -68 12 -91 34z
" />
    <glyph glyph-name="Tcaron" unicode="&#x164;" horiz-adv-x="386" 
d="M9 596v104h368v-104h-126v-596h-116v596h-126zM152 763l-82 161h74l49 -76l49 76h74l-82 -161h-82z" />
    <glyph glyph-name="tcaron" unicode="&#x165;" horiz-adv-x="380" 
d="M11 405v95h48v142h106v-142h85v-95h-85v-245c0 -51 11 -65 43 -65h44v-95h-68c-88 0 -125 41 -125 157v248h-48zM320 596h-51v116h108v-118c0 -74 -32 -112 -108 -116v48c37 5 51 21 51 70z" />
    <glyph glyph-name="Tbar" unicode="&#x166;" horiz-adv-x="386" 
d="M62 310v80h73v206h-126v104h368v-104h-126v-206h74v-80h-74v-310h-116v310h-73z" />
    <glyph glyph-name="tbar" unicode="&#x167;" horiz-adv-x="272" 
d="M20 308h39v97h-48v95h48v142h106v-142h85v-95h-85v-97h66v-77h-66v-71c0 -51 11 -65 43 -65h44v-95h-68c-88 0 -125 41 -125 157v74h-39v77z" />
    <glyph glyph-name="Utilde" unicode="&#x168;" horiz-adv-x="458" 
d="M229 -12c-114 0 -188 72 -188 217v495h116v-480c0 -88 21 -128 72 -128s72 40 72 128v480h116v-495c0 -145 -74 -217 -188 -217zM226 800c-17 15 -24 18 -32 18c-11 0 -18 -10 -20 -39l-71 7c3 87 32 119 75 119c20 0 38 -9 55 -23c16 -15 24 -18 32 -18
c11 0 18 10 20 38l71 -6c-3 -88 -33 -120 -75 -120c-20 0 -39 9 -55 24z" />
    <glyph glyph-name="utilde" unicode="&#x169;" horiz-adv-x="399" 
d="M253 134v366h106v-500h-106v42c-15 -31 -47 -54 -90 -54c-81 0 -125 62 -125 169v343h106v-337c0 -59 19 -80 51 -80c29 0 51 20 58 51zM192 601c-17 15 -24 18 -32 18c-11 0 -18 -10 -20 -39l-71 7c3 87 32 119 75 119c20 0 38 -9 55 -23c16 -15 24 -18 32 -18
c11 0 18 10 20 38l71 -6c-3 -88 -33 -120 -75 -120c-20 0 -39 9 -55 24z" />
    <glyph glyph-name="Umacron" unicode="&#x16a;" horiz-adv-x="458" 
d="M229 -12c-114 0 -188 72 -188 217v495h116v-480c0 -88 21 -128 72 -128s72 40 72 128v480h116v-495c0 -145 -74 -217 -188 -217zM118 805v76h222v-76h-222z" />
    <glyph glyph-name="umacron" unicode="&#x16b;" horiz-adv-x="399" 
d="M253 134v366h106v-500h-106v42c-15 -31 -47 -54 -90 -54c-81 0 -125 62 -125 169v343h106v-337c0 -59 19 -80 51 -80c29 0 51 20 58 51zM85 606v76h222v-76h-222z" />
    <glyph glyph-name="Ubreve" unicode="&#x16c;" horiz-adv-x="458" 
d="M229 -12c-114 0 -188 72 -188 217v495h116v-480c0 -88 21 -128 72 -128s72 40 72 128v480h116v-495c0 -145 -74 -217 -188 -217zM229 837c31 0 42 22 44 72l77 -7c-5 -98 -50 -138 -121 -138s-116 40 -121 138l77 7c2 -50 13 -72 44 -72z" />
    <glyph glyph-name="ubreve" unicode="&#x16d;" horiz-adv-x="399" 
d="M253 134v366h106v-500h-106v42c-15 -31 -47 -54 -90 -54c-81 0 -125 62 -125 169v343h106v-337c0 -59 19 -80 51 -80c29 0 51 20 58 51zM196 640c31 0 42 22 44 72l77 -7c-5 -98 -50 -138 -121 -138s-116 40 -121 138l77 7c2 -50 13 -72 44 -72z" />
    <glyph glyph-name="Uring" unicode="&#x16e;" horiz-adv-x="458" 
d="M229 -12c-114 0 -188 72 -188 217v495h116v-480c0 -88 21 -128 72 -128s72 40 72 128v480h116v-495c0 -145 -74 -217 -188 -217zM318 841c0 -55 -40 -87 -89 -87s-89 32 -89 87s40 87 89 87s89 -32 89 -87zM199 841c0 -20 11 -34 30 -34s30 14 30 34s-11 34 -30 34
s-30 -14 -30 -34z" />
    <glyph glyph-name="uring" unicode="&#x16f;" horiz-adv-x="399" 
d="M253 134v366h106v-500h-106v42c-15 -31 -47 -54 -90 -54c-81 0 -125 62 -125 169v343h106v-337c0 -59 19 -80 51 -80c29 0 51 20 58 51zM285 642c0 -55 -40 -87 -89 -87s-89 32 -89 87s40 87 89 87s89 -32 89 -87zM166 642c0 -20 11 -34 30 -34s30 14 30 34
s-11 34 -30 34s-30 -14 -30 -34z" />
    <glyph glyph-name="Uhungarumlaut" unicode="&#x170;" horiz-adv-x="458" 
d="M229 -12c-114 0 -188 72 -188 217v495h116v-480c0 -88 21 -128 72 -128s72 40 72 128v480h116v-495c0 -145 -74 -217 -188 -217zM264 924l-72 -161h-74l47 161h99zM404 924l-85 -161h-75l62 161h98z" />
    <glyph glyph-name="uhungarumlaut" unicode="&#x171;" horiz-adv-x="399" 
d="M253 134v366h106v-500h-106v42c-15 -31 -47 -54 -90 -54c-81 0 -125 62 -125 169v343h106v-337c0 -59 19 -80 51 -80c29 0 51 20 58 51zM231 725l-72 -161h-74l47 161h99zM371 725l-85 -161h-75l62 161h98z" />
    <glyph glyph-name="Uogonek" unicode="&#x172;" horiz-adv-x="458" 
d="M417 205c0 -114 -46 -183 -120 -207c-34 -30 -50 -65 -50 -96v-5c0 -21 8 -33 25 -33c10 0 19 5 27 15l53 -55c-25 -30 -58 -43 -95 -43c-63 0 -99 36 -99 96v5c0 36 17 78 49 107c-102 9 -166 80 -166 216v495h116v-480c0 -88 21 -128 72 -128s72 40 72 128v480h116
v-495z" />
    <glyph glyph-name="uogonek" unicode="&#x173;" horiz-adv-x="399" 
d="M253 0v42c-15 -31 -47 -54 -90 -54c-81 0 -125 62 -125 169v343h106v-337c0 -59 19 -80 51 -80c29 0 51 20 58 51v366h106v-500h-28c-35 -31 -52 -67 -52 -98v-5c0 -21 8 -33 25 -33c10 0 19 5 27 15l53 -55c-25 -30 -58 -43 -95 -43c-63 0 -99 36 -99 96v5
c0 41 23 89 63 118z" />
    <glyph glyph-name="Wcircumflex" unicode="&#x174;" horiz-adv-x="670" 
d="M391 700l77 -458l76 458h118l-136 -700h-111l-80 474l-80 -474h-111l-136 700h118l76 -458l78 458h111zM212 763l82 161h82l82 -161h-74l-49 76l-49 -76h-74z" />
    <glyph glyph-name="wcircumflex" unicode="&#x175;" horiz-adv-x="576" 
d="M240 500h96l65 -310l60 310h109l-114 -500h-100l-68 326l-68 -326h-100l-114 500h109l60 -310zM165 564l82 161h82l82 -161h-74l-49 76l-49 -76h-74z" />
    <glyph glyph-name="Ycircumflex" unicode="&#x176;" horiz-adv-x="426" 
d="M155 0v317l-147 383h119l86 -248l86 248h119l-147 -383v-317h-116zM90 763l82 161h82l82 -161h-74l-49 76l-49 -76h-74z" />
    <glyph glyph-name="ycircumflex" unicode="&#x177;" horiz-adv-x="367" 
d="M113 500l67 -293l74 293h108l-138 -543c-35 -138 -60 -168 -144 -168h-42v95h30c22 0 33 10 43 48l20 82l-126 486h108zM59 564l82 161h82l82 -161h-74l-49 76l-49 -76h-74z" />
    <glyph glyph-name="Ydieresis" unicode="&#x178;" horiz-adv-x="426" 
d="M155 0v317l-147 383h119l86 -248l86 248h119l-147 -383v-317h-116zM185 893v-101h-94v101h94zM335 893v-101h-94v101h94z" />
    <glyph glyph-name="Zacute" unicode="&#x179;" horiz-adv-x="383" 
d="M26 85l196 511h-189v104h324v-85l-196 -511h196v-104h-331v85zM299 924l-83 -161h-76l58 161h101z" />
    <glyph glyph-name="zacute" unicode="&#x17a;" horiz-adv-x="345" 
d="M316 500v-79l-161 -325h168v-96h-301v79l161 325h-153v96h286zM273 725l-83 -161h-76l58 161h101z" />
    <glyph glyph-name="Zdotaccent" unicode="&#x17b;" horiz-adv-x="383" 
d="M26 85l196 511h-189v104h324v-85l-196 -511h196v-104h-331v85zM250 896v-108h-102v108h102z" />
    <glyph glyph-name="zdotaccent" unicode="&#x17c;" horiz-adv-x="345" 
d="M316 500v-79l-161 -325h168v-96h-301v79l161 325h-153v96h286zM226 697v-108h-102v108h102z" />
    <glyph glyph-name="Zcaron" unicode="&#x17d;" horiz-adv-x="383" 
d="M26 85l196 511h-189v104h324v-85l-196 -511h196v-104h-331v85zM157 763l-82 161h74l49 -76l49 76h74l-82 -161h-82z" />
    <glyph glyph-name="zcaron" unicode="&#x17e;" horiz-adv-x="345" 
d="M316 500v-79l-161 -325h168v-96h-301v79l161 325h-153v96h286zM133 564l-82 161h74l49 -76l49 76h74l-82 -161h-82z" />
    <glyph glyph-name="longs" unicode="&#x17f;" horiz-adv-x="254" 
d="M15 405v95h49v54c0 116 36 158 130 158h50v-95h-31c-33 0 -43 -14 -43 -65v-552h-106v405h-49z" />
    <glyph glyph-name="uni0191" unicode="&#x191;" horiz-adv-x="385" 
d="M46 700h323v-104h-207v-194h185v-104h-185v-352c0 -116 -36 -158 -130 -158h-50v104h21c33 0 43 14 43 65v743z" />
    <glyph glyph-name="florin" unicode="&#x192;" horiz-adv-x="254" 
d="M64 -52v457h-49v95h49v54c0 116 36 158 130 158h50v-95h-31c-33 0 -43 -14 -43 -65v-52h74v-95h-74v-459c0 -116 -36 -158 -130 -158h-50v95h31c33 0 43 14 43 65z" />
    <glyph glyph-name="Aringacute" unicode="&#x1fa;" horiz-adv-x="444" 
d="M311 751c0 -29 -11 -51 -28 -66l157 -685h-119l-29 142h-140l-29 -142h-119l156 685c-17 15 -27 37 -27 66c0 55 40 87 89 87s89 -32 89 -87zM222 486l-48 -240h96zM310 958l-54 -100h-72l34 100h92zM192 751c0 -20 11 -34 30 -34s30 14 30 34s-11 34 -30 34
s-30 -14 -30 -34z" />
    <glyph glyph-name="aringacute" unicode="&#x1fb;" horiz-adv-x="379" 
d="M178 83c24 0 46 17 58 46v79h-51c-38 0 -55 -21 -55 -63v-9c0 -34 15 -53 48 -53zM43 356v5c0 92 50 151 149 151s149 -59 149 -151v-361h-105v40c-16 -36 -47 -52 -89 -52c-66 0 -122 46 -122 143v13c0 96 59 154 159 154h52v53c0 45 -19 66 -44 66s-44 -20 -44 -67z
M279 642c0 -55 -40 -87 -89 -87s-89 32 -89 87s40 87 89 87s89 -32 89 -87zM160 642c0 -20 11 -34 30 -34s30 14 30 34s-11 34 -30 34s-30 -14 -30 -34zM278 849l-54 -100h-72l34 100h92z" />
    <glyph glyph-name="AEacute" unicode="&#x1fc;" horiz-adv-x="661" 
d="M299 142h-130l-41 -142h-124l216 700h402v-104h-207v-185h178v-104h-178v-203h207v-104h-323v142zM299 582l-99 -336h99v336zM503 924l-83 -161h-76l58 161h101z" />
    <glyph glyph-name="aeacute" unicode="&#x1fd;" horiz-adv-x="586" 
d="M192 512c40 0 80 -17 101 -48c24 31 60 48 104 48c94 0 159 -66 159 -180v-123h-214v-36c0 -64 20 -90 54 -90c30 0 48 21 52 63l106 -7c-9 -97 -69 -151 -158 -151c-53 0 -96 20 -124 56c-28 -39 -68 -56 -125 -56c-66 0 -122 46 -122 143v13c0 96 59 154 159 154h52v53
c0 45 -19 66 -44 66s-44 -20 -44 -67l-105 6v5c0 92 50 151 149 151zM178 83c24 0 46 17 58 46v79h-51c-38 0 -55 -21 -55 -63v-9c0 -34 15 -53 48 -53zM342 327v-28h108v28c0 64 -20 90 -54 90s-54 -26 -54 -90zM396 725l-83 -161h-76l58 161h101z" />
    <glyph glyph-name="Oslashacute" unicode="&#x1fe;" horiz-adv-x="446" 
d="M52 -32l29 80c-30 36 -47 90 -47 161v282c0 149 75 221 189 221c35 0 67 -7 94 -21l15 41h62l-30 -80c30 -37 48 -90 48 -161v-282c0 -149 -75 -221 -189 -221c-36 0 -67 7 -94 21l-15 -41h-62zM296 224v241l-127 -345c12 -19 30 -28 54 -28c50 0 73 40 73 132zM150 476
v-241l126 345c-12 19 -30 28 -53 28c-50 0 -73 -40 -73 -132zM324 924l-83 -161h-76l58 161h101z" />
    <glyph glyph-name="oslashacute" unicode="&#x1ff;" horiz-adv-x="380" 
d="M54 -35l24 65c-31 31 -48 78 -48 138v164c0 114 63 180 160 180c23 0 45 -4 64 -12l14 38h59l-26 -68c31 -31 49 -78 49 -138v-164c0 -114 -63 -180 -160 -180c-24 0 -45 4 -64 12l-13 -35h-59zM136 327v-143l83 224c-8 6 -18 9 -29 9c-34 0 -54 -26 -54 -90zM190 83
c34 0 54 26 54 90v142l-84 -223c8 -7 18 -9 30 -9zM291 725l-83 -161h-76l58 161h101z" />
    <glyph glyph-name="Scommaaccent" unicode="&#x218;" horiz-adv-x="419" 
d="M32 183v12l116 6v-19c0 -63 24 -90 64 -90s64 27 64 90v19c0 55 -16 80 -70 97l-38 12c-102 32 -137 87 -137 199v14c0 113 51 189 173 189c118 0 169 -69 173 -192v-18l-116 -5v25c0 58 -18 86 -57 86s-57 -28 -57 -86v-13c0 -55 17 -81 70 -97l36 -11
c104 -32 139 -89 139 -200v-18c0 -122 -63 -195 -180 -195s-180 73 -180 195zM283 -49l-54 -161h-74l30 161h98z" />
    <glyph glyph-name="scommaaccent" unicode="&#x219;" horiz-adv-x="351" 
d="M138 146v-15c0 -31 14 -48 40 -48s40 17 40 48v10c0 38 -11 50 -50 63l-27 9c-81 27 -111 64 -111 155v9c0 77 46 135 140 135c96 0 142 -58 142 -135v-17l-106 -4v18c0 25 -10 43 -35 43s-35 -18 -35 -43v-6c0 -39 10 -50 49 -64l38 -14c72 -26 101 -60 101 -146v-15
c0 -86 -53 -141 -146 -141s-146 55 -146 141v13zM243 -49l-54 -161h-74l30 161h98z" />
    <glyph glyph-name="uni021A" unicode="&#x21a;" horiz-adv-x="386" 
d="M9 596v104h368v-104h-126v-596h-116v596h-126zM243 -49l-54 -161h-74l30 161h98z" />
    <glyph glyph-name="uni021B" unicode="&#x21b;" horiz-adv-x="272" 
d="M11 405v95h48v142h106v-142h85v-95h-85v-245c0 -51 11 -65 43 -65h44v-95h-68c-88 0 -125 41 -125 157v248h-48zM217 -49l-54 -161h-74l30 161h98z" />
    <glyph glyph-name="dotlessj" unicode="&#x237;" horiz-adv-x="198" 
d="M152 500v-549c0 -122 -42 -163 -139 -163h-34v96h23c36 0 44 16 44 68v548h106z" />
    <glyph glyph-name="apostrophe" unicode="&#x2bc;" 
d="M136 614h-51v116h108v-118c0 -74 -32 -112 -108 -116v48c37 5 51 21 51 70z" />
    <glyph glyph-name="circumflex" unicode="&#x2c6;" 
d="M16 569l82 161h82l82 -161h-74l-49 76l-49 -76h-74z" />
    <glyph glyph-name="caron" unicode="&#x2c7;" 
d="M98 569l-82 161h74l49 -76l49 76h74l-82 -161h-82z" />
    <glyph glyph-name="uni02C9" unicode="&#x2c9;" 
d="M28 610v76h222v-76h-222z" />
    <glyph glyph-name="breve" unicode="&#x2d8;" 
d="M139 645c31 0 42 22 44 72l77 -7c-5 -98 -50 -138 -121 -138s-116 40 -121 138l77 7c2 -50 13 -72 44 -72z" />
    <glyph glyph-name="dotaccent" unicode="&#x2d9;" 
d="M190 702v-108h-102v108h102z" />
    <glyph glyph-name="ring" unicode="&#x2da;" 
d="M228 647c0 -55 -40 -87 -89 -87s-89 32 -89 87s40 87 89 87s89 -32 89 -87zM109 647c0 -20 11 -34 30 -34s30 14 30 34s-11 34 -30 34s-30 -14 -30 -34z" />
    <glyph glyph-name="ogonek" unicode="&#x2db;" 
d="M105 0h78c-35 -31 -52 -67 -52 -98v-5c0 -21 8 -33 25 -33c10 0 19 5 27 15l53 -55c-25 -30 -58 -43 -95 -43c-63 0 -99 36 -99 96v5c0 41 23 89 63 118z" />
    <glyph glyph-name="tilde" unicode="&#x2dc;" 
d="M135 607c-17 15 -24 18 -32 18c-11 0 -18 -10 -20 -39l-71 7c3 87 32 119 75 119c20 0 38 -9 55 -23c16 -15 24 -18 32 -18c11 0 18 10 20 38l71 -6c-3 -88 -33 -120 -75 -120c-20 0 -39 9 -55 24z" />
    <glyph glyph-name="hungarumlaut" unicode="&#x2dd;" 
d="M142 730l-72 -161h-74l47 161h99zM282 730l-85 -161h-75l62 161h98z" />
    <glyph glyph-name="gravecomb" unicode="&#x300;" horiz-adv-x="0" 
d="M-212 569l-83 161h101l58 -161h-76z" />
    <glyph glyph-name="acutecomb" unicode="&#x301;" horiz-adv-x="0" 
d="M-130 730l-83 -161h-76l58 161h101z" />
    <glyph glyph-name="uni0302" unicode="&#x302;" horiz-adv-x="0" 
d="M-334 569l82 161h82l82 -161h-74l-49 76l-49 -76h-74z" />
    <glyph glyph-name="tildecomb" unicode="&#x303;" horiz-adv-x="0" 
d="M-216 607c-17 15 -24 18 -32 18c-11 0 -18 -10 -20 -39l-71 7c3 87 32 119 75 119c20 0 38 -9 55 -23c16 -15 24 -18 32 -18c11 0 18 10 20 38l71 -6c-3 -88 -33 -120 -75 -120c-20 0 -39 9 -55 24z" />
    <glyph glyph-name="uni0304" unicode="&#x304;" horiz-adv-x="0" 
d="M-323 611v76h222v-76h-222z" />
    <glyph glyph-name="uni0306" unicode="&#x306;" horiz-adv-x="0" 
d="M-212 645c31 0 42 22 44 72l77 -7c-5 -98 -50 -138 -121 -138s-116 40 -121 138l77 7c2 -50 13 -72 44 -72z" />
    <glyph glyph-name="uni0307" unicode="&#x307;" horiz-adv-x="0" 
d="M-161 702v-108h-102v108h102z" />
    <glyph glyph-name="uni0308" unicode="&#x308;" horiz-adv-x="0" 
d="M-223 699v-101h-94v101h94zM-73 699v-101h-94v101h94z" />
    <glyph glyph-name="uni030A" unicode="&#x30a;" horiz-adv-x="0" 
d="M-123 647c0 -55 -40 -87 -89 -87s-89 32 -89 87s40 87 89 87s89 -32 89 -87zM-242 647c0 -20 11 -34 30 -34s30 14 30 34s-11 34 -30 34s-30 -14 -30 -34z" />
    <glyph glyph-name="uni030C" unicode="&#x30c;" horiz-adv-x="0" 
d="M-253 569l-82 161h74l49 -76l49 76h74l-82 -161h-82z" />
    <glyph glyph-name="uni0327" unicode="&#x327;" horiz-adv-x="0" 
d="M-305 -204l42 59c9 -8 21 -14 34 -14c14 0 23 9 23 26c0 20 -14 33 -44 40l-6 8l25 85h79l-17 -58c37 -18 56 -48 56 -82v-6c0 -55 -37 -92 -101 -92c-35 0 -68 12 -91 34z" />
    <glyph glyph-name="uni03A9" unicode="&#x3a9;" horiz-adv-x="454" 
d="M227 712c114 0 189 -72 189 -221v-213c0 -97 -22 -147 -59 -174h56v-104h-162v94c44 25 49 82 49 178v204c0 92 -23 132 -73 132s-73 -40 -73 -132v-204c0 -96 5 -153 49 -178v-94h-162v104h56c-37 27 -59 77 -59 174v213c0 149 75 221 189 221z" />
    <glyph glyph-name="uni0400" unicode="&#x400;" horiz-adv-x="399" 
d="M46 0v700h323v-104h-207v-185h178v-104h-178v-203h207v-104h-323zM193 763l-83 161h101l58 -161h-76z" />
    <glyph glyph-name="afii10023" unicode="&#x401;" horiz-adv-x="399" 
d="M46 0v700h323v-104h-207v-185h178v-104h-178v-203h207v-104h-323zM181 893v-101h-94v101h94zM331 893v-101h-94v101h94z" />
    <glyph glyph-name="afii10051" unicode="&#x402;" horiz-adv-x="513" 
d="M368 277c0 63 -18 85 -57 85c-23 0 -44 -10 -61 -24v-338h-116v596h-126v104h368v-104h-126v-166c27 19 63 32 99 32c88 0 135 -63 135 -174v-274c0 -116 -36 -158 -130 -158h-50v104h21c33 0 43 14 43 65v252z" />
    <glyph glyph-name="afii10052" unicode="&#x403;" horiz-adv-x="391" 
d="M46 0v700h340v-104h-224v-596h-116zM308 924l-83 -161h-76l58 161h101z" />
    <glyph glyph-name="afii10053" unicode="&#x404;" horiz-adv-x="438" 
d="M150 402h111v-104h-111v-74c0 -92 23 -132 73 -132s73 40 73 132v12l116 -5v-22c0 -149 -75 -221 -189 -221s-189 72 -189 221v282c0 149 75 221 189 221s189 -72 189 -221v-22l-116 -5v12c0 92 -23 132 -73 132s-73 -40 -73 -132v-74z" />
    <glyph glyph-name="afii10054" unicode="&#x405;" horiz-adv-x="419" 
d="M32 183v12l116 6v-19c0 -63 24 -90 64 -90s64 27 64 90v19c0 55 -16 80 -70 97l-38 12c-102 32 -137 87 -137 199v14c0 113 51 189 173 189c118 0 169 -69 173 -192v-18l-116 -5v25c0 58 -18 86 -57 86s-57 -28 -57 -86v-13c0 -55 17 -81 70 -97l36 -11
c104 -32 139 -89 139 -200v-18c0 -122 -63 -195 -180 -195s-180 73 -180 195z" />
    <glyph glyph-name="afii10055" unicode="&#x406;" horiz-adv-x="208" 
d="M162 700v-700h-116v700h116z" />
    <glyph glyph-name="afii10056" unicode="&#x407;" horiz-adv-x="208" 
d="M162 700v-700h-116v700h116zM76 893v-101h-94v101h94zM226 893v-101h-94v101h94z" />
    <glyph glyph-name="afii10057" unicode="&#x408;" horiz-adv-x="395" 
d="M11 186v11l116 5v-6c0 -81 22 -104 55 -104s55 23 55 104v504h116v-514c0 -129 -63 -198 -171 -198s-171 69 -171 198z" />
    <glyph glyph-name="afii10058" unicode="&#x409;" horiz-adv-x="700" 
d="M677 217v-18c0 -131 -64 -199 -182 -199h-173v596h-127v-447c0 -120 -42 -161 -150 -161h-39v104h31c29 0 42 14 42 61v547h359v-283h57c118 0 182 -68 182 -200zM562 203v11c0 67 -26 99 -82 99h-42v-209h42c56 0 82 32 82 99z" />
    <glyph glyph-name="afii10059" unicode="&#x40a;" horiz-adv-x="670" 
d="M292 0v307h-130v-307h-116v700h116v-289h130v289h116v-283h57c118 0 182 -68 182 -200v-18c0 -131 -64 -199 -182 -199h-173zM532 203v11c0 67 -26 99 -82 99h-42v-209h42c56 0 82 32 82 99z" />
    <glyph glyph-name="afii10060" unicode="&#x40b;" horiz-adv-x="513" 
d="M368 0v277c0 63 -18 85 -57 85c-23 0 -44 -10 -61 -24v-338h-116v595h-126v105h368v-105h-126v-165c27 19 63 32 99 32c88 0 135 -63 135 -174v-288h-116z" />
    <glyph glyph-name="afii10061" unicode="&#x40c;" horiz-adv-x="438" 
d="M392 700v-52c0 -124 -17 -191 -84 -264l130 -384h-121l-97 302l-58 -53v-249h-116v700h116v-302l35 33c62 60 79 109 79 218v51h116zM320 924l-83 -161h-76l58 161h101z" />
    <glyph glyph-name="uni040D" unicode="&#x40d;" horiz-adv-x="470" 
d="M149 0l161 429v-429h114v700h-103l-161 -429v429h-114v-700h103zM220 763l-83 161h101l58 -161h-76z" />
    <glyph glyph-name="afii10062" unicode="&#x40e;" horiz-adv-x="403" 
d="M126 152l25 91l-143 457h118l77 -277l74 277h118l-164 -580c-27 -95 -65 -120 -128 -120h-53v104h27c24 0 38 10 49 48zM201 837c31 0 42 22 44 72l77 -7c-5 -98 -50 -138 -121 -138s-116 40 -121 138l77 7c2 -50 13 -72 44 -72z" />
    <glyph glyph-name="afii10145" unicode="&#x40f;" horiz-adv-x="452" 
d="M290 104v596h116v-700h-122v-120h-116v120h-122v700h116v-596h128z" />
    <glyph glyph-name="afii10017" unicode="&#x410;" horiz-adv-x="444" 
d="M321 0l-29 142h-140l-29 -142h-119l160 700h116l160 -700h-119zM222 486l-48 -240h96z" />
    <glyph glyph-name="afii10018" unicode="&#x411;" horiz-adv-x="424" 
d="M46 700h305v-104h-189v-179h57c118 0 182 -68 182 -200v-18c0 -131 -64 -199 -182 -199h-173v700zM286 203v11c0 67 -26 99 -82 99h-42v-209h42c56 0 82 32 82 99z" />
    <glyph glyph-name="afii10019" unicode="&#x412;" horiz-adv-x="429" 
d="M217 0h-171v700h162c110 0 181 -57 181 -195c0 -67 -28 -119 -71 -140c51 -23 85 -78 85 -160c0 -139 -70 -205 -186 -205zM208 307h-46v-203h44c54 0 81 29 81 103c0 71 -27 100 -79 100zM162 411h32c54 0 79 26 79 91c0 66 -25 94 -79 94h-32v-185z" />
    <glyph glyph-name="afii10020" unicode="&#x413;" horiz-adv-x="391" 
d="M46 0v700h340v-104h-224v-596h-116z" />
    <glyph glyph-name="afii10021" unicode="&#x414;" horiz-adv-x="465" 
d="M453 104v-224h-116v120h-215v-120h-116v224h51c20 97 28 216 28 325v271h313v-596h55zM174 104h108v492h-81v-175c0 -106 -10 -223 -27 -317z" />
    <glyph glyph-name="afii10022" unicode="&#x415;" horiz-adv-x="399" 
d="M46 0v700h323v-104h-207v-185h178v-104h-178v-203h207v-104h-323z" />
    <glyph glyph-name="afii10024" unicode="&#x416;" horiz-adv-x="619" 
d="M251 0v262l-38 36l-91 -298h-119l123 379c-68 75 -85 138 -85 282v39h116v-41c0 -110 7 -159 61 -218l33 -36v295h116v-295l33 36c54 59 61 108 61 218v41h116v-39c0 -144 -17 -207 -85 -282l123 -379h-119l-91 298l-38 -36v-262h-116z" />
    <glyph glyph-name="afii10025" unicode="&#x417;" horiz-adv-x="408" 
d="M139 206v-23c0 -66 26 -94 66 -94s66 28 66 94v25c0 73 -25 107 -85 107h-37v101h36c50 0 72 25 72 96v19c0 57 -20 79 -55 79s-55 -22 -55 -79v-26l-114 5v31c0 109 67 171 169 171s169 -62 169 -169v-43c0 -71 -24 -115 -72 -134c48 -16 86 -61 86 -145v-43
c0 -117 -67 -190 -180 -190s-180 73 -180 190v23z" />
    <glyph glyph-name="afii10026" unicode="&#x418;" horiz-adv-x="470" 
d="M310 429l-161 -429h-103v700h114v-429l161 429h103v-700h-114v429z" />
    <glyph glyph-name="afii10027" unicode="&#x419;" horiz-adv-x="470" 
d="M310 429l-161 -429h-103v700h114v-429l161 429h103v-700h-114v429zM235 837c31 0 42 22 44 72l77 -7c-5 -98 -50 -138 -121 -138s-116 40 -121 138l77 7c2 -50 13 -72 44 -72z" />
    <glyph glyph-name="afii10028" unicode="&#x41a;" horiz-adv-x="438" 
d="M392 700v-52c0 -124 -17 -191 -84 -264l130 -384h-121l-97 302l-58 -53v-249h-116v700h116v-302l35 33c62 60 79 109 79 218v51h116z" />
    <glyph glyph-name="afii10029" unicode="&#x41b;" horiz-adv-x="479" 
d="M79 153v547h353v-700h-116v595h-121v-446c0 -120 -42 -161 -150 -161h-39v104h31c29 0 42 14 42 61z" />
    <glyph glyph-name="afii10030" unicode="&#x41c;" horiz-adv-x="554" 
d="M240 177l-80 220v-397h-114v700h103l128 -365l128 365h103v-700h-114v397l-80 -220h-74z" />
    <glyph glyph-name="afii10031" unicode="&#x41d;" horiz-adv-x="454" 
d="M292 0v307h-130v-307h-116v700h116v-289h130v289h116v-700h-116z" />
    <glyph glyph-name="afii10032" unicode="&#x41e;" horiz-adv-x="446" 
d="M296 224v252c0 92 -23 132 -73 132s-73 -40 -73 -132v-252c0 -92 23 -132 73 -132s73 40 73 132zM412 491v-282c0 -149 -75 -221 -189 -221s-189 72 -189 221v282c0 149 75 221 189 221s189 -72 189 -221z" />
    <glyph glyph-name="afii10033" unicode="&#x41f;" horiz-adv-x="451" 
d="M289 0v596h-127v-596h-116v700h359v-700h-116z" />
    <glyph glyph-name="afii10034" unicode="&#x420;" horiz-adv-x="430" 
d="M211 256h-49v-256h-116v700h165c110 0 192 -69 192 -222s-82 -222 -192 -222zM287 478c0 73 -27 117 -92 117h-33v-234h33c65 0 92 44 92 117z" />
    <glyph glyph-name="afii10035" unicode="&#x421;" horiz-adv-x="438" 
d="M223 92c50 0 73 40 73 132v12l116 -5v-22c0 -149 -75 -221 -189 -221s-189 72 -189 221v282c0 149 75 221 189 221s189 -72 189 -221v-22l-116 -5v12c0 92 -23 132 -73 132s-73 -40 -73 -132v-252c0 -92 23 -132 73 -132z" />
    <glyph glyph-name="afii10036" unicode="&#x422;" horiz-adv-x="386" 
d="M9 596v104h368v-104h-126v-596h-116v596h-126z" />
    <glyph glyph-name="afii10037" unicode="&#x423;" horiz-adv-x="403" 
d="M126 152l25 91l-143 457h118l77 -277l74 277h118l-164 -580c-27 -95 -65 -120 -128 -120h-53v104h27c24 0 38 10 49 48z" />
    <glyph glyph-name="afii10038" unicode="&#x424;" horiz-adv-x="558" 
d="M26 303v94c0 145 70 217 185 217h12v86h112v-86h12c115 0 185 -72 185 -217v-94c0 -145 -70 -217 -185 -217h-12v-86h-112v86h-12c-115 0 -185 72 -185 217zM135 379v-58c0 -95 27 -131 77 -131h11v320h-11c-50 0 -77 -36 -77 -131zM423 321v58c0 95 -27 131 -77 131h-11
v-320h11c50 0 77 36 77 131z" />
    <glyph glyph-name="afii10039" unicode="&#x425;" horiz-adv-x="444" 
d="M313 0l-91 251l-91 -251h-120l135 362l-125 338h120l81 -228l81 228h120l-125 -338l135 -362h-120z" />
    <glyph glyph-name="afii10040" unicode="&#x426;" horiz-adv-x="474" 
d="M460 104v-224h-116v120h-298v700h116v-596h128v596h116v-596h54z" />
    <glyph glyph-name="afii10041" unicode="&#x427;" horiz-adv-x="435" 
d="M149 700v-273c0 -64 18 -85 59 -85c26 0 48 9 65 23v335h116v-700h-116v270c-26 -20 -64 -32 -102 -32c-88 0 -138 61 -138 173v289h116z" />
    <glyph glyph-name="afii10042" unicode="&#x428;" horiz-adv-x="690" 
d="M528 104v596h116v-700h-598v700h116v-596h125v596h116v-596h125z" />
    <glyph glyph-name="afii10043" unicode="&#x429;" horiz-adv-x="712" 
d="M644 104h54v-224h-116v120h-535v700h115v-596h125v596h116v-596h125v596h116v-596z" />
    <glyph glyph-name="afii10044" unicode="&#x42a;" horiz-adv-x="507" 
d="M8 596v104h237v-283h57c118 0 182 -68 182 -200v-18c0 -131 -64 -199 -182 -199h-173v596h-121zM369 203v11c0 67 -26 99 -82 99h-42v-209h42c56 0 82 32 82 99z" />
    <glyph glyph-name="afii10045" unicode="&#x42b;" horiz-adv-x="617" 
d="M46 700h116v-283h57c118 0 182 -68 182 -200v-18c0 -131 -64 -199 -182 -199h-173v700zM286 203v11c0 67 -26 99 -82 99h-42v-209h42c56 0 82 32 82 99zM571 700v-700h-116v700h116z" />
    <glyph glyph-name="afii10046" unicode="&#x42c;" horiz-adv-x="424" 
d="M46 700h116v-283h57c118 0 182 -68 182 -200v-18c0 -131 -64 -199 -182 -199h-173v700zM286 203v11c0 67 -26 99 -82 99h-42v-209h42c56 0 82 32 82 99z" />
    <glyph glyph-name="afii10047" unicode="&#x42d;" horiz-adv-x="438" 
d="M177 402h111v74c0 92 -23 132 -73 132s-73 -40 -73 -132v-12l-116 5v22c0 149 75 221 189 221s189 -72 189 -221v-282c0 -149 -75 -221 -189 -221s-189 72 -189 221v22l116 5v-12c0 -92 23 -132 73 -132s73 40 73 132v74h-111v104z" />
    <glyph glyph-name="afii10048" unicode="&#x42e;" horiz-adv-x="622" 
d="M588 491v-282c0 -149 -75 -221 -189 -221s-189 72 -189 221v90h-48v-299h-115v700h115v-297h48v88c0 149 75 221 189 221s189 -72 189 -221zM472 224v252c0 92 -23 132 -73 132s-73 -40 -73 -132v-252c0 -92 23 -132 73 -132s73 40 73 132z" />
    <glyph glyph-name="afii10049" unicode="&#x42f;" horiz-adv-x="436" 
d="M274 0v268h-54l-87 -268h-121l104 296c-51 32 -83 92 -83 188c0 153 82 216 192 216h165v-700h-116zM149 484c0 -73 27 -111 92 -111h33v222h-33c-65 0 -92 -38 -92 -111z" />
    <glyph glyph-name="afii10065" unicode="&#x430;" horiz-adv-x="379" 
d="M178 83c24 0 46 17 58 46v79h-51c-38 0 -55 -21 -55 -63v-9c0 -34 15 -53 48 -53zM43 356v5c0 92 52 151 149 151s149 -59 149 -151v-361h-105v40c-16 -36 -47 -52 -89 -52c-66 0 -122 46 -122 143v13c0 96 59 154 159 154h52v55c0 45 -16 64 -44 64s-44 -19 -44 -64v-3z
" />
    <glyph glyph-name="afii10066" unicode="&#x431;" horiz-adv-x="389" 
d="M249 178v148c0 62 -18 87 -53 87c-25 0 -43 -15 -53 -39v-196c0 -68 17 -94 53 -94s53 26 53 94zM357 338v-178c0 -107 -64 -172 -161 -172s-161 65 -161 172v318c0 116 34 174 148 204l118 31l21 -94l-114 -29c-46 -12 -65 -39 -65 -85v-41c14 26 45 45 82 45
c76 0 132 -53 132 -171z" />
    <glyph glyph-name="afii10067" unicode="&#x432;" horiz-adv-x="368" 
d="M205 0h-165v500h156c91 0 137 -57 137 -134v-13c0 -41 -18 -74 -47 -92c37 -17 57 -55 57 -101v-22c0 -81 -47 -138 -138 -138zM229 349v10c0 29 -15 47 -44 47h-41v-104h41c29 0 44 19 44 47zM144 212v-119h46c31 0 49 19 49 54v12c0 35 -18 53 -49 53h-46z" />
    <glyph glyph-name="afii10068" unicode="&#x433;" horiz-adv-x="309" 
d="M146 405v-405h-106v500h258v-95h-152z" />
    <glyph glyph-name="afii10069" unicode="&#x434;" horiz-adv-x="381" 
d="M374 95v-205h-106v110h-157v-110h-106v205h44c12 69 19 159 19 240v165h258v-405h48zM153 95h71v309h-54v-72c0 -77 -5 -171 -17 -237z" />
    <glyph glyph-name="afii10070" unicode="&#x435;" horiz-adv-x="380" 
d="M242 146l106 -7c-9 -97 -69 -151 -158 -151c-97 0 -160 66 -160 180v164c0 114 63 180 160 180s160 -66 160 -180v-123h-214v-36c0 -64 20 -90 54 -90c30 0 48 21 52 63zM136 327v-28h108v28c0 64 -20 90 -54 90s-54 -26 -54 -90z" />
    <glyph glyph-name="afii10072" unicode="&#x436;" horiz-adv-x="512" 
d="M308 0h-104v156l-38 34l-58 -190h-107l88 263c-41 48 -51 103 -51 206v31h104v-31c0 -108 11 -135 46 -170l16 -16v217h104v-217l16 16c35 35 46 62 46 170v31h104v-31c0 -103 -10 -158 -51 -206l88 -263h-107l-58 190l-38 -34v-156z" />
    <glyph glyph-name="afii10073" unicode="&#x437;" horiz-adv-x="352" 
d="M175 80c30 0 49 20 49 56v26c0 35 -22 50 -55 50h-47v91h45c25 0 45 15 45 51v19c0 28 -14 47 -38 47s-38 -19 -38 -47v-17l-104 5v23c0 75 59 128 142 128s142 -53 142 -128v-36c0 -45 -16 -74 -49 -88c38 -13 61 -44 61 -94v-40c0 -77 -54 -138 -153 -138
s-153 61 -153 138v27l104 5v-22c0 -36 19 -56 49 -56z" />
    <glyph glyph-name="afii10074" unicode="&#x438;" horiz-adv-x="389" 
d="M142 214l114 286h93v-500h-102v286l-114 -286h-93v500h102v-286z" />
    <glyph glyph-name="afii10075" unicode="&#x439;" horiz-adv-x="389" 
d="M142 214l114 286h93v-500h-102v286l-114 -286h-93v500h102v-286zM194 640c31 0 42 22 44 72l77 -7c-5 -98 -50 -138 -121 -138s-116 40 -121 138l77 7c2 -50 13 -72 44 -72z" />
    <glyph glyph-name="afii10076" unicode="&#x43a;" horiz-adv-x="373" 
d="M340 500v-21c0 -103 -16 -152 -68 -202l100 -277h-111l-68 204l-48 -44v-160h-105v500h105v-205l30 28c51 47 60 78 60 152v25h105z" />
    <glyph glyph-name="afii10077" unicode="&#x43b;" horiz-adv-x="415" 
d="M172 404v-254c0 -122 -42 -162 -140 -162h-29v95h19c36 0 44 16 44 68v349h309v-500h-106v404h-97z" />
    <glyph glyph-name="afii10078" unicode="&#x43c;" horiz-adv-x="452" 
d="M246 119h-40l-65 169v-288h-101v500h91l95 -249l95 249h91v-500h-101v288z" />
    <glyph glyph-name="afii10079" unicode="&#x43d;" horiz-adv-x="384" 
d="M344 500v-500h-106v208h-92v-208h-106v500h106v-196h92v196h106z" />
    <glyph glyph-name="afii10080" unicode="&#x43e;" horiz-adv-x="380" 
d="M136 327v-154c0 -64 20 -90 54 -90s54 26 54 90v154c0 64 -20 90 -54 90s-54 -26 -54 -90zM350 332v-164c0 -114 -63 -180 -160 -180s-160 66 -160 180v164c0 114 63 180 160 180s160 -66 160 -180z" />
    <glyph glyph-name="afii10081" unicode="&#x43f;" horiz-adv-x="388" 
d="M348 500v-500h-106v404h-96v-404h-106v500h308z" />
    <glyph glyph-name="afii10082" unicode="&#x440;" horiz-adv-x="391" 
d="M146 376v-251c9 -26 28 -41 54 -41c35 0 55 27 55 86v161c0 59 -20 86 -55 86c-26 0 -45 -15 -54 -41zM361 340v-179c0 -122 -59 -172 -129 -172c-40 0 -72 18 -86 48v-255h-106v718h106v-36c14 30 46 48 86 48c70 0 129 -50 129 -172z" />
    <glyph glyph-name="afii10083" unicode="&#x441;" horiz-adv-x="375" 
d="M190 83c34 0 54 26 54 90v3l106 -5v-3c0 -114 -63 -180 -160 -180s-160 66 -160 180v164c0 114 63 180 160 180s160 -66 160 -180v-3l-106 -5v3c0 64 -20 90 -54 90s-54 -26 -54 -90v-154c0 -64 20 -90 54 -90z" />
    <glyph glyph-name="afii10084" unicode="&#x442;" horiz-adv-x="334" 
d="M9 405v95h316v-95h-105v-405h-106v405h-105z" />
    <glyph glyph-name="afii10085" unicode="&#x443;" horiz-adv-x="367" 
d="M113 500l67 -293l74 293h108l-138 -543c-35 -138 -60 -168 -144 -168h-42v95h30c22 0 33 10 43 48l20 82l-126 486h108z" />
    <glyph glyph-name="afii10086" unicode="&#x444;" horiz-adv-x="596" 
d="M30 161v179c0 122 59 172 129 172c40 0 72 -18 86 -48v248h106v-248c14 30 46 48 86 48c70 0 129 -50 129 -172v-179c0 -122 -59 -172 -129 -172c-40 0 -72 18 -86 48v-255h-106v255c-14 -30 -46 -48 -86 -48c-70 0 -129 50 -129 172zM245 125v251c-9 26 -28 41 -54 41
c-35 0 -55 -27 -55 -86v-161c0 -59 20 -86 55 -86c26 0 45 15 54 41zM351 376v-251c9 -26 28 -41 54 -41c35 0 55 27 55 86v161c0 59 -20 86 -55 86c-26 0 -45 -15 -54 -41z" />
    <glyph glyph-name="afii10087" unicode="&#x445;" horiz-adv-x="354" 
d="M124 500l53 -152l53 152h112l-97 -244l103 -256h-113l-58 164l-58 -164h-113l103 256l-97 244h112z" />
    <glyph glyph-name="afii10088" unicode="&#x446;" horiz-adv-x="402" 
d="M347 500v-405h47v-205h-106v110h-248v500h106v-405h95v405h106z" />
    <glyph glyph-name="afii10089" unicode="&#x447;" horiz-adv-x="370" 
d="M138 500v-183c0 -59 16 -77 43 -77c16 0 33 5 43 15v245h106v-500h-106v166c-17 -13 -40 -21 -68 -21c-80 0 -124 57 -124 163v192h106z" />
    <glyph glyph-name="afii10090" unicode="&#x448;" horiz-adv-x="578" 
d="M538 500v-500h-498v500h106v-404h90v404h106v-404h90v404h106z" />
    <glyph glyph-name="afii10091" unicode="&#x449;" horiz-adv-x="593" 
d="M538 500v-405h47v-205h-106v110h-439v500h106v-405h90v405h106v-405h90v405h106z" />
    <glyph glyph-name="afii10092" unicode="&#x44a;" horiz-adv-x="420" 
d="M9 404v96h207v-174h47c83 0 142 -54 142 -155v-16c0 -101 -59 -155 -142 -155h-153v404h-101zM245 231h-29v-136h29c32 0 54 14 54 62v12c0 48 -22 62 -54 62z" />
    <glyph glyph-name="afii10093" unicode="&#x44b;" horiz-adv-x="514" 
d="M368 0v500h106v-500h-106zM146 231h29c32 0 54 -14 54 -62v-12c0 -48 -22 -62 -54 -62h-29v136zM146 326v174h-106v-500h153c83 0 142 54 142 155v16c0 101 -59 155 -142 155h-47z" />
    <glyph glyph-name="afii10094" unicode="&#x44c;" horiz-adv-x="350" 
d="M175 231h-29v-136h29c32 0 54 14 54 62v12c0 48 -22 62 -54 62zM146 500v-174h47c83 0 142 -54 142 -155v-16c0 -101 -59 -155 -142 -155h-153v500h106z" />
    <glyph glyph-name="afii10095" unicode="&#x44d;" horiz-adv-x="375" 
d="M161 296h78v31c0 64 -20 90 -54 90s-54 -26 -54 -90v-3l-106 5v3c0 114 63 180 160 180s160 -66 160 -180v-164c0 -114 -63 -180 -160 -180s-160 66 -160 180v3l106 5v-3c0 -64 20 -90 54 -90s54 26 54 90v29h-78v94z" />
    <glyph glyph-name="afii10096" unicode="&#x44e;" horiz-adv-x="533" 
d="M501 332v-164c0 -114 -63 -180 -160 -180s-160 66 -160 180v33h-35v-201h-106v500h106v-203h35v35c0 114 63 180 160 180s160 -66 160 -180zM287 327v-154c0 -64 20 -90 54 -90s54 26 54 90v154c0 64 -20 90 -54 90s-54 -26 -54 -90z" />
    <glyph glyph-name="afii10097" unicode="&#x44f;" horiz-adv-x="361" 
d="M25 340c0 102 62 160 148 160h148v-500h-106v181h-29l-70 -181h-105l81 202c-40 25 -67 73 -67 138zM131 340c0 -41 18 -65 51 -65h33v131h-33c-33 0 -51 -25 -51 -66z" />
    <glyph glyph-name="uni0450" unicode="&#x450;" horiz-adv-x="380" 
d="M242 146l106 -7c-9 -97 -69 -151 -158 -151c-97 0 -160 66 -160 180v164c0 114 63 180 160 180s160 -66 160 -180v-123h-214v-36c0 -64 20 -90 54 -90c30 0 48 21 52 63zM136 327v-28h108v28c0 64 -20 90 -54 90s-54 -26 -54 -90zM172 564l-83 161h101l58 -161h-76z" />
    <glyph glyph-name="afii10071" unicode="&#x451;" horiz-adv-x="380" 
d="M242 146l106 -7c-9 -97 -69 -151 -158 -151c-97 0 -160 66 -160 180v164c0 114 63 180 160 180s160 -66 160 -180v-123h-214v-36c0 -64 20 -90 54 -90c30 0 48 21 52 63zM136 327v-28h108v28c0 64 -20 90 -54 90s-54 -26 -54 -90zM162 694v-101h-94v101h94zM312 694v-101
h-94v101h94z" />
    <glyph glyph-name="afii10099" unicode="&#x452;" horiz-adv-x="399" 
d="M361 343v-397c0 -116 -36 -158 -130 -158h-50v95h31c33 0 43 14 43 65v389c0 59 -19 80 -51 80c-29 0 -51 -20 -58 -51v-366h-106v575h-42v78h42v59h106v-59h90v-78h-90v-117c15 31 47 54 90 54c81 0 125 -62 125 -169z" />
    <glyph glyph-name="afii10100" unicode="&#x453;" horiz-adv-x="309" 
d="M146 405v-405h-106v500h258v-95h-152zM261 725l-83 -161h-76l58 161h101z" />
    <glyph glyph-name="afii10101" unicode="&#x454;" horiz-adv-x="375" 
d="M136 296h78v-94h-78v-29c0 -64 20 -90 54 -90s54 26 54 90v3l106 -5v-3c0 -114 -63 -180 -160 -180s-160 66 -160 180v164c0 114 63 180 160 180s160 -66 160 -180v-3l-106 -5v3c0 64 -20 90 -54 90s-54 -26 -54 -90v-31z" />
    <glyph glyph-name="afii10102" unicode="&#x455;" horiz-adv-x="351" 
d="M138 146v-15c0 -31 14 -48 40 -48s40 17 40 48v10c0 38 -11 50 -50 63l-27 9c-81 27 -111 64 -111 155v9c0 77 46 135 140 135c96 0 142 -58 142 -135v-17l-106 -4v18c0 25 -10 43 -35 43s-35 -18 -35 -43v-6c0 -39 10 -50 49 -64l38 -14c72 -26 101 -60 101 -146v-15
c0 -86 -53 -141 -146 -141s-146 55 -146 141v13z" />
    <glyph glyph-name="afii10103" unicode="&#x456;" horiz-adv-x="198" 
d="M46 0v500h106v-500h-106zM46 590v122h106v-122h-106z" />
    <glyph glyph-name="afii10104" unicode="&#x457;" horiz-adv-x="198" 
d="M46 0v500h106v-500h-106zM71 694v-101h-94v101h94zM221 694v-101h-94v101h94z" />
    <glyph glyph-name="afii10105" unicode="&#x458;" horiz-adv-x="198" 
d="M46 590v122h106v-122h-106zM152 500v-549c0 -122 -42 -163 -139 -163h-34v96h23c36 0 44 16 44 68v548h106z" />
    <glyph glyph-name="afii10106" unicode="&#x459;" horiz-adv-x="578" 
d="M172 404v-218c0 -151 -31 -198 -140 -198h-29v95h19c36 0 44 16 44 68v349h308v-174h47c83 0 142 -54 142 -155v-16c0 -101 -59 -155 -142 -155h-153v404h-96zM403 231h-29v-136h29c32 0 54 14 54 62v12c0 48 -22 62 -54 62z" />
    <glyph glyph-name="afii10107" unicode="&#x45a;" horiz-adv-x="548" 
d="M344 500v-174h47c83 0 142 -54 142 -155v-16c0 -101 -59 -155 -142 -155h-153v208h-92v-208h-106v500h106v-197h92v197h106zM373 231h-29v-136h29c32 0 54 14 54 62v12c0 48 -22 62 -54 62z" />
    <glyph glyph-name="afii10108" unicode="&#x45b;" horiz-adv-x="399" 
d="M-2 653h42v59h106v-59h90v-78h-90v-117c15 31 47 54 90 54c81 0 125 -62 125 -169v-343h-106v337c0 59 -19 80 -51 80c-29 0 -51 -20 -58 -51v-366h-106v575h-42v78z" />
    <glyph glyph-name="afii10109" unicode="&#x45c;" horiz-adv-x="373" 
d="M340 500v-21c0 -103 -16 -152 -68 -202l100 -277h-111l-68 204l-48 -44v-160h-105v500h105v-205l30 28c51 47 60 78 60 152v25h105zM279 725l-83 -161h-76l58 161h101z" />
    <glyph glyph-name="uni045D" unicode="&#x45d;" horiz-adv-x="389" 
d="M256 500l-114 -286v286h-102v-500h93l114 286v-286h102v500h-93zM178 564l-83 161h101l58 -161h-76z" />
    <glyph glyph-name="afii10110" unicode="&#x45e;" horiz-adv-x="367" 
d="M113 500l67 -293l74 293h108l-138 -543c-35 -138 -60 -168 -144 -168h-42v95h30c22 0 33 10 43 48l20 82l-126 486h108zM183 640c31 0 42 22 44 72l77 -7c-5 -98 -50 -138 -121 -138s-116 40 -121 138l77 7c2 -50 13 -72 44 -72z" />
    <glyph glyph-name="afii10193" unicode="&#x45f;" horiz-adv-x="388" 
d="M348 500v-500h-102v-110h-106v110h-100v500h106v-405h96v405h106z" />
    <glyph glyph-name="afii10050" unicode="&#x490;" horiz-adv-x="391" 
d="M386 840v-244h-224v-596h-116v700h224v140h116z" />
    <glyph glyph-name="afii10098" unicode="&#x491;" horiz-adv-x="310" 
d="M193 500v108h106v-203h-152v-405h-106v500h152z" />
    <glyph glyph-name="Wgrave" unicode="&#x1e80;" horiz-adv-x="670" 
d="M391 700l77 -458l76 458h118l-136 -700h-111l-80 474l-80 -474h-111l-136 700h118l76 -458l78 458h111zM309 763l-83 161h101l58 -161h-76z" />
    <glyph glyph-name="wgrave" unicode="&#x1e81;" horiz-adv-x="576" 
d="M336 500h-96l-65 -310l-60 310h-109l114 -500h100l68 326l68 -326h100l114 500h-109l-60 -310zM263 564l-83 161h101l58 -161h-76z" />
    <glyph glyph-name="Wacute" unicode="&#x1e82;" horiz-adv-x="670" 
d="M391 700l77 -458l76 458h118l-136 -700h-111l-80 474l-80 -474h-111l-136 700h118l76 -458l78 458h111zM445 924l-83 -161h-76l58 161h101z" />
    <glyph glyph-name="wacute" unicode="&#x1e83;" horiz-adv-x="576" 
d="M240 500h96l65 -310l60 310h109l-114 -500h-100l-68 326l-68 -326h-100l-114 500h109l60 -310zM395 725l-83 -161h-76l58 161h101z" />
    <glyph glyph-name="Wdieresis" unicode="&#x1e84;" horiz-adv-x="670" 
d="M391 700l77 -458l76 458h118l-136 -700h-111l-80 474l-80 -474h-111l-136 700h118l76 -458l78 458h111zM307 893v-101h-94v101h94zM457 893v-101h-94v101h94z" />
    <glyph glyph-name="wdieresis" unicode="&#x1e85;" horiz-adv-x="576" 
d="M336 500h-96l-65 -310l-60 310h-109l114 -500h100l68 326l68 -326h100l114 500h-109l-60 -310zM260 694v-101h-94v101h94zM410 694v-101h-94v101h94z" />
    <glyph glyph-name="Ygrave" unicode="&#x1ef2;" horiz-adv-x="426" 
d="M155 0v317l-147 383h119l86 -248l86 248h119l-147 -383v-317h-116zM187 763l-83 161h101l58 -161h-76z" />
    <glyph glyph-name="ygrave" unicode="&#x1ef3;" horiz-adv-x="367" 
d="M113 500l67 -293l74 293h108l-138 -543c-35 -138 -60 -168 -144 -168h-42v95h30c22 0 33 10 43 48l20 82l-126 486h108zM165 564l-83 161h101l58 -161h-76z" />
    <glyph glyph-name="thinspace" unicode="&#x2009;" horiz-adv-x="140" 
 />
    <glyph glyph-name="uni2010" unicode="&#x2010;" horiz-adv-x="302" 
d="M33 278v94h236v-94h-236z" />
    <glyph glyph-name="figuredash" unicode="&#x2012;" horiz-adv-x="430" 
d="M394 278h-358v96h358v-96z" />
    <glyph glyph-name="endash" unicode="&#x2013;" horiz-adv-x="358" 
d="M358 278h-358v96h358v-96z" />
    <glyph glyph-name="emdash" unicode="&#x2014;" horiz-adv-x="717" 
d="M717 279h-717v95h717v-95z" />
    <glyph glyph-name="afii00208" unicode="&#x2015;" horiz-adv-x="717" 
d="M645 279h-573v95h573v-95z" />
    <glyph glyph-name="uni2016" unicode="&#x2016;" horiz-adv-x="387" 
d="M78 -130v879h87v-879h-87zM222 -130v879h87v-879h-87z" />
    <glyph glyph-name="underscoredbl" unicode="&#x2017;" horiz-adv-x="481" 
d="M38 -214v74h405v-74h-405zM38 -101v74h405v-74h-405z" />
    <glyph glyph-name="quoteleft" unicode="&#x2018;" horiz-adv-x="194" 
d="M100 652h53v-122h-112v130c0 75 32 111 112 117v-51c-37 -6 -53 -21 -53 -64v-10z" />
    <glyph glyph-name="quoteright" unicode="&#x2019;" horiz-adv-x="194" 
d="M94 655h-53v122h112v-130c0 -75 -32 -111 -112 -117v51c37 6 53 21 53 64v10z" />
    <glyph glyph-name="quotesinglbase" unicode="&#x201a;" horiz-adv-x="194" 
d="M94 0h-53v122h112v-130c0 -75 -32 -111 -112 -117v51c37 6 53 21 53 64v10z" />
    <glyph glyph-name="quotereversed" unicode="&#x201b;" horiz-adv-x="194" 
d="M153 655h-53v-10c0 -43 16 -58 53 -64v-51c-80 6 -112 42 -112 117v130h112v-122z" />
    <glyph glyph-name="quotedblleft" unicode="&#x201c;" horiz-adv-x="348" 
d="M254 652h53v-122h-112v130c0 75 32 111 112 117v-51c-37 -6 -53 -21 -53 -64v-10zM100 652h53v-122h-112v130c0 75 32 111 112 117v-51c-37 -6 -53 -21 -53 -64v-10z" />
    <glyph glyph-name="quotedblright" unicode="&#x201d;" horiz-adv-x="348" 
d="M248 655h-53v122h112v-130c0 -75 -32 -111 -112 -117v51c37 6 53 21 53 64v10zM94 655h-53v122h112v-130c0 -75 -32 -111 -112 -117v51c37 6 53 21 53 64v10z" />
    <glyph glyph-name="quotedblbase" unicode="&#x201e;" horiz-adv-x="348" 
d="M248 0h-53v122h112v-130c0 -75 -32 -111 -112 -117v51c37 6 53 21 53 64v10zM94 0h-53v122h112v-130c0 -75 -32 -111 -112 -117v51c37 6 53 21 53 64v10z" />
    <glyph glyph-name="uni201F" unicode="&#x201f;" horiz-adv-x="348" 
d="M307 655h-53v-10c0 -43 16 -58 53 -64v-51c-80 6 -112 42 -112 117v130h112v-122zM153 655h-53v-10c0 -43 16 -58 53 -64v-51c-80 6 -112 42 -112 117v130h112v-122z" />
    <glyph glyph-name="dagger" unicode="&#x2020;" horiz-adv-x="409" 
d="M364 580v-92h-108v-619h-103v619h-108v92h108v168h103v-168h108z" />
    <glyph glyph-name="daggerdbl" unicode="&#x2021;" horiz-adv-x="409" 
d="M45 37v91h108v360h-108v92h108v168h103v-168h108v-92h-108v-360h108v-91h-108v-168h-103v168h-108z" />
    <glyph glyph-name="bullet" unicode="&#x2022;" horiz-adv-x="286" 
d="M33 326c0 61 49 111 110 111s110 -50 110 -111s-49 -111 -110 -111s-110 50 -110 111z" />
    <glyph glyph-name="onedotenleader" unicode="&#x2024;" horiz-adv-x="194" 
d="M153 122v-122h-112v122h112z" />
    <glyph glyph-name="twodotenleader" unicode="&#x2025;" horiz-adv-x="388" 
d="M153 122v-122h-112v122h112zM347 122v-122h-112v122h112z" />
    <glyph glyph-name="ellipsis" unicode="&#x2026;" horiz-adv-x="582" 
d="M153 122v-122h-112v122h112zM541 122v-122h-112v122h112zM347 122v-122h-112v122h112z" />
    <glyph glyph-name="perthousand" unicode="&#x2030;" horiz-adv-x="864" 
d="M145 335c-72 0 -107 52 -107 123v131c0 71 35 123 107 123s107 -52 107 -123v-131c0 -71 -35 -123 -107 -123zM145 632c-15 0 -22 -11 -22 -33v-151c0 -22 7 -33 22 -33s22 11 22 33v151c0 22 -7 33 -22 33zM452 700l-208 -700h-80l208 700h80zM471 -12
c-72 0 -107 52 -107 123v131c0 71 35 123 107 123s107 -52 107 -123v-131c0 -71 -35 -123 -107 -123zM471 285c-15 0 -22 -11 -22 -33v-151c0 -22 7 -33 22 -33s22 11 22 33v151c0 22 -7 33 -22 33zM719 -12c-72 0 -107 52 -107 123v131c0 71 35 123 107 123
s107 -52 107 -123v-131c0 -71 -35 -123 -107 -123zM719 285c-15 0 -22 -11 -22 -33v-151c0 -22 7 -33 22 -33s22 11 22 33v151c0 22 -7 33 -22 33z" />
    <glyph glyph-name="minute" unicode="&#x2032;" horiz-adv-x="180" 
d="M23 471l35 229h100l-57 -229h-78z" />
    <glyph glyph-name="second" unicode="&#x2033;" horiz-adv-x="323" 
d="M23 471l35 229h100l-57 -229h-78zM165 471l35 229h100l-57 -229h-78z" />
    <glyph glyph-name="guilsinglleft" unicode="&#x2039;" horiz-adv-x="209" 
d="M25 341l158 129v-95l-81 -63l81 -63v-95l-158 129v58z" />
    <glyph glyph-name="guilsinglright" unicode="&#x203a;" horiz-adv-x="209" 
d="M25 470l158 -129v-58l-158 -129v95l81 63l-81 63v95z" />
    <glyph glyph-name="exclamdbl" unicode="&#x203c;" horiz-adv-x="392" 
d="M241 218l-15 378v104h112v-104l-15 -378h-82zM336 118v-118h-108v118h108zM69 218l-15 378v104h112v-104l-15 -378h-82zM164 118v-118h-108v118h108z" />
    <glyph glyph-name="uni203E" unicode="&#x203e;" 
d="M28 610v76h222v-76h-222z" />
    <glyph glyph-name="fraction" unicode="&#x2044;" horiz-adv-x="133" 
d="M223 700l-230 -700h-83l230 700h83z" />
    <glyph glyph-name="zerosuperior" unicode="&#x2070;" 
d="M139 626c-19 0 -29 -13 -29 -54v-207c0 -41 10 -54 29 -54s29 13 29 54v207c0 41 -10 54 -29 54zM139 229c-73 0 -119 47 -119 132v215c0 85 46 132 119 132s119 -47 119 -132v-215c0 -85 -46 -132 -119 -132z" />
    <glyph glyph-name="uni2071" unicode="&#x2071;" 
d="M94 237v325h90v-325h-90zM94 607v93h90v-93h-90z" />
    <glyph glyph-name="foursuperior" unicode="&#x2074;" 
d="M103 404h55v128zM277 404v-81h-34v-86h-85v86h-132v72l132 305h85v-296h34z" />
    <glyph glyph-name="fivesuperior" unicode="&#x2075;" 
d="M163 311c23 0 27 18 27 60v40c0 48 -7 58 -22 58c-13 0 -17 -9 -19 -25h-88v256h202v-82h-112v-84c11 10 23 15 41 15c53 0 88 -31 88 -147v-32c0 -91 -32 -141 -117 -141c-84 0 -117 50 -117 141v14l90 3v-23c0 -37 7 -53 27 -53z" />
    <glyph glyph-name="sixsuperior" unicode="&#x2076;" 
d="M188 371v14c0 41 -7 62 -30 62c-22 0 -30 -20 -30 -58v-18c0 -39 8 -63 30 -63s30 24 30 63zM276 388v-20c0 -89 -44 -139 -118 -139s-118 50 -118 139v20c0 37 6 72 18 107l71 205h95l-58 -175c69 0 110 -48 110 -137z" />
    <glyph glyph-name="sevensuperior" unicode="&#x2077;" 
d="M44 623v77h233v-67l-110 -396h-93l108 386h-138z" />
    <glyph glyph-name="eightsuperior" unicode="&#x2078;" 
d="M158 633c-17 0 -25 -12 -25 -45v-18c0 -32 8 -45 25 -45s25 13 25 45v18c0 33 -8 45 -25 45zM158 451c-22 0 -32 -16 -32 -62v-22c0 -45 10 -62 32 -62s32 17 32 62v22c0 46 -10 62 -32 62zM158 230c-78 0 -120 48 -120 140v17c0 52 14 86 45 104c-23 16 -34 44 -34 82
v15c0 76 38 120 109 120s109 -44 109 -120v-15c0 -38 -11 -66 -34 -82c31 -18 45 -52 45 -104v-17c0 -92 -42 -140 -120 -140z" />
    <glyph glyph-name="ninesuperior" unicode="&#x2079;" 
d="M128 566v-14c0 -41 7 -62 30 -62c22 0 30 20 30 58v18c0 39 -8 63 -30 63s-30 -24 -30 -63zM40 549v20c0 89 44 139 118 139s118 -50 118 -139v-20c0 -37 -6 -72 -18 -107l-71 -205h-95l58 175c-69 0 -110 48 -110 137z" />
    <glyph glyph-name="uni207A" unicode="&#x207a;" 
d="M97 345v86h-78v72h78v86h84v-86h78v-72h-78v-86h-84z" />
    <glyph glyph-name="uni207B" unicode="&#x207b;" 
d="M259 431h-240v72h240v-72z" />
    <glyph glyph-name="uni207C" unicode="&#x207c;" 
d="M259 494h-240v72h240v-72zM259 370h-240v72h240v-72z" />
    <glyph glyph-name="uni207D" unicode="&#x207d;" 
d="M79 351v235c0 93 43 151 121 179l24 -78c-35 -16 -55 -47 -55 -104v-229c0 -57 20 -88 55 -104l-24 -78c-78 28 -121 86 -121 179z" />
    <glyph glyph-name="uni207E" unicode="&#x207e;" 
d="M199 586v-235c0 -93 -43 -151 -121 -179l-24 78c35 16 55 47 55 104v229c0 57 -20 88 -55 104l24 78c78 -28 121 -86 121 -179z" />
    <glyph glyph-name="uni207F" unicode="&#x207f;" 
d="M111 497v-260h-84v351h84v-27c12 21 32 36 61 36c59 0 78 -41 78 -131v-229h-84v249c0 25 -13 34 -25 34c-11 0 -23 -6 -30 -23z" />
    <glyph glyph-name="zeroinferior" unicode="&#x2080;" 
d="M139 263c-19 0 -29 -13 -29 -54v-207c0 -41 10 -54 29 -54s29 13 29 54v207c0 41 -10 54 -29 54zM139 -134c-73 0 -119 47 -119 132v215c0 85 46 132 119 132s119 -47 119 -132v-215c0 -85 -46 -132 -119 -132z" />
    <glyph glyph-name="oneinferior" unicode="&#x2081;" 
d="M254 -126h-208v81h60v289l-60 -26v83l76 36h73v-382h59v-81z" />
    <glyph glyph-name="twoinferior" unicode="&#x2082;" 
d="M46 195v17c0 88 42 133 116 133s116 -45 116 -133v-11c0 -41 -7 -72 -31 -109l-88 -137h119v-81h-230v69l122 193c14 22 18 44 18 65v13c0 34 -10 45 -26 45s-26 -11 -26 -45v-22z" />
    <glyph glyph-name="threeinferior" unicode="&#x2083;" 
d="M187 -1v35c0 45 -8 58 -28 58c-8 0 -16 -4 -24 -10l-46 46l78 126h-112v83h210v-77l-65 -101c50 -3 77 -44 77 -118v-36c0 -90 -35 -139 -116 -139s-117 49 -117 139v18l90 3v-27c0 -36 7 -52 27 -52c21 0 26 17 26 52z" />
    <glyph glyph-name="fourinferior" unicode="&#x2084;" 
d="M103 41h55v128zM277 41v-81h-34v-86h-85v86h-132v72l132 305h85v-296h34z" />
    <glyph glyph-name="fiveinferior" unicode="&#x2085;" 
d="M163 -52c23 0 27 18 27 60v40c0 48 -7 58 -22 58c-13 0 -17 -9 -19 -25h-88v256h202v-82h-112v-84c11 10 23 15 41 15c53 0 88 -31 88 -147v-32c0 -91 -32 -141 -117 -141c-84 0 -117 50 -117 141v14l90 3v-23c0 -37 7 -53 27 -53z" />
    <glyph glyph-name="sixinferior" unicode="&#x2086;" 
d="M188 8v14c0 41 -7 62 -30 62c-22 0 -30 -20 -30 -58v-18c0 -39 8 -63 30 -63s30 24 30 63zM276 25v-20c0 -89 -44 -139 -118 -139s-118 50 -118 139v20c0 37 6 72 18 107l71 205h95l-58 -175c69 0 110 -48 110 -137z" />
    <glyph glyph-name="seveninferior" unicode="&#x2087;" 
d="M44 260v77h233v-67l-110 -396h-93l108 386h-138z" />
    <glyph glyph-name="eightinferior" unicode="&#x2088;" 
d="M158 270c-17 0 -25 -12 -25 -45v-18c0 -32 8 -45 25 -45s25 13 25 45v18c0 33 -8 45 -25 45zM158 88c-22 0 -32 -16 -32 -62v-22c0 -45 10 -62 32 -62s32 17 32 62v22c0 46 -10 62 -32 62zM158 -133c-78 0 -120 48 -120 140v17c0 52 14 86 45 104c-23 16 -34 44 -34 82
v15c0 76 38 120 109 120s109 -44 109 -120v-15c0 -38 -11 -66 -34 -82c31 -18 45 -52 45 -104v-17c0 -92 -42 -140 -120 -140z" />
    <glyph glyph-name="nineinferior" unicode="&#x2089;" 
d="M128 203v-14c0 -41 7 -62 30 -62c22 0 30 20 30 58v18c0 39 -8 63 -30 63s-30 -24 -30 -63zM40 186v20c0 89 44 139 118 139s118 -50 118 -139v-20c0 -37 -6 -72 -18 -107l-71 -205h-95l58 175c-69 0 -110 48 -110 137z" />
    <glyph glyph-name="uni208A" unicode="&#x208a;" 
d="M97 -18v86h-78v72h78v86h84v-86h78v-72h-78v-86h-84z" />
    <glyph glyph-name="uni208B" unicode="&#x208b;" 
d="M259 68h-240v72h240v-72z" />
    <glyph glyph-name="uni208C" unicode="&#x208c;" 
d="M259 131h-240v72h240v-72zM259 7h-240v72h240v-72z" />
    <glyph glyph-name="uni208D" unicode="&#x208d;" 
d="M79 -12v235c0 93 43 151 121 179l24 -78c-35 -16 -55 -47 -55 -104v-229c0 -57 20 -88 55 -104l-24 -78c-78 28 -121 86 -121 179z" />
    <glyph glyph-name="uni208E" unicode="&#x208e;" 
d="M199 223v-235c0 -93 -43 -151 -121 -179l-24 78c35 16 55 47 55 104v229c0 57 -20 88 -55 104l24 78c78 -28 121 -86 121 -179z" />
    <glyph glyph-name="uni2090" unicode="&#x2090;" 
d="M129 -65c15 0 28 7 39 26v57h-25c-25 0 -39 -13 -39 -40v-8c0 -23 8 -35 25 -35zM114 126v-3l-78 3v4c0 67 40 105 105 105c66 0 105 -38 105 -105v-256h-78v23c-10 -20 -30 -31 -54 -31c-45 0 -88 30 -88 102v10c0 66 42 103 111 103h31v45c0 27 -8 40 -27 40
s-27 -13 -27 -40z" />
    <glyph glyph-name="uni2091" unicode="&#x2091;" 
d="M139 -134c-71 0 -112 47 -112 122v125c0 75 41 122 112 122c72 0 112 -47 112 -122v-89h-146v-26c0 -42 12 -59 34 -59c21 0 30 13 32 42l79 -5c-8 -67 -41 -110 -111 -110zM105 103v-19h68v19c0 42 -9 59 -34 59c-24 0 -34 -17 -34 -59z" />
    <glyph glyph-name="uni2092" unicode="&#x2092;" 
d="M173 -3v107c0 42 -10 59 -34 59c-25 0 -34 -17 -34 -59v-107c0 -42 9 -59 34 -59c24 0 34 17 34 59zM251 113v-125c0 -76 -41 -122 -112 -122c-72 0 -112 46 -112 122v125c0 76 40 122 112 122c71 0 112 -46 112 -122z" />
    <glyph glyph-name="uni2093" unicode="&#x2093;" 
d="M180 -125l-41 117l-41 -117h-84l74 180l-66 165h82l35 -100l35 100h82l-66 -165l74 -180h-84z" />
    <glyph glyph-name="uni2094" unicode="&#x2094;" 
d="M139 235c71 0 112 -47 112 -122v-125c0 -75 -41 -122 -112 -122c-72 0 -112 47 -112 122v89h146v26c0 42 -12 59 -34 59c-21 0 -30 -13 -32 -42l-79 5c8 67 41 110 111 110zM173 -2v19h-68v-19c0 -42 9 -59 34 -59c24 0 34 17 34 59z" />
    <glyph glyph-name="uni20A0" unicode="&#x20a0;" horiz-adv-x="509" 
d="M27 357v201c0 104 62 154 159 154s156 -50 156 -154v-16l-103 -3v11c0 49 -21 71 -53 71c-36 0 -52 -26 -52 -84v-171c0 -49 21 -71 54 -71c21 0 38 5 51 18v177h251v-91h-145v-106h117v-90h-117v-113h145v-90h-251v219c-17 -11 -40 -15 -64 -15c-84 0 -148 48 -148 153z
" />
    <glyph glyph-name="colonmonetary" unicode="&#x20a1;" horiz-adv-x="438" 
d="M208 -11v-83h-59v94c-72 26 -115 95 -115 209v282c0 113 44 182 115 208v95h59v-83c5 1 10 1 15 1s11 0 17 -1v83h59v-95c70 -27 113 -96 113 -208v-22l-116 -5v12c0 92 -23 132 -73 132s-73 -40 -73 -132v-252c0 -92 23 -132 73 -132s73 40 73 132v12l116 -5v-22
c0 -113 -43 -181 -113 -208v-95h-59v83c-6 -1 -12 -1 -17 -1s-10 0 -15 1z" />
    <glyph glyph-name="uni20A2" unicode="&#x20a2;" horiz-adv-x="438" 
d="M296 224v12l116 -5v-22c0 -149 -75 -221 -189 -221s-189 72 -189 221v282c0 149 75 221 189 221s189 -72 189 -221v-22l-116 -5v12c0 92 -23 132 -73 132s-73 -40 -73 -132v-252c0 -62 10 -100 32 -119v292h83v-34c12 27 33 43 58 43c11 0 21 -2 30 -6v-89
c-11 4 -24 6 -35 6c-22 0 -42 -15 -53 -41v-170c21 19 31 57 31 118z" />
    <glyph glyph-name="franc" unicode="&#x20a3;" horiz-adv-x="385" 
d="M-5 320h51v50h-51v63h51v267h323v-104h-207v-163h138v-63h-138v-50h138v-63h-138v-257h-116v257h-51v63z" />
    <glyph glyph-name="lira" unicode="&#x20a4;" horiz-adv-x="430" 
d="M402 519v-16l-116 -5v23c0 58 -13 87 -49 87s-49 -29 -49 -87v-116h134v-64h-134v-46h134v-63h-134c0 -63 -10 -101 -28 -128h241v-104h-369v88c27 35 40 80 40 133v11h-48v63h48v46h-48v64h48v114c0 116 46 193 165 193s165 -77 165 -193z" />
    <glyph glyph-name="uni20A6" unicode="&#x20a6;" horiz-adv-x="492" 
d="M0 436h57v264h103l161 -429v429h114v-267h57v-64h-57v-42h57v-64h-57v-263h-103l-161 429v-429h-114v266h-57v64h57v42h-57v64z" />
    <glyph glyph-name="peseta" unicode="&#x20a7;" horiz-adv-x="853" 
d="M260 478c0 75 -26 121 -80 121h-22v-243h22c54 0 80 46 80 122zM814 360l-100 -4v22c0 25 -9 39 -30 39s-30 -14 -30 -39v-8c0 -39 10 -50 47 -62l19 -6c77 -24 106 -64 106 -146v-16c0 -86 -55 -140 -144 -140h-160c-87 0 -126 41 -126 157v248h-38
c-21 -102 -87 -149 -166 -149h-34v-256h-112v700h131c96 0 179 -50 188 -200h31v142h103v-142h78v-37c23 30 58 49 107 49c83 0 130 -56 130 -138v-14zM547 95h115c40 0 61 17 61 55v15c0 25 -12 40 -45 51l-21 7c-75 25 -106 56 -106 146v4c0 11 1 22 3 32h-55v-246
c0 -51 11 -64 48 -64z" />
    <glyph glyph-name="uni20A8" unicode="&#x20a8;" horiz-adv-x="710" 
d="M301 298l100 -298h-116l-84 269h-45v-269h-110v700h149c107 0 185 -66 185 -216c0 -93 -30 -154 -79 -186zM270 484c0 71 -26 115 -89 115h-25v-229h25c63 0 89 44 89 114zM410 142l101 4v-16c0 -31 13 -50 35 -50s35 19 35 50v9c0 43 -16 54 -63 72l-21 8
c-66 25 -90 63 -90 149v9c0 77 45 135 131 135s131 -58 131 -135v-17l-101 -4v19c0 29 -9 44 -30 44s-30 -15 -30 -44v-5c0 -37 11 -53 53 -69l16 -6c81 -30 105 -67 105 -151v-15c0 -86 -50 -141 -136 -141s-136 55 -136 141v13z" />
    <glyph glyph-name="uni20A9" unicode="&#x20a9;" horiz-adv-x="670" 
d="M0 438h59l-51 262h118l76 -458l78 458h111l77 -458l76 458h118l-51 -262h59v-64h-72l-8 -42h80v-64h-92l-52 -268h-111l-80 474l-80 -474h-111l-52 268h-92v64h79l-8 42h-71v64z" />
    <glyph glyph-name="afii57636" unicode="&#x20aa;" horiz-adv-x="635" 
d="M47 0v700h218c118 0 176 -65 176 -206v-234h-100v217c0 95 -29 128 -83 128h-111v-605h-100zM588 700v-700h-218c-118 0 -176 65 -176 206v234h100v-217c0 -95 29 -128 83 -128h111v605h100z" />
    <glyph glyph-name="dong" unicode="&#x20ab;" horiz-adv-x="401" 
d="M165 564v78h80v58h106v-58h50v-78h-50v-564h-106v36c-14 -30 -46 -48 -86 -48c-70 0 -129 50 -129 172v169c0 122 59 172 129 172c40 0 72 -18 86 -48v111h-80zM245 124v241c-9 26 -28 41 -54 41c-35 0 -55 -27 -55 -86v-151c0 -59 20 -86 55 -86c26 0 45 15 54 41z
M83 -155v77h254v-77h-254z" />
    <glyph glyph-name="Euro" unicode="&#x20ac;" horiz-adv-x="453" 
d="M165 325h94l-7 -64h-87v-37c0 -92 23 -132 73 -132s73 40 73 132v12l116 -5v-22c0 -149 -75 -221 -189 -221s-189 72 -189 221v52h-38v64h38v46h-38v64h38v56c0 149 75 221 189 221s189 -72 189 -221v-22l-116 -5v12c0 92 -23 132 -73 132s-73 -40 -73 -132v-41h108
l-7 -64h-101v-46z" />
    <glyph glyph-name="afii61248" unicode="&#x2105;" horiz-adv-x="738" 
d="M525 700l-230 -700h-83l230 700h83zM618 160v117c0 56 -8 82 -39 82s-39 -26 -39 -82v-117c0 -56 8 -82 39 -82s39 26 39 82zM711 293v-149c0 -96 -48 -152 -132 -152s-132 56 -132 152v149c0 96 48 152 132 152s132 -56 132 -152zM159 341c30 0 38 24 39 76l93 -5v-5
c0 -96 -48 -152 -132 -152s-132 56 -132 152v149c0 96 48 152 132 152s132 -56 132 -152v-5l-93 -5c-1 52 -9 76 -39 76c-31 0 -39 -26 -39 -82v-117c0 -56 8 -82 39 -82z" />
    <glyph glyph-name="uni2109" unicode="&#x2109;" horiz-adv-x="619" 
d="M174 600c0 27 -16 43 -38 43s-38 -16 -38 -43s16 -43 38 -43s38 16 38 43zM246 600c0 -65 -44 -111 -110 -111s-110 46 -110 111s44 111 110 111s110 -46 110 -111zM280 0v700h323v-104h-207v-194h185v-104h-185v-298h-116z" />
    <glyph glyph-name="afii61289" unicode="&#x2113;" horiz-adv-x="378" 
d="M6 221c25 7 48 16 71 26v279c0 119 36 186 134 186c87 0 134 -58 134 -158v-34c0 -156 -59 -261 -164 -331v-44c0 -46 13 -58 33 -58c18 0 32 13 34 57l104 -9c-5 -93 -50 -147 -141 -147c-88 0 -134 52 -134 149c-8 -3 -30 -11 -46 -15zM181 524v-204
c37 43 60 102 60 186v28c0 61 -6 78 -30 78c-25 0 -30 -19 -30 -88z" />
    <glyph glyph-name="afii61352" unicode="&#x2116;" horiz-adv-x="657" 
d="M259 0l-118 420v-420h-94v700h89l118 -420v420h94v-700h-89zM385 0v77h242v-77h-242zM626 372v-125c0 -96 -55 -142 -121 -142s-121 46 -121 142v125c0 96 55 142 121 142s121 -46 121 -142zM470 370v-121c0 -37 10 -58 35 -58s35 21 35 58v121c0 37 -10 58 -35 58
s-35 -21 -35 -58z" />
    <glyph glyph-name="uni2117" unicode="&#x2117;" horiz-adv-x="542" 
d="M394 424c0 -88 -44 -134 -119 -134h-26v-151h-75v419h101c75 0 119 -46 119 -134zM249 358h22c32 0 48 21 48 66v8c-2 43 -18 58 -48 58h-22v-132zM30 283v133c0 204 91 296 241 296s241 -92 241 -296v-133c0 -203 -91 -295 -241 -295s-241 92 -241 295zM453 291v117
c0 182 -69 250 -182 250s-182 -68 -182 -250v-117c0 -181 69 -249 182 -249s182 68 182 249z" />
    <glyph glyph-name="uni2120" unicode="&#x2120;" horiz-adv-x="472" 
d="M317 444l-31 88v-166h-70v334h62l54 -158l54 158h62v-334h-70v166l-31 -88h-30zM13 451v6l70 3v-10c0 -17 7 -27 21 -27s21 10 21 27v10c0 24 -4 34 -26 40c-61 15 -88 44 -88 103v14c0 51 32 89 88 89s88 -38 88 -89v-10l-70 -3v14c0 18 -7 24 -18 24s-18 -6 -18 -24
v-14c0 -19 8 -30 35 -38c50 -15 79 -38 79 -98v-17c0 -55 -36 -91 -91 -91s-91 36 -91 91z" />
    <glyph glyph-name="uni2121" unicode="&#x2121;" horiz-adv-x="760" 
d="M8 604v96h301v-96h-97v-604h-107v604h-97zM358 296h96v46c0 55 -12 83 -48 83s-48 -28 -48 -83v-46zM586 157v555h95v-561c0 -51 13 -65 46 -65h20v-86h-44c-87 0 -117 41 -117 157zM263 172v156c0 94 30 184 143 184s143 -90 143 -184v-117h-193v-73
c0 -42 20 -64 49 -64s46 26 47 72l94 -7c-6 -91 -49 -151 -140 -151c-113 0 -143 90 -143 184z" />
    <glyph glyph-name="trademark" unicode="&#x2122;" horiz-adv-x="469" 
d="M8 626v74h187v-74h-56v-260h-75v260h-56zM314 444l-31 88v-166h-70v334h62l54 -158l54 158h62v-334h-70v166l-31 -88h-30z" />
    <glyph glyph-name="Omega" unicode="&#x2126;" horiz-adv-x="454" 
d="M227 712c114 0 189 -72 189 -221v-213c0 -97 -22 -147 -59 -174h56v-104h-162v94c44 25 49 82 49 178v204c0 92 -23 132 -73 132s-73 -40 -73 -132v-204c0 -96 5 -153 49 -178v-94h-162v104h56c-37 27 -59 77 -59 174v213c0 149 75 221 189 221z" />
    <glyph glyph-name="estimated" unicode="&#x212e;" horiz-adv-x="518" 
d="M383 371v237c-27 37 -72 57 -124 57s-97 -20 -124 -57v-237h248zM135 324v-228c27 -42 78 -61 129 -61c73 0 115 29 149 82l51 -10c-45 -82 -112 -119 -200 -119c-136 0 -232 101 -232 283v158c0 182 97 283 227 283s227 -101 227 -283v-105h-351z" />
    <glyph glyph-name="onethird" unicode="&#x2153;" horiz-adv-x="696" 
d="M252 237h-208v81h60v289l-60 -26v83l76 36h73v-382h59v-81zM504 700l-230 -700h-83l230 700h83zM605 125v35c0 45 -8 58 -28 58c-8 0 -16 -4 -24 -10l-46 46l78 126h-112v83h210v-77l-65 -101c50 -3 77 -44 77 -118v-36c0 -90 -35 -139 -116 -139s-117 49 -117 139v18
l90 3v-27c0 -36 7 -52 27 -52c21 0 26 17 26 52z" />
    <glyph glyph-name="twothirds" unicode="&#x2154;" horiz-adv-x="696" 
d="M46 558v17c0 88 42 133 116 133s116 -45 116 -133v-11c0 -41 -7 -72 -31 -109l-88 -137h119v-81h-230v69l122 193c14 22 18 44 18 65v13c0 34 -10 45 -26 45s-26 -11 -26 -45v-22zM504 700l-230 -700h-83l230 700h83zM605 125v35c0 45 -8 58 -28 58c-8 0 -16 -4 -24 -10
l-46 46l78 126h-112v83h210v-77l-65 -101c50 -3 77 -44 77 -118v-36c0 -90 -35 -139 -116 -139s-117 49 -117 139v18l90 3v-27c0 -36 7 -52 27 -52c21 0 26 17 26 52z" />
    <glyph glyph-name="onefifth" unicode="&#x2155;" horiz-adv-x="696" 
d="M254 237h-208v81h60v289l-60 -26v83l76 36h73v-382h59v-81zM504 700l-230 -700h-83l230 700h83zM580 74c23 0 27 18 27 60v40c0 48 -7 58 -22 58c-13 0 -17 -9 -19 -25h-88v256h202v-82h-112v-84c11 10 23 15 41 15c53 0 88 -31 88 -147v-32c0 -91 -32 -141 -117 -141
c-84 0 -117 50 -117 141v14l90 3v-23c0 -37 7 -53 27 -53z" />
    <glyph glyph-name="twofifths" unicode="&#x2156;" horiz-adv-x="696" 
d="M46 558v17c0 88 42 133 116 133s116 -45 116 -133v-11c0 -41 -7 -72 -31 -109l-88 -137h119v-81h-230v69l122 193c14 22 18 44 18 65v13c0 34 -10 45 -26 45s-26 -11 -26 -45v-22zM504 700l-230 -700h-83l230 700h83zM580 74c23 0 27 18 27 60v40c0 48 -7 58 -22 58
c-13 0 -17 -9 -19 -25h-88v256h202v-82h-112v-84c11 10 23 15 41 15c53 0 88 -31 88 -147v-32c0 -91 -32 -141 -117 -141c-84 0 -117 50 -117 141v14l90 3v-23c0 -37 7 -53 27 -53z" />
    <glyph glyph-name="threefifths" unicode="&#x2157;" horiz-adv-x="696" 
d="M187 362v35c0 45 -8 58 -28 58c-8 0 -16 -4 -24 -10l-46 46l78 126h-112v83h210v-77l-65 -101c50 -3 77 -44 77 -118v-36c0 -90 -35 -139 -116 -139s-117 49 -117 139v18l90 3v-27c0 -36 7 -52 27 -52c21 0 26 17 26 52zM504 700l-230 -700h-83l230 700h83zM580 74
c23 0 27 18 27 60v40c0 48 -7 58 -22 58c-13 0 -17 -9 -19 -25h-88v256h202v-82h-112v-84c11 10 23 15 41 15c53 0 88 -31 88 -147v-32c0 -91 -32 -141 -117 -141c-84 0 -117 50 -117 141v14l90 3v-23c0 -37 7 -53 27 -53z" />
    <glyph glyph-name="fourfifths" unicode="&#x2158;" horiz-adv-x="696" 
d="M103 404h55v128zM277 404v-81h-34v-86h-85v86h-132v72l132 305h85v-296h34zM504 700l-230 -700h-83l230 700h83zM580 74c23 0 27 18 27 60v40c0 48 -7 58 -22 58c-13 0 -17 -9 -19 -25h-88v256h202v-82h-112v-84c11 10 23 15 41 15c53 0 88 -31 88 -147v-32
c0 -91 -32 -141 -117 -141c-84 0 -117 50 -117 141v14l90 3v-23c0 -37 7 -53 27 -53z" />
    <glyph glyph-name="onesixth" unicode="&#x2159;" horiz-adv-x="696" 
d="M254 237h-208v81h60v289l-60 -26v83l76 36h73v-382h59v-81zM504 700l-230 -700h-83l230 700h83zM605 148v-14c0 -39 -8 -63 -30 -63s-30 24 -30 63v18c0 38 8 58 30 58c23 0 30 -21 30 -62zM693 131v20c0 89 -41 137 -110 137l58 175h-95l-71 -205
c-12 -35 -18 -70 -18 -107v-20c0 -89 44 -139 118 -139s118 50 118 139z" />
    <glyph glyph-name="fivesixths" unicode="&#x215a;" horiz-adv-x="696" 
d="M163 311c23 0 27 18 27 60v40c0 48 -7 58 -22 58c-13 0 -17 -9 -19 -25h-88v256h202v-82h-112v-84c11 10 23 15 41 15c53 0 88 -31 88 -147v-32c0 -91 -32 -141 -117 -141c-84 0 -117 50 -117 141v14l90 3v-23c0 -37 7 -53 27 -53zM504 700l-230 -700h-83l230 700h83z
M605 148v-14c0 -39 -8 -63 -30 -63s-30 24 -30 63v18c0 38 8 58 30 58c23 0 30 -21 30 -62zM693 131v20c0 89 -41 137 -110 137l58 175h-95l-71 -205c-12 -35 -18 -70 -18 -107v-20c0 -89 44 -139 118 -139s118 50 118 139z" />
    <glyph glyph-name="oneeighth" unicode="&#x215b;" horiz-adv-x="696" 
d="M254 237h-208v81h60v289l-60 -26v83l76 36h73v-382h59v-81zM504 700l-230 -700h-83l230 700h83zM574 396c17 0 25 -12 25 -45v-18c0 -32 -8 -45 -25 -45s-25 13 -25 45v18c0 33 8 45 25 45zM574 214c22 0 32 -16 32 -62v-22c0 -45 -10 -62 -32 -62s-32 17 -32 62v22
c0 46 10 62 32 62zM574 -7c78 0 120 48 120 140v17c0 52 -14 86 -45 104c23 16 34 44 34 82v15c0 76 -38 120 -109 120s-109 -44 -109 -120v-15c0 -38 11 -66 34 -82c-31 -18 -45 -52 -45 -104v-17c0 -92 42 -140 120 -140z" />
    <glyph glyph-name="threeeighths" unicode="&#x215c;" horiz-adv-x="696" 
d="M187 362v35c0 45 -8 58 -28 58c-8 0 -16 -4 -24 -10l-46 46l78 126h-112v83h210v-77l-65 -101c50 -3 77 -44 77 -118v-36c0 -90 -35 -139 -116 -139s-117 49 -117 139v18l90 3v-27c0 -36 7 -52 27 -52c21 0 26 17 26 52zM504 700l-230 -700h-83l230 700h83zM574 396
c17 0 25 -12 25 -45v-18c0 -32 -8 -45 -25 -45s-25 13 -25 45v18c0 33 8 45 25 45zM574 214c22 0 32 -16 32 -62v-22c0 -45 -10 -62 -32 -62s-32 17 -32 62v22c0 46 10 62 32 62zM574 -7c78 0 120 48 120 140v17c0 52 -14 86 -45 104c23 16 34 44 34 82v15
c0 76 -38 120 -109 120s-109 -44 -109 -120v-15c0 -38 11 -66 34 -82c-31 -18 -45 -52 -45 -104v-17c0 -92 42 -140 120 -140z" />
    <glyph glyph-name="fiveeighths" unicode="&#x215d;" horiz-adv-x="696" 
d="M163 311c23 0 27 18 27 60v40c0 48 -7 58 -22 58c-13 0 -17 -9 -19 -25h-88v256h202v-82h-112v-84c11 10 23 15 41 15c53 0 88 -31 88 -147v-32c0 -91 -32 -141 -117 -141c-84 0 -117 50 -117 141v14l90 3v-23c0 -37 7 -53 27 -53zM504 700l-230 -700h-83l230 700h83z
M574 396c17 0 25 -12 25 -45v-18c0 -32 -8 -45 -25 -45s-25 13 -25 45v18c0 33 8 45 25 45zM574 214c22 0 32 -16 32 -62v-22c0 -45 -10 -62 -32 -62s-32 17 -32 62v22c0 46 10 62 32 62zM574 -7c78 0 120 48 120 140v17c0 52 -14 86 -45 104c23 16 34 44 34 82v15
c0 76 -38 120 -109 120s-109 -44 -109 -120v-15c0 -38 11 -66 34 -82c-31 -18 -45 -52 -45 -104v-17c0 -92 42 -140 120 -140z" />
    <glyph glyph-name="seveneighths" unicode="&#x215e;" horiz-adv-x="696" 
d="M44 623v77h233v-67l-110 -396h-93l108 386h-138zM504 700l-230 -700h-83l230 700h83zM574 396c17 0 25 -12 25 -45v-18c0 -32 -8 -45 -25 -45s-25 13 -25 45v18c0 33 8 45 25 45zM574 214c22 0 32 -16 32 -62v-22c0 -45 -10 -62 -32 -62s-32 17 -32 62v22
c0 46 10 62 32 62zM574 -7c78 0 120 48 120 140v17c0 52 -14 86 -45 104c23 16 34 44 34 82v15c0 76 -38 120 -109 120s-109 -44 -109 -120v-15c0 -38 11 -66 34 -82c-31 -18 -45 -52 -45 -104v-17c0 -92 42 -140 120 -140z" />
    <glyph glyph-name="uni215F" unicode="&#x215f;" horiz-adv-x="696" 
d="M254 237h-208v81h60v289l-60 -26v83l76 36h73v-382h59v-81zM504 700l-230 -700h-83l230 700h83z" />
    <glyph glyph-name="arrowleft" unicode="&#x2190;" horiz-adv-x="616" 
d="M207 380h383v-96h-383v-111l-181 159l181 159v-111z" />
    <glyph glyph-name="arrowup" unicode="&#x2191;" horiz-adv-x="615" 
d="M356 -38h-97v606h-111l160 182l159 -182h-111v-606z" />
    <glyph glyph-name="arrowright" unicode="&#x2192;" horiz-adv-x="616" 
d="M26 380h383v111l181 -159l-181 -159v111h-383v96z" />
    <glyph glyph-name="arrowdown" unicode="&#x2193;" horiz-adv-x="615" 
d="M259 750h97v-606h111l-159 -182l-160 182h111v606z" />
    <glyph glyph-name="arrowboth" unicode="&#x2194;" horiz-adv-x="616" 
d="M207 380h202v111l181 -159l-181 -159v111h-202v-111l-181 159l181 159v-111z" />
    <glyph glyph-name="arrowupdn" unicode="&#x2195;" horiz-adv-x="615" 
d="M148 143h111v425h-111l160 182l159 -182h-111v-425h111l-159 -181z" />
    <glyph glyph-name="arrowupdnbse" unicode="&#x21a8;" horiz-adv-x="615" 
d="M148 143h111v425h-111l160 182l159 -182h-111v-425h111l-137 -156h139v-75h-323v75h140z" />
    <glyph glyph-name="partialdiff" unicode="&#x2202;" horiz-adv-x="443" 
d="M218 -12c-109 0 -184 67 -184 212v46c0 141 71 211 175 211c29 0 56 -8 77 -22v90c0 55 -22 83 -60 83c-42 0 -60 -30 -60 -108l-116 5c0 130 52 207 176 207c120 0 176 -74 176 -184v-328c0 -145 -75 -212 -184 -212zM218 92c49 0 68 35 68 129v108
c-19 17 -41 24 -65 24c-54 0 -71 -30 -71 -132c0 -94 19 -129 68 -129z" />
    <glyph glyph-name="Delta" unicode="&#x2206;" horiz-adv-x="435" 
d="M248 700l187 -700h-435l187 700h61zM218 414l-75 -308h149z" />
    <glyph glyph-name="product" unicode="&#x220f;" horiz-adv-x="453" 
d="M291 -111v746h-129v-746h-115v851h359v-851h-115z" />
    <glyph glyph-name="summation" unicode="&#x2211;" horiz-adv-x="389" 
d="M26 -15l119 337l-119 318v100h345v-104h-224l107 -294v-41l-106 -308h223v-104h-345v96z" />
    <glyph glyph-name="minus" unicode="&#x2212;" horiz-adv-x="413" 
d="M33 280v90h347v-90h-347z" />
    <glyph glyph-name="uni2215" unicode="&#x2215;" horiz-adv-x="133" 
d="M223 700l-230 -700h-83l230 700h83z" />
    <glyph glyph-name="uni2219" unicode="&#x2219;" horiz-adv-x="194" 
d="M153 386v-122h-112v122h112z" />
    <glyph glyph-name="radical" unicode="&#x221a;" horiz-adv-x="408" 
d="M261 0h-94l-115 282h-49v94h112l80 -198l109 592h101z" />
    <glyph glyph-name="infinity" unicode="&#x221e;" horiz-adv-x="572" 
d="M542 326c0 -77 -50 -122 -128 -122c-44 0 -90 17 -128 61c-38 -44 -84 -61 -128 -61c-78 0 -128 45 -128 122s50 122 128 122c44 0 90 -17 128 -61c38 44 84 61 128 61c78 0 128 -45 128 -122zM329 326c25 -30 53 -45 79 -45c27 0 44 18 44 45s-17 45 -44 45
c-26 0 -54 -15 -79 -45zM243 326c-25 30 -53 45 -79 45c-27 0 -44 -18 -44 -45s17 -45 44 -45c26 0 54 15 79 45z" />
    <glyph glyph-name="orthogonal" unicode="&#x221f;" horiz-adv-x="406" 
d="M394 104v-104h-347v575h115v-471h232z" />
    <glyph glyph-name="intersection" unicode="&#x2229;" horiz-adv-x="477" 
d="M238 517c-55 0 -80 -44 -80 -146v-371h-111v386c0 152 72 231 191 231c120 0 192 -79 192 -231v-386h-111v371c0 102 -25 146 -81 146z" />
    <glyph glyph-name="integral" unicode="&#x222b;" horiz-adv-x="276" 
d="M191 565v-622c0 -116 -36 -158 -130 -158h-50v95h31c33 0 43 14 43 65v622c0 116 36 158 130 158h50v-95h-31c-33 0 -43 -14 -43 -65z" />
    <glyph glyph-name="approxequal" unicode="&#x2248;" horiz-adv-x="413" 
d="M265 262c19 0 28 11 30 45l92 -4c-1 -86 -40 -129 -109 -129c-66 0 -92 49 -130 49c-19 0 -28 -11 -30 -45l-92 4c1 86 40 129 109 129c66 0 92 -49 130 -49zM265 425c19 0 28 11 30 45l92 -4c-1 -86 -40 -129 -109 -129c-66 0 -92 49 -130 49c-19 0 -28 -11 -30 -45
l-92 4c1 86 40 129 109 129c66 0 92 -49 130 -49z" />
    <glyph glyph-name="notequal" unicode="&#x2260;" horiz-adv-x="413" 
d="M33 367v90h194l50 118h69l-50 -118h84v-90h-122l-34 -82h156v-90h-194l-50 -118h-69l50 118h-84v90h122l34 82h-156z" />
    <glyph glyph-name="equivalence" unicode="&#x2261;" horiz-adv-x="413" 
d="M33 445v90h347v-90h-347zM33 281v90h347v-90h-347zM33 117v90h347v-90h-347z" />
    <glyph glyph-name="lessequal" unicode="&#x2264;" horiz-adv-x="413" 
d="M33 0v90h347v-90h-347zM371 132l-329 143v96l329 143v-99l-226 -92l226 -92v-99z" />
    <glyph glyph-name="greaterequal" unicode="&#x2265;" horiz-adv-x="413" 
d="M380 90v-90h-347v90h347zM371 275l-329 -143v99l226 92l-226 92v99l329 -143v-96z" />
    <glyph glyph-name="house" unicode="&#x2302;" horiz-adv-x="441" 
d="M220 428l-76 -126v-208h151v208zM42 327l178 290l178 -290v-327h-356v327z" />
    <glyph glyph-name="revlogicalnot" unicode="&#x2310;" horiz-adv-x="413" 
d="M382 372v-90h-240v-127h-101v217h341z" />
    <glyph glyph-name="uni2318" unicode="&#x2318;" horiz-adv-x="611" 
d="M129 532v-20c0 -39 9 -52 29 -52h29v72c0 40 -8 52 -29 52c-20 0 -29 -12 -29 -52zM482 512v20c0 40 -9 52 -29 52c-21 0 -29 -12 -29 -52v-72h29c20 0 29 13 29 52zM273 384v-114h65v114h-65zM187 270v114h-29c-76 0 -114 41 -114 128v20c0 87 38 128 114 128
c77 0 115 -41 115 -135v-65h65v65c0 94 38 135 115 135c76 0 114 -41 114 -128v-20c0 -87 -38 -128 -114 -128h-29v-114h29c76 0 114 -41 114 -128v-20c0 -87 -38 -128 -114 -128c-77 0 -115 41 -115 135v65h-65v-65c0 -94 -38 -135 -115 -135c-76 0 -114 41 -114 128v20
c0 87 38 128 114 128h29zM129 142v-20c0 -40 9 -52 29 -52c21 0 29 12 29 52v72h-29c-20 0 -29 -13 -29 -52zM482 122v20c0 39 -9 52 -29 52h-29v-72c0 -40 8 -52 29 -52c20 0 29 12 29 52z" />
    <glyph glyph-name="lozenge" unicode="&#x25ca;" horiz-adv-x="455" 
d="M136 301l92 -208l91 208l-91 209zM430 301l-202 -461l-202 461l202 461z" />
    <glyph glyph-name="H18533" unicode="&#x25cf;" horiz-adv-x="890" 
d="M131 302c0 173 141 315 314 315s314 -142 314 -315s-141 -315 -314 -315s-314 142 -314 315z" />
    <glyph glyph-name="fi" horiz-adv-x="441" 
d="M289 0v405h-119v-405h-106v405h-49v95h49v54c0 116 36 158 130 158h50v-95h-31c-33 0 -43 -14 -43 -65v-52h225v-500h-106zM289 590v122h106v-122h-106z" />
    <glyph glyph-name="fl" horiz-adv-x="473" 
d="M288 157v445c-17 9 -42 14 -65 14c-40 0 -53 -16 -53 -67v-49h74v-95h-74v-405h-106v405h-49v95h49v40c0 125 38 172 131 172c33 0 70 -10 93 -22v22h105v-552c0 -51 10 -65 43 -65h24v-95h-48c-88 0 -124 41 -124 157z" />
    <glyph glyph-name="commaaccent" 
d="M203 -49l-54 -161h-74l30 161h98z" />
    <glyph glyph-name="zero.tnum" horiz-adv-x="388" 
d="M142 518v-336c0 -74 20 -95 52 -95s52 21 52 95v336c0 74 -20 95 -52 95s-52 -21 -52 -95zM357 512v-324c0 -129 -58 -200 -163 -200s-163 71 -163 200v324c0 129 58 200 163 200s163 -71 163 -200z" />
    <glyph glyph-name="one.tnum" horiz-adv-x="333" 
d="M325 0h-290v99h90v475l-90 -41v108l112 59h89v-601h89v-99z" />
    <glyph glyph-name="two.tnum" horiz-adv-x="382" 
d="M191 613c-28 0 -47 -20 -47 -91v-47l-111 5v44c0 126 57 188 158 188c102 0 159 -62 159 -188v-27c0 -60 -13 -100 -48 -162l-133 -236h181v-99h-318v81l179 318c19 34 28 63 28 98v25c0 71 -19 91 -48 91z" />
    <glyph glyph-name="three.tnum" horiz-adv-x="378" 
d="M352 252v-65c0 -129 -57 -199 -163 -199s-163 70 -163 200v34l111 5v-36c0 -82 18 -105 52 -105s52 23 52 105v49c0 84 -18 112 -50 112c-17 0 -28 -7 -38 -15l-57 56l113 208h-167v99h292v-91l-99 -178c77 -2 117 -68 117 -179z" />
    <glyph glyph-name="four.tnum" horiz-adv-x="383" 
d="M113 235h95v262zM368 235v-98h-51v-137h-109v137h-193v86l179 477h123v-465h51z" />
    <glyph glyph-name="five.tnum" horiz-adv-x="383" 
d="M357 249v-63c0 -128 -57 -198 -163 -198s-163 70 -163 200v36l111 5v-38c0 -82 18 -104 52 -104s52 22 52 104v56c0 103 -14 126 -47 126c-23 0 -34 -20 -38 -45h-109v372h279v-99h-168v-163c13 21 36 33 69 33c81 0 125 -67 125 -222z" />
    <glyph glyph-name="six.tnum" horiz-adv-x="375" 
d="M355 219v-22c0 -134 -56 -209 -165 -209s-165 75 -165 209v30c0 69 9 120 27 169l110 304h118l-99 -268c5 2 14 4 21 4c101 0 153 -80 153 -217zM136 227v-30c0 -82 14 -111 54 -111s54 29 54 111v30c0 82 -14 111 -54 111s-54 -29 -54 -111z" />
    <glyph glyph-name="seven.tnum" horiz-adv-x="361" 
d="M22 601v99h317v-86l-161 -614h-114l157 601h-199z" />
    <glyph glyph-name="eight.tnum" horiz-adv-x="384" 
d="M192 -12c-114 0 -166 78 -166 211v22c0 87 24 141 69 165c-34 22 -52 65 -52 127v22c0 114 55 177 149 177s149 -63 149 -177v-22c0 -62 -18 -105 -52 -127c45 -24 69 -78 69 -165v-22c0 -133 -52 -211 -166 -211zM192 615c-31 0 -44 -26 -44 -81v-23
c0 -55 13 -81 44 -81s44 26 44 81v23c0 55 -13 81 -44 81zM192 334c-40 0 -58 -29 -58 -114v-19c0 -85 18 -114 58 -114s58 29 58 114v19c0 85 -18 114 -58 114z" />
    <glyph glyph-name="nine.tnum" horiz-adv-x="378" 
d="M26 481v22c0 134 56 209 165 209s165 -75 165 -209v-30c0 -69 -9 -120 -27 -169l-110 -304h-118l99 268c-5 -2 -14 -4 -21 -4c-101 0 -153 80 -153 217zM245 473v30c0 82 -14 111 -54 111s-54 -29 -54 -111v-30c0 -82 14 -111 54 -111s54 29 54 111z" />
    <glyph glyph-name="parenleft.case" horiz-adv-x="269" 
d="M155 524v-347c0 -96 34 -153 88 -175l-33 -105c-109 40 -165 137 -165 269v369c0 132 56 229 165 269l33 -105c-54 -22 -88 -79 -88 -175z" />
    <glyph glyph-name="parenright.case" horiz-adv-x="269" 
d="M114 177v347c0 96 -34 153 -88 175l33 105c109 -40 165 -137 165 -269v-369c0 -132 -56 -229 -165 -269l-33 105c54 22 88 79 88 175z" />
    <glyph glyph-name="hyphen.case" horiz-adv-x="302" 
d="M33 303v94h236v-94h-236z" />
    <glyph glyph-name="at.case" horiz-adv-x="538" 
d="M399 292v142c-11 19 -31 31 -53 31c-37 0 -54 -23 -54 -103v-70c0 -78 17 -102 53 -102s54 24 54 102zM269 -101c-145 0 -224 93 -224 249v403c0 156 79 249 224 249s224 -93 224 -249v-266c0 -122 -46 -189 -151 -189c-99 0 -150 66 -150 191v82c0 119 45 190 137 190
c27 0 53 -12 70 -33v15c0 129 -53 167 -130 167s-130 -38 -130 -167v-383c0 -129 53 -167 130 -167c27 0 53 7 78 22l35 -78c-33 -24 -73 -36 -113 -36z" />
    <glyph glyph-name="bracketleft.case" horiz-adv-x="262" 
d="M52 -88v876h188v-101h-79v-674h79v-101h-188z" />
    <glyph glyph-name="bracketright.case" horiz-adv-x="262" 
d="M210 788v-876h-188v101h79v674h-79v101h188z" />
    <glyph glyph-name="braceleft.case" 
d="M23 301v98h7c31 0 51 16 51 54v183c0 109 50 152 161 152h17v-100h-17c-36 0 -51 -21 -51 -60v-156c0 -66 -17 -107 -69 -122c52 -15 69 -56 69 -122v-156c0 -39 15 -60 51 -60h17v-100h-17c-111 0 -161 43 -161 152v183c0 38 -20 54 -51 54h-7z" />
    <glyph glyph-name="braceright.case" 
d="M255 399v-98h-7c-31 0 -51 -16 -51 -54v-183c0 -109 -50 -152 -161 -152h-17v100h17c36 0 51 21 51 60v156c0 66 17 107 69 122c-52 15 -69 56 -69 122v156c0 39 -15 60 -51 60h-17v100h17c111 0 161 -43 161 -152v-183c0 -38 20 -54 51 -54h7z" />
    <glyph glyph-name="exclamdown.case" horiz-adv-x="220" 
d="M54 104l15 378h82l15 -378v-104h-112v104zM164 700v-118h-108v118h108z" />
    <glyph glyph-name="guillemotleft.case" horiz-adv-x="370" 
d="M25 379l158 129v-95l-81 -63l81 -63v-95l-158 129v58zM187 379l158 129v-95l-81 -63l81 -63v-95l-158 129v58z" />
    <glyph glyph-name="periodcentered.case" horiz-adv-x="194" 
d="M153 411v-122h-112v122h112z" />
    <glyph glyph-name="guillemotright.case" horiz-adv-x="370" 
d="M187 508l158 -129v-58l-158 -129v95l81 63l-81 63v95zM25 508l158 -129v-58l-158 -129v95l81 63l-81 63v95z" />
    <glyph glyph-name="questiondown.case" horiz-adv-x="380" 
d="M138 582v118h108v-118h-108zM39 194v-30c0 -117 59 -176 155 -176s155 59 155 176v29l-108 5v-25c0 -58 -19 -79 -47 -79s-47 21 -48 79v24c0 42 14 75 42 106c48 52 58 90 58 174v35h-108v-26c0 -54 -10 -84 -43 -124c-40 -48 -56 -94 -56 -168z" />
    <glyph glyph-name="endash.case" horiz-adv-x="358" 
d="M358 302h-358v96h358v-96z" />
    <glyph glyph-name="emdash.case" horiz-adv-x="717" 
d="M717 303h-717v95h717v-95z" />
    <glyph glyph-name="bullet.case" horiz-adv-x="286" 
d="M33 350c0 61 49 111 110 111s110 -50 110 -111s-49 -111 -110 -111s-110 50 -110 111z" />
    <glyph glyph-name="guilsinglleft.case" horiz-adv-x="208" 
d="M25 379l158 129v-95l-81 -63l81 -63v-95l-158 129v58z" />
    <glyph glyph-name="guilsinglright.case" horiz-adv-x="208" 
d="M25 508l158 -129v-58l-158 -129v95l81 63l-81 63v95z" />
    <glyph glyph-name="zero.numerator" 
d="M139 626c-19 0 -29 -13 -29 -54v-207c0 -41 10 -54 29 -54s29 13 29 54v207c0 41 -10 54 -29 54zM139 229c-73 0 -119 47 -119 132v215c0 85 46 132 119 132s119 -47 119 -132v-215c0 -85 -46 -132 -119 -132z" />
    <glyph glyph-name="one.numerator" 
d="M254 237h-208v81h60v289l-60 -26v83l76 36h73v-382h59v-81z" />
    <glyph glyph-name="two.numerator" 
d="M46 558v17c0 88 42 133 116 133s116 -45 116 -133v-11c0 -41 -7 -72 -31 -109l-88 -137h119v-81h-230v69l122 193c14 22 18 44 18 65v13c0 34 -10 45 -26 45s-26 -11 -26 -45v-22z" />
    <glyph glyph-name="three.numerator" 
d="M187 362v35c0 45 -8 58 -28 58c-8 0 -16 -4 -24 -10l-46 46l78 126h-112v83h210v-77l-65 -101c50 -3 77 -44 77 -118v-36c0 -90 -35 -139 -116 -139s-117 49 -117 139v18l90 3v-27c0 -36 7 -52 27 -52c21 0 26 17 26 52z" />
    <glyph glyph-name="four.numerator" 
d="M103 404h55v128zM277 404v-81h-34v-86h-85v86h-132v72l132 305h85v-296h34z" />
    <glyph glyph-name="five.numerator" 
d="M163 311c23 0 27 18 27 60v40c0 48 -7 58 -22 58c-13 0 -17 -9 -19 -25h-88v256h202v-82h-112v-84c11 10 23 15 41 15c53 0 88 -31 88 -147v-32c0 -91 -32 -141 -117 -141c-84 0 -117 50 -117 141v14l90 3v-23c0 -37 7 -53 27 -53z" />
    <glyph glyph-name="six.numerator" 
d="M188 371v14c0 41 -7 62 -30 62c-22 0 -30 -20 -30 -58v-18c0 -39 8 -63 30 -63s30 24 30 63zM276 388v-20c0 -89 -44 -139 -118 -139s-118 50 -118 139v20c0 37 6 72 18 107l71 205h95l-58 -175c69 0 110 -48 110 -137z" />
    <glyph glyph-name="seven.numerator" 
d="M44 623v77h233v-67l-110 -396h-93l108 386h-138z" />
    <glyph glyph-name="eight.numerator" 
d="M158 633c-17 0 -25 -12 -25 -45v-18c0 -32 8 -45 25 -45s25 13 25 45v18c0 33 -8 45 -25 45zM158 451c-22 0 -32 -16 -32 -62v-22c0 -45 10 -62 32 -62s32 17 32 62v22c0 46 -10 62 -32 62zM158 230c-78 0 -120 48 -120 140v17c0 52 14 86 45 104c-23 16 -34 44 -34 82
v15c0 76 38 120 109 120s109 -44 109 -120v-15c0 -38 -11 -66 -34 -82c31 -18 45 -52 45 -104v-17c0 -92 -42 -140 -120 -140z" />
    <glyph glyph-name="nine.numerator" 
d="M128 566v-14c0 -41 7 -62 30 -62c22 0 30 20 30 58v18c0 39 -8 63 -30 63s-30 -24 -30 -63zM40 549v20c0 89 44 139 118 139s118 -50 118 -139v-20c0 -37 -6 -72 -18 -107l-71 -205h-95l58 175c-69 0 -110 48 -110 137z" />
    <glyph glyph-name="zero.denominator" 
d="M139 389c-19 0 -29 -13 -29 -54v-207c0 -41 10 -54 29 -54s29 13 29 54v207c0 41 -10 54 -29 54zM139 -8c-73 0 -119 47 -119 132v215c0 85 46 132 119 132s119 -47 119 -132v-215c0 -85 -46 -132 -119 -132z" />
    <glyph glyph-name="one.denominator" 
d="M254 0h-208v81h60v289l-60 -26v83l76 36h73v-382h59v-81z" />
    <glyph glyph-name="two.denominator" 
d="M46 321v17c0 88 42 133 116 133s116 -45 116 -133v-11c0 -41 -7 -72 -31 -109l-88 -137h119v-81h-230v69l122 193c14 22 18 44 18 65v13c0 34 -10 45 -26 45s-26 -11 -26 -45v-22z" />
    <glyph glyph-name="three.denominator" 
d="M187 125v35c0 45 -8 58 -28 58c-8 0 -16 -4 -24 -10l-46 46l78 126h-112v83h210v-77l-65 -101c50 -3 77 -44 77 -118v-36c0 -90 -35 -139 -116 -139s-117 49 -117 139v18l90 3v-27c0 -36 7 -52 27 -52c21 0 26 17 26 52z" />
    <glyph glyph-name="four.denominator" 
d="M103 167h55v128zM277 167v-81h-34v-86h-85v86h-132v72l132 305h85v-296h34z" />
    <glyph glyph-name="five.denominator" 
d="M163 74c23 0 27 18 27 60v40c0 48 -7 58 -22 58c-13 0 -17 -9 -19 -25h-88v256h202v-82h-112v-84c11 10 23 15 41 15c53 0 88 -31 88 -147v-32c0 -91 -32 -141 -117 -141c-84 0 -117 50 -117 141v14l90 3v-23c0 -37 7 -53 27 -53z" />
    <glyph glyph-name="six.denominator" 
d="M188 134v14c0 41 -7 62 -30 62c-22 0 -30 -20 -30 -58v-18c0 -39 8 -63 30 -63s30 24 30 63zM276 151v-20c0 -89 -44 -139 -118 -139s-118 50 -118 139v20c0 37 6 72 18 107l71 205h95l-58 -175c69 0 110 -48 110 -137z" />
    <glyph glyph-name="seven.denominator" 
d="M44 386v77h233v-67l-110 -396h-93l108 386h-138z" />
    <glyph glyph-name="eight.denominator" 
d="M158 396c-17 0 -25 -12 -25 -45v-18c0 -32 8 -45 25 -45s25 13 25 45v18c0 33 -8 45 -25 45zM158 214c-22 0 -32 -16 -32 -62v-22c0 -45 10 -62 32 -62s32 17 32 62v22c0 46 -10 62 -32 62zM158 -7c-78 0 -120 48 -120 140v17c0 52 14 86 45 104c-23 16 -34 44 -34 82v15
c0 76 38 120 109 120s109 -44 109 -120v-15c0 -38 -11 -66 -34 -82c31 -18 45 -52 45 -104v-17c0 -92 -42 -140 -120 -140z" />
    <glyph glyph-name="nine.denominator" 
d="M128 329v-14c0 -41 7 -62 30 -62c22 0 30 20 30 58v18c0 39 -8 63 -30 63s-30 -24 -30 -63zM40 312v20c0 89 44 139 118 139s118 -50 118 -139v-20c0 -37 -6 -72 -18 -107l-71 -205h-95l58 175c-69 0 -110 48 -110 137z" />
    </font>
</defs>
</svg>
