<svg version="1.1" id="Layer_1" xmlns="http://www.w3.org/2000/svg" x="0" y="0" viewBox="0 0 1695.7 945.7" xml:space="preserve">
  <style>
    .st3,.st4{fill-rule:evenodd;clip-rule:evenodd;fill:#5d9a83}.st4{fill:#ee2a74}
  </style>
  <g>
    <path d="M825.8 696.6q-2.1 25.95-12 47.1c-6.9 14.1-15.3 25.2-25.3 33.3q-15.3 12.15-32.4 11.4c-10.1-.4-18.4-4.5-24.9-12.2-6.8-7.5-12.1-18.9-15.9-34.4l-.8 6.9q-.75 6.6-1.5 17.7c-.6 9.4-1 20.1-1.1 31.9-.1 11.7.5 23.1 1.7 34.4s3.5 20.8 6.7 28.5c3.2 7.9 7.9 12.5 13.9 13.8l-.2 2.3c-7.4-1.6-14.6-2.8-21.5-3.7l-20.7-2c-13.2-.7-23.9-.8-32.3-.5l-13.2.4.2-2.3c6.7-1.5 12.2-7 16.6-16.4 4.4-9.6 7.8-21.7 10.3-36.3 2.5-14.4 4.5-29.9 6.1-46.8q1.95-24.9 3.6-48.9c1-15.5 1.9-30.8 2.7-45.7.5-14.7.5-28.1 0-40.3-.7-12.1-2.5-21.9-5.3-29.4-2.8-7.2-7.2-11.1-13.1-11.8l-1.3-.1-1.3.2.2-3 7.8 1.5c5.2.8 11.4 1.5 18.7 2.2 7.2.5 14.4.3 21.5-.6s12.8-3 17.3-6.5c-2.5 14.1-4.9 28.3-7.4 42.4 6-14.6 12.5-24.8 19.5-30.7s15.4-8.6 25.3-7.9c11.8 1 22.2 6.5 31.2 16.6 9.3 9.8 16.3 22.5 21.3 38 4.6 16.1 6.6 32.9 5.6 50.9m-38.7-8.5c1.8-27.4.2-48.6-4.7-63.7-5.2-15.1-12.8-23.1-22.8-23.9-7.4-.5-14.1 2.9-19.8 10.2-5.7 7.1-10.4 17.1-13.9 30.1-3.7 13-6.1 28-7.3 45.1-.9 16.9-.1 32.1 2.3 45.7s6.1 24.5 11 32.7c5.2 8.3 11.3 12.6 18.3 13.1 10.9.9 19.3-5.7 25.1-19.8 6-14.3 9.9-37.5 11.8-69.5"/>
    <path d="M877.3 711.8c-5.6-18.8-3.7-37 5.9-54.5 9.6-17.4 24-28.8 43.3-34.5 19.3-5.8 37.8-4 55.5 5.3 17.8 9.5 29.7 23.6 35.5 42.5z" style="fill-rule:evenodd;clip-rule:evenodd;fill:#ea803c"/>
    <path d="m861.1 743.4-3.5-7.3c-5.4-12.4-8.2-25.2-8.3-38.3-.2-13.2 2.2-26 7.2-38.5 4.7-12.5 11.7-23.6 21-33.1 9.2-9.6 20-17 32.4-22.3l11 25.4c-8.9 4-16.7 9.4-23.4 16.3s-11.9 14.8-15.6 23.6c-3.6 9.2-5.3 18.6-5.1 28.3.2 9.6 2.3 18.8 6.4 27.9 3.8 8.7 9.2 16.4 16.1 23.1s14.9 11.9 23.8 15.7c9.2 3.6 18.5 5.3 28.1 5.1s18.8-2.3 27.9-6.4l11 25.6c-12.4 5.3-25.2 8-38.6 8.3q-19.8.3-38.7-7.2c-11.1-4.2-21.1-10.3-29.8-18.4-8.8-8-16.1-17.3-21.9-27.8" style="fill-rule:evenodd;clip-rule:evenodd;fill:#533f8b"/>
    <path class="st3" d="M946.3 789.4c8.9.7 17.5-.2 26-2.7 8.5-2.7 16.2-7.1 23.2-13 6.9-5.6 12.5-12.5 16.6-20.5 4-7.9 6.3-16.4 7.1-25.6l25.7 2.2c-1.1 12.6-4.5 24.3-10.1 35.2-5.7 11-13.3 20.5-22.7 28.3-8.6 7.3-18 12.7-28.3 16.4-10.4 3.8-21.2 5.8-32.3 5.8l-7.3-.2z"/>
    <path class="st4" d="M1008.3 610.8c-3 3.4-6.6 5.2-10.9 5.4-4.5.5-8.4-.8-11.7-3.6-3.4-3-5.1-6.8-5-11.4q-.9-6.6 3.6-11.7c3-3.1 6.8-4.8 11.4-5 4.1-.3 7.9 1.1 11.3 4.1 3.3 2.9 5.1 6.5 5.4 10.9s-1 8.2-4.1 11.3m-52.9-25.7c-.3 4.5-2.1 8.1-5.3 10.7-3.3 3.1-7.1 4.5-11.3 4.2-4.5-.3-8-2.3-10.7-5.9-3.1-3.1-4.5-6.9-4.2-11.3.5-4.3 2.5-7.8 5.9-10.7 3-2.7 6.8-3.9 11.3-3.6 4.3.3 7.9 2.1 10.7 5.3 2.9 3.3 4.1 7.1 3.6 11.3"/>
    <path d="m1128.4 719.5-.6 3.9-1 9.8-.9 13.1q-.75 10.8-.6 24c.1 8.6.9 17 2.3 25.2 1.5 8 3.9 14.8 7.2 20.3 3.4 5.5 8.1 8.8 14.2 9.8l-.1 2-7.5-1.5-18.9-3.2c-7.8-1.2-16.5-2.1-25.9-2.7-7-.5-13.9-.6-20.8-.4-7.3.2-14 .7-20.2 1.6l.1-2c7.5.3 13.7-2.5 18.7-8.3 4.8-6.1 8.6-14.2 11.5-24.3 3.1-10.1 5.4-21.3 6.8-33.5 1.5-12.2 2.6-24.6 3.4-37.1 1-15.1 1.4-28.7 1.4-40.8q.15-27.75-5.7-38.7-6.6-10.95-21.6-12l-1.6-.1.2-2.6 6.5 1.4 17.6 2.8 24.6 2.6 21.7.4c7.5.1 22.7.8 45.7 2.4l1.7 4.1-25.3-1.7c-.2-.2-.6-.3-1.3-.1-4.8-.8-9.1.2-13.1 2.8-4.6 3.4-7.5 9.3-8.7 17.6-2.4 13.5-4.3 23.9-5.7 31.3s-2.3 13.8-2.9 19.3c-.6 5.7-.9 9.3-1 10.8zm78.8 5.2c-.2 0 .1-3.8 1.1-11.5q.75-6.6 1.8-17.4c.9-6.5 1-13.3.4-20.4-.7-6.9-1.5-13.4-2.7-19.6-1.3-7.1-3.7-12.3-7.2-15.7-2.5-2.4-6.6-3.7-12.3-4.1l-2.6-.2-.7-4c10 1.1 19.2 2.1 27.5 3.1 8.5 1 16.4 1.7 23.6 2.2 14.3.7 25.3.9 33.3.5l11.6-.6-.2 2.3c-4.8-.1-9.4 2.6-13.7 8-4.1 5.7-7.8 13.2-11.1 22.7q-5.25 14.55-8.4 32.1c-2.3 11.7-3.9 23.8-4.7 36.3-.9 14.2-.8 27.8.3 40.6s3.7 23.9 7.7 33.2 9.7 15.6 17.2 19l-.1 2-12.1-2.1c-8.1-1-19.2-1.9-33.5-2.9-7.2-.5-15-.9-23.3-1.2-8.6-.3-17.6-.4-27-.1l.1-2 2.3.2c5.5.1 10.2-2.3 14-7.3 4.1-5 7.1-11.5 9.2-19.5 2.5-8 4.4-16.3 5.6-25s2.1-16.8 2.6-24.2c.2-6.6.5-12.2.8-16.8zM636.1 612.5q.6 10.35 1.5 18c.8 5.1 1.1 7.8 1.1 8l-1 .3c-1.6-8.9-5.4-15.8-11.2-20.6q-8.4-7.5-18.9-10.2c-6.9-2-12.9-3.1-18-3.2l-6.6-.4-2.3.2c0 2.7 0 5.3-.2 7.9l-.5 7.9c-1.3 15.6-2.8 31.4-4.8 47.4-2 16.9-3.5 33.2-4.6 49.1-.8 12.3-1 23.5-.5 33.4.4 10 2.1 18 5 24.2l18.5 16.1c-1.7-.8-6.3-1.6-13.8-2.6-6.6-.9-16.5-1.6-29.7-2.3-13.4-.9-32-1.7-55.9-2.4 18.2-.8 28.2-5.5 30.1-14.3 1.3-6.1 2.8-15.1 4.4-26.9 2.6-19.1 5-41.8 7.1-68.1 1-11.4 2.1-23.8 3.4-37.2.6-5.3.9-10.8 1.1-16.5l.2-18.5c-1.1-.7-2.8-1.3-5.2-1.7l-5.3-.3c-4-.3-10.1 0-18.3.8-7.3 0-14 2.5-20.1 7.6-6.4 4-11.1 10.3-13.8 19l-1-.4c0-.2.7-2.8 2.2-7.8 1.4-5 2.7-10.9 3.8-17.6 1.1-6.6 1.9-12.6 2.5-18.1 15 3 25.8 5.3 32.3 7.1s27.6 3.9 63.2 6.5c0 .2.4.4 1.3.4l4 .3c4.4.5 9.9.3 16.6-.6s17.7-1.8 33-2.8c-.1 5.6 0 11.6.4 18.3m-229.9-332c-1.6-14.4-5.7-27.4-12.2-38.9-6.4-11.5-14.3-20.5-23.7-26.9s-19.4-9.2-29.9-8.4c-5.9.6-11.8 2.7-17.6 6.3-5.8 3.9-11.1 9.4-16 16.7-.2 0-.3 5.3-.2 15.9.1 10.4 1.2 26.5 3.2 48.3 1.5 15.7 3.4 31.7 5.8 47.7q3.9 24.45 10.2 45.3c4.2 13.9 9.2 25.4 15.1 34.3q8.85 13.65 21 15.6l.3 3c-12.4-.6-23.8-.7-34.1-.4l-27.3 1.6c-15.9 1.7-27.7 3.6-35.2 5.6-7.7 2-11.5 3.2-11.3 3.4l-.3-3 .7-.1c7.4-.7 13-4.6 16.7-11.8 3.8-7 6.1-16.1 7-27.4s1-23.8.1-37.4q-1.2-20.4-3.3-41.7l-.6-6.9c-1.2-12.7-2.6-25.4-4.3-38.3-1.9-12.8-4.4-24.7-7.6-35.7-3.3-11.2-7.5-20.3-12.8-27.6-5.3-7.2-12-11.4-20-12.7l-.2-2c19.3 1.1 37.4 1.3 54.3.9 17.2-.3 33.1-1.2 47.7-2.8 20.7-2.2 38.6-4.5 53.6-7l35.4-6.6c-6 16.2-9.8 31.7-11.5 46.4-1.7 14.5-1.8 29.4-.1 44.7zm106.8 187-5.4-5.1c3.4-1.2 5.9-3 7.4-5.3 1.5-2.4 2.2-4.7 2-7.1-.3-3.3-1.7-6-4.1-8.2s-5.6-3.1-9.5-2.7c-3.1.3-5.7 2-7.8 5-2.1 3.1-3.7 6.5-4.7 10.4-1 3.8-1.3 7.2-1 10 .4 4.6 2 9.1 4.6 13.5 2.4 4.2 5.7 7.6 9.9 10.3 4 2.5 8.6 3.6 13.9 3.3 3.9-.6 7.9-4 11.9-10.4 3.8-6.5 7.3-15.3 10.4-26.4 2.9-11.1 5.1-23.9 6.7-38.3l-3.2-9.6c-2.2-6.6-5.3-15.2-9.3-25.6-4.1-10.6-8.9-22.3-14.5-35-5.8-12.7-12.1-25.3-18.8-37.9-6.9-12.8-14.2-24.5-21.8-35-7.8-10.5-15.8-18.9-23.9-25.2-8.3-6.5-16.8-9.8-25.4-9.9l-.3-3.6 5.6.1h14.2c5.5.1 11.5.1 17.9 0l17.1-.9q3.6-.3 8.4-1.8c3.5-.8 6.6-1.6 9.4-2.5 3-1.2 4.9-1.9 5.7-2.2 0 .2 1.1 3.4 3.2 9.6s5 14.2 8.5 24c3.6 9.8 7.6 20.1 12.2 30.9 4.6 11 9.4 21.4 14.5 31.1 5.1 9.9 10.3 17.9 15.5 24l2.6-7.8c1.5-5.2 3.2-11.9 5.1-20s3.4-16.9 4.5-26.2c1.1-9.4 1.2-18.4.4-27.2-.5-5-2.5-10.1-6.1-15.3-3.6-5.4-7.8-9.7-12.5-13.1-5-3.5-9.7-5.1-14.4-4.9l-1.9.5-2.3.2-.4-4.6c12.6-.1 24 .2 34.5.7 10.4.8 18.4 1 23.9.7l8.5-1.1c3-.7 6.2-1.6 9.7-2.6l.4 3.9c-8.6 7.4-15.7 17.7-21.3 30.8-5.4 13.1-10 27.8-13.7 44.3-3.5 16.4-6.7 33.5-9.4 51.2-2.8 17.7-5.5 34.9-8.4 51.7q-3.9 25.2-9.9 45.6c-3.8 13.6-8.7 24.6-14.7 33.1-6.1 8.3-13.6 13-22.5 14-8.7.8-16.6-.4-23.5-3.7s-12.5-7.9-16.8-13.6c-4.3-5.8-6.9-12.3-7.8-19.4-.2-4.6 1-9.2 3.7-13.9q3.9-7.05 11.1-12.3c4.8-3.3 10.1-5.4 16-6.1 8.1-.5 14.7.8 19.9 4.1 5.2 3.5 8.1 7.8 8.8 13.1.3 3.1-.6 6.2-2.7 9.5-2.3 3-5.5 6.1-10.1 8.9m215.9-235.9q-.45 1.8-.6 3.3-1.8-.45-3.6-.6h-3c-2.2.2-3.7.9-4.5 2.2-.9 1.1-1.2 2.6-1.1 4.5.3 2.7 1.5 5.6 3.8 8.5 2.1 3 4.8 5.4 8.1 7.3 3.4 2.1 7 2.9 10.9 2.5 2 0 3.4-1.3 4.4-4 1.1-2.7 1.4-7.3.8-13.7-.4-4.3-2-9.2-4.6-14.7-2.7-5.5-6.2-10.8-10.4-15.9s-9-9.3-14.2-12.6c-5-3.1-10.3-4.5-15.8-4.2-7.5.7-13.4 4.9-17.8 12.6s-7.3 18.4-8.6 32q-1.95 20.4.6 47.7c2.5 26.3 5.8 47.2 10.1 62.8 4 15.6 9.4 26.7 16.2 33.2 6.5 6.5 14.6 9.3 24.2 8.4 15.3-1.4 26.5-8.9 33.5-22.4 7.1-13.3 11-32.8 11.7-58.4l4.4-.4c-.3 28.5-4.7 50.6-13.4 66.2-8.6 15.5-22.5 24.2-41.5 26.1-9.8.7-19.4-1.3-28.8-6.2-9.2-4.9-17.6-11.9-25.4-21.1s-14.2-19.8-19.3-32c-4.9-12.2-8.1-25.2-9.6-39.2-1.7-20.4.1-39 5.5-55.7s13.5-30.3 24.4-40.9 23.8-16.6 38.6-18.2c10.8-1 20.7.3 29.8 4 9 3.7 16.6 9.2 22.6 16.6 5.8 7.4 9.3 15.9 10.4 25.7l.2 1.8c.5 9.4-.8 16.8-3.9 22q-4.65 7.8-11.1 10.8c-4.3 2.2-8.3 3.4-11.8 3.8-4.7.2-9.6-1.2-14.6-4.3-5.1-3.3-9.5-7.3-13.3-12.1-3.6-5-5.8-10.1-6.5-15.4q-.3-3.3.6-6c.6-2 1.4-3.9 2.4-5.6q1.35-1.65 3-2.4c1.1-.5 2.4-.8 3.8-.9 2.4-.2 4.8.1 7.2.8 2.4 1.5 4.5 2.7 6.2 4.1m207.4-37.3c1.5 6.7 2.9 12.5 4.3 17.5 1.6 4.9 2.4 7.5 2.4 7.7l-1 .4c-3-8.5-7.8-14.7-14.3-18.5-6.3-4-13.1-6.4-20.2-7-7.1-.9-13.2-1-18.2-.3l-6.6.6-2.3.5c.5 2.6.8 5.2 1.1 7.8l.7 7.9c1.2 15.5 2.2 31.3 2.8 47.4.7 16.9 1.8 33.2 3.3 49 1.1 12.2 2.7 23.2 4.7 33 2 9.7 4.9 17.4 8.8 23l20.7 12.9c-1.8-.5-6.5-.6-13.9-.3-6.6.2-16.4 1-29.5 2.4-13.3 1.3-31.8 3.4-55.3 6.5 17.7-3.6 26.9-9.9 27.3-18.8.3-6.2.3-15.2.1-27.1-.5-19.1-1.7-41.8-3.7-68.1-.9-11.4-1.7-23.8-2.5-37.1-.3-5.3-.8-10.7-1.5-16.4l-2.7-18.3c-1.2-.6-2.9-.8-5.4-.8l-5.2.5c-3.9.4-9.9 1.6-17.8 3.7-7.2 1.1-13.3 4.7-18.5 10.7-5.7 5-9.3 11.9-10.6 20.8l-1-.2c0-.2.3-2.9.9-8s.9-11.1 1-17.9c0-6.6-.1-12.7-.4-18.2 15.3.6 26.2 1.2 32.9 1.9s27.7-.5 63.2-3.6c0 .2.5.3 1.3.2l3.9-.4c4.4-.2 9.8-1.3 16.2-3.2s17.1-4.6 32-8c.5 5.4 1.5 11.4 3 17.8"/>
    <path class="st3" d="M1165.3 178.9c.3 3.4-.6 6.5-2.8 9.1s-5 4.2-8.4 4.5c-3.6.3-6.6-.6-9.1-2.8-2.8-2.2-4.4-5-4.7-8.4-.3-3.6.7-6.6 3.1-9.1 2.2-2.8 5.1-4.4 8.7-4.7 3.4-.3 6.4.7 8.9 3.1 2.5 1.9 4 4.7 4.3 8.3m-34.2-26.8c.3 3.6-.6 6.6-2.8 9.1-2.2 2.8-5.1 4.4-8.7 4.7-3.4.2-6.5-.9-9.2-3.3-2.7-2-4.1-4.9-4.5-8.4-.2-3.4.9-6.5 3.1-9.1 2.2-2.7 5-4.1 8.5-4.2 3.6-.3 6.7.6 9.4 2.8q3.9 3.15 4.2 8.4m53.5 67.5c.3 3.4-.5 6.4-2.6 9.1q-3.6 4.05-8.4 4.5c-3.6.3-6.6-.7-9.1-3.1-2.8-2.2-4.4-5-4.7-8.4-.3-3.6.8-6.6 3.3-9.2 2-2.7 4.9-4.1 8.4-4.5 3.2-.3 6.3.7 9.1 3.1 2.4 2.1 3.7 4.9 4 8.5m5.9 41.7c.3 3.6-.6 6.6-2.8 9.1-2.2 2.8-5 4.4-8.4 4.7-3.6.3-6.6-.8-9.2-3.3-2.8-2-4.4-4.8-4.7-8.4-.2-3.4.9-6.5 3.3-9.2 2.1-2.5 4.9-3.9 8.5-4.2 3.4-.3 6.5.6 9.1 2.8 2.7 2.3 4.1 5.1 4.2 8.5m-10.3 47.2c-1 3.4-3.1 5.7-6.2 7l-9.8.4c-3.2-1-5.5-3.1-7-6.2-1.5-3.3-1.6-6.6-.4-9.8s3.3-5.6 6.5-7l9.5-.6c3.4 1.3 5.8 3.6 7.3 6.7 1.4 3.1 1.4 6.3.1 9.5"/>
    <path d="M1094.8 360.5c-25.4 6.8-49.6 3.5-72.5-9.9-22.9-13.3-37.7-32.7-44.6-58.3s-3.5-49.9 9.9-73c13.4-22.7 32.9-37.4 58.3-44.1z" style="fill-rule:evenodd;clip-rule:evenodd;fill:#4177b3"/>
    <path d="M1034.6 161.1c25.6-6.7 49.8-3.4 72.7 9.9s37.8 32.8 44.6 58.8c6.5 25.6 3.1 49.8-10.2 72.5-13.3 22.9-32.7 37.7-58.3 44.6z" style="fill-rule:evenodd;clip-rule:evenodd;fill:#fb7c85"/>
    <path class="st4" d="m1001.2 153.7 14.9 56.1-56.1 14.9z"/>
    <path d="m1397.2 319.1.1 4.6c0-.2-1.8-.4-5.3-.5-3.3-.1-7.8-.1-13.6 0-5.5-.1-11.6.1-18.1.7l-15 2.1q-7.2 1.35-13.5 3.9l-3.7-39c-3.9 17.1-9.6 30.1-17.2 39-7.3 8.8-16.9 13.7-28.7 14.6-18.3 1.9-32.6-4.2-42.7-18.5-10.4-14.2-17-36.9-19.9-67.9l-1.4-14.4c-.6-6.8-1.5-14.8-2.6-24.2s-2.6-19-4.4-29q-2.7-15-6.3-28.2c-2.3-8.6-5.1-15.5-8.2-20.7s-6.7-7.6-10.6-7.3h-.3l-.4-3.9c0 .2 1.7.4 5 .5s7.6.2 12.9.1l17.5-.6 13.7-1.9q6.75-1.35 12.9-3.9l14.6 156c1.7 18.6 4.7 31.7 9 39.5s10.4 11.2 18.5 10.2c13.3-1.3 22.8-10.7 28.4-28.5 5.6-17.7 7-42.4 4.3-74.2l-.7-7.5c-.5-5.2-1.4-12.1-2.6-20.6q-1.5-12.45-4.2-26.7c-1.8-9.5-3.9-18.5-6.5-26.8-2.8-8.3-5.9-15.1-9.5-20.3-3.8-5.2-8-7.6-12.6-7.4l-1.3.1-1 .4-.3-3.3 6.3.4c4.2.1 9.5.1 15.9.2q9.6-.3 20.1-1.2c5-.5 9.7-1.1 14-2 4.5-1.1 8.3-2.3 11.2-3.7l-.2 8.9c-.1 5.7-.2 13.6-.1 23.5-.2 9.9 0 21.1.5 33.4s1.4 25 2.6 38.1 2.9 25.8 4.9 37.9q3.3 18.15 8.4 33.3c3.6 10 7.8 18.1 12.5 24.3 5 6 10.9 9.6 17.6 10.5m-85.5-237.4 1.9 20c-6.7-1.1-13.4-1.7-20-1.8-6.4-.1-12.5.2-18.5.7-12.2 1.4-22.1 3.1-29.6 5.1-7.7 2-11.7 3.2-11.9 3.4l-1.9-20c7.1.2 14 .2 20.8 0l18.7-1.1c12-1.3 21.7-2.7 29.1-4z"/>
  </g>
</svg>
