<svg xmlns="http://www.w3.org/2000/svg" xmlns:xlink="http://www.w3.org/1999/xlink" version="1.1" id="Слой_1" x="0px" y="0px" viewBox="0 0 719.8 245.1" style="enable-background:new 0 0 719.8 245.1;" xml:space="preserve" class="">
<style type="text/css" class="">
	.st0{display:none;}
	.st1{display:inline;fill-rule:evenodd;clip-rule:evenodd;fill:#0000AA;}
	.st2{display:inline;fill-rule:evenodd;clip-rule:evenodd;fill:#39C9FE;}
	.st4{font-size:226.6786px;}
	.st5{fill:#0000AA;stroke:#0000AA;stroke-width:2.5;stroke-miterlimit:10;}
	.st6{fill:none;stroke:#000000;stroke-width:0.3;}
	.st7{fill:#39C9FE;stroke:#0000AA;stroke-width:2.5;stroke-miterlimit:10;}
	.st8{fill:none;stroke:#0000AA;stroke-width:2.5;stroke-miterlimit:10;}
</style>
<g transform="matrix(1.0, 0.0, 0.0, 1.0, -63.2, -35.2)" class="st0">
	<path class="st1" d="M692.3,73.9l1.1-0.3c16.4-5.6,34.7-18.2,54.9-37.8l0.6-0.6l33.7,7.7l0.3,211.6l-2-0.9   c-4.4-1.8-8.6-3.3-12.8-4.6v18.6l-1.8-0.3c-18.3-3.4-35.9-4.9-52.7-4.4l-1.5,0v-136c-0.6-4.1-2.3-6.8-5-8.3   c-3-1.4-7.2-1.5-12.5-0.1l-19.5,5.3V93.9l0.9-0.4c5.3-2.4,10.7-5.2,16.2-8.4L692.3,73.9 M694.5,87.3L694.5,87.3   c-5.6,3.2-11,6.1-16.3,8.5v24.3l15.8-4.3c6.3-1.7,11.1-1.6,14.6,0.3c3.7,1.8,5.9,5.4,6.7,10.8v0.1v133c16-0.4,32.7,1,50,4.1V59   l-22.7-6c-16.8,14.1-32.8,25.5-47.8,34.3L694.5,87.3 M615,51.3h1.5c18.8,0.4,35.7-2.3,50.6-8.2l2-0.8l0.5,212.3l-16.5,5.6l0.1,12.8   l-1,0.4c-17.3,6.5-35.3,8.3-53.9,5.3l-1.3-0.2l0.1-9.8c-5.8,3.8-13,6-21.7,6.5h-0.1c-15.5-0.7-27.5-6.9-35.9-18.7l-0.3,9l0,1.9   l-1.8-0.4c-17.3-4.4-34.6-4.5-51.9-0.3l-1.8,0.5v-1.9l0-14.4c-4.9,0.7-9.8,1.6-14.7,2.9l-0.2,16.4l-1.1,0.3   c-17.1,4.5-35.9,6.9-56.4,7.2h0c-17.4,0.8-32.8-1.3-46.1-6.3l-1-0.3l0.9-12c-5.4,4.5-11.8,7.4-19.1,8.6h0   c-23.8,3.1-39.3-5.2-46.6-25.1c-2.2,5.6-4.8,10.3-7.8,14c-10.9,13.8-29.8,21.6-56.9,23.5c-24.8,1.7-40.3-4.7-46.5-19.1l-1.5,15.3   l-0.2,1.8l-1.8-0.5c-17.1-5.3-33.5-9.1-49.1-11.4l-1.3-0.2l-0.1-19c-4.6-1.1-9.3-2-14.1-2.7v20.1l-1.6-0.1   c-18.9-1.4-36.7-0.4-53.3,3l-1.8,0.3L63.2,57.1l1.2-0.2l15.8-2.4L79.9,38l1.3-0.1c40.4-5.6,74.3,1.4,101.7,21l0.1,0L183,59   c13.2,12.8,20.3,29.8,21.3,51c2-1.4,4.2-2.7,6.6-3.9c4.5-10.2,20-19.4,46.7-27.6l0-0.1h0c22.6-5.6,38.9-2.3,48.7,10l6.8,0.3   l-0.3-18.9l2,0.6c18.7,5.7,36.3,10.1,52.6,13.2l1.3,0.2l-0.3,17.1l12.3,2.6l0.3-17.7l1.6,0.3c17.3,2.3,33.1,3,47.5,1.9l-0.1,0.1   c22.2-3,40.7-7.8,55.5-14.3l2.2-0.9l-0.2,12.5c8.9-11.7,20.7-16.7,35.2-14.9l0.2,0.1c15.1,4.1,23.9,11.5,26.4,22.3   c2.6-3.1,6.9-6,12.8-8.6l0.1-0.1h0c8.8-3,21.3-2.1,37.4,2.5V66.8l1.9,0.5c4.4,1.3,8.9,2.2,13.4,2.7V51.3 M186.4,241.9   c1.5-27.9,0.2-45.7-3.9-53.4C182.6,209.8,183.9,227.6,186.4,241.9 M117.9,136.3l-0.9-0.4V87.2l1.5,0c12.1-0.1,18.8,6.3,20.2,19.3   v0.1c0.9,12.8-0.3,21.7-3.6,26.6C131.7,138.5,125.9,139.6,117.9,136.3 M154.4,161.7l-3.8-2l0.6-1.6l4.3,0.8   c12.5,2.7,20.8-0.8,25-10.6c4.3-10.4,4.3-27.4,0-51.1c-6.2-22.5-24.3-36-54.3-40.7c-20.4-1.5-40.4-0.4-59.9,3.1l0.2,204.3   c15.9-3.1,32.8-4,50.7-2.8v-93.8h1.5c11.1-0.1,17.2,4.1,18.2,12.6v0.1l0.6,83.4c14.9,2.2,30.4,5.8,46.6,10.8l1.8-21   c-4.2-17-6.3-40-6.3-69.2C172.3,173.8,164,166.4,154.4,161.7 M305.8,177.8c0.4-25.7-1.7-44.7-6.5-56.9c-2,47.6-1.7,83.9,0.9,109.1   C303.6,216.3,305.4,198.9,305.8,177.8 M232.7,183.6l0.5-37.8c0.3-12,3.6-17.9,10.1-17.7c5-0.1,8.2,2.9,9.4,8.8v0.1v0.1   c1.6,18.2,1.1,51.6-1.6,99.9v0.1v0.2c-0.9,3.9-2.1,6.6-3.8,8.1c-1.9,1.8-4.3,2.2-7.1,1.3c-4.7-1-7.2-8.4-7.4-22.1   C232.6,211.6,232.6,197.9,232.7,183.6 M183.7,185l-0.1-0.1c6.1,7.4,7.8,30.1,5.1,68.1l0.6,2.2c4.6,16.4,19.6,23.7,45.2,21.9   c26-1.8,44.3-9.2,54.8-22.3c3.5-4.4,6.4-10.3,8.8-17.4c-3.5-26.2-4-67-1.5-122.3c-1.7-2.9-3.6-5.2-5.7-6.9   c-10.8-8.6-27-11.2-48.7-8c-21.7,3.2-37.1,10.4-46.1,21.5c-9,11.1-13.6,31.6-13.7,61.5L183.7,185 M528.4,209.6   c1.2,14.7,4,26.8,8.5,36.3c1.9-61.9,0.7-104.1-3.6-126.6C526.8,137.2,525.1,167.3,528.4,209.6 M300.8,91.4l-1.1,22.8   c6.6,12.1,9.7,33.3,9.2,63.6c-0.4,25.2-3,45.1-7.7,59.8l0.1,1.3c6.4,20.2,21.2,28.8,44.3,25.8c8-1.3,14.8-4.8,20.4-10.4l2.9-2.8   l-1.4,17.5c12.2,4.4,26.2,6.4,41.9,5.8c0.8-36.3,1.5-91.2,2.1-164.8c-10.9,0-25.3-2-43.3-5.9c-0.6,48.5-1,83.8-1.2,106.1   c-0.1,11.4-0.7,19.9-1.9,25.3c-1.4,6.6-3.7,9.5-6.9,8.6c-5.2-0.9-8.2-7.4-8.9-19.4c-0.5-9.2-0.7-14.9-0.5-17.1l0-0.2v-0.1l-0.3-5.1   c0-0.4,0-0.7,0.3-1c-0.1-16.6-0.1-36.2-0.1-59c0-19.7,0.1-34.6,0.5-44.8C336.3,93.7,320.3,91.7,300.8,91.4 M581.7,185.1l0.5-37.8   c0.3-12,3.6-17.9,10-17.7c5-0.1,8.2,2.9,9.5,8.8v0.1v0.1c1.6,18.2,1.1,51.6-1.6,99.9v0.1v0.1c-0.9,3.9-2.1,6.6-3.8,8.1   c-1.9,1.8-4.3,2.2-7,1.3c-4.7-1-7.2-8.4-7.4-22.1C581.6,213.2,581.5,199.6,581.7,185.1 M468.3,101.1c-19.3,4.4-36.6,7.2-51.9,8.5   l-2,0.2c-0.6,73.6-1.3,128.6-2.1,164.9l3.3-0.1c18.1-0.5,34.9-2.8,50.4-6.7l1.5-141l0.3-0.4c2.4-3.7,4.6-5.8,6.6-6.3   c2.9-0.9,5.4,0.1,7.3,2.9c1.6,2.3,2.8,6.2,3.6,11.6c1.2,8.6,1.7,47.2,1.6,115.8l0,12.9c16.5-3.8,33-3.7,49.6,0.3l0.4-11.5l-1.3-2.4   c-5.3-10.2-8.7-23.5-10-39.8c-3.6-46.3-1.3-78.2,6.8-95.7c-1-4.2-2.2-7.4-3.5-9.6c-8.2-9.7-17-13.9-26.6-12.7   c-9.7,1.4-20.2,8.5-31.4,21.1l-2.7,3L468.3,101.1 M545.8,102.6L545.8,102.6c-4.2,2.3-7.6,6.3-10.4,12c5.2,21.9,6.6,67.5,4.4,136.8   c7.9,13.2,19.7,20.1,35.6,20.9h0.1h0.1c9.1-0.6,16.5-3.2,22.2-7.7l2.5-1.9l-0.1,13.3c17.3,2.6,34,0.9,50.1-5l-1.9-201.9   c-15.8,5-31.1,5.6-45.8,1.7v50.1l-2.5-1.9C576.9,100.2,558.8,94.7,545.8,102.6"/>
	<path class="st2" d="M694.5,87.3l0.1-0.1c15-8.8,31-20.2,47.8-34.3l22.7,6v205c-17.3-3.1-34-4.5-50-4.1v-133v-0.1   c-0.7-5.4-3-8.9-6.7-10.8c-3.5-1.8-8.3-1.9-14.6-0.3l-15.8,4.3V95.8C683.5,93.4,688.9,90.5,694.5,87.3L694.5,87.3 M545.8,102.6   c13-7.9,31.1-2.4,54.4,16.5l2.5,1.9V70.8c14.7,3.9,29.9,3.3,45.8-1.7l1.9,201.9c-16.1,5.9-32.8,7.5-50.1,5l0.1-13.3l-2.5,1.9   c-5.7,4.5-13.1,7.1-22.2,7.7h-0.1h-0.1c-15.9-0.7-27.7-7.7-35.6-20.9c2.2-69.3,0.8-114.9-4.4-136.8   C538.2,108.9,541.6,104.9,545.8,102.6L545.8,102.6 M468.3,101.1l-0.3,15l2.7-3c11.2-12.6,21.7-19.7,31.4-21.1   c9.6-1.3,18.4,3,26.6,12.7c1.3,2.2,2.5,5.4,3.5,9.6c-8.2,17.5-10.5,49.4-6.8,95.7c1.3,16.3,4.7,29.6,10,39.8l1.3,2.4l-0.4,11.5   c-16.6-3.9-33.1-4-49.6-0.3l0-12.9c0.1-68.7-0.5-107.3-1.6-115.8c-0.8-5.4-2-9.2-3.6-11.6c-1.9-2.8-4.4-3.8-7.3-2.9   c-2,0.5-4.2,2.6-6.6,6.3l-0.3,0.4l-1.5,141c-15.4,3.9-32.2,6.2-50.4,6.7l-3.3,0.1c0.8-36.3,1.5-91.3,2.1-164.9l2-0.2   C431.7,108.3,449,105.5,468.3,101.1 M581.7,185.1c-0.1,14.4-0.1,28.1,0.2,41c0.2,13.7,2.7,21.1,7.4,22.1c2.8,0.9,5.1,0.5,7-1.3   c1.7-1.5,2.9-4.2,3.8-8.1v-0.1v-0.1c2.7-48.4,3.2-81.7,1.6-99.9v-0.1v-0.1c-1.3-5.9-4.5-8.9-9.5-8.8c-6.4-0.2-9.8,5.7-10,17.7   L581.7,185.1 M300.8,91.4c19.5,0.3,35.6,2.3,48.2,5.9c-0.3,10.2-0.5,25.1-0.5,44.8c0,22.8,0.1,42.5,0.1,59c-0.2,0.3-0.3,0.6-0.3,1   l0.3,5.1v0.1l0,0.2c-0.2,2.2,0,7.9,0.5,17.1c0.7,12.1,3.6,18.6,8.9,19.4c3.2,0.9,5.5-2,6.9-8.6c1.2-5.5,1.8-13.9,1.9-25.3   c0.2-22.3,0.6-57.6,1.2-106.1c17.9,4,32.4,5.9,43.3,5.9c-0.6,73.6-1.3,128.5-2.1,164.8c-15.7,0.6-29.7-1.4-41.9-5.8l1.4-17.5   l-2.9,2.8c-5.6,5.6-12.4,9.1-20.4,10.4c-23.1,3-37.8-5.6-44.3-25.8l-0.1-1.3c4.7-14.6,7.3-34.5,7.7-59.8   c0.5-30.3-2.6-51.5-9.2-63.6L300.8,91.4 M528.4,209.6c-3.3-42.3-1.7-72.4,4.9-90.3c4.3,22.5,5.5,64.7,3.6,126.6   C532.5,236.4,529.6,224.3,528.4,209.6 M183.7,185l-1.3-1.9c0.1-29.9,4.7-50.4,13.7-61.5c9-11.1,24.4-18.3,46.1-21.5   c21.6-3.2,37.9-0.6,48.7,8c2.1,1.7,4,4,5.7,6.9c-2.5,55.3-2,96.1,1.5,122.3c-2.4,7.2-5.3,13-8.8,17.4   c-10.5,13.1-28.8,20.6-54.8,22.3c-25.6,1.7-40.6-5.6-45.2-21.9l-0.6-2.2c2.8-38,1.1-60.7-5.1-68.1L183.7,185 M232.7,183.6   c-0.1,14.4-0.1,28.1,0.2,41c0.2,13.7,2.7,21.1,7.4,22.1c2.8,0.9,5.1,0.5,7.1-1.3c1.7-1.5,2.9-4.2,3.8-8.1v-0.2v-0.1   c2.7-48.4,3.2-81.7,1.6-99.9V137v-0.1c-1.3-5.9-4.4-8.9-9.4-8.8c-6.4-0.2-9.8,5.7-10.1,17.7L232.7,183.6 M305.8,177.8   c-0.4,21.2-2.2,38.5-5.6,52.1c-2.6-25.1-2.9-61.5-0.9-109.1C304.1,133.1,306.2,152.1,305.8,177.8 M154.4,161.7   c9.6,4.7,17.9,12.1,25,22.3c0,29.2,2.1,52.2,6.3,69.2l-1.8,21c-16.2-4.9-31.7-8.5-46.6-10.8l-0.6-83.4v-0.1   c-1-8.5-7.1-12.7-18.2-12.6H117v93.8c-17.9-1.2-34.8-0.3-50.7,2.8L66.2,59.6c19.5-3.5,39.5-4.6,59.9-3.1   c30,4.6,48.1,18.2,54.3,40.7c4.3,23.7,4.3,40.7,0,51.1c-4.2,9.8-12.5,13.3-25,10.6l-4.3-0.8l-0.6,1.6L154.4,161.7 M117.9,136.3   c8,3.3,13.7,2.3,17.2-3.1c3.3-4.9,4.5-13.8,3.6-26.6v-0.1c-1.4-12.9-8.1-19.3-20.2-19.3l-1.5,0v48.7L117.9,136.3 M186.4,241.9   c-2.5-14.4-3.8-32.2-3.9-53.4C186.6,196.2,187.9,214,186.4,241.9"/>
</g>
<text transform="matrix(1 0 0 1 -5 221.9414)" class="st0 st3 st4">Раунд 1</text>
<g class="">
	<g class="">
		<g class="">
			<g class="" style="&#10;">
				<g class="">
					<path class="st5" d="M179,102c-16.2,3.1-32.5,5-49,3.3c0-4.1,0-6.1,0-10.1c0-11.7,1.5-20.5,4.6-26.7       c3.1-6.1,9.2-11.3,18.4-16.9c10.9-6.5,23.7-11,35.9-12.7c13.5-1.9,27.7-2.3,39.9,5.7c7,4.6,14.5,13.8,16.2,22.4       c3.1,16.3,2.6,33.4,2.7,50c0,25.3,0,50.6,0,75.9c-17.4-2.7-33.2-3.3-50.8-1.2c0-5.4,0-8.1,0-13.5c-3.2,5.9-7.3,10.6-12.3,14.2       c-5,3.6-11,6.1-18,7.1c-9.1,1.4-17.8-0.1-25.1-4.8c-9.5-6.1-11.7-19.7-11.4-30.4c0-5,0-7.5,0-12.4c0-11.3,2-19.1,6.1-22.6       c8.1-7.1,20.3-11.2,30.1-16.1c9.4-4.6,22.1-9.6,27.5-16.6c1.3-1.7,1.8-6.5,1.8-12.8c0-7.9-0.7-13-2-15.1       c-1.3-2.2-3.6-3-6.7-2.5c-3.5,0.6-5.7,2-6.6,4.2c-0.9,2.2-1.3,7.5-1.3,15.9C179,92.5,179,95.6,179,102z M195.6,119.9       c-8.4,6.7-13.2,12.1-14.5,16c-1.3,3.9-2,9.2-2,16.1c0,7.8,0.6,12.8,1.7,14.8c1.2,2.1,3.5,2.8,6.9,2.2c3.3-0.6,5.4-1.8,6.4-3.7       c1-1.9,1.5-6.7,1.5-14.3C195.6,140.7,195.6,130.3,195.6,119.9z"/>
					<path class="st5" d="M352.9,39.6c-5,37.2-10,74.4-14.9,111.6c-1.7,12.2-3.1,24.6-5.9,36.5c-1.5,6.6-4.2,12.3-7.9,17       c-3.7,4.7-8.9,8.7-15.4,11.3c-9.8,3.9-21.1,4.2-31.6,2.8c-10.6-1.3-21.1-3.4-31.7-5.2c0-9.7,0-14.5,0-24.2       c8.1,1.3,13.3,2,15.7,1.6c2.3-0.3,3.5-1.7,3.5-4.2c0-1.2-1.1-6.7-3.2-16.4c-9.5-43.7-19-87.4-28.6-131       c15.9,1.9,31.5,5.6,47.4,7.3c5.7,34.3,11.4,68.5,17.2,102.8c2.8-34.2,5.6-68.4,8.4-102.7C321.5,45.1,337,41.5,352.9,39.6z"/>
					<path class="st5" d="M467.4,196.6c-17.9,2.3-34,2-52-0.6c0-18.6,0-37.2,0-55.7c-7.5-1.2-11.2-2-18.7-3.3c0,18.6,0,37.2,0,55.7       c-17.8-2.6-33.9-3.1-51.8-0.8c0-50.4,0-100.8,0-151.2c17.9-2.3,34-1.9,51.8,0.8c0,18.1,0,36.2,0,54.4c7.5,1.3,11.2,2,18.7,3.3       c0-18.1,0-36.2,0-54.4c17.9,2.6,34,2.9,52,0.6C467.4,95.7,467.4,146.2,467.4,196.6z"/>
					<path class="st5" d="M595.3,227.9c-11.7,0.1-23.4-1.5-34.9-3.6c0-9.7,0-19.4,0-29.2c-31-5.4-56.9-4.8-87.9,0.6       c0,9.7,0,19.4,0,29.2c-11.5,2-23.2,3.4-34.9,2.8c0-21.8,0-43.5,0-65.3c4.4,0.2,6.7,0.2,11.1,0c8.8-13.2,12.9-28.7,16.3-43.8       c5.1-22.2,6.1-45.5,6.4-68.4c0-2.2,0-3.4,0-5.6c40.4-7.1,72.5-2.2,112.7,2.5c0,38.3,0,76.6,0,114.9c4.4,0.3,6.7,0.4,11.1,0.3       C595.3,184.2,595.3,206,595.3,227.9z M532.4,154.3c0-26.9,0-53.9,0-80.8c-5.4-0.6-8.1-0.8-13.6-0.8c0,0.6,0,1,0,1.6       c-0.7,28.2-5.7,53.7-15.5,80.1C512.7,153.2,523,153.1,532.4,154.3z"/>
					<path class="st5" d="M28.1,8.9C46.8,5.7,64,3.5,82.9,4.8c11.7,1.3,23.4,4.1,34.2,8.6c7.9,3.3,14,6.9,18,11.1       c4,4.2,6.7,8.9,8.1,14.4c1.4,5.5,2.1,14,2.1,25.6c0,6.4,0,9.6,0,16.1c0,11.8-1.4,20.4-4.1,25.7c-2.8,5.3-7.8,9.3-15.2,11.2       c-9.4,2.5-19.4,0.8-28.9-0.4c-5.8-1-8.8-1.4-14.6-2.1c0,24.8,0,49.5,0,74.3c-18.8-1.2-35.9,0.9-54.4,4.1       C28.1,131.9,28.1,70.4,28.1,8.9z M82.5,36.4c0,15.7,0,31.3,0,47c1.6,0.2,2.9,0.4,4,0.6c5,0.6,8.5,0.2,10.4-1.7       c1.9-1.8,2.9-6.2,2.9-13c0-6.1,0-9.1,0-15.2c0-6.3-1.1-10.6-3.4-12.9C94.2,38.9,89.6,37.1,82.5,36.4z"/>
					<path class="st5" d="M708.6,13.1c0,61.5,0,123,0,184.5c-17.6-3.1-34.3-5.3-52.2-4.4c0-33,0-65.9,0-98.9       c0-14.3-0.4-22.8-1.2-25.6c-0.8-2.8-2.9-4.8-6.4-5.8c-3.5-1-11.3-0.4-23.3,1.7c-2.1,0.4-3.1,0.5-5.2,0.9c0-8.6,0-12.9,0-21.5       c20.8-8.3,41.8-19,57.5-35.4C688.2,9.3,698.5,11.1,708.6,13.1z"/>
				</g>
				
				
				
				
				
				
				
				
			</g>
			<path class="st7" d="M161.2,118.4c-16.4,2.5-32.8,0.8-49-2.1c0-4.1,0-6.1,0-10.1c0-11.7,1.5-20.4,4.6-26.3     c3.1-5.8,9.2-10.4,18.4-14.5c11.2-5,23.9-7.9,35.9-9.7c13.1-2,27.6-4.2,39.9,2.4c8.9,4.7,14.5,12.4,16.2,20.4     c3.2,15.9,2.6,33.2,2.7,49.7c0,25.3,0,50.6,0,75.9c-17-1.9-34.1,1.3-50.8,4.2c0-5.4,0-8.1,0-13.5c-3.2,6-7.3,10.8-12.3,14.2     c-5,3.5-11,5.6-18,6c-9.1,0.4-17.7-2.6-25.1-8.2c-9.3-7-11.7-20.3-11.4-31.5c0-5,0-7.5,0-12.4c0-11.3,2.1-19,6.1-22.1     c8-6.2,20.6-8.5,30.1-12.1c9.4-3.6,22.2-8.4,27.5-15.4c1.3-1.7,1.8-6.5,1.8-12.9c0-7.9-0.7-12.9-2-15.1c-1.3-2.2-3.6-3-6.7-2.5     c-3.5,0.6-5.7,1.9-6.6,4c-0.9,2.1-1.3,7.4-1.3,15.8C161.2,108.9,161.2,112.1,161.2,118.4z M177.8,136.5     c-8.4,6.9-13.2,12.1-14.5,15.9c-1.3,3.8-2,9.2-2,16c0,7.8,0.6,12.8,1.7,14.9c1.2,2.1,3.5,2.9,6.9,2.4c3.3-0.5,5.4-1.8,6.4-3.8     c1-2,1.5-6.7,1.5-14.3C177.8,157.3,177.8,146.9,177.8,136.5z"/>
			<path class="st7" d="M335,55.9c-5,37.3-9.9,74.7-14.9,112c-1.7,12.1-3.1,24.5-5.9,36.3c-1.5,6.5-4.2,12.1-7.9,16.6     c-3.7,4.5-8.9,8-15.4,9.7c-10.1,2.6-21.4,1-31.6-0.9c-10.4-2-21.1-3.8-31.7-4.7c0-9.7,0-14.5,0-24.2c8.1,0.6,13.3,1.2,15.7,0.8     c2.3-0.4,3.5-1.8,3.5-4.3c0-1.2-1.1-6.7-3.2-16.4c-9.4-42.9-18.9-85.9-28.6-128.7c16-0.2,31.7,2.6,47.4,5.5     c5.7,34.9,11.4,69.8,17.2,104.6c2.8-33.8,5.6-67.6,8.4-101.4C303.7,61.5,319.4,58.8,335,55.9z"/>
			<path class="st7" d="M449.6,212.1c-17.8,0.1-34.5-2.6-52-5.7c0-18.6,0-37.2,0-55.7c-7.5-1.3-11.2-1.9-18.7-2.5     c0,18.6,0,37.2,0,55.7c-17.8-0.7-34.3,1.6-51.8,4.6c0-50.4,0-100.8,0-151.2c17.5-3.1,34-5.4,51.8-4.6c0,18.1,0,36.2,0,54.4     c7.5,0.6,11.2,1.3,18.7,2.5c0-18.1,0-36.2,0-54.4c17.5,3.1,34.2,5.8,52,5.7C449.6,111.3,449.6,161.7,449.6,212.1z"/>
			<path class="st7" d="M577.5,240.5c-11.7-1.5-23.3-3.8-34.9-5.7c0-9.7,0-19.4,0-29.2c-30.4-3.9-57.8,2.3-87.9,6.1     c0,9.7,0,19.4,0,29.2c-11.7,1.1-23.4,0.3-34.9-1.5c0-21.8,0-43.5,0-65.3c4.4,0.7,6.7,1,11.1,1.4c9-12.2,12.9-27.2,16.3-41.5     c5.2-22,6.1-45.1,6.4-67.8c0-2.2,0-3.4,0-5.6c18.8-2.3,37.5-7,56.3-8.1c19-1.1,37.7,2.7,56.3,6c0,38.3,0,76.6,0,114.9     c4.4,0.7,6.7,1.1,11.1,1.6C577.5,196.8,577.5,218.6,577.5,240.5z M514.6,167.1c0-26.9,0-53.9,0-80.8c-5.4,0.2-8.1,0.5-13.6,1.1     c0,0.6,0,1,0,1.6c-0.8,28.6-5.8,54.7-15.5,81.6C495,168.9,504.9,167.5,514.6,167.1z"/>
			<path class="st7" d="M10.3,25.3c18.3-2.7,36.3-6.3,54.8-7.7c11.6-0.3,23.5,1.7,34.2,6.3c7.9,3.4,14,7.5,18,12     c4,4.5,6.7,9.6,8.1,15.3c1.4,5.7,2.1,14.3,2.1,25.9c0,6.4,0,9.6,0,16.1c0,11.8-1.4,20.2-4.1,25.2c-2.8,5-7.8,8.4-15.2,9.9     c-9,1.9-19.8,1.1-28.9,0c-5.8-0.5-8.8-0.6-14.6-0.4c0,24.8,0,49.5,0,74.3c-18.3,1.5-36.2,5-54.4,7.7     C10.3,148.3,10.3,86.8,10.3,25.3z M64.7,49.2c0,15.7,0,31.3,0,47c1.6,0,2.9,0,4,0c5,0,8.5-0.8,10.4-2.8c1.9-2,2.9-6.4,2.9-13.2     c0-6.1,0-9.1,0-15.2c0-6.3-1.1-10.5-3.4-12.6C76.4,50.3,71.8,48.9,64.7,49.2z"/>
			<path class="st7" d="M690.8,23.6c0,61.5,0,123,0,184.5c-18-2.2-34.2-1.6-52.2,1.1c0-33,0-65.9,0-98.9c0-14.3-0.4-22.8-1.2-25.6     c-0.8-2.8-2.9-4.6-6.4-5.4c-3.5-0.9-11.3,0.1-23.3,1.4c-2.1,0.2-3.1,0.3-5.2,0.5c0-8.6,0-12.9,0-21.5c22-6.1,42.9-20.2,57.5-37.7     C670.1,21.1,681,21.9,690.8,23.6z"/>
		</g>
		
		
		
		
		
		
		
		
	</g>
	<g>
		<g>
			<path class="st8" d="M161.7,119c-16.4,2.5-32.8,0.9-49-1.9c0-4.1,0-6.1,0-10.1c0-11.7,1.5-20.4,4.6-26.3     c3.1-5.8,9.2-10.5,18.4-14.6c11.2-5,23.9-8,35.9-9.8c13.2-2,27.6-4.2,39.9,2.4c8.9,4.8,14.5,12.4,16.2,20.5     c3.2,15.9,2.6,33.2,2.7,49.8c0,25.3,0,50.6,0,75.9c-17-2-34.1,1.1-50.8,4.1c0-5.4,0-8.1,0-13.5c-3.2,6-7.3,10.8-12.3,14.2     c-5,3.5-11,5.7-18,6c-9.1,0.5-17.7-2.5-25.1-8.1c-9.3-7-11.7-20.3-11.4-31.5c0-5,0-7.5,0-12.4c0-11.3,2.1-19,6.1-22.1     c8-6.2,20.6-8.6,30.1-12.2c9.4-3.6,22.2-8.4,27.5-15.5c1.3-1.7,1.8-6.5,1.8-12.9c0-7.9-0.7-12.9-2-15.1c-1.3-2.2-3.6-3-6.7-2.5     c-3.5,0.6-5.7,1.9-6.6,4c-0.9,2.1-1.3,7.4-1.3,15.8C161.7,109.5,161.7,112.7,161.7,119z M178.3,137.1     c-8.4,6.9-13.2,12.1-14.5,15.9c-1.3,3.8-2,9.2-2,16c0,7.8,0.6,12.8,1.7,14.9c1.2,2.1,3.5,2.9,6.9,2.4c3.3-0.5,5.4-1.8,6.4-3.8     c1-2,1.5-6.7,1.5-14.3C178.3,157.8,178.3,147.5,178.3,137.1z"/>
			<path class="st8" d="M335.6,56.5c-5,37.3-9.9,74.7-14.9,112c-1.7,12.2-3.1,24.5-5.9,36.4c-1.5,6.5-4.2,12.1-7.9,16.6     c-3.7,4.5-8.9,8.1-15.4,9.8c-10.1,2.6-21.4,1.1-31.6-0.8c-10.4-2-21.1-3.8-31.7-4.7c0-9.7,0-14.5,0-24.2     c8.1,0.6,13.3,1.2,15.7,0.9c2.3-0.4,3.5-1.8,3.5-4.3c0-1.2-1.1-6.7-3.2-16.4c-9.4-43-18.9-85.9-28.6-128.8     c16-0.2,31.7,2.8,47.4,5.6c5.7,34.9,11.4,69.7,17.2,104.6c2.8-33.8,5.6-67.6,8.4-101.5C304.2,62.1,319.9,59.4,335.6,56.5z"/>
			<path class="st8" d="M450.1,212.8c-17.8,0.2-34.5-2.5-52-5.6c0-18.6,0-37.2,0-55.7c-7.5-1.3-11.2-1.9-18.7-2.6     c0,18.6,0,37.2,0,55.7c-17.8-0.8-34.3,1.4-51.8,4.5c0-50.4,0-100.8,0-151.2c17.5-3.1,34-5.3,51.8-4.5c0,18.1,0,36.2,0,54.4     c7.5,0.7,11.2,1.3,18.7,2.6c0-18.1,0-36.2,0-54.4c17.5,3.1,34.2,5.7,52,5.6C450.1,111.9,450.1,162.4,450.1,212.8z"/>
			<path class="st8" d="M578,241.2c-11.7-1.4-23.3-3.7-34.9-5.6c0-9.7,0-19.4,0-29.2c-30.5-4-57.8,2.1-87.9,6c0,9.7,0,19.4,0,29.2     c-11.7,1.2-23.3,0.4-34.9-1.4c0-21.8,0-43.5,0-65.3c4.4,0.7,6.7,1,11.1,1.4c9-12.2,12.9-27.2,16.3-41.6c5.2-22,6.1-45.1,6.4-67.8     c0-2.2,0-3.4,0-5.6c18.7-2.3,37.5-7.1,56.3-8.1c19-1,37.7,2.9,56.3,6.1c0,38.3,0,76.6,0,114.9c4.4,0.7,6.7,1.1,11.1,1.6     C578,197.5,578,219.3,578,241.2z M515.1,167.8c0-26.9,0-53.9,0-80.8c-5.4,0.2-8.1,0.4-13.6,1.1c0,0.6,0,1,0,1.6     c-0.8,28.6-5.8,54.7-15.5,81.6C495.5,169.5,505.4,168.1,515.1,167.8z"/>
			<path class="st8" d="M10.8,25.9c18.3-2.8,36.3-6.3,54.8-7.6c11.6-0.3,23.5,1.8,34.2,6.4c7.9,3.4,14,7.5,18,12     c4,4.5,6.7,9.6,8.1,15.3c1.4,5.7,2.1,14.3,2.1,25.8c0,6.4,0,9.6,0,16.1c0,11.8-1.4,20.2-4.1,25.2c-2.8,5-7.8,8.4-15.2,10     c-9,1.9-19.8,1.1-28.9,0c-5.8-0.5-8.8-0.7-14.6-0.5c0,24.8,0,49.5,0,74.3c-18.3,1.4-36.2,4.9-54.4,7.6     C10.8,148.9,10.8,87.4,10.8,25.9z M65.2,49.8c0,15.7,0,31.3,0,47c1.6,0,2.9,0.1,4,0.1c5,0,8.5-0.7,10.4-2.7     c1.9-2,2.9-6.4,2.9-13.2c0-6.1,0-9.1,0-15.2c0-6.3-1.1-10.5-3.4-12.6C76.9,51,72.3,49.6,65.2,49.8z"/>
			<path class="st8" d="M691.3,24.4c0,61.5,0,123,0,184.5c-18-2.3-34.2-1.8-52.2,1c0-33,0-65.9,0-98.9c0-14.3-0.4-22.8-1.2-25.6     c-0.8-2.8-2.9-4.6-6.4-5.4c-3.5-0.9-11.3,0.1-23.3,1.4c-2.1,0.2-3.1,0.3-5.2,0.5c0-8.6,0-12.9,0-21.5c22-6.1,42.9-20.3,57.5-37.7     C670.6,21.8,681.5,22.7,691.3,24.4z"/>
		</g>
		
		
		
		
		
		
		
		
	</g>
</g>
</svg>