<svg xmlns="http://www.w3.org/2000/svg" xmlns:xlink="http://www.w3.org/1999/xlink" version="1.1" id="Слой_1" x="0px" y="0px" viewBox="0 0 745.2 246.1" style="enable-background:new 0 0 745.2 246.1;" xml:space="preserve">
<style type="text/css">
	.st0{display:none;}
	.st1{display:inline;fill-rule:evenodd;clip-rule:evenodd;fill:#0000AA;}
	.st2{display:inline;fill-rule:evenodd;clip-rule:evenodd;fill:#39C9FE;}
	.st3{fill:#0000AA;stroke:#0000AA;stroke-width:2.5;stroke-miterlimit:10;}
	.st4{fill:none;stroke:#000000;stroke-width:0.3;}
	.st5{fill:#39C9FE;stroke:#0000AA;stroke-width:2.5;stroke-miterlimit:10;}
	.st6{fill:none;stroke:#0000AA;stroke-width:2.5;stroke-miterlimit:10;}
</style>
<g transform="matrix(1.0, 0.0, 0.0, 1.0, -63.2, -34.15)" class="st0">
	<path class="st1" d="M728.5,77.4l1,0.2h0c2.9,0.5,5.4,1.7,7.3,3.3c15.4,13.5-6.7,66-66.2,157.4l0.1,30c29.1-7.8,67.2-5.8,114.3,5.9   l-0.2-31.7c-19.9-7.5-39.6-11.7-59.3-12.5l-3-0.1l1.9-2.3c26.6-32.3,44.9-58.2,54.8-77.6l0,0.1c16.2-36.7,11.5-65.2-13.9-85.5h0   c-17.3-14-37.8-18.3-61.3-12.9l-1.1,0.3c-23.2,12-33.8,37.3-31.9,75.8c13-4.2,27.8-6.5,44.5-6.8c-0.2-4-0.3-7.6-0.3-11   c0-11,1-19.1,3-24.4c1.5-3.9,3.4-6.4,5.9-7.5l0.2-0.3c0.3-0.3,0.7-0.5,1.1-0.5l2.4,0.2L728.5,77.4 M615,51.3h1.5   c18.8,0.4,35.7-2.3,50.6-8.2l2-0.8l0.1,55.8c3.8-23.7,14.5-40.1,32.4-49l0.1-0.1l0.3,0l1.3-0.3l2-0.5c4.3-4.6,9.4-8.5,15.3-11.5   c24.5-6,45.8-1.7,63.8,12.9c26.1,20.8,30.9,49.9,14.3,87.3c-9.9,19.5-28.3,45.5-55,77.9c20.2,0.9,40.4,5.2,60.7,12.9l0.3,34.7   c-5.8-1.5-11.4-2.8-16.8-3.9L788,278l-1.8-0.5c-48.3-12.2-87.2-14.1-116.6-5.8l-1.9,0.5v-2v-14.9l-14.5,4.9l0.1,12.8l-1,0.4   c-17.3,6.5-35.3,8.3-53.9,5.3l-1.3-0.2l0.1-9.8c-5.8,3.8-13,6-21.7,6.5h-0.1c-15.5-0.7-27.5-6.9-35.9-18.7l-0.3,9l0,1.9l-1.8-0.4   c-17.3-4.4-34.6-4.5-51.9-0.3l-1.8,0.5v-1.9l0-14.4c-4.9,0.7-9.8,1.6-14.7,2.9l-0.2,16.4l-1.1,0.3c-17.1,4.5-35.9,6.9-56.4,7.2h0   c-17.4,0.8-32.8-1.3-46.1-6.3l-1-0.3l0.9-12c-5.4,4.5-11.8,7.4-19.1,8.6h0c-23.8,3.1-39.3-5.2-46.6-25.1c-2.2,5.6-4.8,10.3-7.8,14   c-10.9,13.8-29.8,21.6-56.9,23.5c-24.8,1.7-40.3-4.7-46.5-19.1l-1.5,15.3l-0.2,1.8l-1.8-0.5c-17.1-5.3-33.5-9.1-49.1-11.4l-1.3-0.2   l-0.1-19c-4.6-1.1-9.3-2-14.1-2.7v20.1l-1.6-0.1c-18.9-1.4-36.7-0.4-53.3,3l-1.8,0.3L63.2,57.1l1.2-0.2l15.8-2.4L79.9,38l1.3-0.1   c40.4-5.6,74.3,1.4,101.7,21l0.1,0L183,59c13.2,12.8,20.3,29.8,21.3,51c2-1.4,4.2-2.7,6.6-3.9c4.5-10.2,20-19.4,46.7-27.6l0-0.1h0   c22.6-5.6,38.9-2.3,48.7,10l6.8,0.3l-0.3-18.9l2,0.6c18.7,5.7,36.3,10.1,52.6,13.2l1.3,0.2l-0.3,17.1l12.3,2.6l0.3-17.7l1.6,0.3   c17.3,2.3,33.1,3,47.5,1.9l-0.1,0.1c22.2-3,40.7-7.8,55.5-14.3l2.2-0.9l-0.2,12.5c8.9-11.7,20.7-16.7,35.2-14.9l0.2,0.1   c15.1,4.1,23.9,11.5,26.4,22.3c2.6-3.1,6.9-6,12.8-8.6l0.1-0.1h0c8.8-3,21.3-2.1,37.4,2.5V66.8l1.9,0.5c4.4,1.3,8.9,2.2,13.4,2.7   V51.3 M735.3,108.7l-17,1v0.2c0,3.8,0.1,7.9,0.3,12.4l0.1,1.6h-1.5c-17.8,0.2-33.4,2.7-47,7.4l-0.7,0.2l0.3,102.8   c56-86.3,78-136.4,65.8-150.3C734.9,90.5,734.8,98.7,735.3,108.7 M186.4,241.9c1.5-27.9,0.2-45.7-3.9-53.4   C182.6,209.8,183.9,227.6,186.4,241.9 M117.9,136.3l-0.9-0.4V87.2l1.5,0c12.1-0.1,18.8,6.3,20.2,19.3v0.1   c0.9,12.8-0.3,21.7-3.6,26.6C131.7,138.5,125.9,139.6,117.9,136.3 M154.4,161.7l-3.8-2l0.6-1.6l4.3,0.8c12.5,2.7,20.8-0.8,25-10.6   c4.3-10.4,4.3-27.4,0-51.1c-6.2-22.5-24.3-36-54.3-40.7c-20.4-1.5-40.4-0.4-59.9,3.1l0.2,204.3c15.9-3.1,32.8-4,50.7-2.8v-93.8h1.5   c11.1-0.1,17.2,4.1,18.2,12.6v0.1l0.6,83.4c14.9,2.2,30.4,5.8,46.6,10.8l1.8-21c-4.2-17-6.3-40-6.3-69.2   C172.3,173.8,164,166.4,154.4,161.7 M305.8,177.8c0.4-25.7-1.7-44.7-6.5-56.9c-2,47.6-1.7,83.9,0.9,109.1   C303.6,216.3,305.4,198.9,305.8,177.8 M232.7,183.6l0.5-37.8c0.3-12,3.6-17.9,10.1-17.7c5-0.1,8.2,2.9,9.4,8.8v0.1v0.1   c1.6,18.2,1.1,51.6-1.6,99.9v0.1v0.2c-0.9,3.9-2.1,6.6-3.8,8.1c-1.9,1.8-4.3,2.2-7.1,1.3c-4.7-1-7.2-8.4-7.4-22.1   C232.6,211.6,232.6,197.9,232.7,183.6 M183.7,185l-0.1-0.1c6.1,7.4,7.8,30.1,5.1,68.1l0.6,2.2c4.6,16.4,19.6,23.7,45.2,21.9   c26-1.8,44.3-9.2,54.8-22.3c3.5-4.4,6.4-10.3,8.8-17.4c-3.5-26.2-4-67-1.5-122.3c-1.7-2.9-3.6-5.2-5.7-6.9   c-10.8-8.6-27-11.2-48.7-8c-21.7,3.2-37.1,10.4-46.1,21.5c-9,11.1-13.6,31.6-13.7,61.5L183.7,185 M528.4,209.6   c1.2,14.7,4,26.8,8.5,36.3c1.9-61.9,0.7-104.1-3.6-126.6C526.8,137.2,525.1,167.3,528.4,209.6 M300.8,91.4l-1.1,22.8   c6.6,12.1,9.7,33.3,9.2,63.6c-0.4,25.2-3,45.1-7.7,59.8l0.1,1.3c6.4,20.2,21.2,28.8,44.3,25.8c8-1.3,14.8-4.8,20.4-10.4l2.9-2.8   l-1.4,17.5c12.2,4.4,26.2,6.4,41.9,5.8c0.8-36.3,1.5-91.2,2.1-164.8c-10.9,0-25.3-2-43.3-5.9c-0.6,48.5-1,83.8-1.2,106.1   c-0.1,11.4-0.7,19.9-1.9,25.3c-1.4,6.6-3.7,9.5-6.9,8.6c-5.2-0.9-8.2-7.4-8.9-19.4c-0.5-9.2-0.7-14.9-0.5-17.1l0-0.2v-0.1l-0.3-5.1   c0-0.4,0-0.7,0.3-1c-0.1-16.6-0.1-36.2-0.1-59c0-19.7,0.1-34.6,0.5-44.8C336.3,93.7,320.3,91.7,300.8,91.4 M581.7,185.1l0.5-37.8   c0.3-12,3.6-17.9,10-17.7c5-0.1,8.2,2.9,9.5,8.8v0.1v0.1c1.6,18.2,1.1,51.6-1.6,99.9v0.1v0.1c-0.9,3.9-2.1,6.6-3.8,8.1   c-1.9,1.8-4.3,2.2-7,1.3c-4.7-1-7.2-8.4-7.4-22.1C581.6,213.2,581.5,199.6,581.7,185.1 M468.3,101.1c-19.3,4.4-36.6,7.2-51.9,8.5   l-2,0.2c-0.6,73.6-1.3,128.6-2.1,164.9l3.3-0.1c18.1-0.5,34.9-2.8,50.4-6.7l1.5-141l0.3-0.4c2.4-3.7,4.6-5.8,6.6-6.3   c2.9-0.9,5.4,0.1,7.3,2.9c1.6,2.3,2.8,6.2,3.6,11.6c1.2,8.6,1.7,47.2,1.6,115.8l0,12.9c16.5-3.8,33-3.7,49.6,0.3l0.4-11.5l-1.3-2.4   c-5.3-10.2-8.7-23.5-10-39.8c-3.6-46.3-1.3-78.2,6.8-95.7c-1-4.2-2.2-7.4-3.5-9.6c-8.2-9.7-17-13.9-26.6-12.7   c-9.7,1.4-20.2,8.5-31.4,21.1l-2.7,3L468.3,101.1 M545.8,102.6L545.8,102.6c-4.2,2.3-7.6,6.3-10.4,12c5.2,21.9,6.6,67.5,4.4,136.8   c7.9,13.2,19.7,20.1,35.6,20.9h0.1h0.1c9.1-0.6,16.5-3.2,22.2-7.7l2.5-1.9l-0.1,13.3c17.3,2.6,34,0.9,50.1-5l-1.9-201.9   c-15.8,5-31.1,5.6-45.8,1.7v50.1l-2.5-1.9C576.9,100.2,558.8,94.7,545.8,102.6"/>
	<path class="st2" d="M728.5,77.4l-0.7-0.1l-2.4-0.2c-0.4,0-0.8,0.2-1.1,0.5l-0.2,0.3c-2.5,1.1-4.4,3.6-5.9,7.5   c-2,5.2-3,13.4-3,24.4c0,3.4,0.1,7.1,0.3,11c-16.7,0.3-31.5,2.6-44.5,6.8c-1.9-38.5,8.7-63.8,31.9-75.8l1.1-0.3   c23.5-5.4,43.9-1.1,61.3,12.9h0c25.4,20.3,30.1,48.8,13.9,85.5l0-0.1c-9.9,19.4-28.2,45.3-54.8,77.6l-1.9,2.3l3,0.1   c19.6,0.8,39.4,5,59.3,12.5l0.2,31.7c-47.1-11.7-85.2-13.7-114.3-5.9l-0.1-30c59.5-91.4,81.5-143.8,66.2-157.4   c-1.9-1.7-4.3-2.8-7.3-3.3h0L728.5,77.4 M545.8,102.6c13-7.9,31.1-2.4,54.4,16.5l2.5,1.9V70.8c14.7,3.9,29.9,3.3,45.8-1.7   l1.9,201.9c-16.1,5.9-32.8,7.5-50.1,5l0.1-13.3l-2.5,1.9c-5.7,4.5-13.1,7.1-22.2,7.7h-0.1h-0.1c-15.9-0.7-27.7-7.7-35.6-20.9   c2.2-69.3,0.8-114.9-4.4-136.8C538.2,108.9,541.6,104.9,545.8,102.6L545.8,102.6 M468.3,101.1l-0.3,15l2.7-3   c11.2-12.6,21.7-19.7,31.4-21.1c9.6-1.3,18.4,3,26.6,12.7c1.3,2.2,2.5,5.4,3.5,9.6c-8.2,17.5-10.5,49.4-6.8,95.7   c1.3,16.3,4.7,29.6,10,39.8l1.3,2.4l-0.4,11.5c-16.6-3.9-33.1-4-49.6-0.3l0-12.9c0.1-68.7-0.5-107.3-1.6-115.8   c-0.8-5.4-2-9.2-3.6-11.6c-1.9-2.8-4.4-3.8-7.3-2.9c-2,0.5-4.2,2.6-6.6,6.3l-0.3,0.4l-1.5,141c-15.4,3.9-32.2,6.2-50.4,6.7   l-3.3,0.1c0.8-36.3,1.5-91.3,2.1-164.9l2-0.2C431.7,108.3,449,105.5,468.3,101.1 M581.7,185.1c-0.1,14.4-0.1,28.1,0.2,41   c0.2,13.7,2.7,21.1,7.4,22.1c2.8,0.9,5.1,0.5,7-1.3c1.7-1.5,2.9-4.2,3.8-8.1v-0.1v-0.1c2.7-48.4,3.2-81.7,1.6-99.9v-0.1v-0.1   c-1.3-5.9-4.5-8.9-9.5-8.8c-6.4-0.2-9.8,5.7-10,17.7L581.7,185.1 M300.8,91.4c19.5,0.3,35.6,2.3,48.2,5.9   c-0.3,10.2-0.5,25.1-0.5,44.8c0,22.8,0.1,42.5,0.1,59c-0.2,0.3-0.3,0.6-0.3,1l0.3,5.1v0.1l0,0.2c-0.2,2.2,0,7.9,0.5,17.1   c0.7,12.1,3.6,18.6,8.9,19.4c3.2,0.9,5.5-2,6.9-8.6c1.2-5.5,1.8-13.9,1.9-25.3c0.2-22.3,0.6-57.6,1.2-106.1   c17.9,4,32.4,5.9,43.3,5.9c-0.6,73.6-1.3,128.5-2.1,164.8c-15.7,0.6-29.7-1.4-41.9-5.8l1.4-17.5l-2.9,2.8   c-5.6,5.6-12.4,9.1-20.4,10.4c-23.1,3-37.8-5.6-44.3-25.8l-0.1-1.3c4.7-14.6,7.3-34.5,7.7-59.8c0.5-30.3-2.6-51.5-9.2-63.6   L300.8,91.4 M528.4,209.6c-3.3-42.3-1.7-72.4,4.9-90.3c4.3,22.5,5.5,64.7,3.6,126.6C532.5,236.4,529.6,224.3,528.4,209.6    M183.7,185l-1.3-1.9c0.1-29.9,4.7-50.4,13.7-61.5c9-11.1,24.4-18.3,46.1-21.5c21.6-3.2,37.9-0.6,48.7,8c2.1,1.7,4,4,5.7,6.9   c-2.5,55.3-2,96.1,1.5,122.3c-2.4,7.2-5.3,13-8.8,17.4c-10.5,13.1-28.8,20.6-54.8,22.3c-25.6,1.7-40.6-5.6-45.2-21.9l-0.6-2.2   c2.8-38,1.1-60.7-5.1-68.1L183.7,185 M232.7,183.6c-0.1,14.4-0.1,28.1,0.2,41c0.2,13.7,2.7,21.1,7.4,22.1c2.8,0.9,5.1,0.5,7.1-1.3   c1.7-1.5,2.9-4.2,3.8-8.1v-0.2v-0.1c2.7-48.4,3.2-81.7,1.6-99.9V137v-0.1c-1.3-5.9-4.4-8.9-9.4-8.8c-6.4-0.2-9.8,5.7-10.1,17.7   L232.7,183.6 M305.8,177.8c-0.4,21.2-2.2,38.5-5.6,52.1c-2.6-25.1-2.9-61.5-0.9-109.1C304.1,133.1,306.2,152.1,305.8,177.8    M154.4,161.7c9.6,4.7,17.9,12.1,25,22.3c0,29.2,2.1,52.2,6.3,69.2l-1.8,21c-16.2-4.9-31.7-8.5-46.6-10.8l-0.6-83.4v-0.1   c-1-8.5-7.1-12.7-18.2-12.6H117v93.8c-17.9-1.2-34.8-0.3-50.7,2.8L66.2,59.6c19.5-3.5,39.5-4.6,59.9-3.1   c30,4.6,48.1,18.2,54.3,40.7c4.3,23.7,4.3,40.7,0,51.1c-4.2,9.8-12.5,13.3-25,10.6l-4.3-0.8l-0.6,1.6L154.4,161.7 M117.9,136.3   c8,3.3,13.7,2.3,17.2-3.1c3.3-4.9,4.5-13.8,3.6-26.6v-0.1c-1.4-12.9-8.1-19.3-20.2-19.3l-1.5,0v48.7L117.9,136.3 M186.4,241.9   c-2.5-14.4-3.8-32.2-3.9-53.4C186.6,196.2,187.9,214,186.4,241.9"/>
</g>
<g>
	<g>
		<g>
			<g>
				<g>
					<path class="st3" d="M183,102.7c-16.7,3-33.4,4.2-50.4,2.2c0-4.1,0-6.1,0-10.2c0-11.8,1.6-20.6,4.7-26.7       c3.1-6.1,9.5-11.1,18.9-16.4c11.3-6.3,24.1-10.1,36.9-12.3c13.9-2.4,28.7-2.6,41.1,4.7c7.3,4.4,14.9,13.5,16.6,22.1       c3.2,16.4,2.7,33.6,2.8,50.2c0,25.5,0,50.9,0,76.4c-18-2.3-34.2-2.3-52.2,0.1c0-5.4,0-8.1,0-13.6c-3.3,5.9-7.5,10.7-12.7,14.3       c-5.2,3.6-11.4,6.1-18.5,7c-9.4,1.2-18.2-0.5-25.8-5.5c-9.7-6.4-12-19.9-11.8-30.9c0-5,0-7.5,0-12.5c0-11.4,2.1-19.2,6.2-22.6       c8.3-6.9,20.9-10.6,31-15.3c9.6-4.5,22.7-9.4,28.3-16.6c1.3-1.7,1.9-6.6,1.9-12.9c0-7.9-0.7-13-2.1-15.2       c-1.4-2.2-3.7-3-6.8-2.5c-3.6,0.6-5.9,2-6.8,4.2c-0.9,2.2-1.3,7.5-1.3,16C183,93.1,183,96.3,183,102.7z M200,120.7       c-8.6,6.8-13.6,12.3-14.9,16.2c-1.4,3.9-2.1,9.3-2.1,16.2c0,7.9,0.6,12.9,1.8,14.9c1.2,2.1,3.6,2.8,7.1,2.2       c3.4-0.6,5.6-1.8,6.6-3.8c1-2,1.5-6.8,1.5-14.4C200,141.6,200,131.2,200,120.7z"/>
					<path class="st3" d="M361.7,40c-5.1,37.5-10.2,75-15.3,112.5c-1.7,12.3-3.2,24.7-6.1,36.7c-1.6,6.6-4.4,12.3-8.2,17       c-3.8,4.7-9.1,8.6-15.9,11.1c-10.2,3.7-21.8,3.3-32.5,1.7c-10.9-1.7-21.7-3.5-32.5-5.2c0-9.7,0-14.6,0-24.3       c8.3,1.2,13.7,1.8,16.1,1.5c2.4-0.3,3.6-1.7,3.6-4.3c0-1.2-1.1-6.7-3.3-16.5c-9.7-43.8-19.5-87.6-29.4-131.4       c16.4,1.5,32.4,5,48.7,7.1c5.8,34.7,11.7,69.4,17.6,104c2.9-34.3,5.7-68.6,8.6-103C329.5,45.7,345.5,42.3,361.7,40z"/>
					<path class="st3" d="M479.4,198c-18.4,1.7-35.1,0.4-53.4-2.5c0-18.7,0-37.4,0-56.1c-7.7-1.3-11.6-2-19.3-3.2       c0,18.7,0,37.4,0,56.1c-18.4-2.2-34.9-1.7-53.3,1c0-50.7,0-101.4,0-152.2c18.3-2.7,34.9-3.2,53.3-1c0,18.2,0,36.5,0,54.7       c7.7,1.1,11.6,1.9,19.3,3.2c0-18.2,0-36.5,0-54.7c18.3,2.9,35,4.2,53.4,2.5C479.4,96.6,479.4,147.3,479.4,198z"/>
					<path class="st3" d="M610.9,228.6c-12.1-0.6-24-2.6-35.9-4.7c0-9.8,0-19.6,0-29.4c-31.7-5.1-58.9-2.3-90.3,2.8       c0,9.8,0,19.6,0,29.4c-11.9,1.8-23.9,2.6-35.9,1.4c0-21.9,0-43.8,0-65.7c4.6,0.4,6.9,0.5,11.4,0.6       c9.1-12.9,13.2-28.4,16.8-43.4c5.3-22.3,6.2-45.7,6.6-68.7c0-2.2,0-3.4,0-5.6c41.5-6.6,74.4-5.1,115.8,0.8       c0,38.5,0,77.1,0,115.6c4.6,0.5,6.9,0.7,11.4,0.9C610.9,184.6,610.9,206.6,610.9,228.6z M546.2,154.1c0-27.1,0-54.2,0-81.3       c-5.6-0.3-8.4-0.4-14-0.1c0,0.6,0,1,0,1.6c-0.8,28.6-5.9,54.5-15.9,81.3C526,154.1,536.5,153.4,546.2,154.1z"/>
					<path class="st3" d="M27.8,8.9c19-3.2,37-5.8,56.3-5c12,1.1,24,3.8,35.1,8.3c8.2,3.4,14.3,7.2,18.5,11.4       c4.1,4.3,6.9,9.1,8.4,14.7c1.5,5.6,2.2,14.2,2.2,25.8c0,6.5,0,9.7,0,16.2c0,11.9-1.4,20.5-4.3,25.8c-2.8,5.3-8.1,9.1-15.6,10.9       c-9.7,2.4-20,0.7-29.7-0.5c-6-0.9-9-1.3-15-1.8c0,24.9,0,49.8,0,74.8c-19.2-0.7-37,1.8-55.9,5C27.8,132.7,27.8,70.8,27.8,8.9z        M83.8,35.7c0,15.7,0,31.5,0,47.2c1.6,0.2,3,0.4,4.1,0.5c5.1,0.6,8.7,0,10.7-1.9c2-1.9,3-6.2,3-13.1c0-6.1,0-9.2,0-15.3       c0-6.3-1.2-10.7-3.5-12.9C95.8,38,91,36.3,83.8,35.7z"/>
					<path class="st3" d="M734.5,166.9c0,10.3,0,20.6,0,30.9c-36.2-6.1-66.9-1.8-102.9,3.2c0-10.3,0-15.5,0-25.9       c18.7-31.9,38.9-64.5,54.3-97.2c3.8-8.2,8.5-17.7,8.6-27.1c0.1-4.9-0.9-8.6-2.6-11c-1.7-2.4-4.4-3.5-7.9-3.3       c-3.6,0.3-6.2,1.9-7.9,4.8c-1.7,2.9-2.6,8.4-2.6,16.3c0,6.9,0,10.3,0,17.2c-14,2.1-27.9,4.6-41.9,6.5c0-2.6,0-4,0-6.6       c0-10.1,0.5-18.2,1.6-24.2c1.1-6,3.7-12.1,8-18.4c4.2-6.3,9.8-11.5,16.5-15.6c6.8-4.1,15-7,24.4-7.8       c15.3-1.2,31.8,4.3,42.2,15.9c8.8,9.9,14.2,23,14.3,36.3c0.1,11.2-3.5,22-8,31.5c-11.5,24.1-31.9,46.8-47.4,70       C700.7,161.8,717.2,163.9,734.5,166.9z"/>
				</g>
				
				
				
				
				
				
				
				
			</g>
			<path class="st5" d="M164.7,119c-16.8,2.1-33.8-0.3-50.4-3.2c0-4.1,0-6.1,0-10.2c0-11.8,1.6-20.6,4.7-26.4     c3.1-5.9,9.5-10.5,18.9-14.4c11.6-4.8,24.5-7,36.9-8.8c13.5-2,28.6-3.9,41.1,2.1C225,62.5,230.9,70,232.5,78     c3.3,16,2.7,33.4,2.8,50c0,25.5,0,50.9,0,76.4c-17.8-0.2-34.7,2.3-52.2,5.2c0-5.4,0-8.1,0-13.6c-3.3,6-7.5,10.8-12.7,14.2     c-5.2,3.4-11.4,5.4-18.5,5.5c-9.4,0.1-18.2-3.1-25.8-8.9c-9.5-7.1-12-20.4-11.8-31.8c0-5,0-7.5,0-12.5c0-11.4,2.1-19.1,6.2-22.2     c8.2-6.2,21.2-8.2,31-11.5c9.7-3.3,22.8-7.9,28.3-14.9c1.3-1.7,1.9-6.6,1.9-12.9c0-7.9-0.7-13-2.1-15.2c-1.4-2.2-3.7-3-6.8-2.6     c-3.6,0.5-5.9,1.8-6.8,3.9c-0.9,2.1-1.3,7.4-1.3,15.9C164.7,109.4,164.7,112.6,164.7,119z M181.7,137.5     c-8.6,6.8-13.6,12-14.9,15.8c-1.4,3.8-2.1,9.2-2.1,16c0,7.9,0.6,12.9,1.8,15.1c1.2,2.2,3.6,3,7.1,2.5c3.4-0.5,5.6-1.7,6.6-3.7     c1-2,1.5-6.8,1.5-14.4C181.7,158.3,181.7,147.9,181.7,137.5z"/>
			<path class="st5" d="M343.4,56.6c-5.1,37.5-10.2,75-15.3,112.5c-1.7,12.2-3.2,24.6-6.1,36.4c-1.6,6.5-4.4,12.1-8.2,16.4     c-3.8,4.4-9.2,7.7-15.9,9.1c-10.5,2.2-22,0.4-32.5-1.5c-10.9-1.8-21.5-3.2-32.5-4.1c0-9.7,0-14.6,0-24.3     c8.3,0.3,13.7,0.8,16.1,0.4c2.4-0.4,3.6-1.8,3.6-4.4c0-1.2-1.1-6.7-3.3-16.4c-9.6-42.9-19.4-85.8-29.4-128.6     c16.4-0.9,32.6,1.5,48.7,4.5c5.9,35.2,11.7,70.3,17.6,105.5c2.9-33.9,5.7-67.9,8.6-101.8C311.1,61.6,327.3,59.5,343.4,56.6z"/>
			<path class="st5" d="M461.1,213c-18.1-0.8-35.6-3.9-53.4-6.8c0-18.7,0-37.4,0-56.1c-7.7-1.1-11.6-1.6-19.3-2     c0,18.7,0,37.4,0,56.1c-18.1,0.1-35.4,2.9-53.3,5.9c0-50.7,0-101.4,0-152.2c17.9-3,35.1-5.8,53.3-5.9c0,18.2,0,36.5,0,54.7     c7.7,0.3,11.6,0.8,19.3,2c0-18.2,0-36.5,0-54.7c17.9,2.9,35.3,6,53.4,6.8C461.1,111.5,461.1,162.3,461.1,213z"/>
			<path class="st5" d="M592.6,240.4c-12-1.8-23.9-4.1-35.9-5.7c0-9.8,0-19.6,0-29.4c-30.9-2.7-59.8,4.8-90.3,7.5     c0,9.8,0,19.6,0,29.4c-12,0.5-24-0.9-35.9-2.9c0-21.9,0-43.8,0-65.7c4.6,0.7,6.9,1.1,11.4,1.7c9-11.6,13.7-27.1,16.8-41.1     c4.9-22,6.3-45.2,6.6-67.9c0-2.2,0-3.4,0-5.6c40.7-3.4,74.9-10.6,115.8-3.7c0,38.5,0,77.1,0,115.6c4.6,0.8,6.9,1.2,11.4,1.8     C592.6,196.4,592.6,218.4,592.6,240.4z M527.9,168c0-27.1,0-54.2,0-81.3c-5.6,0.4-8.4,0.8-14,1.6c0,0.6,0,1,0,1.6     c-0.8,28.9-5.9,55.2-15.9,82.3C507.9,170.5,517.9,168.8,527.9,168z"/>
			<path class="st5" d="M9.5,25.2c18.8-2.5,37.4-6.1,56.3-7.9c11.9-0.7,24.1,1.1,35.1,5.6c8.2,3.3,14.3,7.5,18.5,12     c4.1,4.6,6.9,9.7,8.4,15.5c1.5,5.8,2.2,14.4,2.2,26c0,6.5,0,9.7,0,16.2c0,11.9-1.4,20.3-4.3,25.3c-2.8,5-8.1,8.4-15.6,9.9     c-9.6,2-19.9,0.9-29.7,0.4c-6-0.4-9-0.4-15,0c0,24.9,0,49.8,0,74.8c-18.8,1.8-37.2,5.4-55.9,7.8C9.5,148.9,9.5,87,9.5,25.2z      M65.5,49.1c0,15.7,0,31.5,0,47.2c1.6,0,3,0,4.1-0.1c5.1-0.1,8.7-1,10.7-3.1c2-2.1,3-6.5,3-13.4c0-6.1,0-9.2,0-15.3     c0-6.3-1.2-10.6-3.5-12.6C77.5,49.9,72.7,48.6,65.5,49.1z"/>
			<path class="st5" d="M721.8,176.6c0,10.3,0,20.6,0,30.9c-35.5-4.8-67.6,3.7-102.9,6.2c0-10.3,0-15.5,0-25.9     c19.2-31.4,39.4-64,54.3-96.8c3.8-8.4,8.5-18.2,8.6-27.8c0.1-4.9-0.9-8.5-2.6-10.8c-1.7-2.2-4.4-3.2-7.9-2.7     c-3.6,0.5-6.2,2.3-7.9,5.2c-1.7,3-2.6,8.5-2.6,16.4c0,6.9,0,10.3,0,17.2c-14,2.4-27.7,4.5-41.9,5.4c0-2.6,0-4,0-6.6     c0-10.1,0.5-18.2,1.6-24.1c1.1-5.9,3.7-11.8,8-17.8c4.2-6.1,9.8-11,16.5-15c6.8-4,14.9-7,24.4-8.4c14.9-2.2,31.7,1,42.2,12.5     c8.9,9.7,14.2,22.8,14.3,36c0.1,11.2-3.5,22-8,31.6c-11.8,25-31.8,49.2-47.4,73.5C688.2,173.8,704.2,174.2,721.8,176.6z"/>
		</g>
		
		
		
		
		
		
		
		
	</g>
	<g>
		<g>
			<path class="st6" d="M165.2,119.6c-16.8,2.1-33.8-0.1-50.4-3c0-4.1,0-6.1,0-10.2c0-11.8,1.6-20.6,4.7-26.4     c3.1-5.9,9.5-10.5,18.9-14.4c11.6-4.8,24.5-7.1,36.9-8.9c13.5-2.1,28.6-3.9,41.1,2.1c9.1,4.4,14.9,12,16.6,20     c3.3,16,2.7,33.4,2.8,50c0,25.5,0,50.9,0,76.4c-17.8-0.3-34.6,2.1-52.2,5.1c0-5.4,0-8.1,0-13.6c-3.3,6-7.5,10.8-12.7,14.2     c-5.2,3.4-11.4,5.5-18.5,5.6c-9.4,0.2-18.2-3.1-25.8-8.8c-9.5-7.1-12-20.4-11.8-31.8c0-5,0-7.5,0-12.5c0-11.4,2.1-19.1,6.2-22.2     c8.2-6.2,21.2-8.2,31-11.6c9.7-3.4,22.8-7.9,28.3-15c1.3-1.7,1.9-6.6,1.9-12.9c0-7.9-0.7-13-2.1-15.2c-1.4-2.2-3.7-3-6.8-2.6     c-3.6,0.5-5.9,1.8-6.8,3.9c-0.9,2.1-1.3,7.4-1.3,15.9C165.2,110,165.2,113.2,165.2,119.6z M182.2,138c-8.6,6.9-13.6,12-14.9,15.8     c-1.4,3.8-2.1,9.2-2.1,16.1c0,7.9,0.6,12.9,1.8,15.1s3.6,3,7.1,2.5c3.4-0.5,5.6-1.8,6.6-3.7c1-2,1.5-6.8,1.5-14.4     C182.2,158.9,182.2,148.5,182.2,138z"/>
			<path class="st6" d="M343.9,57.1c-5.1,37.5-10.2,75-15.3,112.6c-1.7,12.2-3.2,24.6-6.1,36.5c-1.6,6.5-4.4,12.1-8.2,16.5     c-3.8,4.4-9.2,7.8-15.9,9.2c-10.4,2.3-22,0.5-32.5-1.4c-10.9-1.8-21.5-3.2-32.5-4.2c0-9.7,0-14.6,0-24.3     c8.3,0.4,13.7,0.8,16.1,0.5c2.4-0.4,3.6-1.8,3.6-4.4c0-1.2-1.1-6.7-3.3-16.4c-9.6-43-19.4-85.9-29.4-128.7     c16.4-0.8,32.6,1.7,48.7,4.6c5.9,35.2,11.7,70.3,17.6,105.5c2.9-33.9,5.7-67.9,8.6-101.8C311.6,62.2,327.8,60.1,343.9,57.1z"/>
			<path class="st6" d="M461.6,213.6c-18.1-0.7-35.5-3.8-53.4-6.7c0-18.7,0-37.4,0-56.1c-7.7-1.2-11.6-1.7-19.3-2     c0,18.7,0,37.4,0,56.1c-18.2,0-35.4,2.7-53.3,5.8c0-50.7,0-101.4,0-152.2c17.9-3,35.1-5.8,53.3-5.8c0,18.2,0,36.5,0,54.7     c7.7,0.4,11.6,0.9,19.3,2c0-18.2,0-36.5,0-54.7c17.9,2.9,35.3,6,53.4,6.7C461.6,112.2,461.6,162.9,461.6,213.6z"/>
			<path class="st6" d="M593.1,241.1c-12-1.8-23.9-4.1-35.9-5.7c0-9.8,0-19.6,0-29.4c-30.9-2.8-59.8,4.6-90.3,7.4     c0,9.8,0,19.6,0,29.4c-12,0.6-24-0.8-35.9-2.8c0-21.9,0-43.8,0-65.7c4.6,0.7,6.9,1.1,11.4,1.7c9-11.6,13.7-27.1,16.8-41.1     c4.9-22.1,6.3-45.2,6.6-67.9c0-2.2,0-3.4,0-5.6c40.7-3.5,74.8-10.5,115.8-3.6c0,38.5,0,77.1,0,115.6c4.6,0.8,6.9,1.2,11.4,1.8     C593.1,197.2,593.1,219.2,593.1,241.1z M528.4,168.6c0-27.1,0-54.2,0-81.3c-5.6,0.4-8.4,0.8-14,1.6c0,0.6,0,1,0,1.6     c-0.8,28.9-5.9,55.2-15.9,82.3C508.4,171,518.4,169.4,528.4,168.6z"/>
			<path class="st6" d="M10,25.8c18.8-2.5,37.4-6.1,56.3-7.8c11.9-0.6,24.1,1.2,35.1,5.7c8.2,3.3,14.3,7.5,18.5,12s6.9,9.7,8.4,15.4     c1.5,5.7,2.2,14.4,2.2,26c0,6.5,0,9.7,0,16.2c0,11.9-1.4,20.3-4.3,25.3c-2.8,5-8.1,8.4-15.6,9.9c-9.6,2-19.9,0.9-29.7,0.4     c-6-0.4-9-0.4-15-0.1c0,24.9,0,49.8,0,74.8c-18.8,1.8-37.2,5.3-55.9,7.8C10,149.5,10,87.7,10,25.8z M66,49.7     c0,15.7,0,31.5,0,47.2c1.6,0,3,0,4.1,0c5.1-0.1,8.7-1,10.7-3c2-2.1,3-6.5,3-13.4c0-6.1,0-9.2,0-15.3c0-6.3-1.2-10.6-3.5-12.6     C78,50.6,73.2,49.3,66,49.7z"/>
			<path class="st6" d="M721.8,176.6c0,10.3,0,20.6,0,30.9c-35.5-4.8-67.6,3.7-102.9,6.2c0-10.3,0-15.5,0-25.9     c19.2-31.4,39.4-64,54.3-96.8c3.8-8.4,8.5-18.2,8.6-27.8c0.1-4.9-0.9-8.5-2.6-10.8c-1.7-2.2-4.4-3.2-7.9-2.7     c-3.6,0.5-6.2,2.3-7.9,5.2c-1.7,3-2.6,8.5-2.6,16.4c0,6.9,0,10.3,0,17.2c-14,2.4-27.7,4.5-41.9,5.4c0-2.6,0-4,0-6.6     c0-10.1,0.5-18.2,1.6-24.1c1.1-5.9,3.7-11.8,8-17.8c4.2-6.1,9.8-11,16.5-15c6.8-4,14.9-7,24.4-8.4c14.9-2.2,31.7,1,42.2,12.5     c8.9,9.7,14.2,22.8,14.3,36c0.1,11.2-3.5,22-8,31.6c-11.8,25-31.8,49.2-47.4,73.5C688.2,173.8,704.2,174.2,721.8,176.6z"/>
		</g>
		
		
		
		
		
		
		
		
	</g>
</g>
</svg>