<?xml version="1.0" encoding="utf-8"?>
<!-- Generator: Adobe Illustrator 23.1.0, SVG Export Plug-In . SVG Version: 6.00 Build 0)  -->
<svg version="1.1" id="Слой_1" xmlns="http://www.w3.org/2000/svg" xmlns:xlink="http://www.w3.org/1999/xlink" x="0px" y="0px"
	 viewBox="0 0 1255.9 644" style="enable-background:new 0 0 1255.9 644;" xml:space="preserve">
<style type="text/css">
	.st0{fill:#666666;}
	.st1{fill-rule:evenodd;clip-rule:evenodd;fill:url(#SVGID_1_);}
	.st2{fill-rule:evenodd;clip-rule:evenodd;fill:url(#SVGID_2_);}
	.st3{fill-rule:evenodd;clip-rule:evenodd;fill:url(#SVGID_3_);}
	.st4{fill-rule:evenodd;clip-rule:evenodd;fill:url(#SVGID_4_);}
	.st5{fill-rule:evenodd;clip-rule:evenodd;fill:url(#SVGID_5_);}
</style>
<g>
	<g transform="translate(-1.2, -0.5)">
		<path class="st0" d="M69.4,270.4l25.1,17.3c63.8,2,127.7,24.8,191.5,68.4c63.5,43.3,66.4,66.1,8.8,68.4l29.6,20.2h-42l-29.6-20.2
			c-63.5-2-127-24.8-190.9-68.4s-67.1-66.4-9.4-68.4l-25.1-17.3C27.4,270.4,69.4,270.4,69.4,270.4z M209.8,394.8L95.8,317
			c-32.9,0-30.3,13,7.8,39.1C141.4,382.1,176.5,394.8,209.8,394.8z M137.8,317.3l114,77.8c33.2,0,30.6-13-7.8-39.4
			C206.5,330,171,317.3,137.8,317.3z"/>
		<path class="st0" d="M449.5,444.6l-255-174.3h40.1l170,116l-85.3-116h42.3l255,174.3h-40.1L410.4,330.9l81.8,113.7L449.5,444.6
			L449.5,444.6z"/>
		<path class="st0" d="M659.6,444.6l-255-174.3h42l100.3,68.4H630l-100.3-68.4h42l255,174.3h-42l-111.4-76.2h-83.1l111.4,76.2
			L659.6,444.6L659.6,444.6z"/>
		<path class="st0" d="M1058.9,444.6h-45.6l-76.2-39.4h-83.7l40.4,39.4h-45L675.2,270.4h44.6L1058.9,444.6z M880.4,375.6L757,311.1
			l66.4,64.5H880.4z"/>
		<path class="st0" d="M1200.3,444.6L988.6,300h-62.5l109.1,74.3c28.3,19.5,48.5,33.9,60.6,43c12.1,9.4,18.2,16.3,18.6,21.2
			c0.7,4.9-6.5,7.2-21.2,7.2c-4.2,0-13.7-0.3-28.3-1.3l-40.1-27.4h9.1c9.1,0,13.4-1,13.4-2.9c0-2-5.9-7.2-17.6-15L841.4,270.4h146.9
			l255,174.3C1243.3,444.6,1200.3,444.6,1200.3,444.6z"/>
	</g>
	<g>
		
			<linearGradient id="SVGID_1_" gradientUnits="userSpaceOnUse" x1="-14135.3906" y1="-1121.9039" x2="72633.8906" y2="-1121.9039" gradientTransform="matrix(4.270000e-02 0 0 7.670000e-02 671.5012 401.6)">
			<stop  offset="0" style="stop-color:#AA04A7"/>
			<stop  offset="7.000000e-02" style="stop-color:#E92153"/>
			<stop  offset="0.14" style="stop-color:#F16412"/>
			<stop  offset="0.21" style="stop-color:#F7F658"/>
			<stop  offset="0.28" style="stop-color:#329941"/>
			<stop  offset="0.35" style="stop-color:#0B2BE0"/>
			<stop  offset="0.42" style="stop-color:#A104AD"/>
			<stop  offset="0.49" style="stop-color:#AA04A7"/>
			<stop  offset="0.56" style="stop-color:#E92153"/>
			<stop  offset="0.63" style="stop-color:#F16412"/>
			<stop  offset="0.7" style="stop-color:#F7F658"/>
			<stop  offset="0.77" style="stop-color:#329941"/>
			<stop  offset="0.84" style="stop-color:#0B2BE0"/>
			<stop  offset="0.91" style="stop-color:#A104AD"/>
			<stop  offset="1" style="stop-color:#AA04A7"/>
		</linearGradient>
		<path class="st1" d="M322.2,186.2v25.4c60.9,2.9,91.5,37.1,91.5,102s-30.6,98.7-91.5,101.6v30h-42.3v-30
			c-60.6-2.9-90.9-36.8-90.9-101.6c0-65.1,30.3-99,90.9-102v-25.7h42.3V186.2z M279.9,371.5v-116c-33.2,0-49.5,19.5-49.5,58.3
			C230.4,352.3,247,371.5,279.9,371.5z M322.2,255.5v116c33.2,0,49.8-19.5,49.8-58.6C372.1,274.7,355.5,255.5,322.2,255.5z"/>
		
			<linearGradient id="SVGID_2_" gradientUnits="userSpaceOnUse" x1="-14135.3906" y1="-1117.9923" x2="72633.8906" y2="-1117.9923" gradientTransform="matrix(4.270000e-02 0 0 7.670000e-02 671.5012 401.6)">
			<stop  offset="0" style="stop-color:#AA04A7"/>
			<stop  offset="7.000000e-02" style="stop-color:#E92153"/>
			<stop  offset="0.14" style="stop-color:#F16412"/>
			<stop  offset="0.21" style="stop-color:#F7F658"/>
			<stop  offset="0.28" style="stop-color:#329941"/>
			<stop  offset="0.35" style="stop-color:#0B2BE0"/>
			<stop  offset="0.42" style="stop-color:#A104AD"/>
			<stop  offset="0.49" style="stop-color:#AA04A7"/>
			<stop  offset="0.56" style="stop-color:#E92153"/>
			<stop  offset="0.63" style="stop-color:#F16412"/>
			<stop  offset="0.7" style="stop-color:#F7F658"/>
			<stop  offset="0.77" style="stop-color:#329941"/>
			<stop  offset="0.84" style="stop-color:#0B2BE0"/>
			<stop  offset="0.91" style="stop-color:#A104AD"/>
			<stop  offset="1" style="stop-color:#AA04A7"/>
		</linearGradient>
		<path class="st2" d="M447.3,445.4V186.2h40.4v173l84.7-173h42.3v259.3h-40.4V276.4l-84.7,169.1h-42.3V445.4z"/>
		
			<linearGradient id="SVGID_3_" gradientUnits="userSpaceOnUse" x1="-14135.3906" y1="-1117.9923" x2="72633.8906" y2="-1117.9923" gradientTransform="matrix(4.270000e-02 0 0 7.670000e-02 671.5012 401.6)">
			<stop  offset="0" style="stop-color:#AA04A7"/>
			<stop  offset="7.000000e-02" style="stop-color:#E92153"/>
			<stop  offset="0.14" style="stop-color:#F16412"/>
			<stop  offset="0.21" style="stop-color:#F7F658"/>
			<stop  offset="0.28" style="stop-color:#329941"/>
			<stop  offset="0.35" style="stop-color:#0B2BE0"/>
			<stop  offset="0.42" style="stop-color:#A104AD"/>
			<stop  offset="0.49" style="stop-color:#AA04A7"/>
			<stop  offset="0.56" style="stop-color:#E92153"/>
			<stop  offset="0.63" style="stop-color:#F16412"/>
			<stop  offset="0.7" style="stop-color:#F7F658"/>
			<stop  offset="0.77" style="stop-color:#329941"/>
			<stop  offset="0.84" style="stop-color:#0B2BE0"/>
			<stop  offset="0.91" style="stop-color:#A104AD"/>
			<stop  offset="1" style="stop-color:#AA04A7"/>
		</linearGradient>
		<path class="st3" d="M657.8,445.4V186.2h42v102h83.1v-102h42v259.3h-42V332.1h-83.1v113.4h-42V445.4z"/>
		
			<linearGradient id="SVGID_4_" gradientUnits="userSpaceOnUse" x1="-14135.3906" y1="-1119.2961" x2="72633.8906" y2="-1119.2961" gradientTransform="matrix(4.270000e-02 0 0 7.670000e-02 671.5012 401.6)">
			<stop  offset="0" style="stop-color:#AA04A7"/>
			<stop  offset="7.000000e-02" style="stop-color:#E92153"/>
			<stop  offset="0.14" style="stop-color:#F16412"/>
			<stop  offset="0.21" style="stop-color:#F7F658"/>
			<stop  offset="0.28" style="stop-color:#329941"/>
			<stop  offset="0.35" style="stop-color:#0B2BE0"/>
			<stop  offset="0.42" style="stop-color:#A104AD"/>
			<stop  offset="0.49" style="stop-color:#AA04A7"/>
			<stop  offset="0.56" style="stop-color:#E92153"/>
			<stop  offset="0.63" style="stop-color:#F16412"/>
			<stop  offset="0.7" style="stop-color:#F7F658"/>
			<stop  offset="0.77" style="stop-color:#329941"/>
			<stop  offset="0.84" style="stop-color:#0B2BE0"/>
			<stop  offset="0.91" style="stop-color:#A104AD"/>
			<stop  offset="1" style="stop-color:#AA04A7"/>
		</linearGradient>
		<path class="st4" d="M1057.7,445.4h-45.9l-18.2-58.6h-83.7l-17.3,58.6h-45L929,186.1h44.6L1057.7,445.4z M979.9,342.8l-29-96.4
			l-28.3,96.4H979.9z"/>
		
			<linearGradient id="SVGID_5_" gradientUnits="userSpaceOnUse" x1="-14135.3906" y1="-1108.2137" x2="72633.8906" y2="-1108.2137" gradientTransform="matrix(4.270000e-02 0 0 7.670000e-02 671.5012 401.6)">
			<stop  offset="0" style="stop-color:#AA04A7"/>
			<stop  offset="7.000000e-02" style="stop-color:#E92153"/>
			<stop  offset="0.14" style="stop-color:#F16412"/>
			<stop  offset="0.21" style="stop-color:#F7F658"/>
			<stop  offset="0.28" style="stop-color:#329941"/>
			<stop  offset="0.35" style="stop-color:#0B2BE0"/>
			<stop  offset="0.42" style="stop-color:#A104AD"/>
			<stop  offset="0.49" style="stop-color:#AA04A7"/>
			<stop  offset="0.56" style="stop-color:#E92153"/>
			<stop  offset="0.63" style="stop-color:#F16412"/>
			<stop  offset="0.7" style="stop-color:#F7F658"/>
			<stop  offset="0.77" style="stop-color:#329941"/>
			<stop  offset="0.84" style="stop-color:#0B2BE0"/>
			<stop  offset="0.91" style="stop-color:#A104AD"/>
			<stop  offset="1" style="stop-color:#AA04A7"/>
		</linearGradient>
		<path class="st5" d="M1199.4,445.4V229.8h-62.9v110.7c0,29-1,50.2-2.6,64.2s-5.9,24.4-12.4,31.6s-17.3,10.7-31.9,10.7
			c-4.2,0-13-0.7-26.7-1.6v-41h9.1c9.1,0,15-1.6,17.9-4.6s4.2-10.4,4.2-22.5V186.2H1241v259.3h-41.6V445.4z"/>
	</g>
</g>
</svg>
