<svg id="Layer_1" data-name="Layer 1" xmlns="http://www.w3.org/2000/svg" viewBox="0 0 1080 1080"><defs><style>.cls-1{fill:#5c4238;}.cls-2{fill:#42322a;}.cls-3{fill:#8a634e;}.cls-4{fill:#9299a0;}.cls-5{fill:#b8c6d7;}.cls-6{fill:#f7cd77;}.cls-7{fill:#392c26;}.cls-8{fill:#ebebe2;}</style></defs><path class="cls-1" d="M912.66431,214.90507c-13.53453-7.81572-21.73147-11.62826-24.59088-11.62826-3.43129,0-49.37238,3.05-138.20457,8.95949q-145.25779,9.722-187.00509,11.8189-67.196,3.43131-229.51491,20.58769c-116.47309,12.39076-184.33631,21.35025-203.399,27.45028-17.34707,5.33753-27.64092,15.25016-31.07221,29.54718a38.7775,38.7775,0,0,0,0,19.8252L184.46918,899.256l134.77326,71.10388,142.39837-19.25333q154.40787-20.87365,212.73974-28.78467,58.33186-8.00634,203.399-32.02534c48.22864-8.00634,92.83534-15.63142,133.4389-22.30336q7.43446-135.24987,12.96261-273.35911,11.43762-276.50442,2.28755-292.80309-9.722-17.72835-70.15074-58.90373c-15.822-11.0564-30.30968-20.39711-43.65357-28.02219"/><path class="cls-2" d="M114.70029,293.63405c2.09691-3.43126,5.90945-6.29066,11.05638-8.95949,2.66876-1.14377,5.14692-2.09691,7.24383-2.8594a46.5155,46.5155,0,0,0-19.8252,5.71881c-12.58139,7.05322-17.34707,18.10956-14.297,33.55036Q103.45334,343.95957,144.24751,623.8q20.58771,139.8249,40.03167,275.07477l134.77325,71.2945L253.28612,387.4225q-40.60359-19.72987-108.848-56.235c-26.68778-14.297-36.60038-26.87842-29.7378-37.55349"/><path class="cls-3" d="M194.1413,336.25137c-24.97215-12.58138-41.36606-21.35023-48.80053-26.49715-7.62508-5.14693-12.96264-10.48449-16.01266-16.2033l-2.28751-7.0532-18.30021,19.444L253.42628,387.53l19.82519-31.45345a146.80258,146.80258,0,0,1-14.67827,2.47815c-10.48449,1.14376-17.72832.7625-21.92211-1.14377-15.44077-7.62508-29.54715-14.67827-42.50979-21.15959"/><path d="M687.36029,322.817l92.07285-8.19693Q858.92456,307.47159,894,304.5169c38.50668-3.24068,68.24444-4.95631,89.02283-5.52817h.19064c4.19382,0,9.34071,1.90627,15.05952,5.90945,6.86259,4.76567,11.247,10.67512,13.15325,17.5377l1.14378,4.3844c1.33441,4.76568,2.09691,7.62508,2.28754,8.95949L994.651,849.71006q-74.34453,16.58454-291.85,51.46929-247.05258,39.74573-374.9633,51.65992l-61.3819-546.337c-1.525-10.67513,0-19.0627,4.38442-25.16276,6.10007-8.00633,18.3002-13.53453,36.791-16.39391q67.482-10.29387,192.152-23.82837,100.937-10.57983,187.577-18.30021M879.131,219.49719c7.43444,0,13.34389,1.33441,17.34707,3.81254,4.575,2.8594,12.772,8.00635,24.59087,15.25016,11.247,7.05322,22.11274,14.48766,32.78786,22.11274l15.4408,11.247c-21.54082.95314-50.32551,2.85941-86.354,5.90945-23.25651,1.90627-58.71309,4.95631-105.98862,9.34071-49.75366,4.575-80.44459,7.2438-91.88221,8.19694q-86.9259,7.43446-188.53011,18.3002-124.956,13.43925-193.10516,24.019-40.88949,6.29073-56.04434,29.16594c-7.8157,11.62825-10.48448,26.11589-8.00633,43.27232l57.18807,535.09a97.15711,97.15711,0,0,1-13.91577-5.71881c-12.20013-5.90944-24.59089-12.39076-36.98164-19.444-14.1064-8.00633-26.1159-15.44079-36.60039-22.494a28.00939,28.00939,0,0,1-7.62507-8.00634,23.86414,23.86414,0,0,1-4.1938-10.10323L116.05117,324.914c-1.14376-10.86576.95313-19.444,6.48132-25.73464,5.14692-5.71881,13.15327-9.91263,24.20963-12.39076q86.354-16.29864,368.10076-41.55666,271.64343-24.305,364.28816-25.7347m61.95377-11.247c-12.20011-7.43444-20.58769-12.772-25.544-15.822-10.10321-6.29067-22.30339-9.34071-36.40977-9.34071q-187.291,10.00791-356.85375,24.019-250.19793,20.58775-385.63843,44.03485c-18.49081,3.43126-33.35972,11.8189-44.4161,24.97215-11.62824,13.72516-16.20329,29.54718-13.72513,47.08489L167.71106,911.664q35.17068,24.305,70.34137,44.03484,35.45663,19.72989,75.48829,37.17226,125.81383-14.01126,404.70114-58.71324,243.33539-39.17385,311.48451-52.9943l21.9221-554.91521c.7625-20.969-7.2438-39.45982-23.82837-55.28183-5.71881-5.52817-14.10639-12.00948-24.97215-19.8252-15.05952-10.67512-24.20965-17.34707-27.64092-20.01584-11.05634-7.81571-22.30332-15.44079-34.12222-22.87524"/><path d="M929.74829,229.08814c-2.47816,0-5.14692,0-7.81572.19064V225.2756q-78.06177.57192-355.32872,24.59087Q300.39324,272.74171,224.619,283.98869l-1.71563.19064c-19.0627,2.85941-32.21595,4.95631-39.45979,6.67195-11.62826,2.66876-20.39708,5.71881-26.49714,9.53135a30.39411,30.39411,0,0,0-13.72514,17.15643c-2.47815,7.43444-3.05,17.34706-1.71563,29.92846,1.14378,10.48448,12.5814,97.79166,33.93161,261.34963q33.16913,254.487,41.17545,311.10326l7.24383-.95313c.19064,1.71564.38125,3.24066.57189,4.76567l8.57821-1.14376q-8.00634-58.90374-40.9848-310.91266Q159.71059,364.338,158.09026,350.32687c-1.14377-10.48449-.95313-18.87207.95314-24.97215A25.31281,25.31281,0,0,1,170.481,310.86705c5.14692-3.24068,13.15325-5.90945,23.82837-8.19694q10.29388-2.28749,37.74416-6.29066l1.71563-.19064q75.77423-11.15166,341.413-34.12222,276.79043-24.019,354.75687-24.40024Z"/><path d="M155.67426,370.51439l-.38127-2.66877-32.40659,46.513L25.66663,545.12874l38.69728,54.71L36.723,699.346,206.19042,803.42832l-2.09691-18.49084,1.14378,1.525L165.96811,455.15274l-9.91263-84.829Z"/><path class="cls-4" d="M186.02882,751.34684l-6.47-25.10492L96.352,607.32783,76.04185,682.05217Z"/><path class="cls-5" d="M152.61429,421.96558,70.83529,543.395,186.73651,710.003Z"/><path d="M241.26578,318.092c7.05322,5.52818,11.05634,8.00633,12.39075,7.81572q3.43132-.57188,128.292-16.39392a6.51916,6.51916,0,0,0,6.10009-5.33756c.7625-3.05-.38128-5.71881-3.24068-7.62508l-20.01584-20.01583a8.81281,8.81281,0,0,0-6.10009-1.71565l-134.01076,14.297a6.98577,6.98577,0,0,0-6.29066,4.95629c-.95314,2.85941.19064,5.52819,2.66876,7.62508C225.825,305.5106,232.497,310.84815,241.26578,318.092Zm649.8475-86.354a11.97632,11.97632,0,0,0-7.24381-2.09689l-129.62636,5.90943c-3.24068.19062-4.95625,1.525-5.33753,4.00316s.95313,4.76568,3.622,6.672q16.87056,12.0095,22.87524,16.01267,12.86732,8.86414,14.297,8.57822c.57186-.19063,17.347-1.33439,50.32558-3.62192,35.45657-2.66878,58.52251-4.38443,69.57885-5.52819,3.24069-.38124,4.76568-1.71564,4.95626-4.38442.19058-2.47816-1.14372-4.76568-4.00312-6.67195Z"/><path class="cls-6" d="M243.744,296.16987l19.63456,14.297,101.60417-12.772-18.49084-14.48764Zm649.08489-45.75048L876.0537,236.50362l-92.07282,5.90943,23.25651,15.05954Z"/><path d="M304.7446,276.34466l23.4471,18.49082c.38128.38124,2.85941,2.09689,7.2438,5.14692,4.19382,2.8594,9.722,6.86257,16.58458,12.20013l72.6289-8.00633c-23.82838-20.77835-42.31922-36.60039-55.28183-47.65675a68.95864,68.95864,0,0,0-1.525-18.10956,74.60515,74.60515,0,0,0-7.81572-22.30336c-3.43126-6.10006-6.86258-8.95946-9.91262-8.57821l-90.35719,7.8157c-3.24068.38125-5.33753,3.62192-6.29067,10.10324a68.02474,68.02474,0,0,0,.95314,22.87524,74.60508,74.60508,0,0,0,7.81572,22.30335c3.43126,6.10006,6.86258,8.95946,9.91262,8.57822ZM743.94921,237.0755l35.83785,35.45662c28.59405-3.43129,56.99752-6.48132,85.0196-9.1501-23.6378-20.969-41.74736-35.83788-54.13812-44.988a65.86958,65.86958,0,0,0-1.14371-16.77518c-1.525-8.38759-3.81254-15.44079-7.24381-21.35023-3.24068-5.71881-6.48136-8.57821-9.72193-8.197l-90.54782,6.29069c-3.24069.38126-5.33754,3.43129-6.48137,9.53135a60.026,60.026,0,0,0,.38128,21.73148c1.525,8.38759,3.81254,15.44078,7.2438,21.35021,3.24068,5.71881,6.48137,8.57822,9.72193,8.197Z"/><path class="cls-6" d="M315.801,263.00077l29.35654,21.92211,31.07218-4.19379-29.35655-22.11273a9.76506,9.76506,0,0,0,1.525-4.00316,27.61255,27.61255,0,0,0-.19064-11.81887,31.25876,31.25876,0,0,0-4.575-11.43762c-2.09691-3.05-4.00318-4.57505-6.10008-4.38443l-56.80677,5.52817c-2.09691.19063-3.43126,1.90627-4.19382,5.33756s-.57186,7.43446.19064,12.00951a34.95108,34.95108,0,0,0,4.3844,11.43762c2.09691,3.05,4.00318,4.575,6.10009,4.38443Zm439.3953-39.26916,28.78463,22.494,31.07218-3.62192-28.97533-22.494a8.86346,8.86346,0,0,0,1.71569-3.81254,31.65128,31.65128,0,0,0,0-12.00951,33.51719,33.51719,0,0,0-4.19382-11.62824c-2.09685-3.05-4.00312-4.57505-6.10009-4.38442l-56.80682,4.19381c-2.09685.19062-3.43126,1.90627-4.3844,5.33756a31.65128,31.65128,0,0,0,0,12.00951,33.51719,33.51719,0,0,0,4.19382,11.62824c2.09685,3.24066,4.00312,4.57505,6.10009,4.38443Z"/><path d="M637.55627,175.94776c9.15011,2.8594,14.297,7.8157,16.01266,15.05953,1.525,7.24383,1.525,21.92211-.19064,43.84421-.95313,11.05636-1.90627,21.1596-3.05,30.69095h60.61939A401.55053,401.55053,0,0,0,726.57908,221.317c10.10321-33.9316,14.297-61.76315,12.772-83.49462-.7625-9.722-4.95631-18.87208-12.96261-27.64092-8.19694-9.15009-19.8252-16.77517-34.88475-23.06586-34.5035-14.67828-80.06334-19.444-136.48892-14.67828C496.1111,77.3936,454.745,86.925,430.34477,101.03135c-22.11279,12.772-34.69417,32.78784-37.17232,59.85687-2.0969,21.73148,4.575,50.89741,19.63458,87.11655a415.85255,415.85255,0,0,0,23.44713,47.84738l66.71947-14.48765c-1.90627-8.00634-3.81254-17.15643-5.90945-27.25966-4.00318-20.20646-6.2907-35.45663-6.672-45.75048-.57188-12.20013,4.95632-20.58772,16.77519-25.544,11.05637-4.57505,32.78783-8.00633,65.00379-9.9126,31.0722-2.09691,52.80367-.95315,65.38506,3.05"/><path class="cls-7" d="M675.03827,168.84421c2.66876,9.9126,2.47815,25.16276,0,45.36923-1.33439,10.29385-3.05005,19.444-4.76568,27.64091l30.88157,1.525c2.66877-11.62825,5.14692-24.019,7.62508-36.791,4.95632-25.92528,7.24383-41.93794,7.05319-48.22863-.76249-16.96581-9.53135-30.88158-26.49714-41.36606-25.544-16.2033-67.29133-22.30337-124.86068-18.49083q-87.78373,6.00476-121.62,37.17227c-15.822,14.67828-21.9221,32.216-18.49081,52.80368,2.66878,16.01267,8.00633,34.69412,15.63141,56.04434,3.81254,10.67511,7.43445,19.82521,10.67511,27.25966l35.07537-6.10006c-2.66878-6.29069-5.33756-13.91577-8.197-22.87524-5.71881-17.91894-8.95946-33.35973-9.9126-46.513-1.33438-16.39392,5.33757-28.9753,20.20646-37.93477,16.20331-9.722,42.70045-15.63142,79.68208-17.72831,37.36291-2.0969,64.05069-.95314,80.254,3.62191,14.86891,4.00316,24.019,12.39075,27.25967,24.59088"/><path class="cls-2" d="M477.64326,389.00523c-2.09691-2.47815-5.90945-8.76885-11.62826-18.87206-3.24068-5.71881-5.33753-7.24383-6.29067-4.19379-1.33441,4.19379-.95313,10.10324,1.33442,17.34707a43.14565,43.14565,0,0,0,16.58457,23.44713c10.86576,7.81572,23.63774,9.1501,38.50668,4.00318a64.21232,64.21232,0,0,0,19.0627-9.9126q-24.59091,2.28753-43.46294-4.575a61.81491,61.81491,0,0,1-10.67512-4.95631Zm267.64036-61.95377c-.95314-2.47816-2.66883-.95314-4.76568,4.95631-3.81254,10.29385-6.48136,16.58454-7.81566,19.0627a40.5557,40.5557,0,0,1-11.05634,8.95946c-10.10321,6.2907-21.73152,10.10324-35.07541,11.62826l4.76567,2.28752a42.78381,42.78381,0,0,0,11.6282,3.43129c12.58134,2.09691,22.87524-1.525,31.07218-10.29384a45.93507,45.93507,0,0,0,11.6282-24.019C746.618,336.01092,746.618,330.864,745.28362,327.05146Z"/><path d="M619.1,597.7l.3,1.4a19.70682,19.70682,0,0,1-3.6,10.4c-3.5,5.4-9.5,9.5-18.3,13-4.1,1.9-7.1,3.1-8.5,3.1l-3.5.3-9,2.8-4,.3a28.68658,28.68658,0,0,1-4.5,1.7l-2.2.3-6.4,1.4-4,1.2a3.46333,3.46333,0,0,1-3.1-1.7,17.20444,17.20444,0,0,1-1.4-4l-.5-5.7a45.8086,45.8086,0,0,0-.9-5l2.2-3.1,7.1-1.2a27.54359,27.54359,0,0,0,6.4-1.9h1.2c1.9.5,4.1.5,7.6,0,.9-.3,4.5-1.4,11.2-4l4-1.4,2.8-2.2,4.5-2.2c.5-.3,1.4-1.4,2.8-4l1.2-3.1c1.2-4.5.3-9.5-2.8-14.9a13.94283,13.94283,0,0,0-7.6-6.7,26.0927,26.0927,0,0,0-8.6-1.9c-1.2-.3-2.2-.3-3.5-.5l-11.2,1.9-.5-4-.3-3.6-1.2-4.1-.3-4.1,9.5-2.6a43.17377,43.17377,0,0,0,14.9-8.1,30.20181,30.20181,0,0,1,3.1-3.1c1.7-2.6,1.2-6.7-1.7-12.1a9.07572,9.07572,0,0,0-3.1-4c-.9-.5-1.4-1.4-2.2-2.2-5.7-3.5-11.7-3.6-18.8-1.7-1.7.5-4.5,2.2-8.5,5l-1.4.5a35.99951,35.99951,0,0,0-5.4,1.2l-7.1,2.2-2.8-2.2a39.60684,39.60684,0,0,0-.3-5.7l-.5-5.7a22.70684,22.70684,0,0,1,.3-4.5,3.67917,3.67917,0,0,1,2.6-3.1l4-.9,4.8-1.2a14.84185,14.84185,0,0,0,4.1-1.2h.3c2.8-.9,5.7-1.9,8.6-3.1l13.5-2.6a30.93286,30.93286,0,0,1,10.2.9l9,2.6c5.9,5.7,9.8,9.8,11.7,13.1l1.69995,4c2.80005,5.9,3.6,10.7,2.6,14.3a33.24236,33.24236,0,0,0-3.1,5.4l-3.1,5.7c-3.1,2.8-5,5.4-5.7,7.3a55.13987,55.13987,0,0,0,6.7,4.1,54.5035,54.5035,0,0,1,5,6.4c1.19995,1.9,1.9,4,3.1,5.9,2.2,4.1,3.5,10.4,3.5,18l-.9,6.2Z"/><path d="M555.5,647.4a17.30913,17.30913,0,0,1-14.9-9l-.3-.5a32.30617,32.30617,0,0,1-2.6-7.6l-.3-1.2-.5-5.7c-.3-1.4-.3-2.2-.5-2.8l-1.7-6.4,9.5-13.5,12.4-1.9a13.36265,13.36265,0,0,0,4.1-1.2l1.9-.9,6.2-.3,1.4.5h.5c.5-.3,2.8-1.2,9.8-3.6l2.2-.9,1.9-1.7,2.8-1.4a8.71929,8.71929,0,0,0-1.4-4c-.3-.3-.3-.5-.5-.5a42.08713,42.08713,0,0,0-4.8-1.2h-1.7l-23.3,4.1-3.1-19.3-.3-2.2-1.2-4.5-.5-16.9,19.9-5.4a23.70255,23.70255,0,0,0,7.3-3.6l-.9-.9c-1.4-.5-3.1-.5-5.7.3-.3.3-1.9,1.2-5,3.5l-1.2.9-4.5,2.2-1.9.3a16.48192,16.48192,0,0,0-4,.9l-13.5,4.1-14.3-10.9.3-7.1a15.426,15.426,0,0,0-.3-3.6l-.9-6.7a41.42668,41.42668,0,0,1,.5-7.9v-.5c1.7-6.4,5.9-11.2,11.7-13.1l1.7-.5,3.6-.5,4.5-1.2c1.2-.3,1.9-.5,3.1-.9h.3c2.6-.9,5.4-1.9,8.1-2.8l.9-.3,15.4-2.8a41.79,41.79,0,0,1,15.2,1.4l12.6,3.6,2.6,2.2c7.3,6.7,11.7,12.1,14.7,16.9l.5,1.2,1.69995,4c4,9,5,16.6,3.1,23.7l-.5,2.2-1.19995,1.9c-1.7,2.6-2.2,3.5-2.2,4l-.5.9L620,552.2c1.19995,1.4,2.6,3.1,3.6,4.5l.9,1.2.5,1.2c1.19995,1.9,1.9,4,3.1,5.7l.3.5c3.1,6.2,4.8,14,5,23.8v1.2l-.9,6.2.30005,2.6v1.4a38.6186,38.6186,0,0,1-5.7,16.9c-4.8,7.9-13.1,14-24.7,18.3a48.2188,48.2188,0,0,1-11.7,4.1l-2.8.3-9.3,2.8h-3.1a24.89052,24.89052,0,0,1-4.1,1.4l-1.2.3-2.2.3-4.8,1.2-5,1.7h-1.9A.73522.73522,0,0,0,555.5,647.4Zm15.4-50.3Zm19.7-8.6Zm23.70007-27.8ZM610.6,544.3Zm-30.9-5.4Z"/><path d="M630.5,586.2a19.73559,19.73559,0,0,1,.9-6.2,16.36357,16.36357,0,0,1,2.8-4.8,34.70054,34.70054,0,0,1,4-4.5,83.019,83.019,0,0,1,9-6.2c3.30005-2.1,6.4-3.6,9.80005-5.7a49.97083,49.97083,0,0,1,9.8-5l11.7-4.5a69.93122,69.93122,0,0,0,11.19995-4.8,3.814,3.814,0,0,0,.30005-1.9v-2.6a12.28211,12.28211,0,0,0-1.4-3.6c-.5-.9-1.9-1.7-4-1.9a18.89188,18.89188,0,0,0-5-.9,29.72242,29.72242,0,0,0-5.4-.3,7.71683,7.71683,0,0,0-2.6-.3h-1.69995c-.5,0-.9.3-1.2.3a10.923,10.923,0,0,0-3.6,1.2,16.28211,16.28211,0,0,1-4.1,1.7,3.82928,3.82928,0,0,0-.5,1.9v1.7a8.19346,8.19346,0,0,0-.9,1.7c-.30005.5-.9,1.4-1.4,2.2a14.64791,14.64791,0,0,1-3.5,4.5,30.64555,30.64555,0,0,1-5.7,3.5,15.06275,15.06275,0,0,1-3.5,1.4c-.5,0-1.19995.3-1.69995.3a9.51167,9.51167,0,0,1-5-.9,14.355,14.355,0,0,0-2.2-1.9l-2.19995-2.2a16.80333,16.80333,0,0,1-1.7-4.1,23.79119,23.79119,0,0,1-.5-2.6,13.65891,13.65891,0,0,1,0-3.5,25.6658,25.6658,0,0,1,1.9-4,18.11357,18.11357,0,0,1,2.80005-4,38.18475,38.18475,0,0,1,4.5-4.5l5.4-4.5c1.9-1.4,4-2.8,5.9-4.1a11.65341,11.65341,0,0,1,5.4-3.1,26.73584,26.73584,0,0,1,4.5-1.2,37.03131,37.03131,0,0,1,9.8-1.2c4.5,0,9,0,13.1.3l5,.3a19.83183,19.83183,0,0,1,4.1.5,2.63223,2.63223,0,0,1,1.9,1.4,14.35281,14.35281,0,0,1,1.9,2.2c.9.5,1.4,1.4,2.6,2.2a5.90924,5.90924,0,0,1,1.69995,2.8,22.45485,22.45485,0,0,1,1.4,4.8c.3,1.4.5,2.6.9,4v6.8c0,1.9.3,4,.3,5.9a38.87776,38.87776,0,0,1,.30005,5.9,7.71522,7.71522,0,0,1-.30005,2.6c0,.9-.3,1.7-.3,2.6a39846682539888.26,39846682539888.26,0,0,0,.6001,9c.3,2.6.5,4.8.9,7.1.5,2.2,1.2,4.5,1.7,6.4.3.9.5,1.7.9,2.8a4.54357,4.54357,0,0,0,1.69995,1.7,3.06115,3.06115,0,0,0,2.2-2.2c.3-1,.5-2.2.9-3.5l1.2-3.5a4.77225,4.77225,0,0,1,1.69995-2.6h.30005c.5-.3,1.4,0,2.19995.3,1.2.5,1.9,1.2,3.1,1.7s1.69995,1.2,2.6,1.4a9.82591,9.82591,0,0,0,2.19995.5,1.74318,1.74318,0,0,1,1.7,1.2v.5a7.71522,7.71522,0,0,1-.30005,2.6l-1.19995,2.8c-.30005,1.2-.30005,2.6-.5,3.5a7.91179,7.91179,0,0,1-.9,3.5,17.9837,17.9837,0,0,1-4.1,5.4,20.58928,20.58928,0,0,1-6.4,4.1,13.8322,13.8322,0,0,1-4.5,1.7,8.91746,8.91746,0,0,1-2.8.3,15.21042,15.21042,0,0,1-6.4-1.2,20.64644,20.64644,0,0,1-3.1-1.7c-1.4-.8-2.2-1.4-2.80005-1.4a3.23618,3.23618,0,0,0-1.9,1.7c-.9.9-1.69995,1.7-2.19995,2.2a82.30374,82.30374,0,0,1-9,5.4c-3.5,1.9-7.1,3.5-10.4,5l-3.1,1.4c-1.4.3-2.6.9-4,1.2-.5,0-1.2.3-1.7.3-1.19995.3-1.9.3-2.8.5a19.34478,19.34478,0,0,1-4.1.3,24.28407,24.28407,0,0,1-6.7-1.7,36.50449,36.50449,0,0,1-6.19995-3.5,28.30263,28.30263,0,0,1-3.1-2.6,36.96752,36.96752,0,0,1-2.8-2.8,8.1114,8.1114,0,0,0-1.7-1.9,13.62225,13.62225,0,0,0-1.69995-1.7,15.9739,15.9739,0,0,1-2.2-5.4,33.11008,33.11008,0,0,1-.9-5C630.9,587.3,630.9,586.8,630.5,586.2Zm22.80005-.3c.3.9,1.19995,1.4,2.19995,1.9a9.54784,9.54784,0,0,0,3.6.9,20.22132,20.22132,0,0,0,6.7-1.2l7.6-2.2a22.57248,22.57248,0,0,0,5.4-2.8c1.4-1,3.1-2.2,4.8-3.5a23.24724,23.24724,0,0,1,2.8-1.9,2.62154,2.62154,0,0,0,1.7-1.7,13.31124,13.31124,0,0,0,.5-1.9v-2.6c0-1.7.3-3.5.3-4.8v-.5a13.2766,13.2766,0,0,0-1.2-4h-.3c-1.9,1.2-4,2.2-6.4,4a32.74855,32.74855,0,0,1-8.5,4.5c-2.6.5-4.80005,1.2-7.1,1.4a2.38221,2.38221,0,0,1-1.4.3,14.391,14.391,0,0,0-4.80005,1.7,7.73216,7.73216,0,0,0-2.6,1.7l-1.9,1.9a8.78537,8.78537,0,0,0-1.9,4,16.29027,16.29027,0,0,0-.30005,3.6A1.41055,1.41055,0,0,1,653.30005,585.9Z"/><path d="M656.4,626.7h-1.7a33.74833,33.74833,0,0,1-11.19995-3.1l-.30005-.3c-2.19995-1.2-4.5-2.2-6.69995-3.6l-1.2-.9c-1.4-1.2-3.1-2.2-4.1-3.5-1.2-.9-2.2-2.2-3.6-3.5l-1.2-1.2a4.54968,4.54968,0,0,1-.9-1.2,12.68,12.68,0,0,1-2.19995-2.6l-.9-1.4a40.03072,40.03072,0,0,1-4-9.3,52.49664,52.49664,0,0,1-1.4-7.3l-.3-3.1a31.56845,31.56845,0,0,1,1.7-10.9h0a27.32759,27.32759,0,0,1,5.4-9,34.69988,34.69988,0,0,1,4-4.5h0l-.9-.5-3.5-3.5-.9-1.2a25.3954,25.3954,0,0,1-3.6-7.9v-.5c-.30005-1.4-.5-2.8-.9-4.5a22.86133,22.86133,0,0,1,0-6.4v-1.2l.3-1.2a23.85607,23.85607,0,0,1,3.5-7.3l.30005-.5a37.219,37.219,0,0,1,3.1-4.5l.5-.9a62.38883,62.38883,0,0,1,5.7-5.9l.3-.3,5.9-5a69.662,69.662,0,0,1,6.69995-4.8,38.59509,38.59509,0,0,1,9.5-4.8h.30005a32.93424,32.93424,0,0,1,5.4-1.4,61.64371,61.64371,0,0,1,13-1.4c4.80005,0,9.5,0,14,.3l5,.3a21.805,21.805,0,0,1,7.9,1.4,18.65937,18.65937,0,0,1,7.9,5.4,14.35139,14.35139,0,0,1,1.9,2.2c.3.3.9.9,1.4,1.4a18.849,18.849,0,0,1,5.7,8.5c1.19995,1.2,1.69995,3.1,2.19995,5.4.5,1.9.9,4,1.2,5.9l.3,1.2a16.29761,16.29761,0,0,1,0,5.4v1.7l.30005,5a32.19589,32.19589,0,0,1,0,7.6c0,1.4-.30005,2.8-.30005,4.1v1.7a23.51836,23.51836,0,0,1,4.80005.9l.9.3a26.168,26.168,0,0,1,5,2.8,18.74471,18.74471,0,0,1,10.4,6.7l1.9,2.8.5,4a18.58359,18.58359,0,0,1-1.4,9.5l-.3,1.2v1.2a30.24471,30.24471,0,0,1-1.9,7.6l-.3.5a29.89629,29.89629,0,0,1-7.30005,9.5l-.5.5a77.46573,77.46573,0,0,1-9,5.9,27.56984,27.56984,0,0,1-7.9,2.8,23.5501,23.5501,0,0,1-5.9.5,30.2592,30.2592,0,0,1-10.4-1.7c-2.8,1.9-5.9,3.6-9.3,5.7-3.6,1.9-7.6,3.6-11.2,5.4l-3.5,1.4c-1.4.5-3.1,1.4-5,1.9l-2.8.5c-1.4.3-3.1.5-4.5.9A28.00046,28.00046,0,0,1,656.4,626.7Zm48.1-21.4Z"/><path d="M355,799.6l-.3-3.6a16.68007,16.68007,0,0,0-.5-3.1v-.5a3.44467,3.44467,0,0,1,.3-1.9,16.4771,16.4771,0,0,1,4.5-1.9c.3,0,.5-.3.9-.3l6.2-1.4c.3,0,.5-.3,1.2-.3a18.41634,18.41634,0,0,0,4.8-1.7,2.90808,2.90808,0,0,0,.3-1.4,1.20887,1.20887,0,0,0-.3-.9l-.5-2.6c0-1.2-.3-1.9-.3-3.1s-.3-1.9-.3-3.1l-.5-6.7a38.88558,38.88558,0,0,1-.3-5.9c0-1.9-.3-4.1-.3-6.2l-1.2-11.2c-.3-2.6-.5-5-.9-7.6-.3-1.4-.3-2.6-.5-4a85.28038,85.28038,0,0,1-.9-11.6v-6.7a6.12654,6.12654,0,0,0-.9-3.1,7.30055,7.30055,0,0,0-3.6,0c-.3,0-.3,0-.5.3a37.44462,37.44462,0,0,1-4.5,1.2l-7.9,1.4a10.88357,10.88357,0,0,1-1.2-3.5,17.11507,17.11507,0,0,1-.3-4V703c-.3-1.2-.5-1.9-.9-3.1a2.908,2.908,0,0,1-.3-1.4v-1.7l9.8-2.6a2.65409,2.65409,0,0,1,1.4-.5,2.07771,2.07771,0,0,1,1.2-.5l6.2-1.7c1.9-.9,4-1.7,6.2-2.6,1.2-.3,2.2-.9,3.1-1.2,1.2-.3,2.2-.3,3.5-.5a3.8298,3.8298,0,0,1,.5,1.9v1.8a2.83234,2.83234,0,0,0,.5,1.7,11.183,11.183,0,0,0,4.8-2.6,36.01221,36.01221,0,0,1,4-3.1c.3-.3.9-.5,1.4-.9l2.6-1.4,1.4-.9,1.4-.5,1.4-.3a24.26774,24.26774,0,0,0,2.8-1.4,3.8298,3.8298,0,0,1,1.9-.5c.3,0,.9-.3,1.2-.3a11.21318,11.21318,0,0,1,4.5,0,15.23772,15.23772,0,0,1,4,1.2c1.4.7,2.8,1.2,4,1.7a28.35545,28.35545,0,0,1,3.5,2.2,24.7178,24.7178,0,0,1,3.6,2.6c1.4,1.2,2.6,1.7,3.5,2.6a60.457,60.457,0,0,1,3.5,5,43.42471,43.42471,0,0,1,2.8,6.2l.9,1.9a16.30975,16.30975,0,0,0,.9,1.9l.3,1.7v1.80005c0,.5.3,1.2.3,1.7l.5,1.7a19.34159,19.34159,0,0,1,0,5.9c-.3,1.9-.5,4-.9,6.2v4.1a21.24956,21.24956,0,0,1-.3,4.5c-.3.5-.3,1.2-.9,1.7a5.31531,5.31531,0,0,1-1.2,2.2c-.5,1.9-1.2,4.1-1.7,6.7a24.64756,24.64756,0,0,1-2.2,6.2c-.5.9-1.4,1.9-2.2,3.5a28.03057,28.03057,0,0,1-2.6,3.6c-.9,1.2-1.7,2.2-2.6,3.5a14.37954,14.37954,0,0,1-3.6,3.1c-1.4,1.2-3.5,2.2-5.4,3.5a31.4763,31.4763,0,0,1-5,1.9c-.9,0-1.4.3-1.9.3l-1.2-.3h-1.4l-3.6.3a12.69355,12.69355,0,0,1-3.5-.3c-.9-.3-2.2-.5-3.6-.9a2.7556,2.7556,0,0,0-2.2,0c-.3,0-.5.3-.9.3a5.75247,5.75247,0,0,0-.5,2.8v3.5l.3,3.5a10.62774,10.62774,0,0,0,.3,1.4v1.4a6.27483,6.27483,0,0,0,5.4.5h.5l7.3-1.7h1.4a3.41614,3.41614,0,0,0,1.7-.3,13.22723,13.22723,0,0,0,3.5-1.2c.3-.3.9-.3,1.4-.5a4.04327,4.04327,0,0,1,1.9,0,12.73713,12.73713,0,0,1,1.7,5.4l.9,7.1a11.93144,11.93144,0,0,0,.5,2.6v.5a4.21647,4.21647,0,0,1-.3,1.9c-1.4.3-3.1.9-4.8,1.2-3.1.9-6.4,1.4-9.8,2.6-2.6.5-5,1.4-7.9,1.9-2.6.5-5.4,1.2-7.9,1.7h-2.6a11.93076,11.93076,0,0,0-2.6.5,16.679,16.679,0,0,0-3.1.5c-1.2.3-1.9.5-3.1.9-1.2.3-1.9.5-3.1.9a16.67924,16.67924,0,0,0-3.1.5h-6.1c-.5,0-1.2,0-1.4-.5a3.86352,3.86352,0,0,1-.9-2.8c0-.5-.3-1.2-.3-1.9C355.1,801.2,355,800.5,355,799.6Zm39.5-47.7a23.05986,23.05986,0,0,0,9-.9,17.85739,17.85739,0,0,0,4-1.2,14.54537,14.54537,0,0,0,3.6-2.6c1.4-1.4,2.6-2.6,2.8-3.5a20.21711,20.21711,0,0,0,1.2-3.1c.5-1.4.9-2.6,1.2-3.5,0-.5.3-1.4.3-2.2v-2.2l.5-2.2c0-.9.3-1.4.3-2.2a9.89336,9.89336,0,0,0-.3-3.1c-.3-1.7-.5-3.1-.9-4.8-.5-2.6-1.2-4.8-1.7-7.1a9.55783,9.55783,0,0,0-1.2-3.6,6.05484,6.05484,0,0,0-1.4-2.8c0-.3-.3-.5-.9-.9l-1.4-.9a8.91791,8.91791,0,0,0-3.5-2.2c-1.2-.5-2.6-.9-4-1.4a29.36423,29.36423,0,0,0-5.7-.5,7.15889,7.15889,0,0,0-2.6.3,31.87247,31.87247,0,0,0-3.5,1.4c-1.4.9-2.8,1.7-4.1,2.6a10.90054,10.90054,0,0,0-3.6,3.5c.5,7.1,1.2,14,1.2,20.6,0,6.4.3,13,.9,19.3A18.12785,18.12785,0,0,0,394.5,751.9Z"/><path d="M357.7,821a16.05781,16.05781,0,0,1-10.9-4.1,18.039,18.039,0,0,1-5.4-11.2l-.5-4.8-.3-3.5a1.55825,1.55825,0,0,0-.3-1.2l-.3-1.9a18.28714,18.28714,0,0,1,1.2-9l1.7-4.1,4-2.2a33.49678,33.49678,0,0,1,8.6-3.6l.5-.3-.3-6.2c-.3-2.2-.3-4.5-.5-6.7,0-1.9-.3-4-.3-5.9l-.9-10.9c-.3-2.6-.3-4.8-.5-7.3l-.5-4a50.35278,50.35278,0,0,1-.5-6.7l-11.2,1.9-4.8-8.6a22.986,22.986,0,0,1-2.8-7.6l-.3-1.2a22.70748,22.70748,0,0,1-.3-4.5v-2.5a12.64958,12.64958,0,0,1-.9-4.1,9.44855,9.44855,0,0,1,0-4.1l.9-10.2,18-4.8a14.18926,14.18926,0,0,1,4-1.7l5.4-1.4c1.7-.5,3.5-1.4,5-1.9l1.4-.5a9.9326,9.9326,0,0,0,3.1-1.2l1.4-.5,14-1.9h0l.9-.5,5-1.7a2.65418,2.65418,0,0,1,1.4-.5l.5-.3a24.89061,24.89061,0,0,1,4.1-1.4l2.8-.5a32.09047,32.09047,0,0,1,7.6,0l1.2.3c1.9.3,4,.9,5.9,1.4a29.13619,29.13619,0,0,1,6.4,3.1,43.22207,43.22207,0,0,1,4.8,3.1c.9.5,1.7,1.2,2.8,1.9a39.83429,39.83429,0,0,1,5.9,4.8l.3.3a34.64225,34.64225,0,0,1,5.4,8.1,51.45285,51.45285,0,0,1,3.5,7.6l.9,1.7a21.19046,21.19046,0,0,1,1.4,4l.3.9.5,4.1.9,2.6.3,1.2a32.578,32.578,0,0,1-.3,9.3v.9c-.3,1.2-.3,2.6-.5,3.6v4.1c0,1.9-.3,4-.3,5.9l-.3,1.7-.5,1.4a9.07046,9.07046,0,0,1-1.4,3.1c0,.3-.3.5-.3.9-.5,1.9-1.2,4-1.7,6.2a60.25362,60.25362,0,0,1-3.1,8.5l-.9,1.4a19.24793,19.24793,0,0,1-3.1,4.1c-.5.9-1.4,1.9-1.9,2.8a29.22911,29.22911,0,0,1-4,5,25.0056,25.0056,0,0,1-5.9,5h0a37.58374,37.58374,0,0,1,1.4,6.2l.9,7.1a1.20881,1.20881,0,0,0,.3.9l.3,2.2a18.61832,18.61832,0,0,1-.9,8.1l-2.6,7.3-12.4,2.8c-3.1.5-6.2,1.4-9.3,2.2a56.04237,56.04237,0,0,1-8.1,1.9c-2.8.5-5.7,1.2-8.5,1.7l-1.2.3h-3.6l-1.4.3c-.5,0-1.2.3-1.7.3a5.48774,5.48774,0,0,0-1.7.5l-1.4.3a5.48741,5.48741,0,0,0-1.7.5l-1.4.5-1.4.3c-.5,0-1.2.3-1.7.3a24.1165,24.1165,0,0,1-5,.5H358.8A4.89926,4.89926,0,0,1,357.7,821Zm-1.9-28.3-1.7.3,1.7-.3Zm56.5-.9c0,.4-.3.4,0,0C412,792.2,412.3,792.2,412.3,791.8Zm-15.5-6.4Zm.5-70.3c.3,4.8.5,9.5.5,13.8a81.4354,81.4354,0,0,0,.3,8.6c.5,0,1.4-.3,1.9-.3.3,0,.5-.3,1.2-.3h0c0-.3,0-.3.3-.5l.3-.9a.68963.68963,0,0,1,.3-.5v-3.6l.5-3.1v-1.2a10.79839,10.79839,0,0,0-.5-2.8l-.3-.9a47.49161,47.49161,0,0,0-1.4-5.7l-.3-1.4v-.5a6.0062,6.0062,0,0,1-1.4-.5c.3-.2-.2-.2-1.4-.2Zm-4.2,22.1Zm9-1.9Zm.4-.5Zm-38.9-43.5Z"/><path d="M442,731.4a16.63232,16.63232,0,0,1,.9-5.7,9.90625,9.90625,0,0,1,2.6-4.1,34.23155,34.23155,0,0,1,3.6-4,48.00507,48.00507,0,0,1,8.1-5.7c3.1-1.7,5.9-3.5,9-5a36.093,36.093,0,0,1,9-4.5l10.4-3.6c3.5-1.2,6.7-2.6,10.2-4.1a3.41614,3.41614,0,0,0,.3-1.7v-2.6a8.50325,8.50325,0,0,0-1.2-3.5,5.04766,5.04766,0,0,0-3.5-1.7c-1.4-.3-3.1-.5-4.5-.9a24.24951,24.24951,0,0,0-4.8-.3,2.79865,2.79865,0,0,0-2.2,0h-1.7c-.3,0-.9.3-1.2.3a13.22783,13.22783,0,0,0-3.5,1.2,36.65155,36.65155,0,0,1-3.6,1.4,3.68641,3.68641,0,0,0-.5,1.7v1.7c-.3.3-.5.9-.9,1.4a11.545,11.545,0,0,1-1.4,1.9,13.39887,13.39887,0,0,1-3.1,4.1,14.78762,14.78762,0,0,1-5,3.1,19.77924,19.77924,0,0,1-3.1,1.2c-.5,0-1.2.3-1.7.3a8.11338,8.11338,0,0,1-4.5-.9,16.24025,16.24025,0,0,0-1.9-1.7l-2.2-1.9a8.70894,8.70894,0,0,1-1.4-3.6,5.8326,5.8326,0,0,1-.3-2.2v-3.1c.3-.9.9-1.9,1.7-3.6a18.65375,18.65375,0,0,1,2.6-3.6,51.37733,51.37733,0,0,1,4-4.1l4-4.5a31.71849,31.71849,0,0,1,5.4-3.6,16.818,16.818,0,0,1,5.7-2.8c1.4-.3,2.6-.9,4-1.2a55.53754,55.53754,0,0,1,9-1.2c4.1,0,8.1,0,11.7.3l4.5.3a13.30707,13.30707,0,0,1,3.6.5,4.50334,4.50334,0,0,1,1.9,1.4c.5.5,1.2,1.4,1.7,1.9a14.35331,14.35331,0,0,0,2.2,1.9,4.03353,4.03353,0,0,1,1.7,2.2c.5,1.4.9,2.8,1.4,4.5a31.52466,31.52466,0,0,0,.9,3.6v6.4c0,1.7.3,3.6.3,5.4a16.30089,16.30089,0,0,1,0,5.4,5.34449,5.34449,0,0,1-.3,2.2,6.36787,6.36787,0,0,0-.3,2.2,1613517.65363,1613517.65363,0,0,0,.6,8c.3,2.2.5,4.1.9,6.2.5,1.9,1.2,4,1.7,5.9a26.70517,26.70517,0,0,0,.9,2.6,5.45116,5.45116,0,0,0,1.7,1.7,3.8309,3.8309,0,0,0,2.2-1.9c.3-.9.5-1.9.9-2.8l.9-3.1c.3-1.2.5-1.9,1.4-2.2h.3a2.18976,2.18976,0,0,1,1.9.3,10.4732,10.4732,0,0,1,2.8,1.4c.9.5,1.7.9,2.2,1.2a4.48591,4.48591,0,0,0,1.9.5,1.50828,1.50828,0,0,1,1.4.9v.5a5.34449,5.34449,0,0,1-.3,2.2l-.9,2.6c-.3,1.2-.3,2.2-.5,3.1a4.47,4.47,0,0,1-.9,2.8,13.89883,13.89883,0,0,1-4,4.8,21.14972,21.14972,0,0,1-5.7,3.6,13.30413,13.30413,0,0,1-4,1.7,7.717,7.717,0,0,1-2.6.3,20.12569,20.12569,0,0,1-5.9-.9c-.5-.3-1.7-.9-2.8-1.4a4.41015,4.41015,0,0,0-2.6-1.2,4.13524,4.13524,0,0,0-2.2,1.4,9.3189,9.3189,0,0,1-2.2,1.9,46.97224,46.97224,0,0,1-8.1,5c-3.1,1.5-6.2,3.1-9.5,4.5l-2.8,1.2c-1.2.5-2.2.9-3.5,1.4a10.628,10.628,0,0,0-1.4.3,23.8197,23.8197,0,0,1-2.6.5,17.11507,17.11507,0,0,1-4,.3,27.18044,27.18044,0,0,1-6.2-1.7c-1.7-.9-3.6-1.9-5.7-2.8-1.2-.9-1.9-1.4-2.8-2.2a9.10662,9.10662,0,0,1-2.6-2.6,6.99578,6.99578,0,0,1-1.4-1.7,6.99578,6.99578,0,0,1-1.4-1.7,13.35723,13.35723,0,0,1-1.9-4.8c-.3-1.4-.5-3.1-.9-4.8A19.73977,19.73977,0,0,0,442,731.4Zm20.2-.2a5.277,5.277,0,0,0,1.9,1.7,8.6455,8.6455,0,0,0,3.5.9,27.86985,27.86985,0,0,0,6.2-.9l6.7-1.9a29.6475,29.6475,0,0,0,4.8-2.6,48.51569,48.51569,0,0,1,4.1-2.8,29.34972,29.34972,0,0,0,2.6-1.7,10.48019,10.48019,0,0,0,1.7-1.4,3.81465,3.81465,0,0,0,.3-1.9v-2.4c0-1.7.3-3.1.3-4.5v-.5a10.92275,10.92275,0,0,0-1.2-3.6h-.5c-1.7.9-3.6,2.2-5.7,3.6a34.17061,34.17061,0,0,1-7.6,4c-2.2.5-4.1.9-6.2,1.4-.3,0-.9.3-1.2.3a28.27412,28.27412,0,0,0-4.1,1.4,10.23074,10.23074,0,0,0-2.2,1.4l-1.7,1.7a16.31877,16.31877,0,0,0-1.7,3.5,13.434,13.434,0,0,0-.3,3.5C462.2,730.3,462.2,730.5,462.2,731.2Z"/><path d="M465.3,769h-1.7a32.65265,32.65265,0,0,1-10.4-2.8l-.3-.3a36.50614,36.50614,0,0,1-6.2-3.5l-1.4-.9c-1.4-1.2-2.8-1.9-4-3.1a45.9864,45.9864,0,0,1-3.5-3.1l-1.2-1.2c-.3-.3-.5-.5-.5-.9-.9-.9-1.4-1.7-1.9-2.2l-.9-1.4a37.02309,37.02309,0,0,1-3.6-8.6c-.5-2.2-.9-4.5-1.2-6.7l-.3-2.8a38.44159,38.44159,0,0,1,1.4-10.4v-.3a29.26994,29.26994,0,0,1,5-8.5,16.70453,16.70453,0,0,1,2.8-3.1l-2.8-2.8-.9-1.2a24.43752,24.43752,0,0,1-3.5-7.6v-.2c-.3-1.4-.5-2.8-.9-4.1a19.45223,19.45223,0,0,1,0-5.9v-1.2l.3-1.2a30.19225,30.19225,0,0,1,3.5-7.1l.3-.5a36.756,36.756,0,0,1,2.8-4l.9-.9a60.34614,60.34614,0,0,1,5-5.4l.3-.3,5.4-4.5a46.76782,46.76782,0,0,1,6.2-4.5,36.10849,36.10849,0,0,1,9-4.5h.5c1.7-.5,3.5-.9,5-1.4a53.34971,53.34971,0,0,1,11.7-1.4c4.1,0,8.6,0,12.6.3l4.5.3a20.18246,20.18246,0,0,1,7.6,1.4,20.98424,20.98424,0,0,1,7.6,5,17.01729,17.01729,0,0,0,1.9,1.9l1.2,1.2a19.97662,19.97662,0,0,1,5.7,8.1c.5,1.7,1.2,3.5,1.7,5.4a47.76215,47.76215,0,0,1,1.2,5.7V681a13.98955,13.98955,0,0,1,0,5v1.4l.3,4.5a53.13855,53.13855,0,0,1,.3,7.1c0,1.4-.3,2.6-.3,4h0a12.10291,12.10291,0,0,1,3.1.9l1.2.3a16.22153,16.22153,0,0,1,4.8,2.6,18.95225,18.95225,0,0,1,10.2,6.7l1.9,2.8.3,4a17.84666,17.84666,0,0,1-1.4,9.3l-.3.5v.9a27.12414,27.12414,0,0,1-1.9,7.3l-.3.9a34.27373,34.27373,0,0,1-7.1,9l-.3.3a50.45073,50.45073,0,0,1-8.5,5.7,28.7474,28.7474,0,0,1-7.3,2.8,21.2557,21.2557,0,0,1-5.7.5,24.61553,24.61553,0,0,1-9-1.4c-2.6,1.7-5,3.1-7.9,4.8-3.5,1.7-6.7,3.5-10.2,4.8l-3.1,1.2c-1.4.5-3.1,1.2-4.8,1.7l-2.6.5c-1.4.3-2.8.5-4.1.9A15.02387,15.02387,0,0,0,465.3,769Zm44.1-19.3Z"/><path d="M562.3,658.6l-2.2.5a26.89408,26.89408,0,0,0,.3,5,24.32487,24.32487,0,0,0,.3,4l.3,2.8.5,2.8.5,2.6c.3.9.5,1.7.9,1.9l.3,1.2a5.34461,5.34461,0,0,0,2.2-.3l10.2-2.2a65.16821,65.16821,0,0,1,9.8-1.7c3.1-.3,6.4-.5,9.3-.9,3.6.9,6.2,2.2,7.9,4.1a26.59753,26.59753,0,0,1,5,4.5,13.81044,13.81044,0,0,1,2.8,3.1c.9,1.4,1.4,4.5,1.9,9.5.3,5,.3,8.6-.5,10.4a35.24108,35.24108,0,0,1-1.9,4.1,28.36176,28.36176,0,0,1-2.2,3.5,13.797,13.797,0,0,0-4.8,3.6c-.9.9-1.7,1.4-2.2,1.9-.9.5-1.4.9-1.9,1.2a34.14829,34.14829,0,0,0-3.6,1.4c-1.2.3-4.8,1.7-11.2,3.6a45.7248,45.7248,0,0,1-7.6.9c-.5.3-1.4.5-2.2.9a10.79839,10.79839,0,0,0-2.8.5c-2.6.5-5,1.2-7.3,1.4-2.2.5-4.5.9-6.7,1.4l-2.8.9c-.9.3-1.9.5-2.8.9l-4.1.9c-1.4.3-3.1.5-4.5.9l-.3-1.2a16.64019,16.64019,0,0,0-.5-2.8l-.5-4.5a6.87012,6.87012,0,0,1,.9-3.6,15.80915,15.80915,0,0,0,3.5-.9,7.33922,7.33922,0,0,1,2.6-2.2,7.39721,7.39721,0,0,0,.5-3.1,14.2109,14.2109,0,0,0-.3-3.5,1.80375,1.80375,0,0,1,.3-1.2v-1.4a1.20881,1.20881,0,0,0-.3-.9c-.3-.3-.3-.9-.5-1.2v-3.8l-.3-3.5c-.3-1.2-.3-2.6-.5-3.6,0-.5-.3-1.2-.3-1.7a3.81478,3.81478,0,0,1-.3-1.9c-.3-1.7-.5-3.5-.9-5-.3-1.6-.9-3.5-1.2-5v-.9l.3-1.2c-.3-3.1-.9-6.2-1.4-9-.5-3.1-1.2-5.4-1.4-7.3a6.65785,6.65785,0,0,0-2.2-.3c-.3,0-.5.3-.9.5l-6.2,1.7a4.76733,4.76733,0,0,1-.5-2.2v-1.7l-.3-2.2a17.21723,17.21723,0,0,1-.3-3.6l.3-3.5a9.89924,9.89924,0,0,0,.3-2.8h.3l.3-.3,13-2.6,6.4-.9,6.2-1.4,1.7-.5,6.2-1.7c5.7-1.4,11.7-2.8,18-4.1l1.4-.3c1.9-.5,4-1.2,6.2-1.9a26.70424,26.70424,0,0,0,2.6-.9l1.2-.3c1.2-.3,1.9-.3,2.2,0a1.36381,1.36381,0,0,1,.5,1.2,2.717,2.717,0,0,1-.3,1.4,10.8843,10.8843,0,0,0-.3,3.1,22.76708,22.76708,0,0,0,.3,4.8c.3,1.4.5,2.8.9,4.5v1.2c0,.5.3,1.2.3,1.9a37.87427,37.87427,0,0,1,1.2,3.6,3.59217,3.59217,0,0,1-.5,3.1,13.96176,13.96176,0,0,0-1.7.9l-.9.3-3.5.5a15.385,15.385,0,0,0-2.8.9,8.31488,8.31488,0,0,1-2.8.3,23.85263,23.85263,0,0,1-1.9-5.7,26.70424,26.70424,0,0,0-.9-2.6v-.3c0-.3-.5-.3-1.4,0l-.9.3-17.4,3.1Zm4.1,35.5.5,2.2c0,.5-.3,1.4,0,1.9a22.70674,22.70674,0,0,0,.3,4.5c-.5,1.4-.5,3.5-.5,6.2v.5c.3,0,.5.3,1.2.5a13.98955,13.98955,0,0,0,5,0c1.2-.3,2.8-.5,5-.9l7.1-1.4a40.9158,40.9158,0,0,0,5.9-1.9,10.111,10.111,0,0,0,2.8-2.2,13.58321,13.58321,0,0,0,1.4-4.1v-1.2a9.10679,9.10679,0,0,0-.9-3.1c-.9-1.2-1.7-1.9-2.2-2.6-.5-.3-1.2-.5-1.9-.9a4.48469,4.48469,0,0,0-2.6-.3,11.98439,11.98439,0,0,1-3.5-.3h-2.2c-1.9.3-4.1.5-6.4.9a43.81136,43.81136,0,0,0-7.9,1.2C566.8,694.1,566.4,694.1,566.4,694.1Z"/><path d="M530.3,751.1l-1.9-15.7a2.38227,2.38227,0,0,0-.3-1.4l-.3-1.4-.5-5.7a19.61033,19.61033,0,0,1,2.6-10.9l3.1-5.7,1.2-.3a19.34459,19.34459,0,0,1-.3-4.1l-.3-3.6c0-.9-.3-1.4-.3-2.2v-.9c-.3-1.2-.5-2.6-.9-4.1a13.39417,13.39417,0,0,0-.5-3.1c-.5-1.9-.9-4-1.2-5.7v-3.5l-5.7,1.7-4.8-11.2a21.89489,21.89489,0,0,1-1.7-5.9c0-.9-.3-1.7-.3-2.6v-1.2a33.21192,33.21192,0,0,1-.3-5.4v-.5l.5-5v-.9l.3-10.9,9.3-1.9a10.92872,10.92872,0,0,1,1.7-.5l.9-.3,13.8-2.6,5.9-.9,6.7-1.7,6.2-1.7c5.9-1.4,12.1-2.8,18.5-4.5l1.4-.3c1.4-.3,2.8-.9,4.5-1.4h.3c1.4-.5,2.8-.9,4-1.2l1.2-.3a16.2537,16.2537,0,0,1,11.7,1.2l1.19995.5.9.5a15.33146,15.33146,0,0,1,6.4,10.9,19.52294,19.52294,0,0,1-.30005,5.9v2.9c.30005,1.2.5,2.6.9,4l.3,1.4c.5,1.4.9,3.1,1.4,4.8l.30005,1.2c.5,4.8-.30005,9-2.80005,12.6,2.2,1.7,4,3.5,5.4,4.8a44.78954,44.78954,0,0,1,4.1,4.5l.30005.3c2.6,3.6,3.6,8.1,4.1,16.6.5,7.6,0,13-1.7,16.9-1.19995,2.6-1.9,4.5-2.8,6.2-.9,1.4-1.7,3.1-2.80005,4.5l-1.9,3.1-3.5,1.7h0s-.30005,0-.5.5l-.5.5a25.04191,25.04191,0,0,1-4,3.5,25.69051,25.69051,0,0,1-5,2.8c-1.6.5-3.1,1.2-4.5,1.7l-13,4.1a37.339,37.339,0,0,1-7.3.9,13.32452,13.32452,0,0,1-1.9.5l-1.4.3a2.38221,2.38221,0,0,0-1.4.3c-2.8.5-5.7,1.2-8.1,1.7-1.9.3-4,.9-5.9,1.2l-2.2.5a30.37667,30.37667,0,0,1-4,1.2l-4.5.9c-1.7.3-3.6.9-5.4,1.2Zm83.50006-100.2Z"/><path d="M619.6,674.7a73.11493,73.11493,0,0,1-.3-10.4c.3-1.9.3-3.6.5-5a25.85741,25.85741,0,0,1,1.19995-4.8l1.7-5.7c.3-.3.5-.9.9-1.4.30005-.5.9-1.2,1.2-1.7.9-1.4,1.4-2.6,2.2-3.6.9-1,1.69995-2.2,2.8-3.6s2.6-2.6,3.6-4c1.4-1.4,2.80005-2.6,4.1-4,1.9-1.4,4-2.8,5.69995-4a32.10391,32.10391,0,0,1,6.7-3.1c1.19995-.3,1.9-.5,3.1-.9a30.22711,30.22711,0,0,1,5-.5c2.8,0,5.4.3,7.9.5.5,0,1.19995.3,1.9.3l1.4.3a11.54431,11.54431,0,0,1,1.9,1.4,5.22215,5.22215,0,0,0,1.9,1.4,24.14455,24.14455,0,0,0,2.8,1.4,6.46058,6.46058,0,0,1,2.6,1.7l.30005.3a.29385.29385,0,0,0,.3.3,4.95463,4.95463,0,0,0,1.7,1.2c.5.3,1.19995.9,1.69995,1.2a14.02489,14.02489,0,0,1,1.7,2.2l1.69995,2.6a5.73974,5.73974,0,0,1,1.9,2.2l.30005.9c0,.3.3.5.3.9a.53575.53575,0,0,0,.5.5c.2,0,.3.3.3.5v1.2a1.20868,1.20868,0,0,0,.30005.9,20.96744,20.96744,0,0,0,2.6,4.8,46.94964,46.94964,0,0,1,2.2,4.8,2.90752,2.90752,0,0,1,.3,1.4l.30005,1.7c.3,1.4.5,3.1.9,5a16.30686,16.30686,0,0,1,0,5.4,13.06358,13.06358,0,0,1-.5,2.2,15.16831,15.16831,0,0,1-.9,2.8,11.92808,11.92808,0,0,0-.5,2.6l-.5,2.2a7.68045,7.68045,0,0,1-.9,2.2,13.07478,13.07478,0,0,1-.9,2.6,26.7175,26.7175,0,0,1-.9,2.6,8.49518,8.49518,0,0,1-.9,1.9,19.24569,19.24569,0,0,1-3.1,4.1c-1.4,1.7-2.6,3.1-4,4.5a56.46681,56.46681,0,0,1-6.69995,5.7,86.75355,86.75355,0,0,1-8.6,4.1,39.72908,39.72908,0,0,1-6.2,1.9,1.80383,1.80383,0,0,1-1.2.3,23.58534,23.58534,0,0,1-4.8.5,17.11537,17.11537,0,0,1-4-.3c-1.4,0-2.6-.3-3.6-.3h-4.1a17.9844,17.9844,0,0,1-4-.3,4.24178,4.24178,0,0,1-2.2-.9l-2.19995-1.4a29.229,29.229,0,0,1-5-4,32.33134,32.33134,0,0,1-4.5-5.7c-.30005,0-.30005-.3-.5-.5l-.5-.5a17.59111,17.59111,0,0,1-1.7-4c-.5-1.7-.9-3.1-1.4-4.8C620.69995,681.6,620.1,678.3,619.6,674.7Zm20.20007,2.8a34.535,34.535,0,0,0,4.1,8.6,30.9254,30.9254,0,0,0,3.1,2.8,7.4537,7.4537,0,0,0,2.80005,1.9,14.87327,14.87327,0,0,0,5,.9A23.81026,23.81026,0,0,0,661,690.8c.30005,0,.9-.3,1.19995-.3a26.45106,26.45106,0,0,0,4.5-1.4,6.45411,6.45411,0,0,0,2.2-1.7c.9-.9,1.4-1.7,1.9-2.2a28.43131,28.43131,0,0,0,5-9.8c1.69995-4,1.9-8.1,1.4-13a24.68392,24.68392,0,0,0-3.5-10.2c-1.69995-2.6-3.1-4.8-4.8-7.1l-1.4-1.7c-.5-.5-.9-1.2-1.4-1.4a13.22647,13.22647,0,0,0-4-2.2,20.71809,20.71809,0,0,0-4.8-.9c-.3,0-.9.3-1.2.3a26.7096,26.7096,0,0,0-2.6.9c-1.19995.5-2.19995,1.2-3.5,1.7a54.96,54.96,0,0,0-5.69995,3.6c-1.9,1.4-3.5,2.6-4.1,4a16.82319,16.82319,0,0,0-2.8,7.3c-.2,2.4-.30005,5.7-.30005,8.6a32.00641,32.00641,0,0,0,.30005,5.4A47.53292,47.53292,0,0,1,639.80005,677.5Z"/><path d="M655.6,721.5h-.3a32.01279,32.01279,0,0,1-5.4-.3l-1.4-.3c-.5,0-1.19995-.3-1.9-.3h-2.9c-2.2,0-4.1-.3-6.2-.5a16.95287,16.95287,0,0,1-6.69995-2.6l-1.9-1.2a44.04263,44.04263,0,0,1-8.5-6.4,36.95127,36.95127,0,0,1-5-5.9c-.30005-.3-.30005-.3-.5-.5l-1.2-1.2L612.5,700.6a29.30414,29.30414,0,0,1-2.80005-6.4,29.72059,29.72059,0,0,1-1.4-5.7,80.33129,80.33129,0,0,1-2.6-11.7v-.3a79.86836,79.86836,0,0,1-.3-13v-.5a56.73773,56.73773,0,0,1,.9-6.2c.3-1.9.9-4,1.4-6.2l1.9-6.4.5-1.2a18.07968,18.07968,0,0,0,1.4-2.6l.5-1.2s.30005-.3.30005-.5a33.67989,33.67989,0,0,1,3.5-5c.9-1.2,1.9-2.6,3.1-4.1l.3-.3c1.4-1.4,2.80005-3.1,4.1-4.5l.3-.3c1.4-1.4,3.1-2.8,4.80005-4.5l.5-.3a69.662,69.662,0,0,1,6.69995-4.8,41.12984,41.12984,0,0,1,9.5-4.5,37.41717,37.41717,0,0,1,4.5-1.4c2.6-.5,5-.9,7.6-1.2h.6001c3.5,0,6.4.3,9.30005.5h.8l4.1.5,1.9.9a17.649,17.649,0,0,1,5.9,4,2.62253,2.62253,0,0,0,.9.5c1.69995.5,3.1,1.7,4.8,2.8h0l.9.3a5.7433,5.7433,0,0,1,1.9,1.9h.3a14.39643,14.39643,0,0,1,4,3.5,23.80647,23.80647,0,0,1,3.1,4l.9,1.2a9.72675,9.72675,0,0,1,2.2,2.8l1.4,1.9.30005.5a23.65637,23.65637,0,0,1,2.19995,4.1,10.91566,10.91566,0,0,1,.5,1.7,5.27673,5.27673,0,0,0,1.2,1.9l.3.5a28.41236,28.41236,0,0,1,3.1,7.1,12.64967,12.64967,0,0,1,.9,4.1v1.2c.30005,1.7.5,3.5.9,5.7a40.24472,40.24472,0,0,1,0,8.5,18.7956,18.7956,0,0,1-1.19995,5.7c-.30005.5-.30005,1.2-.5,1.4v1l-.30005,1.2-.5,3.1a27.53622,27.53622,0,0,1-1.69995,4.5c0,.3-.30005.5-.30005.9a8.70442,8.70442,0,0,0-.5,1.9,15.02057,15.02057,0,0,1-1.4,3.6l-.9,1.7c-1.2,1.9-2.6,4-4.1,6.2-1.69995,1.9-3.5,4-5,5.7a50.55605,50.55605,0,0,1-9,7.3,116.88781,116.88781,0,0,1-11.19995,5.7,68.08409,68.08409,0,0,1-8.1,2.6l-1.2.3a33.91715,33.91715,0,0,1-7.3.9h-1v-.1Zm3.6-43.2Zm-4.5-1.2c.30005.3.5.5.9.9.9,0,1.7-.3,2.6-.3l1.2-.3h.5c.3-.3.5-.5.9-.9a14.52965,14.52965,0,0,0,2.19995-4.5,35.911,35.911,0,0,0,.5-7.6,8.02515,8.02515,0,0,0-1.4-4.1,56.2198,56.2198,0,0,0-4-5.7l-.3-.3h-.3c-1.4.9-2.80005,1.7-4.1,2.6a4.00674,4.00674,0,0,0-1.19995.9,2.32174,2.32174,0,0,1-.30005.9,42.94085,42.94085,0,0,0-.3,6.4v.5a13.077,13.077,0,0,0,.3,3.6,39.6034,39.6034,0,0,0,.9,4l.3.5A18.514,18.514,0,0,0,654.69995,677.1Zm48.5-35.9ZM692,627.7c.30005,0,.30005,0,.5.3C692.69995,627.7,692.4,627.7,692,627.7Z"/><path d="M697.4,634.8a1.80351,1.80351,0,0,0-.3-1.2v-1.7c-.3-.5-.3-1.2-.5-1.4l-.5-9a69.57179,69.57179,0,0,1,.3-8.1v-.5c0-.2.3-.3.5-.3,4-.9,8.1-1.9,13-3.5,4.5-1.2,8.6-2.6,13-3.5l4.5-1.4c.9,0,1.9-.3,3.1-.3s1.9-.3,2.80005-.3l1.4-.5,1.4-.3,4.5-.9a19.94863,19.94863,0,0,1,4.1-.5c.5,0,1.2-.3,1.7-.3a20.25843,20.25843,0,0,0,4.1-1.2,78.6612,78.6612,0,0,1,7.9-2.2,37.75422,37.75422,0,0,0,3.6-1.2,2.66117,2.66117,0,0,1,2.19995,0,2.16752,2.16752,0,0,1,.5,1.4v1.2c-.3,1.2-.3,2.2-.5,3.1a22.76187,22.76187,0,0,0,.30005,4.8,23.35475,23.35475,0,0,0,1.19995,4.5c0,1.2.30005,2.2.30005,3.5,0,.5.30005,1.2.30005,1.9,0,.5.3,1.2.3,1.9a16.2,16.2,0,0,0,.9,4c.3,1.4.9,2.8,1.4,4.5a25.02791,25.02791,0,0,0,1.19995,3.6c.30005,1.4.5,2.8.9,4.1v.5a3.149,3.149,0,0,1-.5,2.8,13.9611,13.9611,0,0,0-1.7.9c-.3,0-.5.3-.9.3a17.342,17.342,0,0,0-3.6.5,15.83078,15.83078,0,0,0-3.1.9,10.88384,10.88384,0,0,1-3.1.3,15.41179,15.41179,0,0,1-2.2-5.9c-.5-2.30005-.9-4.5-1.19995-6.7-.30005-1.2-.5-2.2-.9-3.5a302612.078,302612.078,0,0,1-.60009-3.4l-.3-3.1a6.12715,6.12715,0,0,0-.9-3.1v-.3c0-.3-.5-.3-1.4,0a1.20877,1.20877,0,0,0-.9.3l-4.1,1.2a5.16232,5.16232,0,0,1-1.9.3c-.3,0-.3,0-.5.3-.3,0-.9.3-1.19995.3a26.05515,26.05515,0,0,0-.30005,6.2,27.16937,27.16937,0,0,0,1.2,6.2c.7,2.1.9,4.1,1.4,6.2A56.72939,56.72939,0,0,1,745.5,642.4a42.91,42.91,0,0,1,.30005,6.2c0,2.2.3,4.5.5,7.1.5,3.1.9,5.9,1.4,9a25.79307,25.79307,0,0,0,1.7,6.4,24.25266,24.25266,0,0,0,4.5-.3c1.7-.3,3.5-.5,5.4-.9a32.31473,32.31473,0,0,0,5.69995-1.2c2.1-.7,3.6-.9,5.4-1.4.3.3.5.9.9,1.4,0,.3.3.9.3,1.4a9.55764,9.55764,0,0,0,.30005,2.8,5.48937,5.48937,0,0,0,.5,1.7,10.91566,10.91566,0,0,1,.5,1.7v5.1a2.57282,2.57282,0,0,1-.5,1.4c-1.7.5-3.5.9-5,1.4-1.7.3-3.5.9-5,1.2l-10.4,1.9a32.31563,32.31563,0,0,0-5.7,1.2,13.44841,13.44841,0,0,1-3.5.5,19.29164,19.29164,0,0,0-3.1.9l-9,2.2a26.70885,26.70885,0,0,0-2.6.9c-.5.3-1.2.3-1.4.5-.3,0-.5.3-.9.3a3.41591,3.41591,0,0,0-1.69995.3h-1.7c-1.69995.3-3.6.9-5.4,1.4a1.20875,1.20875,0,0,0-.9.3,21.24985,21.24985,0,0,1-4.5.3c-.30005-1.7-.30005-3.5-.5-5.4a22.24784,22.24784,0,0,1,0-4.5,8.71776,8.71776,0,0,1,1.4-4.8,37.13412,37.13412,0,0,1,4.1-1.2c1.9-.5,4-.9,5.9-1.2a20.30812,20.30812,0,0,0,5-1.2c1.4-.3,3.1-.9,4.80005-1.2a16.00318,16.00318,0,0,0,.3-5.9,13.73487,13.73487,0,0,0-.5-2.8,58.958,58.958,0,0,0-.9-9.5l-.30005-8.5c-.3-2.8-.9-5.4-1.4-7.9a7.68059,7.68059,0,0,0-.9-2.2,14.46205,14.46205,0,0,0-.9-2.2,19.94341,19.94341,0,0,1-.5-4.1c0-.5-.3-1.4-.3-1.9,0-2.2-.30005-4.1-.5-6.2a36.30579,36.30579,0,0,0-1.4-5.9,13.73227,13.73227,0,0,0-2.80005.5,15.17518,15.17518,0,0,0-2.8.9l-5.4,2.2c-.5,1.4-.5,3.1-.9,4.5v5a11.9629,11.9629,0,0,0,.3,3.1,3.41553,3.41553,0,0,0,.3,1.7c.30005,1.7.9,3.5,1.2,5.4.3,1.4.5,2.8.9,4.1v4a22.50756,22.50756,0,0,1-2.2.5c-1.4.3-3.1.5-4.8.9a22.50756,22.50756,0,0,1-2.2.5c-1.4.3-3.1.9-4.5,1.2a6.34054,6.34054,0,0,1-1.69995-3.1,13.77187,13.77187,0,0,1-1.2-3.6l-.9-4c-.3-1.4-.5-2.6-.9-4v-.9l.3-1.2c0-.3-.3-.5-.3-.9,0-.3-.30005-.5-.30005-.9C697.19995,635.7,697.19995,635,697.4,634.8Z"/><path d="M713.1,708.9a14.21176,14.21176,0,0,1-3.5-.3l-10.9-1.4L697.5,696.3c-.30005-1.7-.30005-3.6-.5-5.7a27.36714,27.36714,0,0,1,0-6.4,25.05429,25.05429,0,0,1,3.6-11.6l2.6-4L697.5,670.3l-5.9-6.2a19.85818,19.85818,0,0,1-5.4-8.6A28.26028,28.26028,0,0,1,685,650.5l-.9-3.1a40.08361,40.08361,0,0,1-.9-5.9v-1.9a4.21575,4.21575,0,0,1-.3-1.9l-.30005-1.7.30005-1.7v-.3h0l-.30005-1.2-.5-10.7a56.526,56.526,0,0,1,.30005-10.2,16.68886,16.68886,0,0,1,2.8-7.9,16.18108,16.18108,0,0,1,8.6-5.9c3.6-.9,7.6-1.9,11.69995-3.1h.30005c4.5-1.2,8.6-2.6,13-3.5l5.69995-1.7h1.2c.9,0,1.69995-.3,2.8-.3l1.7-.3,1.4-.3,2.2-.5,9.5-1.7c.9-.3,1.9-.5,3.5-.9a70.30017,70.30017,0,0,1,8.1-2.2c1.7-.5,3.1-.9,4.5-1.2a16.2535,16.2535,0,0,1,11.7,1.2l1.9,1.2,1.69995,1.7a17.84281,17.84281,0,0,1,4.80005,9.8,11.33345,11.33345,0,0,1,0,4.5v.5a10.62591,10.62591,0,0,1-.30005,1.4v1.9c.30005.9.5,1.9.9,3.1l.3,1.7c0,1.2.30005,2.6.30005,4l.3,3.5h0a2.32181,2.32181,0,0,0,.30005.9l.3.9a15.18245,15.18245,0,0,0,1.2,3.6l.3.9c.3,1.2.5,2.2.9,3.5l.30005.5A47.04157,47.04157,0,0,1,785.5,632.6l.30005,1.4c.9,7.6-2.6,12.4-4.80005,14.3h-1.9l-1.2.9a14.7013,14.7013,0,0,1-4,1.9l5.7,5.7a17.90941,17.90941,0,0,1,4.5,7.6l.9,3.5v1.7l1.69995,3.1-.3,3.6v5.5a16.31577,16.31577,0,0,1-4.1,9.5l-2.6,2.8-3.6,1.4c-1.9.5-4,1.2-5.9,1.7s-4,.9-5.9,1.2l-10.4,1.7c-1.9.3-3.6.5-5.7.9a27.417,27.417,0,0,1-2.8.5c-.9.3-1.9.5-3.1.9l-8.1,2.2a10.928,10.928,0,0,1-1.69995.5,20.6276,20.6276,0,0,1-3.5,1.2l-1.9.5h-.9l-2.19995.5h-.9c-.9.3-1.7.5-2.8.9l-1.4.3A51.16949,51.16949,0,0,1,713.1,708.9Zm71.70007-42.7ZM760.6,653.8v.5a1.20875,1.20875,0,0,0,.9-.3c1.4-.3,3.1-.9,4.1-1.2l2.8-.9h-.3a8.91889,8.91889,0,0,0-1.7.3,5.48735,5.48735,0,0,0-1.7.5l-1.4.3A3.50393,3.50393,0,0,1,760.6,653.8Z"/><path d="M778.6,638.1a73.11507,73.11507,0,0,1-.3-10.4c.3-1.9.3-3.6.5-5a19.79115,19.79115,0,0,1,1.19995-4.8l1.7-5.7c.3-.3.5-.9.9-1.4.30005-.5.9-1.2,1.2-1.7.9-1.4,1.4-2.6,2.2-3.6.9-1,1.69995-2.2,2.8-3.6,1-1.4,2.6-2.6,3.6-4,1.4-1.4,2.80005-2.6,4.1-4,1.9-1.4,4-2.8,5.69995-4a32.1034,32.1034,0,0,1,6.7-3.1c1.19995-.3,1.9-.5,3.1-.9a30.22819,30.22819,0,0,1,5-.5c2.8,0,5.4.3,7.9.5.5,0,1.19995.3,1.9.3l1.4.3a11.54489,11.54489,0,0,1,1.9,1.4,5.22218,5.22218,0,0,0,1.9,1.4,24.14428,24.14428,0,0,0,2.8,1.4,6.46069,6.46069,0,0,1,2.6,1.7l.30005.3c0,.3,0,.3.3.3a4.95449,4.95449,0,0,0,1.7,1.2c.5.3,1.19995.9,1.69995,1.2a14.02454,14.02454,0,0,1,1.7,2.2l1.69995,2.6a5.73981,5.73981,0,0,1,1.9,2.2l.30005.9c0,.3.3.5.3.9a.53575.53575,0,0,0,.5.5c.3,0,.3.3.3.5s.30005.5.30005.9a1.20864,1.20864,0,0,0,.3.9,20.96727,20.96727,0,0,0,2.6,4.8,46.94866,46.94866,0,0,1,2.19995,4.8,2.9075,2.9075,0,0,1,.30005,1.4l.3,1.7c.3,1.4.5,3.1.9,5a14.01312,14.01312,0,0,1,0,5.4,13.0635,13.0635,0,0,1-.5,2.2,18.03577,18.03577,0,0,1-.9,2.8,23.791,23.791,0,0,0-.5,2.6l-.9,2.8a7.68075,7.68075,0,0,1-.9,2.2,14.46159,14.46159,0,0,1-.9,2.2,26.72008,26.72008,0,0,1-.9,2.6,4.41386,4.41386,0,0,0-.5,1.9,19.24594,19.24594,0,0,1-3.1,4.1c-1.4,1.7-2.6,3.1-4,4.5a56.46669,56.46669,0,0,1-6.7,5.7,86.75127,86.75127,0,0,1-8.6,4.1,39.73019,39.73019,0,0,1-6.2,1.9c-.3,0-.9.3-1.2.3a23.58536,23.58536,0,0,1-4.8.5,17.1149,17.1149,0,0,1-4-.3,16.34228,16.34228,0,0,0-3.6-.5h-4.1a18.43454,18.43454,0,0,1-4-.3,4.24173,4.24173,0,0,1-2.19995-.9l-2.2-1.4a29.2295,29.2295,0,0,1-5-4,32.33134,32.33134,0,0,1-4.5-5.7c-.3,0-.3-.3-.5-.5l-.5-.5a17.59151,17.59151,0,0,1-1.69995-4c-.5-1.7-.9-3.1-1.4-4.8C779.80005,645.2,779.30005,641.5,778.6,638.1Zm20.20007,2.9a34.535,34.535,0,0,0,4.1,8.6,30.9254,30.9254,0,0,0,3.1,2.8,7.4537,7.4537,0,0,0,2.80005,1.9,14.87327,14.87327,0,0,0,5,.9A23.81026,23.81026,0,0,0,820,654.3c.30005,0,.9-.3,1.19995-.3a26.45106,26.45106,0,0,0,4.5-1.4,6.45411,6.45411,0,0,0,2.2-1.7c.9-.9,1.4-1.7,1.9-2.2a28.43131,28.43131,0,0,0,5-9.8,32.4626,32.4626,0,0,0,.9-13,24.68392,24.68392,0,0,0-3.5-10.2c-1.69995-2.6-3.1-5-4.8-7.1l-.9-1.7c-.5-.5-.9-1.2-1.4-1.4a13.22647,13.22647,0,0,0-4-2.2,20.71809,20.71809,0,0,0-4.8-.9c-.3,0-.9.3-1.2.3a26.7096,26.7096,0,0,0-2.6.9c-1.19995.5-2.19995,1.2-3.5,1.7a54.96,54.96,0,0,0-5.69995,3.6c-1.9,1.4-3.5,2.6-4.1,4a16.82319,16.82319,0,0,0-2.8,7.3c-.2,2.4-.30005,5.7-.30005,8.6a32.00641,32.00641,0,0,0,.30005,5.4A40.00761,40.00761,0,0,1,798.80005,641Z"/><path d="M814.30005,684.7H814a32.01267,32.01267,0,0,1-5.4-.3l-1.4-.3c-.5,0-1.19995-.3-1.9-.3h-2.9c-2.2,0-4.1-.3-6.2-.5a16.95272,16.95272,0,0,1-6.69995-2.6l-1.9-1.2a44.04237,44.04237,0,0,1-8.5-6.4,36.95128,36.95128,0,0,1-5-5.9c-.3-.3-.3-.3-.5-.5l-1.2-1.2-1.2-1.7a29.30393,29.30393,0,0,1-2.8-6.4,33.93127,33.93127,0,0,1-1.4-5.7,80.332,80.332,0,0,1-2.6-11.7v-.3a79.8672,79.8672,0,0,1-.3-13V626a56.738,56.738,0,0,1,.9-6.2c.30005-1.9.9-4,1.4-6.2l1.7-6.4.5-1.2a18.07968,18.07968,0,0,0,1.4-2.6l.9-1.2.3-.3a33.68041,33.68041,0,0,1,3.5-5,49.17887,49.17887,0,0,1,3.1-4.1l.3-.3c1.4-1.4,2.80005-3.1,4.1-4.5l.30005-.3c1.4-1.4,3.1-2.8,4.8-4.5l.5-.5a69.662,69.662,0,0,1,6.7-4.8,51.41143,51.41143,0,0,1,9.5-4.5,37.41772,37.41772,0,0,1,4.5-1.4c2.6-.5,5-.9,7.6-1.2h.6001c3.5,0,6.4.3,9.3.5h.80005l4.1.5,1.9.9a17.649,17.649,0,0,1,5.9,4,2.62258,2.62258,0,0,0,.9.5,14.14381,14.14381,0,0,1,4.5,2.8h.30005l.5.5c.5.5,1.19995,1.2,1.69995,1.7l.30005.3a14.39611,14.39611,0,0,1,4,3.5c1.19995,1.2,1.9,2.6,3.1,4l.9,1.4a9.72671,9.72671,0,0,1,2.19995,2.8l1.4,1.9.30005.5a17.11723,17.11723,0,0,1,2.19995,4.5c.30005.5.30005,1.2.5,1.4a7.20344,7.20344,0,0,0,1.2,1.9l.3.5a59.09551,59.09551,0,0,1,3.1,7.1,12.64969,12.64969,0,0,1,.9,4.1v1.2c.30005,1.7.5,3.5.9,5.7a40.24472,40.24472,0,0,1,0,8.5,36.53375,36.53375,0,0,1-1.2,5.7c-.3.5-.3,1.2-.5,1.4l.5.3v.5l-.3,1.2-.9,3.1a27.53645,27.53645,0,0,1-1.69995,4.5.68962.68962,0,0,1-.30005.5,6.65482,6.65482,0,0,0-.5,1.9,15.021,15.021,0,0,1-1.4,3.6l-.9,1.7c-1.2,1.9-2.6,4.1-4.1,6.2-1.4,1.9-3.5,3.6-5,5.7a50.55605,50.55605,0,0,1-9,7.3,116.88664,116.88664,0,0,1-11.19995,5.7,68.08655,68.08655,0,0,1-8.1,2.6l-1.2.3a24.25167,24.25167,0,0,1-7.80041.99994ZM818,641.5Zm-4.19995-.8c.3.3.5.3.9.9.9,0,1.7-.3,2.6-.3l1.4-.3h.5c.30005-.3.5-.5.9-.9a14.52976,14.52976,0,0,0,2.2-4.5,35.911,35.911,0,0,0,.5-7.6,8.02515,8.02515,0,0,0-1.4-4.1,56.22,56.22,0,0,0-4-5.7l-.3-.3h-.3a37.124,37.124,0,0,0-4.1,2.8,4.00674,4.00674,0,0,0-1.19995.9,1.31386,1.31386,0,0,0-.30005.9,42.94085,42.94085,0,0,0-.3,6.4v.5a13.077,13.077,0,0,0,.3,3.6,39.6006,39.6006,0,0,0,.9,4v.5C813,638.9,813.5,640.2,813.80005,640.7Z"/><path d="M860.6,586.8c0-.9-.3-1.4-.3-2.2v-2.2a3.41553,3.41553,0,0,0,.3-1.7,3.41563,3.41563,0,0,1,.3-1.7c0-.5,0-1.2.3-1.4a2.38181,2.38181,0,0,1,.30005-1.4h.3l.30005-.3,13.1-2.6,6.4-.9,6.19995-1.4,3.5-1.2,4.5-1.2a5.20945,5.20945,0,0,1,3.1,0,1.38444,1.38444,0,0,1,.3,1.4,5.41324,5.41324,0,0,0-.3,1.9c0,.5.3,1.2.3,1.7a5.4891,5.4891,0,0,0,.5,1.7,11.97833,11.97833,0,0,1,.9,3.5c-.5.3-1.7.9-2.80005,1.4l-5.69995,1.4-2.80005.9v2.6a7.71536,7.71536,0,0,0,.30005,2.6,23.788,23.788,0,0,1,.5,2.6c0,.9.3,1.9.3,2.8l.30005,2.8,2.19995,11.7,8.6-7.6,4-4,3.5-1.9,5.7-5.7,3.5-2.8c.3-.3.9-1.2,1.4-1.7a2.09167,2.09167,0,0,1-.30005-1.4l-1.69995-7.3c0-.3-.30005-.3-.5-.5a9.93331,9.93331,0,0,0-3.1,1.2,4.30821,4.30821,0,0,1-2.8.5,14.89311,14.89311,0,0,1-1.4-5.4,33.24842,33.24842,0,0,1,.30005-5.7l4.5-1.2c.9,0,1.69995-.3,2.19995-.3a13.05557,13.05557,0,0,0,2.2-.5,2.82111,2.82111,0,0,0,1.69995-.9,1.00807,1.00807,0,0,1,.9-.3c.4,0,.5-.3.9-.3l2.8-.5a5.38342,5.38342,0,0,0,3.1-.9l1.19995-.3c.30005,0,.5,0,.5-.3a.68947.68947,0,0,0,.5-.3,7.65257,7.65257,0,0,1,2.2-.3c.5,0,1.4-.3,2.6-.3a2.39956,2.39956,0,0,0,1.7-.9,2.62249,2.62249,0,0,1,.9-.5c.30005,0,.5-.3.9-.5a7.397,7.397,0,0,1,3.1-.5h2.6a10.44151,10.44151,0,0,1,.9,2.2v2.8a3.44407,3.44407,0,0,0,.30005,1.9,4.21575,4.21575,0,0,0,.3,1.9,13.8232,13.8232,0,0,1-.3,3.6,13.82422,13.82422,0,0,1-4,1.2l-2.2.3a8.70916,8.70916,0,0,1-1.9.5,10.928,10.928,0,0,1-1.69995.5c.5,9.5,1.19995,17.4,1.69995,23.3.5,3.1.9,5.9,1.2,8.5a58.619,58.619,0,0,1,.3,7.1,34.14525,34.14525,0,0,0,1.4,7.1c.30005,1.2.5,2.2.9,3.5a9.93541,9.93541,0,0,0,1.19995,3.1c0,.3,0,.3.30005.5,0,.3,0,.3.3.5l.5.9.30005,1.9a7.67159,7.67159,0,0,0,.5,1.7l3.5-.5a4.72972,4.72972,0,0,0,1.19995-.3,5.95681,5.95681,0,0,0,2.2-1.4c.9-.5,1.4-.9,1.9-.9.9.3,1.19995.5.9,1.4v3.8l.30005,1.9a4.47041,4.47041,0,0,0,.9,2.8,2.38181,2.38181,0,0,1,.30005,1.4c0,.5.3.9.3,1.4a8.78506,8.78506,0,0,1-4,1.9l-5.4,1.4-3.6,1.4a4.76725,4.76725,0,0,1-2.19995.5c-.5,0-1.2.3-1.9.3-.5,0-1.19995.3-1.9.3a3.44467,3.44467,0,0,0-1.9.3c-.5,0-1.4.3-1.9.3l-2.2.5a6.30792,6.30792,0,0,1-2.19995.5c-.5,0-1.2.3-1.7.3h-3.3999a10.63055,10.63055,0,0,0-1.4.3c-.30005,0-.5.3-1.2.3-.3,0-.5.3-.9.3a6.308,6.308,0,0,1-2.19995.5c-.30005-1.2-.30005-2.6-.5-4.1a4.84,4.84,0,0,0-.9-4c.30005,0,.5-.3.9-.5v-.9c1.69995-.9,3.1-1.4,4-1.9a1.20875,1.20875,0,0,0,.9-.3c.3,0,.9-.3,1.69995-.5a3.68154,3.68154,0,0,0,.5-3.1c0-.5-.3-1.2-.3-1.7a10.62591,10.62591,0,0,0-.30005-1.4,11.82415,11.82415,0,0,1-.9-5.4l.30005-6.7-.30005-1.2-.3-3.1c0-.3-.30005-4-.30005-11.2l-7.1,5.9a6.9975,6.9975,0,0,0-1.4,1.7q-.75.75-1.19995,1.2c-.30005.3-.5.9-.9.9-.3.3-.5.5-.9.9a6.37978,6.37978,0,0,0-1.4,1.2,15.62523,15.62523,0,0,1-1.9,1.4,5.79528,5.79528,0,0,1-1.2,1.4,7.52846,7.52846,0,0,0-.9.9c-.30005.3-.5.5-.9.9-.30005,0-.5.3-.9.5a6.37978,6.37978,0,0,0-1.4,1.2c-.5.7-1.19995.9-1.69995,1.4l-3.5,3.6-.30005.3a4.54978,4.54978,0,0,0-.9,1.2v.9c0,1.7,0,2.6-.30005,2.6v3.9a20.50388,20.50388,0,0,0,1.7,8.5,15.66152,15.66152,0,0,0,4.5-1.2,2.78126,2.78126,0,0,1,2.19995-.3,8.70069,8.70069,0,0,1,.9,3.6,29.45441,29.45441,0,0,0,.5,4.5,2.57279,2.57279,0,0,0,.5,1.4l.30005,1.4a7.83964,7.83964,0,0,1-1.4.5,3.52915,3.52915,0,0,1-1.4.3c-.5,0-1.19995,0-1.4.3-.3,0-.9.3-1.4.3-1.4.3-2.6.5-4,.9a16.34237,16.34237,0,0,1-3.6.5c-1.19995.3-2.19995.3-3.5.5-1.19995.3-2.19995.5-3.5.9l-2.8.9a7.84111,7.84111,0,0,1-1.4.5,2.38227,2.38227,0,0,1-1.4.3l-4.1.9-4.5,1.2a11.27939,11.27939,0,0,0-.5-4.1,20.64568,20.64568,0,0,1-.5-4.5,5.52217,5.52217,0,0,1,.5-3.6,14.84135,14.84135,0,0,0,4.1-1.2,11.79573,11.79573,0,0,0,4-1.7,7.39721,7.39721,0,0,0,.5-3.1v-5.6c0-.3,0-.9-.3-.9,0-.3,0-.3-.30005-.5v-.5l-.3-1.9v-1.9l.3-2.2a23.49055,23.49055,0,0,0-.3-5.4,8.91926,8.91926,0,0,0-.30005-1.7c-.3-.3-.3-1.2-.3-1.9s-.30005-1.7-.30005-2.6a23.79073,23.79073,0,0,1-.5-2.6,7.98364,7.98364,0,0,1-.5-2.6,11.93579,11.93579,0,0,0-.5-2.6v-.9l.30005-1.2c-.30005-1.7-.30005-3.1-.5-4.5a35.81764,35.81764,0,0,0-.9-4.5c-.3-1.4-.5-3.1-.9-4.5-.3-1.4-.5-3.1-.9-4.5a15.687,15.687,0,0,0-5.9.5l-6.2,1.7A8.481,8.481,0,0,1,860.6,586.8Zm38.20007-43.4a26.595,26.595,0,0,0,9.8-4.1,28.82066,28.82066,0,0,0,7.1-8.1,7.20325,7.20325,0,0,1,1.2-1.9c.3-.5.5-1.2,1.4-1.2a3.36217,3.36217,0,0,1,2.8.5l5,2.8a2.19455,2.19455,0,0,1,1.2.5.53575.53575,0,0,0,.5.5,4.05741,4.05741,0,0,1-.5,2.2c-.30005.3-.30005.9-.5,1.2-.30005.3-.5.5-.5.9a9.96979,9.96979,0,0,0-1.2,1.9,7.20325,7.20325,0,0,1-1.19995,1.9,5.06017,5.06017,0,0,0-1.4,1.7c-.30005.5-.9,1.2-1.4,1.9l-1.9,2.8c-.3.3-.9.9-1.19995,1.2s-.9.9-1.2,1.2a14.20338,14.20338,0,0,1-4,3.1,45.28861,45.28861,0,0,1-4.5,2.2,6.09753,6.09753,0,0,1-3.6,1.7c-1.7.3-2.8.9-4,.9-1.2.3-2.6.5-4,.9a8.98948,8.98948,0,0,1-4,0,12.88555,12.88555,0,0,1-4.8,0,8.54794,8.54794,0,0,1-4.5-1.2,10.47586,10.47586,0,0,1-2.80005-1.4l-2.6-1.7c-.5-.3-1.2-.9-1.7-1.2a8.31165,8.31165,0,0,0-1.69995-1.2l-1.4-1.4a8.84838,8.84838,0,0,0-1.7-1.2l-1.69995-1.2a7.20344,7.20344,0,0,0-1.2-1.9,4.54959,4.54959,0,0,0,.9-1.2c.30005-.3.5-.9.9-1.2l2.6-2.6,1.7-2.2a6.46009,6.46009,0,0,1,2.6-1.7,2.57257,2.57257,0,0,1,1.4.5c1.19995.3,1.4.5,1.69995.5.30005.3.5.5.9.9a5.7941,5.7941,0,0,1,1.4,1.2c.19995.3.9.5,1.4,1.2a13.501,13.501,0,0,0,6.7,2.6A19.28436,19.28436,0,0,0,898.80005,543.4Z"/><path d="M856.5,677.8l.9-18.3h0v-.3a33.91707,33.91707,0,0,1-.9-7.3A18.66915,18.66915,0,0,1,858.7,641.5L861.5,635.6l3.6-.9-.3-2.8v-.5l-.30005-1.7.5-3.1v-2.2c-.3-1.2-.5-2.6-.9-4.1,0-.5-.3-1.2-.3-1.7a2.46557,2.46557,0,0,0-.3-1.2,30.58712,30.58712,0,0,1-1.2-4.8,1.2087,1.2087,0,0,0-.3-.9l-.30005-1.7a9.44671,9.44671,0,0,1,0-4.1v-1.2l-8.1,2.2-5-10.4a21.60851,21.60851,0,0,1-1.9-9,4.67741,4.67741,0,0,0-.3-2.2v-4.8l.3-.9c0-.9.30005-1.7.30005-2.8v-1.2l1.4-11.2,7.9-1.9a6.308,6.308,0,0,1,2.2-.5h.3l6.2-1.2-.5-.5-3.5-2.2-1.2-1.4a21.80726,21.80726,0,0,1-3.5-5.7l-3.5-8.6,6.2-5.9a10.75662,10.75662,0,0,1,1.9-2.2l1.7-1.7,1.4-1.9a19.0497,19.0497,0,0,1,10.4-6.7l1.4-.3h1.4a17.06385,17.06385,0,0,1,10.69995,3.6c.5.3.9.9,1.4,1.2.3.3.3.3.5.5s.9.5,1.2.9c.3,0,.3,0,.5.3h3.8a12.75673,12.75673,0,0,0,4.8-1.9,14.14987,14.14987,0,0,0,2.80005-3.6,10.2331,10.2331,0,0,1,1.4-2.2,15.74866,15.74866,0,0,1,8.1-7.1l1.19995-.5,1.2-.3a17.38671,17.38671,0,0,1,13,1.9l3.5,2.2a15.22393,15.22393,0,0,1,3.6,1.9l.5.5,6.7,4.5-.5,8.1c-.30005,1.9-.5,5-2.2,7.9a3.77877,3.77877,0,0,1-.9,1.2h1.69995l8.1-.3,4.5,4.1a16.52876,16.52876,0,0,1,4.80005,10.7v3.6a4.67741,4.67741,0,0,0,.3,2.2v.9a23.61324,23.61324,0,0,1-.9,9l-1.7,6.4-5.9,2.8a1.00806,1.00806,0,0,1-.9.3c.3,4.1.5,7.9.9,10.9.5,3.5.9,6.2,1.2,8.6s.3,5,.5,7.3a16.68482,16.68482,0,0,0,.5,3.1h0l1.69995.3a1.20877,1.20877,0,0,1,.9.3l6.4,4.1,4.5,7.6a13.82343,13.82343,0,0,1,.3,3.6v2.7l.30005.9a26.72025,26.72025,0,0,0,.9,2.6l3.1,9-7.1,6.4a21.87544,21.87544,0,0,1-8.1,4.5l-1.4.5-5.9,1.7a14.15155,14.15155,0,0,1-5.9,1.4c-.5,0-1.2.3-1.7.3-.9,0-1.9.3-3.1.3h-.9c-.5,0-1.19995.3-1.69995.3h-.30005a20.09319,20.09319,0,0,1-5,1.2c-.9,0-1.69995.3-2.8.3h-2a18.11781,18.11781,0,0,1-6.2,1.4H915.8999l-5,2.8a7.6784,7.6784,0,0,0-2.2.9c-1.19995.3-1.9.5-3.1.9l-1.4.3-1.9.3-3.1.9c-1.69995.3-3.1.5-4.8.9-.9,0-1.4.3-2.2.3l-4.8,1.2c-.9.3-1.9.5-2.80005.9l-1.9.5-4.1.9ZM937.30005,659ZM865.6,642.9ZM966,632.6Zm0-.9ZM864.6,630Zm.4-5.1Zm0-.3Zm26.9-94.7ZM915.7,526.8Z"/><path class="cls-8" d="M619.1,597.7l.3,1.4a19.70682,19.70682,0,0,1-3.6,10.4c-3.5,5.4-9.5,9.5-18.3,13-4.1,1.9-7.1,3.1-8.5,3.1l-3.5.3-9,2.8-4,.3a28.68658,28.68658,0,0,1-4.5,1.7l-2.2.3-6.4,1.4-4,1.2a3.46333,3.46333,0,0,1-3.1-1.7,17.20444,17.20444,0,0,1-1.4-4l-.5-5.7a45.8086,45.8086,0,0,0-.9-5l2.2-3.1,7.1-1.2a27.54359,27.54359,0,0,0,6.4-1.9h1.2c1.9.5,4.1.5,7.6,0,.9-.3,4.5-1.4,11.2-4l4-1.4,2.8-2.2,4.5-2.2c.5-.3,1.4-1.4,2.8-4l1.2-3.1c1.2-4.5.3-9.5-2.8-14.9a13.94283,13.94283,0,0,0-7.6-6.7,26.0927,26.0927,0,0,0-8.6-1.9c-1.2-.3-2.2-.3-3.5-.5l-11.2,1.9-.5-4-.3-3.6-1.2-4.1-.3-4.1,9.5-2.6a43.17377,43.17377,0,0,0,14.9-8.1,30.20181,30.20181,0,0,1,3.1-3.1c1.7-2.6,1.2-6.7-1.7-12.1a9.07572,9.07572,0,0,0-3.1-4c-.9-.5-1.4-1.4-2.2-2.2-5.7-3.5-11.7-3.6-18.8-1.7-1.7.5-4.5,2.2-8.5,5l-1.4.5a35.99951,35.99951,0,0,0-5.4,1.2l-7.1,2.2-2.8-2.2a39.60684,39.60684,0,0,0-.3-5.7l-.5-5.7a22.70684,22.70684,0,0,1,.3-4.5,3.67917,3.67917,0,0,1,2.6-3.1l4-.9,4.8-1.2a14.84185,14.84185,0,0,0,4.1-1.2h.3c2.8-.9,5.7-1.9,8.6-3.1l13.5-2.6a30.93286,30.93286,0,0,1,10.2.9l9,2.6c5.9,5.7,9.8,9.8,11.7,13.1l1.69995,4c2.80005,5.9,3.6,10.7,2.6,14.3a33.24236,33.24236,0,0,0-3.1,5.4l-3.1,5.7c-3.1,2.8-5,5.4-5.7,7.3a55.13987,55.13987,0,0,0,6.7,4.1,54.5035,54.5035,0,0,1,5,6.4c1.19995,1.9,1.9,4,3.1,5.9,2.2,4.1,3.5,10.4,3.5,18l-.9,6.2Z"/><path class="cls-8" d="M630.5,586.2a19.73559,19.73559,0,0,1,.9-6.2,16.36357,16.36357,0,0,1,2.8-4.8,34.70054,34.70054,0,0,1,4-4.5,83.019,83.019,0,0,1,9-6.2c3.30005-2.1,6.4-3.6,9.80005-5.7a49.97083,49.97083,0,0,1,9.8-5l11.7-4.5a69.93122,69.93122,0,0,0,11.19995-4.8,3.814,3.814,0,0,0,.30005-1.9v-2.6a12.28211,12.28211,0,0,0-1.4-3.6c-.5-.9-1.9-1.7-4-1.9a18.89188,18.89188,0,0,0-5-.9,29.72242,29.72242,0,0,0-5.4-.3,7.71683,7.71683,0,0,0-2.6-.3h-1.69995c-.5,0-.9.3-1.2.3a10.923,10.923,0,0,0-3.6,1.2,16.28211,16.28211,0,0,1-4.1,1.7,3.82928,3.82928,0,0,0-.5,1.9v1.7a8.19346,8.19346,0,0,0-.9,1.7c-.30005.5-.9,1.4-1.4,2.2a14.64791,14.64791,0,0,1-3.5,4.5,30.64555,30.64555,0,0,1-5.7,3.5,15.06275,15.06275,0,0,1-3.5,1.4c-.5,0-1.19995.3-1.69995.3a9.51167,9.51167,0,0,1-5-.9,14.355,14.355,0,0,0-2.2-1.9l-2.19995-2.2a16.80333,16.80333,0,0,1-1.7-4.1,23.79119,23.79119,0,0,1-.5-2.6,13.65891,13.65891,0,0,1,0-3.5,25.6658,25.6658,0,0,1,1.9-4,18.11357,18.11357,0,0,1,2.80005-4,38.18475,38.18475,0,0,1,4.5-4.5l5.4-4.5c1.9-1.4,4-2.8,5.9-4.1a11.65341,11.65341,0,0,1,5.4-3.1,26.73584,26.73584,0,0,1,4.5-1.2,37.03131,37.03131,0,0,1,9.8-1.2c4.5,0,9,0,13.1.3l5,.3a19.83183,19.83183,0,0,1,4.1.5,2.63223,2.63223,0,0,1,1.9,1.4,14.35281,14.35281,0,0,1,1.9,2.2c.9.5,1.4,1.4,2.6,2.2a5.90924,5.90924,0,0,1,1.69995,2.8,22.45485,22.45485,0,0,1,1.4,4.8c.3,1.4.5,2.6.9,4v6.8c0,1.9.3,4,.3,5.9a38.87776,38.87776,0,0,1,.30005,5.9,7.71522,7.71522,0,0,1-.30005,2.6c0,.9-.3,1.7-.3,2.6a39846682539888.26,39846682539888.26,0,0,0,.6001,9c.3,2.6.5,4.8.9,7.1.5,2.2,1.2,4.5,1.7,6.4.3.9.5,1.7.9,2.8a4.54357,4.54357,0,0,0,1.69995,1.7,3.06115,3.06115,0,0,0,2.2-2.2c.3-1,.5-2.2.9-3.5l1.2-3.5a4.77225,4.77225,0,0,1,1.69995-2.6h.30005c.5-.3,1.4,0,2.19995.3,1.2.5,1.9,1.2,3.1,1.7s1.69995,1.2,2.6,1.4a9.82591,9.82591,0,0,0,2.19995.5,1.74318,1.74318,0,0,1,1.7,1.2v.5a7.71522,7.71522,0,0,1-.30005,2.6l-1.19995,2.8c-.30005,1.2-.30005,2.6-.5,3.5a7.91179,7.91179,0,0,1-.9,3.5,17.9837,17.9837,0,0,1-4.1,5.4,20.58928,20.58928,0,0,1-6.4,4.1,13.8322,13.8322,0,0,1-4.5,1.7,8.91746,8.91746,0,0,1-2.8.3,15.21042,15.21042,0,0,1-6.4-1.2,20.64644,20.64644,0,0,1-3.1-1.7c-1.4-.8-2.2-1.4-2.80005-1.4a3.23618,3.23618,0,0,0-1.9,1.7c-.9.9-1.69995,1.7-2.19995,2.2a82.30374,82.30374,0,0,1-9,5.4c-3.5,1.9-7.1,3.5-10.4,5l-3.1,1.4c-1.4.3-2.6.9-4,1.2-.5,0-1.2.3-1.7.3-1.19995.3-1.9.3-2.8.5a19.34478,19.34478,0,0,1-4.1.3,24.28407,24.28407,0,0,1-6.7-1.7,36.50449,36.50449,0,0,1-6.19995-3.5,28.30263,28.30263,0,0,1-3.1-2.6,36.96752,36.96752,0,0,1-2.8-2.8,8.1114,8.1114,0,0,0-1.7-1.9,13.62225,13.62225,0,0,0-1.69995-1.7,15.9739,15.9739,0,0,1-2.2-5.4,33.11008,33.11008,0,0,1-.9-5C630.9,587.3,630.9,586.8,630.5,586.2Zm22.80005-.3c.3.9,1.19995,1.4,2.19995,1.9a9.54784,9.54784,0,0,0,3.6.9,20.22132,20.22132,0,0,0,6.7-1.2l7.6-2.2a22.57248,22.57248,0,0,0,5.4-2.8c1.4-1,3.1-2.2,4.8-3.5a23.24724,23.24724,0,0,1,2.8-1.9,2.62154,2.62154,0,0,0,1.7-1.7,13.31124,13.31124,0,0,0,.5-1.9v-2.6c0-1.7.3-3.5.3-4.8v-.5a13.2766,13.2766,0,0,0-1.2-4h-.3c-1.9,1.2-4,2.2-6.4,4a32.74855,32.74855,0,0,1-8.5,4.5c-2.6.5-4.80005,1.2-7.1,1.4a2.38221,2.38221,0,0,1-1.4.3,14.391,14.391,0,0,0-4.80005,1.7,7.73216,7.73216,0,0,0-2.6,1.7l-1.9,1.9a8.78537,8.78537,0,0,0-1.9,4,16.29027,16.29027,0,0,0-.30005,3.6A1.41055,1.41055,0,0,1,653.30005,585.9Z"/><path class="cls-8" d="M355,799.6l-.3-3.6a16.68007,16.68007,0,0,0-.5-3.1v-.5a3.44467,3.44467,0,0,1,.3-1.9,16.4771,16.4771,0,0,1,4.5-1.9c.3,0,.5-.3.9-.3l6.2-1.4c.3,0,.5-.3,1.2-.3a18.41634,18.41634,0,0,0,4.8-1.7,2.90808,2.90808,0,0,0,.3-1.4,1.20887,1.20887,0,0,0-.3-.9l-.5-2.6c0-1.2-.3-1.9-.3-3.1s-.3-1.9-.3-3.1l-.5-6.7a38.88558,38.88558,0,0,1-.3-5.9c0-1.9-.3-4.1-.3-6.2l-1.2-11.2c-.3-2.6-.5-5-.9-7.6-.3-1.4-.3-2.6-.5-4a85.28038,85.28038,0,0,1-.9-11.6v-6.7a6.12654,6.12654,0,0,0-.9-3.1,7.30055,7.30055,0,0,0-3.6,0c-.3,0-.3,0-.5.3a37.44462,37.44462,0,0,1-4.5,1.2l-7.9,1.4a10.88357,10.88357,0,0,1-1.2-3.5,17.11507,17.11507,0,0,1-.3-4V703c-.3-1.2-.5-1.9-.9-3.1a2.908,2.908,0,0,1-.3-1.4v-1.7l9.8-2.6a2.65409,2.65409,0,0,1,1.4-.5,2.07771,2.07771,0,0,1,1.2-.5l6.2-1.7c1.9-.9,4-1.7,6.2-2.6,1.2-.3,2.2-.9,3.1-1.2,1.2-.3,2.2-.3,3.5-.5a3.8298,3.8298,0,0,1,.5,1.9v1.8a2.83234,2.83234,0,0,0,.5,1.7,11.183,11.183,0,0,0,4.8-2.6,36.01221,36.01221,0,0,1,4-3.1c.3-.3.9-.5,1.4-.9l2.6-1.4,1.4-.9,1.4-.5,1.4-.3a24.26774,24.26774,0,0,0,2.8-1.4,3.8298,3.8298,0,0,1,1.9-.5c.3,0,.9-.3,1.2-.3a11.21318,11.21318,0,0,1,4.5,0,15.23772,15.23772,0,0,1,4,1.2c1.4.7,2.8,1.2,4,1.7a28.35545,28.35545,0,0,1,3.5,2.2,24.7178,24.7178,0,0,1,3.6,2.6c1.4,1.2,2.6,1.7,3.5,2.6a60.457,60.457,0,0,1,3.5,5,43.42471,43.42471,0,0,1,2.8,6.2l.9,1.9a16.30975,16.30975,0,0,0,.9,1.9l.3,1.7v1.80005c0,.5.3,1.2.3,1.7l.5,1.7a19.34159,19.34159,0,0,1,0,5.9c-.3,1.9-.5,4-.9,6.2v4.1a21.24956,21.24956,0,0,1-.3,4.5c-.3.5-.3,1.2-.9,1.7a5.31531,5.31531,0,0,1-1.2,2.2c-.5,1.9-1.2,4.1-1.7,6.7a24.64756,24.64756,0,0,1-2.2,6.2c-.5.9-1.4,1.9-2.2,3.5a28.03057,28.03057,0,0,1-2.6,3.6c-.9,1.2-1.7,2.2-2.6,3.5a14.37954,14.37954,0,0,1-3.6,3.1c-1.4,1.2-3.5,2.2-5.4,3.5a31.4763,31.4763,0,0,1-5,1.9c-.9,0-1.4.3-1.9.3l-1.2-.3h-1.4l-3.6.3a12.69355,12.69355,0,0,1-3.5-.3c-.9-.3-2.2-.5-3.6-.9a2.7556,2.7556,0,0,0-2.2,0c-.3,0-.5.3-.9.3a5.75247,5.75247,0,0,0-.5,2.8v3.5l.3,3.5a10.62774,10.62774,0,0,0,.3,1.4v1.4a6.27483,6.27483,0,0,0,5.4.5h.5l7.3-1.7h1.4a3.41614,3.41614,0,0,0,1.7-.3,13.22723,13.22723,0,0,0,3.5-1.2c.3-.3.9-.3,1.4-.5a4.04327,4.04327,0,0,1,1.9,0,12.73713,12.73713,0,0,1,1.7,5.4l.9,7.1a11.93144,11.93144,0,0,0,.5,2.6v.5a4.21647,4.21647,0,0,1-.3,1.9c-1.4.3-3.1.9-4.8,1.2-3.1.9-6.4,1.4-9.8,2.6-2.6.5-5,1.4-7.9,1.9-2.6.5-5.4,1.2-7.9,1.7h-2.6a11.93076,11.93076,0,0,0-2.6.5,16.679,16.679,0,0,0-3.1.5c-1.2.3-1.9.5-3.1.9-1.2.3-1.9.5-3.1.9a16.67924,16.67924,0,0,0-3.1.5h-6.1c-.5,0-1.2,0-1.4-.5a3.86352,3.86352,0,0,1-.9-2.8c0-.5-.3-1.2-.3-1.9C355.1,801.2,355,800.5,355,799.6Zm39.5-47.7a23.05986,23.05986,0,0,0,9-.9,17.85739,17.85739,0,0,0,4-1.2,14.54537,14.54537,0,0,0,3.6-2.6c1.4-1.4,2.6-2.6,2.8-3.5a20.21711,20.21711,0,0,0,1.2-3.1c.5-1.4.9-2.6,1.2-3.5,0-.5.3-1.4.3-2.2v-2.2l.5-2.2c0-.9.3-1.4.3-2.2a9.89336,9.89336,0,0,0-.3-3.1c-.3-1.7-.5-3.1-.9-4.8-.5-2.6-1.2-4.8-1.7-7.1a9.55783,9.55783,0,0,0-1.2-3.6,6.05484,6.05484,0,0,0-1.4-2.8c0-.3-.3-.5-.9-.9l-1.4-.9a8.91791,8.91791,0,0,0-3.5-2.2c-1.2-.5-2.6-.9-4-1.4a29.36423,29.36423,0,0,0-5.7-.5,7.15889,7.15889,0,0,0-2.6.3,31.87247,31.87247,0,0,0-3.5,1.4c-1.4.9-2.8,1.7-4.1,2.6a10.90054,10.90054,0,0,0-3.6,3.5c.5,7.1,1.2,14,1.2,20.6,0,6.4.3,13,.9,19.3A18.12785,18.12785,0,0,0,394.5,751.9Z"/><path class="cls-8" d="M442,731.4a16.63232,16.63232,0,0,1,.9-5.7,9.90625,9.90625,0,0,1,2.6-4.1,34.23155,34.23155,0,0,1,3.6-4,48.00507,48.00507,0,0,1,8.1-5.7c3.1-1.7,5.9-3.5,9-5a36.093,36.093,0,0,1,9-4.5l10.4-3.6c3.5-1.2,6.7-2.6,10.2-4.1a3.41614,3.41614,0,0,0,.3-1.7v-2.6a8.50325,8.50325,0,0,0-1.2-3.5,5.04766,5.04766,0,0,0-3.5-1.7c-1.4-.3-3.1-.5-4.5-.9a24.24951,24.24951,0,0,0-4.8-.3,2.79865,2.79865,0,0,0-2.2,0h-1.7c-.3,0-.9.3-1.2.3a13.22783,13.22783,0,0,0-3.5,1.2,36.65155,36.65155,0,0,1-3.6,1.4,3.68641,3.68641,0,0,0-.5,1.7v1.7c-.3.3-.5.9-.9,1.4a11.545,11.545,0,0,1-1.4,1.9,13.39887,13.39887,0,0,1-3.1,4.1,14.78762,14.78762,0,0,1-5,3.1,19.77924,19.77924,0,0,1-3.1,1.2c-.5,0-1.2.3-1.7.3a8.11338,8.11338,0,0,1-4.5-.9,16.24025,16.24025,0,0,0-1.9-1.7l-2.2-1.9a8.70894,8.70894,0,0,1-1.4-3.6,5.8326,5.8326,0,0,1-.3-2.2v-3.1c.3-.9.9-1.9,1.7-3.6a18.65375,18.65375,0,0,1,2.6-3.6,51.37733,51.37733,0,0,1,4-4.1l4-4.5a31.71849,31.71849,0,0,1,5.4-3.6,16.818,16.818,0,0,1,5.7-2.8c1.4-.3,2.6-.9,4-1.2a55.53754,55.53754,0,0,1,9-1.2c4.1,0,8.1,0,11.7.3l4.5.3a13.30707,13.30707,0,0,1,3.6.5,4.50334,4.50334,0,0,1,1.9,1.4c.5.5,1.2,1.4,1.7,1.9a14.35331,14.35331,0,0,0,2.2,1.9,4.03353,4.03353,0,0,1,1.7,2.2c.5,1.4.9,2.8,1.4,4.5a31.52466,31.52466,0,0,0,.9,3.6v6.4c0,1.7.3,3.6.3,5.4a16.30089,16.30089,0,0,1,0,5.4,5.34449,5.34449,0,0,1-.3,2.2,6.36787,6.36787,0,0,0-.3,2.2,1613517.65363,1613517.65363,0,0,0,.6,8c.3,2.2.5,4.1.9,6.2.5,1.9,1.2,4,1.7,5.9a26.70517,26.70517,0,0,0,.9,2.6,5.45116,5.45116,0,0,0,1.7,1.7,3.8309,3.8309,0,0,0,2.2-1.9c.3-.9.5-1.9.9-2.8l.9-3.1c.3-1.2.5-1.9,1.4-2.2h.3a2.18976,2.18976,0,0,1,1.9.3,10.4732,10.4732,0,0,1,2.8,1.4c.9.5,1.7.9,2.2,1.2a4.48591,4.48591,0,0,0,1.9.5,1.50828,1.50828,0,0,1,1.4.9v.5a5.34449,5.34449,0,0,1-.3,2.2l-.9,2.6c-.3,1.2-.3,2.2-.5,3.1a4.47,4.47,0,0,1-.9,2.8,13.89883,13.89883,0,0,1-4,4.8,21.14972,21.14972,0,0,1-5.7,3.6,13.30413,13.30413,0,0,1-4,1.7,7.717,7.717,0,0,1-2.6.3,20.12569,20.12569,0,0,1-5.9-.9c-.5-.3-1.7-.9-2.8-1.4a4.41015,4.41015,0,0,0-2.6-1.2,4.13524,4.13524,0,0,0-2.2,1.4,9.3189,9.3189,0,0,1-2.2,1.9,46.97224,46.97224,0,0,1-8.1,5c-3.1,1.5-6.2,3.1-9.5,4.5l-2.8,1.2c-1.2.5-2.2.9-3.5,1.4a10.628,10.628,0,0,0-1.4.3,23.8197,23.8197,0,0,1-2.6.5,17.11507,17.11507,0,0,1-4,.3,27.18044,27.18044,0,0,1-6.2-1.7c-1.7-.9-3.6-1.9-5.7-2.8-1.2-.9-1.9-1.4-2.8-2.2a9.10662,9.10662,0,0,1-2.6-2.6,6.99578,6.99578,0,0,1-1.4-1.7,6.99578,6.99578,0,0,1-1.4-1.7,13.35723,13.35723,0,0,1-1.9-4.8c-.3-1.4-.5-3.1-.9-4.8A19.73977,19.73977,0,0,0,442,731.4Zm20.2-.2a5.277,5.277,0,0,0,1.9,1.7,8.6455,8.6455,0,0,0,3.5.9,27.86985,27.86985,0,0,0,6.2-.9l6.7-1.9a29.6475,29.6475,0,0,0,4.8-2.6,48.51569,48.51569,0,0,1,4.1-2.8,29.34972,29.34972,0,0,0,2.6-1.7,10.48019,10.48019,0,0,0,1.7-1.4,3.81465,3.81465,0,0,0,.3-1.9v-2.4c0-1.7.3-3.1.3-4.5v-.5a10.92275,10.92275,0,0,0-1.2-3.6h-.5c-1.7.9-3.6,2.2-5.7,3.6a34.17061,34.17061,0,0,1-7.6,4c-2.2.5-4.1.9-6.2,1.4-.3,0-.9.3-1.2.3a28.27412,28.27412,0,0,0-4.1,1.4,10.23074,10.23074,0,0,0-2.2,1.4l-1.7,1.7a16.31877,16.31877,0,0,0-1.7,3.5,13.434,13.434,0,0,0-.3,3.5C462.2,730.3,462.2,730.5,462.2,731.2Z"/><path class="cls-8" d="M562.3,658.6l-2.2.5a26.89408,26.89408,0,0,0,.3,5,24.32487,24.32487,0,0,0,.3,4l.3,2.8.5,2.8.5,2.6c.3.9.5,1.7.9,1.9l.3,1.2a5.34461,5.34461,0,0,0,2.2-.3l10.2-2.2a65.16821,65.16821,0,0,1,9.8-1.7c3.1-.3,6.4-.5,9.3-.9,3.6.9,6.2,2.2,7.9,4.1a26.59753,26.59753,0,0,1,5,4.5,13.81044,13.81044,0,0,1,2.8,3.1c.9,1.4,1.4,4.5,1.9,9.5.3,5,.3,8.6-.5,10.4a35.24108,35.24108,0,0,1-1.9,4.1,28.36176,28.36176,0,0,1-2.2,3.5,13.797,13.797,0,0,0-4.8,3.6c-.9.9-1.7,1.4-2.2,1.9-.9.5-1.4.9-1.9,1.2a34.14829,34.14829,0,0,0-3.6,1.4c-1.2.3-4.8,1.7-11.2,3.6a45.7248,45.7248,0,0,1-7.6.9c-.5.3-1.4.5-2.2.9a10.79839,10.79839,0,0,0-2.8.5c-2.6.5-5,1.2-7.3,1.4-2.2.5-4.5.9-6.7,1.4l-2.8.9c-.9.3-1.9.5-2.8.9l-4.1.9c-1.4.3-3.1.5-4.5.9l-.3-1.2a16.64019,16.64019,0,0,0-.5-2.8l-.5-4.5a6.87012,6.87012,0,0,1,.9-3.6,15.80915,15.80915,0,0,0,3.5-.9,7.33922,7.33922,0,0,1,2.6-2.2,7.39721,7.39721,0,0,0,.5-3.1,14.2109,14.2109,0,0,0-.3-3.5,1.80375,1.80375,0,0,1,.3-1.2v-1.4a1.20881,1.20881,0,0,0-.3-.9c-.3-.3-.3-.9-.5-1.2v-3.8l-.3-3.5c-.3-1.2-.3-2.6-.5-3.6,0-.5-.3-1.2-.3-1.7a3.81478,3.81478,0,0,1-.3-1.9c-.3-1.7-.5-3.5-.9-5-.3-1.6-.9-3.5-1.2-5v-.9l.3-1.2c-.3-3.1-.9-6.2-1.4-9-.5-3.1-1.2-5.4-1.4-7.3a6.65785,6.65785,0,0,0-2.2-.3c-.3,0-.5.3-.9.5l-6.2,1.7a4.76733,4.76733,0,0,1-.5-2.2v-1.7l-.3-2.2a17.21723,17.21723,0,0,1-.3-3.6l.3-3.5a9.89924,9.89924,0,0,0,.3-2.8h.3l.3-.3,13-2.6,6.4-.9,6.2-1.4,1.7-.5,6.2-1.7c5.7-1.4,11.7-2.8,18-4.1l1.4-.3c1.9-.5,4-1.2,6.2-1.9a26.70424,26.70424,0,0,0,2.6-.9l1.2-.3c1.2-.3,1.9-.3,2.2,0a1.36381,1.36381,0,0,1,.5,1.2,2.717,2.717,0,0,1-.3,1.4,10.8843,10.8843,0,0,0-.3,3.1,22.76708,22.76708,0,0,0,.3,4.8c.3,1.4.5,2.8.9,4.5v1.2c0,.5.3,1.2.3,1.9a37.87427,37.87427,0,0,1,1.2,3.6,3.59217,3.59217,0,0,1-.5,3.1,13.96176,13.96176,0,0,0-1.7.9l-.9.3-3.5.5a15.385,15.385,0,0,0-2.8.9,8.31488,8.31488,0,0,1-2.8.3,23.85263,23.85263,0,0,1-1.9-5.7,26.70424,26.70424,0,0,0-.9-2.6v-.3c0-.3-.5-.3-1.4,0l-.9.3-17.4,3.1Zm4.1,35.5.5,2.2c0,.5-.3,1.4,0,1.9a22.70674,22.70674,0,0,0,.3,4.5c-.5,1.4-.5,3.5-.5,6.2v.5c.3,0,.5.3,1.2.5a13.98955,13.98955,0,0,0,5,0c1.2-.3,2.8-.5,5-.9l7.1-1.4a40.9158,40.9158,0,0,0,5.9-1.9,10.111,10.111,0,0,0,2.8-2.2,13.58321,13.58321,0,0,0,1.4-4.1v-1.2a9.10679,9.10679,0,0,0-.9-3.1c-.9-1.2-1.7-1.9-2.2-2.6-.5-.3-1.2-.5-1.9-.9a4.48469,4.48469,0,0,0-2.6-.3,11.98439,11.98439,0,0,1-3.5-.3h-2.2c-1.9.3-4.1.5-6.4.9a43.81136,43.81136,0,0,0-7.9,1.2C566.8,694.1,566.4,694.1,566.4,694.1Z"/><path class="cls-8" d="M619.6,674.7a73.11493,73.11493,0,0,1-.3-10.4c.3-1.9.3-3.6.5-5a25.85741,25.85741,0,0,1,1.19995-4.8l1.7-5.7c.3-.3.5-.9.9-1.4.30005-.5.9-1.2,1.2-1.7.9-1.4,1.4-2.6,2.2-3.6.9-1,1.69995-2.2,2.8-3.6s2.6-2.6,3.6-4c1.4-1.4,2.80005-2.6,4.1-4,1.9-1.4,4-2.8,5.69995-4a32.10391,32.10391,0,0,1,6.7-3.1c1.19995-.3,1.9-.5,3.1-.9a30.22711,30.22711,0,0,1,5-.5c2.8,0,5.4.3,7.9.5.5,0,1.19995.3,1.9.3l1.4.3a11.54431,11.54431,0,0,1,1.9,1.4,5.22215,5.22215,0,0,0,1.9,1.4,24.14455,24.14455,0,0,0,2.8,1.4,6.46058,6.46058,0,0,1,2.6,1.7l.30005.3a.29385.29385,0,0,0,.3.3,4.95463,4.95463,0,0,0,1.7,1.2c.5.3,1.19995.9,1.69995,1.2a14.02489,14.02489,0,0,1,1.7,2.2l1.69995,2.6a5.73974,5.73974,0,0,1,1.9,2.2l.30005.9c0,.3.3.5.3.9a.53575.53575,0,0,0,.5.5c.2,0,.3.3.3.5v1.2a1.20868,1.20868,0,0,0,.30005.9,20.96744,20.96744,0,0,0,2.6,4.8,46.94964,46.94964,0,0,1,2.2,4.8,2.90752,2.90752,0,0,1,.3,1.4l.30005,1.7c.3,1.4.5,3.1.9,5a16.30686,16.30686,0,0,1,0,5.4,13.06358,13.06358,0,0,1-.5,2.2,15.16831,15.16831,0,0,1-.9,2.8,11.92808,11.92808,0,0,0-.5,2.6l-.5,2.2a7.68045,7.68045,0,0,1-.9,2.2,13.07478,13.07478,0,0,1-.9,2.6,26.7175,26.7175,0,0,1-.9,2.6,8.49518,8.49518,0,0,1-.9,1.9,19.24569,19.24569,0,0,1-3.1,4.1c-1.4,1.7-2.6,3.1-4,4.5a56.46681,56.46681,0,0,1-6.69995,5.7,86.75355,86.75355,0,0,1-8.6,4.1,39.72908,39.72908,0,0,1-6.2,1.9,1.80383,1.80383,0,0,1-1.2.3,23.58534,23.58534,0,0,1-4.8.5,17.11537,17.11537,0,0,1-4-.3c-1.4,0-2.6-.3-3.6-.3h-4.1a17.9844,17.9844,0,0,1-4-.3,4.24178,4.24178,0,0,1-2.2-.9l-2.19995-1.4a29.229,29.229,0,0,1-5-4,32.33134,32.33134,0,0,1-4.5-5.7c-.30005,0-.30005-.3-.5-.5l-.5-.5a17.59111,17.59111,0,0,1-1.7-4c-.5-1.7-.9-3.1-1.4-4.8C620.69995,681.6,620.1,678.3,619.6,674.7Zm20.20007,2.8a34.535,34.535,0,0,0,4.1,8.6,30.9254,30.9254,0,0,0,3.1,2.8,7.4537,7.4537,0,0,0,2.80005,1.9,14.87327,14.87327,0,0,0,5,.9A23.81026,23.81026,0,0,0,661,690.8c.30005,0,.9-.3,1.19995-.3a26.45106,26.45106,0,0,0,4.5-1.4,6.45411,6.45411,0,0,0,2.2-1.7c.9-.9,1.4-1.7,1.9-2.2a28.43131,28.43131,0,0,0,5-9.8c1.69995-4,1.9-8.1,1.4-13a24.68392,24.68392,0,0,0-3.5-10.2c-1.69995-2.6-3.1-4.8-4.8-7.1l-1.4-1.7c-.5-.5-.9-1.2-1.4-1.4a13.22647,13.22647,0,0,0-4-2.2,20.71809,20.71809,0,0,0-4.8-.9c-.3,0-.9.3-1.2.3a26.7096,26.7096,0,0,0-2.6.9c-1.19995.5-2.19995,1.2-3.5,1.7a54.96,54.96,0,0,0-5.69995,3.6c-1.9,1.4-3.5,2.6-4.1,4a16.82319,16.82319,0,0,0-2.8,7.3c-.2,2.4-.30005,5.7-.30005,8.6a32.00641,32.00641,0,0,0,.30005,5.4A47.53292,47.53292,0,0,1,639.80005,677.5Z"/><path class="cls-8" d="M697.4,634.8a1.80351,1.80351,0,0,0-.3-1.2v-1.7c-.3-.5-.3-1.2-.5-1.4l-.5-9a69.57179,69.57179,0,0,1,.3-8.1v-.5c0-.2.3-.3.5-.3,4-.9,8.1-1.9,13-3.5,4.5-1.2,8.6-2.6,13-3.5l4.5-1.4c.9,0,1.9-.3,3.1-.3s1.9-.3,2.80005-.3l1.4-.5,1.4-.3,4.5-.9a19.94863,19.94863,0,0,1,4.1-.5c.5,0,1.2-.3,1.7-.3a20.25843,20.25843,0,0,0,4.1-1.2,78.6612,78.6612,0,0,1,7.9-2.2,37.75422,37.75422,0,0,0,3.6-1.2,2.66117,2.66117,0,0,1,2.19995,0,2.16752,2.16752,0,0,1,.5,1.4v1.2c-.3,1.2-.3,2.2-.5,3.1a22.76187,22.76187,0,0,0,.30005,4.8,23.35475,23.35475,0,0,0,1.19995,4.5c0,1.2.30005,2.2.30005,3.5,0,.5.30005,1.2.30005,1.9,0,.5.3,1.2.3,1.9a16.2,16.2,0,0,0,.9,4c.3,1.4.9,2.8,1.4,4.5a25.02791,25.02791,0,0,0,1.19995,3.6c.30005,1.4.5,2.8.9,4.1v.5a3.149,3.149,0,0,1-.5,2.8,13.9611,13.9611,0,0,0-1.7.9c-.3,0-.5.3-.9.3a17.342,17.342,0,0,0-3.6.5,15.83078,15.83078,0,0,0-3.1.9,10.88384,10.88384,0,0,1-3.1.3,15.41179,15.41179,0,0,1-2.2-5.9c-.5-2.30005-.9-4.5-1.19995-6.7-.30005-1.2-.5-2.2-.9-3.5a302612.078,302612.078,0,0,1-.60009-3.4l-.3-3.1a6.12715,6.12715,0,0,0-.9-3.1v-.3c0-.3-.5-.3-1.4,0a1.20877,1.20877,0,0,0-.9.3l-4.1,1.2a5.16232,5.16232,0,0,1-1.9.3c-.3,0-.3,0-.5.3-.3,0-.9.3-1.19995.3a26.05515,26.05515,0,0,0-.30005,6.2,27.16937,27.16937,0,0,0,1.2,6.2c.7,2.1.9,4.1,1.4,6.2A56.72939,56.72939,0,0,1,745.5,642.4a42.91,42.91,0,0,1,.30005,6.2c0,2.2.3,4.5.5,7.1.5,3.1.9,5.9,1.4,9a25.79307,25.79307,0,0,0,1.7,6.4,24.25266,24.25266,0,0,0,4.5-.3c1.7-.3,3.5-.5,5.4-.9a32.31473,32.31473,0,0,0,5.69995-1.2c2.1-.7,3.6-.9,5.4-1.4.3.3.5.9.9,1.4,0,.3.3.9.3,1.4a9.55764,9.55764,0,0,0,.30005,2.8,5.48937,5.48937,0,0,0,.5,1.7,10.91566,10.91566,0,0,1,.5,1.7v5.1a2.57282,2.57282,0,0,1-.5,1.4c-1.7.5-3.5.9-5,1.4-1.7.3-3.5.9-5,1.2l-10.4,1.9a32.31563,32.31563,0,0,0-5.7,1.2,13.44841,13.44841,0,0,1-3.5.5,19.29164,19.29164,0,0,0-3.1.9l-9,2.2a26.70885,26.70885,0,0,0-2.6.9c-.5.3-1.2.3-1.4.5-.3,0-.5.3-.9.3a3.41591,3.41591,0,0,0-1.69995.3h-1.7c-1.69995.3-3.6.9-5.4,1.4a1.20875,1.20875,0,0,0-.9.3,21.24985,21.24985,0,0,1-4.5.3c-.30005-1.7-.30005-3.5-.5-5.4a22.24784,22.24784,0,0,1,0-4.5,8.71776,8.71776,0,0,1,1.4-4.8,37.13412,37.13412,0,0,1,4.1-1.2c1.9-.5,4-.9,5.9-1.2a20.30812,20.30812,0,0,0,5-1.2c1.4-.3,3.1-.9,4.80005-1.2a16.00318,16.00318,0,0,0,.3-5.9,13.73487,13.73487,0,0,0-.5-2.8,58.958,58.958,0,0,0-.9-9.5l-.30005-8.5c-.3-2.8-.9-5.4-1.4-7.9a7.68059,7.68059,0,0,0-.9-2.2,14.46205,14.46205,0,0,0-.9-2.2,19.94341,19.94341,0,0,1-.5-4.1c0-.5-.3-1.4-.3-1.9,0-2.2-.30005-4.1-.5-6.2a36.30579,36.30579,0,0,0-1.4-5.9,13.73227,13.73227,0,0,0-2.80005.5,15.17518,15.17518,0,0,0-2.8.9l-5.4,2.2c-.5,1.4-.5,3.1-.9,4.5v5a11.9629,11.9629,0,0,0,.3,3.1,3.41553,3.41553,0,0,0,.3,1.7c.30005,1.7.9,3.5,1.2,5.4.3,1.4.5,2.8.9,4.1v4a22.50756,22.50756,0,0,1-2.2.5c-1.4.3-3.1.5-4.8.9a22.50756,22.50756,0,0,1-2.2.5c-1.4.3-3.1.9-4.5,1.2a6.34054,6.34054,0,0,1-1.69995-3.1,13.77187,13.77187,0,0,1-1.2-3.6l-.9-4c-.3-1.4-.5-2.6-.9-4v-.9l.3-1.2c0-.3-.3-.5-.3-.9,0-.3-.30005-.5-.30005-.9C697.19995,635.7,697.19995,635,697.4,634.8Z"/><path class="cls-8" d="M778.6,638.1a73.11507,73.11507,0,0,1-.3-10.4c.3-1.9.3-3.6.5-5a19.79115,19.79115,0,0,1,1.19995-4.8l1.7-5.7c.3-.3.5-.9.9-1.4.30005-.5.9-1.2,1.2-1.7.9-1.4,1.4-2.6,2.2-3.6.9-1,1.69995-2.2,2.8-3.6,1-1.4,2.6-2.6,3.6-4,1.4-1.4,2.80005-2.6,4.1-4,1.9-1.4,4-2.8,5.69995-4a32.1034,32.1034,0,0,1,6.7-3.1c1.19995-.3,1.9-.5,3.1-.9a30.22819,30.22819,0,0,1,5-.5c2.8,0,5.4.3,7.9.5.5,0,1.19995.3,1.9.3l1.4.3a11.54489,11.54489,0,0,1,1.9,1.4,5.22218,5.22218,0,0,0,1.9,1.4,24.14428,24.14428,0,0,0,2.8,1.4,6.46069,6.46069,0,0,1,2.6,1.7l.30005.3c0,.3,0,.3.3.3a4.95449,4.95449,0,0,0,1.7,1.2c.5.3,1.19995.9,1.69995,1.2a14.02454,14.02454,0,0,1,1.7,2.2l1.69995,2.6a5.73981,5.73981,0,0,1,1.9,2.2l.30005.9c0,.3.3.5.3.9a.53575.53575,0,0,0,.5.5c.3,0,.3.3.3.5s.30005.5.30005.9a1.20864,1.20864,0,0,0,.3.9,20.96727,20.96727,0,0,0,2.6,4.8,46.94866,46.94866,0,0,1,2.19995,4.8,2.9075,2.9075,0,0,1,.30005,1.4l.3,1.7c.3,1.4.5,3.1.9,5a14.01312,14.01312,0,0,1,0,5.4,13.0635,13.0635,0,0,1-.5,2.2,18.03577,18.03577,0,0,1-.9,2.8,23.791,23.791,0,0,0-.5,2.6l-.9,2.8a7.68075,7.68075,0,0,1-.9,2.2,14.46159,14.46159,0,0,1-.9,2.2,26.72008,26.72008,0,0,1-.9,2.6,4.41386,4.41386,0,0,0-.5,1.9,19.24594,19.24594,0,0,1-3.1,4.1c-1.4,1.7-2.6,3.1-4,4.5a56.46669,56.46669,0,0,1-6.7,5.7,86.75127,86.75127,0,0,1-8.6,4.1,39.73019,39.73019,0,0,1-6.2,1.9c-.3,0-.9.3-1.2.3a23.58536,23.58536,0,0,1-4.8.5,17.1149,17.1149,0,0,1-4-.3,16.34228,16.34228,0,0,0-3.6-.5h-4.1a18.43454,18.43454,0,0,1-4-.3,4.24173,4.24173,0,0,1-2.19995-.9l-2.2-1.4a29.2295,29.2295,0,0,1-5-4,32.33134,32.33134,0,0,1-4.5-5.7c-.3,0-.3-.3-.5-.5l-.5-.5a17.59151,17.59151,0,0,1-1.69995-4c-.5-1.7-.9-3.1-1.4-4.8C779.80005,645.2,779.30005,641.5,778.6,638.1Zm20.20007,2.9a34.535,34.535,0,0,0,4.1,8.6,30.9254,30.9254,0,0,0,3.1,2.8,7.4537,7.4537,0,0,0,2.80005,1.9,14.87327,14.87327,0,0,0,5,.9A23.81026,23.81026,0,0,0,820,654.3c.30005,0,.9-.3,1.19995-.3a26.45106,26.45106,0,0,0,4.5-1.4,6.45411,6.45411,0,0,0,2.2-1.7c.9-.9,1.4-1.7,1.9-2.2a28.43131,28.43131,0,0,0,5-9.8,32.4626,32.4626,0,0,0,.9-13,24.68392,24.68392,0,0,0-3.5-10.2c-1.69995-2.6-3.1-5-4.8-7.1l-.9-1.7c-.5-.5-.9-1.2-1.4-1.4a13.22647,13.22647,0,0,0-4-2.2,20.71809,20.71809,0,0,0-4.8-.9c-.3,0-.9.3-1.2.3a26.7096,26.7096,0,0,0-2.6.9c-1.19995.5-2.19995,1.2-3.5,1.7a54.96,54.96,0,0,0-5.69995,3.6c-1.9,1.4-3.5,2.6-4.1,4a16.82319,16.82319,0,0,0-2.8,7.3c-.2,2.4-.30005,5.7-.30005,8.6a32.00641,32.00641,0,0,0,.30005,5.4A40.00761,40.00761,0,0,1,798.80005,641Z"/><path class="cls-8" d="M860.6,586.8c0-.9-.3-1.4-.3-2.2v-2.2a3.41553,3.41553,0,0,0,.3-1.7,3.41563,3.41563,0,0,1,.3-1.7c0-.5,0-1.2.3-1.4a2.38181,2.38181,0,0,1,.30005-1.4h.3l.30005-.3,13.1-2.6,6.4-.9,6.19995-1.4,3.5-1.2,4.5-1.2a5.20945,5.20945,0,0,1,3.1,0,1.38444,1.38444,0,0,1,.3,1.4,5.41324,5.41324,0,0,0-.3,1.9c0,.5.3,1.2.3,1.7a5.4891,5.4891,0,0,0,.5,1.7,11.97833,11.97833,0,0,1,.9,3.5c-.5.3-1.7.9-2.80005,1.4l-5.69995,1.4-2.80005.9v2.6a7.71536,7.71536,0,0,0,.30005,2.6,23.788,23.788,0,0,1,.5,2.6c0,.9.3,1.9.3,2.8l.30005,2.8,2.19995,11.7,8.6-7.6,4-4,3.5-1.9,5.7-5.7,3.5-2.8c.3-.3.9-1.2,1.4-1.7a2.09167,2.09167,0,0,1-.30005-1.4l-1.69995-7.3c0-.3-.30005-.3-.5-.5a9.93331,9.93331,0,0,0-3.1,1.2,4.30821,4.30821,0,0,1-2.8.5,14.89311,14.89311,0,0,1-1.4-5.4,33.24842,33.24842,0,0,1,.30005-5.7l4.5-1.2c.9,0,1.69995-.3,2.19995-.3a13.05557,13.05557,0,0,0,2.2-.5,2.82111,2.82111,0,0,0,1.69995-.9,1.00807,1.00807,0,0,1,.9-.3c.4,0,.5-.3.9-.3l2.8-.5a5.38342,5.38342,0,0,0,3.1-.9l1.19995-.3c.30005,0,.5,0,.5-.3a.68947.68947,0,0,0,.5-.3,7.65257,7.65257,0,0,1,2.2-.3c.5,0,1.4-.3,2.6-.3a2.39956,2.39956,0,0,0,1.7-.9,2.62249,2.62249,0,0,1,.9-.5c.30005,0,.5-.3.9-.5a7.397,7.397,0,0,1,3.1-.5h2.6a10.44151,10.44151,0,0,1,.9,2.2v2.8a3.44407,3.44407,0,0,0,.30005,1.9,4.21575,4.21575,0,0,0,.3,1.9,13.8232,13.8232,0,0,1-.3,3.6,13.82422,13.82422,0,0,1-4,1.2l-2.2.3a8.70916,8.70916,0,0,1-1.9.5,10.928,10.928,0,0,1-1.69995.5c.5,9.5,1.19995,17.4,1.69995,23.3.5,3.1.9,5.9,1.2,8.5a58.619,58.619,0,0,1,.3,7.1,34.14525,34.14525,0,0,0,1.4,7.1c.30005,1.2.5,2.2.9,3.5a9.93541,9.93541,0,0,0,1.19995,3.1c0,.3,0,.3.30005.5,0,.3,0,.3.3.5l.5.9.30005,1.9a7.67159,7.67159,0,0,0,.5,1.7l3.5-.5a4.72972,4.72972,0,0,0,1.19995-.3,5.95681,5.95681,0,0,0,2.2-1.4c.9-.5,1.4-.9,1.9-.9.9.3,1.19995.5.9,1.4v3.8l.30005,1.9a4.47041,4.47041,0,0,0,.9,2.8,2.38181,2.38181,0,0,1,.30005,1.4c0,.5.3.9.3,1.4a8.78506,8.78506,0,0,1-4,1.9l-5.4,1.4-3.6,1.4a4.76725,4.76725,0,0,1-2.19995.5c-.5,0-1.2.3-1.9.3-.5,0-1.19995.3-1.9.3a3.44467,3.44467,0,0,0-1.9.3c-.5,0-1.4.3-1.9.3l-2.2.5a6.30792,6.30792,0,0,1-2.19995.5c-.5,0-1.2.3-1.7.3h-3.3999a10.63055,10.63055,0,0,0-1.4.3c-.30005,0-.5.3-1.2.3-.3,0-.5.3-.9.3a6.308,6.308,0,0,1-2.19995.5c-.30005-1.2-.30005-2.6-.5-4.1a4.84,4.84,0,0,0-.9-4c.30005,0,.5-.3.9-.5v-.9c1.69995-.9,3.1-1.4,4-1.9a1.20875,1.20875,0,0,0,.9-.3c.3,0,.9-.3,1.69995-.5a3.68154,3.68154,0,0,0,.5-3.1c0-.5-.3-1.2-.3-1.7a10.62591,10.62591,0,0,0-.30005-1.4,11.82415,11.82415,0,0,1-.9-5.4l.30005-6.7-.30005-1.2-.3-3.1c0-.3-.30005-4-.30005-11.2l-7.1,5.9a6.9975,6.9975,0,0,0-1.4,1.7q-.75.75-1.19995,1.2c-.30005.3-.5.9-.9.9-.3.3-.5.5-.9.9a6.37978,6.37978,0,0,0-1.4,1.2,15.62523,15.62523,0,0,1-1.9,1.4,5.79528,5.79528,0,0,1-1.2,1.4,7.52846,7.52846,0,0,0-.9.9c-.30005.3-.5.5-.9.9-.30005,0-.5.3-.9.5a6.37978,6.37978,0,0,0-1.4,1.2c-.5.7-1.19995.9-1.69995,1.4l-3.5,3.6-.30005.3a4.54978,4.54978,0,0,0-.9,1.2v.9c0,1.7,0,2.6-.30005,2.6v3.9a20.50388,20.50388,0,0,0,1.7,8.5,15.66152,15.66152,0,0,0,4.5-1.2,2.78126,2.78126,0,0,1,2.19995-.3,8.70069,8.70069,0,0,1,.9,3.6,29.45441,29.45441,0,0,0,.5,4.5,2.57279,2.57279,0,0,0,.5,1.4l.30005,1.4a7.83964,7.83964,0,0,1-1.4.5,3.52915,3.52915,0,0,1-1.4.3c-.5,0-1.19995,0-1.4.3-.3,0-.9.3-1.4.3-1.4.3-2.6.5-4,.9a16.34237,16.34237,0,0,1-3.6.5c-1.19995.3-2.19995.3-3.5.5-1.19995.3-2.19995.5-3.5.9l-2.8.9a7.84111,7.84111,0,0,1-1.4.5,2.38227,2.38227,0,0,1-1.4.3l-4.1.9-4.5,1.2a11.27939,11.27939,0,0,0-.5-4.1,20.64568,20.64568,0,0,1-.5-4.5,5.52217,5.52217,0,0,1,.5-3.6,14.84135,14.84135,0,0,0,4.1-1.2,11.79573,11.79573,0,0,0,4-1.7,7.39721,7.39721,0,0,0,.5-3.1v-5.6c0-.3,0-.9-.3-.9,0-.3,0-.3-.30005-.5v-.5l-.3-1.9v-1.9l.3-2.2a23.49055,23.49055,0,0,0-.3-5.4,8.91926,8.91926,0,0,0-.30005-1.7c-.3-.3-.3-1.2-.3-1.9s-.30005-1.7-.30005-2.6a23.79073,23.79073,0,0,1-.5-2.6,7.98364,7.98364,0,0,1-.5-2.6,11.93579,11.93579,0,0,0-.5-2.6v-.9l.30005-1.2c-.30005-1.7-.30005-3.1-.5-4.5a35.81764,35.81764,0,0,0-.9-4.5c-.3-1.4-.5-3.1-.9-4.5-.3-1.4-.5-3.1-.9-4.5a15.687,15.687,0,0,0-5.9.5l-6.2,1.7A8.481,8.481,0,0,1,860.6,586.8Zm38.20007-43.4a26.595,26.595,0,0,0,9.8-4.1,28.82066,28.82066,0,0,0,7.1-8.1,7.20325,7.20325,0,0,1,1.2-1.9c.3-.5.5-1.2,1.4-1.2a3.36217,3.36217,0,0,1,2.8.5l5,2.8a2.19455,2.19455,0,0,1,1.2.5.53575.53575,0,0,0,.5.5,4.05741,4.05741,0,0,1-.5,2.2c-.30005.3-.30005.9-.5,1.2-.30005.3-.5.5-.5.9a9.96979,9.96979,0,0,0-1.2,1.9,7.20325,7.20325,0,0,1-1.19995,1.9,5.06017,5.06017,0,0,0-1.4,1.7c-.30005.5-.9,1.2-1.4,1.9l-1.9,2.8c-.3.3-.9.9-1.19995,1.2s-.9.9-1.2,1.2a14.20338,14.20338,0,0,1-4,3.1,45.28861,45.28861,0,0,1-4.5,2.2,6.09753,6.09753,0,0,1-3.6,1.7c-1.7.3-2.8.9-4,.9-1.2.3-2.6.5-4,.9a8.98948,8.98948,0,0,1-4,0,12.88555,12.88555,0,0,1-4.8,0,8.54794,8.54794,0,0,1-4.5-1.2,10.47586,10.47586,0,0,1-2.80005-1.4l-2.6-1.7c-.5-.3-1.2-.9-1.7-1.2a8.31165,8.31165,0,0,0-1.69995-1.2l-1.4-1.4a8.84838,8.84838,0,0,0-1.7-1.2l-1.69995-1.2a7.20344,7.20344,0,0,0-1.2-1.9,4.54959,4.54959,0,0,0,.9-1.2c.30005-.3.5-.9.9-1.2l2.6-2.6,1.7-2.2a6.46009,6.46009,0,0,1,2.6-1.7,2.57257,2.57257,0,0,1,1.4.5c1.19995.3,1.4.5,1.69995.5.30005.3.5.5.9.9a5.7941,5.7941,0,0,1,1.4,1.2c.19995.3.9.5,1.4,1.2a13.501,13.501,0,0,0,6.7,2.6A19.28436,19.28436,0,0,0,898.80005,543.4Z"/></svg>