<?xml version="1.0" standalone="no"?>
<!DOCTYPE svg PUBLIC "-//W3C//DTD SVG 1.1//EN" "http://www.w3.org/Graphics/SVG/1.1/DTD/svg11.dtd" >
<svg>
<metadata>
Created by FontForge 20090914 at Fri Jul 21 20:07:31 2017
 By www-data
*1993 LettError Erik van Blokland, FontShop International
</metadata>
<defs>
<font id="TrixieCyr-Plain" horiz-adv-x="550" >
  <font-face 
    font-family="TrixieCyr"
    font-weight="400"
    font-stretch="normal"
    units-per-em="1000"
    panose-1="2 0 5 6 2 0 0 2 0 4"
    ascent="800"
    descent="-200"
    x-height="406"
    cap-height="577"
    bbox="-100 -260 693 878"
    underline-thickness="20"
    underline-position="-113"
    unicode-range="U+0020-U+2116"
  />
<missing-glyph 
 />
    <glyph glyph-name=".notdef" 
 />
    <glyph glyph-name="space" unicode=" " 
 />
    <glyph glyph-name="exclam" unicode="!" 
d="M331 5l-42 -8l-52 8l-25 24l-9 27l9 43l43 58l69 -24l24 -52zM324 440l-10 -61l10 -25l-10 -128v-25l-42 -17h-10l-25 42l-7 94v34l7 8l-25 96l18 76l25 35h42l51 -69z" />
    <glyph glyph-name="quotedbl" unicode="&#x22;" 
d="M423 423l-9 -27l9 -8l-17 -24l-10 -10h-34l-17 59l9 44l-34 153l25 25l26 9l52 -9l8 -35zM278 586l-17 -45l-17 -17l-10 -59l10 -17v-35l-10 -8l10 -9v-17l-17 -15h-35l-17 111l9 42l-17 24l17 103h60l42 -51z" />
    <glyph glyph-name="numbersign" unicode="#" 
d="M213 245v-6l-7 -7v-14l-16 -28h1l12 -6l13 -8l39 5l3 3v9l30 -3v-6l9 -8h23l16 30v9l14 3h4l11 25l-25 5h-9l-13 -12l-35 3h-4l-3 6l-9 -13l-12 13l-27 -6l-9 9h-4zM462 193l12 -21h18v-3l9 -6l12 -25l-4 -42l-30 -9l-5 -3l-80 -18l-16 14v-2l-3 -16v-9l-4 4l-17 -21v-4
l3 -5l-16 -16l-17 -48v-7l-25 -35l-6 -13l-16 -21l-8 -30l-13 -25l-17 -9l-16 -3l-48 -21v3l-16 5l3 4l-8 9v16l5 5l-9 9l12 37l13 13l5 21l25 30v18h3l6 15l21 31l12 30l18 17l7 13l1 3h-24l-30 -3v3l-33 9l-4 -3h-5l-7 7l-18 -7l-24 1v-7l-3 -16v-9l-4 4l-17 -21v-4l3 -5
l-16 -16l-17 -48v-7l-25 -35l-6 -13l-16 -21l-8 -30l-13 -25l-17 -9l-16 -3l-48 -21v3l-16 5l3 4l-8 9v16l5 5l-9 9l12 37l13 13l5 21l25 30v18h3l6 15l21 31l12 30l18 17l7 13l18 42l1 4l-4 9l9 21l14 10l-2 2l16 9l-4 4l16 30v9l14 3h4l15 35l-13 13h-39l4 3v6l-4 3h-9
l5 30l25 16l25 6l14 12l25 -4l8 -9l20 25l9 34l38 48l4 21l18 25v9h7l5 9l13 30l12 7v5l-4 4h9l7 8l-3 25l12 21l5 -3l25 33v13l39 39h4l12 12v13l9 8l12 -3h9l21 -27l-3 -24l-5 -22l8 -9l-12 -15l-21 -18l3 -4l-16 -14l-5 -25l-12 -21l-4 4l-18 -16l-3 -48l-21 -21l-22 -43
l-14 -7v-5l6 -4h-6l-7 -9v-12l-17 -21v-5l3 -4h-3l-4 -9l-9 -7l18 -2l4 -3l9 9l33 3l6 5v-5h12l34 5l42 13l5 -5l6 8l9 34l38 48l4 21l18 25v9h7l5 9l13 30l12 7v5l-4 4h9l7 8l-3 25l12 21l5 -3l25 33v13l39 39h4l12 12v13l9 8l12 -3h9l21 -27l-3 -24l-5 -22l8 -9l-12 -15
l-21 -18l3 -4l-16 -14l-5 -25l-12 -21l-4 4l-18 -16l-3 -48l-21 -21l-22 -43l-14 -7v-5l6 -4h-6l-7 -9v-12l-17 -21v-5l3 -4h-3l-4 -9l-14 -12l5 -4h-5l3 -5v-12l-5 -13v-12l-25 -18h-8l-8 -16v-2l-7 -7v-14l-13 -23z" />
    <glyph glyph-name="dollar" unicode="$" 
d="M307 280l-1 -16l4 -4l-4 -15l1 -15h-1l-4 -35l12 -23l-7 -13l4 -4l-1 -7l5 -9l-1 -6v-2l3 -4l2 -5l-4 -14l2 -5l4 -17l2 -6l-1 -2l26 3l16 25l18 9v8l16 16l-4 6l13 21l-9 16l18 18v3l-4 5h4l3 4l-7 12l4 6l-18 16v5l-12 3l-52 22h-16l-12 8zM259 351l6 27l-11 29l-3 -1
v9l16 19l-2 11l-10 6v7h3v13l-7 8l7 12v10l1 21h-10l-16 -7l-5 -6l9 -9l-30 -12l-28 5v4l-9 9h-6v-13l6 -5l-9 -9v-12l-9 -9l-4 -21l13 -22l-9 -7l5 -26l16 -16l30 -14l4 5l18 -12v-6l3 -3h5l4 3l18 9l3 -3l4 3zM307 510l-10 -24v-2l3 -3l-3 -10l-4 -4l5 -14l-1 -2l7 -16
l-2 -7l-2 -22h2l2 -55l-2 -12l41 -16l39 4l16 -12l21 -39h9v-4l18 -5l12 -29l-3 -5l16 -16l5 -17h-5v-43l5 -4h-5l-4 -5l12 -16l-3 4l-18 -52v-8h-3l-9 -25v-4l-9 -9l3 -5l-21 -7l-16 -21l-17 -9l-13 4h-12l-5 -4l-38 -4l-3 -5l-1 -10l-7 -1l-1 -8l-2 -1v-4h-7l-2 -2l-12 -2
l-11 13l-2 15v1l-12 12l-37 -4l-27 21l-15 9l-27 -18v-8h-46l-9 8l-12 25l9 30l-6 21v9h6l7 25l-4 27l-3 24v39l7 13l30 -4v-5l30 -16v-21l12 -39h9v-9l30 -25h9l4 -18l38 -12v8v10l4 9l-8 16l8 20l-4 13v19l-4 1l6 17v15l2 11l-8 13l4 4l-5 13v19h1l2 15h2v6h-14l-28 16
l-14 -4h-16l-5 4l-13 26l-21 4l-25 30l-5 4h-7l3 5l-12 21v16l-12 18v30l-9 7l12 9v12h9l9 9l-5 5l8 7v15l4 -6l18 13v14l21 12l12 -5l21 14l6 -5l25 17l3 -5l18 14l9 -3l6 8l4 15l-2 2v15v11v13h2l2 14l11 9h4l11 -26h4l-6 -21v-2l4 -3l-6 -17v-14l4 -9l-2 -13l40 -5
l25 -13h14l3 -12l25 -21h5l4 30l5 21h25l12 -9l6 -30h-6l-16 -30l13 -21l-6 -16l9 -9l-3 -42v-6l-13 -12h-8l-13 30l-5 -4v13l-13 12l-3 21l-5 -3l-4 21l-9 4l-12 8h-5l-4 -5v5l-9 4l-12 9l-4 -4l-26 25z" />
    <glyph glyph-name="ampersand" unicode="&#x26;" 
d="M174 248l-25 -25l-5 4l-16 -21l3 -4l-8 -9l5 -3v-9l-9 -21l-12 -6v-7l3 -5l13 -4l5 -47l21 -22l4 6h5l7 -9h21l9 -9h13l35 21l16 22l5 -4l4 42l-13 31h-5l-4 12l-17 25l-29 5zM243 491l-30 -22v-12l-9 -9v-3l30 -57l21 -4l30 22l25 24l4 31l-7 12l-6 -4l-8 9l-29 9z
M289 554l4 4l21 -4l14 -8h7l9 -16h5l4 3v-9l9 -3l8 -9v-34l4 -26v-34l-30 -30v-21l-9 -7l5 -14l-33 -22l-14 -12l5 -4l-13 -8l4 -4h-4v-18l8 -12l21 -9h9l8 18l-8 16l26 12l13 27l37 16l9 14l38 7l22 9v-9l9 -4l37 -33l9 -9l8 -43h-5l-21 -33l-34 -18h-9l-28 30h-9l-9 -18
v-7l4 -5h-4l-3 -4l-5 25h-9l-7 -9v-21l-6 -28l-9 -14v-25l15 -30l-6 -4l27 -30l16 -18l17 9l25 27l-3 3l21 22l30 3l7 -7l5 4l16 -13l9 -17v-13v-25h-3l-9 -21l-13 -9v-9l-12 -3h-5l-4 -9h-9l-17 -18l-13 -9l-21 6l-4 3l-12 -9l-30 6l-34 12v9l-17 16l-4 -4v4h-26l-22 -28
l-24 -6l-39 -21l-13 12l-3 -3l-14 -9l-16 5l-9 7l-30 -12v5l-16 7h-9v6l-21 9l-22 21l-12 3h-5l-9 25v18l-7 9v12l-14 21h-4l-9 9l6 4v5l-9 7l3 18v12h6l7 34v5l-4 4l12 9v3l-3 5h3l6 4v12l12 6l9 12l16 12l27 6l37 37l12 12v30l-25 43l4 60v9h5l9 25v21l55 39l21 7h43l3 5
v-5l5 -4h4z" />
    <glyph glyph-name="quotesingle" unicode="'" 
d="M343 531l-17 -34l14 -57l-14 -106l-51 -34l-8 -8l-27 8l-25 34l10 106l-35 124l-9 9l9 25l25 62l35 14l66 -7l35 -52z" />
    <glyph glyph-name="parenleft" unicode="(" 
d="M369 569v-17l-60 -59l-17 -128l-17 -17l-7 -139l17 -25v-17l-10 -7l17 -17l11 -52l31 -76l69 -76l10 -44v-18l-27 -15l-77 77l-6 34l-45 59l-24 118l-18 111l18 145l34 77l66 120l62 59h25v-42z" />
    <glyph glyph-name="parenright" unicode=")" 
d="M362 57l-42 -84l-51 -78l-25 -8h-35l-9 17v35l103 127l34 77l7 76l18 35l-8 42l8 9l-8 32l8 11l-25 100l-34 87l-69 85l-17 33l9 9l35 -9l8 -25l75 -101l43 -145l9 -180z" />
    <glyph glyph-name="asterisk" unicode="*" 
d="M462 400l-14 -13l-25 9l-12 9h-9v9l-9 7h-3l-9 -7l-12 12h-6l-3 -21l9 -27l-6 -33l-21 -25v-13l-28 -8l-30 -6l-9 22l-4 5l-5 21l-4 4l9 17l-5 30v8l9 8l-13 13l-51 -25h-30l-16 4h-14l-7 -8l-36 29h-3l-13 21l-8 -7v16l8 21v21l46 9l18 9h37l-21 25l-16 17l4 4v5l-25 7
l9 9l-6 30h-3v13h3v21l-1 -2l-6 4l4 3l3 -5l6 18v12l12 -3h16l5 3v-9l22 -12l42 -30l4 5l21 -26l-4 -4l13 -5h12l5 5l16 9v16l13 21v12l5 -3l21 21l-5 4v5l18 9l30 -14l37 5l9 -12v-18l-13 -67l-24 -6l-9 -46l9 -9h28v-8l14 -9h4l3 5l36 -34h3v-8h-3v3l-6 5v-30l9 -12
l-3 -14l7 -16z" />
    <glyph glyph-name="plus" unicode="+" 
d="M469 163l-76 8l-42 -8h-17l-18 -27l8 -83l-8 -52l-41 -35l-28 35l-6 75l6 43v34l-17 18l-153 9l-9 8h-8v34l35 24h135l17 18l-6 121l17 31l24 18l34 -32l8 -69l-8 -10l8 -66l44 -17l84 6l52 -6l7 -11v-34z" />
    <glyph glyph-name="comma" unicode="," 
d="M394 87l-9 -49v-22v-35l-4 5l-8 -21h-9l-25 -39l4 -3l-18 -18l5 -4l-30 -33l-34 -27l-42 -9h-21l-27 48l14 46h7l6 9l9 9l-6 3l9 9v13h13l12 12v14l5 4l-17 3l-4 5h-9l-3 13l-6 3h-9l-3 18l-9 9l5 3l-5 6l-12 25l8 42l16 25v9l18 9l18 17l3 -5l30 21h13l9 -9l30 6v-6
l3 -3h13l-4 -4l13 -9h8v-5l16 -7h9v-14l18 -28l3 3v-21v-18h-3z" />
    <glyph glyph-name="hyphen" unicode="-" 
d="M193 284h7l5 3l22 5h37h48h37l39 -8l12 8l73 -5l17 -3l8 -9l5 3l12 -12l-3 3l9 9l3 -3l-5 -4l5 -5h9l-5 -67l-4 -30l-18 -22l-21 -9h-12l-9 -8h-4l-5 5l-4 -5l-21 5l-46 9l-17 -6l-9 9l-16 -9l-43 6l-14 -14l-25 5l-42 9l-13 -9l-12 3l-78 6l-28 3l-36 13l-15 17l-6 30
v13l-7 9l21 37l38 26h39l15 4l6 4l16 -4l30 -9z" />
    <glyph glyph-name="period" unicode="." 
d="M358 165v-18l5 -3l9 -21l-14 -36v-21h-4l-3 -16v-12l-39 -18l-25 -18h-18l-3 -3l-9 8l-18 -8l-3 -4l-13 4l-21 21l-5 -4h-13l-12 16l-12 43l-9 5h3v12l-3 46l21 39l30 22h7l14 12l29 9l5 -5h9l3 8l55 -24l21 -22z" />
    <glyph glyph-name="slash" unicode="/" 
d="M533 685l-3 -24l-5 -22l8 -9l-12 -15l-21 -18l3 -4l-16 -14l-5 -25l-12 -21l-4 4l-18 -16l-3 -48l-21 -21l-22 -43l-14 -7v-5l6 -4h-6l-7 -9v-12l-17 -21v-5l3 -4h-3l-4 -9l-14 -12l5 -4h-5l-4 -14l-9 -16l-8 -9l-16 -21l-6 -12v-6l-7 -7v-14l-21 -37h-5l-9 -9v-3l5 -6
l4 6l-30 -43l-4 -9l-9 -12l-9 -9v-18l-3 -16v-9l-4 4l-17 -21v-4l3 -5l-16 -16l-17 -48v-7l-25 -35l-6 -13l-16 -21l-8 -30l-13 -25l-17 -9l-16 -3l-48 -21v3l-16 5l3 4l-8 9v16l5 5l-9 9l12 37l13 13l5 21l25 30v18h3l6 15l21 31l12 30l18 17l7 13l18 42l3 9h6l3 7l9 27
l-3 3l16 9l-4 4l16 30v9l14 3h4l17 39l16 18l6 25l12 12l-5 5l30 37l9 34l38 48l4 21l18 25v9h7l5 9l13 30l12 7v5l-4 4h9l7 8l-3 25l12 21l5 -3l25 33v13l39 39h4l12 12v13l9 8l12 -3h9z" />
    <glyph glyph-name="zero" unicode="0" 
d="M237 203l-7 -5l-8 -2l-16 5l-4 10l8 20l7 11l18 -6l8 -5l5 -7zM232 322l3 13h2l6 -6v-7h-11zM419 372l-13 20l-6 33l-26 47l-39 20l-53 6l-28 3l-17 -5l-18 -13l-17 -6l-9 -5l-2 -8l-26 -39v-26l-18 -20l-17 -46l-4 -117l6 -33l13 -24l2 -32l29 -28l17 -27l22 -17l39 -2
l33 15l39 -6l59 56l21 31l2 49l16 29l2 28l4 52zM478 153l-13 -29l-9 -13l-6 -25l-26 -31l-7 -20l-52 -36l-55 -13l-17 -12l-17 1l-39 -7l-15 18h-29l-21 17l-25 4l-10 33l-20 34l-17 11l-15 35l-16 37l-17 111l-5 20l5 41v32l56 116l55 67l35 24l82 9l2 4l33 -6l52 -18
l39 -8l37 -1l4 -6v-6l-17 -5h-6l-5 -4l5 -16l19 -13l26 -58l15 -29l13 -34l7 -65z" />
    <glyph glyph-name="one" unicode="1" 
d="M496 -10h-6l-7 7v11h13l3 -5v-8zM466 494l-30 -13l-26 7h-31l-26 -26v-33h-11l-6 5l10 28l-12 17l-11 7h-7l-8 -11l-5 -39l-9 -48l-6 -20l6 -63l-8 -39v-47l-5 -14l5 -30l-5 -33l9 -54l4 -19l7 -7l33 7l15 -13l48 2l23 19l11 -2l40 -50l-1 -7l-24 -28l-2 -6l-6 -5l-39 5
l-7 -5l-37 16l-61 -3h-21l-39 7l-22 9l-137 -5l-13 9l-4 6l2 18l26 13l24 -5l30 11l52 -6h11l7 13l2 22l19 35l-2 26l-13 23l7 31l6 13l-11 39l-6 74l4 17l15 9l7 9l-13 80l6 20l-8 24l-18 17h-34l-20 5l-26 6l-11 7h-35l-17 25l4 14l18 13l34 6l39 -6l92 2h71l118 4l11 -8
l26 -42zM353 284h-11l-13 21l-2 39l13 12l13 -1l5 -56v-9z" />
    <glyph glyph-name="two" unicode="2" 
d="M464 429l5 -26l-9 -34l-20 -74l-39 -22l-37 -33l-15 -19l-4 -3l-5 -6h-36l-20 -15l-26 -5l-33 -30l-24 -7l-26 -23l2 -5l5 -6l30 -5l15 -19h53l34 -29h13l16 20l34 20l33 41l20 17l24 -4l21 -41v-59l-26 -30l5 -24l-3 -3l-24 -2l-13 -6l-23 -2l-22 -13l-59 -3l-13 5
l-26 2l-17 13l-14 9h-37l-36 34l-24 -4l-39 -35l-16 -8l-19 4l-18 19l-6 38l6 25l18 22l6 29l7 13l19 13l7 8l4 20l29 20l13 2l32 26l9 6l11 20v13l6 6l22 -6l6 -4l20 4l24 22l17 4l31 30l39 31l11 41l-4 15l-16 18l-4 19l-39 44l-92 2l-34 -15l-16 2h-8l-13 -20l-5 -30
l24 -55l-11 -17l-43 -26l-13 4l-44 48l7 65l6 39l33 25l11 19l56 31l39 4l12 6l78 -6l24 -13l34 -4l57 -25l7 -4l12 -9l3 -32l13 -11l19 -4l5 -5z" />
    <glyph glyph-name="three" unicode="3" 
d="M474 92l-22 -20l-7 -30l-34 -16l-7 -17l-37 -9l-13 -11l-33 -2l-110 2l-33 11l-30 15l-18 7l-52 39l-17 31l10 76l9 15l11 8l59 3l41 -48v-26l-5 -9l12 -33l12 -12l33 -5l33 -13l30 13l26 -6l20 6l28 31l6 13l20 11l11 13l-7 52l-17 17v17l-39 20h-22l-6 13l-11 9h-33
l-26 19l-45 -2l-7 13l11 28l28 24l33 -6l11 13v8h24l36 3l37 41l-10 28v29l-26 34l-16 5h-11l-8 -22l-13 -7l-7 5l-6 26v6l-5 5l-28 -5l-7 -6l-6 -5l-4 -19l-14 -13h-12l-13 13l-7 -2l-20 -33v-19l-47 -39l-14 6l-19 28l-4 37l-3 26v40l-6 12l8 22l33 29l26 -5l24 -6l35 8
l24 -6l20 11l58 -5l61 -6l24 -15l32 -27l29 -24l30 -28v-26v-24l-21 -22l-3 -32l-32 -39l6 -7l5 -6l-20 -15v-16l20 -13l15 -6l17 -16v-25l13 -20l2 -15l11 -13z" />
    <glyph glyph-name="four" unicode="4" 
d="M328 297l-6 15l8 43l-19 39l9 14l-5 6l-8 -8l-22 -31l-55 -57l-4 -10l-22 -26l-11 -29l13 -28l20 -11l50 -6l15 19h29l4 5l4 13l9 21l4 16zM478 132h-56l-22 -26l-4 -12v-10l19 -13l11 6l13 31l13 -2l5 -35l28 -16l6 -34l-4 -16l-20 -19l-54 -4l-32 4l-53 -4l-78 4
l-17 22l4 24l20 12l37 7l30 33l-2 19l-39 33l-63 -4l-61 -13l-31 4l-15 9l-26 -9l-19 4l-12 15l1 66l13 30l30 20l65 89l13 35l28 37l27 34l11 26l28 22l13 17l11 27l39 32l8 2l7 -2l50 -39l6 -32v-35v-81l-10 -30l4 -24l6 -20l-10 -32l6 -26v-20l44 -32l32 -1l15 -21v-39z
" />
    <glyph glyph-name="five" unicode="5" 
d="M284 120l-7 6l-13 -6l-9 4l-6 15h15l5 -6h8l13 13l11 -2l2 -15v-9h-19zM471 504l-18 3l-6 4l-61 -17l-26 10l-13 -6h-26l-24 -17l-28 2l-20 15h-26l-13 -4l-20 13l-17 -5l-7 -8l3 -18l10 -17l-8 -26l-5 -4v-13l11 -11l52 8l16 7h30l7 6h19l13 -10l31 -5l17 -17l24 -3
l65 -69l9 -30l4 -44l7 -13l-2 -65l-9 -46l-22 -52l-59 -65l-19 -11l-50 -4h-17l-18 -16l-56 11l-9 7l-37 6l-15 13l-5 5h-19l-29 34l-17 27l-9 37l-13 17l3 26l13 22l11 8l32 2l9 5l39 -15l24 -31l-2 -17l-13 -15l-5 -5l2 -8l16 -11l8 6h9l6 -6l-6 -15l26 -13l20 12l23 -10
l27 19l21 -6l16 17h15l21 31l5 34l13 22v76l-50 48l-22 11l-26 -7l-17 2l-2 7v6l-5 5h-8l-1 -15l-4 -3h-6l-9 20h-20l-34 -17l-22 -22l-20 -7l-10 -10l-18 2l-30 21l-9 26l6 42l-6 54l9 54l-3 11l9 65l17 14h42l59 13l65 -2l11 4l52 -9l28 5l57 -9l21 -28l-6 -22l22 -4h2
l6 -5v-2zM512 328h-13l-2 3v8l6 2l13 -2l2 -4v-2zM508 504h-9v7h11l2 -2v-2z" />
    <glyph glyph-name="six" unicode="6" 
d="M409 180v41l-26 37l-24 2v4l-19 20l-35 2l-15 11l-25 -8l-25 10l-20 -19l-18 -7l-28 -26l-17 -35l-7 -26l5 -17l6 -43l9 -12l30 -26l27 -10l15 -13l23 -9l12 13l15 2l13 -6h10l12 36l19 1l13 -14h11l28 26l7 27l10 26zM470 141l-7 -46l-26 -37l-6 -13l-20 -13l-21 -7
l-40 -36l-104 -3l-24 5l-28 19l-20 7l-35 39l-21 15l-29 44l3 34l-2 13l-11 13l-2 39l-1 75l-6 13l13 49l28 85l5 13l15 20l6 22l24 23l7 18l28 13l13 2l24 29l13 4l39 4l9 5l59 -11l17 -24l35 -3l17 -12l18 -31l13 -17l-3 -22l-41 -41l-33 6l-26 5l-26 56l-39 11l-33 -13
l-19 -2l-24 -31l-7 -30l-26 -29l1 -10l13 -3l45 -4l20 -13h32l15 24h18l24 -28l28 -9l24 -22l35 -6l6 -28l31 -37l9 -24l4 -74z" />
    <glyph glyph-name="seven" unicode="7" 
d="M472 449l-19 -47l-7 -27l-13 -8l-11 -16l-2 -10l-58 -61l-22 -33l-30 -54l-20 -67v-25l7 -12l-7 -27l-7 -11v-26l-13 -34l-24 -13l-26 8l-13 13l-10 33l6 33v30l2 35l7 22l4 28l15 24l18 54l15 9l19 32l26 31l22 15l31 39l6 55l-24 15l-41 21l-24 7l-17 19l-63 -10
l-31 -42l-13 -39l-8 -30l-25 -57l-19 -6l-33 6l-6 13l-4 35l8 44l-8 26l4 34l-11 31l9 39l21 15l26 -2l20 -11l39 4l39 22l39 -2l42 -6l30 -20l29 -6l28 6l21 -6l20 6l22 15l17 -2l18 -24z" />
    <glyph glyph-name="eight" unicode="8" 
d="M416 180l-2 28l-11 16l-7 2l-26 22h-34l-18 17h-39l-9 -4l-17 -13l-15 -2l-15 13h-24l-26 -20l-20 -5l-15 -13l-9 -15l13 -56l-4 -9v-20h10l3 27h13l8 -7v-20l3 -6l10 -6l26 6l14 -11l6 -9l15 1l18 -14l54 -10h37l26 36l18 1l8 8l18 20l4 24zM388 448l-24 13v6l6 5l7 4v9
l-2 2l-35 15l-44 11l-11 -7l-62 -6l-37 -7l-25 -13l-15 -45l29 -64l17 -8l72 -11l21 6l70 3l9 21l22 13l10 40zM486 104l-13 -32l-20 -24l-7 -24l-34 -15l-90 -29l-13 -6l-69 6l-39 4l-20 7h-22l-19 18l-37 4l-17 32l-31 33l-6 6l-5 33l-9 55l22 82l39 50l-2 26l-32 74
l-1 55l22 36l13 29l31 28l21 6l31 26l22 1l19 8l31 -6l21 6l76 -19l29 -3l30 -13l39 -21l27 -3l4 -2v-8l-18 -13l-6 -5l13 -39v-33l11 -19v-13l-18 -31l-21 -26l-5 -32l26 -28l5 -20l28 -24l6 -9v-39l5 -17z" />
    <glyph glyph-name="nine" unicode="9" 
d="M373 387v28l-33 61l-42 26l-19 4l-33 -11l-30 16l-13 -11l-4 -13l-14 -15l-32 -24l13 -2l20 -12v-10l-25 -35v-20l38 -60l12 -3l22 -19l33 9l22 -18l34 18l14 21l17 2l8 7l7 26l13 9l2 8zM473 361l-7 -35l11 -17l-4 -29l-9 -13l2 -28l-24 -37l-4 -17l-16 -29l3 -22l2 -6
v-7l-20 -12l-11 -14l-10 -39l-16 -6l-17 -31l-31 -15l-65 -19l-63 6l-13 7h-30l-42 41v13l-26 33l11 30l22 19l13 25l22 2h8l26 -18l13 -2l9 -20l24 -23l22 11l19 -1l13 -17l33 17l48 59l-4 46l-7 6l-19 5l-57 -13l-48 -3l-11 -2l-15 5l-15 10l-29 11l-23 16l-13 4l-42 41
l-6 16l-16 13l-8 10l2 77l7 39l15 52l22 32l52 39l52 22l20 3l36 -3l13 -6l42 -2l85 -35l47 -35l33 -30v-51l-7 -19v-15l14 -13v-13z" />
    <glyph glyph-name="colon" unicode=":" 
d="M358 36l-4 -21l-21 -31l-9 -7l-30 -5l-21 -16l-22 4l-16 9l-5 -6l-12 14l-4 -5l-18 18v9l-15 7l-9 14l-13 12l4 4l-9 9v17h5l4 4l-4 3l16 31l6 5l12 3l21 34h4l5 -4l25 16l21 15h9l9 -9l3 3l4 -12l14 -4v-5l21 -9l16 -16l9 -30l9 -9zM354 269l-9 -16h-9l-12 -26l-4 5
l-5 -5l-25 -9l-12 -3l-5 -4v-5l-13 9h-9v3l-42 5v4l-4 5l-3 13h-9l-21 30v21v37l9 18l12 12l-5 4l26 21l21 5l13 4l18 9l46 -13l24 -26l9 -21l13 -13z" />
    <glyph glyph-name="semicolon" unicode=";" 
d="M341 15l4 -16h-4l-9 -27l-8 -9l3 -3h-7l-9 -18l4 -21l-30 -29l5 -5l-30 -30v-7l-12 -5l-6 -13l-3 4l-13 -13l-55 -3l-17 25l3 47l9 16l13 9l8 9v16h6v27l-14 21l-29 3v34l-9 9l4 17l9 47l12 8v9l39 25l9 12l-14 18l14 12h12l13 -24l3 -6l14 15l7 -9l6 3v-9l3 -3l-1 3l3 4
l4 -4l-6 -3l13 -13h14l7 -8h18v-4l8 -5v-4l4 -5l5 -28l13 -22zM336 300l-4 -4v-14h-8l-4 -21l-9 -13v-16l-39 4l-12 -13l9 -12l-6 -9h-3l-4 -5l-14 21h-16h-12l-48 30l-16 27l-5 28l9 21l-4 6l13 12v12h3l18 27l25 21l42 -5l9 9l34 -22v-3l12 -5l21 -22l14 -33z" />
    <glyph glyph-name="less" unicode="&#x3c;" 
d="M419 368l-32 -15v-30l-30 3l-38 -18l-1 -24l-36 -8l-35 -15l-39 -40l4 -33l22 -12l48 -38l42 -12l15 -35l45 -5l5 -18l15 -32l-16 -42l-20 -10h-21l-68 35l-32 20l-5 22l-22 11l-11 20l-57 37h-17l-36 49l15 46l38 34l17 40l35 3l16 30l27 30l27 7l-1 23l6 3v12l16 5
l24 -5l5 35l48 -10l32 -23z" />
    <glyph glyph-name="equal" unicode="=" 
d="M509 96l-30 -9l-5 -3l-80 -18l-21 18l-60 -9l5 3h-69l-30 -3v3l-33 9l-4 -3h-5l-7 7l-18 -7l-60 3l-25 9l-4 -5v9l-14 8l-12 22l9 21l30 21l-5 4h5l12 14l4 -6h14v-3l46 -5l18 14h21l12 -6l13 -8l39 5l3 3v9l30 -3v-6l9 -8h28l15 17l21 9l7 -9h14v-3l21 -6h4l3 -3l18 16
l34 -4l12 -21h18v-3l9 -6l12 -25zM398 197h-9l5 5v4l-5 5v7l5 -3h9v-13zM504 287v-12l-25 -18h-8l-9 -18l-30 -7v4l-16 9l-13 -6v-3h-14v3l-49 9h-9l-13 -12l-35 3h-4l-3 6l-9 -13l-12 13l-27 -6l-9 9h-25l-12 9l-34 -9l-21 -3l-21 21h-39l4 3v6l-4 3h-9l5 30l25 16l25 6
l14 12l25 -4l12 -14l18 9l43 -3l54 -6l4 -3l9 9l33 3l6 5v-5h12l34 5l42 13l9 -9h34l30 -21h3l6 3l8 -12v-12z" />
    <glyph glyph-name="greater" unicode="&#x3e;" 
d="M137 46l32 15v30l30 -3l38 18l1 24l36 8l35 15l39 40l-4 33l-22 12l-48 38l-42 12l-15 35l-45 5l-5 18l-15 32l16 42l20 10h21l68 -35l32 -20l5 -22l22 -11l11 -20l57 -37h17l36 -49l-15 -46l-38 -34l-17 -40l-35 -3l-16 -30l-27 -30l-27 -7l1 -23l-6 -3v-12l-16 -5
l-24 5l-5 -35l-48 10l-32 23z" />
    <glyph glyph-name="question" unicode="?" 
d="M365 32l-12 -21l-4 -4h-14v4h-13l-15 -12l-36 -6l-7 -3h-14l-28 17l-15 -5l-21 13l-7 5v30l4 -5l12 26l55 46l14 18h4l8 -9h13l39 -21l3 3l9 -12l-3 4l5 3l2 -3l-4 -4l16 -18l5 -12v-4l9 -9zM446 360l-5 -6l-25 -24l-46 -46l-14 -6h-12l-25 -16l-9 -9l4 -30l8 -12v-21
l-15 -34l-61 4l-3 3h-9l-12 21l-6 6l9 9v16l-9 8l-9 13v9h6l3 17l9 13h9l4 9h12l26 42h13l9 12l16 9l26 4l16 25v26l-3 4l-4 33l-14 22l-21 8v6l-13 12l-76 4l-18 5l-21 -21h-7l-14 -14l30 -13l21 -25l-3 -12l-6 -5l9 -9l-9 -7l6 -6h-6l-3 -12l-4 4l-14 -13h-21l-12 -9
l-4 -3h-9l-12 12l-21 -9l-27 18l-4 34h4l5 17l4 22l5 30l28 33v9l39 25l22 9l3 3l18 6l39 7l16 9l33 -4l30 -5l9 -7l43 -6l9 -12h24l34 -51l14 -34l13 -9l-6 -42l6 -4h3z" />
    <glyph glyph-name="A" unicode="A" 
d="M338 272l-4 4v17l-26 16v9l-4 12l12 22h4l-16 56l-5 4v9l9 33l-9 13l-4 -4l-3 -9l3 -3l-9 -9l-8 -9l-8 -9l4 -55l-12 -21h-9l-4 -21v-34l-9 -9v-24v-18h-5v-21h9l26 -9l43 18l7 -9l5 3h4l12 18zM550 12v-7h-9l-3 -5l-6 -4l-28 -18l-39 6h-18h-21l-12 3h-13l-8 -9v6l-59 3
l-35 30v9l21 12l-4 4l13 9v9l39 12l3 30l-8 9l-8 16h-8l-9 12l-124 -7l-7 -9l3 -39l22 -8v-4l3 -3h9v-15l12 -16h6l3 4l13 -25l-8 -12l4 -5h-18l-3 -9l-30 -13l-80 6l-5 3h-13l-21 -21l-12 9l-6 -6l-28 18h-18l-17 18l-7 7l7 18v24l14 9h12l16 6l9 7l5 -4l4 4l21 -4l30 39
v25l4 12l5 13l4 17l3 9l18 25l-4 5l13 13v37l3 17l13 18l-4 13h4l5 24l3 -3h6l12 21v37l9 21l4 18l12 21l5 18l7 12l-3 4l12 5h13v-5l5 -4h3l9 9l-9 16l-3 -3l-13 16l4 21v9l12 5l30 -9l13 -12v-18l12 -34v-17l9 -13l9 -46l-4 -5l16 -30l6 -21l12 -59l16 -17l-4 -4l13 -26
l-4 -13l9 -9v-3l-5 -4l9 -9v-42l3 -5l9 -13v-21l9 -4l3 -17l6 -22l21 -21h37l14 -9l22 -7l7 -21z" />
    <glyph glyph-name="B" unicode="B" 
d="M466 198l-14 14l-4 -5l-9 8v4l-30 30h-7l-26 12h-34l-30 9l-9 6l-12 -9l-25 -6l-21 15l-9 -6v-12l-13 -9l9 -9l-5 -3h-4l4 -9l5 -4l-5 -33l9 -39v-64l9 -25h63l76 4l39 3l4 6v16l12 21h6l12 5l9 21v59zM436 415l-13 25l-5 6l5 3l-3 4l-4 -6l2 -1h-9l-16 33l-17 -5l-4 -4
l-21 4v14l-22 -5l-33 -4l-30 16l-9 -7l-4 -21h-5v-9l-9 -21l-3 -73h-4v-12l4 -9l3 -18l9 -7l30 4l9 -9l12 17h25l60 -5l13 14l17 4v9l16 16l6 17v30zM529 139l-14 -30v-33l-12 -13l-25 -9l-9 -17h-3l-6 -4v-12l-37 -18h-30l-5 -3h-7v3l-5 4l-9 -7l-16 3l-22 -12l-8 9l-34 3
l-27 4l-63 5l-4 -5h-60h-16l-18 -4l-3 4l-9 -7l-25 28l16 21h9l9 9l25 -4h12v-5l9 -7l30 12l12 13l-3 3h3l9 27l-3 25l-6 21l9 9v97l-9 48l-3 25l9 8v25l3 6l-9 7l-8 39l8 39l-12 33l9 9v7l-9 9l-34 -21l-12 5l-9 7l-30 -3v3l-12 5l-18 22v21l18 16l24 9h9l4 -4l5 4l12 5v4
l18 -4l7 -9l18 4l25 -4l21 13l27 -9l33 5v-5h18l7 9l48 -4l16 -5l21 -13h35v-3l7 -6v-3l9 -9l6 4v5l24 -18l-3 -3l12 -9v-4l-5 -5l9 -9v-12l21 -22l12 -24l-3 -34v-14h-4l-21 -50l-18 -9l-3 -12v-14l7 -7l-4 -5l43 -43v-37l9 -14l12 -46z" />
    <glyph glyph-name="C" unicode="C" 
d="M472 182l-9 -29l9 -8l-9 -22l4 -5l-30 -12l-7 -16v-6l3 -3l-39 -43l-7 -12l-5 -21h-9l-7 -9l-18 9l-8 -9l5 -5l-36 -4h-37l-9 9l-21 -5h-12v5l-21 4h-13v17l-21 16l-27 27l-21 9v28l-9 9v12l-3 5h-13v9l-12 13l-9 24l4 22l-9 17l5 25l4 27l5 3l-14 13l5 115l4 17l9 13v12
l-4 4l12 14l4 -5l12 21v9l-3 3l21 18l4 30l30 21l12 21h27l46 16h21l5 6h37l9 -13l9 -5h12l13 -12h12v-4l21 -9l22 21h14l3 4l13 9l12 -9l9 -34h-4l-5 -24l-7 -9l4 -22l-9 -8l5 -13h-5l-13 -21v-9l4 -3l14 -27l16 -30l-4 -43l-5 -3v-12h-7l-21 12l-14 12l-13 9h-9l9 9
l-16 34v3l7 9l-16 21l4 27l-12 21l-4 -5v5l-9 7l-5 -3l-4 3l-3 -3v-9h-14l5 12l-12 27l-15 3l-28 6l-5 3h-4l-9 -9l-24 6l-15 -15v-16l-24 -12l-4 4l-5 -4l-25 -26l-9 -16v-18l-21 -30v-55v-21l-4 -4v-14l4 -4l4 -12l-8 -21l16 -21l9 -22l4 -39l9 -24l26 -27v-7l13 -9l8 -9
v-12l25 -9l46 4l21 17l15 13l24 5l30 34l-5 21h5l9 9l4 -6l18 22l-6 26l-3 4l16 17l21 4h9l12 -12h9v-18l9 -12z" />
    <glyph glyph-name="D" unicode="D" 
d="M305 224l-4 -3l-30 -4l-8 7h-4l7 9v21h5v9l34 -3l4 -6l5 -30h-9zM454 327v9l3 3v27l-3 37l-4 -3l-9 8l-17 43l-34 33l-25 4l-14 12l-16 -3v-4l-21 -5l-13 12h-8l-13 6l-9 -39h-5l-3 12l-4 5v9l4 4l3 -4l-3 13l-9 -9l-4 -43l-18 -39h9l4 -3v-4l5 -17l-9 -9v-37l9 -15
l-9 -15h4l5 -39l-9 -9h-3l3 -4l-3 -106l12 -60l-9 -16h30l9 -9l4 4h3l27 -4l12 -3l25 7l21 21h9v9l12 9l6 12h12l18 12v14l-5 8l-4 5v12l9 9l3 4h9l-5 5v4l9 8l-4 4l13 12l3 39l9 13l5 39zM526 284l4 -67h-4v-17l-5 3l-4 -25v-9h-3l-9 -33l-5 -13l-4 -5v-7l-21 -21l3 -6
l-12 -12l5 -3h-8l-6 -6v-12l-21 -9l-46 -42h-21l-9 -9h-46l-9 -7h-9l-9 7l-24 -13l-22 18l-17 -9h-55l-16 -3l-18 -6l-3 -3v3l-6 6h-12l3 3h-24l-4 -3l-30 3v4l-12 5l-18 25l9 17v13l33 18h43l33 -6h13l9 13l-4 42l9 9v26v29l-5 48l5 24l4 6v3l-4 4v63l7 57v34v12l14 13v5
l-9 3l-8 9l-13 21v16h-18l-12 -7l-12 7l-52 6l-17 3l-7 9l3 21l13 25l17 5l4 4l17 -9l25 14l30 -5l13 9v-4l17 -9h22h21h30l4 4v-4l30 -5h3l5 -12l13 5l21 -9l4 4v-4h12l9 9l12 -5v-4l27 -9l30 -9l7 -15h14l-5 -6l21 -9l18 -46l3 -21l13 -25l14 -14h3l9 -16v-55l9 -17z" />
    <glyph glyph-name="E" unicode="E" 
d="M511 172l-13 -34l4 -81l-7 -9v-16l-6 4l-3 -21l-5 -13l-7 -9l-18 9h-30l-4 4l-26 -13l-16 -3l-13 9l-39 -6h-46h-60l-17 -3h-29l-26 -6l-13 15l-9 -9l-30 3h-16l-26 -3l-7 16h-9l-9 14l9 33l21 16l30 -7l37 4l18 3l9 9l-5 6l17 24v52v24l4 27l5 4v3l-5 5l-9 16l5 158v26
l-5 59l-4 12h-33l-5 -3h-16h-18l5 3l-35 6h-13l-8 24l14 22l21 12h80l5 5l64 -17l21 5h21h46l13 7h21l9 -12l17 -4h13l9 9l7 -9l21 12l35 -3l29 -14l5 -13l9 -42v-37l7 -9v-52l9 -17l-16 -16l-14 3l-22 39l-3 30l-9 22l5 3v9l-5 4l-9 17l-16 13h-9l-3 12l-14 12l-4 -3
l-21 18l3 3h-16l-8 -9l-43 -3l-9 -13h-37l-5 -5v-3h-9v3h-16l-18 -9v-110l-8 -12l8 -26l13 -22l26 -3v-4h25l12 21h15l16 13v30h5l7 16v9l14 3h7l18 -16l3 4v-21l6 -30l3 -29l-12 -21v-30v-21l3 -18l6 -21v-13l-48 -21l-12 30v51l-13 16l-3 -3l-9 9l-76 3l-18 -21l9 -25
l3 -39l-8 -9v-51l17 -21l-3 -25l-6 -3l18 -18l46 -4l12 -9l31 9l21 4h12v-4l36 -9l7 13l21 12v13h5l9 21l7 9l-3 26l21 22v24l9 9v13h24l-1 3l3 4l4 -4l-6 -3l6 -4h12l9 -30v-9h-5z" />
    <glyph glyph-name="F" unicode="F" 
d="M502 315l-13 -13l-35 16v34l-4 17l-8 9v13l17 24l-9 6l-17 16v30l-13 12h-24l-9 27h-13l-21 -18l-12 9l-43 3h-5l-4 -16l-12 -5l-9 -7l-9 4l-9 12l-3 5v-26l3 -4v-5l-8 -7l-7 -14l12 -25l-12 -34l3 -33h-3l-6 -6l13 -9l8 -7l6 4v-4l3 -5l4 5l14 4l7 -9l9 9l-4 3h4l12 27
l30 9v28l6 18l3 3l-9 18l9 18h9l-3 2l5 5l2 -4l-4 -3l12 -14v-13l-8 -9l21 -24v-25l-9 -14v-43v-76l5 -21l4 -46h-4l-5 3l-7 -8h-21v8l-6 6h-8v16l-4 5h4l5 4v3l-9 5l4 13l5 25l-13 17l-14 4l-7 -7h-21l-21 -9l-14 3h-4l-3 6l-9 -22l-6 -14l9 -7l-9 -9l9 -12l-3 -43v-8
l-6 -6l9 -7v-48l21 -24l85 -6l-1 4l3 3l4 -1l-6 -6l13 -7l9 -17l-16 -34h-18h-76l-5 -5h-4l-9 9l-58 -4h-27h-21h-55l-9 30l9 12l-3 13l33 9v-6l30 -3l13 9v-6l3 -3l30 25v35l9 12l4 16v14l-9 8l-4 63l-3 22l7 56l-7 16v51v25v21l-14 22l5 39l-9 17h-12l-43 -5h-5l-4 -4
l-8 9h-13l-25 34h4l9 21l12 13h13l17 3l76 5l39 4l7 -9l30 14l31 -9h51l9 -5h12l-3 4l5 3l2 -2l-4 -5l9 -7l12 12v-5h16h36l28 -12l5 5l30 -48v-9l-5 -3l5 -4l4 -14h-4l-5 -12v-13l9 -8l-4 -4l13 -27l-6 -24l-3 -4l3 -5l18 -30z" />
    <glyph glyph-name="G" unicode="G" 
d="M531 224l-34 -3l-34 -4l-26 -5v-25l-13 -39l9 -30l-3 -55l7 -9l-4 -16v-12l-9 -9l6 -5h-9l-5 -4h-22l-21 9l-3 13l-4 3l-35 -28l-16 -9h-69h-25v4l-9 8l-4 -3v3l-12 4l-18 18l-24 24v9l-22 21l-9 34l-17 30l-4 21l-9 13v51l-3 5l7 8l-4 42h-8l5 124l28 34l-2 -2l-5 3l4 4
l3 -5l14 42l22 30h7l17 39l13 4l5 3l43 21l21 -3h12l4 9l42 -13h27l7 -14h39l3 5l14 9h4l4 -5l5 5l21 -14l9 -21l-5 -37l-13 -39l4 -46h-4v-21l4 -6v-21l-16 -16l-21 9h-13v3l4 4l-13 14l4 4v9l-12 3l-13 21v22l-9 17l-25 21h-8l-22 22h-5l-3 -6v6l-18 3h-7l-9 -16l-9 7h-25
l-35 -21l-12 -12l5 -4h-5l-13 -21v-12l-9 -15l6 -33l-22 -30v-22l7 -7l-7 -8l4 -18l3 -30v-34l-3 -3l3 -6l15 -24v-55l24 -27l4 5v-12l9 -9l12 -21l-2 2l4 5l3 -4l-5 -3l14 -9l16 9v-5l18 -7l16 3l18 4l24 17h9l21 22h6l3 3v9l4 -4l9 22l-4 3l13 21v27l3 4v12l-21 9l-7 -9
h-9v5l-34 4h-26l5 3v6l-5 3h-9l5 21l4 6l12 12v4l-3 5l33 16l9 -9h21h39h64l58 -4h9l9 -8l-5 -4l5 -5l9 -13z" />
    <glyph glyph-name="H" unicode="H" 
d="M195 382v12l5 -3v-9h-5zM195 442v21l9 9v-9h-4l-5 -5l9 -12v-9zM382 378l-12 22l12 24l-5 6l-12 7l-4 17l13 25l-22 9l-9 -4l-3 -5l-21 9l-13 5l-9 4l-17 9v9l-16 7v-29h-14l-7 -9l-6 4l-21 5l-12 -14h-22v-7l4 -14l-7 -28l7 -9l-4 -13l-3 -42l7 -21l30 -6l27 -9l15 -3
l9 12h39l7 -12h27l25 21l5 4l4 -4l8 9v21zM501 479l-18 5l-3 -5l-22 -3l13 -25l-16 -21l-5 -85l-4 -22l-5 -5l9 -12l-4 -18l-5 -21l-7 -16l3 -5l9 -8l-5 -38v-4l-4 -5l9 -9v-4l-5 -3l5 -6l4 -8l-9 -8v-17l-4 -18l4 -3l5 -64l21 -4h13l21 13l25 -22l-4 -26l-18 -16l-15 4
l-6 5l-3 -5l-25 -9v5l-128 4l-14 12v18l-3 3l21 14h4l5 -5l34 27v-9l3 -6h9l9 22l-4 14v12l7 9l-7 42l7 8l-7 14l7 28l-3 35l-4 -5v9l-14 4h-12l-4 17l-18 13l-3 -4l-34 -5l-14 -21l-12 14l5 3l-30 9l-30 -5h-9l-16 -21l-9 8l4 6v3l-9 9l-12 -9v-25l-4 -72l-5 -5h5v-4h-5
l-4 -12v-22l9 -17v-52l12 -7l9 -9l21 9l16 -5l6 5v4l16 -13v-30l-25 -12l-39 4h-12v5h-25l-39 -9h-30l-4 -5l-30 17l-3 4v35l37 4l26 -13l21 4l-5 48l-3 7v14h3v12l-7 9l7 34l-7 9l4 37l3 9v12l-7 9l-5 -4v38l12 8l5 4l-8 14l3 4l-16 9l9 8v22l4 3v9l-4 4l-14 21l18 21
l-4 18l-14 12l14 34l-18 17l-24 16h-22l-5 6h-9l-7 16l4 21l21 18h25l5 -4l9 12v-5l42 -7l7 7l61 -3h24h15l3 -4h9l-5 -5l14 -9l3 -4h4l5 9h9l4 4v-4l3 -5l27 21l33 -3l4 -4l5 4h110l21 -4l9 7l18 -7l7 -21l5 -6l4 -37z" />
    <glyph glyph-name="I" unicode="I" 
d="M472 -1l-21 -15h-35l-68 -3v3h-25h-14h-21l-7 -3h-14l-7 9l-18 -6v-3h-12l3 3l-12 9l-34 -9l-12 6l-27 -9l-9 3l-7 6l-9 9h-33l-5 28l-9 5l5 13v3l37 14l21 4h15l33 12h16l9 -9l5 6l7 -6l6 -3l9 12l-6 6h6l3 16v30l-3 39h3v12l-3 3l7 9v34l5 5v7l-9 9l9 21l-5 18v43v51
v16l8 26l-8 7l5 22l3 5l-8 9v21l-38 4h-8l-9 -9l5 -4h-14v4l-43 5l-28 4l-18 17v34h4l5 4l25 12l73 5h-4l-5 -5l51 -4l12 9h48l29 -5l8 9l27 5l12 -9l25 4l30 -4l30 -5v-4l9 -8l-5 -31l-16 -15h-14l-34 -13l-9 7l-3 -3l-9 9l-21 -9v-4h-9l-13 13l-21 -9h-3v-18l8 -28l-5 -22
l-3 -5l8 -12l-8 -9l3 -80l5 -102l8 -68l-4 -5l4 -4l14 -60l25 6h12v-6l39 -3l46 -6l30 -33z" />
    <glyph glyph-name="J" unicode="J" 
d="M509 522l5 -4l-12 -34h-9l-5 -5l-13 -7l-24 4l-6 -4l-16 -14l-12 9h-9l-9 -52v-33v-37l9 -9l-12 -34v-35l-9 -34l9 -21l-9 -9l3 -3l-3 -55v-48v-21h-9l-25 -25v-18l-21 -12l-14 -16h-7l-9 -14l-5 5l-13 -12h-3l-6 3l-3 -3v-9l-73 3l-25 9l-17 9l-25 16h-12l3 5l-18 9
l-7 25l-17 25l3 5l-3 3l-4 22l-5 26v7h5l7 9v34h5l4 18l21 21l30 3l25 6v-6l5 -3l4 3l18 -7l3 -5l6 -12l7 -13l-4 -12l9 -9l-9 -9l4 -4l-13 -17h-3l-6 3l-7 -7l-21 7h-18l-9 -7v-26l6 -4l12 -33l21 -22h4l12 -14l6 5l37 4l5 5l9 -14h4l3 5l30 4l27 18l-6 3l27 34v5l-5 4h5
l7 30l-12 12l5 13l3 14l4 16v5l-2 -4l-5 4l3 4l4 -4l5 4l-9 17l4 34l-7 9v16l-5 5l8 80l-8 12l-4 27l-5 30l9 7l-4 5l4 4l-13 30l-21 -4v4l-21 3l-4 -3l-14 -4h-3l-9 7l-4 -3l-26 24l-4 30l12 9v9l9 9h13l5 4l21 3h4l9 -7l12 12h21l4 4l14 -4h12v-5l16 -3l6 -4l16 12l47 -5
l37 -7l15 4l24 -9l13 -22z" />
    <glyph glyph-name="K" unicode="K" 
d="M342 115l-30 24l-16 9l-9 9l-9 9v12l4 13l5 33l-9 27h-4l-14 -27l-3 6l-25 -13l-5 -14l-9 -12l-4 5l-12 -21l-12 -6v-12l3 -18v-33l-9 -9l6 -4l7 -33l5 3h21h25l12 6l36 -18v-9h7l5 -4l9 9l12 13l4 3l30 -3l9 12l3 12zM499 -16l-9 7l-63 5l-4 4l-14 -13l-46 9h-34l-12 4
l-14 5l-16 7l-34 -16h-5l-4 4l-12 -13l-21 4l-27 14h-3l-9 -9l-9 9l-16 -9h-57l-42 4l-12 5l-4 25v12l21 9l9 9l25 -6h9l16 18l5 64l9 12l-5 34l-9 9l9 12l-4 18l9 9l-5 51l-4 21l12 21l-3 38l-5 33l8 9l-3 34l-5 60l-13 12l-18 -3l-28 -6h-9v6l-17 3l-9 21l5 13l30 14
l28 -9l52 13l17 -4h4l5 4l16 -4h9l4 4l17 8v4h18v-4h-5l-4 -5l34 -12l3 5l22 -30v-9l-4 4l-9 -13l-30 6l-49 -22l-9 -35l-6 -34v-122l6 -18l12 -24l9 7v14l21 3l9 18l4 7l3 9l5 12l13 18l17 9l4 4v12l34 27l5 8v13h4l3 3v9h9l12 21l-7 18l7 16v9l-7 9h-30l-5 12l9 21l21 18
l48 4l16 8l21 -8l42 8l48 -8l-5 -4l5 -5v-46l-9 -22l-17 25l-31 -3v-9l-24 -9h-4l-9 -9v-3l4 -4l-25 -26v-13l-21 -12h-9l-25 -30l-14 -13l5 -5l-12 -12l4 -4l-18 -27l-7 -12l-6 -25l-3 -5l3 -4l18 -24l4 3v-3l17 -9l43 -85l42 -48v-12l13 -9l21 -21l-4 -4l16 -3l43 -15
l5 -3v-51z" />
    <glyph glyph-name="L" unicode="L" 
d="M497 -9h-34h-33l-14 -7l-13 3l-42 4h-13l-3 -4h-39l-25 9l-9 -9h-42h-30v4l-9 9l-4 -4l-17 -5l-4 -4l-9 9l-12 -9l-69 -3l-16 12l-34 -9h-14l-7 18l4 3v4l-9 9h5l4 30l3 12h106l14 6l4 3l9 -9l21 6h9l7 7l-4 47l-3 4l7 9l-4 25v30l4 12v14v80l9 18l-9 30l14 7l-5 5v9l9 7
l-9 14l-4 46l-5 13v12l5 -4l16 30v13l-12 9l-13 3h-3l-5 -3l-13 -6l-9 9l-51 -3l-16 -9v3l-9 6h-12v3h-18l-25 -12l-12 18l4 3v9l-9 9l9 7l-4 5h4l3 13l14 8v-5l13 -3l9 -4h12l3 4l31 8l76 -5l8 9l31 -4l21 -8l3 3v-3l27 -9h7l21 17l48 -5l25 -3l26 -13v-9l4 -3v-18l-18 -9
l-7 -12l-18 3l-3 -3v-4l-27 13h-55l-3 3h-5v-88l5 -85v-6l3 -3l4 -51l9 -22v-16h-4l-9 -35l4 -3l-7 -9l-5 -30l-4 -4l12 -18l-3 -33v-13l16 -24h60l51 -6l13 9h9l3 4l12 14l22 12l5 76v22l-9 12l4 5v13l12 12v21l21 13l22 5l17 -18v-12l9 -9l-5 -21v-4l-4 -5l9 -9v-28l4 -6
l-9 -8l5 -34v-16l-5 4v-25l5 -18l4 -30z" />
    <glyph glyph-name="M" unicode="M" 
d="M154 365v7h7v-7h-7zM328 55l-8 -5l4 -4l9 9h-5zM239 50v21l-12 21l3 5l5 25l-8 9v9l-6 30l-3 42l-30 38l17 8l4 30l-12 38l-4 5l4 21l3 13l-3 -4l-4 4v3l4 5h3l-3 4v18l-9 9v3l5 4l4 21l-4 5v9h-9l-30 25h-9v-9v-21l-12 -13v-63l3 -4v-18l-3 -39l3 -28l9 -9l6 -5l-6 -4
l-3 -24l21 -9v-9l-12 -12l3 -27l4 -28l5 -22l3 4l13 -9v-16l9 -14l-9 -7l14 -14h12l16 5l9 -9l5 -21h8zM536 7l4 -3l-55 3l-9 -7l-16 -9h-9v4l-17 5l-16 7l-43 -16h-12l-27 21v9l-3 4l-13 -13l-5 4l-9 -12l-7 -9h-30l4 5v4l-25 12l-13 -4l-14 -17h-21l-71 -4l-5 -5h-12
l-22 18l-24 8l-31 -5v5l-8 9l-4 29l4 -4l17 25l4 -4l3 4v5h9l9 -9l4 4l17 9l4 42l5 5l-5 4l-7 25v21l7 14v43l5 58v9l-5 3l-4 27l-3 4l7 8v13l14 17l-9 13l9 33v18l-5 4l-9 17v4l9 9l-9 21l-12 12l-4 -3v3h-34l-31 23l12 29h19h43l12 -9l16 9v3l5 6l22 -13h37l5 -17l13 -4
l21 -27l-4 -8v-46l13 -43l-9 -18l3 -3l6 -13l8 -17v-30l4 -34l12 -21v-21l9 -9l9 -16l13 -18l17 27v-6l4 -3l17 21l4 21l9 9l-13 21l8 34h5v30v21l12 16l9 9h9v-34l-9 -12l4 -21l-9 -9l9 -9h-4l-9 -21v-4l-9 -9l6 -5l-9 -7l16 -18l-7 -8l3 -4l-9 -9l6 -3l-9 -9l9 -21l-6 -13
l-8 -21l5 -5v-13h-5l-8 -30l4 -30v-7l12 -14l-3 -4v-3l25 -6l8 9h13h18l3 -3h5l4 12h9v21v30l3 4l-9 18v21v12l9 25l-9 9l9 25l-3 21l9 9l-6 60l-3 4h9v33v21l7 9l-4 90l-18 29h-3l-4 -7h-5l-3 -22l-6 -26v-9l-3 5l-4 -21l-30 16h-9l-3 5l12 34h4l5 21v22l3 -4l4 4v8h5
l13 16l42 6l34 -9l9 9h9l21 -22l21 9h4l5 -5v-9l-21 -3l-36 -18l-12 -25l-9 -39v-12l-7 -9l12 -7l9 -48l7 -21v-13h-3l-9 -8l5 -34l4 -13v-17v-21l9 -22l-6 -37l-3 -39v-30l3 -16l9 -14v-21l12 -7l31 3v-3l12 -6l14 -30h4v-7z" />
    <glyph glyph-name="N" unicode="N" 
d="M232 377l-13 4l-9 -12h-17v-9l5 -4l12 -9l9 13l13 -13v-3v33zM559 551l-30 -59h-4l-9 -8v-9l-21 3h-26l-16 -7v-14v-16l16 -26l-16 -16l-6 -22l9 -8l-12 -43l3 -25l6 -39l-9 -9v-54h-9l-3 -4v-9l12 -9l-4 -3l7 -9v-39l-3 -3l12 -18v-16l6 -14l7 -37l-7 -9l3 -4v-14
l-18 -25h-7l-5 -3h-16l-30 12l-5 -5v5l-4 4h-9l-9 42v5l-28 4l-14 3l-4 27l-3 -5l-5 17v9l8 9l13 -5l21 18l-21 21l-16 -6l-5 -12h-13v18l-9 9v24l-3 4h-5v9l5 -4l3 4l18 5l12 -14l-3 -16l3 -5l18 14v16l-9 17l-5 4h-7l-5 18l-9 9l-7 7l-14 8l-4 18l-9 25l5 5l-14 22l6 3
l-22 21l-21 -30l-9 18h-3l-6 3l-12 -30v-3l4 -4h-4v-17l9 -9v-22l-9 -8l9 -43l-5 -21v-7l8 -9l-3 -5l9 -7v-15l-6 -3l6 -4v-17l-9 -9l9 -43l49 -9h22l8 -3v3h13v-3h-4l-3 -4l3 -5v-51l-21 -13l-30 6h-89l4 3h-51l-25 -9l-25 13l-14 -4l-21 9v16l14 9v21l46 21l-4 6h13l9 7
v35l3 13v12l-3 3l-6 22l13 14v25l-7 8h3v43l-9 30l13 4l8 8l-15 34l3 46l4 5v-5l17 -7l9 7l-12 21l-6 -3l-3 21l-9 9l-3 51l-18 4l-13 3v6l-17 3h-13v5l-24 13v9l-6 3l30 18l22 21v-5l3 -4l9 16h18l3 6v-6l55 -12l27 5h24l31 -18l3 4l27 -21l12 5v-18l4 -3v-9l-4 4l-9 -8
l-3 4l-13 -18l7 -21l6 5v-9l24 -24l6 -18h-6v-30l13 -21l5 -37l25 -36v-3l9 -4l-4 -30v-12l4 -6l-4 -9v-12l7 -4l9 -12h12l9 -9h13l14 -5l7 -7l14 7l-5 18l-4 21l-9 12l4 30l-4 4h-3l12 9l-9 9l4 30v42l-4 13v12l4 5l-4 4l-3 21l-9 12l4 43l-13 12h-33l-13 9l-18 -3h-12
l-9 21v25h4l5 5v7l-3 -2l-4 4l2 3l5 -5l12 14h34l12 7v-3h18l52 3h88l5 -3h13v-4l3 -5h9v-9l4 -4l5 4v9zM384 284l-4 -18l-9 -7l-16 28l22 64l3 -4l9 -63h-5zM362 429l-3 12h3l6 -5v-4z" />
    <glyph glyph-name="O" unicode="O" 
d="M405 251l-7 21v30h4l-4 16l7 18l-12 9v37l-12 5l-22 46l-3 4l3 5l-17 12h-13l-9 9l6 4l-13 21h-14l-25 9l-3 -4h-21l-36 -9h-16l-33 -26v-21l-18 -7l4 -6l-8 -9l-14 -28l-3 -51l9 -69l3 -76l9 -30h4l26 -25l-5 -4l26 -35l22 -16l-6 -5l18 -16l18 -9l-6 -4h9l4 4l21 -9
l9 5l5 4h4l12 -4l30 16l9 18h4l-4 3l21 22v26l22 50v30l15 21v18zM487 221l-9 -18v-12l5 -4v-18l-14 -21l-3 -30l-22 -25l-3 4l-21 -50l-15 -14l-3 5l-4 -5v-7h-8l-6 -5v-9l-3 5l-9 -12l-4 3l-9 -12l-8 -9l5 -3l-30 -6l-9 -12h-9l-3 -4l-31 -5h-38l-29 9l-30 25h-18l-21 17
l-9 9l6 4v9l-18 3l-9 9l-16 39l4 3l-25 27l-9 28v14l-9 8l9 17l-9 22l-3 21l-6 30v12h6l3 64l13 55l26 51h4l5 13v12h7l9 9v12l12 18v12l27 21l3 6l13 -9l48 30l16 12l21 -5h14v-3l7 -9h18l17 -9h7v-7l27 -9l12 3l34 -24l9 -9l34 -25l12 -48l21 -30v-7l-3 -5l21 -13l3 -51
l9 -12v-25l-9 -14l9 -7v-30z" />
    <glyph glyph-name="P" unicode="P" 
d="M476 383h-3l-5 22v17l-9 7l-16 22l-6 14l-7 -5l-5 -4l-3 4l-31 8l-8 13l-25 12l-34 -12l-14 21l-12 -9l-38 -3v-13l-5 -26v-22l5 -37v-72l13 -21l12 -4h73l16 4l17 -9l25 26h9l5 -5l22 12v6l3 21l21 25v8zM531 345l-12.001 -22v-12l-18 -16l-3 4l-9 -13h-9l-7 -21l-9 -9
h-18l-16 -9l4 -3l-43 -9h-24h-15l-28 -9h-26l-4 -4l-18 9l-16 -5l-5 -16v-14l13 -13l-13 -12v-3l5 -6h-5l-9 -16l6 -5l-6 -4l14 -17l4 -43l21 -21l34 5l9 -14l21 5l12 9l13 -9h9l5 -33l-9 -9v-12l-12 -18l-18 3l-39 9l-28 -3l-9 -9l-69 3l-4 6l-3 -6l-18 -3l-9 9l-46 -6
l-9 9l-9 -9l-24 6l-22 9h-8l-4 16h-9l4 12v14l21 12l-4 4h9l4 -4l3 4l15 9l24 -4l4 4l14 12l21 -9v-3h22l3 21v9h4l5 4v12h3v81v39l6 161l7 16l-4 21l-3 6v37l7 14v7l-16 9l-5 5l-7 -8l-9 8l-9 -14l-21 6v3l-4 5l-9 -8l-30 3l-18 9l-12 21v9l27 16l-6 5l39 -5l4 -4l17 9h38
h17l52 -5l24 -12l13 5l21 12l14 -5l16 -4l21 -3l39 -5l25 -4l18 -18l21 9c2 -2 3.66699 -4 5 -6c1.33301 -1.33301 2.33301 -2.83301 3 -4.5s1.33398 -2.5 2.00098 -2.5l11 -17l21 -9l-5 -3l14 -25l-5 -5l12 -13l15 -26l7 -38z" />
    <glyph glyph-name="Q" unicode="Q" 
d="M284 57h-4l-12 -12v-18h12v5l13 16zM420 223l-3 22l-6 12l9 18l-9 21l-3 4l3 21l6 33l-22 22h-9l-12 8l-9 4v30l-12 12h-9l-5 27h-4l-3 12l-15 9l-16 -9l-12 13v5h-9l-5 -5h-16l-30 5l-18 -21l-7 -18h-5l-21 -21v-12l5 -6l-14 -12l-16 -16v-21l-9 -18h-4l4 -4v-5l-12 -16
l-6 -35l14 -13v-12l-5 -4h-3l-6 -30l14 -30l-14 -21l14 -25l13 -26h25l8 -9l31 5l15 16l6 9l21 9l9 -9h12l9 5l7 -14l18 -7v-5l18 -9v-4l33 -17l16 21v26l9 9l21 59l13 17h-4zM501 -70v-25h-5l-3 -9l-43 -39l-48 5l-16 4l-5 5l-12 16l-4 -3l-9 8l-3 -5v5l-9 8l-5 -4l-13 21
v9l-16 12h-14v4l-7 9h-48l-33 9v9l-22 3l-17 18h-13l-24 30v7l-9 9l-13 12v14l-17 13l-4 16l-12 14v12l3 4l-12 17v13l3 3l-8 9l5 13l-9 8l4 27l-13 16l5 85l8 39l5 12l16 30l-4 16v6l9 8l-5 4v9h5l12 16l4 9h5l4 12l33 35l15 4l16 3l-4 6l12 3h9l13 27l33 3l6 4l70 -4
l18 -17l-3 -4l37 -18l17 -15l25 -13l9 -14l18 -34l12 -9l13 -15v-48l17 -29l7 -38l-3 -47l9 -8l-9 -30v-31l-9 -8v-34l-12 -34l-9 -8v-4l5 -5h-5l-13 -46v-13h-17l-25 -33l-4 3l-9 -9l4 -21l18 -12l12 3h4l5 18v12l51 9l16 -21l13 -30z" />
    <glyph glyph-name="R" unicode="R" 
d="M392 466l-3 -5h-6l-16 12v9h-14l-21 18l-12 -18l-43 5l-16 -9l-14 13l-7 -9l-18 -9h-12l-5 -4l-4 -139l34 8l8 -8l9 -13l16 -9v-5l9 9l27 12h24l9 14l30 4l16 12l6 27l12 3v25l-5 6v30l9 7zM516 20h-18l-3 -5v-9h-27l-12 9l-13 -9l-51 14v7l-3 5l-18 25v30l-4 4v39l4 60
v3l-9 9l5 4l-5 5h-9l6 4l-6 3h-12v14l-25 16h-9l4 5l-29 13l-5 3l-3 -3l-18 -5l-9 8l-34 -3l-8 9l-16 -9l-9 -9v-12l-4 -64v-34l4 -5l3 -51l6 -4l3 -21v-4l9 -9l25 4v-9l48 -3l8 -9v-21l-17 -16l-22 12h-21l-9 -9v-3l-24 12l-18 -5l-34 -4h-33h-34h-18l-12 4l-9 9l4 5l-7 7
l7 14l5 4l30 8l37 13h18l12 21v21l4 4l-4 5l4 80l5 5l-12 9v21l-6 4l9 17v34l-3 4l-6 60l-8 9l5 28l9 14l-6 21l-21 16l-3 6v16l12 8l-12 13l-6 -4h-28l-30 13h-5l-4 -4l-18 28l9 36l52 7h24l6 -4h8l4 4l43 5l3 4l60 -4v-5h30l13 5h9l15 -17h9l9 12l13 -4l17 -3l34 -5l18 -9
h21l16 -16l-2 2l4 5l3 -4l-5 -3l33 -48v-7l6 -5l12 -68l-9 -21l6 -12h-6l-12 -30l-18 -9l5 -4h-12l-5 -14l-34 -25l-3 4l-15 -16v-13l9 -8v-13l6 -5l7 -12l5 3l4 -25l8 -24l-3 -27l3 -4l4 -8l-7 -9l3 -52l18 -12l16 -4l9 -8l3 3l18 9l-3 5h15l6 -5l3 5l18 -17l4 3l3 -12v-9z
" />
    <glyph glyph-name="S" unicode="S" 
d="M476 136l-18 -52v-8h-3l-9 -25v-4l-9 -9l3 -5l-21 -7l-16 -21l-17 -9l-13 4h-12l-5 -4l-50 -5l-21 -13l-14 9l-13 13l-37 -4l-27 21l-15 9l-27 -18v-8h-46l-9 8l-12 25l9 30l-6 21v9h6l7 25l-4 27l-3 24v39l7 13l30 -4v-5l30 -16v-21l12 -39h9v-9l30 -25h9l4 -18l46 -15
l5 3l9 -9h16l5 6v7l42 5l16 25l18 9v8l16 16l-4 6l13 21l-9 16l18 18v3l-4 5h4l3 4l-7 12l4 6l-18 16v5l-12 3l-52 22h-16l-12 8l-5 -3h-52l-28 16l-14 -4h-16l-5 4l-13 26l-21 4l-25 30l-5 4h-7l3 5l-12 21v16l-12 18v30l-9 7l12 9v12h9l9 9l-5 5l8 7v15l4 -6l18 13v14
l21 12l12 -5l21 14l6 -5l25 17l3 -5l18 14l25 -9l8 -5l9 -7l43 -5l25 -13h14l3 -12l25 -21h5l4 30l5 21h25l12 -9l6 -30h-6l-16 -30l13 -21l-6 -16l9 -9l-3 -42v-6l-13 -12h-8l-13 30l-5 -4v13l-13 12l-3 21l-5 -3l-4 21l-9 4l-12 8h-5l-4 -5v5l-9 4l-12 9l-4 -4l-26 25
l-22 -3v3l-16 4h-14l-16 -7l-5 -6l9 -9l-30 -12l-28 5v4l-9 9h-6v-13l6 -5l-9 -9v-12l-9 -9l-4 -21l13 -22l-9 -7l5 -26l16 -16l30 -14l4 5l18 -12v-6l3 -3h5l4 3l18 9l3 -3l9 7l76 -29l39 4l16 -12l21 -39h9v-4l18 -5l12 -29l-3 -5l16 -16l5 -17h-5v-43l5 -4h-5l-4 -5
l12 -16z" />
    <glyph glyph-name="T" unicode="T" 
d="M486 351l4 -18l-16 -33l-39 3l-9 69l5 4l-5 5l-4 16l-5 18v12l5 30l-12 9l-9 21l-9 7l-12 -3h-6l-7 9l-14 -34l-7 -9l-9 12v22l9 9l-5 12l-13 -4l-12 -26l-5 -34v-21l9 -12l-9 -9v-13v-33l5 -6l-9 -8l4 -34v-9h-4l-3 -3l3 -4l4 -39l-13 -9v-12l-3 -4l3 -5l6 -9l-9 -7
l3 -30l6 -21h-6v-60l27 -16l3 3l34 -18l18 18l21 -12l21 -6l4 6l17 -9l9 -9l4 -34l-21 -3l-9 -9l-4 4l-9 -9l-39 5l-46 4l-42 5l-39 3h-4l-8 -8h-13l-12 -9v5l-21 12l-27 -3l-16 -9l-26 4l-4 5l-12 16l3 21l9 21l39 9l12 -12l22 3h8l4 6l18 3l16 -12h8l9 9v24l4 39l9 7
l-9 18l5 21l-9 9l-5 25l9 9v39v33l-9 16l5 6l-9 16l4 14l18 24v13l-4 5l-5 13h-4v63v16l-9 14l-38 4v3h-13l-25 -12l-5 -21l14 -13l-5 -17h-16l-14 -7l-4 -57l-3 -4l12 -21l-5 -25l-13 -14l6 -3l-27 -21l-30 12l-16 30v18l16 21l-3 28l-4 14l12 16l-5 18v12h5v18v13v37l-8 9
l42 33l25 5v-5h35l4 5l9 -8l12 12l12 -4l39 -5h4l5 -3l4 3l9 -3h12l9 8l30 -5l28 -3l21 -4l15 12h7v-5l26 -3l25 -4l21 -14l6 -25l3 -3l4 3v-18l14 -3l-14 -25l5 -5v-16v-36l-9 -7l13 -39l-4 -12l4 -5h5zM341 406l-9 21l18 -4v-21z" />
    <glyph glyph-name="U" unicode="U" 
d="M346 181l-3 25l21 -9v-4l4 -3zM488 494l-14 9l-22 -9l-12 -12l5 -46l4 -30l3 -46h-3l-12 -22l8 -30v-55l7 -8h-3l-4 -61l-5 -37l12 -17v-13h-3l-4 -17h-5l-9 -9v-13l-7 -9l-9 -28l-5 -14l-16 -12l-5 5l-7 -18l-6 4l-3 -4l-13 -12l-26 -6l-13 -15h-12v3l-12 12l-22 -7
l-21 7h-26l-22 9v6l-24 3l-18 9l-16 42v4l-27 30l-12 34v94l18 17l-21 43l12 25l-9 60h9v24l-9 22l4 3l-4 6v15l4 6l-4 3l4 6l-7 16v30l-15 21l-16 -12l-12 8l-30 4l4 3l-4 6l-5 25h5l4 5l8 7l4 -4h14l7 9v-5l18 -7l25 7l5 -4h3l9 9l22 -9h3l5 4l-5 5l21 -9l9 9l34 -5
l26 -12v-38l-5 -5l-46 -9v6h-21l-13 -22l4 -26l9 -7l-4 -15l-17 -21l3 -3l-7 -9l4 -4l12 -12l-9 -43v-35l-7 -16l4 -5l8 -21l-5 -29h-3v-30l8 -9l-5 -3l9 -9l-9 -9l9 -25l12 4l-3 -4l3 -5h9v-12l6 -4l-9 -9l3 -12v-9l27 -12l25 -6v-3l8 -9l64 3l25 6l26 30l-8 7l8 9h16
l18 21l-5 5l-4 7l9 9l-5 6l-4 37l-9 9v30l6 -6l7 30v22l9 9l-9 12v18l-4 12l4 4l-4 5l-3 30h3l4 3l-13 22l6 17l-4 -3l-3 3l1 4l6 -4l12 22l-5 21l-7 7l-6 14l-16 13h-35l-28 3l-9 18l3 3v9h6l12 21h25l9 9h9l8 -9l22 4l12 5h9v-5l25 -16l12 9h30l9 7h12l9 -4l16 -3l18 -18
v-30z" />
    <glyph glyph-name="V" unicode="V" 
d="M533 518l-4 -3l-48 -9l-9 9h-7l-14 -18h-12l-16 -25l3 -14l-17 -16v-18l-4 -3l-3 -27l-9 -16v-5l3 -4l-9 -8l-3 -31l-18 -42l5 -4v-12l-17 -21l5 -5l-9 -8v-8l4 -6l-9 -7v-30l-16 -30v-9l9 -9l-9 -7l4 -5v-25h-9l-7 -9v-42h-6l-3 -21l-34 -25l-5 -5l-4 -4h-12l-43 51l8 7
l-4 15l9 7l-9 8l-9 64l-9 13l6 14l3 3l-12 13v5l3 4l-12 12v26l-9 16l5 6v3l-5 4l-7 17l3 4l-12 27v58l-18 39v12l-3 30l-18 18v4l-3 3h3l5 5v9l-3 -3l-4 3l2 4l5 -4v25l-26 9l-46 -12l-9 3l-9 9l-3 -5l-18 21v21l-4 5l13 9v7l9 9l16 6l99 -6h37h51l18 -16l3 -51l-21 -9
l-39 4h-12l-4 -4l9 -12v-39l-5 -4l5 -5l16 -37v-34l9 -5h12l6 -13l7 -3l-7 -9v-34l3 -72l18 -39l3 -16l25 4l14 21l7 42l-7 39l16 7v39l6 -3h3l9 28l12 18l9 9l-5 3v48h5l4 3v13h5l4 5v4l-9 3l-4 30l-5 13h-25l-9 8l-3 -3l-18 25v12l12 21l22 6h35l76 -6l4 6h33l22 -6l26 -7
l16 -35z" />
    <glyph glyph-name="W" unicode="W" 
d="M175 236h-8v-4h8v4zM172 261v-22l3 6zM512 521v-13h-6l-7 -8l-14 12h-3l-4 -4l-5 -39l-9 -33l5 -34v-21l-9 -30l4 -5l-7 -8l3 -14h-3l-9 -21v-37l-9 -9l-3 -25l-6 -42l-3 -60h-6l-7 -18l4 -4v-12h-4l-5 -5l5 -4l-9 -21l4 -25h-4l-12 -35h-5l-4 -4v-9h-9l-3 -3l-14 -6v-3
h-7v3h3l4 6l-13 9h-16l-9 21l-8 7l-4 39v64h4l3 3v14l-3 4l-4 51l-21 25l12 34v14l-9 7l-8 30l5 5v4l-9 9h-5l-7 -9v-13l-15 -17v-16l6 -27h-6l-3 -30l-9 -55l5 -12v-9l-8 -9l3 -3l5 -30l7 -22h-3l-4 6l-8 -36l3 -25l-12 -3l-22 -18l-46 4l-21 30l4 102l-18 25l5 18v9l-5 3
l-12 34l8 9l-3 12v13l-5 5l-9 12l5 39v16v13l4 17l-9 18l9 7l-4 5h-9l4 34l5 3l-21 27v12l-5 4l5 30v5l-5 4l-8 -9l-26 5h-12l3 4l-12 9l-9 9v3l26 18l30 -5l8 -9l8 14l6 -5h12l-5 -4h26l4 4v5l30 -21v-9l4 -6l5 6l-13 -6l-42 6l-5 -6l5 -3l-5 -4v-14l17 -21l-5 -16l-4 -21
l4 -6l14 -12l-5 -3l9 -9v-60l12 -8v-14l9 -3v-39l9 -16l9 -9l16 18l-4 3l9 9v21l7 9v7l-7 9l12 21l13 6l12 28l-3 5l3 4l9 5v-26l-4 -13v-3l22 -14l21 5l3 3l13 6l12 37l21 -37l15 -27l7 -9v-55l9 -3l-4 -13v-17l4 -4h5l7 7v18l9 12l-4 13v9l-5 5l14 4l12 12l-5 21v27l14 7
v42l7 9l-12 34l18 21l16 5l8 16l-15 18h-18h-4v18h4v-6l3 -3l6 3l51 6l4 7l12 14l5 -5h13l-6 -4v-5l6 -4l3 4zM303 423l9 7l8 -7h-17zM273 452l-13 -13l-12 18l9 21l-6 13v9l9 3l13 12l-4 -1l-3 9l3 1l9 -16h-5l-4 -5l9 -9zM345 503h-30l-3 -3h-13v3l-9 9l4 12v6l-4 3h-12
l21 13v-4l25 -5h12v-4l6 -3h9z" />
    <glyph glyph-name="X" unicode="X" 
d="M550 0l-26 -9h-34l-3 -4l-9 9l-21 -5h-31l-8 14l-34 -5l-12 -4l-13 -5h-9l-9 9l-3 -4l-18 4l-3 17l-9 9l3 28l18 9l21 -3h4l9 21l-4 3h-5v13l9 9l-9 17l-9 9l5 4l-5 3h-4l-12 9l-5 52l-21 38l-8 8h-8l-9 -13v-30l-25 -12l-9 -13l-5 -3l5 -6l-5 -30l-7 -12l-9 -9l3 -3v-9
l-3 5l-5 -21l-13 -18l18 -9l21 -3l21 -6l4 -3h9l9 -34h-6l-7 -17l-72 -4l-22 -9l-5 4h-7v5h-57h-58l-12 12l-6 -3l-16 16l-5 21h5l4 18l12 9l6 -6l7 9h30l51 4l18 21l7 35l35 16v21l7 22h15l12 21l-5 5h5l3 16l22 21l-4 6l16 12l9 25l-4 5l13 13l-13 21l-30 16l4 42h21
l30 -37l27 9l7 16v26l14 22l-5 3l21 25l9 14l-4 21l-21 16l-9 9h-18l-3 18l-5 -6v13l26 18h43l15 3v5l39 -5h25l6 5v-5l51 -3l16 -9l12 -22l-3 -12l-22 -9h-51l-3 -3l-31 -9l4 -4l-12 -14l-16 -42l-18 -16l-4 -13l-5 -8l-16 -27l4 -4l-18 -12l-12 -39v-9h-4l-5 -3v-13l9 -9
l12 -46l14 -30h4l3 -17h18l-4 -4l25 -18l18 -63v-13l12 -9l9 -8l4 5v-9l12 -9l9 -9l21 6l21 3h22l8 -12l9 -4l7 -9zM265 506l-33 12l-18 -3l30 -73l-5 -27l-7 -7l-18 4l-21 25l-13 30l-8 9l3 3l-21 9v12l-16 9l-51 -9l-30 9l-13 30l13 9v9l21 12l21 4l9 -9h55h26h16l30 -3
l43 -4l3 -30z" />
    <glyph glyph-name="Y" unicode="Y" 
d="M508 530l-29 -8l-21 -22h-9l-12 -12l3 -12v-13h-17l-7 -12l-9 -9v-18l-9 -9l3 -3l9 -12l-16 -9l-8 -9v-9l-18 5l-4 -5v-7h-5l-4 -30l-8 -27v-16l-4 -5v-7l-5 3l-16 -21v-25h-5l-8 -21l8 -48v-37l5 -5l12 -25l13 -5l8 -7h61l16 -14h8l-3 -4l3 -3l9 -27l-5 -12v-9h-7l-5 -9
l-46 -4l-31 -3h-21l-3 3l-6 -3l-46 -5l-12 -4v4l-5 5l-9 -9l-13 9h-3l-5 -5v5l-4 3l-4 -3v-5h-14v5l-24 3h-46l-6 -3l-12 12l-18 25l18 34l12 14h76l22 3l5 55l9 21l7 9l-13 25l6 30l7 21l-13 39l-3 4l-5 18l-22 12h-7l4 3l-9 15v12l-9 9l5 3l-5 4l5 5l-5 4l-3 18l-13 8
l-18 38l-30 42l-33 9l-9 3l-7 9l-39 9l3 4l-16 17l4 22v8l64 9l63 4l18 12l51 -16l13 -5l3 -12v-9l18 -13l4 4l17 -21v-4l-8 -9h-31l-24 -25v-33l12 -14l12 -29l18 -14l25 -12l34 33h8l13 18v4l-4 5l9 9l-5 12l9 9l-4 4l16 24v9l-21 18l-25 3l-12 22l3 12v5l13 13l175 3v-3
l9 -4l24 -17v-25z" />
    <glyph glyph-name="Z" unicode="Z" 
d="M466 154l-14 -24l-7 -18l7 -46l-4 -9l-3 -34l-30 -12l-22 4l-9 8l-8 -8l-4 5l-18 -14l6 -4h-22v4l-8 9l-13 -9l-26 5l-4 -5v-7l-12 -6v6l-30 16l-39 -9l-25 14l-60 -5l-4 -4l-9 -5l-24 21l7 30h5l9 18l33 42l4 13l5 -4l16 21l5 34h8l14 37h7l9 21l9 9l-4 5l12 13l4 21
l5 9h7l18 21v13l12 8l6 25l28 18l5 42l37 38v26l-7 13h-26h-13l-12 -13l-21 4h-9l-9 12l-3 -3v3l-30 9l-18 -30h-13l-8 -13l8 -24h-8l-4 -9l-12 -13l3 -39l-12 -8v-9l-21 -7l-18 16v21l-7 18l3 15l9 22v56l4 22v7h5l7 17l5 -3l16 16h18l9 9l21 -4v-5h16l30 9l13 8l17 -5
l18 -3l46 -4h18l3 4l13 -9l21 9h12l30 -18h13l14 -21l-5 -16h5v-13h-5l-16 -17v-9l-18 -16l9 -9l-9 -9l3 -3l-21 -15l-16 -37l-9 -9v-3l4 -5l-21 -13l-16 4l-18 -25l5 -4h-5l-9 -35l6 -3h-6l-3 -4l3 -5l-37 -25l-5 -30l-29 -4l-5 -9l-9 -12v-21h-7l-5 -14l-21 -13l-38 -42
l-5 -21l-12 -22v-9l-9 -7l18 -14l12 14v13l4 3l14 -9h3l4 6v-9l14 -4h34l16 7l14 9l12 -3v-9l21 -9h16l6 5l37 7l5 6l30 30l7 16v26l9 25l-3 18l-6 12v13l21 21h6l3 -4l9 7l18 -3v-9l-5 -4l8 -8z" />
    <glyph glyph-name="bracketleft" unicode="[" 
d="M378 604l-62 -4l1 1l-63 -26l10 -15l-36 -56v-1v-7l2 -62l9 -19l-6 -48l-5 -13l1 -17l9 -49l-10 -52l12 -31l-15 -28l-3 -51l9 -36l-16 -32l15 -37l-5 -21l-3 -43l32 -23l90 5l48 -41l-6 -24v-30l-43 -15l-51 5l-35 11l-14 8l-38 -12l-45 6l-12 17l-12 22l9 126l6 21
l-3 14l-3 32l-10 43l12 20l-4 73l13 73l10 16l-12 28l-10 99l7 16l4 33l-7 25v17l10 20l-13 47l13 35l-17 23l15 42l38 3l52 12h47l13 -4l36 4h2h37l19 -45z" />
    <glyph glyph-name="backslash" unicode="\" 
d="M497 -159l-25 16l-25 57l-30 16l-9 18l4 3l-12 18l5 3l-14 13h-4l-3 17v9l-18 25h-9l-12 27l-4 24l-5 18l-25 12l-5 13h-4l-9 39l-16 21l-51 106l-34 21l-14 50l-21 27l-12 42l-25 30l-12 28l-36 48v21l-12 16l-37 57l-6 -5v12l6 14l-9 7l3 22l18 5l16 -12l21 -6l14 -12
l22 -46l33 -52l30 -93l13 -4l16 -30l-4 -21l18 -27l49 -71l18 -51l-4 -5l46 -46l22 -52l24 -37l-3 -5l39 -73l21 -12l7 -30l-3 -21l12 -13h5l13 -30l-9 -12l9 -13l3 4l18 -4v-12l21 -26l9 -34z" />
    <glyph glyph-name="bracketright" unicode="]" 
d="M401 390l4 -73l-12 -72l-11 -17l13 -27l6 -112l-5 -4l8 -36l-5 -28l-4 -4l5 -7v-32l4 -35l-7 -13l2 -13l3 -10l5 -21l-14 -44l-39 -1l-52 -12l-47 -1l-13 4l-36 -3h-2l-36 -1l-20 45l23 55l63 4l-2 -1l62 26l-9 15l40 57l2 3l-1 7l-18 30l16 31l-9 20l7 48l4 12l-1 17
l-8 50l9 51l-11 32l14 27l3 52l-8 36l15 31l-14 38l4 20l-3 41l-21 13l21 21v-2l-67 5l-26 -7l-28 -12l-48 41l5 24v30l44 15l49 -4l36 -11l14 -9l39 12l46 -6l9 -16l14 -23l-11 -125l-6 -23l3 -12l4 -34l11 -41z" />
    <glyph glyph-name="asciicircum" unicode="^" 
d="M431 597v-5l-29 -12l-21 3l-48 39l-16 25l-42 30l-27 5l-16 25l-42 -12l-5 -6l-22 14l-3 -47l-18 -38l-30 -30l-25 9l-12 37l58 85l15 6l21 24l67 55l30 -9l4 6l42 -13l34 -35l21 -43l21 -15v-13l48 -35z" />
    <glyph glyph-name="underscore" unicode="_" 
d="M604 -167l-18 -22l-21 -9h-12l-9 -8h-4l-5 5l-4 -5l-21 5l-46 9l-57 -6l-9 9l-16 -9l-43 6l-14 -14l-105 5l-42 9l-13 -9l-12 3l-128 6l-28 3l-36 13l-15 17l8 54l38 26h39l15 4l6 4l16 -4l80 -9l5 -3h7l5 3l22 5h37h128h37l79 -8l12 8l73 -5l17 -3l8 -9l5 3l12 -12l-3 3
l9 9l3 -3l-5 -4l5 -5h9z" />
    <glyph glyph-name="grave" unicode="`" 
d="M365 475v-5l-25 -7l-63 37l3 5l-12 7l3 5l-7 16l-17 15l-4 -6l-48 21l-12 27l-30 28l12 36l14 7l64 -13l25 -16l3 -5l-7 -9l25 -24v-31l21 -3l46 -43l15 -8z" />
    <glyph glyph-name="a" unicode="a" 
d="M336 151l-16 12l4 6l9 21l3 -6v9l-12 4v-4l-43 -9l-12 -3h-25v3h-14l-3 -3h-39l-8 -9l-5 4v-7l-3 -6l-6 6h-12l-4 -6h-8l-4 -12l7 -9l-7 -16l4 -30l12 -12h12l9 -9h9v3l4 6h35l42 -6l16 18h18l25 25l-4 5l13 12h9l8 13h-14zM357 324l-12 18h-16l-14 9v9l-50 3l-8 9h-43
l-9 -9l-17 4l-8 -16l8 -18l-4 -3l18 -34l-30 -27l-27 -3l5 -13l64 -5l9 18h4l3 -5v-4l5 4l30 8l8 18h14l33 -5l9 18l13 8l15 -8v24zM511 45l-5 -4v-14l-21 -21v-7l-58 -9l-13 9l-5 -6l-34 22l-12 21l-9 -9l-30 -4l-21 -17h-25l-9 -7h-34l-5 3l-3 -3l-22 -9l-9 9l-3 -6v6h-21
l-6 -6l-12 13l-37 -4l-39 39h-9v7l-12 9l3 12l-7 15l-9 24l13 22l-9 17l5 25l21 9l25 37l9 9h16l18 5v7l-34 9v9l-5 4l-16 35v21l-6 16v21l15 18l-6 4l9 8l-3 13h7l5 5l9 7h7l5 -3l25 17l9 7l9 -7l3 4l34 9l39 -6l3 -3l6 3l54 6v-6l43 -3l18 -9l-6 -3l18 -6h9l16 -25l5 -3
h-5l-4 -5l16 -16l6 -27v-118v-52l3 -21h-3l-6 -4l9 -17l5 -4h7v-5l9 -7l27 12l21 4h12v-4l9 -9z" />
    <glyph glyph-name="b" unicode="b" 
d="M383 211l-4 4l-9 21l9 17l-14 22v33l-21 9l-13 21l-16 13l-8 -13h-39v9h-13l-9 -9v-3l-16 -18l-14 -33h-3l-21 -31l-4 -17h-5l9 -7l-4 -6h-5l9 -8l-4 -4l-9 -18l4 -12v-34l30 -42l12 -4l30 -30l21 -5l13 -7l21 7l30 14v7l4 5h5l4 16l26 30l4 13l3 21l6 14zM455 193v-42
l-9 -7l4 -14l-21 -38v-8l-59 -64l-26 -18h-13l-8 -7h-8l-5 -5v5h-34l-3 -5l-9 9h-12l-18 12l-25 18l-9 9l-51 -31h-18l-12 31l9 21l-4 21v12l7 9l-3 37l-4 6l7 12l-7 21l-5 4v72l9 9l-4 22h4v12l-4 4h4l3 14l-7 16v69l-5 21l-4 55l-5 3l-12 13l-46 5l-22 12l-8 13l-4 21
l34 39l21 -5l94 -4l28 -34l-7 -33l4 -30l3 -27l-7 -7l-5 -48h-4l-5 -3l9 -9v-4l-4 -5l13 -9h8l16 21l6 -3l8 21l38 13l12 8l48 -8l33 5l4 3v4l18 -7l12 -21v-18l5 -4l7 -14l6 6l9 -9l-6 -4l18 -9v-12l16 -27v-42l9 -13l5 -3l-5 -5l5 -4v-18z" />
    <glyph glyph-name="c" unicode="c" 
d="M455 66l-12 -7l3 -6l-24 -30l-9 -7h-13l-8 -14h-4l-5 5l-13 -12h-16l-9 -14h-17l-13 -7l-17 3l-4 -3l-18 -9l-12 9l-3 -5l-9 8h-30l-22 13l-63 39l-13 12l-9 18l-12 21l-9 16l-3 -4l-13 13l4 3v9l-4 6l-5 49l-4 30v5l9 8v26l4 25l33 55l13 9l-4 5h4l9 16l21 12l5 14l7 7
l-2 -1l-5 3l4 4l3 -6h6l3 6l48 12l3 -3l13 7l26 9l4 -4l3 9v-5l9 -4l39 -5h13l8 -7l16 3l31 -30h5l3 5l22 -17v-9l3 -4h9l-4 -5l4 -4l18 -17v-13l9 -8l-9 -13l3 -3h6l-15 -39v-4l6 -5h-9l-30 -25l-30 4l-13 8l-9 -8l-12 5l-4 12v4l-5 5v25l30 34l-3 8l-27 18l-3 12l-39 13
l-29 5l-5 -5l-21 -13l-21 -8h-13l-17 -16l-29 -30v-6l-14 -12l5 -4v-12h-5v-14l14 -59l4 -5h-4v-28l21 -39h16l22 -30l21 -9l30 -16l30 3l30 18h4l3 -5l9 26h9l30 31l-5 3l51 18l34 -9v-27l-4 -12l9 -9z" />
    <glyph glyph-name="d" unicode="d" 
d="M331 215l-3 5l3 58l-8 18l-25 4l-22 26l-17 4l-46 5l-21 -14l-13 -25h-9l-9 -21l-12 -13l-9 -17l4 -34l5 -55l12 -33h13l18 -15v-7l24 -39l-3 -3h30l3 7h4l9 18l12 3l9 14l18 4l30 30v9l7 16h5l4 30zM484 -14h-25l-9 -9l-16 4l-5 5h-13l-3 -5h-30l-13 14l-5 -5v-4l-21 9
l-13 16l-17 -16h-16l-22 -30l-21 4h-5l-7 8l-9 -8h-30l3 5l-7 7h-35l-12 21l-9 9l-4 -4l-25 25v6l4 3l-21 34l-18 21l5 21l-5 6l-12 28l5 5l-5 4l5 63l3 22l4 12l9 9l-4 5l9 7v22l7 8v6l-3 3h3l9 21l9 13l4 -4l42 37l18 9h21l21 13l39 -7h16v-6l18 -3h12v-13l9 -8l25 3l9 12
v9l3 -3l5 3v6l-8 7v14l-13 16l13 21l-13 21l-12 9h-14l-4 -3l-55 3l-30 34l4 -4l9 25l8 18l4 -6l9 15l30 -9h30l4 -6h8l9 9l34 -3l21 -9l9 -21l3 -68v-42l-8 -14l8 -59l-3 -30v-9l3 -3v-21v-22v-17l-3 -4v-5l9 -7l-6 -43l9 -9v-26l4 -59v-8l14 -13h25l9 -12h24l13 -9l9 -9
l5 -30z" />
    <glyph glyph-name="e" unicode="e" 
d="M319 338l-4 13l-5 -9h-3l-6 4v5l-24 -5l-9 -8l-4 4v4h-9l-3 5v3h-18l-12 -12l3 -18l-9 -7v-5l-3 -21c0 -0.666992 -0.833008 -2.16699 -2.5 -4.5s-3.16699 -4.83301 -4.5 -7.5l-6 -10l-12 -8l-5 -4l9 -21l8 -4v-5h13l21 -4l21 11l10 5l8 -3l12 -13l9 9h7l9 13l5 -6h22
l3 69zM455 248v-12h-5l-4 -18v-3l4 -4l-4 -21h-33v3l-9 4h-12l-6 -4l-25 -17l-30 21l-42 -13l-9 -12l-3 -3h-9v12l-13 9l-55 -6l-26 -8l-13 5l-3 3l-12 -12l12 -21l-9 -9l12 -16l-3 -5l16 -30l26 -13v-3l43 -18l12 -12h25v-4l5 -5l22 12h33l13 9l12 27l21 12l27 25l16 5
l17 -21l-3 -21l-18 -22l-9 -17l-24 -18l-13 -16l-51 -9l-13 -12h-21l-9 -9l-12 3l-14 9l-59 6l-30 21v7l-3 5h-9v9l-12 7l-6 5l-3 22l-22 16l-12 21l-5 30l-4 48l-17 25v17l12 4l9 17v34h5l16 34v9l27 21l33 16v14l21 12l4 -5l12 14l9 -9l9 13l60 -4l59 -9l8 -9h13v-8l5 -4
h13l8 -21l25 -21v-13l18 -35l12 -13l-5 -3l9 -13z" />
    <glyph glyph-name="f" unicode="f" 
d="M398 -19l-21 14h-4l-9 -9l4 -5h-37l-21 -4v4l-9 9l-27 -4l-37 -5l-9 -7l-3 3h-9v4l-9 9l-4 -4l-47 -9l-13 -3h-3l-6 -5l-8 8h-8l-5 -3v3l-9 9l-24 4l-4 5l-9 21l4 13l9 9l-4 3v4l50 21h14l3 9l39 -22l13 6h12l12 21l6 37l3 76v6l4 3l-4 5v43l9 7l-12 43l3 30l-30 21h-12
h-13l-9 -9h-38l-16 9l-6 -4l-21 16l-3 9v12l12 15l21 -6l21 -3h13l5 3l16 6h30l18 -15h3l13 15v12l5 4l-9 26l9 21v4l-5 3l14 15v7l21 21v18h4l12 12h18l16 5l-4 4l21 12l13 -9h9v-7l8 -5l4 -4h5l-9 -12h-21l-9 -9l-3 4l-14 -13l-25 -12l-18 -12v-9h-3l-4 -22l-5 -30l5 -3
l21 -21v-9l16 -9l27 3l21 15l16 -6l18 -3h12v-9l9 -9v-16l-48 -5l-3 -4v4h-18h-21l-13 5h-12l-18 -18l9 -102l-3 -21l3 -4l9 -21l-9 -55l5 -5v-16l4 -48l25 5l5 4h12l9 -13l9 9h46l4 4l26 -16l9 -9v-48zM501 445l-6 -4l-15 -14l-39 5l-4 4v26l12 34v12l-5 4l-7 18l-18 -4
h-17l-7 7l-6 -3l-3 12l12 5l21 16l22 -21l12 -4l55 -47z" />
    <glyph glyph-name="g" unicode="g" 
d="M294 -14l3 4h6v-4h-9zM412 2l-3 -3h-14l-22 17v4h-12l-21 3l-13 -12h-12l-12 21l-57 -9v-7l-4 -5h-17l-7 18h-9l-9 -6l-4 -3l-39 -4l-3 -14l-18 -7l-3 -21l16 -5v-4h8l4 -5l-7 -16l3 -6v-3h4l14 -9l29 -3l5 -13l33 4l9 -13l16 4h30l9 9l21 3l13 -7l12 7l5 6l4 -6h12
l27 18v3l12 6v3l13 30zM357 253l-5 39l9 16l-9 9l5 4l-12 14l-9 3l-48 31l-15 -9l-31 12l-21 -3l-21 -13l-9 -26l-3 -30l8 -38l8 -9v-12l-4 -5l-4 -25l8 -9l5 -3v-6h16l5 6l4 -6h33h30l55 30l9 18zM497 -56v-13h-3l-9 -8l-9 -43l-3 4l-15 -16l-3 3h-13l-5 -9h-3l-9 -9l-9 6
h-12l-4 -6l-34 -24l-14 9l-16 -6l4 -3l-13 -4l-8 -9l-59 13l-21 -9h-18l-17 18l-38 3l4 5l-25 4l-9 9l-3 -6l-27 18l-3 -3l-13 3l-5 13l-21 12v5l5 4l-5 5l-9 25l-7 12l3 30v9l9 9v21l13 25l-4 4v5l7 9l-3 21l-9 21l5 4v9l-5 3v34l26 39h21h13l12 9v21l-12 12l3 4l-3 5v59
l-5 5l35 51h3l4 4l27 24h8l4 6l-4 -4l-3 6l3 1l4 -3l12 21l30 12l9 -8l25 5h12l22 -18h14l3 4l13 -13l5 6l4 -15l21 -15l12 3l9 21l9 9h12l4 4l21 9l30 -4l9 -21l18 -13l3 -14v-37l-3 -5v-7h-9l-5 -6l-25 -12l-13 12l-8 9l3 4l-12 30h-9v5h-16l-9 -21v-5l-3 -4l7 -9l9 -39
v-21l-4 -4l4 -3l-9 -21l5 -6l-18 -8l-9 -13l-7 -21l-35 -16l5 -5l-30 -16l-46 -6l-42 9l-22 22h-5l-9 -9h-21l-7 -9l-35 -34l14 -12l3 3l18 -7l3 -14h39l25 18h18l3 3v-3l39 -4h13l12 13h4l9 -9l5 3l7 -7l5 4l25 -21h5l4 8h25h30l33 -21l6 -5h9l12 -28l9 -36v-16l7 -5l5 -28
z" />
    <glyph glyph-name="h" unicode="h" 
d="M383 245l-9 8v52l-9 16h-9l-3 5v9l-4 -5h-14l-12 8l-31 4l-28 -25l4 -3l-4 -6l-26 -8l-4 -25l-39 -30l-16 -34h-5v-12l-4 -6l-5 -42l9 -13v-21h-4l4 -16l5 -5v-30l21 -13l13 9l25 -9l8 9l13 -9l9 -21l24 6l31 24h30l3 4l6 -4l12 -3l-4 49l7 22l-12 26l5 4l4 9l3 24l9 9z
M540 11l-14 -34l-42 4h-16h-30l-18 5h-16l-18 -9v4h-30l-21 -12l-21 17l-4 -5v9l-12 12v9l-13 12l-17 -16l-4 -12l-9 -9l-21 4l-21 -16l-9 3h-21l-9 -8l-21 5l-13 12l-17 -12h-13v3l-3 4l-6 -4l-3 4h-4l-5 -7l-43 7l-15 9l-9 9v12l9 9v30l46 3v-3h30l8 12l-5 22v12l5 5l-8 7
l8 15v15l4 6l-4 3l-8 13l3 47l5 4l-8 9l3 30l5 3l-8 13l-6 21l9 18l5 37l4 5l-9 9l5 46l-8 9l12 55l-4 18l-30 7h-17l-4 -4l-9 4l-17 5l-22 21l15 30l-6 4l30 18l25 -9l21 -6l22 -3h14l3 3h22l3 -3l14 -18l-5 -28l-4 -18l-5 -3l14 -27l-5 -25l-9 -9l9 -42h-4l-5 -18v-28
l9 -14l21 5l18 25l12 5h4l17 25l31 21h15l6 4l12 5v4l21 8v-3l22 -14l42 -4l18 -12v-21l12 -9l9 -4l4 -21v-9l3 -5l5 -16l4 -85h5v-9h-5l-4 -21v-64l9 -60v-4l22 -3h28h26l4 -6l9 -24z" />
    <glyph glyph-name="i" unicode="i" 
d="M493 15l-8 -17l-22 -9l-42 -4v4l-16 9l-18 -4h-30h-28l-5 -5l-9 9l-22 -9h-37l-26 -12l-13 8l-8 9l-4 -5l-73 5v4l-3 3l-5 -3l-22 3l-12 6l-9 24l5 30l22 13h24l13 9l60 -4h46v28l-7 15h-9l4 7h5l3 -4l13 21l-4 4l9 64l-5 17l-4 76h4l5 22l4 17v4l-13 12l-12 -3l-27 -25
l-8 12l-13 13h-25l-9 -9h-21l-17 21l5 6l-5 3l-8 12l4 31h12v8l43 -8l5 3v-3l37 -4l39 -5h9l4 -4l9 9l33 -5l18 -34v-97l3 -39v-30l-8 -16l5 -64l3 -21l9 -27v-3l9 -9l21 5l25 4h60l25 -4l12 -21l-3 -14v-4l9 -9zM318 474h-6l-3 3l-6 -3h-37l-30 3l-3 48v13l-4 -4l-3 5l1 2
l6 -3l12 21h4l12 12l5 -3h4l5 3l21 9l34 -18l12 -30l4 -37z" />
    <glyph glyph-name="j" unicode="j" 
d="M290 -47l-16 -15h-14v31l14 5l22 -9zM384 172l-3 -71l-6 -5v-12l9 -9l-3 -25l-6 -30l9 -9l-3 -67l-18 -27v-25l-9 -24v-18l-3 3l-22 -28l-33 -18l-6 4l-12 -7l-4 -5v-9l-14 5l-3 -5l-34 5l-21 4l-18 5h-12l-9 -14l-30 51l-4 -3l-9 8l-3 -5l-5 18l-13 12l-3 34l9 76l3 5
l21 21l4 -5l14 14l4 -5l3 5l14 7l46 -33l4 -25l9 -21v-13l-4 4l-9 -18l-9 -12h-12l-4 5l-21 -14v-7l16 -14h9v-4h39l3 4l39 5v16l25 21h4l9 9l-4 30l9 13l-5 21l-9 12l5 14l-9 4l9 9l-5 3v6l9 7l-2 -2l-5 3l3 4l4 -5v26l-4 21l-5 38v26l9 13l-9 38l5 4l-5 4v35l5 28l9 9
l-5 13v8l-16 13l-36 9l-21 -9v-4h-64l-12 13h-4l-5 -4l-7 9l-5 -5l-13 12l9 27l21 12v9l9 3l25 -3l18 -6l58 -3h69l4 3l12 6l21 -18l13 -34l-4 -3v-9l9 -9h-5v-76v-26v-25l5 -4zM363 453v-8h-9l-12 -13l-18 4l-4 5l-3 -5l-39 9l-21 33h-4v9h4l3 18l14 21l13 7l3 5v9l30 13
l22 -9l17 -21h13l3 -13l13 -9v-39z" />
    <glyph glyph-name="k" unicode="k" 
d="M513 7l5 -5v-3l-5 3l-7 -7h-27l-58 -5v5h-61l-12 -5v-4l-9 -9l-12 4h-9l-30 30l-4 27h25l13 15h8v18l-8 30h-4l-12 13v21l-18 9l5 28l-9 9l-5 21l-7 9l-21 -12l3 -6h-3l-9 -16h-13l-5 -5l-12 -12v-9h-4l-5 -4v-9h-9l-3 6l-9 -9v-30l9 -13v-5l-9 -7l9 -27l24 -3l39 -5
l13 -7v-31l-4 -8l-12 -18l-39 18l-13 -9h-17l-13 -13l-33 4h-34l-21 -4l-9 -3h-12l-27 42l5 16l13 13l3 -4l9 9l46 9l18 16l-4 5h-5v12h5l7 16v36l6 3l-9 9v21l-4 13h4l3 21v25l-3 35v13h9l9 16l-6 42l9 9l-9 12l6 39l-6 4l-9 9l9 54l-12 31l-46 5v3l-39 13v17l21 16l21 -3
h4l5 -4l9 7l58 -3l6 -4h7v-17l5 -4l4 4l-4 -25l-9 -18l9 -21l-5 -30v-25v-12v-61l9 -3l-9 -27l-7 -12l3 -21l4 -4h9l5 -39l12 -9l22 -8l16 8v6l17 7l30 30l16 26h18l4 4l5 -25l-34 -35l13 -43l24 -3l6 -4h7l14 -17l7 -52l27 -16l8 -26l13 -16l33 -9l4 -5l14 14l16 -6l21 -3
h9l9 -12l-5 -6l9 -16zM442 390v-18v-12l-30 -13l-9 -9l-55 -3l-5 -14h-4l-3 5h3l9 16v5l-21 9l-34 -9l-5 -5l-4 27v8l43 13l9 -9h12l4 -12v-9h12l21 21l18 9l42 -6zM488 356l-21 7v9l-4 5l16 7l5 -3h13z" />
    <glyph glyph-name="l" unicode="l" 
d="M486 2v-3l-34 -22h-17l-29 -8l-17 8l-22 -8l-17 8v4h-16l-13 -7l-5 3h-9v4l-55 5l-3 -5l-30 -4l-21 -8l-13 5h-9v3l-63 4l-22 21l9 9l-5 5l9 16h5l7 18l39 -5l39 17l12 -3h13l18 21l7 7l-7 30l7 30l14 9v9l7 7l-25 27h-3v12l21 25l12 39l-5 46v5l-4 4h9l13 26l-9 7l-9 30
h5v27l-5 85l-25 -9l-9 9h-51l-28 -14l3 5l-3 4h-6l-3 -4l-34 16l-9 14v25l30 9l4 -6l3 9l78 -3v-6l7 -7l39 4l4 3h21l14 -7l13 -5l12 -25l-4 -85l-8 -21l8 -9l-8 -12v-27l3 -3v-34l9 -34l-9 -8l-3 -77l-6 -5l9 -9v-21l5 -3l-8 -9v-30l12 -43l-4 -3l4 -4l9 -27l9 -8h16l5 5
l12 9l22 -21l21 -6l3 6l39 7l22 -13l8 -16z" />
    <glyph glyph-name="m" unicode="m" 
d="M446 300l-8 21l-4 -4h-5l-7 7l-6 14l-30 13l-12 -5v-13l-4 -16h-9l4 -5l-12 -12h-4l-18 -34v-18l-12 -25l21 -30l-3 -3v-6l-6 -24l-3 -13v-14l-13 -25l25 -30l-3 -3v-13l3 -5v-4l13 4l21 5l9 -17h3l14 8h16l18 9v4l-5 12l-4 39l18 21v13l-9 55l16 33l-7 9l3 5l9 34z
M549 2l-21 -9l-27 6h-42h-16l-73 3l-5 -9v6l-28 3h-14l-8 -9l-60 9l-3 -9l-21 9l-9 18l3 16l13 5l14 7l3 -3l13 12l12 9l-3 3h3l9 18l-9 21l-3 13l8 9l-5 3l9 18l-16 30l16 37l5 5l-5 4l-9 12v27l-3 3l24 27v7l-3 5l-4 -5l-9 9l-5 12l-21 6l-25 8l-3 4l-6 -4l-25 -14
l-17 -21l-4 -28h-9l-12 -30l9 -52v-106l7 -12v-9l-4 -4l22 -5l17 -16l-9 -26v-16l-60 -6l-21 -3h-30v9l-61 -3l-14 30l15 26l9 -9l8 5l22 18l17 -4h13l9 13l-4 3l7 13v69l5 21l4 34v30l-12 16l8 30l9 21l-5 5l-4 16l-17 18l-16 -9l-30 18v3l-6 4h-7l-5 14l-3 3l33 31l21 3
l9 -9l4 6l9 -9h12l34 -18l8 -12l6 5l7 -9l26 16l4 14l5 -5l22 18h15l6 3l7 -9l14 6l42 -48h8l8 9l18 -4l16 9l5 3v9l38 13l21 3l35 -12l21 -9l-5 -4l12 -8l6 -34l9 -9l-6 -51l-3 -25l-13 -46l13 -35v-98l9 -25l24 -5l4 5v4l21 -9l5 -21z" />
    <glyph glyph-name="n" unicode="n" 
d="M504 -10l-4 -4l-14 13h-34h-24l-6 -4l-55 -5l-8 9h-34l-9 12l5 34l4 -4l5 4l16 5l69 3l7 9l-3 4h-4l7 9l-3 5l-13 43l4 24l12 13l-12 17l5 13v9l-9 3l4 30l5 34l-14 21v21l-37 30l-13 4h-14l-12 -12l-30 -16h-16l-9 -18l4 -4l-25 -39v-12l-4 4h-9l-8 -13l3 -12l-3 3
l-25 -58l3 -21l4 -18l5 -25l-12 -9v-17l12 -22l64 -3l9 9l3 -6h9l-18 -8l-8 -34l-25 -25l-21 9l-13 -5l-12 -4v4h-36h-42l-4 5h-8l-9 -9l-13 9l-21 -5l-3 -4v-5l-13 9l-14 12l-4 -3h-3v21h3l9 21l13 12h24l27 13l12 -4l4 13l9 17v13l-4 3l13 15l-9 12l5 -5v56l-5 4l-4 12v55
v30l-5 5l9 8v14l-25 3l-12 4v14l-43 28l-5 18l-4 18l25 24l39 -12l4 4v-4l21 -5l21 17h5l4 13l3 -13h9v-8l18 -16h16l5 -6h9v-12h37l27 21h12l4 4l26 17l13 4l8 -7h8l5 3v4l21 -7l4 3h8l31 -24h8l34 -52h-5v-26l5 -25l12 -25v-9l-17 -21l5 -182l21 -14l4 5l26 -51z" />
    <glyph glyph-name="o" unicode="o" 
d="M399 236l-9 9l3 16l-7 8h-5l-3 34l-31 18v3l-17 6v3l-16 5l-21 16l3 -3l-21 -9l-4 -4l-5 4l-12 -9l-43 -3l-21 -18l-12 -16l-4 -27l-14 -16l9 -30l5 -26l4 -50l12 -14v-7l39 -57l21 -3v-4h46l27 16h12l9 -9l12 15l-5 3l30 30v13l-3 3l12 14l9 7v27l12 25zM484 151l-9 -51
v-9l-12 -7l-6 -6v-12l-16 -18l4 -3l-13 -13l-33 -26l-6 -13l-37 -9l-30 -15h-9l6 3l-9 9l-51 -4h-39l-8 16l-30 9l-30 30l-24 21l-15 22h-7l-17 16l3 5l-7 12l-5 22l5 42v9l4 3l-4 6l7 25v51l18 30v7h3l9 27h6l3 3v9h4l17 21l43 39l25 4l5 3l21 9l51 -3l22 12l24 -4l22 -21
l3 4h6l8 -9h13v-9l16 -16l5 4l25 -34l-4 -4l16 -21l9 -9l-3 -5l15 -16l6 -12v-6l3 -3l-9 -9l9 -12v-27l6 -16v-39z" />
    <glyph glyph-name="p" unicode="p" 
d="M431 176l-27 21v9l9 12l13 27l-13 8l-3 22l12 12l-9 16l-21 9v5l-21 13l-18 -9l-3 -4l-22 4l-12 3l-18 -7l-33 -35l-4 -21h-5v-13l-4 -9l-5 6l-2 -4l4 -3l3 1l-12 -12h-9l-5 -21l17 -25l-3 -5l21 -25v-13l-9 -8v-13l9 -9l16 -12l9 -21l3 3l27 -21l34 -4l8 9l9 13h22
l15 12v18l9 7l4 9l-13 12l-3 14l12 16h13l5 -3v16zM498 121l-3 -21l-14 -16l-4 -22h-9l-16 -17l-5 -18h-4l-5 -4l5 -3l-17 -9l-4 4l-26 -16l5 -15v-3l-12 -12l-15 3l-12 5l-21 4l-4 -4l-17 7l-16 -15v-13l-6 -5l-3 12l-18 9l5 5l-5 4h-9v9l-12 12l-4 -3l-17 -6l-9 -12l5 -51
l9 -9h12v-4l16 -9l14 9l25 -12l13 -9l12 4v-38l-4 -5v-12l-3 5l-14 -14h-38l-5 5h-7l-14 -12l-34 12l-12 -12l-21 3l-9 -9l-30 6l-4 3l-9 -9l-37 6l4 3l-34 9l-21 16l3 5l-8 9l5 34l16 12l5 -3l4 3h21l5 -3l16 7l21 -4h9l13 13l-4 30v12h4v48v25h5v12l-5 12l8 15l-3 21h-9
l-9 16l13 42l8 21v77l9 17l-5 76h-12l-25 -3v-5l-9 -8l-21 8l-18 5l-16 21l4 34l33 12l6 9l33 -4l13 -8h30l3 3l9 -9h12l6 -16l30 -12l3 3l13 -3l9 7h17l16 18h9l18 17l42 -5l4 -3h12l13 -13l14 7l28 -12l5 -4l13 -11l-15 -30l29 -6l11 -16l21 -30l5 -25l4 -73v-30l-4 -18
v-7l9 -9l7 -12z" />
    <glyph glyph-name="q" unicode="q" 
d="M342 202v4l-16 5l-6 -5l-9 9l6 3l-9 9l12 12l-9 18l-3 12v13l-25 5l-14 13v17l-12 13l-9 -9l-22 3l-21 -28h-12l-30 -21v-60l-16 -18v-46l12 -30l21 -25l-3 -5l7 -7v-9l18 -9v3l3 6l6 -6l8 -12l55 -4l9 9l-5 4l9 18l24 12v16l18 18l13 3v9l8 51zM520 -155l-12 -13v-9
l-21 -8l-18 8l-12 -3v3l-4 6l-5 -6l-30 -3l-16 -9l-18 4l-4 5l-5 -5l-25 5l-3 -5h-27l-16 -4h-14l-7 9l-26 3l-16 18v16l3 5v13h4l5 3h-5v9h5v-3l4 -6l8 9h13l5 5l25 13l9 -9l25 -4l8 38v12h4l5 14v4l-5 3l-12 14l5 4v3l-18 9h-21l-18 -16l-12 -5l-13 -12l4 -4l-21 4l-7 9
h-43l-30 8l-26 29l-25 30l-9 21l-4 5l-5 13h-7l-5 16l-4 5l-5 37l-4 18v12l4 6l-7 7v35v37l3 -3l4 8v13h5l9 16l7 9v17h5l9 16l37 36h9l4 3l42 25l14 -7l16 7l27 -7l34 3l8 -17l22 -4l12 -3l16 12l5 4h43l3 -16l9 -18l-3 -30l3 -4l4 -21h-4l-9 -18l9 -12v-21l9 -13v-17l-5 5
l-4 -42l9 -9l-5 -34v-5l8 -9h-3l-5 -37l-4 -34l9 -9v-17l9 -34l-6 -21v-22l6 -30l25 -8l24 8l15 -3h7v-5l26 -16z" />
    <glyph glyph-name="r" unicode="r" 
d="M511 312v-25l-34 -21l-30 21l-4 16l-3 5v13l3 3l-17 27h-34l-3 -5l-43 -29l-26 -35l-7 -7l3 -6l-25 -16l-14 -26l5 -21l-12 -16l4 -6h-4l-5 -24l-4 -6l13 -7l3 -14v-28v-18l5 -3l16 -22l9 7h18l3 6v-6l6 -3h12v-4l43 -9l12 -8l4 3v-42l-22 -16h-24l-22 -9l4 -4h-21l-7 7
h-22l-5 6l-16 -9h-18l-3 -9l-36 9l-7 3h-17l-9 -7h-13l-3 -5l-30 -3v3l-13 5h-14l-12 13l-4 -6l-12 15l-21 24l3 18l4 4l14 12l55 9l9 9v-6l37 -12l12 9l-7 18v12h12l9 16v30v34l-5 5h5l4 34l3 12v9l6 3l-18 14l5 13l4 25l3 17v4l-12 12l5 6v3l-14 13h-25l-3 5l-5 -5l-38 -8
h-5l-3 -5l-9 13l-4 -4l-18 21v25l13 27l39 -6l21 -3h42h25l27 -22l12 -21v-25l-9 -17l4 -4l5 -14l9 -7l16 21v4l-4 3l31 14l3 29l39 14l16 16h39l3 5l9 7h18l25 6l21 -18v-9l21 -12l4 5l9 -18v-12v-30z" />
    <glyph glyph-name="s" unicode="s" 
d="M460 108v-12l-12 -12l-18 -18v-9l-3 5l-39 -39l-43 -8l-3 -4l-31 -9l-8 -9l-4 6l-12 -9l-27 21l-3 -5h-13l-9 9l-5 -4l-21 12l-37 -3l-48 -14h-13l-24 30v33l3 43l6 18l3 3l-3 5l-6 16v15l6 7l7 14l21 3l21 -21v-9l21 -16h9l-3 -5l21 -9h12l4 -12l-7 -13l21 -12l12 4
l13 8l17 -17l-5 -16l5 -6h8l5 15h30l7 -9h5l13 12l-4 13l4 5l12 -14l18 5l3 12l6 30l16 9l5 4v3l-5 6l-4 12l-34 25l-17 5l-22 16l-3 -3h-14l-7 8l-6 -5l-37 -7l-17 7l-43 5l-39 30h-7l-5 -5l-22 30l-8 34l-4 26v13l34 55l12 3l69 27l21 -6l4 -3l9 9l30 -9h25l21 -18l30 -3
l9 -13h9l16 25h5l7 9l18 -4l3 -5h6l-4 4l5 3l2 -2l-3 -5v-9l3 -3l12 -30l-12 -34l-3 -4l8 -8h-5v-13l9 -21l-9 -14h-21l5 5l-30 30l-9 25l-55 42l-26 -3v3l-21 4l-22 5h-21l-21 -5l-43 -34l-7 -8l13 -16v-9h-6l-3 3l-9 -12l9 -9v-16l21 -18h51l22 -3l42 -5v-4l21 -12l16 8
l48 -5l30 -25h16l9 -26l25 -25v-34z" />
    <glyph glyph-name="t" unicode="t" 
d="M426 126v-14h-5l-4 -7l-17 -18l5 -3h-5l-7 -27v-4l-18 -8v-13l-9 -9l5 -3l-35 -5l-12 -9l-9 -16h-7l-6 -6l-12 15l-51 -6l-9 -9l-16 18l3 18l-33 21l-13 37h-5l-3 6v12l12 12l-9 46l9 48l5 73l4 42v43l-13 7l-21 -4l-21 -3h-21h-21l-9 -9l-18 12l-4 -3l-8 7h-9l5 5l-5 4
v39l26 21l9 -6h13l3 9l43 -3l21 -13l21 13v127l5 13l22 12l24 -4l4 -5h14l7 -12v-16l14 -9h4l-21 -42l12 -34l-12 -27l12 -12h81l25 3v6l9 -9h21l21 -18l-3 -28l-5 -5v-9l-16 -7l-14 3h-43l-3 -3l-55 3l-13 -12v-21l-17 -9l-9 -9l12 -37v-39l21 -21l-12 -9l-12 -13v-9l17 -8
h16l-3 -4l3 -3l-9 -22l-7 -17l7 -13l9 -9h18l9 39l3 13l-9 9l6 21h7v-36l9 -7h9l12 22h9l33 37l34 -9h5l4 -21v-46z" />
    <glyph glyph-name="u" unicode="u" 
d="M516 6v-7h-3l-5 -9h-22l-3 3h-13l-5 -3l-16 -9h-14v3l-37 6l-21 9h-34v7l-14 14l-46 -5v-4l-18 -9h-3l-4 4l-18 -13l-54 -12l-6 -4l-33 25h-22v9l-16 4h-17l3 5l-7 7l-5 60l-9 34l9 17v43v80v35l-9 21l-3 22l-10 13l-23 2l-11 -7l-15 6l-14 25l-1 19l8 20l15 7l11 -2
l22 4l2 -5l12 -15l3 3l-3 -2l-4 4l4 4l3 -6l4 9l35 -16h22l-6 -5l18 -9l9 -7l-5 -5l8 -16l-12 -43v-35v-122l4 -69l26 -16l4 3v-3l12 -6l18 -3l16 9l5 -6h12l39 39l22 25l3 36l18 7v17h3l13 25l-4 27l9 8v25l4 30l21 22l-21 21l-77 3l-17 9l5 30l34 13l51 -4l16 -9l12 4h27
l12 -13v-63v-18v-21v-25l4 -46l5 -60l-5 3v-16l9 -38v-4l21 -9h12l9 -12l9 -9h21l9 -9h12l4 -12v-34z" />
    <glyph glyph-name="v" unicode="v" 
d="M504 360l-17 -4l-16 -9h-39l-12 -12l-6 -27l-12 -12v-34l-13 -21l-3 -26l-14 -22l5 -16h-5l-4 -12l-12 -21l-9 -30l-12 -9l3 -25l5 -5v-16l-14 3l-3 4l-9 -7l5 -36l4 6l-13 -18l-26 -25l-16 -9l-27 4l-3 5l-13 13h-5l-3 12l-4 27l-5 12l-4 12l-9 30l-3 -5l-6 21l-8 9v13
l-4 5l-4 30l-17 16l3 34l-12 14v7l5 5l-17 25l-13 26v22l-18 33l-8 9h-13l-9 -9l-28 9l-21 4h-5l-13 12l9 9l-5 25l21 17h21l9 9h9v-5l9 -7l76 3h17h29h14l16 -8l12 -4h6l3 -34l-37 -30l-21 -5l-9 -7l3 -18l31 -51l3 -21h27l3 5l9 -18l-9 -25l13 -14l5 6l-5 -27l-13 -12
l18 -16l21 46l-5 17l-4 4h9l9 18v3l-5 4h5l3 9h9l16 30l6 42l8 9v12l-14 9l-7 9l-5 -5l-34 21l4 21l35 30h16l9 -8l3 5v-5h18l18 8l7 -8h57h49l18 -13v-9l3 -3l6 -21z" />
    <glyph glyph-name="w" unicode="w" 
d="M231 202l-4 -12l4 -6v-67l-16 -21l9 -12l-6 -6l9 -16l-12 -35v-16l-13 -21l-14 -6h-3v-12l-4 5l-5 -5h-16l-30 48l-9 7l3 64l-12 17v30l-9 9l5 46h4v18l-12 7l-4 48l-5 3h-9v22l-7 5l-9 25l-5 17l-16 16h-9l-18 22l6 8l8 13l13 5l33 -9h52l3 -5v-21l-21 -21l18 -29
l-6 -30l-7 -9l22 -33l-15 -43l15 -26l12 -4l25 -25l17 7l22 52l-6 5l-7 12v22l13 12l24 -4l9 -14v-21zM512 384l-5 -3v-9h-7l-6 -5l-12 -13v-24l3 -6h-3l-12 -24v-25l-9 -9v-21l-13 -22l-17 -17l5 -13v-17l-5 5l-9 -18l9 -9l-4 -24l-12 -30l7 -25l-4 -43v-12h-3l-6 -18h-3
l-5 -12h-34l-13 3l-17 22l-7 47v34l-9 9l-5 28l-8 30l8 9v18l5 12l-5 4h-8v9l-8 3l3 30l-3 5h-6v13l18 9l4 -27l5 -12l25 -34v-12l5 -21l3 -6l13 -30l12 -3h9l21 30v30l18 12l4 4l-4 5l-9 55v16l9 35l-5 4h5v25l-12 14l-9 -9l-5 12v18l5 3l30 9l28 9v4l39 -4v-9l9 -5l4 -4
h-4zM316 360l-4 -6l-12 -3l3 -39l-12 -4l-4 38l-26 -16h-9v12l-4 4l-12 14l-18 3l-9 13v8h39h30l25 9l34 -5v-28h-21z" />
    <glyph glyph-name="x" unicode="x" 
d="M540 -5l-58 -9h-13l-9 9h-12l-9 -9h-42h-27l-7 9l-14 -9l-28 9h3l4 4l-7 17l3 25v9l51 3l-39 34l-8 21l5 6l-5 3l-22 43l-16 -4l-8 -9v-30h-9l-4 -3v-9h-5l-13 -46l27 -18v-3l4 -6l-4 -30l-18 -16l-21 9l-12 -5l-9 -9l-21 18l-4 -4l-14 -5l-106 -4l-7 9h-15l6 4l-13 21
l4 12l21 21l39 6l4 3l30 4l3 5l9 9l4 12l14 4l16 18v16l12 8h14l22 18v9l12 7l12 5l9 9l-5 4l9 9l-4 24l-12 9h-9l-5 13l-25 30l-25 33l-9 27l-12 12h-36l-33 -5h-9l-4 -4l-8 13h-13l-9 12l9 27l21 3l73 6h12l25 -9l30 3l30 6l22 -18v-21h-22l-24 -4v-14l7 -12l8 -9h6l3 5
l9 -34l-5 -5l5 -3h9l4 -18l3 -16l21 3l18 18v7l9 9l-5 5l30 16l17 18l22 21l-18 16l-25 -16h-12l-6 -5l-8 27v24l21 13h14l37 -22l48 6l34 3l30 6l16 -15v-21l5 -3l-39 -13l-30 4l-4 5h-9l-17 -21l-13 -5l-24 -13v-25l-13 -8v-9l-9 -9l4 -4l-16 -5l-9 -7l4 -5l-25 -43l3 -12
v-9l18 -9l21 -21l4 5l21 -26l5 -13h4l4 -21v-9l21 -12l9 -13l5 4l7 -7h14l34 -6l12 -3l4 -5l5 5l12 -5l13 -22z" />
    <glyph glyph-name="y" unicode="y" 
d="M490 356l-8 7h-18l5 6l-9 3h-12l-9 -25h-5l-4 -5v-7h-3l-14 -14l5 -21v-13h-5l-8 -34l-14 -8l6 -30h-6l-12 -38l-9 -12v-5l5 -4l-12 -18l-18 -21l4 -9v-12h-4l-12 -37l3 -18l-8 -9l8 -9l-3 -12l-18 -42v-16l-25 -36l-8 -7l3 -5h-3l-4 -9v-12h-5l-9 -9v-4l5 -3h-5l-4 -6
v-9l-3 6h-6l-12 -13l-30 -17h-30l-16 -9h-18l-9 9l-37 9l-12 15l-5 -3v9l-9 9v-6h-7v6h3l4 3l-13 9v16l-3 5l-9 37l18 48l12 13h9l3 3l-3 -2l-4 4l4 3l3 -5l9 14l25 -5l5 -4h13l12 -12l-3 -5l24 -43h-3l-9 -9l-21 -21v-12l30 -13l7 -8l26 26l16 7l18 36l-3 3l15 18l18 21
l4 25l-9 3h5v22l-5 26l-16 9v4l-5 3l-4 39l-21 30v4l3 5l-12 12l9 9l-21 37v18l-4 43l-5 3h-9v9l-12 12l-4 22l-12 21v12l-18 6l-64 3l-3 18h-6l30 16l46 -13l22 9l17 4v-4l4 -3h5l9 7v-4l7 -3v-30l-3 -6l8 -16l-8 -9l8 -8l-5 -38l14 -8l16 -64l6 -13l3 4v-9l18 -9l7 -24v-4
l-4 -5l9 -9v-16l9 -21h7l-3 -13l8 -9l16 9l14 13l-5 3l9 9l4 30l5 21v13h3l18 51l13 12v25l17 30l-5 6l9 16l3 17l-16 25l-39 -3l-8 8l-4 25l9 9l12 -5l22 -4l17 -3h13v-6l3 -3h13l5 3h21l12 -9h22l9 9l8 -9h7v-21zM257 377l-18 4l-12 9h-13l25 12l21 -12z" />
    <glyph glyph-name="z" unicode="z" 
d="M448 41v-18l-22 -33l-39 9l-15 -6l-18 -16h-18l-12 16l-55 -3l-9 -27l-12 -16l-9 4v33h-37l-27 -3l-21 -25l-4 4l-9 17v13l-3 3l-9 -9l-27 -3l-7 9h-17l-9 9h-9v16l-4 26h4l5 7l4 18l30 34l-4 5l13 3h12l18 22l21 21l13 9l-6 3h9l21 21v6l-3 3l9 9l21 9l16 21l5 7l43 43
v5l28 13l5 3v9l13 5l30 34v3l-27 6l-7 -9l-9 3h-18l-106 -8h-24l-9 -13l3 -3l-7 -9v-73l-5 -16l-4 -5h-9l-3 -9l-9 -12l-5 -4v-5h-13l6 5l-9 9l-13 16v73l4 21l9 9v46l9 8l-6 4l18 18l4 -4l5 4l12 12h9l4 -3l9 8l15 -8h36l101 -6l17 -3h13l3 3h64v-3l5 -4h9l4 -21v-21
l-21 -18l-13 -4l-21 -26v-12h-5l-4 -4v-9h-21l-13 -21l9 -13l-9 -21h-12l-18 -21l-3 -18l-30 -12l-13 -27l-17 -3l-18 -9l-4 -12l-12 -13l12 -33l9 -9l25 9v-6l9 -9l12 6l6 12l12 -3l3 -6h6l3 6v7l4 -4l5 4v9l16 -22h30l9 39h9l9 9v34l28 42h14l16 -12l9 -14v-34v-37v-14
l-12 -7v-9l3 -6l9 -12v-4z" />
    <glyph glyph-name="braceleft" unicode="{" 
d="M421 628l-57 -4l-3 -3l-22 -9v9l-33 3l-16 -18l43 -46l-30 -42l-9 -9l4 -25l21 -26l-28 -16l16 -14l-5 -40l-6 -12l18 -46l-80 -6l-12 -30l70 -14l4 -28l10 -28l-12 -22l-3 -80l7 -30l-36 -39l36 -37l-4 -18l6 -22l-42 -33l5 -3l-9 -9l30 11l30 -25l9 -11l16 -5l18 16
l28 7l14 6l25 -31l-3 -23v-14l-22 -7l-42 3l-30 9l-21 13l-38 20l-24 8l-24 44l10 55l7 25l-4 18l-3 33l-9 34l12 18l-5 99l-27 24l-40 10l-6 50l42 14l41 16l-5 82l12 7l-3 5l-12 42l3 16l12 14l-12 16v27l-3 28l24 53l38 20l17 21h39l25 -9l12 14l9 -8l13 3h17l9 -21z" />
    <glyph glyph-name="bar" unicode="|" 
d="M279 71h-2v-24l-2 -10l4 -13l2 -9v-17l-6 -11l-1 -10l-7 -1l-1 -8l-2 -1v-4h-7l-2 -2l-12 -2l-11 13l-2 15l-5 17v19l-2 1l4 6l-4 13l6 9l-6 12v16v10l4 9l-8 16l8 20l-4 13v19l-4 1l6 17v15l2 11l-8 13l4 4l-5 13v19h1l2 15h2v13l-2 2v26v13l2 19l-4 3l6 27l-11 29
l-3 -1v9l16 19l-2 11l-10 6v7h3v13l-7 8l7 12v10l1 32l-1 15l-4 21v5l7 9l4 15l-2 2v15v11v13h2l2 14l11 9h4l11 -26h4l-6 -21v-2l4 -3l-6 -17v-14l4 -9l-2 -15v-11l9 -18v-7l7 -9l-10 -24v-2l3 -3l-3 -10l-4 -4l5 -14l-1 -2l7 -16l-2 -7l-2 -22h2l2 -55l-4 -25l-2 -12v-6
l9 -13l-3 -7l3 -8l-1 -16l4 -4l-4 -15l1 -15h-1l-4 -35l12 -23l-7 -13l4 -4l-1 -7l5 -9l-1 -6v-2l3 -4l2 -5l-4 -14l2 -5l4 -17l2 -6z" />
    <glyph glyph-name="braceright" unicode="}" 
d="M428 212l-34 -18l-37 -8l5 -82l-12 -7l3 -5l12 -42l-3 -16l-12 -14l12 -16v-27l3 -28l-24 -53l-38 -20l-17 -21h-39l-25 9l-12 -14l-9 8l-13 -3h-17l-9 21l12 30l57 4l3 3l22 9v-9l33 -3l16 18l-3 46v42l5 11l-4 25l-17 24l16 12l-4 18l5 40l-2 30l-10 28l32 17l50 19
l-30 14l-4 28l-40 28l12 57l3 45l-7 30l12 38l-12 38l34 18l-6 22l-4 23l-5 3l9 9l-24 -1l-30 25l-9 11l-16 5l-18 -16l-28 -7l-14 -6l-25 31l3 23v14l22 7l42 -3l30 -9l21 -13l38 -20l24 -8l24 -44l-10 -55l-7 -25l14 -18l-7 -33l9 -34l-12 -18l5 -99l21 -20l40 -10l14 -36
zM302 546l-14 6l14 24l22 -2z" />
    <glyph glyph-name="asciitilde" unicode="~" 
d="M474 230l-16 -8l8 -9l-2 -9l-11 -3l-27 -17l-21 -4l-7 -21l-5 3l-16 -12h-21l-6 -5l-16 8l-17 -8l-13 -5l-12 13h-6l-17 -6l-16 15l-21 10l-11 32l-13 9l4 13h-17l-9 8l-13 -8l-9 10l-13 -2l-2 -11l1 -51l-25 -22h-8l-9 -9l-7 9l-15 -5l-24 14l-4 -6l-6 31l-8 12l12 11
l9 31l14 13v5l16 25l22 5l5 -5l15 28l30 12h33l22 -12l28 1l20 -12l-2 -15l16 -8l-4 -13l12 -9l9 9l13 -31l19 8l13 -9l3 13l16 1l2 15l-5 9l1 9h8l-3 11l11 5l15 15l20 -1l34 -5l21 -16l9 -14z" />
    <glyph glyph-name="nonbreakingspace" unicode="&#xa0;" 
 />
    <glyph glyph-name="currency" unicode="&#xa4;" 
d="M604 -221l-18 -22l-21 -9h-12l-9 -8h-4l-5 5l-4 -5l-21 5l-46 9l-57 -6l-9 9l-16 -9l-43 6l-14 -14l-105 5l-42 9l-13 -9l-12 3l-128 6l-28 3l-36 13l-15 17l8 54l38 26h39l15 4l6 4l16 -4l80 -9l5 -3h7l5 3l22 5h37h128h37l79 -8l12 8l73 -5l17 -3l8 -9l5 3l12 -12l-3 3
l9 9l3 -3l-5 -4l5 -5h9zM604 -31l-18 -22l-21 -9h-12l-9 -8h-4l-5 5l-4 -5l-21 5l-46 9l-57 -6l-9 9l-16 -9l-43 6l-14 -14l-105 5l-42 9l-13 -9l-12 3l-128 6l-28 3l-36 13l-15 17l8 54l38 26h39l15 4l6 4l16 -4l80 -9l5 -3h7l5 3l22 5h37h128h37l79 -8l12 8l73 -5l17 -3
l8 -9l5 3l12 -12l-3 3l9 9l3 -3l-5 -4l5 -5h9zM604 159l-18 -22l-21 -9h-12l-9 -8h-4l-5 5l-4 -5l-21 5l-46 9l-57 -6l-9 9l-16 -9l-43 6l-14 -14l-105 5l-42 9l-13 -9l-12 3l-128 6l-28 3l-36 13l-15 17l8 54l38 26h39l15 4l6 4l16 -4l80 -9l5 -3h7l5 3l22 5h37h128h37
l79 -8l12 8l73 -5l17 -3l8 -9l5 3l12 -12l-3 3l9 9l3 -3l-5 -4l5 -5h9zM604 339l-18 -22l-21 -9h-12l-9 -8h-4l-5 5l-4 -5l-21 5l-46 9l-57 -6l-9 9l-16 -9l-43 6l-14 -14l-105 5l-42 9l-13 -9l-12 3l-128 6l-28 3l-36 13l-15 17l8 54l38 26h39l15 4l6 4l16 -4l80 -9l5 -3h7
l5 3l22 5h37h128h37l79 -8l12 8l73 -5l17 -3l8 -9l5 3l12 -12l-3 3l9 9l3 -3l-5 -4l5 -5h9zM604 524l-18 -22l-21 -9h-12l-9 -8h-4l-5 5l-4 -5l-21 5l-46 9l-57 -6l-9 9l-16 -9l-43 6l-14 -14l-105 5l-42 9l-13 -9l-12 3l-128 6l-28 3l-36 13l-15 17l8 54l38 26h39l15 4l6 4
l16 -4l80 -9l5 -3h7l5 3l22 5h37h128h37l79 -8l12 8l73 -5l17 -3l8 -9l5 3l12 -12l-3 3l9 9l3 -3l-5 -4l5 -5h9zM604 714l-18 -22l-21 -9h-12l-9 -8h-4l-5 5l-4 -5l-21 5l-46 9l-57 -6l-9 9l-16 -9l-43 6l-14 -14l-105 5l-42 9l-13 -9l-12 3l-128 6l-28 3l-36 13l-15 17
l8 54l38 26h39l15 4l6 4l16 -4l80 -9l5 -3h7l5 3l22 5h37h128h37l79 -8l12 8l73 -5l17 -3l8 -9l5 3l12 -12l-3 3l9 9l3 -3l-5 -4l5 -5h9z" />
    <glyph glyph-name="section" unicode="&#xa7;" 
d="M341 308l-49 61l-18 23l16 -8l-28 34l-30 2l-2 24l-16 -6h-31l-8 -8v-66l51 -48l18 -22l-4 -22l20 -12l32 -49l5 -25l31 -13l31 81zM408 172l-4 -26l-24 10l-9 -37l-3 -29l16 -26l2 -22l-2 -27l-18 -56l-32 -43l-42 -18l-10 -12l-28 12l-16 2l-22 6l-16 2h-12l-13 10
l-9 18l-16 -2l-28 15l5 61l30 53l31 8h18l16 -25l18 2l12 -22l10 -18l12 -11l34 -1l2 37v17l-13 26l-35 36l-5 30l-23 52l-26 16l-8 22v22l-20 18l-16 6l-22 6l-24 -6l-14 30l-14 16l1 71v23l23 10l-12 24l16 22l21 17l11 23v28l20 -12l-18 32l-7 34l25 66l20 12l-6 16
l28 14l37 9l29 1l24 -4l26 -17l43 -54l-5 -30l-13 -26l-17 -13l-26 8l-18 18v36l31 30v8l-13 12l-36 -20l-12 8h-18l-34 -8l14 -24l-16 -12l-2 -25l8 -31v-40l16 8l14 -21l53 -38l25 -17l28 -30l-6 -24l15 -13l35 -11l6 -30l-4 -24l36 -22v-92z" />
    <glyph glyph-name="guillemotleft" unicode="&#xab;" 
d="M545 365l-32 -15v-30l-30 3l-38 -18l-1 -24l-36 -8l-35 -15l-39 -40l4 -33l22 -12l48 -38l42 -12l15 -35l45 -5l5 -18l15 -32l-16 -42l-20 -10h-21l-68 35l-32 20l-5 22l-22 11l-11 20l-57 37h-17l-36 49l15 46l38 34l17 40l35 3l16 30l27 30l27 7l-1 23l6 3v12l16 5
l24 -5l5 35l48 -10l32 -23zM329 368l-32 -15v-30l-30 3l-38 -18l-1 -24l-36 -8l-35 -15l-39 -40l4 -33l22 -12l48 -38l42 -12l15 -35l45 -5l5 -18l15 -32l-16 -42l-20 -10h-21l-68 35l-32 20l-5 22l-22 11l-11 20l-57 37h-17l-36 49l15 46l38 34l17 40l35 3l16 30l27 30
l27 7l-1 23l6 3v12l16 5l24 -5l5 35l48 -10l32 -23z" />
    <glyph glyph-name="degree" unicode="&#xb0;" 
d="M399 581l-9 9l3 16l-7 8h-5l-3 34l-31 18v3l-17 6v3l-16 5l-21 16l3 -3l-21 -9l-4 -4l-5 4l-12 -9l-43 -3l-21 -18l-12 -16l-4 -27l-14 -16l9 -30l5 -26l4 -50l12 -14v-7l39 -57l21 -3v-4h46l27 16h12l9 -9l12 15l-5 3l30 30v13l-3 3l12 14l9 7v27l12 25zM484 496l-9 -51
v-9l-12 -7l-6 -6v-12l-16 -18l4 -3l-13 -13l-33 -26l-6 -13l-37 -9l-30 -15h-9l6 3l-9 9l-51 -4h-39l-8 16l-30 9l-30 30l-24 21l-15 22h-7l-17 16l3 5l-7 12l-5 22l5 42v9l4 3l-4 6l7 25v51l18 30v7h3l9 27h6l3 3v9h4l17 21l43 39l25 4l5 3l21 9l51 -3l22 12l24 -4l22 -21
l3 4h6l8 -9h13v-9l16 -16l5 4l25 -34l-4 -4l16 -21l9 -9l-3 -5l15 -16l6 -12v-6l3 -3l-9 -9l9 -12v-27l6 -16v-39z" />
    <glyph glyph-name="paragraph" unicode="&#xb6;" 
d="M320 260l-33 10l2 -36l-13 -85l17 -62h5l26 26l-9 65zM315 458l4 48l-13 13l-26 -6l-13 -16l13 -163l13 -13l13 13l5 42l13 17zM513 15l-48 -18l-43 -4l-194 -4l-30 21l-50 -16l-17 13v8l7 9l18 30l26 -5l29 22l22 39l8 90l-26 30l-43 17h-59l-35 13v42l-9 35l-17 26
l-9 62l13 59l26 35l8 27l56 16l36 22l114 3l101 -8l81 8l39 -29l5 -19l-22 -20h-39l-22 -9l-39 9l-7 -9l6 -44l-5 -15l1 -11l3 -61l-5 -93l16 -30l-7 -42l-2 -58v-59l19 -17l20 -9l74 -13l9 -22z" />
    <glyph glyph-name="guillemotright" unicode="&#xbb;" 
d="M209 46l32 15v30l30 -3l38 18l1 24l36 8l35 15l39 40l-4 33l-22 12l-48 38l-42 12l-15 35l-45 5l-5 18l-15 32l16 42l20 10h21l68 -35l32 -20l5 -22l22 -11l11 -20l57 -37h17l36 -49l-15 -46l-38 -34l-17 -40l-35 -3l-16 -30l-27 -30l-27 -7l1 -23l-6 -3v-12l-16 -5
l-24 5l-5 -35l-48 10l-32 23zM-4 46l32 15v30l30 -3l38 18l1 24l36 8l35 15l39 40l-4 33l-22 12l-48 38l-42 12l-15 35l-45 5l-5 18l-15 32l16 42l20 10h21l68 -35l32 -20l5 -22l22 -11l11 -20l57 -37h17l36 -49l-15 -46l-38 -34l-17 -40l-35 -3l-16 -30l-27 -30l-27 -7
l1 -23l-6 -3v-12l-16 -5l-24 5l-5 -35l-48 10l-32 23z" />
    <glyph glyph-name="afii10023" unicode="&#x401;" 
d="M496 45l-27.001 -52l-13 -6h-30l-13 -5l-65 3h-26l-26 -5l-35 5l-59 -3l-20 5l-17 -2l-13 -7l-28 9l-33 -5l-13 -9l-17 1l-29 30l-11 26l1 15l58 26h37l15 18l11 39l-4 107l-2 160v29l6 24l-6 47l-13 13l-57 2l-22 25l1 25l15 20l11 7h21l15 24l-2 15l-24 34l9 25l15 23
l39 29l44 -3l13 -10l15 -29l15 -19l-30 -57l-30 -15l-7 -9l4 -8l14 -9h126l26 -17l36 6l20 11l35 -6l57 -7l13 -7l8 -10l4 -90l-4 -80l-15 -15l-20 2l-17 24l-6 48l-3 8l-10 26l-14 24l-21 18l-63 -3l-14 -10l-19 2l-13 11h-31l-26 -13l-10 -13v-31l-5 -67l-6 -20l10 -32
l11 -11l68 11l15 15l7 63l23 13l13 -4l16 -26l-3 -64v-21l12 -35v-30l4 -14l-13 -45l-15 -15l-26 6l-12 26l-8 42l-11 17l-9 7l-43 6l-28 -11l-5 -2l-6 -5l10 -60c-2 5.33301 -4 8.33301 -6 9c-1.33301 0.666992 -2.66602 -1.5 -3.99902 -6.5s-2 -15.5 -2 -31.5l6 -30v-18
l-6 -19v-9l21 -32l70 -5l35 7l43 -5h17l22 11l29 87l17 26l6 18l14 11l19 -5l6 -13l-10 -28l10 -61zM471.999 645v-8l-22 -16l-42 -8h-28l-34 21l-7 22l6 35l20 17l35 22l21 -2l31 -30l13 -3l11 -26zM295.999 676v8h6l4 -2v-6h-10z" />
    <glyph glyph-name="afii10051" unicode="&#x402;" 
d="M494 -107l-6 -33l-10 -12l-21 -39l-39 -33l-22 -9h-30h-48l-30 18l-26 43l4 46v13l19 19l68 -13h26l13 7l13 13l4 44l13 26l-10 26l9 42l-3 50l-6 62l-13 39l-6 29l-26 17l-22 5l-21 12l-10 -7l-26 -12l-28 -12l10 -19l-17 -10l-6 -24l-4 -56l-4 -26l52 -43l3 4h13l4 -34
v-13l-37 -18l-127 5l-17 -9l-35 17v31l26 21h17l13 22v72l31 119l13 11l-14 13l15 12l14 6l-18 15l10 9l-12 46l-14 82l-29 21l-19 13l-16 -10l-18 -7l6 -15l-18 -3l-6 -14l18 -15l-13 -7l-10 -7l-5 -16l-26 -17l-16 1l2 12l-16 5l-5 25l16 27l-3 67l13 3l-5 17l14 16l16 4
l-4 14l18 2l37 1l32 -5l14 8l13 -12l26 9l46 8h17l16 -17l15 -15l11 19v12h24l14 -11l21 6l53 -8l53 5l18 -26l-18 -48l-3 -34l-13 -60l-11 -13l-22 4l-32 8l-7 47l-30 33l-44 -10l-28 -58l-7 -113h16l10 10l26 -13l24 6l14 -2l2 -14l22 -6l15 3l18 -4l16 -5l-4 -16l30 -14
l22 -33l17 -52l-8 -67l13 -16l1 -38l8 -52v-61z" />
    <glyph glyph-name="afii10052" unicode="&#x403;" 
d="M392 756h-21l-37 -34l-30 -30l-27 -21l6 -18l-22 -21l-5 -21l-16 -13l-33 18l-6 -5h-9l-36 58l24 18l4 26l32 53l20 9l41 57l48 25l38 21l20 -34l18 -16l9 -21h-5l5 -14zM278 292l5 12l-11 44v46l-7 26l5 32l-16 26h-10l-5 -13l2 -10v-31l-10 -26l8 -26l-8 -17l-3 -151
v-45l-8 -26l6 -20l-6 -26l6 -9l15 -4l20 7v39l5 11l4 39l-5 28l7 37l11 26zM572 450l-2 -6l-5 -5h-6l-28 57l-13 6l-20 -4l-9 -9l9 -30l-11 -26l-15 -26l-30 -15l-26 6l-12 31l-23 10v18l4 8l-2 14l-22 17l-43 -13v-46v-21l-7 -22v-59l-6 -33l6 -21v-46l5 -57l-11 -74
l-1 -12l5 -14l33 -24l15 -6l21 -20h16v-12l-5 -3l-24 -6l-47 -24h-33l-11 -7l-26 2l-15 9l-26 -9l-52 11l-20 -8l-50 -5l-33 24l-21 28v18l47 26l24 6l35 46l-8 65l13 26l-5 39l4 38v24l-6 13l7 63l-7 26v52l-20 21h-43l-24 46v31l7 8l36 3l13 4h38l4 4l30 -6l29 6l78 -8h35
h47l11 4l35 -7h31l60 -26l11 -2l7 -11l6 -6l26 6h9l17 -22z" />
    <glyph glyph-name="afii10053" unicode="&#x404;" 
d="M435 50l-52 -51l-22 -4l-30 -17l-35 -5h-37l-35 -8l-17 13l-31 4l-26 26l-13 4l-17 35l-7 46l-10 9l-22 26l-7 74l-19 26v56v33l9 58l17 29l19 78l42 43l21 3l23 12l35 12l25 2l7 13h13l52 -26l52 -13l30 26h18l21 -13l5 -72l-13 -26l8 -43l-13 -64h-17l-39 39l-4 29
l-13 30l-48 35l-20 7v19l-9 7h-13l-10 -13l-30 2l-22 -9l-25 -9l-39 -56v-42l-8 -10l-16 -42l7 -13l30 -10l26 -9l18 13l20 6l26 -10l49 -9l12 -13l4 -13l-13 -16l-26 -4l-26 -4l-55 8l-35 -26l-21 5l-9 -9v-56l26 -38v-19l22 -30h33l10 -20l35 -6l46 -7l9 7v6l26 24v13
l13 32l26 38l39 8h26l20 -34l6 -31z" />
    <glyph glyph-name="afii10054" unicode="&#x405;" 
d="M476 136l-18 -52v-8h-3l-9 -25v-4l-9 -9l3 -5l-21 -7l-16 -21l-17 -9l-13 4h-12l-5 -4l-50 -5l-21 -13l-14 9l-13 13l-37 -4l-27 21l-15 9l-27 -18v-8h-46l-9 8l-12 25l9 30l-6 21v9h6l7 25l-4 27l-3 24v39l7 13l30 -4v-5l30 -16v-21l12 -39h9v-9l30 -25h9l4 -18l46 -15
l5 3l9 -9h16l5 6v7l42 5l16 25l18 9v8l16 16l-4 6l13 21l-9 16l18 18v3l-4 5h4l3 4l-7 12l4 6l-18 16v5l-12 3l-52 22h-16l-12 8l-5 -3h-52l-28 16l-14 -4h-16l-5 4l-13 26l-21 4l-25 30l-5 4h-7l3 5l-12 21v16l-12 18v30l-9 7l12 9v12h9l9 9l-5 5l8 7v15l4 -6l18 13v14
l21 12l12 -5l21 14l6 -5l25 17l3 -5l18 14l25 -9l8 -5l9 -7l43 -5l25 -13h14l3 -12l25 -21h5l4 30l5 21h25l12 -9l6 -30h-6l-16 -30l13 -21l-6 -16l9 -9l-3 -42v-6l-13 -12h-8l-13 30l-5 -4v13l-13 12l-3 21l-5 -3l-4 21l-9 4l-12 8h-5l-4 -5v5l-9 4l-12 9l-4 -4l-26 25
l-22 -3v3l-16 4h-14l-16 -7l-5 -6l9 -9l-30 -12l-28 5v4l-9 9h-6v-13l6 -5l-9 -9v-12l-9 -9l-4 -21l13 -22l-9 -7l5 -26l16 -16l30 -14l4 5l18 -12v-6l3 -3h5l4 3l18 9l3 -3l9 7l76 -29l39 4l16 -12l21 -39h9v-4l18 -5l12 -29l-3 -5l16 -16l5 -17h-5v-43l5 -4h-5l-4 -5
l12 -16z" />
    <glyph glyph-name="afii10055" unicode="&#x406;" 
d="M472 -1l-21 -15h-35l-68 -3v3h-25h-14h-21l-7 -3h-14l-7 9l-18 -6v-3h-12l3 3l-12 9l-34 -9l-12 6l-27 -9l-9 3l-7 6l-9 9h-33l-5 28l-9 5l5 13v3l37 14l21 4h15l33 12h16l9 -9l5 6l7 -6l6 -3l9 12l-6 6h6l3 16v30l-3 39h3v12l-3 3l7 9v34l5 5v7l-9 9l9 21l-5 18v43v51
v16l8 26l-8 7l5 22l3 5l-8 9v21l-38 4h-8l-9 -9l5 -4h-14v4l-43 5l-28 4l-18 17v34h4l5 4l25 12l73 5h-4l-5 -5l51 -4l12 9h48l29 -5l8 9l27 5l12 -9l25 4l30 -4l30 -5v-4l9 -8l-5 -31l-16 -15h-14l-34 -13l-9 7l-3 -3l-9 9l-21 -9v-4h-9l-13 13l-21 -9h-3v-18l8 -28l-5 -22
l-3 -5l8 -12l-8 -9l3 -80l5 -102l8 -68l-4 -5l4 -4l14 -60l25 6h12v-6l39 -3l46 -6l30 -33z" />
    <glyph glyph-name="afii10056" unicode="&#x407;" 
d="M472 -1l-21 -15h-35l-68 -3v3h-25h-14h-21l-7 -3h-14l-7 9l-18 -6v-3h-12l3 3l-12 9l-34 -9l-12 6l-27 -9l-9 3l-7 6l-9 9h-33l-5 28l-9 5l5 13v3l37 14l21 4h15l33 12h16l9 -9l5 6l7 -6l6 -3l9 12l-6 6h6l3 16v30l-3 39h3v12l-3 3l7 9v34l5 5v7l-9 9l9 21l-5 18v43v51
v16l8 26l-8 7l5 22l3 5l-8 9v21l-38 4h-8l-9 -9l5 -4h-14v4l-43 5l-28 4l-18 17v34h4l5 4l25 12l73 5h-4l-5 -5l51 -4l12 9h48l29 -5l8 9l27 5l12 -9l25 4l30 -4l30 -5v-4l9 -8l-5 -31l-16 -15h-14l-34 -13l-9 7l-3 -3l-9 9l-21 -9v-4h-9l-13 13l-21 -9h-3v-18l8 -28l-5 -22
l-3 -5l8 -12l-8 -9l3 -80l5 -102l8 -68l-4 -5l4 -4l14 -60l25 6h12v-6l39 -3l46 -6l30 -33zM211 667l5 -3l-12 -9l-9 -22l-5 -3l9 -9l-25 -5l-5 -4v-9l-16 13l-22 9v21l-12 9l-5 33l12 18l51 9l30 -5l13 -25zM420 609l-30 3l-13 9l-24 37l-6 9v13l13 8l-4 18h4l9 9l5 -5l7 8
l35 4l16 -7l9 -18l9 -9l3 -51z" />
    <glyph glyph-name="afii10058" unicode="&#x409;" 
d="M474 241l-12 18l-40 5l-22 5l-19 -13l-15 -7l-12 -63l6 -49v-31l8 -18l8 -3l32 -15l25 -5l16 17l21 1l12 53l3 56zM562 124l-10 -62l-33 -20l-6 -15l-7 -14l-30 -4l-25 -15h-49l-46 26l-19 -22l-46 -5h-10l-38 1l-21 17l-1 27l25 27l32 8l9 102v62l-7 133l9 26l-4 35
l-10 63l-41 12h-4l-9 -9v-17l-20 -22l7 -69v-26l-7 -9l-6 -59l-13 -35l13 -30v-61l-13 -46l-3 -36l-10 -12l-3 -30l-30 -39l-22 -9h-30h-18l-30 18l-26 43l4 46v13l19 19l38 -13h26l13 7l13 13l4 44l13 26l-10 26l-3 63l3 134v35l-13 26l-33 3l-13 39v19l13 13l130 4l40 -2
l28 1l12 11l24 -14l12 6l50 -8l38 -15l6 -39l-53 -13l-11 -13l-1 -65l-9 -28l2 -47l22 -19h25l16 11l15 -3l11 -11l56 -10l41 -38l6 -31l5 -23l17 -30z" />
    <glyph glyph-name="afii10059" unicode="&#x40a;" 
d="M455 241l-12 18l-20 5l-22 5l-29 -13l-15 -7l-21 -39l6 -67v-31l17 -24l8 -3l42 -15l15 -5l18 23l21 1l15 50l3 56zM543 124l-10 -62l-33 -20l-6 -15l-7 -14l-30 -4l-15 -15h-39l-56 26l-19 -22l-46 -5h-10l-38 1l-21 17l-1 27l25 27l32 8l9 102v62l-18 24h-20l-26 8
l-25 -3l-9 5l-16 -10l-29 7l-3 -5l-3 -23l3 -44v-29l10 -38l-1 -46l6 -8l18 -17l16 -18l-1 -38l-16 -1l-36 -8l-46 8h-72l-14 34l5 15l17 8l25 4l20 22l-2 57l7 72l-7 35l11 54l-8 24l7 32l-7 37l4 29l-10 18l6 23l-2 36l-19 20l-31 8l-8 26l48 22l52 -7l24 4l27 -5l23 -15
l-3 -20l-19 -27l-9 -11v-4l-6 -25v-21l-1 -24v-8l-4 -61l4 -6l-2 -3h16l16 -11l8 5h22l25 -4l40 8l5 5l1 23l9 26l-4 35l-10 63l-25 9l-27 22l8 27l23 21l28 1l12 11l24 -14l12 6l50 -8l38 -15l6 -39l-53 -13l-11 -13l-1 -65l-9 -28l2 -47l22 -19h35l16 11l25 -3l11 -11
l26 -1l41 -38l6 -31l5 -23l17 -39z" />
    <glyph glyph-name="afii10060" unicode="&#x40b;" 
d="M532 -9l-59 13l-69 -9l-31 5h-7l-13 13l-13 23l-4 32l34 17l39 2l19 14l16 46l-12 56l-13 39l-4 9l-26 17l-22 5l-23 25l-18 -12l-16 -20l-42 -2l-16 20l-18 -18l-1 -23l-6 -62l-4 -56l-4 -26l32 -21l23 -18h13l10 -45l-43 -20l-127 5l-17 -9l-35 17v31l26 21h17l13 22
v72l25 35l-9 24l15 60l12 42l3 24l-7 46l16 5l3 15l-21 6l-8 13l-4 18v25l-29 21l-19 13l-16 -10l-46 -84l-26 -17l-22 2l-6 20l-7 21l13 9l-16 14l14 18l14 4l-2 18l-10 31l22 36l67 21l59 -9l26 9l95 -17l30 27l30 -12l62 -4l53 5l18 -26l-18 -48l-10 -13l7 -21l11 -15
l-8 -18l-16 -4v-23l-11 -13l-22 4l-32 8l-7 47l-30 33l-44 -10l-22 -16l-12 -10l6 -32l-5 -59l26 -20l38 16l26 -13l27 6l14 -16l36 -3l20 1l-8 -20l16 -26l20 -8l12 14l22 -33l17 -52l-27 -15v-30l6 -47l16 -31l59 -38l4 -13v-13z" />
    <glyph glyph-name="afii10061" unicode="&#x40c;" 
d="M491 461l-28 -26l-24 -10l-27 4l-8 -4l-17 -31l-25 -45v-11l-27 -29l38 -30l14 -41l13 -46l-9 -18v-13l21 -19l38 -7h17h17l41 -41v-43l-10 -29l-11 -11l-39 -13l-28 -21l-25 2l-60 33l-18 4l5 32l-13 14l-5 6v9l22 24l-7 35v36l-13 39l-21 27l-18 11l-15 17l-6 6l-33 -2
l-13 -6l-41 10l-16 -10l-8 -11v-41l8 -13l-6 -33l11 -50l-5 -15l7 -15l30 -24l40 -20l39 7l8 -1h3l6 -6v-13l-22 -18h-30l-37 -19l-98 -2h-19l-9 8h-48l-15 11v22l39 30l24 16l9 17l4 39l4 13l-8 26l-5 9l17 39l-6 44l6 65l-6 13l7 19l-7 92l6 22l-6 24l-18 15h-23l-22 22
v21l13 9l43 9l1 2l73 -7l20 7l24 -2l24 -13l17 -5l4 -13v-8l-21 -11l-11 -14l-2 -13l-18 -12l-13 8l-6 -2l-5 -6v-27l5 -6h15l6 -5v-2l-6 -6h-17l-5 -7v-43l-6 -20l6 -28l7 -7l32 7h46l28 52v22l5 6l-5 31l3 15l10 6l7 11v9l9 7l23 6l5 13l6 24l9 13l37 2l24 18l39 -20
l17 -4l18 -26l2 -9l13 -11l24 -6v-13zM560 525l-9 -7l-22 2l-17 11l-2 7l19 12l22 -6l11 -11zM392 756h-21l-37 -34l-30 -30l-27 -21l6 -18l-22 -21l-5 -21l-16 -13l-33 18l-6 -5h-9l-36 58l24 18l4 26l32 53l20 9l41 57l48 25l38 21l20 -34l18 -16l9 -21h-5l5 -14z" />
    <glyph glyph-name="afii10062" unicode="&#x40e;" 
d="M527 521l-41 -26h-24l-21 -20l-11 -2l-15 -26l-3 -46l-22 -26l-13 -50l-6 -7l-11 -54l-24 -19l-17 -98l-33 -41v-50l11 -25v-19h-11l-13 13l-32 -7l-27 -24l-63 -4l-23 -11l-7 2l-52 35l-18 3l-21 32l-9 26v46l30 24l27 9l45 -12l20 -28l-5 -26l-2 -6v-7l11 -6l20 6
l35 46l13 39l4 56l-18 61l-11 18l-26 85l-30 63l-6 15l-20 22l-4 19l-7 7l-26 -3l-31 13l-8 9l2 7l11 17l20 13l37 5l10 4l26 -4l26 4l46 -9l26 -20v-17l-22 -15l-12 -4l-12 -14v-34l18 -39l2 -31l5 -26l39 -45l8 -3l13 3l24 32l15 17l5 27l-5 24l22 49l-13 20l-6 13l-5 5
l-24 -1l-17 26v22l4 5h16l13 -7l19 7l33 6l30 13l29 -8l49 10h22l42 -45zM435 660l-18 -10l-37 5h-21l-37 -32h-19l-19 19l-31 -6h-21l-6 19h-37l-21 -19v6l8 8l-32 18l-18 24v26l18 19l24 -13l13 -32l19 -19h13l8 8v-8l42 -5h8l13 -13l56 37l27 53l13 5l63 -26z" />
    <glyph glyph-name="afii10145" unicode="&#x40f;" 
d="M485 500l-19 -20v-48l-13 -30l6 -113l7 -7l-7 -91l7 -16l-7 -65l17 -23l13 -12h25l5 -51l-38 -35l-91 4l-53 -4l-18 -22l-7 -33l-8 -32l-12 -30l-24 -26l-36 -2l-8 26l-22 24l4 46l8 12l-35 41l-57 9h-85l-13 26l3 17l13 9l32 4l30 26l3 52l9 77l-9 34l13 55l-9 26l9 32
l-9 39l5 33l-12 17l7 22l-4 22l-29 26l-36 7l-7 13v19l52 20l68 -7l13 13l67 -3l17 -9l13 -13l22 -13l-2 -29l-33 -14l-8 7h-29l-17 -27l1 -25v-13l-14 -26l-4 -56l-9 -53l4 -54l-4 -26l4 -48v-20l13 -39l-8 -36l13 -16l86 -3l44 -10l33 11l24 24l6 72v56l11 57l-8 59v26
l7 40l-16 53l1 35l-38 9l-27 17l1 15l7 24l23 19h35l13 9l30 -13l16 7l58 -7l31 -26l13 -35z" />
    <glyph glyph-name="afii10017" unicode="&#x410;" 
d="M314 257l-21 32v18l2 34l-6 37l-14 26h-8l-11 -25l-9 -14l-11 -32v-31l-10 -32l-9 -52l9 -7l30 5l30 -5l15 7l13 19v20zM515 0l-27 -13l-19 -17l-24 4l-48 13l-37 -6h-35l-45 35l-13 4v8l15 11l46 7l11 13v74l-11 11l-72 -5l-22 15l-20 -2l-38 -61l6 -17l59 -45l2 -7
l-17 -9l-16 -19h-35l-13 -7h-36l-14 -6l-32 8h-15l-31 13l-9 24v15l35 18l26 6l31 48l8 65l13 27l1 24l13 32l6 33l31 87l15 74l13 24l4 43l52 54l16 -6l12 -16l25 -17l19 -61l22 -34l-9 -37l2 -39l20 -27l6 -63l5 -28l8 -32l16 -31l10 -46l11 -26l16 -15l37 -30l8 -2
l13 -25l11 -32z" />
    <glyph glyph-name="afii10018" unicode="&#x411;" 
d="M419 197l-13 41l-26 24h-8l-40 -4l-37 8l-10 -4l-55 -4l-13 -9l3 -78l-9 -16l11 -23l-2 -3l13 -39l28 -9l13 25h6l2 -3l13 -17l24 -18l27 -4l19 13l15 5l16 -1l4 5l19 63v48zM491 127l-6 -13l-3 -54l-12 -44l-5 -6l-30 -5l-39 -19l-57 -2l-13 8l-122 -6l-59 4l-21 -11
l-26 7l-31 13l-10 11l2 19l45 40l13 4l13 33l-4 41l-4 21l10 81l5 9l-4 19l12 18l-13 60v46v20l-2 8v9l13 15l-6 15l-44 42l-26 -13l-8 8l-5 35l20 18l37 21l72 -2h80l22 -11l63 11l32 -8l29 -3l23 -13h16l24 -28v-19v-14l6 -8l-9 -55l-24 -17l-23 2l-16 13l-6 5l9 28l-3 19
l-23 20l-22 -5l-39 11l-7 -6l-28 6l-26 -11l-26 7l-18 -15l-8 -7l8 -52v-26v-46l-6 -8v-5l35 -21l50 8l13 7l23 -2l14 -13l73 -3l33 -36l17 -20l9 -35l5 -21l12 -18v-39z" />
    <glyph glyph-name="afii10019" unicode="&#x412;" 
d="M383 224l-22 5l-20 21l-23 7l-26 -13l-16 17l-13 2l-9 -6l-43 -3l-6 -30l-1 -52l-6 -35l6 -52l12 -6l47 -1l26 3l15 -3h18l9 13h23l12 13l25 9l22 33l3 32zM383 459h-4l-18 -15l-19 -2l-11 8l-9 22h-18l-12 -15l-34 12l1 20l-52 7l-3 -7l-4 -65v-30l7 -48l11 -11l36 -2
l29 13l26 -5l48 18v13l-9 22l20 39l8 4l7 2v20zM494 85l-22 -43l-39 -40l-44 -15l-35 -11l-26 7l-76 4l-13 4l-28 -4h-24l-15 -6l-33 8h-45l-59 15l-6 11l6 24l17 13l35 2l29 20l13 18l4 36l6 13l-6 35l2 107l6 21l-12 64l12 45l-6 29l7 37l-1 12l-28 18l-22 -7l-50 7
l-12 13v13l45 33h15l18 -11l15 9l32 -5l46 2l13 7h24l9 9l37 -9l15 11l37 -11l31 -2l63 -44l23 -9l16 -4l10 -9l7 -84l-11 -39l-32 -50v-25l24 -21h25l3 -9l-3 -32l20 -111zM531 465l-5 -6l-15 4l-7 7v9l7 6l18 -2l4 -5z" />
    <glyph glyph-name="afii10020" unicode="&#x413;" 
d="M278 292l5 12l-11 44v46l-7 26l5 32l-16 26h-10l-5 -13l2 -10v-31l-10 -26l8 -26l-8 -17l-3 -151v-45l-8 -26l6 -20l-6 -26l6 -9l15 -4l20 7v39l5 11l4 39l-5 28l7 37l11 26zM572 450l-2 -6l-5 -5h-6l-28 57l-13 6l-20 -4l-9 -9l9 -30l-11 -26l-15 -26l-30 -15l-26 6
l-12 31l-23 10v18l4 8l-2 14l-22 17l-43 -13v-46v-21l-7 -22v-59l-6 -33l6 -21v-46l5 -57l-11 -74l-1 -12l5 -14l33 -24l15 -6l21 -20h16v-12l-5 -3l-24 -6l-47 -24h-33l-11 -7l-26 2l-15 9l-26 -9l-52 11l-20 -8l-50 -5l-33 24l-21 28v18l47 26l24 6l35 46l-8 65l13 26
l-5 39l4 38v24l-6 13l7 63l-7 26v52l-20 21h-43l-24 46v31l7 8l36 3l13 4h38l4 4l30 -6l29 6l78 -8h35h47l11 4l35 -7h31l60 -26l11 -2l7 -11l6 -6l26 6h9l17 -22z" />
    <glyph glyph-name="afii10021" unicode="&#x414;" 
d="M348 312l5 19l2 155l-13 19l-18 1l-19 13l-22 2l-13 -3l-26 -39v-52v-32v-33l-11 -24v-52l-9 -30l13 -25v-25l-4 -70l-13 -22v-32l33 -11l17 17l9 2l24 -15l15 -4l11 10l13 35l-2 63l4 9l6 39l5 65zM563 -73l-12 5l-11 12l-20 -13l-4 -6l8 -24l-26 -6l-24 -9l-34 6l-7 9
l-6 37l-13 39l-18 17l-67 3l-24 6l-146 -13l-13 -9l-26 -4l-6 -6l8 -26l4 -7l-6 -17l-43 -40l-22 1l-39 43l2 100l32 57l7 8l24 -8l32 13l38 47l10 39l-6 51l6 28l5 32l2 70l6 19l-6 16l17 37l-8 54l4 18l-4 12l-5 3l-71 6l-7 13l7 26l12 7l26 4l12 5l28 -5l15 7l89 -5h26
l7 5l110 -2l46 -11l9 -13v-14l-28 -19l-11 -4l-15 -22v-31l-1 -73l-6 -7l-6 -46l-11 -36l19 -114l5 -19l-7 -44l7 -35l32 -26l31 -6l21 -26l5 -24l8 -7v-28l20 -30l7 -2l26 15l2 -13v-7z" />
    <glyph glyph-name="afii10022" unicode="&#x415;" 
d="M376 128l-11 -8h-15l-11 11v8l13 13h11l15 -15zM500 107v-46l-5 -13v-9l13 -10l-6 -27l-11 5l-30 -18h-13l-5 5l-24 -5l-40 10l-25 -12h-15l-16 18l-23 -14l-24 -4l-37 12l-76 -12l-57 2l-20 -6l-28 8l-21 16l-5 32l-4 2v7l32 11l16 13l28 2l15 11l17 91l3 33l-7 35l4 63
l7 19l-4 87l13 26l-2 33l-26 33l-14 10h-26l-37 14l-8 12v9l39 31l6 2l87 -7l37 7l53 -4h39l163 -3l11 -6l13 -20l4 -26v-20l6 -25v-29l3 -26l8 -13l-6 -24l-31 -13l-41 13l-11 17l4 12l9 13l-6 36l-3 31l-6 6l-24 -10l-30 6l-11 -6l-15 4l-22 13h-9l-4 -4h-13l-40 17
l-13 -4l-26 -33l-2 -33v-19v-33l-6 -13l6 -32l18 -16h28l26 7l9 6l11 26l11 13l2 22l34 31h5l11 -18l17 -15l-2 -26l6 -17l5 -3l-5 -32l7 -18l13 -19l2 -4v-9l-15 -20l-11 -47l-26 -25l-26 1l-20 30l-2 13l-20 26l-43 9l-15 -2l-11 -13l-7 -33l-6 -20v-45l4 -24l7 -46
l28 -15l44 9h12l9 17l5 6l21 -12l29 -1l13 -6l17 2l17 18l13 86l27 42l5 6l8 -4l26 -4l12 -21l9 -32z" />
    <glyph glyph-name="afii10024" unicode="&#x416;" 
d="M185 75l-9 19h-6l-7 -17l3 -8l13 -1l6 3v4zM229 97l-7 4l-6 -13l2 -7h6l5 3v13zM235 192l5 22l-5 5l-6 2l-18 6l-6 7h-20l-9 -7l-17 -48l7 -11l13 -6v-7l-2 -2v-13h13l6 -6l13 -18l7 -2l19 22l7 30zM235 245l-4 2h-9l-8 -9l15 -4l6 6v5zM242 506l-50 6l-13 -13l-3 -13
l7 -33l-7 -17v-28l14 -40l37 -39h10l13 52l-8 27l9 84zM555 56l-39 -64l-13 -6l-40 -2h-19l-30 32l-16 29l-8 32l4 20l-4 21l4 42l-4 19l-22 33l-4 6l-9 -4l-13 -19l-26 -7l-9 -9l2 -10l17 -9l-6 -33l-13 -24l2 -26l52 -54l-2 -20l-8 -9l-83 -10l-67 2l-22 24l-7 8l-15 -19
l-30 6l-20 -28l-13 -6l-43 10h-18l-32 37l-1 26l-6 12l7 60l19 18l31 -5l13 -11h10l5 13v13l8 11l13 72l31 33l13 19l20 5l8 10l-6 22l-29 26l-13 26v26v25l-10 21l-35 22l-24 4h-7l-19 26l4 40l22 21l37 16l22 -5l23 -19l27 -18l8 -2h7l35 26l15 7l22 -2l23 -11l39 6l35 -6
l16 -18l-29 -33l-13 -2h-8l-11 -13l-7 -30l7 -17l-3 -57v-26l7 -24l7 -7l25 5l35 46v78v35l5 36l35 22l25 18h11l14 -18l24 7l10 -2l7 -14l4 -37l-43 -34l-15 2l-14 20l2 23l-2 1h-6l-7 -7l3 -50l-9 -39l-4 -68l-9 -26v-17l-11 -9l4 -11l22 -19l19 -33l25 -13v-13l-13 -13
l6 -57l20 -10l2 -5l6 -6l26 6l11 5l15 -3l20 -41z" />
    <glyph glyph-name="afii10025" unicode="&#x417;" 
d="M447 65l-5 -17l-39 -15l-59 -39l-78 -11l-52 -2l-91 48l-20 6l-24 37l-26 44v38l13 25l16 13l28 -1l47 -12l18 -16l2 -30l24 -17l33 -61l39 -14l39 1l45 24l14 21l24 17l15 55l-20 57l-78 60h-37l-46 3l-26 10l-8 11l4 15l41 33h18l17 -13l32 4l38 22l37 44v50l-37 43
l-20 11l-50 2l-13 5l-68 -18l-8 -6l-9 -16l-7 -30l-36 -55l-5 -6l-26 2l-17 18v78l6 54l13 20l16 9l41 -9l32 6l22 13l11 3l78 -3l59 -26l35 -6l24 -29l13 -6l11 -13l10 -41l5 -5l2 -50v-13l-26 -32l-4 -33l-5 -7l-4 -8l6 -15l16 -24l8 -31l20 -33v-100z" />
    <glyph glyph-name="afii10026" unicode="&#x418;" 
d="M520 499l-11 -5l-23 1l-11 -3l-7 -11l5 -41l-5 -24l15 -21l-21 -37l-5 -39l-6 -33l9 -30l-5 -24l5 -76l4 -20l4 -67l9 -11l22 -3l17 -24l6 -21l-2 -7l-24 -13l-87 -4l-19 6l-31 -6l-23 17l-13 16l2 25l21 18l24 -4l15 19l11 59l-21 78l21 37l9 31l-4 119l-4 2h-7l-20 -26
l-6 -19l-13 -14l-2 -19l-29 -35l-13 -37l-10 -22l-3 -19l-15 -11l-7 -9l-4 -24l-13 -21l-8 -50l-7 -13l2 -22l11 -11l-6 -6v-9l28 -7l-2 -23l-11 -7l-46 -5l-26 -4l-33 7l-95 2l-16 17v9l37 30l7 16l15 19l11 33l2 46l7 19l-3 30l3 33l10 15l-6 85l-6 30l-1 38l-6 13l7 36
l-11 33l-7 18l-8 8l-25 -8l-10 13v15l10 9l20 -5l20 9l35 4l15 5l21 -5l64 -4l13 -13v-13l-40 -35l-21 -5l-9 -6l-4 -6v-53l-9 -13l6 -19l-10 -41v-38l-9 -36l13 -24l-17 -31l4 -71l17 -14l9 2l11 18l8 26l11 30l20 26l2 12v8l33 26l10 48l12 39l15 17l-5 46l-2 2l28 27v69
l-8 7v6l6 5l31 2l35 6h54l50 -4l19 -29l5 -23z" />
    <glyph glyph-name="afii10027" unicode="&#x419;" 
d="M523 491l-13 -19l-28 24l-4 2l-9 -9l-4 -110l12 -18l-6 -22l-13 -30l6 -68l-12 -36v-26l6 -20v-35l11 -32l46 -50v-29l-13 -22l-11 -8l-33 -2l-13 -5l-39 7l-41 -5l-20 5l-37 33l-9 4l-6 6v7l19 13l39 13l26 35v30l9 13l-2 29l-11 25l5 25l-5 26l15 34l11 51l-6 21l15 27
l4 11l-2 9h-21l-20 -13l-6 -40l-29 -38l4 -12l-24 -16l-8 -26l-11 -15l-9 -33l-13 -26l-4 -39l-28 -21l-13 -57l-5 -7l2 -10l16 -9l2 -11v-7l-41 -28l-37 4l-68 -2h-32l-11 7l-9 13l2 30l18 15l32 7l9 20v39l-5 8v18l22 24l-17 28l8 43l-10 38l8 82l2 46l3 26l-5 17l-8 7
l-3 45l-28 3l-21 24l2 19l11 9h75h38l19 -7h15l5 -6l-5 -28l-10 -24l-25 -27l5 -41l-7 -20l2 -36l5 -9l-11 -20v-30l11 -13v-17l-18 -37l1 -14l6 -6v-11l-22 -22l2 -11l14 -15l19 2l44 44l6 33l13 19l-4 31l24 23l6 27l22 24l7 58l32 52l4 16l-6 17l-5 6l21 34l32 10l-13 19
l-37 -2l-29 -13l-21 -6l-26 9l-20 17l-56 9h-20l-20 23l-13 20l-2 31l-13 15l7 19l26 18l52 2l13 -16v-25l-11 -13v-7l24 -24l43 4l13 3h37l37 26v37l35 28l7 4l32 -17l26 -15l14 -37l-3 -39v-22l-10 -11l6 -13l19 -9h24l7 -19l7 -20l12 -19z" />
    <glyph glyph-name="afii10028" unicode="&#x41a;" 
d="M491 461l-28 -26l-24 -10l-27 4l-8 -4l-17 -31l-25 -45v-11l-27 -29l38 -30l14 -41l13 -46l-9 -18v-13l21 -19l38 -7h17h17l41 -41v-43l-10 -29l-11 -11l-39 -13l-28 -21l-25 2l-60 33l-18 4l5 32l-13 14l-5 6v9l22 24l-7 35v36l-13 39l-21 27l-18 11l-15 17l-6 6l-33 -2
l-13 -6l-41 10l-16 -10l-8 -11v-41l8 -13l-6 -33l11 -50l-5 -15l7 -15l30 -24l40 -20l39 7l8 -1h3l6 -6v-13l-22 -18h-30l-37 -19l-98 -2h-19l-9 8h-48l-15 11v22l39 30l24 16l9 17l4 39l4 13l-8 26l-5 9l17 39l-6 44l6 65l-6 13l7 19l-7 92l6 22l-6 24l-18 15h-23l-22 22
v21l13 9l43 9l1 2l73 -7l20 7l24 -2l24 -13l17 -5l4 -13v-8l-21 -11l-11 -14l-2 -13l-18 -12l-13 8l-6 -2l-5 -6v-27l5 -6h15l6 -5v-2l-6 -6h-17l-5 -7v-43l-6 -20l6 -28l7 -7l32 7h46l28 52v22l5 6l-5 31l3 15l10 6l7 11v9l9 7l23 6l5 13l6 24l9 13l37 2l24 18l39 -20
l17 -4l18 -26l2 -9l13 -11l24 -6v-13zM560 525l-9 -7l-22 2l-17 11l-2 7l19 12l22 -6l11 -11z" />
    <glyph glyph-name="afii10029" unicode="&#x41b;" 
d="M499 -6l-39 -10h-39l-3 6l-76 -4l-13 -7l-26 13l-19 24l13 42l11 10l32 -10h4l5 10l-7 35l7 31l-5 32v16l5 23v77l-2 47l-3 59l-26 22l-2 4l26 22l-2 13l-22 20l3 13l-13 12l-16 -2l-8 -10v-13l-16 -13l-10 -11l10 -31l1 -32l8 -13l-19 -27l6 -43l-15 -28l-4 -26l11 -13
v-38l6 -8l2 -5l-6 -15l-9 -24l-4 -24l-3 -10v-26l-11 -18l-2 -32l-52 -46l-35 -2l-21 -7l-39 9l-20 13l-31 50l5 61l24 21l82 -13l22 13l7 9l2 29l13 30l-2 19l-5 3l2 63l-4 13l2 48l2 82l5 9l-9 39l-17 11l-22 2l-11 17l-8 39l8 14l18 11h45l81 2l4 2l52 -2l17 -11l22 9h15
l13 -11l53 2l11 9l15 -5l13 -37v-9l-22 -19h-33l-13 -13l7 -41v-18v-26l-6 -13v-32l-5 -7l5 -52l-11 -20l11 -56l-7 -16l6 -37l-13 -26l7 -34l6 -37l24 -22h39l9 -11l2 -20l26 -13v-2z" />
    <glyph glyph-name="afii10030" unicode="&#x41c;" 
d="M207 155v44l-11 22l-15 95l-7 53l-5 34l-13 29h-6l-19 -31l10 -17v-42l3 -36l-7 -16l-2 -32l6 -102l-6 -12l8 -73l5 -3l15 -4l39 5l5 8l8 65zM420 390l-3 31l-13 2l-2 -9l7 -26l-24 -39l6 -37l-13 -13l-15 -33l6 -26l-6 -22l-4 -71l-16 -31v-28l7 -11h7l15 7l13 19v33
l9 33l15 25l2 75l19 89zM528 -14l-34 -7l-98 5h-27l-17 10l-15 24l-57 -32l-28 6l-21 11l-3 13v3h-8l-14 -13l-39 -3l-13 -6l-48 -5l-21 5l-55 -3l-17 5l-6 13l6 24l37 33l9 6l11 15l-5 65l7 26v50l11 53l-7 35l2 32l5 13l-5 39l-8 13l13 16v23l-18 14l-9 6l-19 30l-17 16
l4 26l28 22l44 -5h47l46 -4l13 -20l13 -19l11 -7l5 -6l-9 -53l-2 -47v-18l19 -91l2 -9l24 -13v-52v-31l4 -6l9 4l9 16v36l20 20l-1 30l-13 16l11 21l27 33l6 37l2 104l13 26l42 33l56 5l44 -9l15 4h9l26 -43l-5 -20l-6 -6h-26l-11 -9l-7 -33l-13 -26l4 -83l1 -119l8 -83
l-6 -36l10 -35l35 -13l26 -33v-13z" />
    <glyph glyph-name="afii10031" unicode="&#x41d;" 
d="M368 247l-11 9l-44 3l-21 8l-65 2l-12 -8h-19l-28 6l-5 -6l-8 -31l8 -19l-8 -55l8 -9l7 -38l-4 -11v-20l15 -19l50 -7l30 7l11 -5l13 -22h9l24 20l47 9l7 23l-2 63l11 35zM546 243l-19 20l-7 34l13 12h7l12 -12l5 -36v-11zM605 504h-13l-15 11l-20 -4l-5 -3l-34 -12
l-18 6l-30 -5l-15 -19v-46l-15 -41l2 -102l13 -20l-5 -35v-62v-42l-8 -19l24 -37l10 -7h26l16 30l8 1h7l6 -11l-4 -15l-13 -11l4 -7l18 -33l-13 -2l-37 -35l-33 -2l-71 2l-14 5l-19 -5h-28l-26 9l-11 9v6l-7 7l-24 -6l-13 4l-15 -5l-18 -11l-26 -2l-13 -6l-61 4h-25h-48h-13
l-18 28l5 18l21 9l22 4l30 22l1 47l6 22l6 66l-10 32l6 26l5 20l-5 45l5 20l-7 54l6 7l-4 17l-8 9l6 37v8l-39 33l-26 4l-13 14v15l58 24l27 -5l37 -6l13 13l28 -4l37 -5l24 -33l30 -6l9 -13l4 -4l-32 -16l-26 3l-12 6l-23 -2l-22 -24v-7l17 -19l-4 -9l-15 -11l-5 -85l7 -13
h17h13l15 -12l27 10l19 -6l13 6l29 -10l56 10l13 16v24l9 12l-5 55l-19 17l13 29l-2 10l-50 7l-24 7l11 13v28l26 22l24 -5l15 2l6 5l20 -2l6 -5l40 5l11 -5h26l23 -13l29 -7l9 -10h34l18 11l26 -5l8 -9v-10zM552 398l-12 -7l-25 6l-2 7l5 33l-5 11l8 10l19 -13v-10l13 -24z
M259 424l-13 2l-4 9l4 17l6 6l14 -6l2 -13v-7z" />
    <glyph glyph-name="afii10032" unicode="&#x41e;" 
d="M436 244v29l6 69l-7 20l-8 39l-18 20l-19 28l-46 30l-26 3l-41 13l-30 -14l-18 -26l-20 5l-10 -7v-19l-9 -13l-17 -13l-7 -13v-40l-11 -23l-6 -26l-2 -75l13 -45l15 -31l6 -24l46 -60l20 -9h39l39 -6l58 41l13 19l13 46l31 46l4 24zM499 162l-24 -68l-28 -32l-42 -59
l-35 -13l-19 -13l-28 -6l-90 -3h-19l-20 18l-24 4l-15 16l-2 13l-18 13h-6l-7 17l-6 20l-41 67l-22 96l6 28l-6 37l9 21l8 11l2 29l5 13l6 43l22 31l13 30l13 17l16 35l32 18l15 24l35 8l11 5h28l11 8l67 -6l18 -13l19 2l66 -65l21 -46l13 -17l18 -100v-20l8 -31l3 -82z" />
    <glyph glyph-name="afii10033" unicode="&#x41f;" 
d="M527 -3l-39 -33l-15 2l-13 13h-50l-13 -6l-81 13l-17 24v34l6 7l52 17l7 9l7 26l11 15l-5 35v46l7 26l-3 19l1 53l-5 13l5 26l-5 9l4 45l7 13l-6 18l2 2l-3 17l-10 9v39l-16 13l-43 -13l-5 -6l-17 4l-24 20l-46 -5l-32 -6l-9 -20l-4 -33v-15l4 -4v-7l-17 -22l4 -32
l13 -17l-6 -100l8 -20v-37l-13 -20l5 -62l2 -22l19 -13l13 -16l27 -11l13 -34l-2 -11l-13 -7l-33 -8l-39 -13l-33 10l-11 5l-15 -5h-57l-21 37l8 27l13 11h24l16 28l13 4l8 9l-2 82l-6 13l4 52l-6 14l8 36l-6 48l8 27l-8 37l11 23l-5 50l-8 13l-14 9l-26 7l-11 13l-2 26v9
l15 10l25 -6l19 9l41 4l15 -2l16 -11l45 4l55 2l11 5h34l7 6l24 -6l6 -5l87 -2l37 -4l41 -15l7 -18l-2 -8l-44 -25h-15l-6 -6l8 -33l-6 -54l6 -19l-6 -88v-36l11 -20v-11l-11 -9l8 -37l-8 -25l-9 -9l15 -70l14 -9l17 -6l32 -43z" />
    <glyph glyph-name="afii10034" unicode="&#x420;" 
d="M422 473l-31 9l-21 26h-13l-18 -3l-27 3h-38l-22 4l-13 -7l-4 -10l4 -63l-8 -42l4 -13l11 -15l2 -39l11 -13h8l3 2l24 -1l49 -1l38 9l13 13l34 19l13 37l2 28zM506 356l-19 -31l-7 -26v-26l5 -4l-4 -13l-38 -18l-45 6l-22 -16l-22 12l-24 -6l-16 -9l-42 10l-13 -8l-7 -9
l-8 -23l-3 -39l11 -20v-48l7 -13l33 -15l22 -6l13 9l29 -3l14 -18l11 -37h-16l-39 -24l-72 3l-15 -5l-30 5h-22h-24l-9 -5l-19 5l-44 2l-10 8l-24 3l-20 21l2 24l5 7l6 6l44 1l34 8l20 13l8 13l-2 66l-4 76v21l17 29l-8 86l8 133l-11 11l-19 -4l-9 -7l-21 4l-5 3h-43l-15 11
l-7 12l6 22l27 20l26 9l54 -5h43l79 -5l12 8l20 -4l72 -3l35 -20l65 -9v-26v-13l22 -24l15 -65z" />
    <glyph glyph-name="afii10035" unicode="&#x421;" 
d="M489 414l-21 -6l-15 -70l-16 -15l-21 2l-39 39l-7 65l-7 24l-32 20l-5 15l-28 24l-26 15h-19l-33 -13l-72 -74l-15 -65l-13 -57v-32l-5 -20l9 -52l16 -45l2 -13l26 -14l-5 -19l5 -15l30 -26l35 -18l4 -6l3 -3l19 1l33 25l26 1l65 74l4 38l9 7l39 7l18 -3l10 -11v-21
l-13 -18l3 -65l-33 -19l-4 -15l-20 -14l-15 -32l-11 -7l-33 -6l-21 -13l-64 8l-19 -2h-7l-15 13l-37 2l-65 53l-39 76v8l-15 18l-11 61l-5 13l9 35l-4 50l8 32l5 37l41 87l50 56l26 7l31 26l32 13l68 -6l78 -20l32 15l25 5l13 -5l19 -21v-40l-17 -26l11 -39v-4h10l3 4h8
l5 -6z" />
    <glyph glyph-name="afii10036" unicode="&#x422;" 
d="M470 475l-13 -61l-7 -13h-21l-33 33l-11 -15l-12 25l-9 12v23l-13 17l-5 6l-33 -10l-10 -30l-9 -33v-48l-4 -12l2 -53l-5 -26l7 -50l6 -13l-6 -39l-4 -15l-1 -62v-7l9 -13l13 -24l2 -3l6 -6l22 3l47 -10l21 -21l-9 -21l-17 -22l-55 6l-45 -9l-13 -8h-13l-20 17l-20 -9
l-45 -4l-29 11l-13 24l2 24l33 19l44 1v25l12 25l-1 36l-11 24l-2 52v48l11 28l-5 45l1 66l-5 11l5 17v30l-13 17h-14l-19 28h-28l-16 -19l-30 -76l-18 -15l-17 2l-22 37l9 81l17 35l20 13l80 -3h29l193 3l4 2l66 -7l11 -13v-24l-3 -2l7 -7h11l2 -23z" />
    <glyph glyph-name="afii10037" unicode="&#x423;" 
d="M527 521l-41 -26h-24l-21 -20l-11 -2l-15 -26l-3 -46l-22 -26l-13 -50l-6 -7l-11 -54l-24 -19l-17 -98l-33 -41v-50l11 -25v-19h-11l-13 13l-32 -7l-27 -24l-63 -4l-23 -11l-7 2l-52 35l-18 3l-21 32l-9 26v46l30 24l27 9l45 -12l20 -28l-5 -26l-2 -6v-7l11 -6l20 6
l35 46l13 39l4 56l-18 61l-11 18l-26 85l-30 63l-6 15l-20 22l-4 19l-7 7l-26 -3l-31 13l-8 9l2 7l11 17l20 13l37 5l10 4l26 -4l26 4l46 -9l26 -20v-17l-22 -15l-12 -4l-12 -14v-34l18 -39l2 -31l5 -26l39 -45l8 -3l13 3l24 32l15 17l5 27l-5 24l22 49l-13 20l-6 13l-5 5
l-24 -1l-17 26v22l4 5h16l13 -7l19 7l33 6l30 13l29 -8l49 10h22l42 -45z" />
    <glyph glyph-name="afii10038" unicode="&#x424;" 
d="M242 269l-6 39l11 13v33l-11 13v42l-6 8l-18 5l-26 -18l-22 -17v-7l-13 -15h-8l-13 -11l-3 -13l-21 -32l-5 -33l5 -4l8 -5l3 -11l-12 -15v-19l12 -26l43 -38l22 -2l39 -11l22 20v13l6 20l7 50zM447 280l-9 16v30l-8 13l-3 -4l-15 -1l-6 5l-20 52l-33 2l-8 5l-18 24h-13
l2 -44l-10 -24l8 -45l-8 -53l-16 -34l18 -64l28 -2l31 9l30 24l37 28l13 26v37zM497 241l-20 -24v-35l-6 -13l-59 -58l-20 -3l-17 -15l5 -22l21 -19l9 -4l4 -13v-27l-39 -24l-22 3l-17 9l-48 -3l-45 -11l-20 13l-28 -8l-61 6l-15 22l6 24l13 13h33l15 20l-9 28l-30 26
l-28 11l-40 26l-13 21l-13 40l-19 32l8 83l59 87l26 13l37 4l20 20l33 6l13 15l-1 11l-24 16l-28 -16l-17 1l-20 26v26l24 13l39 -5l33 -6l26 9h33l11 4l15 -2c3.33301 12.667 6.33301 22 9 28c2.66699 5.33301 5 7.33301 7 6s3 -10 3 -26h20l13 -10l33 -5l8 -4l9 -16
l-4 -13l-7 -10l-39 -2l-13 -11l-37 6l-9 -9l9 -26l11 -10h32l27 -22l34 -5l26 -26l16 -6l13 -20l8 -21l15 -18l11 -72z" />
    <glyph glyph-name="afii10039" unicode="&#x425;" 
d="M512 -1l-29 -5h-26l-7 5l-15 -2l-19 -11l-29 4l-21 4l-55 5l-19 46l2 17l11 6l32 -6l9 2l11 13l-13 31l-17 26l-16 41l-17 19l-2 18l-5 6h-6l-31 -58l-13 -5l-21 -32l-4 -15l-16 -18l5 -9l39 -26l8 -36l-6 -9l-26 -16l-35 3l-24 2l-13 6l-57 1l-36 -12l-18 5l-9 20v30
l20 15l30 -6h24l20 10l19 26l7 33l20 15l11 14l8 39l18 11l8 8l7 24l19 22l2 22l11 12l-6 29l-28 35l-33 58l-4 26l-42 72l-13 11h-35h-13l-15 9h-13l-2 4l35 20l69 6l16 7l60 -5h24l2 3l22 -31v-13l-13 -11l-26 7l-32 -13v-7l34 -26l5 -6l-3 -16v-8l18 -13l17 -35l2 -2
l24 19l7 9v11l19 19l3 26l10 9v11l-10 7l-26 -1l-13 61l13 11l36 -11l16 13h43l9 5l20 -5l13 -13l24 5h26l13 2h8l11 -13v-33l-8 -13l-12 -6h-43l-13 -3l-32 -39l-27 -56l-15 -20l-13 -32l-30 -35l-3 -29l16 -36l17 -40l52 -78l22 -59l13 -12h33l23 -7h12l21 -30v-22z" />
    <glyph glyph-name="afii10040" unicode="&#x426;" 
d="M527 -95l-32 -22h-20l-21 22l-7 26l-6 37v13l-37 15l-137 -2l-22 -7l-31 4l-60 -4l-33 7l-26 -5l-48 13l-17 20l2 32l13 7l37 5l17 21v26v28l11 35l2 74l-4 29l7 47l-7 29l-6 45l10 18l-2 26l-6 13l8 39l-22 15l-34 11l-5 6v14l39 32l12 2l26 -10l52 8l10 5l25 -3l26 -19
l8 -13l-2 -15l-28 -14l-11 -19l-18 -5l-8 -2l-7 -10l5 -29l2 -46l-2 -125l-11 -22l6 -48v-33l-8 -13l4 -63l11 -19l11 -9l15 2l13 11l65 -19l26 13l33 -7l15 7l18 26l4 78v78l9 13l-5 26l-15 22l11 26l8 11l-8 33l-5 12l13 33l-4 22l-13 19l-4 18l-18 13l-24 2v13l3 4v3
l-7 10l-6 14l34 12h30l20 -9l100 12l13 -4l22 -31l-8 -39l-13 -13l-40 -13l-8 -7l2 -37l19 -6l-2 -9l-19 -24l-5 -32l-8 -13l-7 -40l7 -52l-3 -13v-58l5 -85l19 -15l18 -7l30 -33l9 -32l4 -5z" />
    <glyph glyph-name="afii10041" unicode="&#x427;" 
d="M500 256l-32 -9l-26 -41l6 -37l6 -9l-12 -33l-3 -11v-10l35 -38l30 -6l16 -18l6 -19l-2 -15l-26 -18h-104l-16 -6l-41 11l-13 2l-13 20v25l13 11h26l18 16v43l13 54l-3 11l-24 22l-32 -2l-13 -5h-37l-15 -8h-39h-24l-52 39l-33 44l-9 25l4 18l-4 26v26l-6 11v9l15 19
l-9 42l7 30l-13 24l-13 9l-13 -3l-16 1l-21 34v16l11 8l62 2l16 -6l60 9l31 -9l4 -4l-8 -38l-13 -12l-20 -1l-9 -11l2 -99l5 -11l-7 -90l7 -15l52 -34l28 6l18 -4h8l20 19h32l14 20l4 13l19 20l1 32l8 11l-6 28l4 16l9 10l-5 53v13l-17 19l-70 7l-6 10l26 26l4 12l13 10
l35 -6l11 6l22 -8l17 11l35 -11l26 -2l18 -12l6 -12l-6 -14l-14 -12l-19 -1l-11 -13v-78l4 -69l13 -22l20 -13l32 -11l16 -9v-11z" />
    <glyph glyph-name="afii10042" unicode="&#x428;" 
d="M-296 992v0zM244 453l6 16l-6 6l-26 20l-20 16l-26 -6l-22 -24v-28l-8 -13v-19l13 -26l4 -18l-5 -6l-6 -61l-6 -7l-1 -76v-32l-12 -14l-5 -25l13 -25l9 -34v-29l4 -13l42 -6l36 7l13 12v48l5 39l8 40l-10 19v50l-5 13l5 42l-5 32l5 11l-11 28l26 44zM415 401l5 13v26v33
l-16 22l-39 12l-26 -25l-17 -1l-11 -8v-5l5 -65l15 -15v-7l-9 -12l13 -24l-13 -9l-6 -31v-26l-7 -13l-4 -39l8 -28l-4 -31l9 -34l-7 -44l11 -19l13 -7l65 5l7 28v26l8 13v32l-8 40l8 11v54v78l5 13zM524 508l-24 -7l-15 -19l-6 -35l13 -98l-11 -30v-27l8 -13l-10 -58l8 -13
l-8 -29l6 -45l4 -5l-8 -28l13 -33l21 -30l22 -20l-9 -13l-36 -21l-92 -5h-19l-13 -6h-13l-16 13l-61 -5l-115 3l-9 6l-63 -9l-10 -4l-37 15l-9 13l4 24l35 35l2 65l13 20l-2 30l-11 15l5 37v29l-3 109l-4 8l7 42l-3 63l-10 17l-33 15v20l7 10l34 3l13 11h13l9 -7h48l26 -6
l15 -15l50 17l72 4l13 5l28 -11l9 -18l43 26h105l24 -9v-19z" />
    <glyph glyph-name="afii10043" unicode="&#x429;" 
d="M409 452l-4 40l-9 12l-30 24l-22 -19l-19 -20l-2 -30l-7 -30l4 -16l-8 -130v-35l-5 -37l11 -15v-26l-8 -33l15 -19v-24v-15l24 -11h30l13 11l4 13l-6 54l6 13v37l13 15l5 17l-5 29l5 22v41l-9 52l11 54zM238 433l-5 39l-12 24l-25 26l-8 -20l-20 -13l-19 -43l8 -81
l-4 -43l-6 -68v-26l2 -91l6 -6l15 -3l16 -10l6 -33h7l10 2v33l7 17l17 17v51l-6 37l7 37l-5 41l9 13v19l9 64zM533 -59v-37l-15 -21l-17 -11l-35 6l-24 26l-6 14l11 39l-5 19l-80 20l-24 -9l-33 4l-49 3l-36 -6l-24 10l-16 -8l-33 1l-44 3l-74 21l-13 27l2 13l35 32l4 52
l5 7l4 26l-9 57l9 39l4 48l9 19l-4 59l8 17l-6 28l-2 44v21l-35 24l-4 13l17 42l13 6l26 -2l26 7l24 -5l13 -10l38 -12l23 16l115 -2l35 -25l30 23l40 -9l71 -2l13 -7l5 -6l-5 -24l-21 -29l-13 -10l-7 -9l-6 -105l2 -52l-5 -22l9 -43l-11 -24l2 -41v-111l35 -30l13 -7l7 -9
l8 -43l5 -13z" />
    <glyph glyph-name="afii10044" unicode="&#x42a;" 
d="M434 241l-12 18l-40 15l-32 -5l-29 -13l-15 -7l-12 -63l6 -49v-31l8 -18l8 -3l42 -15l35 -5l16 17l21 1l12 53l3 56zM522 124l-18.001 -56.001l-25 -26l-6 -15l-7 -14l-30 -4l-25 -15h-59l-56 26l-19 -22l-46 -5h-10l-38 1l-21 17l-1 27l25 27l32 8l9 102v62l-7 133l9 26
l-4 35l-10 63l-25 9l-14 9l-32 -6h-4l-9 -9v-17l-20 -22l7 -69l-6 -20l-22 -3l-16 -4l-27 12l-7 62v35l1 68v19l13 13l70 4l60 -6c0.666992 0.666992 1.33398 1 2.00098 1c1.33301 0 2.33301 0.333008 3 1c1.33301 0.666992 3 1.33398 5 2.00098l28 1l12 11l24 -14l12 6
l50 -8l38 -15l6 -39l-53 -13l-11 -13l-1 -65l-9 -28l2 -47l22 -19l27 10l24 -5l25 3l27 -13l40 -8l41 -38l6 -31l5 -23l17 -30z" />
    <glyph glyph-name="afii10045" unicode="&#x42b;" 
d="M314 236l-26 10l-26 16l-28 8l-24 -11l-41 -2l-13 -13l-1 -32l9 -26l-13 -72l16 -31l80 -2l13 5l24 2l35 32l4 9l-18 24l18 20l2 47zM606 497l-20 -13l-7 -3l-8 -8l-9 -39l-15 -7l-7 2l-8 11l-3 22l-6 6h-4l-7 -13l2 -35l-11 -17l-8 -72l6 -21l-6 -40l6 -26l-6 -32l8 -57
l-8 -22l4 -43l7 -4l30 -9l31 -35l6 -26v-7l-37 -19h-37h-44l-26 -7l-30 7l-13 9l-33 6l-56 -19l-39 -2l-13 -7h-16l-15 15l-32 -2l-20 -7l-37 1h-33l-13 -5l-23 5l-26 15l-13 26l15 39l37 22l21 47l-6 59l6 20l-8 54l8 20l-8 58l4 13v122l-7 13l-60 28l-7 18l5 21l4 11
l56 13l15 -6l24 6l26 -8l20 4l18 -7l26 11h10l16 -24l15 -15v-24l-28 -19l-37 -4l-26 -25l11 -52l6 -6v-11l-13 -9v-17l17 -35l3 -4l17 13l22 -17h34l14 -18l19 2l13 11l13 -4l28 -26l16 -2l13 -38l10 -8l18 -5l6 -8v-11l-4 -4v-9l11 -9l-13 -26l8 -7l7 1l9 11v52l2 26l7 21
l-9 33v18l4 36v31l4 35l-13 26l1 17l-5 15l-7 7l-19 4l-33 26l-4 15l7 18l15 13l34 2l16 11l28 -6l39 6l48 -13l24 -7l15 -24l4 -8l20 -15l11 -16zM297 512h-11v21l2 3l17 -5v-11z" />
    <glyph glyph-name="afii10046" unicode="&#x42c;" 
d="M364 241l-12 18l-40 15l-32 -5l-29 -13l-15 -7l-12 -63l6 -49v-31l8 -18l8 -3l42 -15l35 -5l16 17l21 1l12 53l3 56zM452 124l-18 -55.999l-25 -26l-6 -15l-7 -14l-30 -4l-25 -15h-59l-56 26l-19 -22l-46 -5h-10l-38 1l-21 17l-1 27l25 27l32 8l9 102v62l-7 133l9 26
l-4 35l-10 63l-25 9l-20 35l2 27c1.33301 0 2.66602 0.333008 3.99902 1c2.66699 1.33301 5 2.33301 7 3c2.66699 1.33301 6.33398 2.66602 11.001 3.99902l28 1l12 11l24 -14l12 6l50 -8l38 -15l6 -39l-53 -13l-11 -13l-1 -65l-9 -28l2 -47l22 -19l27 10l24 -5l25 3l27 -13
l40 -8l41 -38l6 -31l5 -23l17 -30zM287 389.001h-11l-13 21l-2 39l13 12l13 -1l5 -56v-9z" />
    <glyph glyph-name="afii10047" unicode="&#x42d;" 
d="M480 227l-11 -20l-8 -65l-26 -33l-13 -47l-14 -39v-1l-19 -6l-28 -26l-26 -4l-20 -14l-35 7l-9 -6l-34 11h-29l-17 15l-35 10l-26 22l-21 16l-22 47l-9 29v19l31 46h19l44 -7l19 -21l15 -31l13 -15v-20l20 -24l13 -13l50 13h20l13 24l36 2l16 20l4 26l22 26l2 57l-7 8
l-19 -6l-28 26l-78 -2l-11 6l-18 -4h-8l-14 20l1 23l17 14l39 2l22 11l37 -1l21 -13l22 13l22 1l8 11l-8 34l-17 20l6 24l-13 30l-22 30l-6 12l-5 4h-24l-8 6l-36 -2l-15 -15l-15 21l-15 -6l-24 -30l-19 -9l-15 -19l-11 -31v-15l-22 -28l-24 -18h-19l-5 13l-9 74l7 11l-6 32
l-5 66l4 15l26 17h18l26 -21l59 10l52 25l9 -1l19 -19l26 8l18 -2l23 -21l25 -9l47 -39l9 -48l7 -31l19 -32l2 -22l7 -17l-2 -52l6 -7v-26z" />
    <glyph glyph-name="afii10048" unicode="&#x42e;" 
d="M228 107l6 40l-7 12l-10 22l-16 18l-4 19l-6 13l-13 2l-3 -6l-4 -30l-7 -31l-6 -78l17 -24h29l12 -4l12 4l6 19zM469 355v39l-5 13l-10 42l-29 50l-19 11l-22 4l-17 -9l-29 -4l-11 -7l-15 -28l-6 -19l-7 -48l-13 -24l-11 -39v-46l13 -18l18 1l13 -11l2 -26l-9 -11l-19 -7
v-11l8 -34l3 -27l17 -50l37 -32l39 -4l20 8l28 22l11 37l8 33l5 28v167zM230 497l-9 2l-7 -5l3 -28l-7 -13l-13 -7h-20l-6 -6l-9 -98l13 -20l16 -6l30 26v15l-11 16l-9 2l-24 15v19l7 11l19 2l7 -8l6 -31h1l10 7l7 37l6 45zM536 199l-6 -46l-16 -46l-11 -13l-2 -34l-23 -29
l-27 -34l-23 -20h-37l-13 -5l-25 7l-37 17l-21 13l-17 3h-3l-13 -26l-156 -13l-87 6l-16 17l5 51l19 13l31 2l19 11l13 15l3 80v33l4 109l2 86v38l5 15l-5 48l-22 4l-17 11l-33 2l-8 9v28l15 15l44 9l80 -13l20 4l36 4h16l24 -26l12 -11l12 3l23 17l44 9l13 8l58 2l51 -21
l36 -46l11 -56l16 -37l-3 -24l14 -126z" />
    <glyph glyph-name="afii10049" unicode="&#x42f;" 
d="M367 499h-4l-7 -2l-13 -18l-11 -4l-8 9l-1 21l-26 15l-43 3l-11 -5h-30l-18 -13l-30 -33l-5 -30l5 -8l2 -61l24 -29h74l26 -19h19l38 26l21 39l5 24l-5 15l7 33zM550 25l-7 -20l-43 -21l-22 6l-63 -6l-26 8l-66 -6l-43 13l-17 23l-3 33l-6 5v2l6 6l37 2l18 7h30l9 9
l-4 28l-9 13l-18 2l-4 4l24 3l5 11v32l15 44l6 4v9l-19 8l-35 33h-26l-13 -15l-5 -5h-32l-22 -30l-17 -139l-5 -5v-47l-22 -33l-34 -19h-52l-37 21l-7 18l-15 21l-5 52l14 31l17 6l37 -11l24 5l19 22l5 97l13 20l-4 30l-18 33l-15 5l-15 17l-13 26l2 107l6 13l33 30l20 13
l26 24l30 6l22 14l28 6l35 -2l91 -5l20 5l30 -9h35l43 -2l16 -7l13 -21l-3 -39l-30 -22h-26l-13 9l-11 -3l-15 -22l9 -39l-7 -69l-5 -39l11 -153l-4 -25l-7 -14l7 -45l22 -15l41 -5l24 -13l22 2l13 -6l4 -2z" />
    <glyph glyph-name="afii10065" unicode="&#x430;" 
d="M341 211l-15 -21h-9l-2 2l-8 6l-27 -6l-19 -9l-18 -6l-13 8l-37 5l-34 -15l-20 -1l-20 -16l-6 -19l-4 -35l10 -11l15 -20l16 -1l15 -17l26 -9l24 -17h7l13 13l13 35l8 2l18 -11l13 11l17 -2l16 4l23 22l5 13l4 80zM322 318h-7l-6 -4v-9l8 -37h11l11 26zM498 35l-7 -8h-11
l-23 -31l-11 -8l-48 6l-24 7l-22 21l-35 5l-21 -7l-22 -15l-26 -9l-31 5l-60 -9l-33 13l-44 43l-15 3l-17 28v37l-5 9l5 19l30 31l29 39l25 6l2 17l31 1l13 6l34 1l20 10h13l-2 -19l50 8l9 17l-8 14l-20 26l18 28l-12 22l-4 8l-6 5h-3l-11 -16l-15 3l-10 15l-3 6h-11
l-21 -28v-32l-24 -24l-39 -13l-39 -1l-16 18l-6 33l6 34l46 39l28 9l24 4l17 9h44l17 9l13 -4l22 -14h41l74 -37l29 -43l-9 -32v-11l9 -14l-3 -34v-39l-13 -18l3 -41l-7 -31l5 -25l6 -5l41 31l11 -1l33 -60z" />
    <glyph glyph-name="afii10066" unicode="&#x431;" 
d="M366 235l-8 22l-59 67l-78 5l-31 -16l-59 -61v-80l5 -22l-5 -26l7 -30l17 -11l2 -18l7 -13l26 -8l17 -22h53l13 9h15l19 15h16l9 6l21 39l11 38l2 78v28zM434 200v-45l-3 -46l-10 -33l-33 -34l-18 -50l-13 -5h-25l-61 -17h-33l-35 4l-35 18l-13 13l-24 6l-52 72l-2 21
l-7 11v51l-8 13l4 26l11 21l-6 31l6 21l-7 31l35 67l3 18l41 35l2 8l37 22l15 13h29l34 20l33 10h28l44 46l8 9l42 -13l15 -26l2 -46l4 -4v-7l-28 -13l-35 -11l-21 -2l-7 -6l-6 -5l6 -26l-6 -17v-11l13 -13h24l10 -13l5 -22l26 -22l8 -41l11 -24z" />
    <glyph glyph-name="afii10067" unicode="&#x432;" 
d="M394 136l-28 24h-30l-40 5l-58 -11l-9 -9l-6 -17v-39l-5 -31l5 -7l23 3l37 -9l33 -2l7 8l8 -2l13 -19l3 2h2l39 32v24l11 33zM366 304l-11 11l-37 2l-8 6l-5 -6l-8 -20h-5l-2 2l-9 22l-11 2l-24 -6l-13 -7l-8 -19l-2 -46l6 -13h7l34 -11l22 9l18 -9l13 9h34l13 8l5 9z
M473 82l-33 -70l-18 -13l-23 -4l-18 -22h-8l-11 11l-31 -8l-26 6l-67 -9h-33h-19l-31 16h-37l-17 -11l-15 6l-11 13v22l26 19h28l22 24l-5 48l5 22v43l8 16l-6 26l2 82l-22 22l-58 20l-20 23v18l28 20l22 12h37h24l67 1l9 6l20 -7l43 7l26 -6l31 -18l13 9l17 -4l67 -51
l5 -54v-28l-29 -50l3 -13l21 -28l18 -37z" />
    <glyph glyph-name="afii10068" unicode="&#x433;" 
d="M481 340l4 -35l-4 -19l-16 -20l-8 -13l-27 -17l-6 -14v-4l-7 9l-4 15l-9 11h-30l-6 28l10 33l-10 13l-33 4h-7v2l-6 5h-2l-5 -13l-35 2l-17 -2l-13 -18v-41l-8 -13l-1 -50l7 -11l-4 -15l-3 -5l1 -26l12 -17l-19 -35l-5 -28l14 -15l52 -3l17 -19v-24l-26 -22l-69 3h-20
l-54 -3l-13 5l-18 -5l-21 9l-12 24v19l25 29l2 13l23 13l12 -4l4 4l6 4l-8 24l13 20l6 32l-6 13l6 31l-6 104l-5 9l-8 8l-40 5l-23 13l-7 15l4 13l46 35l65 -4l53 -1l130 1l15 8l26 -8h33l45 -38v-21z" />
    <glyph glyph-name="afii10069" unicode="&#x434;" 
d="M317 254l-19 20l-12 28l-8 3l-24 -7v-30l17 -18v-9l-6 -6h-2l-3 2l-6 9l-2 -4l-2 -72l8 -35l-11 -19l-8 -37l6 -27l9 -6l39 6l20 13l6 64l-13 30l13 11l4 15zM473 335l-13 -11h-37l-26 -35l-10 -41l15 -32l-7 -27l7 -21l-11 -85l13 -24l11 -7h32l16 -17l17 -4l13 -37
l9 -13l-13 -31l-7 -46l-26 -32l-15 -7h-13l-15 20l-3 78l-6 5h-26l-13 8l-35 3l-11 8l-21 -6l-11 6l-20 -11l-20 5l-21 -7h-13l-13 13l-33 -11h-26l-13 -4l-13 4l-11 -13l-9 -67l-13 -13l-30 11h-9l-11 13l4 56l16 59l26 22l17 2l26 28l2 4h7l6 -12l7 -7h5l13 33l25 24
l-4 34l4 91l7 31l-6 26l-11 7l-9 -5h-4l-3 5v21l-13 9l-24 -7h-12l-20 29l19 52l11 7h33l2 2l24 -2l15 -5h29l8 -7l26 5l7 4l21 -4h25l13 -9l37 -2h21l18 11l30 -13l24 4l52 -34v-12z" />
    <glyph glyph-name="afii10070" unicode="&#x435;" 
d="M168 88l-4 26h-6v-32l8 -7l2 1v12zM362 264l-7 9l-6 24l-18 24h-10l-20 20l-31 -5l-28 18l-26 -9l-63 -28l-28 -35v-26l33 -4l13 8l21 -8l31 -1l26 -17l9 9l10 15l27 -2l21 9l11 -5h35v4zM420 204l-19 -24h-28l-52 4l-26 2l-18 -13l-32 5l-16 -18l-19 13l-7 2l-9 -6
l-36 -7l-3 -2l-2 -24l5 -4h2l18 -2l25 -33v-9v-17h9l11 17h6l3 -6v-33l6 -8l19 -3l5 5v11l8 10l11 3l14 -9l23 24l3 -2h10l5 8v26l-7 5l28 15l16 -11l28 9l17 -11l9 -15l-6 -22l-39 -48l-72 -41l-33 -13l-54 7h-46l-17 21l-39 20l-51 59l-8 26l-5 37l-13 28l16 67v31l15 19
l7 24l19 9l7 11l6 23l24 18h20l19 26l46 15h54l18 -15h28l32 -28l20 -5l6 -13v-19l24 -18l26 -61v-34z" />
    <glyph glyph-name="afii10072" unicode="&#x436;" 
d="M368 126v5.99902l-2 13l-36 7l-15 2l-6 -2l-19 -16v-18l19 -17l-12 -25l12 -20l5 -5c3.33301 -3.33301 7.33301 -5.66602 12 -6.99902c2 -1.33301 4.33301 -2 7 -2h8c2.66699 0 5.66699 0.333008 9 1l16 24h17l6 4v4l-2 18l7 26zM252 198.999h-6l-2 -6l6 -5h2v11z
M133 374.999h-11l-2 -13l8 -8l11 10zM537 5.99902l-95.001 -16.9971l-37 13l-18 13l-19 -3l-37 -26l-33 11l-20 -6l-19 6h-28l-11 15l10 29l6 4v9l12 14l-2 18l14 12l2 26l-27 -3l-9 18l-25 -4l-24 -22l1 -37l3 -12l21 -20l-2 -28l-20 -24l-32 10l-39 -11l-13 -7l-15 2
l-24 26l-4 20l-18 22l2 34l13 13l13 -4l11 -9l2 -13l27 -21h10l9 13v15l6 15l5 9l-5 13l11 41l29 22l10 22l-6 52c0.666992 6.66699 0.666992 13 0 19c-0.666992 5.33301 -1.83398 10.166 -3.50098 14.499s-4.5 7.16602 -8.5 8.49902
c-3.33301 1.33301 -6.66602 1.16602 -9.99902 -0.500977s-6.66602 -3.16699 -9.99902 -4.5c-3.33301 -2.66699 -7 -5 -11 -7l-13 22l-7 4l-28 -13l-11 3l-4 41l8 32l18 26l11 7l38 -13l5 -11l26 -13l21 -16l13 -3l4 -14l8 -14c-0.666992 -5.33301 -0.5 -9.83301 0.5 -13.5
l3.5 -12.5c0.666992 -2.66699 2 -5.16699 4 -7.5s3.66699 -4.5 5 -6.5l6 -8l-13 -11v-7l15 -20h13l7 7v33l11 30l-11 15v18l-19 16l-10 13l-1 21l56 15l20 -5l6 -6l37 -6l15 -20v-13l-22 -5l-6 -13v-54l-6 -6l-18 -2l-9 -20l1 -13h32l20 9l11 19l8 67l22 24l17 31l9 8h44
l28 -25l9 -7l4 -39l-4 -18l-31 -21l-54 -2l-18 -25l-6 -38v-20l21 -44l-2 -15l-11 -11v-10l13 -5l11 -15l3 -24l24 -13l6 -7l7 -8l15 17l13 13h24l8 -9l3 -39l15 -13v-8z" />
    <glyph glyph-name="afii10073" unicode="&#x437;" 
d="M423 53l-30 -31l-22 -15l-20 -11h-19l-24 -15h-44h-17l-17 11h-22l-26 22l-33 6l-58 59v52l15 26l13 5l32 -5l20 -8l17 -29l-4 -9l-15 -19l2 -18l30 -23l27 4l54 -4l20 8h25l18 18v4l6 5l16 -5l10 9l1 43v5l-5 6l-22 2l-19 18l-31 4l-15 9l-32 -7l-18 9l-13 17v18l26 22
l37 4l7 4l41 11l26 26l-6 18l-13 19l-27 13l-15 24h-37l-39 -4l-32 -29l-3 -28v-6l-13 -5h-17l-20 -13l-28 4l-9 12l13 65v35l11 19l20 7l37 4l9 4l56 -2l13 6l30 -6l22 -6l39 -1l22 -19l26 -7l33 -37l4 -39v-23l-6 -11l6 -22l-6 -9l8 -15v-5l-13 -8l-15 -24l4 -13l16 -17
l2 -31l8 -11z" />
    <glyph glyph-name="afii10074" unicode="&#x438;" 
d="M176 140l-18 12l-8 -11l-11 -53l11 -17h8l11 11l7 19v39zM356 274l-19 4l-11 -34l-3 -57l31 -12v16l-9 13l13 48zM165 349l-7 2l-8 -6v-20l6 -4h7l6 4l3 13zM450 -1l-44 -21h-8l-15 13l-24 -2l-20 15l-18 -5h-15l-17 16v17l13 19h19l1 -2h10l7 7l6 26l13 15l-4 22l7 35
l-28 8h-14l-13 -4h-4l-7 -19l-13 -11h-26l-6 -5l6 -15l7 -2h8v-9l-4 -4h-22l-17 -17l-13 -1l-17 -19v-26l-13 -20l-9 -8l-30 -5l-14 -11l-32 9l-9 -6l-45 15l-1 8v7l33 19l17 -2h11l5 7l-5 19l13 48l-15 116l4 17l-8 35l17 30l-9 41l-4 5l-43 2l-7 8l4 12l16 17l72 -11
l39 11l24 -5l19 -37l-4 -21l-3 -5l-19 -2l-19 -37l-25 -13v-17l11 -17l20 -7l6 -7l-12 -19l-12 -13l7 -26l11 -13l6 -5l14 3l8 8l-2 28l33 5l32 -5l9 3l6 4l-28 13l-9 17l3 14l15 19l-7 37l20 13l11 15v31l-5 8l-2 2l16 16l39 4l30 -4l41 17l24 -4l7 -18v-13l-29 -24l-13 -2
h-4l-11 -15l5 -95l6 -20l-9 -31l-10 -26l8 -47v-27v-30l20 -17l30 4l2 4h5l8 -11zM228 289h-11l-2 2l7 13h2l6 -5z" />
    <glyph glyph-name="afii10075" unicode="&#x439;" 
d="M141 308l-1 4h-4l-8 -11l2 -2h10l1 2v7zM427 25l-19 -13l-28 4h-29l-8 5l-18 -9l-21 2l-5 13v9l11 11l31 -2l4 4l-4 30l4 20l19 19v14l-13 24l3 26l15 -3l13 -21l11 -33v-26l-9 -11l4 -17l40 -24h6l7 -7v-11zM460 381l-19 -15l-35 -6l-9 6h-7l-6 -11l6 -39l-6 -21l13 -20
v-37v-30l-4 -9l-22 6l-17 39l-5 5h-39l-10 -25l-16 -12l2 -20l-13 -2l-8 -8l-1 -13l-17 -11l-7 -9v-44l-8 -8l-28 2l-11 -13l11 -44l-9 -21l-13 -7l-35 7l-13 -7l-70 2l-6 11v9l13 11h39l17 21l33 7l9 43l-4 26l-13 9h-24l-14 37l8 26l-8 90l-4 54l-15 11h-31l-8 8l2 13
l17 9l22 -2l30 -13l42 19h9l10 -19l13 -11l6 -20l-15 -32l-25 -20v-17l19 -24l13 -28h7l15 -11l17 -18h18l2 18l14 24l15 22l-9 23l16 10l4 34l-14 30l6 13l12 9l17 -2l17 -11l13 4l5 7l4 6l24 2l24 18l46 -2l10 -11zM406 490l-13 -2l-11 -11v-45h-13l-24 21h-9l-11 -15v-6
l-2 -1l-19 5l-14 -13h-23l-7 17l-2 26l-7 9l-19 -9l-5 -8v-9l11 -11v-6l-4 -1l-15 5l-11 13l-9 -4l-8 -14l-9 -8l-4 8v20l-11 11l-31 2l-22 37l-6 33l6 22l38 30l23 13l18 -4l11 -7h15l11 -52l4 -5l10 -17l14 -4l12 4l10 34l14 -10l16 -2v26l44 32l21 -4l39 -35l5 -52z" />
    <glyph glyph-name="afii10076" unicode="&#x43a;" 
d="M299 30h-7l-4 2l5 11l8 -2v-9zM475 28l-32 -44l-31 -11h-33l-13 5h-15l-37 73l-8 29l2 17v9l-15 20l-5 19l-8 7l-20 -5l-30 20l-13 15l10 30l53 7l8 6l5 5l9 20l-10 21l14 11l8 32l-6 24l6 26l20 20l6 18l13 6l40 6l4 1l28 -18l11 -2l39 -46l-4 -24l-20 -47l-8 -7l-37 5
l-9 2h-7l-36 -16l-3 -36l-22 -9l-8 -11v-15l13 -11l19 19h5l6 -6l-6 -28l6 -24l9 -18v-30l11 -22l2 -17l7 -5l24 7l15 20v6h24l11 -6l10 -31zM270 340l-26 -13l-36 -4l-7 -19l7 -15l21 -13l1 -12v-4l-38 -8l-10 -20l2 -26l21 -20l-15 -41l-6 -43l8 -22l-2 -35v-7l13 -10h7
l17 17h26l9 13h5l2 -28l10 -7l-6 -26l-13 -11l-26 3h-26l-18 -5h-47h-44l-32 11l-3 11l2 19l14 11h25l11 -4h7l17 24l3 135l13 28l-13 65l-7 31l-7 13l-10 8l-16 -2l-13 -11l-13 2l-19 31l-5 20l5 19l13 13l41 -6l52 4l11 4l22 -13l30 5l40 -3l1 -21l14 -12z" />
    <glyph glyph-name="afii10077" unicode="&#x43b;" 
d="M292 325h-6v-8h6v8zM429 323l-19 7l-5 -13l-2 -35l-11 -20l1 -69l-3 -18l9 -56l-9 -24l2 -19v-7l18 -13h20l13 -7h13l-1 -47l-36 -16l-39 3l-25 13l-15 -5l-19 5h-20l-13 6h-15l-20 20v19l13 9l9 -7h17l9 14l-6 12v7l34 4l11 9v11l-15 19v14l-8 6v17v18l-5 6l7 20l26 20
l8 11l-19 34l-42 31h-10l-3 -11l7 -39v-3h-11l-9 14v8l-10 7l-9 -2l-13 -18l-5 -48v-45l20 -18l4 -8l-6 -13l-26 -11l-5 -7v-19l1 -3v-10l-14 -9l-8 -7l-3 -35l-49 -23l-37 -3l-35 18l-13 4l-7 9l-9 50l18 32v3l11 10l39 -4l20 -35l12 -6l33 7l4 12v27l11 10l2 24l5 40l8 26
l-4 43l13 26l-11 26l-19 16l-7 -1h-8l-11 14l-15 12h-18l-8 7l2 17l23 16l96 -6l12 8l30 -24l12 18l40 8l58 2l15 -8l24 12l42 -13l17 -19v-18z" />
    <glyph glyph-name="afii10078" unicode="&#x43c;" 
d="M176 -2h-54l-30 13l-20 -11l-20 7l-6 6v14l39 30l11 33v45l8 20l7 10l7 -2l8 -21l11 -13l-6 -46l-1 -7l5 -17l33 -32l13 -12v-13zM491 346l-26 6l-21 -8l-22 -20h-31l-6 -11l6 -15l7 -11l6 -6l13 4h7l18 -32v-31l-5 -15l5 -33l-5 -19l-7 -13l1 -26l6 -14l-6 -32l8 -20
l16 -13l26 -4l8 -7l-4 -15l-35 -17l-13 -7l-26 13l-65 5l-13 13v6l37 15l28 57l-15 72l-5 9l2 26v10l12 7l8 7l4 19v6l-8 7l-31 -17l-13 -59v-26l-32 -31l6 -34l-24 -26l-8 -29v-19l-27 -26l-17 2l-13 30l-13 33l6 15l-6 18l-22 49l-4 57l-13 20l-22 19v5l-6 6l-11 -11
l-9 -39l-13 -13h-15l-9 11l5 32l-7 39h24l2 -4h2l4 4l-8 14l8 13h12l10 -18v-9l3 -4l8 11v20l-39 26l-7 2l-13 20l-6 6h-26l-15 24l2 20l13 12l32 -10h42l11 6h11l13 -21l17 -83l22 -20l2 -39l8 -20v-54l18 -37l7 -6h12l22 37l20 10l6 37l11 14l5 39l8 10h7l6 3v47l9 12
l-4 32l2 13l19 13l33 4l19 9l38 -13l17 -2l11 -13v-18z" />
    <glyph glyph-name="afii10079" unicode="&#x43d;" 
d="M497 352l-11 -13h-30l-24 -6l-5 -13v-48v-26l7 -11v-13l-7 -9v-48l-7 -37l-10 -34l16 -12l-1 -30l20 -15l26 -11l7 1l12 -9v-16l-6 -4l-59 -4l-24 -7l-26 7h-32l-20 26l5 7l21 17l7 -5h11l11 13l-3 46v57l-6 21l-2 1h-7l-11 -9l-21 8l-25 -21l-28 19l-47 -6l-12 13
l-17 -11l-8 -9l8 -46l-8 -39l6 -43l7 -7l21 13l20 -24v-8l-15 -9l-40 -6l-89 10l-21 5v19l19 11l26 -10l9 12l14 47l-12 16l12 36l-8 45v76l11 56l-4 12l-15 17l-37 -4l-13 17l4 26l44 2l4 5l65 -7h11l9 9l19 -2l29 -31v-9l-5 -6h-45l-26 -29l8 -30l-2 -20l-6 -23l2 -15
l17 -11h35l9 10l23 -6l24 28h7l13 -21v-25l6 -8h3l11 22l6 30l15 -19h5l11 26v52l8 13l-4 15l-9 6l-30 -6l-26 30l6 16l11 11l91 6l7 6l54 -10l17 -16z" />
    <glyph glyph-name="afii10080" unicode="&#x43e;" 
d="M411 205l-20 70l-32 47l-46 3l-19 17l-85 9l-18 -22l-41 -35l-6 -63l-14 -21v-13l7 -25v-23l15 -52h11l9 -11l20 -26l43 -25l32 -2h29l8 5h16l8 4l20 24h7l23 15l9 31l17 37l16 41zM452 133l-28 -73l-30 -33l-16 -15l-26 -22h-69l-9 -7h-19l-13 11l-27 -8l-26 10h-19
l-37 33l-13 4l-13 26l-15 14l-5 37l-13 60l6 27v43l18 46l15 30l4 26l14 11l21 7l20 25l20 5l23 15h13l7 -6l15 6l5 5l28 -5l65 -8l33 -33h11l32 -52l28 -50l11 -85z" />
    <glyph glyph-name="afii10081" unicode="&#x43f;" 
d="M371 204v31v26l6 28l-6 5v13l6 8l-11 27l-9 12l-47 -6l-37 11l-20 -11l-37 -2l-21 -72l6 -24l-11 -59l5 -15l21 -30v-13l-17 -28l4 -5l4 -28l25 -13l26 -4l13 -13l23 -14l29 24l48 13v29l6 11l-7 32l5 15l4 39zM512 4l-30 -21h-35h-16l-15 6l-21 -6h-25l-8 -5l-22 5
l-20 13l-24 12l-17 -27h-11l-15 13l-63 -5l-20 5l-30 -7h-37l-37 35l4 20l27 17h30l13 20l-4 21l-5 16l-8 8v9l11 13l8 50v45l-8 42l-5 11l11 19l-4 42l-5 6l-36 -6l-5 -3h-8l-18 29l2 24l11 6l15 -4l5 -3h8l13 9h33h35h34l31 7l28 -13l24 6h28l7 5l28 -11l42 4l13 5l26 -12
l21 9h13l31 -26v-15l-44 -63l-8 -22l-3 -33l-2 -45l-11 -18l16 -45l-3 -20l-8 -21v-18l17 -26l35 -13l13 -20z" />
    <glyph glyph-name="afii10082" unicode="&#x440;" 
d="M315 197l-9 -9h-8l-11 22l2 17l9 9h9l21 -22zM422 236l-11 41l-26 59l-28 26l-42 2l-4 -8l-18 -20h-13l-13 11h-13l-8 -9l-11 -15l-18 -13l-8 -13v-48l6 -65l-8 -22v-28l28 -40l13 -4l50 -39l28 9l7 -5h13l4 9l11 18l17 8l7 22l24 15l21 54zM478 134l-21 -40l-14 -45
l-56 -44l-42 -8l-53 -1l-16 14l-30 -5l-9 3v-18l-9 -11l-17 3v-16l4 -47l5 -5l28 2l32 -10l5 6l14 -7l12 -19l-22 -26l-28 -18h-20l-19 7l-39 -2h-20l-52 -2l-13 -9l-15 4l-22 20v28l17 24l15 7l16 -5l26 30l8 61l7 29l-5 30l5 30l6 35v18l-19 26l6 37l-8 54l8 61l-11 19
l-6 5l-26 6l-22 14l7 39l19 17l13 -4l13 -9l35 4l24 -10l26 -20l31 17l23 22h24h18l8 4l22 -2l13 -8l31 -5l39 -26l8 -15l24 -17l22 -64l-12 -14l12 -14l11 -76z" />
    <glyph glyph-name="afii10083" unicode="&#x441;" 
d="M468 85l-7 -30l-28 -18l-26 -32l-13 -7l-53 -8l-26 -9l-10 -4h-40l-19 -5l-35 5l-43 30l-29 4l-24 13l-24 46l-13 7l-12 30l-13 37l-12 19l20 129l13 19l2 14l70 56l41 13l16 4l15 11l35 2l12 5l18 -5l9 -10l52 -13l43 -25l15 -25l5 -20l8 -11l-6 -15l11 -22l-7 -24
l-37 -24h-21l-18 13l-8 18l-20 21l-4 39l-13 12l-16 -9l-26 4l-21 -7l-24 7l-24 -22h-16l-12 -13l-7 -37l7 -34l13 -18v-9l-14 -17l7 -22v-8l-26 -5v-21l19 -29l13 -2l55 -41l26 9l13 13h33l10 -5l20 9l31 17l34 39l20 18l22 -2l26 -16l10 -2l7 -8z" />
    <glyph glyph-name="afii10084" unicode="&#x442;" 
d="M423 228h-24l-13 9h-7l-15 -20l-7 -7h-13l-6 33l18 23l-2 24l-27 14l-13 -4l-32 12l-6 -38l23 -44h-2l-3 -2l-9 9l-6 -5l2 -26l7 -17l-3 -37v-31l-13 -17l1 -26l24 -31h47l3 -52l-7 -8l-48 -9l-24 -13l-33 6l-19 7h-26l-15 11h-20l-9 8l3 26l39 31l9 6l17 31l-4 98
l-13 21v25l-1 2l-15 -5l-11 13l20 21v40l-20 11h-21l-24 -4l-9 -27l-2 -16l-22 -27l-35 5l-10 10l4 35l6 28v46l22 33l37 4l13 4l22 -2l17 -8l61 6l13 -6l18 8l41 2l9 5l28 -7l58 -8l22 -18l11 -15l2 -39l4 -89z" />
    <glyph glyph-name="afii10085" unicode="&#x443;" 
d="M353 304l-30 20l-42 8l-17 -19l-9 -1l-19 18l-7 -4l-4 -31l6 -17l11 -5l13 5l4 -5l3 -19l-5 -5l-15 -2v-7l15 -21l2 -26l22 -31l26 -11l3 31l19 32v27l-6 34l13 18l17 2v9zM567 369l-13 -11l-6 -6h-24l-27 -26h-13h-13l-46 -55l-4 -13l-13 -9l-4 -13l4 -30v-16l-22 -32
l2 -9l18 -13l-2 -5l-37 -28l-9 -11v-33v-15l-5 -13l7 -26l6 -13l-6 -18l-2 -4l-16 13h-15l-8 -9v-8l8 -9l18 6l21 -26l-4 -21l-15 -9l-11 2l-9 20l-8 6l-9 -6l-3 -5v-41l3 -11l9 -7h17l13 13h9v-19l-16 -15l-23 13h-44l-24 -39l-26 12l-55 -30l-26 6l-13 7l-35 5l-7 6
l-26 22l-9 6l-8 7l-5 55l1 41l13 28l34 24l20 -2l39 -22l22 -35v-8l-9 -7v-6l9 -7l22 2h7l6 7v17l20 2l8 7l-2 26l15 7l9 8l-4 57l-28 57l-5 21l4 24l-4 7l-20 13l-6 13l-2 26l-39 38v43l-33 31l-48 6l-20 7l-8 11l6 22l13 19l26 11l85 -4l13 -3h51l26 -17l28 -6l18 17h13
l15 9l62 8l20 -14l68 16l3 1l26 -5l21 -20l27 5l19 -17v-20z" />
    <glyph glyph-name="afii10086" unicode="&#x444;" 
d="M248 257l-8 21l-27 33l-28 32h-45l-16 -19l-10 -30l8 -35l-6 -4l-22 -22l-9 -20l-4 -33l15 -47l-11 -26l13 -13l22 -39l9 -1l21 -13l50 13l38 55l2 30l6 20l2 52v46zM455 250l-2 35l-7 13l-9 39l-8 11h-20l-11 6l-22 3l-41 -39l-35 -100l5 -25l-9 -60v-33l20 -17l19 -35
h9l17 6l37 -10l37 24l15 34l3 39l8 13l7 77zM537 135l-23 -22l-9 -59l-24 -26l-2 -11l-29 -13l-39 -32h-26l-11 -7h-17l-9 15l-4 9l-9 7l-9 -5l3 -19l6 -9l-9 -39l22 -26l2 -24l18 -15l8 -4v-14l-28 -24h-22l-26 35l-23 20l-5 6l-21 -11l-20 -8l-18 -31l-2 -13l-4 -2h-7
l-21 15l-13 2l-7 9l4 22l37 33l35 50v39l-22 15l-8 4l-13 -19l-18 6l-13 7l-15 -5l-9 -8l-56 22l-43 49l-9 39l-11 50l6 25l-8 89l6 58l24 39l31 35l17 13l35 5h30l9 6l17 -11h53v52l-16 11l-21 26l-27 -6l-11 9l-4 36l7 22l15 16l70 -24l23 8l26 -6l22 6l20 16l28 -5
l18 -13l8 -13l-8 -33v-13l-40 -19l-24 -37v-30l26 -11l51 15l73 -35l37 -37l3 -54l12 -20v-83l12 -34z" />
    <glyph glyph-name="afii10087" unicode="&#x445;" 
d="M522 9l-9 -15l-13 -9l-58 -4l-24 4l-35 -8l-20 8l-24 -8l-32 13l-9 11l18 29l-24 30l-11 34l-29 24l-23 -19l-11 -2h-5l-6 -5l19 -26v-20l-24 -39l-13 -11l-34 5l-31 -5l-82 13l-26 14l2 17l28 19l30 3l20 10l41 29l16 8l49 63l11 24l-8 26l-16 14l-23 34l28 44l-34 6
l-31 39v13l-7 7l-43 -13h-33l-4 9l4 26l30 11h39l26 6l33 -8h52l13 -5l13 -13l-16 -26l8 -28l34 -18l-13 -13v-6l14 -11l13 10l36 28v32l-43 19v13l-11 7h-2v6l13 -6l28 21l33 -6l17 9l53 -11l63 11l23 -13l16 -25l-16 -38l-19 -12l-59 -8l-9 6l-13 -4l-17 -19l-7 -27
l-41 -32l-13 -4l-19 -29l2 -19l26 -29l24 -13l15 -22l9 -23l19 -44l28 5l48 12l39 -10l11 -28z" />
    <glyph glyph-name="afii10088" unicode="&#x446;" 
d="M500 -89l-30 -37l-9 -7l-11 1l-20 39l-10 17l8 31l-13 21l-17 13h-26l-16 -11l-63 5l-28 -5l-83 7l-84 6l-39 14l-9 23l2 16l5 6l25 -6l14 6l23 26l3 104l-5 59l-2 66l-11 23l-34 27l-14 15v23l40 20l36 -8l13 8l35 -4l27 -4l32 4l28 -13l5 -3v-12l-11 -11l-2 -27h-26
l-13 7h-7l-11 -9v-30l-15 -26l6 -54l-11 -18l5 -39l13 -13v-15l-18 -20l11 -30l20 -29l19 -13l16 1l17 12l17 -6l22 9h2l11 -26l29 24l6 8l4 52l-11 31l7 32l7 16l-9 26l9 19l-2 33l-7 17l-4 22l-13 17l-3 3l-32 4l-5 6v35l7 7l37 6l13 7l48 -9l32 7l26 -7l24 -4l7 -13
l-5 -29l-12 -11h-13l-9 -15l-3 -58l-2 -11l-19 -20l4 -26l7 -9l-5 -39l5 -60v-25l8 -10h13l13 -13v-9l26 -18l5 -80l7 -13z" />
    <glyph glyph-name="afii10089" unicode="&#x447;" 
d="M458 -13l-6 -6l-26 6l-11 7l-72 -13l-33 6l-26 13l-9 13l14 31l26 13l13 18v6h-15l-11 -6h-11l-16 19l-30 4l-39 3l-65 43l-20 31l-8 60l8 26v46l-6 11l-15 11l-61 15l-5 24l2 13l33 30l26 -2l11 -6h26h48l24 6l26 -6l6 4h7l19 -22l-4 -10l-15 -12l-15 -4l-18 -26l-24 -2
l-13 -15l3 -78l13 -46l23 -18l25 -6l26 15l15 -2l6 6l-6 22l4 11l48 18l24 47v20l-13 11h-7l-17 22l-30 4l-5 8l2 33v7l26 13l20 6l13 -6l26 6l31 -6l32 8l28 -13l7 -8l-2 -26l-11 -14l-35 -13l-7 -12l-6 -55l7 -32l15 -20l6 -65l5 -16l-5 -19l-13 -17l4 -26l59 -55v-22z
" />
    <glyph glyph-name="afii10090" unicode="&#x448;" 
d="M376 238l-18 22l-2 20l-7 21l-17 -4l-30 -30l-13 6l-6 -39l8 -69l-20 -64l18 -60l39 -5l28 5v4l7 17l8 68l-10 28l15 39v41zM237 99l-16 22v102l5 54l-5 11l-21 2l-15 20l-14 36l-15 -38l-15 -11l-11 -63l9 -17v-27l-18 -21l-4 -13l22 -26v-11l-11 -31l5 -8l10 -39l68 -1
l8 7l5 26l13 15v11zM491 14l-17 -21l-28 -16l-44 -2l-7 -8l-26 4l-28 17l-19 -4l-18 -15l-26 11l-33 -5l-37 2l-15 11l-28 -6h-24l-15 -11l-65 17l-13 5l-5 8l5 20l28 32v31l19 37l-6 69l6 33l-15 70l-19 17l-18 5l-6 30v28l24 15l54 9l24 -6l23 -18l24 3l15 9l17 19l27 -3
l7 3l78 -7l19 -4l5 -41l20 8l22 30l21 -4l13 11l26 -4l35 -35l-4 -22l-26 -30l-5 -22l-23 -35l-5 -28l7 -130v-26l-5 -11v-7l5 -6l32 -1l13 -6h24l4 -6v-7z" />
    <glyph glyph-name="afii10091" unicode="&#x449;" 
d="M348 74h-4l-7 -5v-8l5 -5l2 4h4v14zM174 78l-2 2l-4 -7h6v5zM244 248l7 21l-5 35l-13 26h-11l-15 -4l-35 -26v-31l20 -21v-7l-24 -31v-39l-7 -21l5 -26l21 -31l5 -19h2l13 -5l28 13l11 39l-6 39l13 29zM385 315l-8 2l-9 -2l-11 -11l-28 -11l-3 -11l25 -37l-20 -28v-33
v-50l13 -21h7l21 4l5 7l11 60l-5 31l5 17v42l6 28zM507 -102l-2 -7l-17 -11l-25 4l-21 22l-5 26v29l-4 8l-6 5h-50l-22 17l-65 -9l-24 2l-13 5h-44l-43 8l-26 -10l-55 13l-22 15v20l13 21l25 18l2 76l6 30l-6 65l-2 83l-33 46l4 26l11 8l39 5l2 4l24 -4l53 -7l17 -30l14 -8
v22l14 22l96 -1l28 -5l8 -32l14 20l24 26l65 -9l24 -13l9 -16l-1 -22l-37 -17l-8 -9l4 -115v-22l-6 -21v-76l10 -46l31 -24l6 -13l1 -30l12 -31l5 -6h13v-13z" />
    <glyph glyph-name="afii10092" unicode="&#x44a;" 
d="M346 161h-13l-28 -19l-24 -3l-13 -4l-2 -17l4 -9l4 -43l13 -13h7l11 4l28 -5l41 20l11 18l5 23zM464 102l4 -41l-5 -13l-19 -21l-46 -40l-39 -15l-37 4l-67 9l-39 -11l-65 11l-18 9l-9 17v11l44 26l13 4l22 35l-2 39l-5 11l13 26l-8 20l-7 13v52l-17 20v11l19 21l-2 13
l-13 11l-24 -4l-20 -22l-4 -35l-43 -39l-16 3l-21 15l-5 8l-2 74l-6 20l6 22l15 24l65 26l33 -3l22 -8l26 8l9 5l41 -7l48 13l26 -8l20 -16l8 -8l-2 -26l-13 -27l-37 -21l-13 -4l-13 -16l2 -32l30 -26l51 6l21 -13l33 -6l18 -27l18 -6l9 -42l11 -34z" />
    <glyph glyph-name="afii10093" unicode="&#x44b;" 
d="M313 96l-15 9l-6 11l13 19v7l-2 8l-24 13l-22 1l-19 -9l-25 -7l-19 16h-9l-11 -20l11 -26l-17 -22v-19l8 -7h9l16 -13l56 -11l20 5l36 26v19zM566 320l-7 -4l-28 17h-13l-26 -20v-13l6 -15l-6 -19l-7 -11l3 -28v-53v-34l-3 -31l7 -52l9 -11l13 4h10l13 -12h24v-27l-8 -17
l-15 -13l-40 9h-50l-15 -13l-30 10l-13 7l-46 -4h-31l-17 -5l-56 7l-40 -15l-32 8l-57 -13h-17l-13 5l-46 2l-11 15v20l52 39l12 4l13 18l6 26l-13 41l4 54l-8 20l11 84l-3 7l-17 11h-30l-25 33v32l9 13l15 9l35 -7l22 5l65 -2l22 10l50 -19l43 -42l-10 -12l-42 -1l-28 -19
l-26 -2l-9 -11l4 -46l5 -17v-2h19l27 6h17l17 -13l35 -6l52 -11l13 -15v-20l24 -31l5 -26v-13l-9 -10l9 -38l6 -6l18 20l10 24v28l5 11l-5 21l-4 3l4 24l-10 12l-11 1l-2 2v6l15 7l11 45l-5 29l-24 17l-2 9l-6 9l-29 15l3 19l-3 11v9l27 30l32 -8l56 4l5 6l24 -6l13 -4h26
l28 -37v-13z" />
    <glyph glyph-name="afii10094" unicode="&#x44c;" 
d="M338 159l-18 13l-32 -9l-22 16l-26 -5l-13 5l-18 6l-6 -26l6 -39l-6 -20l20 -32h12l11 6l55 -4l6 -5l15 -2l9 5v13l9 39l6 28zM431 68l-52 -55l-31 -17l-30 -9l-19 -8l-26 -1l-7 -6l-30 20h-25l-26 -5l-15 4l-11 9l-21 -2l-13 -7l-26 7l-20 -11l-13 9l-13 22l6 37l7 6h32
l13 -6l14 2l11 11l-5 47l15 45l-10 25v30l6 22l-9 35v39l-10 15l-25 13l-19 5l-15 19l2 20l39 37h37h39l17 9l22 -1l16 -12h50l8 -3l5 -6l-5 -24l4 -31l-17 -28l2 -11v-8l-15 -13h-6l-7 11v28l-6 6h-7l-15 -21l2 -24l19 -14l-2 -19h13l14 6l23 -11l42 -2l14 6l27 -21l25 -9
l-10 -16l18 -14l23 -26l7 -48v-20z" />
    <glyph glyph-name="afii10095" unicode="&#x44d;" 
d="M425 144l-15 -6l-6 -26l8 -25l-18 -32l-26 -31l-15 -21l-11 -7l-20 -2l-26 -24l-41 7h-33l-11 -7l-15 13l-24 19l-23 1l-22 34l-4 11l-29 18l-13 28l7 32l10 20v2l3 5l32 6l16 7l21 -7l22 -37l-6 -43l32 -29h50l22 9l35 28l15 7l13 19l-5 48l-58 -2l-9 -15h-13l-17 20
l-33 19v30l33 24l24 -2l19 -11l48 5l13 13l-2 26l-18 30l-26 16l-13 2l-34 30l-37 -6l-7 -11l-2 -15l-34 -16l-10 -34l-28 -25h-17l-28 38l-7 49l16 6l-10 20l3 48l10 13l12 5l28 -5l21 -13l44 2l26 12h52h26l52 -20l9 -22l31 -39l19 -57l5 -6l-12 -36l7 -18l-11 -22l16 -26
z" />
    <glyph glyph-name="afii10096" unicode="&#x44e;" 
d="M443 251l-21 33l-7 26l-22 26l-33 15l-30 -7l-26 -24h-34l-6 -20l-12 -34l-4 -20l26 -39l-18 -32l9 -53l15 -21l2 -20l13 -22l11 -4l46 -9l32 35l22 3l16 12l6 31l13 15l4 26zM513 192l-3 -37l-6 -13l-2 -20l-15 -21l-3 -26l-13 -29l-2 -21l-8 -5l-33 -4l-35 -26l-41 -6
l-61 6l-17 9l-5 6l-17 19l-3 23l-13 9l-15 -2v-44v-5l-8 -8h-31l-13 -7l-34 7l-64 -5l-19 7h-26l-7 11l7 21l19 24l35 15l13 18l4 22l7 13l6 6l9 -6l13 -20v-15l16 -16l30 -15l11 2l2 13v9l-9 9l-19 2l-13 13l-2 37l-13 11h-31l-7 7l1 26l6 13l2 48l5 25l-5 20l-21 26l-1 13
l-24 15h-19l-13 38v17l11 8l78 7l18 -9l69 -6l4 -26l-18 -29l7 -24l15 4l14 24l2 22l15 22l37 16l57 6l15 11l28 -4l30 -13l18 -3l39 -26l9 -4l11 -18l6 -21l9 -20l6 -65l7 -26z" />
    <glyph glyph-name="afii10097" unicode="&#x44f;" 
d="M334 326h-35l-13 4l-24 3l-22 -7l-30 4l-9 -4l-20 -26l-6 -31l19 -24l16 -10l37 6l19 -13h22h33l13 4l4 9l-6 28l8 44zM516 15l-21 -33l-1 -6l-17 -7l-28 5l-26 -7l-15 15h-11l-11 -11h-16l-17 16h-45l-9 8l-20 -11l-39 33l-4 9v4l30 16l48 6l20 7l13 13l-9 67l6 20v12
l-6 5l-52 -5l-31 -25l-26 19l-34 -35l-7 -56l13 -35l6 -6v-7l-63 -42l-54 -4l-24 20l-21 28v39l21 18h31l15 -33h19l5 9l2 106l7 13v16l-35 39l-13 65l10 39l55 52l20 4l67 9l45 -4l13 -5l44 11l19 -6l61 4l11 4l22 -2l24 -13l13 -19l-4 -15l-40 -44l-25 11l-9 -4l-11 -20
l-4 -46l-18 -24l13 -86l-6 -27l6 -47l5 -18v-2l4 -6h33l23 15l16 -5l11 -15l25 -13z" />
    <glyph glyph-name="afii10071" unicode="&#x451;" 
d="M352 301l-27 17l-95 13l-28 -15l-22 -7l-17 -12l-14 -48l5 -11h22h28l26 -2h48l47 -3l25 -10l15 10l8 16zM441 177l-16 -11h-32h-50l-13 11l-100 -11l-20 7h-26l-13 6l-17 -2l-24 -30v-16l13 -22l6 -28l27 -32l41 -9h56l20 7h39l59 65h28l17 -24l-4 -31l-22 -28l-65 -45
l-26 -9l-15 -11h-52l-16 -5l-15 3l-19 13l-33 8l-19 7l-59 59l-24 58l-13 46l4 72l26 71l5 18l39 41l8 13l39 20l16 21l48 -4h36l20 -6l30 2h7l31 -28l15 -5l50 -65l4 -39l17 -20l5 -41zM456 466l-31 -28l-34 -13l-18 2l-39 43l-2 55l18 17l34 15l35 -8l26 -29l13 -34z
M204 494l-29 -41l-8 -19l-17 -9l-22 6l-42 20l-6 6v48v28l22 18l17 6l24 15l15 -4l18 -24l21 -11l11 -13z" />
    <glyph glyph-name="afii10099" unicode="&#x452;" 
d="M500 139l-4 -72l6 -40l-9 -37l-14 -97l-3 -36l-10 -12l-3 -30l-45 -39l-22 -9h-30h-28l-30 18l-26 43l4 46v13l19 19l48 -13h26l13 7l13 13l5 71l18 37l-4 54l10 58l2 95l-17 35l10 34l-34 32l-44 9l-33 -9l-10 16l-19 -18l-6 13l-19 -6l-13 -35l-4 -75l-17 -24v-70l7 -7
l-7 -10l7 -32l42 -18l34 -6v-10l17 -27l-17 -25l-35 -17l-58 -8l-27 16l-43 -8l-59 -7l-43 39l15 35l28 12l47 21l2 46l19 29l-9 18l3 60l10 11l-11 20l17 1l5 19l-26 28l13 12l-11 17l-17 10l5 16h-24l-16 -9l-6 -7l-16 6l-5 15l-17 -5l-16 -12l-15 9l-14 14v28l-5 5l19 36
l11 15l23 -14l10 17l25 -4l56 2l5 23l12 4l-4 17l-25 9l-58 8l1 15l-28 7l11 48l39 15l104 -8l9 8l25 -18l11 -25l-3 -25l-5 -24l-12 -2l1 -16l7 -33l45 -19l18 -12l12 11l9 3l16 -15l11 -4l15 14l9 -2l24 -7l20 -16l8 -4l3 -11l21 -2l19 -1v-21l22 -34l18 -58l-8 -28l8 -51
z" />
    <glyph glyph-name="afii10100" unicode="&#x453;" 
d="M392 616h-21l-37 -34l-30 -30l-27 -21l6 -18l-22 -21l-5 -21l-16 -13l-33 18l-6 -5h-9l-36 58l24 18l4 26l32 53l20 9l41 57l48 25l38 21l20 -34l18 -16l9 -21h-5l5 -14zM481 340l4 -35l-4 -19l-16 -20l-8 -13l-27 -17l-6 -14v-4l-7 9l-4 15l-9 11h-30l-6 28l10 33
l-10 13l-33 4h-7v2l-6 5h-2l-5 -13l-35 2l-17 -2l-13 -18v-41l-8 -13l-1 -50l7 -11l-4 -15l-3 -5l1 -26l12 -17l-19 -35l-5 -28l14 -15l52 -3l17 -19v-24l-26 -22l-69 3h-20l-54 -3l-13 5l-18 -5l-21 9l-12 24v19l25 29l2 13l23 13l12 -4l4 4l6 4l-8 24l13 20l6 32l-6 13
l6 31l-6 104l-5 9l-8 8l-40 5l-23 13l-7 15l4 13l46 35l65 -4l53 -1l130 1l15 8l26 -8h33l45 -38v-21z" />
    <glyph glyph-name="afii10101" unicode="&#x454;" 
d="M442 74l-14 -17l-20 -7l-33 -47l-26 -3l-31 -28h-13l-30 8l-55 -5l-21 21l-48 16l-28 51l17 19l-12 23l-24 -1l-8 28l-2 37l-6 51l10 22l26 22l-14 14l-18 2l18 14l12 16l-15 17l5 39l12 24l23 2l41 15l29 23h26l58 -5l13 -11l30 -19l29 21l52 4l9 -10l6 -29l-4 -104
l-26 -38l-26 1l-44 28l-23 39l-19 34l-32 1l-27 -23h-13l-26 -17l-22 -42l13 -18l30 3l12 -9l40 11l41 -27l3 -34l-9 -9l-16 -2l-18 -18l-47 7h-13l-26 -5l-10 -29l3 -31l34 -10l25 -28l14 11l28 -5l19 -10l40 17l17 19l2 45l10 22l11 12l51 -15v-6l11 -31z" />
    <glyph glyph-name="afii10102" unicode="&#x455;" 
d="M460 108v-12l-12 -12l-18 -18v-9l-3 5l-39 -39l-43 -8l-3 -4l-31 -9l-8 -9l-4 6l-12 -9l-27 21l-3 -5h-13l-9 9l-5 -4l-21 12l-37 -3l-48 -14h-13l-24 30v33l3 43l6 18l3 3l-3 5l-6 16v15l6 7l7 14l21 3l21 -21v-9l21 -16h9l-3 -5l21 -9h12l4 -12l-7 -13l21 -12l12 4
l13 8l17 -17l-5 -16l5 -6h8l5 15h30l7 -9h5l13 12l-4 13l4 5l12 -14l18 5l3 12l6 30l16 9l5 4v3l-5 6l-4 12l-34 25l-17 5l-22 16l-3 -3h-14l-7 8l-6 -5l-37 -7l-17 7l-43 5l-39 30h-7l-5 -5l-22 30l-8 34l-4 26v13l34 55l12 3l69 27l21 -6l4 -3l9 9l30 -9h25l21 -18l30 -3
l9 -13h9l16 25h5l7 9l18 -4l3 -5h6l-4 4l5 3l2 -2l-3 -5v-9l3 -3l12 -30l-12 -34l-3 -4l8 -8h-5v-13l9 -21l-9 -14h-21l5 5l-30 30l-9 25l-55 42l-26 -3v3l-21 4l-22 5h-21l-21 -5l-43 -34l-7 -8l13 -16v-9h-6l-3 3l-9 -12l9 -9v-16l21 -18h51l22 -3l42 -5v-4l21 -12l16 8
l48 -5l30 -25h16l9 -26l25 -25v-34z" />
    <glyph glyph-name="afii10103" unicode="&#x456;" 
d="M493 15l-8 -17l-22 -9l-42 -4v4l-16 9l-18 -4h-30h-28l-5 -5l-9 9l-22 -9h-37l-26 -12l-13 8l-8 9l-4 -5l-73 5v4l-3 3l-5 -3l-22 3l-12 6l-9 24l5 30l22 13h24l13 9l60 -4h46v28l-7 15h-9l4 7h5l3 -4l13 21l-4 4l9 64l-5 17l-4 76h4l5 22l4 17v4l-13 12l-12 -3l-27 -25
l-8 12l-13 13h-25l-9 -9h-21l-17 21l5 6l-5 3l-8 12l4 31h12v8l43 -8l5 3v-3l37 -4l39 -5h9l4 -4l9 9l33 -5l18 -34v-97l3 -39v-30l-8 -16l5 -64l3 -21l9 -27v-3l9 -9l21 5l25 4h60l25 -4l12 -21l-3 -14v-4l9 -9zM318 474h-6l-3 3l-6 -3h-37l-30 3l-3 48v13l-4 -4l-3 5l1 2
l6 -3l12 21h4l12 12l5 -3h4l5 3l21 9l34 -18l12 -30l4 -37z" />
    <glyph glyph-name="afii10104" unicode="&#x457;" 
d="M458 15l-8 -17l-22 -9l-42 -4v4l-16 9l-18 -4h-30h-28l-5 -5l-9 9l-22 -9h-37l-26 -12l-13 8l-8 9l-4 -5l-73 5v4l-3 3l-5 -3l-22 3l-12 6l-9 24l5 30l22 13h24l13 9l60 -4h46v28l-7 15h-9l4 7h5l3 -4l13 21l-4 4l9 64l-5 17l-4 76h4l5 22l4 17v4l-13 12l-12 -3l-27 -25
l-8 12l-13 13h-25l-9 -9h-21l-17 21l5 6l-5 3l-8 12l4 31h12v8l43 -8l5 3v-3l37 -4l39 -5h9l4 -4l9 9l33 -5l18 -34v-97l3 -39v-30l-8 -16l5 -64l3 -21l9 -27v-3l9 -9l21 5l25 4h60l25 -4l12 -21l-3 -14v-4l9 -9zM160 537l5 -3l-12 -9l-9 -22l-5 -3l9 -9l-25 -5l-5 -4v-9
l-16 13l-22 9v21l-12 9l-5 33l12 18l51 9l30 -5l13 -25zM369 479l-30 3l-13 9l-24 37l-6 9v13l13 8l-4 18h4l9 9l5 -5l7 8l35 4l16 -7l9 -18l9 -9l3 -51z" />
    <glyph glyph-name="afii10106" unicode="&#x459;" 
d="M462 186l-18 23l-30 5l-22 5l-9 -13l-11 -14l-20 8l10 -34v-29v-31l8 -18l8 -3l2 -15l35 -5l16 17l21 1l12 53zM546 162l-18.001 -8.00098l16 -30l-10 -62l-33 -20l-6 -15l-7 -14l-30 -4l-25 -15h-59l-16 26l-19 -22l-46 -5h-10l-38 1l-21 17l-1 27l25 27l32 8v35l24 4
l-2 26l-13 37l13 45l-14 18l10 16l10 20l-30 12l10 24l16 36h-24l-3 18l-25 9l-14 9l-12 -6h-4l-9 -9v-17l-20 -22l7 -35l-7 -9l-6 -59l-13 -35l13 -21l-13 -46l-3 -36l-10 -12l-3 -30l-30 -39l-22 -9h-30h-8l-30 18l-26 43l4 26v13l19 19l28 -13h26l13 7l28 10l2 24l-5 39
l-8 49l3 74v35l-13 26l-33 3l-13 39v19l13 13l24 13l26 4l22 -16l24 14l34 -11l40 -6c0.666992 0.666992 1.33398 1 2.00098 1c1.33301 0 2.33301 0.333008 3 1c1.33301 0.666992 3 1.33398 5 2.00098l28 1l12 11l24 -14l12 6l50 -8l38 -15l6 -39l-53 -13l-11 -13l-8 -60
l22 -19h15l16 11l25 -3l11 -11l36 -10l7 -19l18 10l20 -24l-4 -25l2 -23l26 -8z" />
    <glyph glyph-name="afii10107" unicode="&#x45a;" 
d="M462 178l-48 3l-24 10l-9 -6l-31 -11l-12 -38l4 -52l13 -17l29 -13l52 8l26 -4l8 9v26l18 43zM552 71l-34 -61l-48 -21l-43 -13l-33 -3v3l-12 8l-15 -3l-18 7l-85 -1l-24 -13l-25 -4l-20 36l11 40l52 5l26 26v30l-7 35l-44 -7l-32 19l-66 -5l-8 -9l-2 -65v-9l11 -13h18
l22 -20v-32l-25 -16l-89 -6l-13 7l-62 4v31l35 26h17l12 17l15 16l-2 30l-16 14l14 12l-16 22l3 26l-15 52l20 8l-6 20l-4 14l6 16v13l-7 7l-13 -4l-36 38v34l12 13l65 2l59 6l5 4l26 -9h27l13 -33l-32 -25l-28 -7l-17 -13l-20 -28l2 -28l32 -14l-18 -14l10 -18l54 13l34 -9
l22 -2l14 20l16 -6l11 3l17 19l-18 14l14 16v28l-14 8h-19l-17 14l-8 14l-2 41l25 14l43 1l39 8l74 -11l18 -21l-8 -31l-17 -22l-26 4l-17 -17l-7 -40l3 -16l1 -5l23 -12l25 13l26 -13l56 -4l22 -13l16 -10l28 -50l7 -52z" />
    <glyph glyph-name="afii10108" unicode="&#x45b;" 
d="M220 353l-6 2c-2 0.666992 -3.66699 1 -5 1l-47 -7l-2 2v-16l17 -17zM517 -22l-35 -0.000976562l-8 8l-9 -8l-66 8l-79 -8l-33 42l33 34h51l10 10l-10 24l17 146l-17 35l10 34l-34 32l-44 9l-35 -26l2 17l-26 -9l-6 -18l2 -26l-22 -7l-34 3l18 -36l-25 -18l-17 -24
l12 -28l-20 -12l8 -30l7 -7l-7 -10l7 -42l24 -24h62v-10l17 -17l-17 -25l-35 -17l-58 -8l-27 16l-43 -8l-59 8l-10 9l10 52h67l17 83l15 18l-28 12l12 28l14 10l-8 42l-12 70l7 8l-2 33l-20 -2l-55 7l-6 -7l-69 13l-14 14v28l-5 5l19 36l69 14l56 2l15 59l-76 17h-8l-10 10
l14 42l18 18l94 -8l9 8l25 -18v-49l-7 -10l5 -67c-0.666992 -2 -1 -4 -1 -6c0 -1.33301 -0.166992 -2.16602 -0.5 -2.49902s-0.5 -0.833008 -0.5 -1.5v-1l36 -2h15l7 -5l39 5l42 -5l21 -22v-11l46 -8l59 -60l18 -58l-8 -28l8 -51l-8 -119l8 -24l86 -17v-52z" />
    <glyph glyph-name="afii10109" unicode="&#x45c;" 
d="M392 606h-21l-37 -34l-30 -30l-27 -21l6 -18l-22 -21l-5 -21l-16 -13l-33 18l-6 -5h-9l-36 58l24 18l4 26l32 53l20 9l41 57l48 25l38 21l20 -34l18 -16l9 -21h-5l5 -14zM299 30h-7l-4 2l5 11l8 -2v-9zM475 28l-32 -44l-31 -11h-33l-13 5h-15l-37 73l-8 29l2 17v9l-15 20
l-5 19l-8 7l-20 -5l-30 20l-13 15l10 30l53 7l8 6l5 5l9 20l-10 21l14 11l8 32l-6 24l6 26l20 20l6 18l13 6l40 6l4 1l28 -18l11 -2l39 -46l-4 -24l-20 -47l-8 -7l-37 5l-9 2h-7l-36 -16l-3 -36l-22 -9l-8 -11v-15l13 -11l19 19h5l6 -6l-6 -28l6 -24l9 -18v-30l11 -22l2 -17
l7 -5l24 7l15 20v6h24l11 -6l10 -31zM270 340l-26 -13l-36 -4l-7 -19l7 -15l21 -13l1 -12v-4l-38 -8l-10 -20l2 -26l21 -20l-15 -41l-6 -43l8 -22l-2 -35v-7l13 -10h7l17 17h26l9 13h5l2 -28l10 -7l-6 -26l-13 -11l-26 3h-26l-18 -5h-47h-44l-32 11l-3 11l2 19l14 11h25
l11 -4h7l17 24l3 135l13 28l-13 65l-7 31l-7 13l-10 8l-16 -2l-13 -11l-13 2l-19 31l-5 20l5 19l13 13l41 -6l52 4l11 4l22 -13l30 5l40 -3l1 -21l14 -12z" />
    <glyph glyph-name="afii10110" unicode="&#x45e;" 
d="M353 304l-30 20l-42 8l-17 -19l-9 -1l-19 18l-7 -4l-4 -31l6 -17l11 -5l13 5l4 -5l3 -19l-5 -5l-15 -2v-7l15 -21l2 -26l22 -31l26 -11l3 31l19 32v27l-6 34l13 18l17 2v9zM567 369l-13 -11l-6 -6h-24l-27 -26h-13h-13l-46 -55l-4 -13l-13 -9l-4 -13l4 -30v-16l-22 -32
l2 -9l18 -13l-2 -5l-37 -28l-9 -11v-33v-15l-5 -13l7 -26l6 -13l-6 -18l-2 -4l-16 13h-15l-8 -9v-8l8 -9l18 6l21 -26l-4 -21l-15 -9l-11 2l-9 20l-8 6l-9 -6l-3 -5v-41l3 -11l9 -7h17l13 13h9v-19l-16 -15l-23 13h-44l-24 -39l-26 12l-55 -30l-26 6l-13 7l-35 5l-7 6
l-26 22l-9 6l-8 7l-5 55l1 41l13 28l34 24l20 -2l39 -22l22 -35v-8l-9 -7v-6l9 -7l22 2h7l6 7v17l20 2l8 7l-2 26l15 7l9 8l-4 57l-28 57l-5 21l4 24l-4 7l-20 13l-6 13l-2 26l-39 38v43l-33 31l-48 6l-20 7l-8 11l6 22l13 19l26 11l85 -4l13 -3h51l26 -17l28 -6l18 17h13
l15 9l62 8l20 -14l68 16l3 1l26 -5l21 -20l27 5l19 -17v-20zM429 504l-18 -10l-37 5h-21l-37 -32h-19l-19 19l-31 -6h-21l-6 19h-37l-21 -19v6l8 8l-32 18l-18 24v26l18 19l24 -13l13 -32l19 -19h13l8 8v-8l42 -5h8l13 -13l56 37l27 53l13 5l63 -26z" />
    <glyph glyph-name="afii10193" unicode="&#x45f;" 
d="M470 342h-29l-13 -20l3 -19l10 -26l3 -3l-13 -26l-9 -65l9 -59v-32l12 -26l6 -35l15 -19l-9 -20l-40 -2h-36l-48 -2l-18 -12l-5 -18l-4 -46l-14 -42l-12 -4l-18 -44l-40 8l-18 22l4 18l4 42l-6 36l10 18l-14 21l-65 7h-26l-9 -4h-13l-30 26v17l47 65l13 98v44l-8 12
l13 57l-13 26l-48 26l-9 26l31 29h39h76h31l17 -13l4 -47l-43 -14l-13 -7v-48v-35l-3 -47l15 -7l-8 -19l-7 -64l7 -10l-4 -29l13 -26l39 5l56 -9l18 9l30 4l17 52v39l9 65l-26 42v13l17 17v9l-4 13l-4 26l-44 7l-30 26l7 26l20 21l110 -2h48l30 -36v-12z" />
    <glyph glyph-name="endash" unicode="&#x2013;" 
d="M528 199l-4 -30l-18 -22l-21 -9h-12l-9 -8h-4l-5 5l-4 -5l-21 5l-46 9l-17 -6l-9 9l-16 -9l-43 6l-14 -14l-25 5l-42 9l-13 -9l-12 3l-78 6l-28 3l-36 13l-15 17l-6 30v13l-7 9l21 37l38 26h39l15 4l6 4l16 -4l30 -9l5 -3h7l5 3l22 5h37h48h37l39 -8l12 8l73 -5l17 -3
l8 -9l5 3l12 -12l-3 3l9 9l3 -3l-5 -4l5 -5h9z" />
    <glyph glyph-name="emdash" unicode="&#x2014;" 
d="M604 169l-18 -22l-21 -9h-12l-9 -8h-4l-5 5l-4 -5l-21 5l-46 9l-57 -6l-9 9l-16 -9l-43 6l-14 -14l-105 5l-42 9l-13 -9l-12 3l-128 6l-28 3l-36 13l-15 17l8 54l38 26h39l15 4l6 4l16 -4l80 -9l5 -3h7l5 3l22 5h37h128h37l79 -8l12 8l73 -5l17 -3l8 -9l5 3l12 -12l-3 3
l9 9l3 -3l-5 -4l5 -5h9z" />
    <glyph glyph-name="quoteleft" unicode="&#x2018;" 
d="M171 596l7 39v18v28l3 -4l7 17h7l20 31l-3 2l14 15l-4 3l24 26l27 22l34 7h17l21 -38l-11 -37h-6l-4 -7l-8 -8l5 -2l-7 -7v-11h-10l-10 -9v-11l-4 -4l14 -2l3 -4h7l2 -10l5 -3h7l3 -14l7 -7l-4 -3l4 -5l10 -20l-7 -33l-13 -20v-7l-14 -8l-14 -13l-3 4l-24 -17h-10l-7 7
l-24 -5v5l-3 3h-10l3 3l-10 7h-7v4l-13 6h-7v11l-14 22l-3 -2v17v14h3z" />
    <glyph glyph-name="quoteright" unicode="&#x2019;" 
d="M372 708l-7 -39v-18v-28l-3 4l-7 -17h-7l-20 -31l3 -2l-14 -15l4 -3l-24 -26l-27 -22l-34 -7h-17l-21 38l11 37h6l4 7l8 8l-5 2l7 7v11h10l10 9v11l4 4l-14 2l-3 4h-7l-2 10l-5 3h-7l-3 14l-7 7l4 3l-4 5l-10 20l7 33l13 20v7l14 8l14 13l3 -4l24 17h10l7 -7l24 5v-5
l3 -3h10l-3 -3l10 -7h7v-4l13 -6h7v-11l14 -22l3 2v-17v-14h-3z" />
    <glyph glyph-name="quotesinglbase" unicode="&#x201a;" 
d="M394 87l-9 -49v-22v-35l-4 5l-8 -21h-9l-25 -39l4 -3l-18 -18l5 -4l-30 -33l-34 -27l-42 -9h-21l-27 48l14 46h7l6 9l9 9l-6 3l9 9v13h13l12 12v14l5 4l-17 3l-4 5h-9l-3 13l-6 3h-9l-3 18l-9 9l5 3l-5 6l-12 25l8 42l16 25v9l18 9l18 17l3 -5l30 21h13l9 -9l30 6v-6
l3 -3h13l-4 -4l13 -9h8v-5l16 -7h9v-14l18 -28l3 3v-21v-18h-3z" />
    <glyph glyph-name="quotedblleft" unicode="&#x201c;" 
d="M48 596l7 39v18v28l3 -4l7 17h7l20 31l-3 2l14 15l-4 3l24 26l27 22l34 7h17l21 -38l-11 -37h-6l-4 -7l-8 -8l5 -2l-7 -7v-11h-10l-10 -9v-11l-4 -4l14 -2l3 -4h7l2 -10l5 -3h7l3 -14l7 -7l-4 -3l4 -5l10 -20l-7 -33l-13 -20v-7l-14 -8l-14 -13l-3 4l-24 -17h-10l-7 7
l-24 -5v5l-3 3h-10l3 3l-10 7h-7v4l-13 6h-7v11l-14 22l-3 -2v17v14h3zM276 596l7 39v18v28l3 -4l7 17h7l20 31l-3 2l14 15l-4 3l24 26l27 22l34 7h17l21 -38l-11 -37h-6l-4 -7l-8 -8l5 -2l-7 -7v-11h-10l-10 -9v-11l-4 -4l14 -2l3 -4h7l2 -10l5 -3h7l3 -14l7 -7l-4 -3l4 -5
l10 -20l-7 -33l-13 -20v-7l-14 -8l-14 -13l-3 4l-24 -17h-10l-7 7l-24 -5v5l-3 3h-10l3 3l-10 7h-7v4l-13 6h-7v11l-14 22l-3 -2v17v14h3z" />
    <glyph glyph-name="quotedblright" unicode="&#x201d;" 
d="M470 708l-7 -39v-18v-28l-3 4l-7 -17h-7l-20 -31l3 -2l-14 -15l4 -3l-24 -26l-27 -22l-34 -7h-17l-21 38l11 37h6l4 7l8 8l-5 2l7 7v11h10l10 9v11l4 4l-14 2l-3 4h-7l-2 10l-5 3h-7l-3 14l-7 7l4 3l-4 5l-10 20l7 33l13 20v7l14 8l14 13l3 -4l24 17h10l7 -7l24 5v-5
l3 -3h10l-3 -3l10 -7h7v-4l13 -6h7v-11l14 -22l3 2v-17v-14h-3zM242 708l-7 -39v-18v-28l-3 4l-7 -17h-7l-20 -31l3 -2l-14 -15l4 -3l-24 -26l-27 -22l-34 -7h-17l-21 38l11 37h6l4 7l8 8l-5 2l7 7v11h10l10 9v11l4 4l-14 2l-3 4h-7l-2 10l-5 3h-7l-3 14l-7 7l4 3l-4 5
l-10 20l7 33l13 20v7l14 8l14 13l3 -4l24 17h10l7 -7l24 5v-5l3 -3h10l-3 -3l10 -7h7v-4l13 -6h7v-11l14 -22l3 2v-17v-14h-3z" />
    <glyph glyph-name="quotedblbase" unicode="&#x201e;" 
d="M242 78l-7 -39v-18v-28l-3 4l-7 -17h-7l-20 -31l3 -2l-14 -15l4 -3l-24 -26l-27 -22l-34 -7h-17l-21 38l11 37h6l4 7l8 8l-5 2l7 7v11h10l10 9v11l4 4l-14 2l-3 4h-7l-2 10l-5 3h-7l-3 14l-7 7l4 3l-4 5l-10 20l7 33l13 20v7l14 8l14 13l3 -4l24 17h10l7 -7l24 5v-5l3 -3
h10l-3 -3l10 -7h7v-4l13 -6h7v-11l14 -22l3 2v-17v-14h-3zM457 78l-7 -39v-18v-28l-3 4l-7 -17h-7l-20 -31l3 -2l-14 -15l4 -3l-24 -26l-27 -22l-34 -7h-17l-21 38l11 37h6l4 7l8 8l-5 2l7 7v11h10l10 9v11l4 4l-14 2l-3 4h-7l-2 10l-5 3h-7l-3 14l-7 7l4 3l-4 5l-10 20
l7 33l13 20v7l14 8l14 13l3 -4l24 17h10l7 -7l24 5v-5l3 -3h10l-3 -3l10 -7h7v-4l13 -6h7v-11l14 -22l3 2v-17v-14h-3z" />
    <glyph glyph-name="bullet" unicode="&#x2022;" 
d="M358 192v-21h-4l-3 -16v-12l-39 -18l-25 -18h-18l-3 -3l-9 8l-18 -8l-3 -4l-13 4l-21 21l-5 -4h-13l-12 16l-12 43l-9 5h3v12l-3 46l21 39l30 22h7l14 12l29 9l5 -5h9l3 8l55 -24l21 -22l13 -12v-18l5 -3l9 -21z" />
    <glyph glyph-name="ellipsis" unicode="&#x2026;" 
d="M238 161v-18l5 -3l9 -21l-14 -36v-21h-4l-3 -16v-12l-39 -18l-25 -18h-18l-3 -3l-9 8l-18 -8l-3 -4l-13 4l-21 21l-5 -4h-13l-12 16l-12 43l-9 5h3v12l-3 46l21 39l30 22h7l14 12l29 9l5 -5h9l3 8l55 -24l21 -22zM510 165v-18l5 -3l9 -21l-14 -36v-21h-4l-3 -16v-12
l-39 -18l-25 -18h-18l-3 -3l-9 8l-18 -8l-3 -4l-13 4l-21 21l-5 -4h-13l-12 16l-12 43l-9 5h3v12l-3 46l21 39l30 22h7l14 12l29 9l5 -5h9l3 8l55 -24l21 -22z" />
    <glyph glyph-name="afii61352" unicode="&#x2116;" 
d="M223 222l-3 6l2 -11l1 3v2zM220 509h-9l-34 4l-2 -17l-20 -22v-9l2 -17l24 -31l2 -52l13 -26l2 2l11 5l5 -5v-8l-3 -14l9 -43l2 4l1 103l-3 6l-4 15l7 13l6 74zM483 424l-6 39l-13 26h-7l-26 5v-24l-13 -18h-13l-7 -35l5 -32l-7 -18l-4 -26l11 -26l22 -4l21 15l22 11
l22 69zM509 44l-124 -3h-21l-26 29v17l26 22l39 -5l28 5h46l17 4l17 -2l22 -24v-22zM522 144l-32 -7l-13 -7l-20 2l-15 12l-52 -7h-29l-17 11l-11 13v21l18 33l8 5l27 -16h50l19 11l26 -6l54 -13l5 -7v-26zM549 398l-3 -18l-4 -60l-15 -31l-18 -20l-2 -10l-6 -5h-20l-9 -8
l-69 -3l-55 59l-8 18l-2 65l-20 39l13 37l-17 21v18l-5 4l-8 -8l-2 -27l-20 -25l9 -31l-2 -41l-3 -57l-10 -17l2 -24l11 -20l-7 -111v-30l9 -22l-13 -93l-20 -13l-22 2l-13 28l-26 26l-11 39l-15 109l-9 52l-8 28l-5 7l-4 6l-9 -2l-13 -24v-34l-8 -13l-1 -31v-41l7 -13
l-6 -26l6 -18l-7 -34l25 -27v-19l-16 -11l-54 -7l-52 12l-9 12l4 26l26 20l11 31l-6 41l-5 19l5 40l-7 45v18l13 21l-2 113l-6 11l6 22l7 11l-7 65l-6 7l-5 6l-21 2l-16 26l5 31l11 15h34l18 11l34 -11l14 4h8l26 -26l18 -2l24 15l26 -6l21 8l31 3l9 4l26 -7l39 -23h8l18 15
h20l30 19l26 5h15l18 -13l26 -3l21 -28l20 -28l11 -35z" />
    <glyph glyph-name=".null" horiz-adv-x="0" 
 />
    <glyph glyph-name="nonmarkingreturn" 
 />
    <glyph glyph-name="percent" 
d="M438 168l-26 4l-20 -25l-10 -27l-16 -39l-4 -30l18 -17h12l13 13l7 30l26 19l2 27l5 32zM303 207h-8l-7 -8l-6 -31h11l13 11l2 22zM316 447l-19 2l-9 -7l-6 -22l-11 -11l-2 -41l-33 -50l-4 -26l-22 -15v-33l7 -4l15 9l6 8l5 15l-5 18l26 15l3 11l28 28l15 24v22l-17 13
v11l8 8l15 11v14zM192 403l-36 39l-9 -2l-39 -28l-13 -29l-22 -19l-7 -55l9 -23h11l9 11h11l11 -5h13l49 55l13 30v26zM380 484l-5 4h-2l-7 -4v-11h7l7 6v5zM543 103l-5 -35l-26 -32l-15 -37l-31 -40l-26 -15l-85 -26l-34 5l-20 13l-19 4l-26 39l-5 20l4 84l14 31l-2 26
l-5 6l-7 -4l-23 -39l-15 -20l-5 -19l-26 -28l-7 -33l-15 -11l-19 -33l-2 -15l-35 -43l-15 -33l-33 -22l-26 3l-17 23l10 40l29 47l11 27l25 36l35 72l65 87l1 39l10 16l2 2l-6 6h-15l-31 -26l-41 -21l-32 13h-37l-20 28l-22 41l2 78l11 20l7 35l15 28l19 15l25 31l52 21
l26 -6l21 11h7l7 -13l10 -7l14 7h21l18 15h21l29 11l28 28l22 -2l23 15l29 11l30 20l9 4l22 -4l13 -20l8 -44l-39 -52l-24 -56l-21 -22l-5 -30l-9 -22l-13 -7l-12 -22l-20 -17l-11 -15l4 -18l-21 -21v-15l4 -5h33l32 15h81l34 -32l9 -2l17 -24l9 -54l17 -18z" />
  </font>
</defs>
</svg>
